<svg width="30" height="30" viewBox="0 0 30 30" fill="none" xmlns="http://www.w3.org/2000/svg">
<path d="M15 0.3125L2.5625 6.0625V11.4375C2.5625 17.0625 5.1875 22.3125 9.6875 25.6875L15 29.6875L20.3125 25.6875C24.8125 22.3125 27.4375 17.0625 27.4375 11.4375V6.0625L15 0.3125ZM15 20.5625C11.1875 20.5625 8.125 17.5 8.125 13.6875C8.125 9.875 11.1875 6.8125 15 6.8125C18.8125 6.8125 21.875 9.875 21.875 13.6875C21.875 17.5 18.8125 20.5625 15 20.5625Z" fill="#22BECA"/>
<path d="M13.875 15L11.9375 13.0625L10.5625 14.375L13.1875 17C13.375 17.1875 13.625 17.25 13.875 17.25C14.125 17.25 14.375 17.1875 14.5625 17L19.4375 12.125L18.125 10.8125L13.875 15Z" fill="#22BECA"/>
</svg>
