<svg width="110" height="110" viewBox="0 0 110 110" fill="none" xmlns="http://www.w3.org/2000/svg">
<g clip-path="url(#clip0_5006_664)">
<path d="M55 110C85.38 110 110 85.38 110 55C110 24.62 85.38 0 55 0C24.62 0 0 24.62 0 55C0 85.38 24.62 110 55 110Z" fill="#F8F8F8"/>
<path d="M28.0502 37.3004C29.2002 36.1404 31.9502 35.8304 36.6502 36.1004L37.2002 36.1304H37.3202C38.4802 36.3304 39.3702 37.0404 39.9502 38.1704L40.0902 38.4604L40.2302 38.8204L40.3402 39.1304C40.7202 40.2904 41.3102 42.6204 42.1502 46.1604L42.5402 47.8404L43.0902 50.2304L43.1202 50.5604C43.0602 51.7804 42.7302 52.8004 42.1102 53.6104L41.8902 53.8704L41.2302 54.5804C40.7502 55.1104 40.6102 55.4104 40.6902 55.7604L40.7302 55.9004L41.0302 56.6804C41.2802 57.3004 41.6702 58.0204 42.3702 59.0704L42.6102 59.4304L43.3302 60.4504L43.6102 60.8304L43.8002 61.0704L44.0902 61.4004C44.4702 61.8204 45.0202 62.3804 45.7202 63.0604L47.2202 64.5104L48.6202 65.6904L49.4902 66.4104C50.2002 66.9904 50.7402 67.4004 51.1002 67.6404L51.3402 67.7904L51.7802 68.0404L52.5302 68.4604C53.8302 69.1804 54.7102 69.5704 55.4002 69.8004L55.7402 69.9004L56.4902 70.1004C56.9202 70.2004 57.2002 70.0904 57.6702 69.6004L57.8302 69.4204L58.4302 68.7304C59.1002 67.9804 60.0302 67.5004 61.1802 67.2504L61.5702 67.1804H61.9102L66.4302 67.7304L68.0802 67.9504C70.1502 68.2304 71.6802 68.4504 72.6902 68.6404L73.3502 68.7704L73.6702 68.8504L73.9402 68.9304C75.1802 69.3304 76.0502 70.0904 76.4602 71.2804L76.5502 71.5604L76.6602 72.2004C77.3802 76.6104 77.3902 79.3004 76.4602 80.6404L76.3402 80.7904L75.9902 81.2004C74.3802 83.0304 72.6102 83.8604 70.2002 83.4804C57.6402 82.3604 48.0002 78.7004 41.2902 72.4904L40.7902 72.0204L40.6702 71.9004C33.3802 65.9104 28.5002 56.4904 26.0002 43.7604C25.2902 41.1104 26.0602 39.2604 28.0302 37.2804L28.0502 37.3004ZM36.9702 38.5404L36.1002 38.4904L35.2102 38.4504C32.0702 38.3404 30.1702 38.5904 29.7602 39.0004C28.3402 40.4304 27.9002 41.4804 28.3702 43.2404C30.7302 55.2304 35.1902 64.0204 41.7902 69.7004L42.3002 70.1304L42.4902 70.3204C48.7702 76.4004 58.0702 80.0104 70.5102 81.1204C71.9802 81.3504 72.9502 80.9604 73.9602 79.9004L74.1802 79.6604L74.5002 79.2804C74.8902 78.8104 74.9202 76.6304 74.3702 73.0804L74.2202 72.1004C74.1302 71.7604 73.9002 71.5104 73.4602 71.3304L73.2602 71.2604L73.0602 71.2004L72.7802 71.1304C72.2402 71.0104 71.3602 70.8604 70.1302 70.6804L68.4902 70.4504L66.1502 70.1404L61.8202 69.6004L61.6702 69.6304C61.1902 69.7304 60.8202 69.8904 60.5402 70.0804L60.3802 70.2004L60.2502 70.3304L59.6602 71.0104C58.6202 72.1804 57.6202 72.7504 56.2102 72.5004L55.9202 72.4404L55.1202 72.2304L54.9302 72.1704C54.0302 71.9004 52.9702 71.4304 51.4202 70.5804L50.6002 70.1204L50.1302 69.8504L49.9702 69.7504C49.5802 69.5004 49.0402 69.1004 48.3302 68.5404L48.0202 68.2904L47.0902 67.5204L45.6302 66.2804L44.3802 65.0804L43.4602 64.1704C43.1802 63.8904 42.9302 63.6404 42.7102 63.4004L42.3002 62.9704L41.9702 62.6004L41.7202 62.2904L41.4002 61.8504C40.0502 59.9804 39.3402 58.7904 38.8902 57.7604L38.8002 57.5404L38.4902 56.7204C38.0102 55.3704 38.3402 54.3004 39.2602 53.1804L39.4702 52.9404L40.1402 52.2304C40.4402 51.9004 40.6402 51.4004 40.7102 50.7304V50.5804L40.1002 47.8904C39.2302 44.1604 38.6002 41.6104 38.2102 40.3104L38.1102 39.9704L37.9802 39.5904L37.9002 39.4004C37.6802 38.8904 37.4202 38.6304 37.0902 38.5304L36.9902 38.5004L36.9702 38.5404ZM50.9102 26.4004C69.3202 26.4004 84.2402 41.3204 84.2402 59.7304C84.2402 60.4004 83.7002 60.9304 83.0402 60.9304C82.3802 60.9304 81.8402 60.3904 81.8402 59.7304C81.8402 42.6504 68.0002 28.8104 50.9202 28.8104C50.2502 28.8104 49.7202 28.2704 49.7202 27.6104C49.7202 26.9504 50.2602 26.4104 50.9202 26.4104L50.9102 26.4004ZM50.9102 42.4604C60.4502 42.4604 68.1802 50.1904 68.1802 59.7304C68.1802 60.4004 67.6402 60.9304 66.9802 60.9304C66.3202 60.9304 65.7802 60.3904 65.7802 59.7304C65.7802 51.5204 59.1302 44.8704 50.9202 44.8704C50.2502 44.8704 49.7202 44.3304 49.7202 43.6704C49.7202 43.0104 50.2602 42.4704 50.9202 42.4704L50.9102 42.4604ZM50.9102 34.4304C64.8802 34.4304 76.2102 45.7604 76.2102 59.7304C76.2102 60.4004 75.6702 60.9304 75.0102 60.9304C74.3502 60.9304 73.8102 60.3904 73.8102 59.7304C73.8102 47.0904 63.5602 36.8404 50.9202 36.8404C50.2502 36.8404 49.7202 36.3004 49.7202 35.6404C49.7202 34.9804 50.2602 34.4404 50.9202 34.4404L50.9102 34.4304Z" fill="#254F9D"/>
</g>
<defs>
<clipPath id="clip0_5006_664">
<rect width="110" height="110" fill="white"/>
</clipPath>
</defs>
</svg>
