<svg version="1.1" id="Capa_1" xmlns="http://www.w3.org/2000/svg" xmlns:xlink="http://www.w3.org/1999/xlink" x="0" y="0" viewBox="0 0 140 34.9" style="enable-background:new 0 0 140 34.9" xml:space="preserve" width="140" height="34.9"><style>.st1{fill:#dc1419}.st2{fill:#fff}</style><path d="M137.9 2.6c.3 0 .6.1.8.2.3.1.5.3.6.6.1.3.2.5.2.8 0 .3-.1.6-.2.8-.1.3-.3.5-.6.6-.2.1-.5.2-.8.2s-.6-.1-.8-.2c-.3-.1-.5-.3-.6-.6-.1-.2-.2-.5-.2-.8 0-.3.1-.6.2-.8.1-.3.4-.5.6-.6.2-.1.5-.2.8-.2zm0 .3c-.2 0-.4.1-.6.2-.2.1-.4.3-.5.5-.1.2-.2.4-.2.7 0 .2.1.5.2.7.1.2.3.4.5.5.2.1.4.2.7.2s.5-.1.7-.2c.2-.1.4-.3.5-.5.1-.2.2-.4.2-.7 0-.2-.1-.5-.2-.7-.1-.2-.3-.4-.5-.5-.3-.1-.6-.2-.8-.2z"/><path d="M137.9 4.4h-.2V5h-.4V3.5h.5c.4 0 .6.2.6.5 0 .1 0 .2-.1.3 0 .1-.1.1-.2.2l.3.6v.1h-.3l-.2-.8zm-.2-.2h.2c.2 0 .3-.1.3-.2 0-.2-.1-.2-.3-.2h-.2v.4z"/><defs><path id="SVGID_1_" d="M-.5-.1H139v35H-.5z"/></defs><clipPath id="SVGID_2_"><use xlink:href="#SVGID_1_" style="overflow:visible"/></clipPath><g style="clip-path:url(#SVGID_2_)"><path class="st1" d="M46.3 18c.2.1.4.3.7.4.4.2.8.4 1.3.5 1.4.4 2.8.6 4.3.6 1.5.1 2.9-.3 4.2-1.1.5-.3.9-.8 1.1-1.3.3-.5.4-1.1.4-1.7 0-.6-.1-1.1-.3-1.6-.2-.4-.5-.8-.9-1.1-.4-.3-.8-.5-1.3-.6-.5-.2-1-.3-1.5-.3l-2.3-.3c-.4 0-.8-.1-1.1-.3-.1 0-.2-.1-.3-.2-.1-.1-.1-.2-.1-.3 0-.1 0-.3.1-.4l.3-.3c.5-.2 1-.3 1.5-.2.6 0 1.1 0 1.7.1.4.1.9.2 1.3.3.3.1.6.2.8.4.1.1.3.2.4.3 0 0 .1-.1.2-.1.3-.2.6-.5.7-.8.1-.2.2-.4.2-.7 0-.3-.1-.6-.3-.8-.2-.2-.4-.4-.7-.6-.6-.3-1.2-.5-1.8-.6-1-.3-1.8-.3-2.7-.3-.8 0-1.7.1-2.5.3-.6.2-1.2.5-1.7.9-.4.3-.8.8-1 1.3-.2.5-.3 1.1-.3 1.6 0 .6.1 1.2.4 1.7.2.4.6.8 1 1.1.5.3 1 .5 1.5.7.6.2 1.2.3 1.8.3l1.2.1c.4 0 .9.1 1.3.3.1 0 .2.1.3.3.1.1.1.3.1.4 0 .1 0 .3-.1.4-.1.1-.2.2-.4.2-.5.1-1 .2-1.5.2s-1.1 0-1.6-.1-.9-.2-1.4-.3c-.4-.1-.7-.2-1-.4l-.6-.3-1.4 2.3zm-13.1 1.3H37v-6.4c0-1.6.7-2.4 2.2-2.4.3 0 .6 0 .9.1.3.1.5.3.7.5.4.5.6 1.2.6 1.8v6.4h3.8V12c0-.8-.1-1.5-.5-2.2-.3-.6-.7-1.2-1.3-1.6-.6-.4-1.2-.8-1.9-1-1.5-.4-3.1-.4-4.6 0-.7.2-1.3.5-1.9 1-.5.4-1 1-1.3 1.6-.3.7-.5 1.4-.5 2.2v7.3zm-2.2 0V3.6l-.7-.2c-.4-.1-.8-.2-1.2-.2-.5 0-1 .1-1.5.4-.2.2-.4.4-.5.6-.1.2-.1.5-.1.7v14.3l4 .1zM63.3 7.7c-.1 0-.3-.1-.7-.2-.4-.1-.8-.2-1.1-.2-.5 0-1 .1-1.4.4-.2.2-.3.4-.4.6-.1.2-.1.5-.1.7v5.4c0 .8.1 1.6.5 2.3.3.6.7 1.2 1.3 1.6.6.4 1.2.8 1.9 1 1.5.4 3.2.4 4.7 0 .7-.2 1.3-.5 1.9-1 .5-.4 1-1 1.2-1.6.3-.7.5-1.5.5-2.3V7.7c-.1 0-.3-.1-.7-.2-.4-.1-.8-.2-1.1-.2-.5 0-1 .1-1.4.4-.2.2-.3.4-.4.6-.1.2-.1.5-.1.7v4.7c0 1.6-.7 2.4-2.2 2.4-1.5 0-2.2-.8-2.2-2.4l-.2-6zM72.9 19.3h3.8v-6.7c0-.3 0-.6.1-.9.1-.3.3-.6.5-.8.4-.3 1-.5 1.5-.5.4 0 .8.1 1.2.2.3.1.6.2 1 .4l.2-.2c.1-.1.2-.3.3-.4.1-.2.2-.3.3-.5.1-.2.1-.4.1-.7 0-.2 0-.4-.1-.6-.1-.2-.2-.3-.3-.5-.3-.3-.7-.5-1.1-.7-.8-.3-1.6-.4-2.3-.4-.7 0-1.4.1-2.1.3-.6.2-1.2.5-1.6.9-.5.4-.8.9-1.1 1.5-.3.6-.4 1.3-.4 2v7.6zM85.9 11.5c.1-.3.3-.6.5-.8.2-.2.5-.4.8-.6.3-.2.7-.2 1.1-.2.5 0 .9.1 1.3.4.1.1.3.2.3.4.1.1.1.3.1.5s0 .3-.1.5-.3.4-.5.4c-.4.2-.8.3-1.3.3-.8.1-1.6.1-2.4.1 0-.4.1-.7.2-1zm.8 3.4c1.2 0 2.3-.1 3.4-.3.7-.1 1.5-.4 2.1-.7.5-.3.9-.7 1.1-1.2.2-.5.3-1 .3-1.6 0-.5-.1-1.1-.4-1.5-.3-.5-.6-1-1-1.3-.5-.4-1.1-.7-1.7-.9-.7-.3-1.5-.4-2.2-.4-.9 0-1.7.1-2.5.5-.8.3-1.5.7-2.1 1.3-.6.6-1.1 1.2-1.4 2-.3.8-.5 1.7-.5 2.6 0 .9.2 1.8.5 2.7.3.7.8 1.4 1.3 2 .6.6 1.3 1 2 1.2.8.3 1.6.4 2.5.4.6 0 1.3 0 1.9-.1.5-.1 1-.2 1.5-.4.4-.1.7-.3 1.1-.4.3-.1.5-.3.6-.3L92 15.7c-.1.1-.2.1-.3.2-.2.1-.4.2-.7.2-.3.1-.6.2-.9.2-.4.1-.8.1-1.1.1-.5 0-.9 0-1.4-.1-.3-.1-.6-.2-.9-.4-.2-.1-.4-.3-.6-.5l-.3-.6.9.1z"/><path d="M131.2 11.5c.1-.3.3-.6.5-.8.2-.2.5-.4.8-.6.3-.2.7-.2 1.1-.2.5 0 .9.1 1.3.4.1.1.3.2.3.4.1.1.1.3.1.5s0 .3-.1.5-.3.4-.5.4c-.4.2-.8.3-1.3.3-.8.1-1.6.1-2.4.1 0-.4.1-.7.2-1zm.8 3.4c1.2 0 2.3-.1 3.4-.3.7-.1 1.5-.4 2.1-.7.5-.3.9-.7 1.1-1.2.2-.5.3-1 .3-1.6 0-.5-.1-1.1-.4-1.5-.3-.5-.6-1-1.1-1.3-.5-.4-1.1-.7-1.7-.9-.7-.2-1.5-.4-2.3-.3-.9 0-1.7.1-2.5.5-.8.3-1.5.7-2.1 1.3-.6.6-1.1 1.2-1.4 2-.3.8-.5 1.7-.5 2.6 0 .9.2 1.8.5 2.7.3.7.8 1.4 1.3 2 .6.6 1.3 1 2 1.2.8.3 1.6.4 2.5.4.6 0 1.3 0 1.9-.2.5-.1 1-.2 1.5-.4.4-.1.7-.3 1.1-.4.3-.1.5-.3.6-.3l-1.3-2.6c-.1.1-.2.1-.3.2-.2.1-.4.2-.7.2-.3.1-.6.2-.9.2-.4.1-.8.1-1.1.1-.5 0-.9 0-1.4-.1-.3-.1-.6-.2-.9-.4-.2-.1-.4-.3-.6-.5l-.3-.6 1.2-.1zm-18.2 4.4h3.8v-6.4c0-1.6.7-2.4 2.2-2.4.3 0 .6 0 .9.1.3.1.5.3.7.5.4.5.6 1.2.6 1.8v6.4h3.8V12c0-.8-.1-1.5-.5-2.2-.3-.6-.7-1.2-1.3-1.6-.6-.4-1.2-.8-1.9-1-1.5-.4-3.1-.4-4.6 0-.7.2-1.3.5-1.9 1-.5.4-1 1-1.3 1.6-.3.7-.5 1.4-.5 2.2v7.3zm-11.9-3.6c-.6-.2-1-.6-1.5-1-.4-.4-.7-1-1-1.5-.2-.6-.3-1.2-.3-1.9s.1-1.3.3-1.9c.2-.6.5-1.1 1-1.5.4-.4.9-.8 1.5-1 1.2-.5 2.5-.5 3.7 0 .5.2 1 .6 1.5 1 .4.4.7 1 1 1.5.2.6.3 1.3.3 1.9 0 .6-.1 1.3-.3 1.9-.2.6-.5 1.1-1 1.5-.4.4-.9.8-1.5 1-1.2.5-2.5.5-3.7 0zm-6.2-1.1c.4 1 1.1 1.9 1.8 2.7.8.8 1.7 1.4 2.8 1.8 2.2.9 4.7.9 6.9 0 1-.4 2-1 2.8-1.8 1.2-1.2 2-2.7 2.3-4.4.3-1.7.2-3.4-.5-4.9-.4-1-1.1-1.9-1.8-2.7-.8-.8-1.7-1.4-2.8-1.8-2.2-.9-4.7-.9-6.9 0-1 .4-2 1-2.8 1.8-1.2 1.2-2 2.7-2.3 4.4-.3 1.6-.1 3.3.5 4.9zM21.3 3.7S16.2 0 10.4 0C4.6-.1-.5 3.7-.5 3.7c0 11.1-.2 16.2 10.9 19.7 11.1-3.5 10.9-8.6 10.9-19.7z"/><path class="st2" d="M10.4 19.7c4.7 0 8.5-3.8 8.5-8.5s-3.8-8.5-8.5-8.5-8.5 3.8-8.5 8.5 3.8 8.5 8.5 8.5z"/><path class="st1" d="M10.4 17.5c3.5 0 6.3-2.8 6.3-6.3s-2.8-6.3-6.3-6.3-6.3 2.8-6.3 6.3 2.8 6.3 6.3 6.3z"/><path class="st2" d="M12.5 15.9H8.3V14h.9V8.3h-.9V7l3.2-.4V14h.9l.1 1.9z"/><path d="M4.5 33.3h-3l-.6 1.5H-.5L2.1 28h1.7l2.6 6.8H5.1l-.6-1.5zm-.4-1.2L3 29.3l-1.1 2.9h2.2zM11.8 29.9v4.9h-1.3v-.6c-.2.2-.4.4-.7.6-.3.1-.6.2-.9.2-1.3 0-1.9-.9-1.9-2.2v-2.9h1.3v2.6c0 .7.3 1.2 1.1 1.2s1.2-.6 1.2-1.4v-2.4h1.2zM16.2 34.6c-.4.2-.8.2-1.1.2-1.1 0-1.6-.7-1.6-1.8v-2h-.8v-1.1h.8v-1.6h1.3v1.6h1.4V31h-1.4V33.3c0 .1.1.2.1.2.1.1.1.1.2.1h.2c.2 0 .4 0 .6-.1l.3 1.1zM16.6 32.3c0-.5.1-1 .4-1.5.3-.4.7-.8 1.2-1 .5-.2 1-.3 1.5-.2.5.1 1 .3 1.4.7.4.4.6.8.7 1.3.1.5.1 1-.1 1.5s-.5.9-1 1.2c-.4.3-.9.4-1.5.4-.3 0-.7 0-1-.2-.3-.1-.6-.3-.9-.6-.2-.2-.4-.5-.6-.9-.1 0-.2-.3-.1-.7zm4 0c0-.3-.1-.6-.3-.8-.2-.2-.5-.4-.8-.4-.3 0-.6 0-.9.2-.3.2-.5.4-.6.7-.1.3-.1.6 0 .9.1.3.3.6.6.7.3.2.6.2.9.2.3 0 .6-.2.8-.4.1-.1.2-.3.3-.5-.1-.2 0-.4 0-.6zM33.2 28v6.8h-1.3v-2.9h-3.1v2.9h-1.3V28h1.3v2.7h3.1V28h1.3zM34.2 32.3c0-.5.1-1 .4-1.5.3-.4.7-.8 1.2-1 .5-.2 1-.3 1.5-.2.5.1 1 .3 1.4.7s.6.8.7 1.3c.1.5.1 1-.1 1.5s-.5.9-1 1.2c-.4.3-.9.4-1.5.4-.3 0-.7 0-1-.2-.3-.1-.6-.3-.9-.6-.2-.2-.4-.5-.6-.9-.1 0-.1-.3-.1-.7zm4 0c0-.3-.1-.5-.3-.8-.2-.2-.4-.4-.6-.5h-.8c-.3.1-.5.2-.7.4-.2.2-.3.4-.4.7-.1.3 0 .5.1.8.1.2.3.5.5.6.2.1.5.2.8.2.2 0 .4 0 .5-.1.2-.1.3-.2.5-.3.1-.1.2-.3.3-.5.1-.1.1-.3.1-.5zM48.3 31.9v2.9H47v-2.7c0-.7-.3-1.2-.9-1.2-.7 0-1 .5-1 1.3v2.5h-1.3v-2.6c0-.7-.3-1.2-.9-1.2-.7 0-1.1.5-1.1 1.4v2.5h-1.3v-4.9h1.3v.6c.2-.2.4-.4.6-.5.3-.1.5-.2.8-.2.3 0 .6 0 .8.2.3.1.5.3.6.6.2-.2.5-.4.7-.6.3-.1.6-.2.9-.2 1.3-.1 2.1.7 2.1 2.1zM49.2 32.3c0-.3 0-.7.2-1 .1-.3.3-.6.6-.9.2-.2.5-.4.9-.6.3-.1.7-.2 1-.2.4 0 .7.1 1.1.3.3.2.6.4.9.7.2.3.4.6.5 1 .1.4.1.7.1 1.1h-3.8c0 .2.1.3.2.5.1.1.2.3.3.4s.3.2.4.2c.2 0 .3.1.5 0 .2 0 .5 0 .7-.1.2-.1.4-.3.5-.5l1.2.3c-.3.5-.7.9-1.3 1.2s-1.1.3-1.7.2c-.6-.1-1.1-.5-1.5-.9-.6-.5-.8-1.1-.8-1.7zm3.8-.4c0-.3-.2-.6-.4-.8-.2-.2-.6-.3-.9-.3-.3 0-.6.1-.9.3-.2.2-.4.5-.4.8H53zM59.9 31.4c0-.5.1-.9.3-1.4.2-.4.4-.8.8-1.2.3-.3.7-.6 1.2-.8.4-.2.9-.3 1.4-.2.7 0 1.4.2 2 .6.6.4 1 1 1.3 1.7l-1.3.3c-.2-.4-.4-.7-.8-1-.4-.2-.8-.3-1.2-.3-.3 0-.6.1-.9.2-.3.1-.5.3-.7.5-.2.2-.4.5-.5.7-.1.3-.2.6-.1.9 0 .3 0 .6.1.9.1.3.3.5.5.7.2.2.5.4.7.5.3.1.6.2.9.2.4 0 .8-.1 1.2-.3.4-.2.6-.6.8-1l1.3.3c-.2.7-.7 1.2-1.3 1.6-.6.4-1.3.6-2 .5-.5 0-.9-.1-1.4-.2-.4-.2-.8-.4-1.2-.8-.3-.3-.6-.7-.8-1.2-.3-.3-.3-.8-.3-1.2zM67.3 32.3c0-.5.1-1 .4-1.5.3-.4.7-.8 1.2-1 .5-.2 1-.3 1.5-.2.5.1 1 .3 1.4.7.4.4.6.8.7 1.3.1.5.1 1-.1 1.5s-.5.9-1 1.2c-.4.3-.9.4-1.5.4-.3 0-.7 0-1-.2-.3-.1-.6-.3-.9-.6-.2-.2-.4-.5-.6-.9 0 0-.1-.3-.1-.7zm4 0c0-.3-.1-.6-.3-.8-.2-.2-.5-.4-.8-.4-.3 0-.6 0-.9.2-.3.2-.5.4-.6.7-.1.3-.1.6 0 .9.1.3.3.6.6.7.3.2.6.2.9.2.3 0 .6-.2.8-.4.1-.1.2-.3.3-.5v-.6zM81.4 31.9v2.9h-1.3v-2.7c0-.7-.3-1.2-.9-1.2-.7 0-1 .5-1 1.3v2.5h-1.3v-2.6c0-.7-.3-1.2-.9-1.2s-1.1.5-1.1 1.4v2.5h-1.3v-4.9h1.3v.6c.2-.2.4-.4.6-.5.3-.1.5-.2.8-.2.3 0 .6 0 .8.2.3.1.5.3.6.6.2-.2.5-.4.7-.6.3-.1.6-.2.9-.2 1.3-.1 2.1.7 2.1 2.1zM90.4 31.9v2.9h-1.3v-2.7c0-.7-.3-1.2-.9-1.2-.7 0-1 .5-1 1.3v2.5h-1.3v-2.6c0-.7-.3-1.2-.9-1.2-.7 0-1.1.5-1.1 1.4v2.5h-1.3v-4.9h1.3v.6c.2-.2.4-.4.6-.5.3-.1.5-.2.8-.2.3 0 .6 0 .8.2.3.1.5.3.6.6.2-.2.5-.4.7-.6.3-.1.6-.2.9-.2 1.3-.1 2.1.7 2.1 2.1zM91.3 32.3c0-.3 0-.7.2-1 .1-.3.3-.6.6-.9.2-.2.5-.4.9-.6.3-.1.7-.2 1-.2.4 0 .7.1 1.1.3.3.2.6.4.9.7.2.3.4.6.5 1 .1.4.1.7.1 1.1h-3.8c0 .2.1.3.2.5.1.1.2.3.3.4.1.1.3.2.4.2s.3.1.5 0c.2 0 .5 0 .7-.1.2-.1.4-.3.5-.5l1.2.3c-.3.5-.7.9-1.3 1.2-.5.2-1.1.3-1.7.2-.6-.1-1.1-.5-1.5-.9-.5-.5-.8-1.1-.8-1.7zm3.9-.4c0-.3-.2-.6-.4-.8-.2-.2-.6-.3-.9-.3-.3 0-.6.1-.9.3-.2.2-.4.5-.4.8h2.6zM100.3 29.8V31c-1.1-.2-1.6.3-1.6 1.6v2.1h-1.3v-4.9h1.3v.7c.1-.3.4-.5.7-.7.3 0 .6-.1.9 0zM100.6 32.3c0-.3.1-.7.2-1 .1-.3.3-.6.6-.8.2-.2.5-.4.9-.6.3-.1.7-.2 1-.2.5 0 1 .1 1.5.4.4.3.8.7.9 1.2l-1.2.3c-.1-.2-.2-.5-.5-.6-.2-.1-.5-.2-.7-.2-.4 0-.7.2-1 .5-.2.3-.4.6-.4 1s.1.7.4 1c.2.3.6.4 1 .5.3 0 .5-.1.7-.2.2-.1.4-.4.5-.6l1.2.3c-.2.5-.5.9-.9 1.2-.4.3-.9.4-1.5.4-.3 0-.7-.1-1-.2-.3-.1-.6-.3-.9-.6-.2-.2-.4-.5-.6-.8-.2-.3-.2-.6-.2-1zM106.4 28.4c0-.2 0-.3.1-.4l.3-.3c.1-.1.3-.1.4 0 .1 0 .3.1.4.2.1.1.2.2.2.4v.4c-.1.1-.2.3-.3.3-.1.1-.3.1-.4.1-.1 0-.2 0-.3-.1-.1 0-.2-.1-.3-.2-.1-.1-.1-.2-.2-.2.1 0 .1-.1.1-.2zm.1 1.5h1.3v4.9h-1.3v-4.9zM108.8 32.3c0-.3 0-.7.1-1 .1-.3.3-.6.5-.8.2-.2.5-.4.8-.6.3-.1.6-.2 1-.2.3 0 .6 0 .9.2.3.1.5.3.7.6v-.6h1.3v4.9h-1.3v-.6c-.2.2-.4.4-.7.6-.3.1-.6.2-.9.2-.3 0-.7-.1-1-.2-.3-.1-.6-.3-.8-.6-.2-.2-.4-.5-.5-.8-.1-.4-.1-.7-.1-1.1zm4 0c0-.2 0-.4-.1-.5-.1-.2-.2-.3-.3-.5-.1-.1-.3-.2-.5-.3-.2-.1-.4-.1-.5-.1-.4 0-.7.2-1 .4-.3.3-.4.6-.4 1s.1.7.4 1c.3.3.6.4 1 .4.2 0 .4 0 .6-.1.2-.1.3-.2.5-.3.1-.1.2-.3.3-.5 0-.1.1-.3 0-.5zM115.4 27.7h1.3v7.1h-1.3v-7.1zM127 33.6v1.2h-4.7V28h1.3v5.6h3.4zM127.8 28.4c0-.2 0-.3.1-.4l.3-.3c.1-.1.3-.1.4 0 .1 0 .3.1.4.2.1.1.2.2.2.4v.4c-.1.1-.2.3-.3.3-.1.1-.3.1-.4.1-.1 0-.2 0-.3-.1-.1 0-.2-.1-.3-.2-.1-.1-.1-.2-.2-.2.1 0 .1-.1.1-.2zm.1 1.5h1.3v4.9h-1.3v-4.9zM132.2 29.9h1.5V31h-1.5v3.8H131V31h-1v-1.1h.9v-.5c0-1.1.6-1.9 1.7-1.9.4 0 .8.1 1.1.2l-.3 1c-.2-.1-.4-.1-.6-.1-.4 0-.6.3-.6.7v.6zM133.9 32.3c0-.3 0-.7.2-1 .1-.3.3-.6.6-.9.2-.2.5-.4.9-.6.3-.1.7-.2 1-.2.3 0 .7 0 1 .2.3.1.6.3.8.5.2.2.4.5.5.8.1.3.2.7.2 1v.5h-3.8c0 .3.2.6.5.9.3.2.6.3.9.3.2 0 .5 0 .7-.1.2-.1.4-.3.5-.5l1.2.3c-.2.4-.6.8-1 1.1-.4.2-.9.4-1.4.3-.4 0-.7 0-1-.1-.3-.1-.6-.3-.9-.6-.3-.2-.4-.5-.6-.9-.3-.3-.4-.6-.3-1zm3.8-.4c0-.3-.2-.6-.4-.8-.2-.2-.6-.3-.9-.3-.3 0-.6.1-.9.3-.2.2-.4.5-.4.8h2.6z"/><path class="st1" d="M24.6 33.4c.6 0 1.1-.5 1.1-1.1 0-.6-.5-1.1-1.1-1.1-.6 0-1.1.5-1.1 1.1.1.6.5 1.1 1.1 1.1zM57.1 33.4c.6 0 1.1-.5 1.1-1.1 0-.6-.5-1.1-1.1-1.1-.6 0-1.1.5-1.1 1.1 0 .6.5 1.1 1.1 1.1zM119.5 33.4c.6 0 1.1-.5 1.1-1.1 0-.6-.5-1.1-1.1-1.1s-1.1.5-1.1 1.1c0 .6.5 1.1 1.1 1.1z"/></g></svg>