<svg width="201" height="57" fill="none" xmlns="http://www.w3.org/2000/svg" viewBox="0 0 201 57"><path d="M149.653 28.072c-3.85-2.495-3.113-7.425-3.113-7.425s-7.142 7.472-.428 11.979c9.696 6.507 22.922-7.955 22.922-7.955s-12.263 8.014-19.381 3.4Z" fill="#5B2C86"/><path d="M150.532 23.988c-.808.953-.594 2.294.476 2.977 1.069.694 2.59.483 3.398-.47.808-.954.594-2.284-.475-2.978-1.069-.694-2.59-.482-3.399.47ZM156.736 17.455c4.017.306 9.934.906 13.238-.965 2.757-1.565 5.109-4.518 5.109-4.518s-5.478 1.906-10.813 1.388c-4.159-.4-5.668-1.188-10.219.636-3.838 1.53-6.084 5.213-6.084 5.213s4.753-2.072 8.769-1.754Z" fill="#5B2C86"/><path d="M165.375 11.407c.796-.953.594-2.282-.475-2.977-1.07-.694-2.591-.482-3.399.471-.808.953-.594 2.283.476 2.977 1.069.694 2.59.482 3.398-.47ZM176.14 18.74c-4.159-.4-5.68-1.2-10.219.636-3.826 1.541-6.084 5.212-6.084 5.212s4.753-2.07 8.769-1.765c4.017.318 9.935.907 13.238-.965 2.757-1.565 5.11-4.518 5.11-4.518s-5.478 1.918-10.814 1.4Z" fill="#5B2C86"/><path d="M174.727 17.633c1.069.694 2.59.482 3.399-.47.808-.954.594-2.284-.476-2.978-1.069-.694-2.59-.482-3.398.47-.808.954-.594 2.284.475 2.978ZM195.081 4.889s-2.352 2.953-5.109 4.518c-3.292 1.871-9.221 1.283-13.238.965-4.016-.306-8.769 1.765-8.769 1.765s2.246-3.671 6.084-5.213c4.539-1.824 6.06-1.035 10.219-.635 5.335.518 10.813-1.4 10.813-1.4Z" fill="#5B2C86"/><path d="M186.313 4.371c.808-.953.594-2.283-.475-2.977-1.07-.694-2.591-.482-3.399.47-.808.954-.594 2.284.476 2.978 1.069.694 2.59.482 3.398-.47ZM17.706 32.001 9.02 21.822 4.112 26.53v5.472H.952V.5h3.16v22.146L17.291 9.69h4.313L11.242 19.67l10.505 12.332h-4.04ZM24.469 32.002V9.69h3.16V32h-3.16Zm-.262-26.865V1.336h3.696v3.8h-3.695ZM48.233 32V18.833c0-2.06-.57-3.719-1.71-4.942-1.142-1.224-2.746-1.825-4.897-1.825-1.045 0-2.02.177-2.887.53a7.255 7.255 0 0 0-2.305 1.471 6.555 6.555 0 0 0-1.533 2.224c-.369.87-.559 1.836-.559 2.883V32H31.17V9.69h3.173v2.906a11.364 11.364 0 0 1 2.282-2.024c1.366-.918 3.149-1.377 5.287-1.377 1.462 0 2.793.224 3.97.683 1.164.459 2.186 1.106 3.006 1.93a8.249 8.249 0 0 1 1.865 2.953c.416 1.13.63 2.366.63 3.707V32h-3.149ZM65.036 32.497a11.81 11.81 0 0 1-4.397-.824 11.394 11.394 0 0 1-3.683-2.365c-1.058-1.024-1.902-2.26-2.52-3.672-.606-1.424-.914-3.012-.914-4.754 0-1.67.285-3.189.843-4.6a11.636 11.636 0 0 1 2.341-3.684 11.422 11.422 0 0 1 3.517-2.495c1.343-.611 2.84-.93 4.433-.93 1.651 0 3.149.307 4.468.907 1.319.6 2.46 1.435 3.398 2.483.939 1.047 1.664 2.294 2.163 3.695.499 1.4.748 2.942.748 4.577v.436c0 .117-.012.282-.059.482l-.071.412h-18.43c.118 1.047.392 1.989.82 2.8a8.645 8.645 0 0 0 1.877 2.483 8.03 8.03 0 0 0 2.543 1.542c.95.353 1.96.53 3.018.53 1.664 0 3.09-.306 4.23-.895a12.571 12.571 0 0 0 3.114-2.294l.332-.33 2.27 1.906-.38.389a16.213 16.213 0 0 1-4.029 3c-1.52.8-3.41 1.2-5.632 1.2Zm7.058-13.156a11.072 11.072 0 0 0-.594-2.436 8.043 8.043 0 0 0-1.45-2.471c-.605-.706-1.378-1.283-2.281-1.718-.891-.424-1.96-.636-3.173-.636-1.045 0-2.032.2-2.923.589-.903.388-1.7.93-2.365 1.624a8.737 8.737 0 0 0-1.687 2.494c-.368.8-.618 1.66-.737 2.566h15.21v-.012ZM89.194 32.497c-1.675 0-3.256-.318-4.706-.942a12.34 12.34 0 0 1-3.778-2.506 11.562 11.562 0 0 1-2.508-3.671 11.296 11.296 0 0 1-.903-4.46c0-1.648.31-3.154.903-4.543a11.953 11.953 0 0 1 2.496-3.706 12.13 12.13 0 0 1 3.779-2.554c1.45-.623 3.03-.941 4.705-.941 1.093 0 2.103.106 3.007.341.879.212 1.723.518 2.495.906.76.389 1.462.836 2.08 1.318.617.494 1.188 1 1.734 1.553l.357.353-2.258 2.2-.356-.34a16.634 16.634 0 0 0-3.114-2.39c-1.093-.646-2.436-.976-4.004-.976-1.212 0-2.353.224-3.375.67a8.567 8.567 0 0 0-2.697 1.825 8.645 8.645 0 0 0-1.807 2.73 8.628 8.628 0 0 0-.665 3.389c0 1.282.226 2.436.69 3.483a8.813 8.813 0 0 0 1.865 2.777 8.835 8.835 0 0 0 2.757 1.848c1.045.447 2.186.67 3.398.67 1.486 0 2.828-.33 3.993-.953a12.718 12.718 0 0 0 3.149-2.424l.332-.353 2.27 1.906-.356.389a15.92 15.92 0 0 1-4.017 3.142c-1.485.835-3.327 1.259-5.466 1.259ZM122.441 32.497c-1.093 0-2.186-.141-3.256-.435a10.127 10.127 0 0 1-2.923-1.318 7.362 7.362 0 0 1-2.151-2.248c-.558-.918-.843-1.989-.843-3.189 0-1.282.261-2.365.796-3.295a6.879 6.879 0 0 1 2.151-2.341c.891-.612 1.984-1.083 3.244-1.412 1.235-.318 2.626-.471 4.123-.471 1.592 0 2.994.082 4.159.259.927.13 1.842.306 2.757.517v-.27c0-2.024-.583-3.483-1.771-4.472-1.212-1-2.923-1.506-5.098-1.506-1.33 0-2.554.153-3.636.459a18.456 18.456 0 0 0-3.161 1.2l-.475.236-1.2-2.73.451-.212a24.841 24.841 0 0 1 3.815-1.4c1.295-.354 2.757-.53 4.349-.53 3.196 0 5.692.835 7.427 2.471 1.616 1.541 2.436 3.683 2.436 6.378v13.791h-3.125v-2.706a7.441 7.441 0 0 1-.535.506c-.559.506-1.224.965-1.961 1.365-.737.4-1.58.718-2.507.965-.939.27-1.961.388-3.066.388Zm1.01-11.861c-2.258 0-4.004.423-5.181 1.259-1.14.812-1.699 1.859-1.699 3.189 0 .776.143 1.365.452 1.894.309.53.748.989 1.283 1.365a6.19 6.19 0 0 0 1.937.883 8.53 8.53 0 0 0 2.317.317c1.093 0 2.127-.153 3.101-.459a8.466 8.466 0 0 0 2.555-1.259 5.98 5.98 0 0 0 1.711-1.906c.416-.73.618-1.518.618-2.412v-2.013a50.452 50.452 0 0 0-2.875-.552c-1.224-.2-2.638-.306-4.219-.306ZM108.491 32.376a9.208 9.208 0 0 1-2.603-.353 6.103 6.103 0 0 1-2.186-1.165 5.57 5.57 0 0 1-1.474-2.024c-.344-.789-.522-1.73-.522-2.813V2.875h3.16v6.813h7.867v2.883h-7.867v13.215c0 1.353.357 2.295 1.046 2.8.642.471 1.485.719 2.602.777l.476.024v2.977h-.499v.012ZM200.5 2.396c0 .906-.725 1.624-1.652 1.624-.927 0-1.663-.718-1.663-1.624 0-.894.736-1.6 1.663-1.6s1.652.706 1.652 1.6Zm-2.911 0c0 .718.534 1.283 1.259 1.283.713 0 1.236-.565 1.236-1.271 0-.718-.523-1.294-1.248-1.294-.713 0-1.247.576-1.247 1.282Zm.998.836h-.381v-1.6c.143-.036.357-.048.618-.048.309 0 .44.047.559.118.083.07.154.2.154.353 0 .177-.142.318-.332.377v.023c.154.059.249.177.297.388.047.248.083.342.119.4h-.404c-.048-.058-.084-.2-.131-.388-.024-.176-.131-.259-.333-.259h-.178v.636h.012Zm0-.906h.178c.202 0 .38-.07.38-.236 0-.14-.107-.247-.344-.247a.71.71 0 0 0-.202.024v.459h-.012ZM1.95 40.767c.796 0 1.45.659 1.45 1.435 0 .789-.666 1.436-1.45 1.436-.784 0-1.45-.66-1.45-1.436-.012-.776.654-1.435 1.45-1.435Zm-.998 5.142h1.984v10.32H.952v-10.32ZM6.596 45.91H8.58v1.588h.048c.51-1.094 1.83-1.848 3.434-1.848 2.02 0 3.779 1.2 3.779 3.943v6.636h-1.985v-6.095c0-1.942-1.117-2.66-2.377-2.66-1.651 0-2.899 1.048-2.899 3.436v5.32H6.596V45.91ZM24.92 48.498c-.464-.565-1.141-1.024-2.14-1.024-.926 0-1.735.412-1.735 1.154 0 1.235 1.783 1.412 2.662 1.612 1.711.411 3.03 1.07 3.03 3 0 2.33-2.15 3.248-4.218 3.248-1.711 0-2.994-.435-4.028-1.824l1.497-1.224c.642.636 1.39 1.224 2.531 1.224 1.01 0 2.115-.412 2.115-1.306 0-1.177-1.652-1.389-2.507-1.589-1.7-.411-3.185-.953-3.185-2.941 0-2.154 1.997-3.178 3.957-3.178 1.39 0 2.816.483 3.565 1.695l-1.545 1.153ZM38.858 56.23h-1.984v-1.588h-.048c-.51 1.094-1.83 1.847-3.434 1.847-2.02 0-3.779-1.2-3.779-3.942V45.91h1.985v6.096c0 1.941 1.117 2.66 2.376 2.66 1.652 0 2.9-1.048 2.9-3.437V45.91h1.984v10.32ZM42.447 45.91h1.985v1.588h.047c.511-1.094 1.83-1.848 3.125-1.848.31 0 .618.047.88.13l-.083 2.118c-.333-.082-.666-.153-.963-.153-1.937 0-2.994 1.047-2.994 3.307v5.177h-1.985V45.91h-.012ZM50.966 47.17c1.105-1.024 2.686-1.53 4.136-1.53 3.077 0 4.349 1.659 4.349 3.436v5.271c0 .718.023 1.33.083 1.871h-1.759a17.252 17.252 0 0 1-.071-1.565h-.048c-.879 1.33-2.067 1.824-3.648 1.824-1.937 0-3.612-1.094-3.612-3.094 0-2.66 2.579-3.578 5.74-3.578h1.45v-.435c0-1.07-.797-2.177-2.484-2.177-1.521 0-2.246.635-2.971 1.177l-1.165-1.2Zm5.585 4.094c-1.865 0-4.159.33-4.159 1.977 0 1.177.88 1.671 2.246 1.671 2.199 0 2.97-1.612 2.97-3v-.66h-1.057v.012ZM62.968 45.91h1.985v1.588H65c.511-1.094 1.83-1.848 3.434-1.848 2.02 0 3.78 1.2 3.78 3.943v6.636h-1.985v-6.095c0-1.942-1.117-2.66-2.377-2.66-1.652 0-2.9 1.048-2.9 3.436v5.32h-1.984V45.91ZM83.193 48.653c-.725-.765-1.497-1.153-2.59-1.153-2.151 0-3.256 1.718-3.256 3.66 0 1.941 1.319 3.506 3.362 3.506 1.105 0 1.866-.388 2.531-1.153l1.403 1.388c-1.034 1.13-2.436 1.589-3.957 1.589-3.209 0-5.455-2.2-5.455-5.378 0-3.177 2.199-5.448 5.455-5.448 1.52 0 2.97.518 4.004 1.636l-1.497 1.353ZM88.267 51.793c0 1.812 1.7 3 3.518 3 1.212 0 2.091-.611 2.864-1.54l1.497 1.129c-1.105 1.412-2.614 2.118-4.623 2.118-3.303 0-5.37-2.354-5.37-5.425 0-3.095 2.269-5.425 5.382-5.425 3.672 0 5.086 2.79 5.086 5.449v.694h-8.353Zm6.25-1.577c-.047-1.718-1.01-3-3.017-3-1.961 0-3.233 1.635-3.233 3h6.25ZM112.412 48.498c-.463-.565-1.14-1.024-2.138-1.024-.927 0-1.735.412-1.735 1.154 0 1.235 1.782 1.412 2.661 1.612 1.712.411 3.031 1.07 3.031 3 0 2.33-2.151 3.248-4.219 3.248-1.711 0-2.994-.435-4.028-1.824l1.497-1.224c.642.636 1.39 1.224 2.531 1.224 1.01 0 2.115-.412 2.115-1.306 0-1.177-1.651-1.389-2.507-1.589-1.699-.411-3.185-.953-3.185-2.941 0-2.154 1.997-3.178 3.957-3.178 1.391 0 2.817.483 3.565 1.695l-1.545 1.153ZM118.616 51.793c0 1.812 1.699 3 3.517 3 1.212 0 2.091-.611 2.864-1.54l1.497 1.129c-1.105 1.412-2.614 2.118-4.622 2.118-3.304 0-5.372-2.354-5.372-5.425 0-3.095 2.27-5.425 5.383-5.425 3.672 0 5.086 2.79 5.086 5.449v.694h-8.353Zm6.25-1.577c-.048-1.718-1.01-3-3.018-3-1.961 0-3.232 1.635-3.232 3h6.25ZM129.988 45.91h1.985v1.588h.047c.511-1.094 1.83-1.848 3.125-1.848.309 0 .618.047.88.13l-.083 2.118c-.333-.082-.666-.153-.963-.153-1.937 0-2.994 1.047-2.994 3.307v5.177H130V45.91h-.012ZM137.937 45.91h2.281l3.125 7.908 2.995-7.908h2.115l-4.088 10.32h-2.174l-4.254-10.32ZM151.84 40.767c.796 0 1.45.659 1.45 1.435 0 .789-.666 1.436-1.45 1.436-.784 0-1.45-.66-1.45-1.436 0-.776.666-1.435 1.45-1.435Zm-.986 5.142h1.984v10.32h-1.984v-10.32ZM163.817 48.653c-.725-.765-1.497-1.153-2.59-1.153-2.151 0-3.256 1.718-3.256 3.66 0 1.941 1.319 3.506 3.362 3.506 1.106 0 1.866-.388 2.532-1.153l1.402 1.388c-1.034 1.13-2.436 1.589-3.957 1.589-3.209 0-5.455-2.2-5.455-5.378 0-3.177 2.199-5.448 5.455-5.448 1.521 0 2.97.518 4.004 1.636l-1.497 1.353ZM168.904 51.793c0 1.812 1.699 3 3.518 3 1.212 0 2.091-.611 2.863-1.54l1.498 1.129c-1.106 1.412-2.615 2.118-4.623 2.118-3.303 0-5.371-2.354-5.371-5.425 0-3.095 2.27-5.425 5.383-5.425 3.672 0 5.086 2.79 5.086 5.449v.694h-8.354Zm6.251-1.577c-.048-1.718-1.01-3-3.019-3-1.96 0-3.232 1.635-3.232 3h6.251ZM185.718 48.498c-.463-.565-1.141-1.024-2.139-1.024-.927 0-1.735.412-1.735 1.154 0 1.235 1.783 1.412 2.662 1.612 1.711.411 3.03 1.07 3.03 3 0 2.33-2.151 3.248-4.218 3.248-1.711 0-2.995-.435-4.028-1.824l1.497-1.224c.641.636 1.39 1.224 2.531 1.224 1.01 0 2.115-.412 2.115-1.306 0-1.177-1.652-1.389-2.507-1.589-1.7-.411-3.185-.953-3.185-2.941 0-2.154 1.996-3.178 3.957-3.178 1.39 0 2.816.483 3.565 1.695l-1.545 1.153Z" fill="#5B2C86"/></svg>