<svg width="205" height="35" fill="none" xmlns="http://www.w3.org/2000/svg" viewBox="0 0 205 35"><path d="M69.263 26.553c.183.136.51.336.98.6.47.263 1.08.513 1.837.756.757.24 1.653.45 2.693.637 1.04.183 2.237.273 3.587.273 2.587 0 4.61-.536 6.076-1.613 1.464-1.077 2.197-2.573 2.197-4.497 0-.916-.166-1.693-.496-2.333a4.503 4.503 0 0 0-1.34-1.58 6.2 6.2 0 0 0-1.924-.943c-.72-.217-1.47-.384-2.25-.497L77.5 16.91c-.734-.113-1.284-.25-1.647-.413-.366-.16-.55-.433-.55-.823 0-.39.2-.704.6-.944.4-.24 1.117-.36 2.147-.36.916 0 1.733.07 2.453.207.72.137 1.34.293 1.853.463.514.17.927.35 1.237.534.31.183.497.31.567.376.047-.023.153-.09.327-.206a3.36 3.36 0 0 0 1.063-1.217c.15-.287.223-.613.223-.98 0-.48-.133-.887-.393-1.22a3.241 3.241 0 0 0-1.047-.84c-.757-.39-1.653-.673-2.693-.857-1.043-.183-2.284-.273-3.724-.273-1.44 0-2.643.153-3.673.463-1.03.31-1.876.734-2.54 1.27-.663.537-1.15 1.167-1.46 1.887a5.89 5.89 0 0 0-.463 2.35c0 1.007.183 1.843.55 2.507a4.639 4.639 0 0 0 1.493 1.63c.63.423 1.357.743 2.18.96a20.09 20.09 0 0 0 2.573.496l1.787.207c.847.113 1.47.257 1.87.43.4.173.6.487.6.943 0 .457-.24.737-.72.91-.48.17-1.19.257-2.13.257-.823 0-1.607-.063-2.35-.19a17.166 17.166 0 0 1-1.99-.447 10.75 10.75 0 0 1-1.51-.55c-.423-.193-.727-.36-.91-.496l-1.957 3.57h-.003ZM50.04 28.339h5.527v-9.336c0-2.38 1.076-3.57 3.226-3.57 1.03 0 1.82.293 2.37.876.55.584.824 1.484.824 2.694v9.336h5.526V17.733c0-1.19-.23-2.25-.687-3.177a6.59 6.59 0 0 0-1.87-2.317c-.79-.616-1.716-1.086-2.78-1.406a11.685 11.685 0 0 0-3.38-.48c-1.186 0-2.346.16-3.4.48-1.053.32-1.98.79-2.78 1.406-.8.617-1.43 1.39-1.886 2.317-.457.927-.687 1.987-.687 3.177v10.606h-.003Zm-3.213 0V5.336a49.54 49.54 0 0 0-.98-.31c-.514-.16-1.104-.24-1.767-.24-.893 0-1.613.19-2.163.567-.55.376-.824 1.036-.824 1.973v21.01h5.734v.003ZM94.097 11.346a36.927 36.927 0 0 0-.96-.293 5.88 5.88 0 0 0-1.684-.224c-.87 0-1.567.184-2.093.55-.527.367-.79.997-.79 1.887v7.93c0 1.284.223 2.397.67 3.347a6.608 6.608 0 0 0 1.837 2.37c.776.63 1.703 1.103 2.78 1.423 1.076.32 2.23.48 3.466.48 1.237 0 2.39-.16 3.467-.48 1.076-.32 2.003-.793 2.78-1.423a6.642 6.642 0 0 0 1.836-2.37c.447-.95.67-2.067.67-3.347v-9.853a35.717 35.717 0 0 0-.96-.293 5.876 5.876 0 0 0-1.683-.224c-.87 0-1.567.183-2.093.55-.527.367-.79.997-.79 1.887v6.9c0 2.38-1.077 3.57-3.227 3.57s-3.226-1.19-3.226-3.57v-8.824.007ZM108.103 28.34h5.527v-9.784c0-1.166.303-2.003.91-2.506.606-.504 1.343-.757 2.213-.757.663 0 1.27.08 1.82.24.55.16 1.017.333 1.407.513a5.763 5.763 0 0 0 .74-.927c.15-.23.273-.493.376-.79.104-.296.154-.616.154-.96 0-.343-.057-.64-.17-.893a2.803 2.803 0 0 0-.48-.72c-.344-.343-.9-.663-1.664-.96-.766-.296-1.836-.446-3.21-.446-1.12 0-2.15.153-3.09.463-.94.31-1.74.76-2.403 1.357a6.3 6.3 0 0 0-1.563 2.196c-.377.87-.567 1.867-.567 2.987V28.34ZM127.123 16.96c.16-.447.393-.84.703-1.183.31-.343.694-.623 1.15-.84.457-.217.997-.327 1.614-.327.87 0 1.523.177 1.956.534.434.356.654.773.654 1.253 0 .23-.047.457-.137.687-.093.23-.343.436-.757.616-.413.184-1.043.334-1.886.447-.847.113-2.037.17-3.57.17.023-.457.113-.91.273-1.357Zm1.2 4.927c2.037 0 3.713-.127 5.03-.377 1.317-.25 2.357-.613 3.123-1.08.767-.47 1.3-1.04 1.597-1.716.297-.674.447-1.437.447-2.284 0-.777-.177-1.533-.534-2.266-.356-.734-.87-1.384-1.543-1.957-.677-.574-1.507-1.024-2.49-1.357-.983-.33-2.093-.496-3.33-.496-1.327 0-2.563.223-3.707.67a9.137 9.137 0 0 0-2.986 1.87c-.847.8-1.51 1.773-1.99 2.916s-.72 2.403-.72 3.777c0 1.463.24 2.77.72 3.913.48 1.143 1.136 2.11 1.973 2.9a8.492 8.492 0 0 0 2.937 1.803c1.12.414 2.323.617 3.603.617 1.03 0 1.973-.073 2.833-.223.857-.15 1.607-.327 2.25-.534.64-.206 1.174-.413 1.597-.616.423-.207.727-.367.91-.48l-1.923-3.843c-.047.046-.194.126-.447.24-.253.113-.573.23-.96.343-.39.113-.847.223-1.373.326a8.74 8.74 0 0 1-1.684.154c-.776 0-1.443-.07-1.99-.207-.55-.137-1-.32-1.356-.55-.357-.23-.63-.473-.824-.736a1.915 1.915 0 0 1-.36-.807h1.2-.003Z" fill="#DC1419"/><path d="M193.397 16.96c.16-.447.393-.84.703-1.183.31-.344.693-.624 1.15-.84.457-.217.997-.327 1.613-.327.87 0 1.524.177 1.957.533.433.357.653.774.653 1.254 0 .23-.046.456-.136.686-.094.23-.344.437-.757.617-.413.183-1.043.333-1.887.447-.846.113-2.036.17-3.57.17.024-.457.114-.91.274-1.357Zm1.2 4.927c2.036 0 3.713-.127 5.03-.377 1.316-.25 2.356-.613 3.123-1.08.767-.47 1.3-1.04 1.597-1.717.296-.673.446-1.436.446-2.283 0-.777-.176-1.533-.533-2.267a6.025 6.025 0 0 0-1.543-1.956c-.677-.574-1.507-1.024-2.49-1.357-.984-.33-2.094-.497-3.33-.497-1.327 0-2.564.224-3.707.67a9.152 9.152 0 0 0-2.987 1.87c-.846.8-1.51 1.774-1.99 2.917-.48 1.143-.72 2.403-.72 3.777 0 1.463.24 2.77.72 3.913.48 1.143 1.137 2.11 1.974 2.9a8.488 8.488 0 0 0 2.936 1.803c1.12.414 2.324.617 3.604.617 1.03 0 1.973-.073 2.833-.223.857-.15 1.607-.327 2.25-.534a13 13 0 0 0 1.597-.616c.423-.207.726-.367.91-.48l-1.924-3.844c-.046.047-.193.127-.446.24-.254.114-.574.23-.96.344-.39.113-.847.223-1.374.326a8.723 8.723 0 0 1-1.683.154c-.777 0-1.443-.07-1.99-.207-.55-.137-1-.32-1.357-.55-.356-.23-.63-.473-.823-.737a1.916 1.916 0 0 1-.36-.806h1.2-.003ZM167.99 28.34h5.527v-9.337c0-2.38 1.076-3.57 3.226-3.57 1.03 0 1.82.294 2.37.877s.824 1.483.824 2.693v9.337h5.526V17.733c0-1.19-.23-2.25-.686-3.176a6.595 6.595 0 0 0-1.87-2.317c-.79-.617-1.717-1.087-2.78-1.407a11.692 11.692 0 0 0-3.38-.48c-1.187 0-2.347.16-3.4.48-1.054.32-1.98.79-2.78 1.407-.8.617-1.43 1.39-1.887 2.317-.457.926-.687 1.986-.687 3.176V28.34h-.003Zm-17.423-5.27a6.237 6.237 0 0 1-2.13-1.493 6.914 6.914 0 0 1-1.39-2.23c-.334-.847-.497-1.774-.497-2.78 0-1.007.167-1.94.497-2.797.33-.857.793-1.6 1.39-2.23a6.322 6.322 0 0 1 2.13-1.477c.823-.353 1.726-.533 2.713-.533.987 0 1.887.177 2.713.533a6.382 6.382 0 0 1 2.13 1.477 6.804 6.804 0 0 1 1.39 2.23c.33.857.497 1.79.497 2.797 0 1.006-.167 1.933-.497 2.78a7.018 7.018 0 0 1-1.39 2.23 6.209 6.209 0 0 1-2.13 1.493c-.823.357-1.726.533-2.713.533-.987 0-1.887-.176-2.713-.533Zm-9.047-1.63c.653 1.51 1.55 2.82 2.693 3.93 1.144 1.11 2.494 1.987 4.05 2.627 1.557.64 3.227.96 5.014.96 1.786 0 3.456-.32 5.013-.96 1.557-.64 2.907-1.517 4.05-2.627a12.075 12.075 0 0 0 2.693-3.93c.654-1.51.98-3.137.98-4.873 0-1.737-.326-3.364-.98-4.874a12.12 12.12 0 0 0-2.693-3.93c-1.143-1.11-2.493-1.986-4.05-2.626-1.557-.64-3.227-.96-5.013-.96-1.787 0-3.457.32-5.014.96-1.556.64-2.906 1.516-4.05 2.626a12.074 12.074 0 0 0-2.693 3.93c-.653 1.51-.98 3.137-.98 4.874 0 1.736.327 3.363.98 4.873ZM32.69 5.467S25.26 0 16.743 0C8.227 0 .793 5.467.793 5.467c0 16.31-.32 23.763 15.95 28.913C33.01 29.23 32.69 21.777 32.69 5.47v-.003Z" fill="#000"/><path d="M16.74 28.956c6.845 0 12.393-5.548 12.393-12.393 0-6.844-5.548-12.393-12.393-12.393-6.845 0-12.393 5.549-12.393 12.393 0 6.845 5.548 12.393 12.393 12.393Z" fill="#fff"/><path d="M23.275 23.1a9.24 9.24 0 1 0-13.068-13.067A9.24 9.24 0 0 0 23.275 23.1Z" fill="#DC1419"/><path d="M19.763 23.38H13.72v-2.72h1.36v-8.377h-1.36V10.33l4.683-.577V20.66h1.36v2.72Z" fill="#fff"/><path d="M202.513 4.827c.39 0 .766.097 1.126.293.36.197.64.477.847.84a2.29 2.29 0 0 1 .003 2.284c-.2.36-.483.64-.843.843a2.278 2.278 0 0 1-2.273 0c-.36-.2-.64-.483-.844-.843-.2-.36-.303-.74-.303-1.137s.103-.78.307-1.147a2.09 2.09 0 0 1 .846-.84c.36-.196.734-.293 1.127-.293h.007Zm0 .447c-.314 0-.614.08-.904.236-.29.157-.513.384-.68.677-.166.293-.25.6-.25.923 0 .324.08.624.244.914.163.29.386.516.676.68a1.828 1.828 0 0 0 1.824 0c.29-.164.513-.39.676-.68a1.824 1.824 0 0 0-.006-1.837 1.73 1.73 0 0 0-.68-.677 1.876 1.876 0 0 0-.904-.236h.004Z" fill="#000"/><path d="M202.443 7.35h-.29v.874h-.497v-2.23h.75c.547 0 .857.223.857.653 0 .297-.13.497-.357.61l.467.837v.13h-.457l-.473-.873Zm-.29-.34h.24c.26 0 .37-.113.37-.333 0-.22-.107-.326-.37-.326h-.24v.663-.003Z" fill="#000"/></svg>