<svg width="165" height="46" fill="none" xmlns="http://www.w3.org/2000/svg" viewBox="0 0 165 46"><path d="M39.968 10.127c-2.627 0-4.393 2.057-4.03 4.71.316 2.194 1.901 3.52 4.211 3.52 2.627 0 4.394-2.057 4.031-4.71-.317-2.194-1.857-3.52-4.212-3.52Zm-1.223 4.755c0-.046-.045-.091-.045-.137-.181-1.28.408-2.286 1.404-2.286.68 0 1.178.503 1.313 1.372.182 1.325-.407 2.24-1.404 2.24-.679-.046-1.132-.457-1.268-1.189ZM44.95 18.265h2.763v-3.383h.136c.453 0 .77.183 1.087.686.271.457.498.914 1.041 2.194l.227.503h2.717a9.567 9.567 0 0 1-.317-.594l-.317-.686c-.136-.32-.317-.731-.589-1.234-.498-1.006-.906-1.326-1.041-1.326.407 0 .77-.092 1.087-.503.271-.412.453-1.006.362-1.555-.317-1.646-1.314-2.057-3.125-2.057h-4.122l.091 7.955Zm2.808-4.663v-1.92h.272c.86 0 1.494.09 1.54.822.09 1.006-.498 1.098-1.63 1.098h-.182Z" fill="#4F2683"/><path d="M56.998 15.34h1.358l-.68-1.692-.678 1.692Zm2.536 2.926-.498-1.28h-2.673l-.498 1.28h-2.989l3.306-8.001h2.899l3.397 8.001h-2.944ZM69.408 18.266l-3.352-3.75-.045 3.75h-2.808V10.22h2.445l3.397 3.795v-3.795H71.9v8.047h-2.491ZM80.368 13.693v4.344c-.951.229-1.812.366-2.808.366-2.672 0-4.393-1.28-4.71-3.52-.181-1.372.271-2.698 1.268-3.613.86-.823 1.902-1.143 3.397-1.143.679 0 1.268.091 1.811.229.363.091.544.137.906.365v2.058c-.906-.503-1.495-.686-2.22-.686-1.54 0-2.535 1.143-2.309 2.652.136 1.006.906 1.6 1.993 1.6.226 0 .272 0 .407-.045v-.732h-.815v-1.875h3.08ZM81.636 18.266V10.22h5.752v1.829H84.49v1.188h2.717l.045 1.83H84.49v1.28h2.989v1.92h-5.843ZM98.485 13.054c-.816-.549-1.404-.778-2.084-.778-1.359 0-2.264.96-2.083 2.24.136.961.95 1.601 2.083 1.601.589 0 1.132-.183 1.857-.594l.227-.137v2.286c-.363.228-.499.32-.997.411-.589.138-.951.229-1.495.229-2.49 0-4.166-1.326-4.483-3.567a4.11 4.11 0 0 1 1.63-3.932c.815-.594 1.585-.823 2.853-.823.861 0 1.722.183 2.492.549v2.515ZM103.286 10.127c-2.627 0-4.394 2.057-4.031 4.71.317 2.194 1.902 3.52 4.212 3.52 2.627 0 4.393-2.057 4.031-4.71-.317-2.194-1.903-3.52-4.212-3.52Zm-1.269 4.755c0-.046-.045-.091-.045-.137-.181-1.28.408-2.286 1.404-2.286.679 0 1.178.503 1.314 1.372.181 1.325-.408 2.24-1.404 2.24-.68-.046-1.133-.457-1.269-1.189ZM116.737 14.425c0 2.56-1.449 3.933-4.121 3.933-2.446 0-3.941-1.19-4.258-3.247-.045-.228-.045-.457-.045-.686V10.22h2.808v4.115c0 .274 0 .503.045.731.091.778.589 1.19 1.314 1.19.815 0 1.268-.412 1.359-1.281.045-.32.045-.732.045-1.143v-3.566h2.808l.045 4.16ZM124.074 18.266l-3.352-3.75-.045 3.75h-2.808V10.22h2.446l3.397 3.795v-3.795h2.853v8.047h-2.491ZM129.69 18.266v-5.944h-2.264v-2.057h7.337v2.057h-2.265v5.944h-2.808ZM137.797 18.266v-3.612l-3.034-4.435h3.442l1.268 2.012 1.223-2.012h2.853l-2.944 4.48v3.567h-2.808ZM143.775 14.425c.861-.32 1.223-.869 1.269-1.646a1.168 1.168 0 0 1-.997-1.098c-.136-.868.498-1.6 1.404-1.6.815 0 1.449.64 1.585 1.555.091.686-.135 1.463-.588 2.012-.589.685-1.404 1.051-2.582 1.051l-.091-.274ZM152.879 13.464c-.498-.731-1.177-1.189-1.766-1.189-.453 0-.679.229-.634.595.045.32.181.411.906.823.634.32.996.594 1.268.914.272.275.498.777.543 1.143.091.732-.271 1.6-.906 2.058-.498.366-1.132.549-1.992.549-1.042 0-1.812-.183-2.491-.595V15.66c.498.411 1.223.686 1.811.686.498 0 .816-.275.77-.595-.045-.228-.181-.366-.634-.64-.724-.411-1.042-.64-1.359-1.006-.317-.365-.498-.686-.543-1.097-.227-1.6.951-2.79 2.672-2.79.861 0 1.676.32 2.355.915v2.332ZM43.093 24.575c-.815-.548-1.404-.777-2.083-.777-1.36 0-2.265.96-2.084 2.24.136.96.951 1.6 2.084 1.6.588 0 1.132-.182 1.857-.594l.226-.137v2.286c-.362.23-.498.32-.997.458-.588.137-.95.228-1.494.228-2.491 0-4.167-1.326-4.484-3.566a4.11 4.11 0 0 1 1.63-3.932c.816-.595 1.586-.823 2.854-.823.86 0 1.721.183 2.491.548v2.47ZM52.468 29.789V21.74h5.752l.046 1.83h-2.9l-.044 1.142h2.762v1.875h-2.717v1.28h2.944v1.92h-5.843ZM59.534 29.788h4.03c.227 0 .453 0 .725-.046 1.042-.137 1.676-.457 2.265-1.052.77-.823 1.132-2.103.951-3.337-.317-2.15-1.948-3.567-4.212-3.567h-3.76v8.002Zm2.808-2.058v-4.07h.634c.95 0 1.54.595 1.72 1.647.091.777-.09 1.509-.543 1.966-.317.32-.77.412-1.585.412h-.226v.045ZM71.26 21.74l-2.853.002.008 8.047 2.853-.002-.008-8.048ZM74.344 29.789l-.045-5.945h-2.22l-.045-2.103h7.383v2.104h-2.265v5.944h-2.808ZM91.962 25.948c0 2.56-1.449 3.932-4.121 3.932-2.4 0-3.94-1.189-4.258-3.246-.045-.229-.045-.458-.045-.686V21.74h2.808v4.115c0 .275 0 .503.045.732.091.777.59 1.189 1.314 1.189.815 0 1.268-.412 1.359-1.28.045-.32.045-.732.045-1.144v-3.566h2.808l.045 4.16ZM99.48 29.789l-3.396-3.75v3.75h-2.808V21.74h2.446l3.397 3.795v-3.795h2.853v8.048h-2.491ZM106.275 21.741h-2.854v8.048h2.854V21.74ZM111.302 21.604c-2.627 0-4.393 2.057-4.031 4.709.317 2.195 1.902 3.52 4.212 3.52 2.627 0 4.394-2.057 3.986-4.709-.272-2.194-1.857-3.52-4.167-3.52Zm-1.223 4.8c0-.045-.045-.091-.045-.137-.181-1.28.408-2.286 1.404-2.286.679 0 1.178.503 1.313 1.372.182 1.326-.407 2.24-1.404 2.24-.679-.045-1.132-.457-1.268-1.189ZM122.579 29.789l-3.396-3.75v3.75h-2.808V21.74h2.445l3.397 3.795v-3.795h2.853v8.048h-2.491ZM21.353 30.109c5.48 0 9.964-4.527 9.964-10.06 0-5.532-4.483-10.059-9.964-10.059-5.48 0-9.964 4.527-9.964 10.06 0 5.532 4.484 10.059 9.964 10.059Z" fill="#4F2683"/><path d="M20.085 21.97c0 .182-.136.137-.136.137s-.045-.092 0-.275c.046-.183 0-.32 0-.32l.046-.366.09-.183s-.045.32-.09.366c-.046.046.09.275.09.32 0 .046.046.183 0 .32ZM38.52 2.582c.045-.412-.498.045-.589-.412-.226-.091-.453.183-.634-.091-.453-.046-.77-.183-1.178.045.046 0 .046 0 .046.046-.453.412-1.178.183-1.676.503-.408.229-.77.274-1.087.549-.906.366-1.766.777-2.582 1.28-.271.046-.543.366-.77.32-.271.366-.407.092-.634.457l-.18.092c-.091.046-.137.183-.182.228-.272.275-.498.183-.77.55-.226-.047-.181.273-.408.182a17.93 17.93 0 0 0-1.766 1.555c-.725.457-1.404 1.326-2.129 1.829l.046.045c-.091.137-.136.229-.317.275l.09.091c-.724.823-1.494 1.738-2.083 2.56a1.035 1.035 0 0 1-.453.686s.045.046.045.092c-.045.137-.09.32-.272.32 0 .046 0 .091.046.137-.363.183-.227.686-.59.915-.044.457-.361.594-.407.96-.09-.046.046.32-.18.183-.137.183-.137.366-.137.503-.09.183-.18.365-.136.503-.271.731-.634 1.371-.588 2.194-.272.503-.182.96-.363 1.51-.136 1.782-.136 3.474.363 5.166-.136.411.271.686.18 1.052.59 1.143.861 2.286 1.722 3.337l-.046.046c.408.595.861 1.326 1.405 1.783 1.857 2.15 4.529 4.207 6.93 5.624.226.092.452.275.633.412.181-.046.363.046.453.229.453-.092.815.457 1.314.548-.046.274.407.274.452.412l.091-.092c.045.046.227.046.181.183.816.183 1.63.594 2.4.96l.046-.137c.136.274.544.366.815.274-.136.046-.09-.182-.271-.137-.272-.045-.544-.228-.725-.32-.09-.091-.317-.137-.227-.228-.407-.229-.86-.503-1.222-.778-3.94-2.103-7.79-4.618-10.644-8.367-.226-.549-.725-.96-.906-1.555-.226-.183-.226-.503-.407-.686-.59-1.326-.77-2.651-1.042-4.023.09-.183-.362-.229-.09-.366.045-.137-.046-.366-.091-.457.317-.046-.136-.915.136-1.052.271.32-.136.96.271 1.738 0 0 .317 2.286.181.228.046-.32-.362-.503-.18-.777l.045.046v-1.738c.136-.137-.091-.274.045-.366-.136-.64.226-1.28.272-1.92l.045-.091.181-.64.272-1.28c.045-.23.226-.458.317-.595.045.046.136-.092.181-.046l.136-.274.045.045c.136-.365.09-.502.181-.823.272 0 .317-.365.453-.503l-.09-.183c.317-.182.226-.64.498-.64l-.045-.045c.271-.275.453-.778.724-.915l-.045-.091c.09-.046.136-.137.181-.229.046.046.136-.046.136.046l.045-.183c.046-.229.498-.32.317-.594.317-.229.363-.686.725-.823l-.09-.046.135-.046c0-.229.227-.32.363-.457l.09.091c.181-.274.181-.503.544-.64.136-.32.362-.548.543-.777.227-.183.453-.366.725-.457l.045.045.181-.183c0-.274.453-.731.77-.914l.046.046c0-.046 0-.092.045-.137.09.228.226-.138.317 0 .045-.046.136-.183.226-.183-.18-.412.363-.32.408-.503.045 0 .045.045.045.137h.09v-.183a.462.462 0 0 1 .454-.137l1.811-1.28c0-.183.046-.138.136-.32.09-.092.227-.046.317.045-.09-.183.227-.091.227-.32l.045.046c.544-.046 1.132-.503 1.63-.777l.046.045c0-.091 0-.137.09-.183.363 0 .952-.182 1.223-.457 0 0 .046.046.046.092l.18-.183c.137-.046.408-.275.408-.046v-.091c.136 0 .227.045.408-.046L36.39 4l.136-.183c.136.137.453-.091.589.046.136-.046.407 0 .407-.183.046 0 .046.046.046.091.136-.045.226-.045.136-.182.317-.092.634-.138.95-.275.091.137.182-.137.272 0 0-.091.182-.274.272-.183-.136-.64-.543-.137-.68-.548ZM63.338 41.31c-.136.458-.18.686-.18.778 0 .091.09.183.18.183.272 0 .725-.503.997-.915.543-.731.724-1.509.815-2.103.09-.549.317-.732.634-.732.272 0 .453.183.498.366 0 .229-.09.457-.272.915-.271.594-.453 1.417-.407 1.966 0 .274.136.457.362.457.272 0 .77-.32 1.042-.915.272-.548.407-1.188.362-1.6 0-.229-.045-.457-.136-.732 0-.274.227-.502.498-.502.453.045.59.411.59.685.045.64-.272 1.51-1.042 2.47-.725.868-1.54 1.234-1.948 1.234-.272 0-.634-.274-.634-.64 0-.229.045-.595.136-.869-.136.229-.408.503-.589.686-.408.411-.951.823-1.45.823-.362 0-.588-.366-.633-.594 0-.183.045-.458.136-.823l.588-1.875c.09-.274.046-.366-.045-.366-.226 0-.634.366-.86.686-.091 0-.182-.091-.182-.183.272-.503.997-1.234 1.767-1.234.226 0 .453.228.453.411 0 .137 0 .32-.046.503l-.634 1.92ZM70.177 37.15c-.045-.32.182-.732.634-.732.318 0 .499.183.499.503a.646.646 0 0 1-.634.732c-.317 0-.499-.23-.499-.503Zm-.18 4.892c-.046.091-.046.183.045.183.18 0 .724-.412.996-.732.09 0 .181.092.181.229-.272.457-1.177 1.234-1.993 1.234-.18 0-.362-.228-.362-.32 0-.091 0-.228.045-.411l.951-2.744c.046-.091.046-.183-.045-.183-.136 0-.543.275-.86.55-.091 0-.182-.138-.182-.23.499-.64 1.36-1.097 1.812-1.097.136 0 .317.137.362.275.046.091 0 .228-.09.457l-.86 2.789ZM73.755 39.254l-.724 2.697c-.045.183-.045.229.09.229.182 0 .725-.457 1.087-.869.136 0 .182.092.182.229-.408.686-1.36 1.417-2.038 1.417-.227 0-.363-.183-.408-.365 0-.138 0-.275.09-.595l.77-2.79h-.77c-.09-.09 0-.273.091-.32l.86-.182.59-1.006c.045-.046.135-.046.226-.046.136 0 .272.046.317.138l-.227.96h1.042c.136.137.09.411-.045.457h-1.133v.046ZM76.337 36.785c.136-.55.181-.64 0-.778l-.272-.137c-.045-.046-.045-.137.045-.183.227-.091 1.087-.274 1.54-.32.045 0 .045.046.09.092-.135.503-.361 1.143-.497 1.737l-.906 3.155c.498-.64.86-1.052 1.177-1.28.363-.32.77-.503 1.087-.503.453 0 .725.366.77.823.046.777-.362 1.875-.724 2.515-.272.457-.86 1.051-1.45 1.051-.317 0-.498-.183-.498-.365 0-.183.136-.412.317-.412.045 0 .136.046.181.091.09.092.227.183.272.183.09 0 .136-.137.272-.411.272-.732.634-2.103.589-2.652 0-.183-.091-.274-.227-.274-.09 0-.272.091-.453.228-.272.229-.589.549-.996 1.143-.498.686-.951 1.92-1.132 2.286-.046.138-.182.183-.318.183-.18 0-.543-.045-.452-.365l1.585-5.807ZM83.764 40.396c.046.686.09 1.463 0 2.15h.046c.362-.687.588-1.51.724-2.333.09-.411.136-1.051.136-1.28 0-.32.136-.366.272-.366s.272.046.408.092c.09.046.135.137.135.274 0 .229-.226 1.509-.996 3.11-.408.822-.906 1.737-1.585 2.56-.68.823-1.268 1.006-1.676 1.006-.362 0-.68-.229-.725-.549-.045-.366.181-.594.453-.594.181 0 .272.091.363.228.135.183.226.275.362.275.136 0 .408-.092.543-.275.227-.228.453-.686.544-1.234.09-.503.136-1.28 0-2.286-.136-1.19-.272-1.784-.498-1.784-.227 0-.408.412-.59.823-.09.046-.226 0-.27-.091.135-.64.543-1.509 1.267-1.509.68-.046.997.732 1.087 1.783ZM87.977 41.95c.317-.548.724-1.782.68-2.468 0-.274-.091-.549-.363-.549-.181 0-.408.092-.634.457-.453.64-.906 1.875-.86 2.652 0 .32.18.55.407.55.272 0 .498-.184.77-.641Zm-1.223-2.697c.543-.548 1.042-.686 1.54-.686.906 0 1.313.64 1.359 1.418.045.64-.227 1.6-.861 2.24-.543.595-1.132.732-1.585.732-.86 0-1.359-.595-1.359-1.372-.045-.731.317-1.737.906-2.332ZM91.419 39.573c.045-.183.045-.274-.045-.274-.227 0-.634.411-.906.686-.09 0-.181-.092-.181-.229.317-.457 1.132-1.234 1.857-1.234.226 0 .407.182.407.365 0 .046 0 .183-.045.275l-.86 2.697c-.046.183 0 .275.09.275.136 0 .362-.229.725-.549.815-.823 1.404-2.195 1.72-3.018.091-.045.182-.045.318-.045.226 0 .453.09.543.228-.226.686-.68 2.058-.996 3.155-.046.183-.046.274.09.274.182 0 .68-.457.952-.777.09 0 .18.046.18.183-.271.503-1.177 1.28-1.902 1.28-.226 0-.407-.228-.362-.457l.544-1.692c-.59.869-1.722 2.15-2.4 2.15-.273 0-.499-.23-.544-.504 0-.137.045-.32.09-.503l.725-2.286ZM99.39 39.62c-.543.64-.996 1.828-.95 2.514 0 .137.044.228.135.228.181 0 .589-.365.996-.823.499-.548.906-1.463.997-1.966-.091-.228-.272-.365-.498-.365-.227-.046-.363.045-.68.411Zm1.631-1.235c.045 0 .136-.046.181-.046.181 0 .498.046.589.229a118.6 118.6 0 0 0-1.087 3.474c-.046.138 0 .183.045.183.136 0 .544-.228.996-.686.091 0 .182.046.182.183-.408.595-1.178 1.19-1.857 1.19-.227 0-.363-.23-.363-.32 0-.092 0-.23.09-.412l.318-1.006h-.045c-.634 1.006-1.63 1.737-2.22 1.737-.317 0-.588-.274-.588-.64-.046-.411.317-1.463 1.041-2.377.408-.503.86-.824 1.223-1.052.317-.183.544-.229.77-.229.091 0 .181.046.227.092.045.045.181.091.226.183l.272-.503ZM103.466 41.951c-.09.275-.09.412.091.412.226 0 .725-.594 1.042-1.006.136 0 .226.046.181.183-.272.549-.815 1.417-1.857 1.417-.408 0-.544-.228-.544-.365 0-.183 0-.366.136-.778l1.359-5.03c.136-.548.091-.64-.091-.731l-.226-.137c-.045-.046-.045-.137 0-.229.272-.091 1.132-.274 1.63-.32 0 0 .046.046.046.092-.136.411-.227.731-.453 1.6l-1.314 4.892ZM106.139 41.951c-.091.275-.091.412.09.412.227 0 .725-.594 1.042-1.006.136 0 .226.046.181.183-.272.549-.815 1.417-1.857 1.417-.407 0-.543-.228-.543-.365 0-.183 0-.366.136-.778l1.358-5.03c.136-.548.091-.64-.09-.731l-.227-.137c-.045-.046-.045-.137 0-.229.272-.091 1.133-.274 1.631-.32 0 0 .045.046.045.092-.136.411-.226.731-.453 1.6l-1.313 4.892ZM111.574 39.254l-.725 2.697c-.045.183-.045.229.091.229.181 0 .724-.457 1.087-.869.136 0 .181.092.181.229-.408.686-1.359 1.417-2.038 1.417-.227 0-.363-.183-.408-.365 0-.138 0-.275.091-.595l.77-2.79h-.77c-.046-.09 0-.273.09-.32l.861-.182.589-1.006c.045-.046.136-.046.226-.046.136 0 .272.046.317.138l-.226.96h1.041c.136.137.046.411-.045.457h-1.132v.046ZM114.155 36.785c.136-.55.181-.64 0-.778l-.272-.137c-.045-.046-.045-.137.046-.183.226-.091 1.087-.274 1.54-.32.045 0 .045.046.09.092-.136.503-.362 1.143-.498 1.737l-.906 3.155c.498-.64.861-1.052 1.178-1.28.362-.32.77-.503 1.087-.503.453 0 .724.366.77.823.045.777-.363 1.875-.725 2.515-.272.457-.861 1.051-1.449 1.051-.317 0-.499-.183-.499-.365 0-.183.136-.412.318-.412.045 0 .135.046.181.091.09.092.226.183.271.183.091 0 .136-.137.272-.411.272-.732.634-2.103.589-2.652 0-.183-.091-.274-.226-.274-.091 0-.272.091-.453.228-.272.229-.589.549-.997 1.143-.498.686-.951 1.92-1.132 2.286-.045.138-.181.183-.317.183-.181 0-.544-.045-.453-.365l1.585-5.807ZM119.59 39.345c-.362.411-.544.96-.634 1.326.498-.183.815-.366 1.132-.686.226-.274.317-.595.317-.777 0-.138-.09-.275-.226-.275s-.363.137-.589.412Zm-1.857 2.469c-.045-.778.362-1.966 1.268-2.698.544-.411.996-.549 1.404-.549.498 0 .861.366.861.732.045.914-1.314 1.463-2.446 1.737-.045.138-.045.366-.045.686.045.366.226.595.498.595.362 0 .724-.229 1.177-.64.091 0 .182.091.182.228-.499.777-1.223 1.098-1.903 1.098-.634-.046-.951-.595-.996-1.19ZM124.98 41.31c-.136.458-.181.686-.181.778 0 .091.09.183.181.183.271 0 .724-.503.996-.915.544-.731.725-1.509.815-2.103.091-.549.317-.732.634-.732.272 0 .453.183.499.366 0 .229-.091.457-.272.915-.272.594-.453 1.417-.408 1.966 0 .274.136.457.363.457.271 0 .77-.32 1.041-.915.272-.548.408-1.188.363-1.6a2.31 2.31 0 0 0-.136-.732c0-.274.226-.502.498-.502.453.045.589.411.589.685.045.64-.272 1.51-1.042 2.47-.725.868-1.54 1.234-1.947 1.234-.272 0-.635-.274-.635-.64 0-.229.046-.595.136-.869h-.045c-.136.229-.408.503-.589.686-.407.411-.951.823-1.449.823-.362 0-.589-.366-.634-.594 0-.183.045-.458.136-.823l.589-1.875c.09-.274.045-.366-.046-.366-.226 0-.634.366-.86.686-.091 0-.181-.091-.181-.183.271-.503.996-1.234 1.766-1.234.226 0 .453.228.453.411 0 .137 0 .32-.091.503l-.543 1.92ZM132.227 39.62c-.544.64-.997 1.828-.951 2.514 0 .137.045.228.136.228.181 0 .588-.365.996-.823.498-.548.906-1.463.996-1.966-.09-.228-.271-.365-.498-.365-.226-.046-.362.045-.679.411Zm1.63-1.235c.046 0 .136-.046.227-.046.181 0 .498.046.589.229a118.6 118.6 0 0 0-1.087 3.474c-.046.138 0 .183.045.183.136 0 .543-.228.996-.686.091 0 .181.046.181.183-.407.595-1.177 1.19-1.857 1.19-.226 0-.362-.23-.362-.32 0-.092 0-.23.091-.412l.317-1.006h-.046c-.634 1.006-1.63 1.737-2.219 1.737-.317 0-.589-.274-.589-.64-.045-.411.317-1.463 1.042-2.377a4.857 4.857 0 0 1 1.223-1.052c.317-.183.543-.229.77-.229.091 0 .181.046.226.092.046.045.182.091.227.183l.226-.503Z" fill="#BA8748"/><path d="M137.163 40.396c.046.686.091 1.463 0 2.15h.046c.362-.687.588-1.51.724-2.333a7.68 7.68 0 0 0 .136-1.28c0-.32.136-.366.272-.366s.272.046.407.092c.091.046.136.137.136.274 0 .229-.226 1.509-.996 3.11-.408.822-.906 1.737-1.585 2.56-.68.823-1.268 1.006-1.676 1.006-.362 0-.679-.229-.725-.549-.045-.366.181-.594.498-.594.182 0 .272.091.363.228.136.183.226.275.362.275.136 0 .408-.092.544-.275.226-.228.453-.686.543-1.234.091-.503.136-1.28 0-2.286-.136-1.19-.272-1.784-.498-1.784-.227 0-.408.412-.589.823-.09.046-.226 0-.272-.091.136-.64.544-1.509 1.269-1.509.679-.046.951.732 1.041 1.783Z" fill="#BA8748"/><path d="M128.06 22.472c0-.32-.091-.914-1.087-.914-.68 0-.951.411-.951.868 0 .503.407.64.589.64l.588.138c.453.091.589.183.589.503 0 .411-.453.457-.725.457-.362 0-.77-.137-.77-.64h-.362c0 .274.045.503.272.731.136.092.317.275.86.275.499 0 1.087-.183 1.087-.87 0-.456-.271-.685-.634-.73l-.815-.184c-.181-.045-.317-.137-.317-.365 0-.412.408-.503.634-.503.317 0 .68.137.68.548h.362v.046ZM130.913 24.484v-2.332l-.77 2.378h-.362l-.77-2.378v2.332h-.363V21.65h.544l.815 2.378.815-2.378h.544v2.835h-.453Z" fill="#4F2683"/><path d="M140.651 38.842h-.725v-.229h1.721v.229h-.724v1.92h-.272v-1.92ZM141.874 38.613h.362l.679 1.784.68-1.784h.362v2.15h-.272v-1.784l-.634 1.783h-.272l-.634-1.783v1.783h-.271v-2.149Z" fill="#BA8748"/><path d="M44.18 29.788h2.763v-3.384h.136c.453 0 .77.183 1.087.686.271.457.498.915 1.041 2.195l.227.503h2.717c-.18-.32-.226-.412-.317-.595l-.317-.685c-.136-.32-.317-.732-.589-1.235-.498-1.006-.905-1.326-1.041-1.326.407 0 .77-.091 1.087-.503.271-.411.453-1.006.362-1.554-.317-1.646-1.313-2.058-3.125-2.058h-4.122l.09 7.956Zm2.808-4.71v-1.92h.272c.86 0 1.494.091 1.54.823.09 1.006-.498 1.097-1.63 1.097h-.182Z" fill="#4F2683"/></svg>