<svg width="153" height="42" fill="none" xmlns="http://www.w3.org/2000/svg" viewBox="0 0 153 42"><g clip-path="url(#a)" fill="#5C186A"><path d="M0 12.355v18.517h17.907l1.746-6.026 2.215-7.659h-8.11V.229H3.444C-.22.23 0 4.695 0 4.695v7.66ZM19.29 30.877h6.995c1.756-9.166 8.975-14.492 8.975-14.492s-.015-.944-.846-1.042c-1.624-.196-4.784-1.232-6.417-2.925l2.602.436-1.644-2.603 3.12 1.908s.607-1.908-.346-3.033c-.954-1.125 1.951 1.39 2.078 3.728.088 1.643 1.79 2.587 1.79 2.587l-.278-1.712c.156.401.342.817.562 1.247l-.944-4.661c.387 1.193 1.013 2.95 1.384 3.223 0 0 .24.954.177 1.864 0 0 3.575-.132 6.304.323l-9.684 3.702s-5.204 4.94-5.987 11.44h22.455l-2.25-7.66-1.198-4.083C40.81.37 43.58.229 43.58.229H31.274c-2.593 0-3.732 2.392-4.143 3.586l-2.186 7.556-3.904 13.48-1.746 6.026h-.005Zm10.898-13.979c.357-.141.934-.332 1.237-.371 1.023-.132.896.156 1.36.494-.122.151-.195.528-.367.616-.557.274-2.582.093-3.218 0 .176-.122.836-.685.988-.744v.005Zm7.664-3.086c.118-.21.088-.352.25-.494 0 0 .362-.24.372-.244.46-.304 1.374-.96 1.848-1.11.607-.201-.244.743-.244.743-.044.122-.494.616-.494.616-.054.147-.925.959-1.11 1.115-.172-.107-.45-.088-.622-.122-.014-.083-.083-.631 0-.494v-.01ZM59.92 14.291h-3.74V.24h-2.847V16.9h6.588V14.29ZM66.01 17.139c3.307 0 4.613-1.908 4.613-8.57C70.623 1.908 69.317 0 66.01 0c-3.306 0-4.612 1.908-4.612 8.57 0 6.66 1.33 8.569 4.612 8.569Zm0-14.512c1.472 0 1.717.92 1.717 5.937 0 5.019-.24 5.938-1.717 5.938s-1.712-.915-1.712-5.938.27-5.937 1.712-5.937ZM76.106 9.777c1.257 0 1.785.387 1.785 2.22 0 1.835-.7 2.486-1.883 2.486-1.252 0-2.245-.411-3.306-1.062v3.018c.993.41 1.883.7 3.428.7 2.436 0 4.417-1.258 4.417-5.141 0-4.49-2.27-5.19-4.343-5.19-1.042 0-1.424-.508-1.424-2.098 0-1.59.578-2.054 1.644-2.054 1.154 0 2.245.46 3.306 1.135V.773C78.81.386 77.314 0 76.302 0 73.787 0 72.1 1.16 72.1 4.705c0 4.348 1.859 5.072 4.006 5.072ZM87.575 13.157h3.957l.822 3.741h2.895L91.367.24h-3.184L84.298 16.9h2.46l.822-3.742h-.005Zm1.35-6.183c.264-1.252.7-4.177.7-4.177s.288 2.92.557 4.177l.793 3.595h-2.847l.792-3.595h.005ZM99.583 9.22c0-.822-.362-3.962-.362-3.962s.749 2.846 1.037 3.6l3.018 8.04h2.367V.24h-2.46v7.68c0 1.227.357 3.956.357 3.956s-.675-2.631-1.037-3.595L99.486.24h-2.368v16.658h2.465V9.22ZM111.738 17.139c.846 0 1.716-.363 2.294-.964.244.337.503.577.723.724h1.761c-.19-.846-.264-2.172-.264-3.38V7.121h-3.986v2.607h1.135v4.27c-.362.46-.749.724-1.16.724-1.252 0-1.834-.92-1.834-6.158s.602-5.698 2.055-5.698c1.159 0 2.391.582 3.184 1.09V.798C114.682.387 113.45 0 111.977 0c-2.871 0-4.465 1.399-4.465 8.57 0 7.17 1.57 8.569 4.221 8.569h.005ZM125.12 14.291h-3.889V9.44h3.38V6.832h-3.38V2.846h3.625V.24h-6.471V16.9h6.735V14.29ZM133.576 14.291h-3.742V.24h-2.846V16.9h6.588V14.29ZM142.18 14.291h-3.884V9.44h3.38V6.832h-3.38V2.846h3.62V.24h-6.471V16.9h6.735V14.29ZM148.064 9.777c1.252 0 1.785.387 1.785 2.22 0 1.835-.704 2.486-1.888 2.486-1.252 0-2.24-.411-3.306-1.062v3.018c.993.41 1.883.7 3.429.7 2.435 0 4.416-1.258 4.416-5.141 0-4.49-2.269-5.19-4.348-5.19-1.037 0-1.423-.508-1.423-2.098 0-1.59.582-2.054 1.638-2.054 1.159 0 2.245.46 3.311 1.135V.773C150.764.386 149.262 0 148.25 0c-2.514 0-4.202 1.16-4.202 4.705 0 4.348 1.859 5.072 4.011 5.072h.005ZM54.795 25.962h2.343v-1.355h-2.343v-3.008h2.514v-1.355h-3.976v10.633h1.462v-4.915ZM58.39 27.028c0 3.36.974 3.991 2.436 3.991.895 0 1.633-.308 2.113-.494v-1.354c-.631.415-1.252.587-1.712.587-1.096 0-1.418-.43-1.418-2.637h3.316v-1.633c0-1.8-.695-2.465-2.157-2.465-1.834 0-2.573 1.017-2.573 4.01l-.005-.005Zm2.529-2.87c.694 0 .86.337.86 1.51v.328h-1.956c.044-1.355.294-1.834 1.096-1.834v-.005ZM67.708 20.244v3.64l-.25-.23c-.386-.372-.924-.632-1.355-.632-1.218 0-1.897.91-1.897 4.011s.68 4.006 1.897 4.006c.494 0 1.047-.308 1.463-.724l.308-.308c.108.386.264.709.401.88h1.017c-.107-.494-.156-1.384-.156-2.157v-8.476h-1.433l.005-.01Zm0 8.599-.308.352c-.402.465-.675.602-.954.602-.43 0-.817-.172-.817-2.774s.386-2.773.817-2.773c.279 0 .557.137.954.602l.308.357v3.634ZM72.81 31.015c.894 0 1.633-.309 2.112-.495v-1.354c-.63.415-1.247.587-1.712.587-1.095 0-1.418-.43-1.418-2.637h3.311v-1.633c0-1.8-.69-2.465-2.157-2.465-1.834 0-2.572 1.017-2.572 4.01 0 3.36.973 3.991 2.435 3.991v-.004Zm.092-6.858c.695 0 .866.338.866 1.512v.327h-1.957c.044-1.355.294-1.834 1.096-1.834l-.005-.005ZM78.038 30.878v-4.98l.68-.694c.464-.435.831-.514 1.31-.387v-1.804c-.386 0-.846.215-1.276.68l-.773.831c-.093-.63-.323-1.154-.508-1.355h-1.018c.108.494.157 1.39.157 2.157v5.552h1.433-.005ZM83.315 26.24c-1.59 0-2.465.984-2.465 2.574 0 1.433.631 2.2 1.727 2.2.4 0 .988-.107 1.511-.709l.23-.25c.108.358.25.632.386.818h1.013c-.108-.46-.152-1.385-.152-2.157v-3.238c0-1.8-.773-2.465-2.28-2.465-.787 0-1.618.293-2.112.494v1.433c.645-.416 1.281-.68 1.99-.68.588 0 .969.279.969 1.051v.925h-.817v.005Zm.817 2.789-.308.308c-.338.367-.66.543-.954.543-.416 0-.68-.308-.68-1.066 0-.817.294-1.433 1.233-1.433h.709v1.648ZM89.048 30.877V20.244h-2.25v1.17h.817v9.463h1.433ZM95.362 21.648c.758 0 1.453.337 1.99.71V20.68c-.572-.25-1.36-.514-2.19-.514-1.713 0-2.7.802-2.7 5.395s.924 5.395 2.7 5.395c.894 0 1.662-.264 2.19-.509v-1.712c-.572.416-1.217.744-1.99.744-1.032 0-1.419-.646-1.419-3.918 0-3.439.45-3.913 1.419-3.913ZM100.087 30.878v-4.98l.68-.694c.464-.435.836-.514 1.31-.387v-1.804c-.386 0-.851.215-1.281.68l-.773.831c-.093-.63-.323-1.154-.509-1.355h-1.017c.108.494.152 1.39.152 2.157v5.552h1.438ZM102.645 27.028c0 3.36.968 3.991 2.436 3.991.895 0 1.633-.308 2.113-.494v-1.354c-.631.415-1.247.587-1.712.587-1.096 0-1.419-.43-1.419-2.637h3.312v-1.633c0-1.8-.69-2.465-2.157-2.465-1.834 0-2.573 1.017-2.573 4.01v-.005Zm3.39-1.36v.328h-1.957c.044-1.355.294-1.834 1.096-1.834.689 0 .861.338.861 1.511v-.004ZM111.733 20.244v3.64l-.25-.23c-.381-.372-.924-.632-1.355-.632-1.218 0-1.898.91-1.898 4.011s.68 4.006 1.898 4.006c.494 0 1.047-.308 1.463-.724l.308-.308c.107.386.259.709.401.88h1.017c-.107-.494-.151-1.384-.151-2.157v-8.476h-1.433v-.01Zm0 8.599-.309.352c-.401.465-.675.602-.953.602-.436 0-.817-.172-.817-2.774s.381-2.773.817-2.773c.278 0 .552.137.953.602l.309.357v3.634ZM116.428 30.877v-7.703h-2.25v1.169h.817v6.534h1.433ZM115.704 20.23a.895.895 0 0 0-.895.895c0 .494.401.88.895.88a.883.883 0 0 0 .895-.88.895.895 0 0 0-.895-.895ZM118.472 28.843c0 1.712.235 2.113 1.526 2.113.558 0 1.096-.137 1.297-.245v-1.125c-.137.064-.514.122-.68.122-.587 0-.709-.122-.709-.86v-4.5h1.389v-1.17h-1.389v-1.76h-1.438v1.76h-1.018v1.17h1.018v4.5l.004-.005ZM124.415 20.244v8.325c0 1.511 1.017 2.465 2.607 2.465 1.59 0 2.587-.959 2.587-2.465v-8.325h-1.389v8.261c0 .758-.401 1.14-1.174 1.14-.772 0-1.173-.386-1.173-1.14v-8.26h-1.463.005ZM132.451 24.314c-.122-.509-.308-.974-.45-1.14h-1.017c.107.494.152 1.39.152 2.157v5.552h1.433V25.58l.552-.617c.431-.494.675-.65.925-.65.323 0 .489.23.489.846v5.718h1.438v-5.562c0-1.403-.294-2.298-1.497-2.298-.538 0-1.061.293-1.541.787l-.489.509h.005ZM138.883 20.23a.895.895 0 0 0-.895.895c0 .494.401.88.895.88a.883.883 0 0 0 .895-.88.895.895 0 0 0-.895-.895ZM139.607 30.877v-7.703h-2.25v1.169h.817v6.534h1.433ZM141.153 27.028c0 2.989.709 4.006 2.499 4.006s2.485-1.017 2.485-4.006c0-2.988-.709-4.01-2.485-4.01-1.775 0-2.499 1.017-2.499 4.01Zm2.499-2.87c.851 0 1.066.523 1.066 2.87 0 2.348-.215 2.867-1.066 2.867-.851 0-1.076-.524-1.076-2.867s.215-2.87 1.076-2.87ZM151.008 23.018c-.543 0-1.066.293-1.545.787l-.489.509c-.123-.509-.308-.974-.45-1.14h-1.018c.108.494.157 1.39.157 2.157v5.552h1.433V25.58l.558-.617c.43-.494.675-.65.924-.65.323 0 .494.23.494.846v5.718h1.433v-5.562c0-1.403-.289-2.298-1.492-2.298h-.005ZM152.49 34.624H0v.548h152.49v-.548ZM152.49 41.452H0V42h152.49v-.548ZM26.999 36.444l.088-.425h-1.658l-.856 4.485h.48l.386-2.045h1.105l.083-.41h-1.105l.303-1.605h1.174ZM30.207 36.019l-.85 4.485h.479l.85-4.485h-.479ZM34.252 36.777h.015c.054.533.127.944.22 1.389l.474 2.338h.426l.851-4.485h-.425l-.411 2.176c-.098.519-.162 1.052-.22 1.531h-.015c-.054-.41-.132-.827-.22-1.286l-.46-2.421h-.46l-.85 4.485h.425l.406-2.162c.098-.533.186-1.106.244-1.565ZM40.538 39.144l.034 1.36h.464l-.141-4.485h-.533l-1.86 4.485h.48l.548-1.36h1.008Zm-.411-1.536c.127-.298.254-.694.371-1.037h.02c0 .338-.005.72 0 1.037l.02 1.16h-.871l.46-1.16ZM45.164 36.777h.015c.054.533.127.944.22 1.389l.475 2.338h.425l.851-4.485h-.425l-.411 2.176c-.098.519-.162 1.052-.22 1.531h-.015c-.054-.41-.132-.827-.22-1.286l-.46-2.421h-.46l-.85 4.485h.425l.406-2.162c.098-.533.186-1.106.244-1.565ZM51.792 36.425c.132 0 .264.02.352.058l.147-.425c-.059-.04-.245-.078-.445-.078-.391 0-.827.151-1.203.538-.602.61-.852 1.584-.852 2.47 0 .723.235 1.56 1.16 1.56.244 0 .46-.034.591-.098l-.024-.426a1.226 1.226 0 0 1-.455.088c-.587 0-.758-.513-.758-1.252 0-.738.254-1.535.66-2.015.22-.259.519-.41.832-.41l-.005-.01ZM55.392 36.019l-.851 4.485h.48l.855-4.485h-.484ZM59.442 36.777h.014c.054.533.128.944.22 1.389l.475 2.338h.425l.852-4.485h-.426l-.41 2.176c-.099.519-.162 1.052-.22 1.531h-.016c-.053-.41-.132-.827-.22-1.286l-.46-2.421h-.46l-.85 4.485h.425l.406-2.162c.098-.533.186-1.106.245-1.565ZM66.196 36.425c.186 0 .338.024.445.078l.162-.43a1.39 1.39 0 0 0-.553-.093c-.44 0-.91.166-1.291.547-.621.626-.87 1.6-.87 2.426 0 .42.092.851.293 1.13.205.284.513.465.978.465.279 0 .528-.059.734-.147l.42-2.23h-1.027l-.078.406h.572l-.274 1.492a.863.863 0 0 1-.318.053c-.572 0-.792-.484-.792-1.213 0-.777.279-1.653.704-2.083.294-.289.573-.401.9-.401h-.005ZM73.924 40.504l.352-1.903 1.507-2.582h-.519l-.723 1.325c-.152.298-.264.553-.387.807h-.014c-.02-.18-.05-.46-.093-.812l-.216-1.32h-.513l.484 2.587-.367 1.898h.489ZM79.789 40.175c.587-.577.9-1.932.9-2.763 0-.568-.079-1.453-.925-1.453-.298 0-.587.117-.836.367-.621.606-.934 1.951-.934 2.807 0 .48.093 1.419.958 1.419.299 0 .587-.118.837-.382v.005Zm-1.296-1.066c0-.665.273-2.015.772-2.514.127-.127.264-.2.421-.2.474 0 .504.498.504 1.031 0 .533-.235 1.976-.758 2.505-.127.122-.26.195-.411.195-.504 0-.528-.63-.528-1.012v-.005ZM84.63 36.019h-.483l-.558 2.973c-.049.235-.069.44-.069.612 0 .62.372.953.915.953.724 0 1.14-.45 1.345-1.55l.568-2.988h-.485l-.572 3.037c-.147.763-.372 1.071-.792 1.071-.28 0-.484-.196-.484-.572 0-.166.014-.333.053-.528l.573-3.008h-.01ZM91.41 36.968c0-.274-.078-.514-.244-.695-.172-.181-.46-.279-.812-.279a3.7 3.7 0 0 0-.705.069l-.836 4.44h.474l.367-1.975h.216c.405 0 .552.24.567.866.014.552.02.978.054 1.11h.479c-.025-.142-.059-.519-.069-1.14-.004-.587-.141-.9-.41-1.008v-.019c.547-.171.934-.739.934-1.37h-.015Zm-1.453 1.173h-.234l.318-1.716a.987.987 0 0 1 .279-.035c.425 0 .586.274.586.621 0 .641-.41 1.13-.953 1.13h.004ZM99.92 36.444l.084-.425h-1.658l-.851 4.485h.479l.386-2.045h1.106l.078-.41h-1.105l.308-1.605h1.174ZM103.594 36.019h-.485l-.557 2.973c-.049.235-.069.44-.069.612 0 .62.372.953.915.953.724 0 1.14-.45 1.345-1.55l.567-2.988h-.484l-.572 3.037c-.147.763-.372 1.071-.792 1.071-.279 0-.485-.196-.485-.572 0-.166.015-.333.054-.528l.572-3.008h-.009ZM108.739 40.504l.763-4.04h.807l.088-.445h-2.098l-.088.445h.812l-.763 4.04h.479ZM113.89 36.019h-.485l-.557 2.973c-.049.235-.069.44-.069.612 0 .62.372.953.915.953.724 0 1.14-.45 1.345-1.55l.567-2.988h-.484l-.572 3.037c-.147.763-.372 1.071-.792 1.071-.279 0-.485-.196-.485-.572 0-.166.015-.333.054-.528l.572-3.008h-.009ZM120.673 36.968c0-.274-.078-.514-.244-.695-.171-.181-.46-.279-.812-.279-.24 0-.479.025-.704.069l-.837 4.44h.475l.366-1.975h.216c.406 0 .552.24.567.866.015.552.02.978.054 1.11h.479c-.024-.142-.059-.519-.068-1.14-.005-.587-.142-.9-.411-1.008v-.019c.548-.171.934-.739.934-1.37h-.015Zm-1.452 1.173h-.235l.318-1.716a.987.987 0 0 1 .279-.035c.425 0 .587.274.587.621 0 .641-.411 1.13-.954 1.13h.005ZM125.672 36.444l.088-.425h-1.658l-.851 4.485h1.736l.088-.436h-1.266l.327-1.707h1.106l.078-.415h-1.11l.293-1.502h1.169Z"/></g><defs><clipPath id="a"><path fill="#fff" d="M0 0h152.505v42H0z"/></clipPath></defs></svg>