<svg width="53" height="52" fill="none" xmlns="http://www.w3.org/2000/svg" viewBox="0 0 53 52"><path d="M29.639 24.657c5.107 0 9.248-4.177 9.248-9.329 0-5.151-4.14-9.328-9.248-9.328s-9.248 4.177-9.248 9.328c0 5.152 4.14 9.329 9.248 9.329Z" fill="#0069DC"/><path d="M30.378 19.806V21.3h-1.331v-1.493a4.61 4.61 0 0 1-2.59-1.343l1.036-1.269a3.583 3.583 0 0 0 2.294.97c.665 0 1.11-.298 1.11-.82 0-.598-.445-.822-1.48-1.12-1.48-.448-2.738-.97-2.738-2.612 0-1.343.888-2.313 2.368-2.537V9.508h1.331v1.641a4.723 4.723 0 0 1 2.22 1.045l-1.036 1.269c-.74-.523-1.405-.746-1.997-.746-.666 0-1.036.298-1.036.746s.444.746 1.405 1.045c1.702.522 2.886.97 2.886 2.686-.074 1.418-.962 2.388-2.442 2.612Z" fill="#fff"/><path d="m41.402 23.239-5.845 5.895-10.135-1.044 5.622-1.94c.42-.155.768-.463.974-.864.206-.401.254-.866.136-1.3a1.756 1.756 0 0 0-.802-1.011 1.731 1.731 0 0 0-1.27-.184l-9.247 2.463a3.569 3.569 0 0 0-.888-.075 4.05 4.05 0 0 0-2.738 1.045h-.073L7.96 35.478l8.065 8.134 6.806-9.254H36.89l8.656-11.12a2.98 2.98 0 0 0-2.071-.839c-.772 0-1.514.301-2.072.84Z" fill="#B4C8EB"/><path d="m17.727 45.776 4.218-4.253a.722.722 0 0 0 .163-.807.721.721 0 0 0-.163-.238L12.475 31a.714.714 0 0 0-1.036 0l-4.217 4.254a.722.722 0 0 0-.164.806c.038.09.094.171.164.239l9.47 9.477a.716.716 0 0 0 .8.166.716.716 0 0 0 .235-.166Z" fill="#0046B4"/></svg>