<svg width="53" height="52" fill="none" xmlns="http://www.w3.org/2000/svg" viewBox="0 0 53 52"><path fill="#fff" d="M.5 0h52v52H.5z"/><mask id="a" style="mask-type:alpha" maskUnits="userSpaceOnUse" x="5" y="8" width="42" height="42"><path d="M26 49.462c11.322 0 20.5-9.09 20.5-20.303 0-11.213-9.178-20.303-20.5-20.303S5.5 17.946 5.5 29.16c0 11.213 9.178 20.303 20.5 20.303Z" fill="#FFF1E1"/><path d="M26 49.462c11.322 0 20.5-9.09 20.5-20.303 0-11.213-9.178-20.303-20.5-20.303S5.5 17.946 5.5 29.16c0 11.213 9.178 20.303 20.5 20.303Z" fill="#FFF1E1"/></mask><g mask="url(#a)"><path d="M26 49.462c11.322 0 20.5-9.09 20.5-20.303 0-11.213-9.178-20.303-20.5-20.303S5.5 17.946 5.5 29.16c0 11.213 9.178 20.303 20.5 20.303Z" fill="#F7F7F7"/><path d="M40.52 33.873a32.085 32.085 0 0 0-29.436 0c-2.01 1.036-3.276 3.13-3.276 5.419V52.75c0 .825.659 1.494 1.472 1.494h34.517V39.292c0-2.288-1.266-4.383-3.276-5.419Z" fill="#FFDCB4"/><path d="M40.52 33.873a32.096 32.096 0 0 0-17.171-3.477v.643c0 1.874 1.286 3.492 3.09 3.893a32.152 32.152 0 0 1 7.756 2.81c2.008 1.018 3.277 3.102 3.277 5.381v11.122h6.325V39.292c0-2.288-1.265-4.383-3.276-5.419Z" fill="#FFDCB4"/><path d="M38.117 32.757a32.242 32.242 0 0 0-4.616-1.52l-7.366 10.516a.611.611 0 0 1-1.012-.01l-7.057-10.497c-1.551.386-3.081.89-4.577 1.511v21.487h24.628V32.757Z" fill="#FF8C00"/><path d="m30.414 35.644 3.087-4.407-2.23-1.77a1.187 1.187 0 0 0-1.5.06l-3.968 3.504 4.096 2.526c.16.099.344.125.515.087Z" fill="#fff"/><path d="m18.066 31.247 2.888 4.295a.695.695 0 0 0 .755.015l4.096-2.526-3.969-3.504a1.188 1.188 0 0 0-1.5-.06l-2.27 1.78Z" fill="#fff"/></g><path d="m25.804 33.03 3.87-3.417v-6.05h-7.743v6.048l3.873 3.419ZM17.61 12.979h-1.407c-1.195 0-2.162.983-2.162 2.196v1.038c0 1.213.967 2.196 2.162 2.196h1.407v-5.43ZM33.995 12.979h1.408c1.194 0 2.162.983 2.162 2.196v1.038c0 1.213-.968 2.196-2.162 2.196h-1.408v-5.43Z" fill="#FED6A6"/><path d="M25.803 3.268c-5.039.002-9.12 4.154-9.11 9.27l.013 7.305c0 5.727 6.352 7.986 9.097 8.038 2.744-.052 9.097-2.311 9.097-8.038l.013-7.305c.01-5.116-4.071-9.268-9.11-9.27Z" fill="#FFE3C2"/><path d="M34.59 4.806c-3.473-2.881-7.518-1.451-7.518-1.451 6.296 1.737 7.841 9.617 7.841 9.617s1.564.127 2.101-1.32c.61-1.642-.263-5.054-2.424-6.846ZM17.015 4.806c3.474-2.881 7.519-1.451 7.519-1.451-6.297 1.737-7.841 9.617-7.841 9.617s-1.565.127-2.101-1.32c-.61-1.642.263-5.054 2.423-6.846Z" fill="#B9B9B9"/><path d="M29.393 10.152h-7.18a.963.963 0 0 1-.955-.97c0-.536.427-.97.955-.97h7.18c.527 0 .955.434.955.97 0 .535-.428.97-.955.97ZM27.809 12.93h-4.012a.963.963 0 0 1-.956-.97c0-.536.428-.97.956-.97h4.012c.527 0 .955.434.955.97s-.428.97-.955.97Z" fill="#FED6A6"/><path d="M29.095 20.572a.654.654 0 0 1 .24.026c.075.023.143.06.196.108.053.047.091.104.11.165a.3.3 0 0 1-.003.185c-.272 1.453-1.992 2.56-3.984 2.56s-3.712-1.107-3.984-2.56a.3.3 0 0 1-.003-.185.366.366 0 0 1 .11-.165.528.528 0 0 1 .196-.108.654.654 0 0 1 .24-.026h6.881Z" fill="#FFBD71"/></svg>