<svg width="53" height="52" fill="none" xmlns="http://www.w3.org/2000/svg" viewBox="0 0 53 52"><path d="M18.262 16.555v.896c0 .548.058 1.095.174 1.63l.526 2.405c.275 1.26.46 2.605.946 3.803a7.651 7.651 0 0 0 14.168 0c.486-1.2.67-2.544.945-3.803l.527-2.405a7.76 7.76 0 0 0 .175-1.63v-.896H18.262Z" fill="#DBF5CC"/><path d="M29.425 24.627a.518.518 0 0 1 .186.02.414.414 0 0 1 .154.083.28.28 0 0 1 .084.126.227.227 0 0 1-.002.142c-.21 1.112-1.548 1.96-3.096 1.96s-2.885-.848-3.096-1.96a.227.227 0 0 1-.003-.142.28.28 0 0 1 .085-.126.412.412 0 0 1 .153-.083.517.517 0 0 1 .187-.02h5.348Z" fill="#46B400"/><path d="M18.31 19.176a7.64 7.64 0 0 1-.176-1.632v-.456a2.377 2.377 0 1 0 .701 4.493l-.525-2.405ZM35.832 17.064c-.079.001-.158.007-.236.018v.463c0 .548-.06 1.095-.175 1.63l-.527 2.405-.007.035c.298.132.62.2.945.202a2.377 2.377 0 0 0 0-4.752v-.002Z" fill="#E8FADE"/><path d="M35.738 33.958a28.32 28.32 0 0 1-.92-.082 7.956 7.956 0 0 1-1.373-.252l-6.624 4.92 4.573 2.095 4.344-6.681Z" fill="#358502"/><path d="M46.23 42.06v5.38H7.5v-5.38a7.821 7.821 0 0 1 5.757-7.54c1.504-.411 3.085-.457 4.644-.572l4.348 6.693 3.96-1.818.61-.28.611.28 3.964 1.818 4.344-6.682c.446.035.89.066 1.33.104 1.146.051 2.285.204 3.405.457a7.822 7.822 0 0 1 5.757 7.54Z" fill="#46B400"/><path d="m26.821 38.544-6.591-4.896c-.351.123-.72.187-1.09.191-.41.047-.823.08-1.238.11l4.345 6.69 4.574-2.095Z" fill="#358502"/><path d="M27.43 38.543v8.898H26.21v-8.898a.61.61 0 1 1 1.221 0ZM40.56 42.336v5.105H39.34v-5.105a.61.61 0 1 1 1.221 0Z" fill="#358502"/><path d="M13.78 44.027h3.607a.748.748 0 0 1 .747.747.746.746 0 0 0 .747.747h2.734a.748.748 0 0 1 .747.747v.426a.748.748 0 0 1-.747.747H13.78v-3.414ZM44.864 37.656h-4.631a1.047 1.047 0 0 0-1.047 1.047v.044a1.047 1.047 0 0 0 1.047 1.046h.85a1.047 1.047 0 0 1 1.047 1.047 1.047 1.047 0 0 0 1.047 1.047h3.046a7.777 7.777 0 0 0-1.359-4.23Z" fill="#C8EBB4"/><path d="m31.288 32.822.877-.18a2.352 2.352 0 0 1-.382-1.002l-.382-2.992a7.625 7.625 0 0 1-9.072 0l-.384 2.993c-.053.359-.188.7-.394.999l.89.182c2.918.596 5.928.596 8.847 0Z" fill="#E8FADE"/><path d="m32.165 32.642-.877.18a22.104 22.104 0 0 1-8.846 0l-.89-.182c-.32.47-.784.823-1.322 1.008l6.591 4.896 6.624-4.92a2.303 2.303 0 0 1-1.28-.982ZM7.744 40.113h7.407a.747.747 0 0 0 .747-.747v-.426a.748.748 0 0 0-.747-.747h-2.734a.747.747 0 0 1-.747-.747.748.748 0 0 0-.747-.747H9.637a7.806 7.806 0 0 0-1.893 3.414ZM31.162 47.44v-1.7a1.068 1.068 0 0 1 1.07-1.069h.041a1.069 1.069 0 0 0 1.069-1.068 1.069 1.069 0 0 1 1.068-1.069h.044a1.068 1.068 0 0 1 1.068 1.069v3.838h-4.36Z" fill="#C8EBB4"/><path d="M36.547 12.769v3.182a.7.7 0 0 1-.698.697H17.88a.7.7 0 0 1-.698-.697v-3.182h19.365Z" fill="#358502"/><path d="M30.82 4h-5.43a13.912 13.912 0 0 0-9.581 3.824L14.2 9.35a1.98 1.98 0 0 0 1.364 3.418h20.978a2.442 2.442 0 0 0 2.268-3.347A8.603 8.603 0 0 0 30.821 4Z" fill="#46B400"/><path d="m28.773 9.059-1.908 1.397-1.909-1.397V6.313h3.817v2.746Z" fill="#E0FAD2"/><path d="M19.702 12.769h1.22v3.88h-1.22v-3.88ZM22.978 12.769h1.221v3.88h-1.221v-3.88ZM26.254 12.769h1.221v3.88h-1.221v-3.88ZM29.53 12.769h1.222v3.88h-1.221v-3.88ZM32.807 12.769h1.221v3.88h-1.221v-3.88Z" fill="#C8EBB4"/><path d="M14.39 42.336v5.105h-1.22v-5.105a.61.61 0 1 1 1.22 0Z" fill="#358502"/></svg>