<svg width="53" height="52" fill="none" xmlns="http://www.w3.org/2000/svg" viewBox="0 0 53 52"><g clip-path="url(#a)"><path d="M10.061 30.069v6.3a.632.632 0 0 1-.63.63h-3.15a3.78 3.78 0 1 1 0-7.56h3.15a.63.63 0 0 1 .63.63ZM22.349 30.069v6.3a.632.632 0 0 1-.63.63h-3.151a3.78 3.78 0 1 1 0-7.56h3.15a.63.63 0 0 1 .63.63Z" fill="#087E9F"/><path d="M9.431 36.37a3.15 3.15 0 1 0 0-6.302 3.15 3.15 0 0 0 0 6.302Z" fill="#B4E6F5"/><path d="M9.431 37a3.78 3.78 0 1 1 0-7.562 3.78 3.78 0 0 1 0 7.562Zm0-6.301a2.52 2.52 0 1 0 0 5.04 2.52 2.52 0 0 0 0-5.04Z" fill="#0090B8"/><path d="m30.197 18.866-1.232 6.162h-8.822l3.055-3.818a6.614 6.614 0 0 1 5.137-2.483h.19c.56 0 1.12.046 1.672.139ZM36.518 22.499a9.804 9.804 0 0 1-6.572 2.529h-.981l1.233-6.162a10.183 10.183 0 0 1 5.532 2.845l.788.788Z" fill="#82D4ED"/><path d="m39.047 26.314-2.141 7.535H2.5v-3.78a5.03 5.03 0 0 1 .881-2.849 5.035 5.035 0 0 1 4.16-2.193h22.405c2.428 0 4.77-.901 6.571-2.529l.389.388c.167.167.35.317.546.448a3.58 3.58 0 0 1 1.595 2.98Z" fill="#00AFE1"/><path d="M28.335 18.727a6.613 6.613 0 0 0-5.137 2.483l-3.055 3.818H7.541l1.503-1.503a16.38 16.38 0 0 1 11.584-4.798h7.707Z" fill="#B4E6F5"/><path d="m17.52 27.065-.768.153a7.419 7.419 0 0 0-2.996 1.34l-1.174.88.62.208a5.04 5.04 0 0 0 2.583.16l.274-.054a2.52 2.52 0 0 0 1.95-1.86l.063-.25a.473.473 0 0 0-.552-.577ZM7.541 29.439l-.62.207a5.046 5.046 0 0 1-2.583.16l-.274-.055a2.518 2.518 0 0 1-1.43-.842 4.978 4.978 0 0 1 .747-1.688 7.417 7.417 0 0 1 2.986 1.337l1.174.88Z" fill="#D4E4F0"/><path d="m20.143 25.027 1.996-2.494 2.415.604v1.89h-4.41Z" fill="#00AFE1"/><path d="m5.02 33.85 3.151-2.52h3.78l3.151 2.52H5.021ZM24.554 33.219a3.15 3.15 0 1 1-3.216-3.15h.131a3.15 3.15 0 0 1 3.085 3.15Z" fill="#B4E6F5"/><path d="M37.156 33.219a3.15 3.15 0 1 1-3.216-3.15h.131a3.151 3.151 0 0 1 3.085 3.15Z" fill="#D4E4F0"/><path d="M39.047 26.315v3.124l-3.15-2.52a4.304 4.304 0 0 1 3.042-1.26h.047c.04.216.06.436.06.656Z" fill="#D6323F"/><path d="M21.403 33.85a.63.63 0 1 0 0-1.261.63.63 0 0 0 0 1.26Z" fill="#00AFE1"/><path d="M34.006 33.85a.63.63 0 1 0 0-1.261.63.63 0 0 0 0 1.26Z" fill="#68737F"/><path d="M32.484 28.178h-.369v-1.26h.37a1.51 1.51 0 0 0 1.075-.445l.891.89a2.763 2.763 0 0 1-1.967.815ZM25.184 26.918h2.52v1.26h-2.52v-1.26Z" fill="#D4E4F0"/><path d="M21.404 37a3.78 3.78 0 1 1 0-7.561 3.78 3.78 0 0 1 0 7.56Zm0-6.301a2.52 2.52 0 1 0 0 5.04 2.52 2.52 0 0 0 0-5.04Z" fill="#0090B8"/><path d="M33.603 28.655v7.586a.755.755 0 0 1-.468.701.76.76 0 0 1-.29.058h-3.793a4.552 4.552 0 1 1 0-9.104h3.793a.76.76 0 0 1 .758.76ZM48.396 28.655v7.586a.759.759 0 0 1-.758.759h-3.793a4.552 4.552 0 1 1 0-9.104h3.793a.759.759 0 0 1 .758.76Z" fill="#0046B4"/><path d="M32.845 36.242a3.793 3.793 0 1 0 0-7.587 3.793 3.793 0 0 0 0 7.587Z" fill="#D4E4F0"/><path d="M32.845 37a4.551 4.551 0 1 1 0-9.102 4.551 4.551 0 0 1 0 9.102Zm0-7.586a3.035 3.035 0 1 0 0 6.07 3.035 3.035 0 0 0 0-6.07Z" fill="#0046B4"/><path d="m57.846 15.168-1.484 7.418h-10.62l3.677-4.596A7.964 7.964 0 0 1 55.604 15h.228c.675 0 1.349.056 2.014.168Z" fill="#97B7F0"/><path d="M68.5 24.135v9.072h-44v-4.552a6.05 6.05 0 0 1 1.061-3.43 6.062 6.062 0 0 1 5.008-2.64h26.975c2.923 0 5.742-1.084 7.911-3.044l.468.468c.2.2.42.38.657.538a4.312 4.312 0 0 1 1.92 3.588Z" fill="#0069DC"/><path d="M55.603 15a7.964 7.964 0 0 0-6.184 2.99l-3.678 4.596H30.57l1.81-1.81A19.722 19.722 0 0 1 46.324 15h9.278Z" fill="#B4C8EB"/><path d="m42.584 25.038-.925.185a8.93 8.93 0 0 0-3.608 1.613l-1.413 1.06.746.25a6.07 6.07 0 0 0 3.11.193l.33-.066a3.034 3.034 0 0 0 2.348-2.24l.075-.299a.569.569 0 0 0-.663-.696ZM30.569 27.897l-.747.25a6.074 6.074 0 0 1-3.11.193l-.329-.067a3.032 3.032 0 0 1-1.721-1.014 5.99 5.99 0 0 1 .899-2.032 8.929 8.929 0 0 1 3.594 1.61l1.414 1.06Z" fill="#D4E4F0"/><path d="m45.742 22.586 2.402-3.003 2.908.727v2.276h-5.31Z" fill="#0046B4"/><path d="m27.535 33.206 3.793-3.034h4.552l3.793 3.034H27.535Z" fill="#B4C8EB"/><path d="M51.051 32.448a3.793 3.793 0 1 1-3.871-3.792h.158a3.793 3.793 0 0 1 3.713 3.792Z" fill="#D4E4F0"/><path d="M47.259 33.207a.759.759 0 1 0 0-1.518.759.759 0 0 0 0 1.518Z" fill="#B4C8EB"/><path d="M51.81 24.862h3.035v1.518H51.81v-1.518Z" fill="#D4E4F0"/><path d="M47.259 37a4.552 4.552 0 1 1 0-9.103 4.552 4.552 0 0 1 0 9.103Zm0-7.586a3.035 3.035 0 1 0 0 6.069 3.035 3.035 0 0 0 0-6.07Z" fill="#0046B4"/></g><defs><clipPath id="a"><path fill="#fff" transform="translate(.5)" d="M0 0h52v52H0z"/></clipPath></defs></svg>