<svg width="53" height="52" fill="none" xmlns="http://www.w3.org/2000/svg" viewBox="0 0 53 52"><g clip-path="url(#a)"><path d="m34.069 7.85 8 7.973-6.769 1.8s-2.504-4.287-2.438-4.438c.066-.15 1.207-5.334 1.207-5.334Z" fill="#358502"/><path d="M40.9 15.303h-4.8c-.424 0-.831-.167-1.131-.466a1.59 1.59 0 0 1-.468-1.127V8.927a1.59 1.59 0 0 0-.469-1.127 1.602 1.602 0 0 0-1.13-.467H15.3c-.425 0-.831.168-1.131.467a1.59 1.59 0 0 0-.469 1.127v33.48c0 .422.169.827.469 1.126.3.299.706.467 1.13.467h25.6c.425 0 .832-.168 1.132-.467.3-.299.468-.704.468-1.127V16.9c0-.423-.169-.829-.468-1.128-.3-.3-.707-.468-1.131-.469Z" fill="#C8EBB4"/><path d="M35 34H21v2h14v-2ZM35 30H21v2h14v-2ZM35 26H21v2h14v-2ZM35 22H21v2h14v-2ZM35 18H21v2h14v-2Z" fill="#fff"/></g><defs><clipPath id="a"><path fill="#fff" transform="translate(10.5 7.333)" d="M0 0h32v36.667H0z"/></clipPath></defs></svg>