<svg xmlns="http://www.w3.org/2000/svg" width="52" height="52" viewBox="0 0 52 52">
    <defs>
        <style>
            .cls-1{fill:none}.cls-2{fill:#d3333f}
        </style>
    </defs>
    <g id="icon-universal" transform="translate(0 .107)">
        <g id="Group_Employee_Benefit_Plans" data-name="Group Employee Benefit Plans" transform="translate(2 -.107)">
            <path id="Trazado_1672" d="M11.827 17.44a5.67 5.67 0 1 0 5.673 5.667 5.671 5.671 0 0 0-5.673-5.667zm0 9.877a4.206 4.206 0 1 1 4.21-4.21 4.209 4.209 0 0 1-4.21 4.21z" class="cls-2" data-name="Trazado 1672" transform="translate(-.579 -2.261)"/>
            <path id="Trazado_1673" d="M8.77 44.877a.732.732 0 0 0-.732.732v4.611a.732.732 0 0 0 1.464 0v-4.611a.732.732 0 0 0-.732-.732z" class="cls-2" data-name="Trazado 1673" transform="translate(-1.082 -9.61)"/>
            <path id="Trazado_1674" d="M48.027 17.44a5.67 5.67 0 1 0 5.673 5.667 5.671 5.671 0 0 0-5.673-5.667zm0 9.877a4.206 4.206 0 1 1 4.21-4.21 4.209 4.209 0 0 1-4.21 4.21z" class="cls-2" data-name="Trazado 1674" transform="translate(-10.275 -2.261)"/>
            <path id="Trazado_1675" d="M45 40.959v5.572a.732.732 0 1 1-1.464 0v-5.572a5.9 5.9 0 0 0-5.784-6 5.7 5.7 0 0 0-4.591 2.372 9.7 9.7 0 0 1 .571 3.273v7.263a.732.732 0 1 1-1.464 0V40.6a7.92 7.92 0 0 0-7.768-8.046 7.919 7.919 0 0 0-7.761 8.046v7.263a.732.732 0 1 1-1.464 0V40.6a9.7 9.7 0 0 1 .571-3.273 5.713 5.713 0 0 0-4.6-2.372 5.907 5.907 0 0 0-5.784 6v5.572a.732.732 0 1 1-1.464 0v-5.568a7.375 7.375 0 0 1 7.248-7.468 7.119 7.119 0 0 1 5.271 2.357 9.077 9.077 0 0 1 15.968 0 7.1 7.1 0 0 1 5.264-2.357A7.37 7.37 0 0 1 45 40.959z" class="cls-2" data-name="Trazado 1675" transform="translate(0 -5.917)"/>
            <path id="Trazado_1676" d="M54.7 44.877a.732.732 0 0 0-.732.732v4.611a.732.732 0 0 0 1.464 0v-4.611a.732.732 0 0 0-.732-.732z" class="cls-2" data-name="Trazado 1676" transform="translate(-13.385 -9.61)"/>
            <path id="Trazado_1677" d="M29.375 9a7.175 7.175 0 1 0 7.175 7.175A7.187 7.187 0 0 0 29.375 9zm0 12.886a5.711 5.711 0 1 1 5.711-5.711 5.718 5.718 0 0 1-5.711 5.711z" class="cls-2" data-name="Trazado 1677" transform="translate(-4.875)"/>
            <path id="Trazado_1678" d="M26.124 45.522v6.011a.732.732 0 0 1-1.464 0v-6.011a.732.732 0 0 1 1.464 0z" class="cls-2" data-name="Trazado 1678" transform="translate(-5.534 -9.587)"/>
            <path id="Trazado_1679" d="M38.814 45.522v6.011a.732.732 0 0 1-1.464 0v-6.011a.732.732 0 0 1 1.464 0z" class="cls-2" data-name="Trazado 1679" transform="translate(-8.933 -9.587)"/>
        </g>
    </g>
</svg>
