<svg xmlns="http://www.w3.org/2000/svg" width="52" height="52" viewBox="0 0 52 52">
    <defs>
        <style>
            .cls-1{fill:none}.cls-2{fill:#d3333f}
        </style>
    </defs>
    <g id="icon-whole-variable" transform="translate(0 .107)">
        <g id="Whole-Variable" transform="translate(-1 -.803)">
            <path id="Trazado_1671" d="M46.007 14.391a2.578 2.578 0 0 0-.283-3.3L42.6 7.97a2.581 2.581 0 0 0-3.3-.283 22.875 22.875 0 0 0-24.907 0 2.581 2.581 0 0 0-3.3.283l-3.122 3.118a2.578 2.578 0 0 0-.283 3.3 22.855 22.855 0 0 0 0 24.9 2.578 2.578 0 0 0 .283 3.3l3.119 3.118a2.572 2.572 0 0 0 3.3.283 22.8 22.8 0 0 0 24.907 0 2.572 2.572 0 0 0 3.3-.283l3.119-3.118a2.578 2.578 0 0 0 .283-3.3 22.855 22.855 0 0 0 .008-24.897zM44.85 38.069l-3.75-3.751a2.53 2.53 0 0 0-.227-.185 15.763 15.763 0 0 0 0-14.585 2.53 2.53 0 0 0 .227-.185l3.753-3.751a21.222 21.222 0 0 1-.003 22.457zm-10.522-.633a2.568 2.568 0 0 0-.75 1.872 14.144 14.144 0 0 1-13.459 0 2.568 2.568 0 0 0-.75-1.872l-3.119-3.118a2.57 2.57 0 0 0-1.872-.75 14.131 14.131 0 0 1 0-13.455h.047a2.572 2.572 0 0 0 1.825-.754l3.119-3.118a2.568 2.568 0 0 0 .75-1.872 14.144 14.144 0 0 1 13.459 0 2.568 2.568 0 0 0 .75 1.872l3.119 3.118a2.572 2.572 0 0 0 1.825.754h.047a14.131 14.131 0 0 1 0 13.455 2.57 2.57 0 0 0-1.872.75zM40.78 8.848a.947.947 0 0 1 .67.277l3.119 3.118a.948.948 0 0 1 0 1.34l-4.627 4.625a.951.951 0 0 1-1.34 0l-3.119-3.118a.948.948 0 0 1 0-1.34l4.627-4.625a.947.947 0 0 1 .67-.277zm-2.7 0L34.328 12.6a2.536 2.536 0 0 0-.185.227 15.773 15.773 0 0 0-14.59 0 2.528 2.528 0 0 0-.185-.227l-3.753-3.756a21.243 21.243 0 0 1 22.465 0zm-28.954 3.4l3.119-3.118a.95.95 0 0 1 1.34 0l4.627 4.625a.948.948 0 0 1 0 1.34l-3.119 3.118a.951.951 0 0 1-1.34 0l-4.626-4.63a.948.948 0 0 1 0-1.34zm-.281 3.368l3.755 3.747a2.53 2.53 0 0 0 .227.185 15.763 15.763 0 0 0 0 14.585 2.531 2.531 0 0 0-.227.185l-3.754 3.751a21.222 21.222 0 0 1 0-22.458zm3.4 28.945l-3.118-3.123a.948.948 0 0 1 0-1.34l4.627-4.625a.95.95 0 0 1 1.34 0l3.119 3.118a.948.948 0 0 1 0 1.34l-4.627 4.625a.951.951 0 0 1-1.34 0zm3.369.281l3.753-3.751a2.528 2.528 0 0 0 .185-.227 15.731 15.731 0 0 0 14.59 0 2.536 2.536 0 0 0 .185.227l3.753 3.751a21.243 21.243 0 0 1-22.465-.005zm28.954-3.4l-3.118 3.114a.951.951 0 0 1-1.34 0l-4.627-4.625a.948.948 0 0 1 0-1.34l3.117-3.118a.95.95 0 0 1 1.34 0l4.629 4.627a.948.948 0 0 1 0 1.338z" class="cls-2" data-name="Trazado 1671"/>
        </g>
    </g>
</svg>
