<svg width="43" height="43" viewBox="0 0 43 43" fill="none" xmlns="http://www.w3.org/2000/svg">
<path d="M37.4911 16.7441C37.4911 16.7266 37.4911 16.7105 37.4842 16.6937C37.4719 16.6243 37.4467 16.5578 37.4102 16.4979L37.4047 16.4923L37.4006 16.4874L33.2815 10.0492C33.2305 9.96957 33.1609 9.90409 33.0789 9.85867C32.9969 9.81325 32.9051 9.78933 32.8118 9.78906H10.6909C10.5974 9.7891 10.5053 9.81291 10.4231 9.85834C10.3408 9.90376 10.271 9.96938 10.2198 10.0492L6.10011 16.4874L6.096 16.4923L6.09051 16.4979C6.05394 16.5578 6.02881 16.6243 6.01646 16.6937C6.01303 16.7105 6.01166 16.7273 6.0096 16.7441C6.00508 16.7672 6.00187 16.7905 6 16.814V18.059C6.00072 18.768 6.24466 19.4545 6.68951 19.9993C7.13437 20.5441 7.7521 20.913 8.43563 21.042V35.6074C8.43617 35.7594 8.49559 35.9049 8.60092 36.0124C8.70625 36.1198 8.84895 36.1804 8.99791 36.181H34.5021C34.651 36.1804 34.7938 36.1198 34.8991 36.0124C35.0044 35.9049 35.0638 35.7594 35.0644 35.6074V21.0413C35.7479 20.9123 36.3656 20.5434 36.8105 19.9986C37.2553 19.4538 37.4993 18.7673 37.5 18.0583V16.8133C37.4983 16.7901 37.4954 16.767 37.4911 16.7441ZM35.8975 16.2398H29.7378L29.6589 16.0391L29.2372 14.892L27.7863 10.9396H32.5067L35.8975 16.2398ZM15.4676 14.8948L16.9185 10.9424H21.187V16.2454H14.9725L15.0458 16.0447L15.4676 14.8948ZM26.5815 10.9361L28.0338 14.8948L28.4555 16.0419L28.5289 16.2426H22.313V10.9361H26.5815ZM14.7188 17.3869H21.1877V18.0583C21.1866 18.5588 20.9912 19.0385 20.6443 19.3924C20.2973 19.7463 19.827 19.9456 19.3363 19.9467H16.5702C16.0795 19.9456 15.6092 19.7463 15.2622 19.3924C14.9153 19.0385 14.7198 18.5588 14.7188 18.0583V17.3869ZM22.3123 17.3869H28.7812V18.0583C28.7802 18.5588 28.5847 19.0385 28.2378 19.3924C27.8908 19.7463 27.4205 19.9456 26.9298 19.9467H24.1637C23.673 19.9456 23.2027 19.7463 22.8557 19.3924C22.5088 19.0385 22.3134 18.5588 22.3123 18.0583V17.3869ZM10.9954 10.9361H15.7158L14.2635 14.8948L13.8417 16.0419L13.7629 16.2426H7.6025L10.9954 10.9361ZM7.12593 18.0583V17.3869H13.5949V18.0583C13.5938 18.5588 13.3984 19.0385 13.0514 19.3924C12.7045 19.7463 12.2342 19.9456 11.7435 19.9467H8.97597C8.79323 19.9465 8.61147 19.9194 8.43632 19.8663C8.0575 19.7467 7.72605 19.5068 7.49032 19.1816C7.25459 18.8563 7.12692 18.4628 7.12593 18.0583ZM12.8468 35.0339V23.6292H19.2197V35.0339H12.8468ZM20.345 35.0339V23.0549C20.3444 22.903 20.285 22.7575 20.1797 22.65C20.0744 22.5426 19.9317 22.482 19.7827 22.4814H12.2838C12.2099 22.4811 12.1367 22.4958 12.0683 22.5245C12 22.5532 11.9379 22.5955 11.8856 22.6488C11.8334 22.7021 11.7919 22.7654 11.7638 22.8351C11.7356 22.9049 11.7213 22.9796 11.7215 23.0549V35.0339H9.56156V21.0931H11.7442C12.2155 21.0936 12.6801 20.9797 13.0997 20.7608C13.5193 20.5419 13.8818 20.2243 14.1572 19.8341C14.4325 20.2243 14.795 20.5419 15.2146 20.7608C15.6342 20.9797 16.0989 21.0936 16.5702 21.0931H19.3377C19.809 21.0936 20.2736 20.9797 20.6932 20.7608C21.1128 20.5419 21.4753 20.2243 21.7507 19.8341C22.0261 20.2243 22.3885 20.5419 22.8081 20.7608C23.2277 20.9797 23.6924 21.0936 24.1637 21.0931H26.9312C27.4025 21.0936 27.8672 20.9797 28.2868 20.7608C28.7064 20.5419 29.0688 20.2243 29.3442 19.8341C29.6196 20.2243 29.9821 20.5419 30.4017 20.7608C30.8212 20.9797 31.2859 21.0936 31.7572 21.0931H33.9398V35.0339H20.345ZM36.3775 18.0583C36.3764 18.4626 36.2486 18.8561 36.0129 19.1812C35.7772 19.5063 35.4458 19.7461 35.0671 19.8656C34.892 19.9187 34.7102 19.9458 34.5275 19.946H31.7572C31.2665 19.9449 30.7962 19.7456 30.4493 19.3917C30.1023 19.0378 29.9069 18.5581 29.9058 18.0576V17.3862H36.3775V18.0583Z" fill="#C80010"/>
<path d="M31.8246 24.2618H21.8917C21.817 24.2609 21.7429 24.2778 21.6737 24.3116C21.6046 24.3453 21.5417 24.3952 21.4889 24.4583C21.4361 24.5215 21.3943 24.5966 21.366 24.6792C21.3378 24.7618 21.3236 24.8504 21.3244 24.9397V31.2459C21.3236 31.3352 21.3378 31.4238 21.366 31.5064C21.3943 31.589 21.4361 31.6641 21.4889 31.7273C21.5417 31.7904 21.6046 31.8403 21.6737 31.874C21.7429 31.9078 21.817 31.9247 21.8917 31.9238H31.8246C31.8991 31.9242 31.973 31.9069 32.042 31.8729C32.111 31.839 32.1736 31.789 32.2263 31.726C32.2791 31.663 32.3209 31.5881 32.3493 31.5057C32.3777 31.4233 32.3922 31.3351 32.3919 31.2459V24.9397C32.3922 24.8505 32.3777 24.7622 32.3493 24.6799C32.3209 24.5975 32.2791 24.5226 32.2263 24.4596C32.1736 24.3966 32.111 24.3466 32.042 24.3127C31.973 24.2787 31.8991 24.2614 31.8246 24.2618ZM31.2572 30.568H22.4598V25.6176H31.2565L31.2572 30.568Z" fill="#C80010"/>
</svg>
