<svg width="52" height="53" viewBox="0 0 52 53" fill="none" xmlns="http://www.w3.org/2000/svg">
<path d="M28.199 29.8894C28.1943 30.1279 28.0955 30.3552 27.9238 30.5222C27.7522 30.6893 27.5214 30.7828 27.281 30.7828H25.848C25.6066 30.7828 25.3752 30.6876 25.2045 30.5182C25.0339 30.3488 24.938 30.119 24.938 29.8794C24.938 29.6398 25.0339 29.4101 25.2045 29.2407C25.3752 29.0712 25.6066 28.9761 25.848 28.9761H27.281C27.5245 28.9761 27.758 29.0721 27.9301 29.243C28.1023 29.4139 28.199 29.6457 28.199 29.8874V29.8894Z" fill="#DC1419"/>
<path d="M51.18 29.753C51.0195 28.483 51.0195 27.1981 51.18 25.9281C51.2096 25.6982 51.163 25.4649 51.0471 25.2636C50.9313 25.0623 50.7526 24.9039 50.538 24.8123L45.721 22.5827C38.497 19.0735 26.133 20.508 25.652 20.508C22.4776 21.1063 19.3984 22.125 16.497 23.5367C14.7571 24.3074 12.9211 24.8436 11.038 25.131C8.14225 25.6303 5.29534 26.377 2.52901 27.3626H2.37101C2.05737 27.5252 1.78125 27.7509 1.56021 28.0252C1.33916 28.2995 1.17801 28.6164 1.08701 28.9559C0.473323 30.4824 0.416373 32.1739 0.926006 33.7377C1.00542 33.9131 1.04649 34.1033 1.04649 34.2956C1.04649 34.4879 1.00542 34.6781 0.926006 34.8535C0.834541 35.2962 0.916401 35.7568 1.15493 36.1417C1.39346 36.5266 1.77074 36.8068 2.21001 36.9253C3.36884 37.2286 4.54976 37.4417 5.74201 37.5626C6.37943 38.9617 7.5399 40.0599 8.97813 40.6251C10.4164 41.1903 12.0196 41.1782 13.449 40.5913C14.6089 40.0513 15.565 39.1579 16.178 38.0411H36.73C37.4779 39.285 38.6914 40.1846 40.1053 40.5432C41.5192 40.9018 43.0187 40.6904 44.276 39.955C45.1229 39.4329 45.8371 38.724 46.363 37.8832L47.163 37.5646C47.7753 37.4233 48.3683 37.2093 48.929 36.9273C49.8923 36.4816 50.6422 35.6802 51.019 34.6937L51.18 34.5339V34.2152C51.6615 32.7662 51.6615 31.202 51.18 29.753ZM30.79 21.9434C35.0257 21.7552 39.2623 22.2946 43.313 23.5377C39.3652 25.2506 35.0983 26.1192 30.79 26.087V21.9425V21.9434ZM3.17401 29.1147L5.58201 28.3206C5.40771 29.0926 4.94949 29.7722 4.29701 30.2265C3.79896 30.4704 3.2452 30.5802 2.69101 30.5452C2.70428 30.0311 2.87253 29.5329 3.17401 29.1147ZM11.197 39.1608C10.1538 39.1397 9.16176 38.7079 8.43918 37.9607C7.7166 37.2134 7.32266 36.2118 7.34401 35.1761C7.36536 34.1405 7.80025 33.1558 8.55302 32.4384C9.30579 31.7211 10.3148 31.3301 11.358 31.3513C12.4005 31.3747 13.3912 31.8071 14.1132 32.5539C14.8353 33.3007 15.23 34.301 15.211 35.336C15.1344 36.3525 14.6823 37.3052 13.9415 38.0111C13.2007 38.7171 12.2233 39.1265 11.197 39.1608ZM28.858 36.1321H16.982C17.1432 35.1499 17.0344 34.1426 16.6671 33.2167C16.2998 32.2907 15.6876 31.4802 14.895 30.8708C14.1704 30.2696 13.3085 29.8535 12.3847 29.659C11.4608 29.4645 10.5031 29.4975 9.59501 29.755H9.27501L8.793 29.9148C8.14853 30.1916 7.55244 30.5682 7.02701 31.0306L6.86601 31.1905L6.70501 31.3503C5.76485 32.4048 5.25025 33.767 5.26001 35.1752V35.4879C4.44876 35.4602 3.64222 35.3534 2.85201 35.1692C2.96264 34.7697 2.99124 34.3523 2.93609 33.9416C2.88095 33.531 2.74319 33.1355 2.53101 32.7788C2.51396 32.6579 2.45739 32.546 2.37001 32.4601H2.69701C3.42157 32.4719 4.13804 32.3077 4.78401 31.9816C5.46243 31.5411 6.03152 30.9537 6.44857 30.2636C6.86562 29.5734 7.11979 28.7985 7.19201 27.9969C8.40521 27.6564 9.63859 27.3911 10.885 27.2028C11.527 27.0429 12.33 27.0429 12.972 26.8841C17.9988 27.8426 23.1063 28.3229 28.225 28.3186H28.546L28.858 36.1321ZM28.858 26.2498C24.8782 26.2483 20.9051 25.9286 16.977 25.2938H17.138C19.8474 23.866 22.7775 22.8964 25.808 22.4249C26.8212 22.315 27.8398 22.2617 28.859 22.2651L28.858 26.2498ZM41.707 38.8372C40.9764 38.8378 40.2621 38.6233 39.6544 38.2208C39.0466 37.8182 38.5728 37.2458 38.2929 36.576C38.0129 35.9061 37.9394 35.1688 38.0817 34.4574C38.2239 33.7461 38.5755 33.0926 39.092 32.5796C39.6084 32.0666 40.2665 31.7173 40.983 31.5757C41.6996 31.4341 42.4423 31.5067 43.1173 31.7842C43.7922 32.0617 44.3691 32.5318 44.7749 33.1348C45.1807 33.7379 45.3972 34.4469 45.397 35.1722C45.4051 35.6558 45.3151 36.1362 45.1324 36.5846C44.9497 37.033 44.678 37.4404 44.3334 37.7824C43.9889 38.1244 43.5785 38.3942 43.1268 38.5756C42.6751 38.757 42.1912 38.8463 41.704 38.8382L41.707 38.8372ZM49.574 33.7367V33.8995C49.5321 34.1976 49.4034 34.477 49.2037 34.7034C49.004 34.9299 48.7421 35.0935 48.45 35.1742C48.0324 35.3599 47.6036 35.5197 47.166 35.6526V35.1742C47.1923 34.0865 46.8535 33.021 46.203 32.1454C46.0295 31.8508 45.8131 31.5833 45.561 31.3513H45.397L45.236 31.1914C44.3041 30.3968 43.1241 29.9464 41.8959 29.9165C40.6678 29.8867 39.467 30.2792 38.497 31.0276L38.336 31.1875C37.5476 31.7634 36.9352 32.5448 36.5669 33.4451C36.1985 34.3454 36.0885 35.3294 36.249 36.288H30.949V28.1587C36.249 27.9989 41.706 27.0429 45.559 24.6525L49.573 26.4056C49.3858 27.7327 49.4403 29.0824 49.734 30.3903C49.7571 31.5084 49.7037 32.6268 49.574 33.7377V33.7367Z" fill="#DC1419"/>
</svg>
