<svg xmlns="http://www.w3.org/2000/svg" id="icon-long-term-care" width="52" height="52" viewBox="0 0 52 52">
    <defs>
        <style>
            .cls-1{fill:none}.cls-2{fill:#d3333f}
        </style>
    </defs>
    <g id="Grupo_901" data-name="Grupo 901" transform="translate(2.838 3.874)">
        <path id="Trazado_1701" d="M29.988 18.4l-7.1 3.2a3.113 3.113 0 0 0-1.557-.951L11.1 17.685a29.047 29.047 0 0 0-10.231-.213 1.015 1.015 0 1 0 .314 2.006 27.19 27.19 0 0 1 9.431.179L20.8 22.611a1.138 1.138 0 0 1 .731.574.9.9 0 0 0 .052.133l.026.052a1.27 1.27 0 0 1-1.563 1.62L9.386 21.9a1.015 1.015 0 1 0-.565 1.951l10.66 3.092.024.006a3.3 3.3 0 0 0 4.072-2.249 3.326 3.326 0 0 0 .129-1.069c0-.055-.007-.111-.011-.168l7.187-3.24a1.262 1.262 0 0 1 1.661.611 1.25 1.25 0 0 1-.6 1.655c-2.1.948-3.811 1.731-5.218 2.375-6.487 2.976-6.487 2.976-10.194 2.976a28.622 28.622 0 0 1-11.846-2.713 6.919 6.919 0 0 0-3.966.061 1.016 1.016 0 1 0 .613 1.938 4.862 4.862 0 0 1 2.647-.1 30.278 30.278 0 0 0 12.544 2.846c4.162 0 4.42-.118 11.053-3.16 1.4-.645 3.107-1.426 5.214-2.375a3.28 3.28 0 0 0 1.6-4.357 3.3 3.3 0 0 0-4.402-1.58z" class="cls-2" data-name="Trazado 1701" transform="translate(0 14.395)"/>
        <path id="Trazado_1702" d="M38.535 10.518a26.983 26.983 0 0 1-9.433-.177L18.913 7.387a1.141 1.141 0 0 1-.731-.574 1.182 1.182 0 0 0-.05-.135l-.028-.05a1.272 1.272 0 0 1-.033-.685 1.181 1.181 0 0 1 .061-.194 1.222 1.222 0 0 1 .1-.19 1.279 1.279 0 0 1 .938-.595 1.312 1.312 0 0 1 .5.042L30.33 8.1a1.017 1.017 0 0 0 1.258-.693 1.027 1.027 0 0 0 .041-.284 1.015 1.015 0 0 0-.733-.975L20.233 3.056a3.228 3.228 0 0 0-1.478-.085 3.338 3.338 0 0 0-.73.212 3.308 3.308 0 0 0-2 3.351L8.827 9.777a1.254 1.254 0 0 1-.957.037 1.25 1.25 0 0 1-.1-2.3C9.876 6.561 11.585 5.778 13 5.13c6.48-2.974 6.48-2.974 10.187-2.974a28.713 28.713 0 0 1 11.847 2.715A6.86 6.86 0 0 0 39 4.812a1.016 1.016 0 0 0-.61-1.938 4.924 4.924 0 0 1-2.649.1A30.24 30.24 0 0 0 23.192.126c-4.16 0-4.418.118-11.044 3.157a775.421 775.421 0 0 1-5.22 2.379 3.285 3.285 0 0 0-1.6 4.357 3.252 3.252 0 0 0 1.845 1.7 3.286 3.286 0 0 0 2.556-.119l7.1-3.2a3.1 3.1 0 0 0 1.557.949l10.233 2.965a29.181 29.181 0 0 0 5.711.565 29.261 29.261 0 0 0 4.518-.353 1.016 1.016 0 0 0-.314-2.008z" class="cls-2" data-name="Trazado 1702" transform="translate(4.247)"/>
        <path id="Trazado_1703" d="M14.3 23.805a1.584 1.584 0 0 0 1 .349 1.536 1.536 0 0 0 .973-.34 53.878 53.878 0 0 0 6.788-6.288 5.7 5.7 0 0 0-.011-7.978l-.05-.04a5.513 5.513 0 0 0-7.712.266 5.521 5.521 0 0 0-6.527-1.093 5.665 5.665 0 0 0-1.226.868A5.691 5.691 0 0 0 7.5 17.5a54.086 54.086 0 0 0 6.8 6.305zM8.95 11.006a3.55 3.55 0 0 1 .748-.523 3.484 3.484 0 0 1 4.69 1.491 1.014 1.014 0 0 0 .9.549 1.017 1.017 0 0 0 .9-.547 3.478 3.478 0 0 1 5.418-.988 3.687 3.687 0 0 1-.035 5.15A52.1 52.1 0 0 1 15.289 22a52.4 52.4 0 0 1-6.306-5.889 3.67 3.67 0 0 1-.033-5.105z" class="cls-2" data-name="Trazado 1703" transform="translate(4.989 6.724)"/>
    </g>
</svg>
