<svg width="30" height="31" viewBox="0 0 30 31" fill="none" xmlns="http://www.w3.org/2000/svg">
<path fill-rule="evenodd" clip-rule="evenodd" d="M6.97504 7.31672C7.23871 7.05337 7.59614 6.90545 7.96879 6.90545C8.34145 6.90545 8.69886 7.05337 8.96254 7.31672L15 13.3542L21.0375 7.31672C21.1664 7.17855 21.3216 7.06774 21.4941 6.99088C21.6666 6.91402 21.8528 6.8727 22.0416 6.86936C22.2304 6.86602 22.4179 6.90077 22.593 6.97149C22.7682 7.04222 22.9272 7.14748 23.0607 7.28102C23.1944 7.41455 23.2995 7.57363 23.3702 7.74872C23.4409 7.92382 23.4758 8.11138 23.4724 8.30019C23.469 8.48902 23.4278 8.67523 23.3509 8.84773C23.274 9.02023 23.1632 9.17548 23.025 9.30422L16.9875 15.3417L23.025 21.3792C23.1632 21.508 23.274 21.6633 23.3509 21.8358C23.4278 22.0083 23.469 22.1945 23.4724 22.3833C23.4758 22.5721 23.4409 22.7596 23.3702 22.9347C23.2995 23.1098 23.1944 23.2688 23.0607 23.4023C22.9272 23.536 22.7682 23.6412 22.593 23.7119C22.4179 23.7826 22.2304 23.8175 22.0416 23.8141C21.8528 23.8107 21.6666 23.7695 21.4941 23.6926C21.3216 23.6157 21.1664 23.5049 21.0375 23.3667L15 17.3292L8.96254 23.3667C8.69596 23.6152 8.34336 23.7503 7.97905 23.744C7.61474 23.7374 7.26715 23.5898 7.00949 23.3322C6.75184 23.0746 6.60426 22.727 6.59783 22.3627C6.5914 21.9983 6.72664 21.6458 6.97504 21.3792L13.0125 15.3417L6.97504 9.30422C6.7117 9.04055 6.56378 8.68312 6.56378 8.31047C6.56378 7.93781 6.7117 7.5804 6.97504 7.31672Z" fill="#C80010"/>
</svg>
