<svg width="52" height="53" viewBox="0 0 52 53" fill="none" xmlns="http://www.w3.org/2000/svg">
<path d="M47.742 18.5677L41.247 16.2169V7.8584H33.957V13.495L22.591 9.35638C22.4781 9.31617 22.3582 9.29843 22.2384 9.30417C22.1186 9.30992 22.001 9.33905 21.8925 9.38988C21.784 9.44072 21.6867 9.51228 21.606 9.60046C21.5254 9.68865 21.463 9.79175 21.4225 9.90386C21.382 10.016 21.3641 10.1349 21.3699 10.2539C21.3757 10.3728 21.405 10.4895 21.4562 10.5972C21.5074 10.7049 21.5795 10.8016 21.6684 10.8816C21.7572 10.9617 21.8611 11.0236 21.974 11.0638L23.338 11.5602V18.1954L4.89199 24.8008C4.76917 24.8215 4.65175 24.8663 4.54664 24.9327C4.44154 24.9991 4.35088 25.0857 4.28 25.1874C4.20912 25.2891 4.15945 25.4039 4.13391 25.5249C4.10837 25.6459 4.10749 25.7708 4.1313 25.8922C4.15512 26.0136 4.20315 26.129 4.27258 26.2317C4.34201 26.3344 4.43143 26.4222 4.53558 26.4901C4.63973 26.558 4.7565 26.6045 4.87902 26.6268C5.00154 26.6492 5.12733 26.647 5.24899 26.6204C5.35126 26.6376 5.45572 26.6376 5.55799 26.6204L6.97099 26.1052V43.5629H5.24999V45.3666H47.839V43.5629H46.459V19.9535L47.108 20.1788C47.3031 20.1951 47.4983 20.1484 47.6644 20.0456C47.8306 19.9427 47.9588 19.7894 48.03 19.6083C48.1012 19.4272 48.1115 19.2282 48.0594 19.0408C48.0073 18.8535 47.8956 18.6878 47.741 18.5686L47.742 18.5677ZM35.742 9.67802H39.395V15.4754L35.742 14.1551V9.67802ZM13.157 43.4983V33.8354H18.402V43.4983H13.157ZM20.22 43.4983V33.8354C20.22 33.3567 20.0285 32.8977 19.6875 32.5593C19.3466 32.2208 18.8842 32.0307 18.402 32.0307H13.19C12.9415 32.0325 12.696 32.0848 12.4688 32.1845C12.2415 32.2842 12.0372 32.4291 11.8685 32.6102C11.6998 32.7913 11.5703 33.0049 11.488 33.2376C11.4057 33.4704 11.3724 33.7174 11.39 33.9634V43.6264H8.78999V25.3607L23.257 20.1748V43.5629L20.22 43.4983ZM33.892 37.2979V43.4983H29.021V37.3625L33.892 37.2979ZM35.743 43.5629V37.3625H40.614V43.5629H35.743ZM44.608 43.5629H42.513V37.3625C42.5131 37.1185 42.4634 36.8771 42.3669 36.6528C42.2704 36.4285 42.1291 36.2259 41.9515 36.0573C41.7739 35.8887 41.5637 35.7576 41.3337 35.6719C41.1036 35.5862 40.8585 35.5477 40.613 35.5587H29.021C28.7822 35.5586 28.5458 35.6051 28.3252 35.6957C28.1046 35.7863 27.9041 35.9191 27.7352 36.0866C27.5663 36.2541 27.4322 36.453 27.3408 36.6719C27.2493 36.8908 27.2021 37.1255 27.202 37.3625V43.5629H25.075V12.2223L44.559 19.3082L44.608 43.5629Z" fill="#DC1419"/>
<path d="M29.85 29.8665H39.85C40.3348 29.8665 40.7998 29.6754 41.1426 29.335C41.4854 28.9947 41.678 28.5332 41.678 28.0519V23.1877C41.6772 22.7069 41.4843 22.2461 41.1415 21.9064C40.7988 21.5668 40.3343 21.376 39.85 21.376H29.85C29.3652 21.376 28.9002 21.5672 28.5574 21.9075C28.2146 22.2478 28.022 22.7094 28.022 23.1906V28.0549C28.0228 28.5356 28.2157 28.9964 28.5585 29.3361C28.9012 29.6758 29.3657 29.8665 29.85 29.8665ZM29.85 28.0519V26.6254H39.85V28.1144L29.85 28.0519ZM39.855 23.1877V24.6767H29.85V23.1877H39.855Z" fill="#DC1419"/>
<path d="M0.766998 43.5518H3.705V45.3664H0.766998V43.5518Z" fill="#DC1419"/>
<path d="M49.47 43.5518H51.233V45.3664H49.47V43.5518Z" fill="#DC1419"/>
</svg>
