<svg width="262" height="44" viewBox="0 0 262 44" fill="none" xmlns="http://www.w3.org/2000/svg">
<path d="M87.6295 33.9833C87.8641 34.1582 88.2822 34.4141 88.8837 34.7511C89.4852 35.0882 90.2659 35.4081 91.2343 35.7195C92.2027 36.0267 93.3503 36.2955 94.6813 36.5344C96.0123 36.769 97.5438 36.8842 99.2715 36.8842C102.582 36.8842 105.171 36.1973 107.049 34.8194C108.921 33.4415 109.86 31.526 109.86 29.0645C109.86 27.8913 109.647 26.8974 109.224 26.0783C108.798 25.2592 108.23 24.5852 107.509 24.0562C106.793 23.5272 105.974 23.1262 105.048 22.8489C104.126 22.5716 103.166 22.3583 102.168 22.2132L98.1709 21.6416C97.2324 21.4965 96.5285 21.3216 96.0635 21.1126C95.5942 20.9078 95.3596 20.558 95.3596 20.0589C95.3596 19.5598 95.6155 19.1587 96.1275 18.8516C96.6394 18.5444 97.5566 18.3909 98.8748 18.3909C100.048 18.3909 101.093 18.4804 102.015 18.6554C102.936 18.8303 103.73 19.0308 104.387 19.2483C105.044 19.4659 105.572 19.6963 105.969 19.9309C106.366 20.1655 106.605 20.3276 106.694 20.413C106.754 20.3831 106.891 20.2978 107.113 20.1485C107.33 20.0034 107.565 19.7987 107.816 19.5342C108.064 19.2697 108.286 18.9582 108.473 18.5914C108.665 18.2245 108.759 17.8064 108.759 17.3371C108.759 16.7228 108.589 16.2024 108.256 15.7758C107.919 15.3534 107.471 14.9908 106.916 14.7007C105.948 14.2016 104.8 13.839 103.469 13.6044C102.134 13.3697 100.547 13.2545 98.7042 13.2545C96.8612 13.2545 95.3212 13.4508 94.003 13.8475C92.6848 14.2443 91.6012 14.7861 90.7522 15.4729C89.9033 16.1597 89.2805 16.966 88.8837 17.8875C88.487 18.8089 88.2907 19.8157 88.2907 20.895C88.2907 22.1834 88.5254 23.2542 88.9946 24.1031C89.4639 24.952 90.0995 25.6474 90.9058 26.1892C91.7121 26.731 92.6421 27.1405 93.6958 27.4178C94.7495 27.6951 95.8502 27.9084 96.9892 28.0535L99.2758 28.3179C100.359 28.463 101.157 28.6464 101.669 28.8683C102.181 29.0901 102.437 29.4911 102.437 30.0756C102.437 30.66 102.13 31.0184 101.515 31.2402C100.901 31.4578 99.9925 31.5687 98.7895 31.5687C97.7358 31.5687 96.7332 31.4876 95.7819 31.3255C94.8306 31.1634 93.9816 30.9757 93.2351 30.7539C92.4885 30.5363 91.8444 30.3017 91.3026 30.05C90.7608 29.8025 90.3726 29.5892 90.1379 29.4143L87.6338 33.9833H87.6295ZM63.0272 36.2699H70.1003V24.3207C70.1003 21.2747 71.4783 19.7517 74.2299 19.7517C75.5481 19.7517 76.5591 20.1271 77.263 20.8737C77.9669 21.6203 78.3167 22.7721 78.3167 24.3207V36.2699H85.3898V22.6953C85.3898 21.1723 85.0955 19.8157 84.511 18.6298C83.9266 17.4438 83.1288 16.4541 82.1178 15.6649C81.1067 14.8756 79.9208 14.2741 78.5599 13.8646C77.199 13.455 75.7528 13.2503 74.2341 13.2503C72.7154 13.2503 71.2308 13.455 69.8827 13.8646C68.5347 14.2741 67.3487 14.8756 66.3249 15.6649C65.301 16.4541 64.4947 17.4438 63.9103 18.6298C63.3258 19.8157 63.0315 21.1723 63.0315 22.6953V36.2699H63.0272ZM58.9147 36.2699V6.82987C58.7398 6.77015 58.3218 6.6379 57.6605 6.43313C57.0036 6.22836 56.2485 6.12598 55.3995 6.12598C54.2562 6.12598 53.3348 6.36914 52.6309 6.8512C51.927 7.33327 51.5771 8.17794 51.5771 9.3767V36.2656H58.9147V36.2699Z" fill="#DC1419"/>
<path d="M119.411 14.5215C119.237 14.4617 118.827 14.338 118.183 14.146C117.539 13.9541 116.822 13.8602 116.029 13.8602C114.915 13.8602 114.023 14.0949 113.349 14.5641C112.675 15.0334 112.338 15.8397 112.338 16.9787V27.1276C112.338 28.7701 112.624 30.1949 113.196 31.4107C113.768 32.6266 114.548 33.6376 115.546 34.4439C116.54 35.2502 117.726 35.856 119.104 36.2655C120.482 36.675 121.958 36.8798 123.541 36.8798C125.124 36.8798 126.6 36.675 127.978 36.2655C129.356 35.856 130.542 35.2502 131.536 34.4439C132.53 33.6376 133.315 32.6266 133.886 31.4107C134.458 30.1949 134.744 28.7658 134.744 27.1276V14.5172C134.569 14.4575 134.159 14.3338 133.515 14.1418C132.871 13.9498 132.154 13.856 131.361 13.856C130.247 13.856 129.356 14.0906 128.682 14.5599C128.008 15.0291 127.671 15.8354 127.671 16.9744V25.8052C127.671 28.8511 126.293 30.3741 123.541 30.3741C120.789 30.3741 119.411 28.8511 119.411 25.8052V14.5129V14.5215Z" fill="#DC1419"/>
<path d="M137.337 36.2699H144.411V23.7491C144.411 22.256 144.799 21.1852 145.575 20.541C146.352 19.8969 147.294 19.5726 148.408 19.5726C149.257 19.5726 150.033 19.675 150.737 19.8798C151.441 20.0846 152.038 20.3064 152.537 20.5368C152.627 20.4472 152.755 20.3021 152.934 20.0974C153.109 19.8926 153.292 19.6452 153.484 19.3508C153.676 19.0564 153.834 18.7194 153.966 18.3398C154.099 17.9601 154.163 17.5505 154.163 17.1111C154.163 16.6717 154.09 16.2921 153.945 15.9678C153.8 15.6479 153.595 15.3365 153.331 15.0464C152.891 14.607 152.179 14.1974 151.202 13.8177C150.221 13.4381 148.851 13.2461 147.094 13.2461C145.66 13.2461 144.342 13.4423 143.139 13.8391C141.936 14.2358 140.912 14.8117 140.063 15.5754C139.214 16.339 138.549 17.2732 138.063 18.3867C137.581 19.5001 137.337 20.7757 137.337 22.2091V36.2699Z" fill="#DC1419"/>
<path d="M161.679 21.7058C161.884 21.1341 162.183 20.6307 162.58 20.1913C162.976 19.7519 163.467 19.3936 164.051 19.1163C164.636 18.839 165.327 18.6982 166.116 18.6982C167.23 18.6982 168.066 18.9243 168.62 19.3808C169.175 19.8373 169.456 20.3705 169.456 20.9848C169.456 21.2792 169.397 21.5693 169.282 21.8636C169.162 22.158 168.842 22.4225 168.313 22.6529C167.784 22.8875 166.978 23.0795 165.899 23.2245C164.815 23.3695 163.292 23.4421 161.33 23.4421C161.359 22.8576 161.475 22.2774 161.679 21.7058ZM163.215 28.011C165.822 28.011 167.968 27.8489 169.653 27.5289C171.338 27.209 172.669 26.744 173.65 26.1467C174.631 25.5452 175.314 24.8157 175.693 23.9497C176.073 23.088 176.265 22.1111 176.265 21.0275C176.265 20.0335 176.039 19.0651 175.582 18.1266C175.126 17.188 174.469 16.3562 173.607 15.6224C172.741 14.8886 171.679 14.3127 170.421 13.8861C169.162 13.4638 167.741 13.2505 166.159 13.2505C164.461 13.2505 162.878 13.5363 161.415 14.108C159.952 14.6796 158.676 15.4774 157.593 16.5012C156.509 17.5251 155.66 18.7708 155.046 20.234C154.431 21.6973 154.124 23.3098 154.124 25.0674C154.124 26.9402 154.431 28.6125 155.046 30.0758C155.66 31.539 156.5 32.7762 157.571 33.7872C158.642 34.7983 159.892 35.5662 161.33 36.0952C162.763 36.6242 164.303 36.8844 165.941 36.8844C167.259 36.8844 168.467 36.7905 169.567 36.5986C170.664 36.4066 171.624 36.1805 172.447 35.916C173.266 35.6515 173.949 35.387 174.49 35.1268C175.032 34.8623 175.42 34.6575 175.655 34.5125L173.193 29.5937C173.134 29.6534 172.946 29.7558 172.622 29.9009C172.298 30.0459 171.888 30.1952 171.393 30.3403C170.894 30.4853 170.31 30.6261 169.636 30.7583C168.962 30.8906 168.245 30.9546 167.481 30.9546C166.487 30.9546 165.634 30.865 164.934 30.6901C164.231 30.5152 163.655 30.2805 163.198 29.9862C162.742 29.6918 162.392 29.3804 162.144 29.0434C161.897 28.7064 161.743 28.3608 161.684 28.011H163.219H163.215Z" fill="#DC1419"/>
<path d="M246.497 21.7055C246.702 21.1339 247 20.6305 247.397 20.1911C247.794 19.7517 248.285 19.3933 248.869 19.116C249.453 18.8387 250.145 18.6979 250.934 18.6979C252.047 18.6979 252.883 18.924 253.438 19.3805C253.992 19.837 254.274 20.3702 254.274 20.9845C254.274 21.2789 254.214 21.569 254.099 21.8633C253.98 22.1577 253.66 22.4222 253.131 22.6526C252.602 22.8872 251.795 23.0792 250.716 23.2242C249.633 23.3693 248.11 23.4418 246.147 23.4418C246.177 22.8573 246.292 22.2772 246.497 21.7055ZM248.033 28.0107C250.639 28.0107 252.785 27.8486 254.47 27.5287C256.155 27.2087 257.486 26.7437 258.468 26.1465C259.449 25.5449 260.131 24.8154 260.511 23.9494C260.891 23.0877 261.083 22.1108 261.083 21.0272C261.083 20.0332 260.857 19.0648 260.4 18.1263C259.944 17.1878 259.287 16.3559 258.425 15.6221C257.559 14.8884 256.497 14.3124 255.238 13.8858C253.98 13.4635 252.559 13.2502 250.976 13.2502C249.279 13.2502 247.696 13.536 246.233 14.1077C244.769 14.6793 243.494 15.4771 242.41 16.5009C241.327 17.5248 240.478 18.7705 239.863 20.2337C239.249 21.697 238.942 23.3095 238.942 25.0671C238.942 26.9399 239.249 28.6122 239.863 30.0755C240.478 31.5387 241.318 32.7759 242.389 33.7869C243.46 34.798 244.71 35.5659 246.147 36.0949C247.581 36.6239 249.121 36.8841 250.759 36.8841C252.077 36.8841 253.284 36.7902 254.385 36.5983C255.481 36.4063 256.441 36.1802 257.265 35.9157C258.084 35.6512 258.766 35.3867 259.308 35.1265C259.85 34.862 260.238 34.6572 260.473 34.5122L258.011 29.5934C257.951 29.6531 257.764 29.7555 257.439 29.9006C257.115 30.0456 256.706 30.1949 256.211 30.34C255.712 30.485 255.127 30.6258 254.453 30.7581C253.779 30.8903 253.062 30.9543 252.299 30.9543C251.305 30.9543 250.452 30.8647 249.752 30.6898C249.048 30.5149 248.472 30.2803 248.016 29.9859C247.559 29.6915 247.209 29.3801 246.962 29.0431C246.715 28.7061 246.561 28.3605 246.501 28.0107H248.037H248.033ZM213.981 36.2698H221.054V24.3206C221.054 21.2746 222.432 19.7517 225.184 19.7517C226.502 19.7517 227.513 20.1271 228.217 20.8736C228.921 21.6202 229.271 22.772 229.271 24.3206V36.2698H236.344V22.6952C236.344 21.1722 236.049 19.8156 235.465 18.6297C234.881 17.4437 234.083 16.454 233.072 15.6648C232.061 14.8756 230.875 14.274 229.514 13.8645C228.153 13.455 226.707 13.2502 225.188 13.2502C223.669 13.2502 222.185 13.455 220.837 13.8645C219.489 14.274 218.303 14.8756 217.279 15.6648C216.255 16.454 215.449 17.4437 214.864 18.6297C214.28 19.8156 213.986 21.1722 213.986 22.6952V36.2698H213.981ZM191.683 29.5252C190.629 29.073 189.72 28.4331 188.957 27.614C188.193 26.7949 187.6 25.8436 187.178 24.76C186.751 23.6764 186.542 22.4905 186.542 21.2021C186.542 19.9138 186.755 18.7193 187.178 17.6229C187.6 16.5265 188.193 15.5752 188.957 14.7689C189.716 13.9626 190.625 13.3355 191.683 12.8791C192.736 12.4269 193.892 12.1965 195.155 12.1965C196.418 12.1965 197.57 12.4226 198.628 12.8791C199.681 13.3355 200.59 13.9626 201.354 14.7689C202.113 15.5752 202.706 16.5265 203.133 17.6229C203.555 18.7193 203.768 19.9138 203.768 21.2021C203.768 22.4905 203.555 23.6764 203.133 24.76C202.706 25.8436 202.113 26.7949 201.354 27.614C200.59 28.4331 199.686 29.073 198.628 29.5252C197.574 29.9816 196.418 30.2077 195.155 30.2077C193.892 30.2077 192.741 29.9816 191.683 29.5252ZM180.105 27.4391C180.941 29.3716 182.088 31.0481 183.552 32.4687C185.015 33.8893 186.743 35.0113 188.735 35.8304C190.727 36.6495 192.864 37.059 195.151 37.059C197.438 37.059 199.575 36.6495 201.567 35.8304C203.559 35.0113 205.287 33.8893 206.75 32.4687C208.214 31.0481 209.365 29.3716 210.197 27.4391C211.033 25.5065 211.451 23.4247 211.451 21.2021C211.451 18.9795 211.033 16.8977 210.197 14.9651C209.361 13.0326 208.214 11.3561 206.75 9.93548C205.287 8.51489 203.559 7.39292 201.567 6.57384C199.575 5.75476 197.438 5.34521 195.151 5.34521C192.864 5.34521 190.727 5.75476 188.735 6.57384C186.743 7.39292 185.015 8.51489 183.552 9.93548C182.088 11.3561 180.936 13.0326 180.105 14.9651C179.268 16.8977 178.85 18.9795 178.85 21.2021C178.85 23.4247 179.268 25.5065 180.105 27.4391Z" fill="black"/>
<path d="M40.8224 6.99632C40.8224 6.99632 31.3134 0 20.4136 0C9.51387 0 0.000586642 6.99632 0.000586642 6.99632C0.000586642 27.8701 -0.408956 37.409 20.4136 44C41.2319 37.409 40.8224 27.8701 40.8224 7.00058V6.99632Z" fill="black"/>
<path d="M20.4095 37.0592C29.1694 37.0592 36.2707 29.958 36.2707 21.1981C36.2707 12.4382 29.1694 5.33691 20.4095 5.33691C11.6496 5.33691 4.54834 12.4382 4.54834 21.1981C4.54834 29.958 11.6496 37.0592 20.4095 37.0592Z" fill="white"/>
<path d="M28.7729 29.5635C33.391 24.9454 33.391 17.4579 28.7729 12.8398C24.1547 8.22165 16.6673 8.22165 12.0491 12.8398C7.431 17.4579 7.431 24.9454 12.0491 29.5635C16.6673 34.1817 24.1548 34.1817 28.7729 29.5635Z" fill="#DC1419"/>
<path d="M24.2785 29.922H16.5442V26.4409H18.2847V15.7204H16.5442V13.2204L22.538 12.4824V26.4409H24.2785V29.922Z" fill="white"/>
<path d="M258.165 6.17725C258.664 6.17725 259.146 6.30096 259.606 6.55266C260.067 6.80435 260.426 7.1627 260.69 7.6277C260.955 8.09697 261.083 8.5833 261.083 9.09522C261.083 9.60715 260.955 10.0892 260.694 10.5499C260.438 11.0107 260.076 11.369 259.615 11.6293C259.154 11.8852 258.668 12.0175 258.16 12.0175C257.653 12.0175 257.166 11.8895 256.706 11.6293C256.245 11.3733 255.886 11.0107 255.626 10.5499C255.37 10.0892 255.238 9.60288 255.238 9.09522C255.238 8.58756 255.37 8.09697 255.631 7.6277C255.895 7.15844 256.253 6.80009 256.714 6.55266C257.175 6.30096 257.653 6.17725 258.156 6.17725H258.165ZM258.165 6.7489C257.764 6.7489 257.38 6.85128 257.008 7.05179C256.637 7.25229 256.351 7.54238 256.138 7.91779C255.925 8.2932 255.818 8.68568 255.818 9.09949C255.818 9.51329 255.921 9.89724 256.13 10.2684C256.339 10.6395 256.625 10.9296 256.996 11.1387C257.367 11.3477 257.755 11.4501 258.16 11.4501C258.566 11.4501 258.958 11.3477 259.329 11.1387C259.7 10.9296 259.986 10.6395 260.195 10.2684C260.404 9.89724 260.507 9.50903 260.507 9.09949C260.507 8.68995 260.4 8.2932 260.187 7.91779C259.973 7.54238 259.683 7.25229 259.316 7.05179C258.945 6.85128 258.561 6.7489 258.16 6.7489H258.165Z" fill="black"/>
<path d="M258.075 9.40669H257.704V10.5244H257.068V7.67041H258.028C258.728 7.67041 259.125 7.95624 259.125 8.50656C259.125 8.88623 258.958 9.1422 258.668 9.28724L259.265 10.358V10.5244H258.681L258.075 9.40669ZM257.704 8.97155H258.011C258.344 8.97155 258.485 8.82651 258.485 8.54495C258.485 8.26339 258.348 8.12688 258.011 8.12688H257.704V8.97582V8.97155Z" fill="black"/>
</svg>
