<?xml version="1.0" encoding="utf-8"?>
<!-- Generator: Adobe Illustrator 24.0.1, SVG Export Plug-In . SVG Version: 6.00 Build 0)  -->
<svg version="1.1" id="Capa_1" xmlns="http://www.w3.org/2000/svg" xmlns:xlink="http://www.w3.org/1999/xlink" x="0px" y="0px"
	 viewBox="0 0 140 34.9" style="enable-background:new 0 0 140 34.9;" xml:space="preserve">
<style type="text/css">
	.st0{clip-path:url(#SVGID_2_);}
	.st1{fill:#DC1419;}
	.st2{fill:#FFFFFF;}
</style>
<path d="M137.9,2.6c0.3,0,0.6,0.1,0.8,0.2c0.3,0.1,0.5,0.3,0.6,0.6c0.1,0.3,0.2,0.5,0.2,0.8c0,0.3-0.1,0.6-0.2,0.8
	c-0.1,0.3-0.3,0.5-0.6,0.6c-0.2,0.1-0.5,0.2-0.8,0.2s-0.6-0.1-0.8-0.2c-0.3-0.1-0.5-0.3-0.6-0.6c-0.1-0.2-0.2-0.5-0.2-0.8
	c0-0.3,0.1-0.6,0.2-0.8c0.1-0.3,0.4-0.5,0.6-0.6C137.3,2.7,137.6,2.6,137.9,2.6z M137.9,2.9c-0.2,0-0.4,0.1-0.6,0.2
	c-0.2,0.1-0.4,0.3-0.5,0.5c-0.1,0.2-0.2,0.4-0.2,0.7c0,0.2,0.1,0.5,0.2,0.7c0.1,0.2,0.3,0.4,0.5,0.5c0.2,0.1,0.4,0.2,0.7,0.2
	s0.5-0.1,0.7-0.2c0.2-0.1,0.4-0.3,0.5-0.5c0.1-0.2,0.2-0.4,0.2-0.7c0-0.2-0.1-0.5-0.2-0.7c-0.1-0.2-0.3-0.4-0.5-0.5
	C138.4,3,138.1,2.9,137.9,2.9L137.9,2.9z"/>
<path d="M137.9,4.4h-0.2v0.6h-0.4V3.5h0.5c0.4,0,0.6,0.2,0.6,0.5c0,0.1,0,0.2-0.1,0.3c0,0.1-0.1,0.1-0.2,0.2l0.3,0.6v0.1h-0.3
	L137.9,4.4z M137.7,4.2h0.2c0.2,0,0.3-0.1,0.3-0.2c0-0.2-0.1-0.2-0.3-0.2h-0.2V4.2z"/>
<g>
	<defs>
		<rect id="SVGID_1_" x="-0.5" y="-0.1" width="139.5" height="35"/>
	</defs>
	<clipPath id="SVGID_2_">
		<use xlink:href="#SVGID_1_"  style="overflow:visible;"/>
	</clipPath>
	<g class="st0">
		<path class="st1" d="M46.3,18c0.2,0.1,0.4,0.3,0.7,0.4c0.4,0.2,0.8,0.4,1.3,0.5c1.4,0.4,2.8,0.6,4.3,0.6c1.5,0.1,2.9-0.3,4.2-1.1
			c0.5-0.3,0.9-0.8,1.1-1.3c0.3-0.5,0.4-1.1,0.4-1.7c0-0.6-0.1-1.1-0.3-1.6c-0.2-0.4-0.5-0.8-0.9-1.1c-0.4-0.3-0.8-0.5-1.3-0.6
			c-0.5-0.2-1-0.3-1.5-0.3L52,11.5c-0.4,0-0.8-0.1-1.1-0.3c-0.1,0-0.2-0.1-0.3-0.2c-0.1-0.1-0.1-0.2-0.1-0.3c0-0.1,0-0.3,0.1-0.4
			c0.1-0.1,0.2-0.2,0.3-0.3c0.5-0.2,1-0.3,1.5-0.2c0.6,0,1.1,0,1.7,0.1c0.4,0.1,0.9,0.2,1.3,0.3c0.3,0.1,0.6,0.2,0.8,0.4
			c0.1,0.1,0.3,0.2,0.4,0.3c0,0,0.1-0.1,0.2-0.1c0.3-0.2,0.6-0.5,0.7-0.8c0.1-0.2,0.2-0.4,0.2-0.7c0-0.3-0.1-0.6-0.3-0.8
			c-0.2-0.2-0.4-0.4-0.7-0.6c-0.6-0.3-1.2-0.5-1.8-0.6C53.9,7,53.1,7,52.2,7c-0.8,0-1.7,0.1-2.5,0.3c-0.6,0.2-1.2,0.5-1.7,0.9
			c-0.4,0.3-0.8,0.8-1,1.3c-0.2,0.5-0.3,1.1-0.3,1.6c0,0.6,0.1,1.2,0.4,1.7c0.2,0.4,0.6,0.8,1,1.1c0.5,0.3,1,0.5,1.5,0.7
			c0.6,0.2,1.2,0.3,1.8,0.3l1.2,0.1c0.4,0,0.9,0.1,1.3,0.3c0.1,0,0.2,0.1,0.3,0.3c0.1,0.1,0.1,0.3,0.1,0.4c0,0.1,0,0.3-0.1,0.4
			c-0.1,0.1-0.2,0.2-0.4,0.2c-0.5,0.1-1,0.2-1.5,0.2c-0.5,0-1.1,0-1.6-0.1c-0.5-0.1-0.9-0.2-1.4-0.3c-0.4-0.1-0.7-0.2-1-0.4
			c-0.2-0.1-0.4-0.2-0.6-0.3L46.3,18z M33.2,19.3H37v-6.4c0-1.6,0.7-2.4,2.2-2.4c0.3,0,0.6,0,0.9,0.1c0.3,0.1,0.5,0.3,0.7,0.5
			c0.4,0.5,0.6,1.2,0.6,1.8v6.4h3.8V12c0-0.8-0.1-1.5-0.5-2.2c-0.3-0.6-0.7-1.2-1.3-1.6c-0.6-0.4-1.2-0.8-1.9-1
			c-1.5-0.4-3.1-0.4-4.6,0c-0.7,0.2-1.3,0.5-1.9,1c-0.5,0.4-1,1-1.3,1.6c-0.3,0.7-0.5,1.4-0.5,2.2V19.3z M31,19.3V3.6l-0.7-0.2
			c-0.4-0.1-0.8-0.2-1.2-0.2c-0.5,0-1,0.1-1.5,0.4c-0.2,0.2-0.4,0.4-0.5,0.6c-0.1,0.2-0.1,0.5-0.1,0.7v14.3L31,19.3z"/>
		<path class="st1" d="M63.3,7.7c-0.1,0-0.3-0.1-0.7-0.2c-0.4-0.1-0.8-0.2-1.1-0.2c-0.5,0-1,0.1-1.4,0.4c-0.2,0.2-0.3,0.4-0.4,0.6
			c-0.1,0.2-0.1,0.5-0.1,0.7v5.4c0,0.8,0.1,1.6,0.5,2.3c0.3,0.6,0.7,1.2,1.3,1.6c0.6,0.4,1.2,0.8,1.9,1c1.5,0.4,3.2,0.4,4.7,0
			c0.7-0.2,1.3-0.5,1.9-1c0.5-0.4,1-1,1.2-1.6c0.3-0.7,0.5-1.5,0.5-2.3V7.7c-0.1,0-0.3-0.1-0.7-0.2c-0.4-0.1-0.8-0.2-1.1-0.2
			c-0.5,0-1,0.1-1.4,0.4c-0.2,0.2-0.3,0.4-0.4,0.6c-0.1,0.2-0.1,0.5-0.1,0.7v4.7c0,1.6-0.7,2.4-2.2,2.4c-1.5,0-2.2-0.8-2.2-2.4
			L63.3,7.7z"/>
		<path class="st1" d="M72.9,19.3h3.8v-6.7c0-0.3,0-0.6,0.1-0.9c0.1-0.3,0.3-0.6,0.5-0.8c0.4-0.3,1-0.5,1.5-0.5
			c0.4,0,0.8,0.1,1.2,0.2c0.3,0.1,0.6,0.2,1,0.4c0,0,0.1-0.1,0.2-0.2c0.1-0.1,0.2-0.3,0.3-0.4c0.1-0.2,0.2-0.3,0.3-0.5
			c0.1-0.2,0.1-0.4,0.1-0.7c0-0.2,0-0.4-0.1-0.6c-0.1-0.2-0.2-0.3-0.3-0.5c-0.3-0.3-0.7-0.5-1.1-0.7C79.6,7.1,78.8,7,78.1,7
			c-0.7,0-1.4,0.1-2.1,0.3c-0.6,0.2-1.2,0.5-1.6,0.9c-0.5,0.4-0.8,0.9-1.1,1.5c-0.3,0.6-0.4,1.3-0.4,2L72.9,19.3z"/>
		<path class="st1" d="M85.9,11.5c0.1-0.3,0.3-0.6,0.5-0.8c0.2-0.2,0.5-0.4,0.8-0.6c0.3-0.2,0.7-0.2,1.1-0.2c0.5,0,0.9,0.1,1.3,0.4
			c0.1,0.1,0.3,0.2,0.3,0.4c0.1,0.1,0.1,0.3,0.1,0.5c0,0.2,0,0.3-0.1,0.5c-0.1,0.2-0.3,0.4-0.5,0.4c-0.4,0.2-0.8,0.3-1.3,0.3
			c-0.8,0.1-1.6,0.1-2.4,0.1C85.7,12.1,85.8,11.8,85.9,11.5L85.9,11.5z M86.7,14.9c1.2,0,2.3-0.1,3.4-0.3c0.7-0.1,1.5-0.4,2.1-0.7
			c0.5-0.3,0.9-0.7,1.1-1.2c0.2-0.5,0.3-1,0.3-1.6c0-0.5-0.1-1.1-0.4-1.5c-0.3-0.5-0.6-1-1-1.3c-0.5-0.4-1.1-0.7-1.7-0.9
			C89.8,7.1,89,7,88.3,7c-0.9,0-1.7,0.1-2.5,0.5c-0.8,0.3-1.5,0.7-2.1,1.3c-0.6,0.6-1.1,1.2-1.4,2c-0.3,0.8-0.5,1.7-0.5,2.6
			c0,0.9,0.2,1.8,0.5,2.7c0.3,0.7,0.8,1.4,1.3,2c0.6,0.6,1.3,1,2,1.2c0.8,0.3,1.6,0.4,2.5,0.4c0.6,0,1.3,0,1.9-0.1
			c0.5-0.1,1-0.2,1.5-0.4c0.4-0.1,0.7-0.3,1.1-0.4c0.3-0.1,0.5-0.3,0.6-0.3L92,15.7c-0.1,0.1-0.2,0.1-0.3,0.2
			c-0.2,0.1-0.4,0.2-0.7,0.2c-0.3,0.1-0.6,0.2-0.9,0.2c-0.4,0.1-0.8,0.1-1.1,0.1c-0.5,0-0.9,0-1.4-0.1c-0.3-0.1-0.6-0.2-0.9-0.4
			c-0.2-0.1-0.4-0.3-0.6-0.5c-0.1-0.2-0.2-0.4-0.3-0.6L86.7,14.9z"/>
		<path d="M131.2,11.5c0.1-0.3,0.3-0.6,0.5-0.8c0.2-0.2,0.5-0.4,0.8-0.6c0.3-0.2,0.7-0.2,1.1-0.2c0.5,0,0.9,0.1,1.3,0.4
			c0.1,0.1,0.3,0.2,0.3,0.4c0.1,0.1,0.1,0.3,0.1,0.5c0,0.2,0,0.3-0.1,0.5c-0.1,0.2-0.3,0.4-0.5,0.4c-0.4,0.2-0.8,0.3-1.3,0.3
			c-0.8,0.1-1.6,0.1-2.4,0.1C131,12.1,131.1,11.8,131.2,11.5z M132,14.9c1.2,0,2.3-0.1,3.4-0.3c0.7-0.1,1.5-0.4,2.1-0.7
			c0.5-0.3,0.9-0.7,1.1-1.2c0.2-0.5,0.3-1,0.3-1.6c0-0.5-0.1-1.1-0.4-1.5c-0.3-0.5-0.6-1-1.1-1.3c-0.5-0.4-1.1-0.7-1.7-0.9
			c-0.7-0.2-1.5-0.4-2.3-0.3c-0.9,0-1.7,0.1-2.5,0.5c-0.8,0.3-1.5,0.7-2.1,1.3c-0.6,0.6-1.1,1.2-1.4,2c-0.3,0.8-0.5,1.7-0.5,2.6
			c0,0.9,0.2,1.8,0.5,2.7c0.3,0.7,0.8,1.4,1.3,2c0.6,0.6,1.3,1,2,1.2c0.8,0.3,1.6,0.4,2.5,0.4c0.6,0,1.3,0,1.9-0.2
			c0.5-0.1,1-0.2,1.5-0.4c0.4-0.1,0.7-0.3,1.1-0.4c0.3-0.1,0.5-0.3,0.6-0.3l-1.3-2.6c-0.1,0.1-0.2,0.1-0.3,0.2
			c-0.2,0.1-0.4,0.2-0.7,0.2c-0.3,0.1-0.6,0.2-0.9,0.2c-0.4,0.1-0.8,0.1-1.1,0.1c-0.5,0-0.9,0-1.4-0.1c-0.3-0.1-0.6-0.2-0.9-0.4
			c-0.2-0.1-0.4-0.3-0.6-0.5c-0.1-0.2-0.2-0.4-0.3-0.6L132,14.9z M113.8,19.3h3.8v-6.4c0-1.6,0.7-2.4,2.2-2.4c0.3,0,0.6,0,0.9,0.1
			c0.3,0.1,0.5,0.3,0.7,0.5c0.4,0.5,0.6,1.2,0.6,1.8v6.4h3.8V12c0-0.8-0.1-1.5-0.5-2.2c-0.3-0.6-0.7-1.2-1.3-1.6
			c-0.6-0.4-1.2-0.8-1.9-1c-1.5-0.4-3.1-0.4-4.6,0c-0.7,0.2-1.3,0.5-1.9,1c-0.5,0.4-1,1-1.3,1.6c-0.3,0.7-0.5,1.4-0.5,2.2
			L113.8,19.3z M101.9,15.7c-0.6-0.2-1-0.6-1.5-1c-0.4-0.4-0.7-1-1-1.5c-0.2-0.6-0.3-1.2-0.3-1.9c0-0.7,0.1-1.3,0.3-1.9
			c0.2-0.6,0.5-1.1,1-1.5c0.4-0.4,0.9-0.8,1.5-1c1.2-0.5,2.5-0.5,3.7,0c0.5,0.2,1,0.6,1.5,1c0.4,0.4,0.7,1,1,1.5
			c0.2,0.6,0.3,1.3,0.3,1.9c0,0.6-0.1,1.3-0.3,1.9c-0.2,0.6-0.5,1.1-1,1.5c-0.4,0.4-0.9,0.8-1.5,1C104.4,16.2,103.1,16.2,101.9,15.7
			L101.9,15.7z M95.7,14.6c0.4,1,1.1,1.9,1.8,2.7c0.8,0.8,1.7,1.4,2.8,1.8c2.2,0.9,4.7,0.9,6.9,0c1-0.4,2-1,2.8-1.8
			c1.2-1.2,2-2.7,2.3-4.4c0.3-1.7,0.2-3.4-0.5-4.9c-0.4-1-1.1-1.9-1.8-2.7c-0.8-0.8-1.7-1.4-2.8-1.8c-2.2-0.9-4.7-0.9-6.9,0
			c-1,0.4-2,1-2.8,1.8c-1.2,1.2-2,2.7-2.3,4.4C94.9,11.3,95.1,13,95.7,14.6z"/>
		<path d="M21.3,3.7c0,0-5.1-3.7-10.9-3.7C4.6-0.1-0.5,3.7-0.5,3.7c0,11.1-0.2,16.2,10.9,19.7C21.5,19.9,21.3,14.8,21.3,3.7z"/>
		<path class="st2" d="M10.4,19.7c4.7,0,8.5-3.8,8.5-8.5c0-4.7-3.8-8.5-8.5-8.5c-4.7,0-8.5,3.8-8.5,8.5C1.9,15.9,5.7,19.7,10.4,19.7
			z"/>
		<path class="st1" d="M10.4,17.5c3.5,0,6.3-2.8,6.3-6.3s-2.8-6.3-6.3-6.3c-3.5,0-6.3,2.8-6.3,6.3S6.9,17.5,10.4,17.5z"/>
		<path class="st2" d="M12.5,15.9H8.3V14h0.9V8.3H8.3V7l3.2-0.4V14h0.9L12.5,15.9z"/>
		<path d="M4.5,33.3H1.5l-0.6,1.5h-1.4L2.1,28h1.7l2.6,6.8H5.1L4.5,33.3z M4.1,32.1L3,29.3l-1.1,2.9H4.1z"/>
		<path d="M11.8,29.9v4.9h-1.3v-0.6c-0.2,0.2-0.4,0.4-0.7,0.6c-0.3,0.1-0.6,0.2-0.9,0.2c-1.3,0-1.9-0.9-1.9-2.2v-2.9h1.3v2.6
			c0,0.7,0.3,1.2,1.1,1.2s1.2-0.6,1.2-1.4v-2.4H11.8z"/>
		<path d="M16.2,34.6c-0.4,0.2-0.8,0.2-1.1,0.2c-1.1,0-1.6-0.7-1.6-1.8V31h-0.8v-1.1h0.8v-1.6h1.3v1.6h1.4V31h-1.4v2.1
			c0,0.1,0,0.2,0,0.2c0,0.1,0.1,0.2,0.1,0.2c0.1,0.1,0.1,0.1,0.2,0.1c0.1,0,0.2,0,0.2,0c0.2,0,0.4,0,0.6-0.1L16.2,34.6z"/>
		<path d="M16.6,32.3c0-0.5,0.1-1,0.4-1.5c0.3-0.4,0.7-0.8,1.2-1c0.5-0.2,1-0.3,1.5-0.2c0.5,0.1,1,0.3,1.4,0.7
			c0.4,0.4,0.6,0.8,0.7,1.3c0.1,0.5,0.1,1-0.1,1.5c-0.2,0.5-0.5,0.9-1,1.2c-0.4,0.3-0.9,0.4-1.5,0.4c-0.3,0-0.7,0-1-0.2
			c-0.3-0.1-0.6-0.3-0.9-0.6c-0.2-0.2-0.4-0.5-0.6-0.9C16.6,33,16.5,32.7,16.6,32.3z M20.6,32.3c0-0.3-0.1-0.6-0.3-0.8
			c-0.2-0.2-0.5-0.4-0.8-0.4c-0.3,0-0.6,0-0.9,0.2c-0.3,0.2-0.5,0.4-0.6,0.7c-0.1,0.3-0.1,0.6,0,0.9c0.1,0.3,0.3,0.6,0.6,0.7
			c0.3,0.2,0.6,0.2,0.9,0.2c0.3,0,0.6-0.2,0.8-0.4c0.1-0.1,0.2-0.3,0.3-0.5C20.5,32.7,20.6,32.5,20.6,32.3z"/>
		<path d="M33.2,28v6.8h-1.3v-2.9h-3.1v2.9h-1.3V28h1.3v2.7h3.1V28H33.2z"/>
		<path d="M34.2,32.3c0-0.5,0.1-1,0.4-1.5c0.3-0.4,0.7-0.8,1.2-1c0.5-0.2,1-0.3,1.5-0.2c0.5,0.1,1,0.3,1.4,0.7s0.6,0.8,0.7,1.3
			c0.1,0.5,0.1,1-0.1,1.5c-0.2,0.5-0.5,0.9-1,1.2c-0.4,0.3-0.9,0.4-1.5,0.4c-0.3,0-0.7,0-1-0.2c-0.3-0.1-0.6-0.3-0.9-0.6
			c-0.2-0.2-0.4-0.5-0.6-0.9C34.2,33,34.2,32.7,34.2,32.3z M38.2,32.3c0-0.3-0.1-0.5-0.3-0.8c-0.2-0.2-0.4-0.4-0.6-0.5
			C37.1,31,36.8,31,36.5,31c-0.3,0.1-0.5,0.2-0.7,0.4c-0.2,0.2-0.3,0.4-0.4,0.7c-0.1,0.3,0,0.5,0.1,0.8c0.1,0.2,0.3,0.5,0.5,0.6
			c0.2,0.1,0.5,0.2,0.8,0.2c0.2,0,0.4,0,0.5-0.1c0.2-0.1,0.3-0.2,0.5-0.3c0.1-0.1,0.2-0.3,0.3-0.5C38.2,32.7,38.2,32.5,38.2,32.3
			L38.2,32.3z"/>
		<path d="M48.3,31.9v2.9H47v-2.7c0-0.7-0.3-1.2-0.9-1.2c-0.7,0-1,0.5-1,1.3v2.5h-1.3v-2.6c0-0.7-0.3-1.2-0.9-1.2
			c-0.7,0-1.1,0.5-1.1,1.4v2.5h-1.3v-4.9h1.3v0.6c0.2-0.2,0.4-0.4,0.6-0.5c0.3-0.1,0.5-0.2,0.8-0.2c0.3,0,0.6,0,0.8,0.2
			c0.3,0.1,0.5,0.3,0.6,0.6c0.2-0.2,0.5-0.4,0.7-0.6c0.3-0.1,0.6-0.2,0.9-0.2C47.5,29.7,48.3,30.5,48.3,31.9z"/>
		<path d="M49.2,32.3c0-0.3,0-0.7,0.2-1c0.1-0.3,0.3-0.6,0.6-0.9c0.2-0.2,0.5-0.4,0.9-0.6c0.3-0.1,0.7-0.2,1-0.2
			c0.4,0,0.7,0.1,1.1,0.3c0.3,0.2,0.6,0.4,0.9,0.7c0.2,0.3,0.4,0.6,0.5,1c0.1,0.4,0.1,0.7,0.1,1.1h-3.8c0,0.2,0.1,0.3,0.2,0.5
			c0.1,0.1,0.2,0.3,0.3,0.4s0.3,0.2,0.4,0.2c0.2,0,0.3,0.1,0.5,0c0.2,0,0.5,0,0.7-0.1c0.2-0.1,0.4-0.3,0.5-0.5l1.2,0.3
			c-0.3,0.5-0.7,0.9-1.3,1.2s-1.1,0.3-1.7,0.2c-0.6-0.1-1.1-0.5-1.5-0.9C49.4,33.5,49.2,32.9,49.2,32.3L49.2,32.3z M53,31.9
			c0-0.3-0.2-0.6-0.4-0.8c-0.2-0.2-0.6-0.3-0.9-0.3c-0.3,0-0.6,0.1-0.9,0.3c-0.2,0.2-0.4,0.5-0.4,0.8H53z"/>
		<path d="M59.9,31.4c0-0.5,0.1-0.9,0.3-1.4c0.2-0.4,0.4-0.8,0.8-1.2c0.3-0.3,0.7-0.6,1.2-0.8c0.4-0.2,0.9-0.3,1.4-0.2
			c0.7,0,1.4,0.2,2,0.6c0.6,0.4,1,1,1.3,1.7l-1.3,0.3c-0.2-0.4-0.4-0.7-0.8-1c-0.4-0.2-0.8-0.3-1.2-0.3c-0.3,0-0.6,0.1-0.9,0.2
			c-0.3,0.1-0.5,0.3-0.7,0.5c-0.2,0.2-0.4,0.5-0.5,0.7c-0.1,0.3-0.2,0.6-0.1,0.9c0,0.3,0,0.6,0.1,0.9c0.1,0.3,0.3,0.5,0.5,0.7
			c0.2,0.2,0.5,0.4,0.7,0.5c0.3,0.1,0.6,0.2,0.9,0.2c0.4,0,0.8-0.1,1.2-0.3c0.4-0.2,0.6-0.6,0.8-1l1.3,0.3c-0.2,0.7-0.7,1.2-1.3,1.6
			c-0.6,0.4-1.3,0.6-2,0.5c-0.5,0-0.9-0.1-1.4-0.2c-0.4-0.2-0.8-0.4-1.2-0.8c-0.3-0.3-0.6-0.7-0.8-1.2
			C59.9,32.3,59.9,31.8,59.9,31.4L59.9,31.4z"/>
		<path d="M67.3,32.3c0-0.5,0.1-1,0.4-1.5c0.3-0.4,0.7-0.8,1.2-1c0.5-0.2,1-0.3,1.5-0.2c0.5,0.1,1,0.3,1.4,0.7
			c0.4,0.4,0.6,0.8,0.7,1.3c0.1,0.5,0.1,1-0.1,1.5c-0.2,0.5-0.5,0.9-1,1.2c-0.4,0.3-0.9,0.4-1.5,0.4c-0.3,0-0.7,0-1-0.2
			c-0.3-0.1-0.6-0.3-0.9-0.6c-0.2-0.2-0.4-0.5-0.6-0.9C67.4,33,67.3,32.7,67.3,32.3z M71.3,32.3c0-0.3-0.1-0.6-0.3-0.8
			c-0.2-0.2-0.5-0.4-0.8-0.4c-0.3,0-0.6,0-0.9,0.2c-0.3,0.2-0.5,0.4-0.6,0.7c-0.1,0.3-0.1,0.6,0,0.9c0.1,0.3,0.3,0.6,0.6,0.7
			c0.3,0.2,0.6,0.2,0.9,0.2c0.3,0,0.6-0.2,0.8-0.4c0.1-0.1,0.2-0.3,0.3-0.5C71.3,32.7,71.3,32.5,71.3,32.3z"/>
		<path d="M81.4,31.9v2.9h-1.3v-2.7c0-0.7-0.3-1.2-0.9-1.2c-0.7,0-1,0.5-1,1.3v2.5h-1.3v-2.6c0-0.7-0.3-1.2-0.9-1.2
			s-1.1,0.5-1.1,1.4v2.5h-1.3v-4.9h1.3v0.6c0.2-0.2,0.4-0.4,0.6-0.5c0.3-0.1,0.5-0.2,0.8-0.2c0.3,0,0.6,0,0.8,0.2
			c0.3,0.1,0.5,0.3,0.6,0.6c0.2-0.2,0.5-0.4,0.7-0.6c0.3-0.1,0.6-0.2,0.9-0.2C80.6,29.7,81.4,30.5,81.4,31.9z"/>
		<path d="M90.4,31.9v2.9h-1.3v-2.7c0-0.7-0.3-1.2-0.9-1.2c-0.7,0-1,0.5-1,1.3v2.5h-1.3v-2.6c0-0.7-0.3-1.2-0.9-1.2
			c-0.7,0-1.1,0.5-1.1,1.4v2.5h-1.3v-4.9h1.3v0.6c0.2-0.2,0.4-0.4,0.6-0.5c0.3-0.1,0.5-0.2,0.8-0.2c0.3,0,0.6,0,0.8,0.2
			c0.3,0.1,0.5,0.3,0.6,0.6c0.2-0.2,0.5-0.4,0.7-0.6c0.3-0.1,0.6-0.2,0.9-0.2C89.6,29.7,90.4,30.5,90.4,31.9z"/>
		<path d="M91.3,32.3c0-0.3,0-0.7,0.2-1c0.1-0.3,0.3-0.6,0.6-0.9c0.2-0.2,0.5-0.4,0.9-0.6c0.3-0.1,0.7-0.2,1-0.2
			c0.4,0,0.7,0.1,1.1,0.3c0.3,0.2,0.6,0.4,0.9,0.7c0.2,0.3,0.4,0.6,0.5,1c0.1,0.4,0.1,0.7,0.1,1.1h-3.8c0,0.2,0.1,0.3,0.2,0.5
			c0.1,0.1,0.2,0.3,0.3,0.4c0.1,0.1,0.3,0.2,0.4,0.2s0.3,0.1,0.5,0c0.2,0,0.5,0,0.7-0.1c0.2-0.1,0.4-0.3,0.5-0.5l1.2,0.3
			c-0.3,0.5-0.7,0.9-1.3,1.2c-0.5,0.2-1.1,0.3-1.7,0.2c-0.6-0.1-1.1-0.5-1.5-0.9C91.6,33.5,91.3,32.9,91.3,32.3L91.3,32.3z
			 M95.2,31.9c0-0.3-0.2-0.6-0.4-0.8c-0.2-0.2-0.6-0.3-0.9-0.3c-0.3,0-0.6,0.1-0.9,0.3c-0.2,0.2-0.4,0.5-0.4,0.8H95.2z"/>
		<path d="M100.3,29.8V31c-1.1-0.2-1.6,0.3-1.6,1.6v2.1h-1.3v-4.9h1.3v0.7c0.1-0.3,0.4-0.5,0.7-0.7C99.7,29.8,100,29.7,100.3,29.8
			L100.3,29.8z"/>
		<path d="M100.6,32.3c0-0.3,0.1-0.7,0.2-1c0.1-0.3,0.3-0.6,0.6-0.8c0.2-0.2,0.5-0.4,0.9-0.6c0.3-0.1,0.7-0.2,1-0.2
			c0.5,0,1,0.1,1.5,0.4c0.4,0.3,0.8,0.7,0.9,1.2l-1.2,0.3c-0.1-0.2-0.2-0.5-0.5-0.6c-0.2-0.1-0.5-0.2-0.7-0.2c-0.4,0-0.7,0.2-1,0.5
			c-0.2,0.3-0.4,0.6-0.4,1c0,0.4,0.1,0.7,0.4,1c0.2,0.3,0.6,0.4,1,0.5c0.3,0,0.5-0.1,0.7-0.2c0.2-0.1,0.4-0.4,0.5-0.6l1.2,0.3
			c-0.2,0.5-0.5,0.9-0.9,1.2c-0.4,0.3-0.9,0.4-1.5,0.4c-0.3,0-0.7-0.1-1-0.2c-0.3-0.1-0.6-0.3-0.9-0.6c-0.2-0.2-0.4-0.5-0.6-0.8
			C100.6,33,100.6,32.7,100.6,32.3z"/>
		<path d="M106.4,28.4c0-0.2,0-0.3,0.1-0.4c0.1-0.1,0.2-0.2,0.3-0.3c0.1-0.1,0.3-0.1,0.4,0c0.1,0,0.3,0.1,0.4,0.2
			c0.1,0.1,0.2,0.2,0.2,0.4c0,0.1,0,0.3,0,0.4c-0.1,0.1-0.2,0.3-0.3,0.3c-0.1,0.1-0.3,0.1-0.4,0.1c-0.1,0-0.2,0-0.3-0.1
			c-0.1,0-0.2-0.1-0.3-0.2c-0.1-0.1-0.1-0.2-0.2-0.2C106.4,28.6,106.4,28.5,106.4,28.4z M106.5,29.9h1.3v4.9h-1.3V29.9z"/>
		<path d="M108.8,32.3c0-0.3,0-0.7,0.1-1c0.1-0.3,0.3-0.6,0.5-0.8c0.2-0.2,0.5-0.4,0.8-0.6c0.3-0.1,0.6-0.2,1-0.2
			c0.3,0,0.6,0,0.9,0.2c0.3,0.1,0.5,0.3,0.7,0.6v-0.6h1.3v4.9h-1.3v-0.6c-0.2,0.2-0.4,0.4-0.7,0.6c-0.3,0.1-0.6,0.2-0.9,0.2
			c-0.3,0-0.7-0.1-1-0.2c-0.3-0.1-0.6-0.3-0.8-0.6c-0.2-0.2-0.4-0.5-0.5-0.8C108.8,33,108.8,32.7,108.8,32.3z M112.8,32.3
			c0-0.2,0-0.4-0.1-0.5c-0.1-0.2-0.2-0.3-0.3-0.5c-0.1-0.1-0.3-0.2-0.5-0.3c-0.2-0.1-0.4-0.1-0.5-0.1c-0.4,0-0.7,0.2-1,0.4
			c-0.3,0.3-0.4,0.6-0.4,1c0,0.4,0.1,0.7,0.4,1c0.3,0.3,0.6,0.4,1,0.4c0.2,0,0.4,0,0.6-0.1c0.2-0.1,0.3-0.2,0.5-0.3
			c0.1-0.1,0.2-0.3,0.3-0.5C112.8,32.7,112.9,32.5,112.8,32.3L112.8,32.3z"/>
		<path d="M115.4,27.7h1.3v7.1h-1.3V27.7z"/>
		<path d="M127,33.6v1.2h-4.7V28h1.3v5.6H127z"/>
		<path d="M127.8,28.4c0-0.2,0-0.3,0.1-0.4c0.1-0.1,0.2-0.2,0.3-0.3c0.1-0.1,0.3-0.1,0.4,0c0.1,0,0.3,0.1,0.4,0.2
			c0.1,0.1,0.2,0.2,0.2,0.4c0,0.1,0,0.3,0,0.4c-0.1,0.1-0.2,0.3-0.3,0.3c-0.1,0.1-0.3,0.1-0.4,0.1c-0.1,0-0.2,0-0.3-0.1
			c-0.1,0-0.2-0.1-0.3-0.2c-0.1-0.1-0.1-0.2-0.2-0.2C127.8,28.6,127.8,28.5,127.8,28.4z M127.9,29.9h1.3v4.9h-1.3L127.9,29.9z"/>
		<path d="M132.2,29.9h1.5V31h-1.5v3.8H131V31H130v-1.1h0.9v-0.5c0-1.1,0.6-1.9,1.7-1.9c0.4,0,0.8,0.1,1.1,0.2l-0.3,1
			c-0.2-0.1-0.4-0.1-0.6-0.1c-0.4,0-0.6,0.3-0.6,0.7L132.2,29.9z"/>
		<path d="M133.9,32.3c0-0.3,0-0.7,0.2-1c0.1-0.3,0.3-0.6,0.6-0.9c0.2-0.2,0.5-0.4,0.9-0.6c0.3-0.1,0.7-0.2,1-0.2c0.3,0,0.7,0,1,0.2
			c0.3,0.1,0.6,0.3,0.8,0.5c0.2,0.2,0.4,0.5,0.5,0.8c0.1,0.3,0.2,0.7,0.2,1c0,0.2,0,0.3,0,0.5h-3.8c0,0.3,0.2,0.6,0.5,0.9
			c0.3,0.2,0.6,0.3,0.9,0.3c0.2,0,0.5,0,0.7-0.1c0.2-0.1,0.4-0.3,0.5-0.5l1.2,0.3c-0.2,0.4-0.6,0.8-1,1.1c-0.4,0.2-0.9,0.4-1.4,0.3
			c-0.4,0-0.7,0-1-0.1c-0.3-0.1-0.6-0.3-0.9-0.6c-0.3-0.2-0.4-0.5-0.6-0.9C133.9,33,133.8,32.7,133.9,32.3z M137.7,31.9
			c0-0.3-0.2-0.6-0.4-0.8c-0.2-0.2-0.6-0.3-0.9-0.3c-0.3,0-0.6,0.1-0.9,0.3c-0.2,0.2-0.4,0.5-0.4,0.8H137.7z"/>
		<path class="st1" d="M24.6,33.4c0.6,0,1.1-0.5,1.1-1.1c0-0.6-0.5-1.1-1.1-1.1c-0.6,0-1.1,0.5-1.1,1.1C23.6,32.9,24,33.4,24.6,33.4
			z"/>
		<path class="st1" d="M57.1,33.4c0.6,0,1.1-0.5,1.1-1.1c0-0.6-0.5-1.1-1.1-1.1c-0.6,0-1.1,0.5-1.1,1.1C56,32.9,56.5,33.4,57.1,33.4
			z"/>
		<path class="st1" d="M119.5,33.4c0.6,0,1.1-0.5,1.1-1.1c0-0.6-0.5-1.1-1.1-1.1s-1.1,0.5-1.1,1.1C118.4,32.9,118.9,33.4,119.5,33.4
			z"/>
	</g>
</g>
</svg>
