<svg width="161" height="41" viewBox="0 0 161 41" fill="none" xmlns="http://www.w3.org/2000/svg">
<g clip-path="url(#clip0_13005_311)">
<path d="M13.5787 5.99773H12.1433C11.6167 6.01358 11.0896 5.98907 10.5669 5.92443C10.9071 6.73893 10.99 6.90997 11.3385 7.89551L14.1595 15.9346C14.7557 17.5973 15.2571 19.2914 15.6613 21.0089H15.7774C16.1551 19.2839 16.6597 17.588 17.2875 15.9346L20.1417 7.83035C20.4901 6.84481 20.5648 6.6982 20.9133 5.85927C20.4267 5.92345 19.9354 5.94797 19.4447 5.93257H18.0176V1.41211H29.5671V5.99773H27.7832L19.2954 26.6941H11.1062L2.64321 5.95701L0.792969 5.99773V1.41211H13.5787V5.99773Z" fill="#05446B"/>
<path d="M30.9941 22.1085H32.6535C32.9351 22.0907 33.2175 22.1295 33.4832 22.2225C33.4126 21.9375 33.3847 21.6439 33.4003 21.351V6.69006C33.4004 6.414 33.4424 6.1395 33.5247 5.87556C33.2335 5.93905 32.9349 5.96371 32.6369 5.94886H30.9775V1.41211H43.1576V5.95701H41.4982C41.203 5.96909 40.9075 5.94446 40.6187 5.8837C40.726 6.16143 40.7685 6.45923 40.7431 6.75522V21.351C40.7661 21.6469 40.7236 21.9442 40.6187 22.2225C40.9068 22.1267 41.2113 22.0879 41.5148 22.1085H43.1742V26.7023H30.9941V22.1085Z" fill="#05446B"/>
<path d="M44.51 17.8975H50.9651C50.9651 19.7627 51.1145 20.7075 51.7948 21.3917C52.2628 21.8086 52.8124 22.1276 53.4101 22.3293C54.0078 22.5309 54.6411 22.611 55.2713 22.5646C57.4368 22.5646 58.7892 21.579 58.7892 19.9826C58.822 19.616 58.709 19.2512 58.4739 18.9645C57.9512 18.4188 56.1757 17.6043 53.894 16.8794C50.8075 15.9345 47.8288 14.6395 46.7087 13.7354C45.9638 13.1118 45.3751 12.3284 44.988 11.4456C44.601 10.5629 44.4261 9.60453 44.4768 8.64479C44.4768 3.83925 47.9865 0.841896 53.7031 0.841896C54.9171 0.762889 56.1329 0.964966 57.2527 1.43184C58.3725 1.89871 59.3649 2.61732 60.1499 3.52974H60.2329C60.0931 3.1504 60.0147 2.75189 60.0006 2.34872V1.41204H65.8085V9.55703H59.7019C59.5857 8.04206 59.3202 7.17055 58.7394 6.52709C58.2969 6.12346 57.7725 5.81614 57.2006 5.62525C56.6286 5.43436 56.0221 5.3642 55.4206 5.41938C53.1057 5.41938 51.9857 6.23387 51.9857 7.77328C51.9719 8.02352 52.0172 8.27349 52.1179 8.50376C52.2186 8.73403 52.3721 8.93838 52.5664 9.10091C53.2545 9.55963 54.0062 9.91896 54.7983 10.1679L56.5407 10.7299L58.2831 11.3408L60.0172 11.9028C61.9568 12.4604 63.7135 13.508 65.1116 14.9409C66.0076 16.2342 66.4556 17.7764 66.3893 19.3391C66.3893 24.3809 62.9543 27.2968 57.0054 27.2968C53.9935 27.2968 51.5625 26.352 50.3677 24.6415H50.2184C50.4107 25.0246 50.5315 25.4384 50.5752 25.8633V26.6778H44.51V17.8975Z" fill="#05446B"/>
<path d="M67.833 22.1085H69.4924C69.774 22.0903 70.0564 22.1291 70.3221 22.2225C70.2585 21.9365 70.2334 21.6435 70.2474 21.351V6.69006C70.2488 6.41467 70.2878 6.14072 70.3636 5.87556C70.0724 5.93905 69.7738 5.96371 69.4758 5.94886H67.8164V1.41211H80.0048V5.95701H78.3453C78.0474 5.97042 77.749 5.94578 77.4576 5.8837C77.5579 6.16304 77.5975 6.45993 77.5737 6.75522V21.351C77.5951 21.6462 77.5556 21.9427 77.4576 22.2225C77.7428 22.1267 78.0446 22.0879 78.3453 22.1085H80.0048V26.7023H67.833V22.1085Z" fill="#05446B"/>
<path d="M89.571 7.89556C88.7122 9.76212 88.2898 11.7937 88.3348 13.8414C88.258 16.1392 88.7626 18.42 89.8033 20.4796C90.2803 21.1853 90.9294 21.7629 91.6916 22.1597C92.4537 22.5566 93.3049 22.7602 94.1676 22.752C95.1259 22.7862 96.0743 22.5515 96.9017 22.0754C97.729 21.5994 98.401 20.9017 98.8388 20.0642C99.6752 18.1991 100.097 16.1804 100.075 14.1428C100.075 8.31095 97.9925 5.18328 94.1676 5.18328C93.2176 5.15752 92.28 5.39923 91.4655 5.87985C90.6509 6.36047 89.9936 7.05992 89.571 7.89556ZM104.365 4.21403C106.721 6.49462 107.999 9.91551 107.999 13.988C107.999 22.2552 102.705 27.4109 94.2091 27.4109C85.7129 27.4109 80.353 22.2633 80.353 14.0776C80.353 10.054 81.6971 6.41317 83.9456 4.21403C86.7449 1.73482 90.407 0.405296 94.1759 0.499915C97.9257 0.385923 101.572 1.71933 104.331 4.21403" fill="#05446B"/>
<path d="M108.654 22.1085H110.314C110.612 22.0947 110.91 22.1194 111.201 22.1818C111.101 21.9025 111.062 21.6056 111.085 21.3103V6.75522C111.043 6.46391 111.063 6.16709 111.143 5.8837C110.853 5.95757 110.555 5.99588 110.256 5.99773H108.596V1.41211H120.834L126.435 12.9373C127.483 15.0279 128.4 17.1795 129.181 19.3799L129.33 19.3392C129.06 17.0251 128.944 14.6961 128.982 12.3671V6.75522C128.957 6.45923 128.999 6.16143 129.106 5.8837C128.814 5.95759 128.513 5.99588 128.21 5.99773H126.202V1.41211H137.486V5.99773H135.827C135.547 5.99428 135.268 5.95597 134.997 5.8837C135.062 6.16959 135.087 6.46274 135.072 6.75522V26.7023H125.887L119.391 13.4667C118.352 11.3891 117.452 9.24792 116.694 7.05658H116.536C116.808 9.37337 116.924 11.7051 116.885 14.0368V21.351C116.909 21.6463 116.869 21.9432 116.769 22.2225C117.06 22.1605 117.359 22.1358 117.657 22.1492H119.706V26.743H108.654V22.1085Z" fill="#05446B"/>
<path d="M138.864 17.8975H145.311C145.269 19.7627 145.46 20.7075 146.14 21.3917C146.607 21.8088 147.155 22.128 147.751 22.3297C148.347 22.5314 148.98 22.6113 149.609 22.5646C151.774 22.5646 153.126 21.579 153.126 19.9826C153.162 19.6171 153.052 19.2524 152.819 18.9645C152.313 18.3943 150.538 17.5635 148.256 16.8794C145.17 15.9345 142.199 14.6395 141.079 13.7354C140.327 13.1101 139.733 12.3218 139.345 11.4327C138.956 10.5437 138.783 9.57814 138.839 8.61221C138.839 3.83925 142.349 0.841899 148.065 0.841899C149.28 0.762891 150.498 0.964925 151.619 1.43175C152.74 1.89858 153.734 2.61718 154.52 3.52974H154.595C154.455 3.1504 154.377 2.75189 154.363 2.34872V1.41205H160.171V9.55703H154.106C153.989 8.04206 153.724 7.17055 153.143 6.5271C152.701 6.12346 152.176 5.81614 151.604 5.62525C151.032 5.43436 150.426 5.3642 149.824 5.41938C147.509 5.41938 146.389 6.23388 146.389 7.77328C146.376 8.02352 146.421 8.2735 146.522 8.50376C146.622 8.73403 146.776 8.93838 146.97 9.10091C147.662 9.55774 148.416 9.91691 149.21 10.1679L150.944 10.7299L152.687 11.3408L154.421 11.9028C156.362 12.462 158.121 13.5092 159.523 14.9409C160.413 16.2366 160.858 17.7777 160.793 19.3391C160.793 24.3809 157.358 27.2968 151.409 27.2968C148.397 27.2968 145.966 26.352 144.771 24.6415H144.614C144.788 25.0252 144.892 25.436 144.921 25.8551V26.6696H138.864V17.8975Z" fill="#05446B"/>
<path d="M10.2764 35.0674H15.238V36.1832H12.5415V37.2828H15.1052V38.3987H12.5415V40.3616H10.2764V35.0674Z" fill="#05446B"/>
<path d="M17.3872 35.0674H22.5563V36.1832H19.5776V37.1606H22.3654V38.2765H19.5776V39.2458H22.5812V40.3616H17.3872V35.0674Z" fill="#05446B"/>
<path d="M27.1362 39.1643H27.7585C28.7873 39.1643 29.4179 38.7082 29.4179 37.7145C29.4179 36.7208 28.7956 36.2728 27.7585 36.2728H27.1362V39.1643ZM24.8628 35.0918H27.7502C29.3432 35.0918 30.372 35.2303 31.069 35.9633C31.5231 36.4638 31.7611 37.1181 31.7327 37.7878C31.7543 38.1363 31.6996 38.4852 31.5722 38.8112C31.4448 39.1371 31.2478 39.4325 30.9943 39.6774C30.3637 40.1824 29.7663 40.386 28.0986 40.386H24.8545L24.8628 35.0918Z" fill="#05446B"/>
<path d="M33.9893 35.0674H39.1666V36.1832H36.188V37.1606H38.9758V38.2765H36.188V39.2458H39.1915V40.3616H33.9893V35.0674Z" fill="#05446B"/>
<path d="M43.7382 37.4131H44.6094C45.0906 37.4131 45.4391 37.2665 45.4391 36.7697C45.4391 36.2728 45.0989 36.1425 44.543 36.1425H43.7133L43.7382 37.4131ZM41.4482 35.0674H45.2898C46.7666 35.0674 47.671 35.3525 47.671 36.5253C47.6723 36.8392 47.5538 37.1421 47.3387 37.3743C47.1237 37.6065 46.8278 37.7511 46.5094 37.7797V37.853C47.0321 37.853 47.4636 38.0484 47.5549 38.586L47.8453 40.3616H45.5968L45.4142 39.1806C45.3064 38.529 45.2151 38.4394 44.4352 38.4394H43.7465V40.3616H41.4482V35.0674Z" fill="#05446B"/>
<path d="M54.1843 38.3254L53.3546 36.4765L52.4751 38.3254H54.1843ZM52.0271 35.0674H54.8564L57.611 40.3616H55.1219L54.7236 39.482H51.9275L51.5044 40.3616H49.2808L52.0271 35.0674Z" fill="#05446B"/>
<path d="M59.3701 35.0674H61.6435V39.0666H64.1243V40.3616H59.3701V35.0674Z" fill="#05446B"/>
<path d="M74.6366 37.0303C74.5786 36.3787 74.2965 36.0855 73.6825 36.0855C72.803 36.0855 72.5043 36.8348 72.5043 37.7145C72.5043 38.5941 72.803 39.3435 73.6825 39.3435C73.8218 39.3646 73.9642 39.3538 74.0986 39.3119C74.2329 39.2699 74.3555 39.198 74.4568 39.1017C74.5581 39.0055 74.6352 38.8875 74.6823 38.757C74.7293 38.6266 74.7449 38.4872 74.7279 38.3498H77.0428C77.0627 38.5919 77.0301 38.8354 76.9472 39.0643C76.8642 39.2931 76.7328 39.5021 76.5616 39.6774C75.7541 40.2779 74.7507 40.5677 73.7406 40.4919C71.0357 40.4919 70.1396 39.4005 70.1396 37.7063C70.1396 36.452 70.7121 34.9208 73.7406 34.9208C74.7163 34.8195 75.6966 35.0651 76.5035 35.6131C76.8354 35.9226 76.9515 36.2484 76.9515 37.0222L74.6366 37.0303Z" fill="#05446B"/>
<path d="M81.4814 37.4131H82.3111C82.8006 37.4131 83.1408 37.2665 83.1408 36.7697C83.1408 36.2728 82.7923 36.1425 82.2447 36.1425H81.415L81.4814 37.4131ZM79.208 35.0674H83.0495C84.5181 35.0674 85.4308 35.3525 85.4308 36.5253C85.4321 36.8392 85.3135 37.1421 85.0985 37.3743C84.8835 37.6065 84.5876 37.7511 84.2692 37.7797V37.853C84.7919 37.853 85.2234 38.0484 85.3146 38.586L85.605 40.3616H83.3316L83.1491 39.1806C83.0412 38.529 82.9417 38.4394 82.17 38.4394H81.4814V40.3616H79.208V35.0674Z" fill="#05446B"/>
<path d="M87.7876 35.0674H92.9649V36.1832H89.9863V37.1606H92.7741V38.2765H89.9863V39.2458H92.9898V40.3616H87.7876V35.0674Z" fill="#05446B"/>
<path d="M97.5366 39.1643H98.1671C99.196 39.1643 99.8265 38.7082 99.8265 37.7145C99.8265 36.7208 99.2043 36.2728 98.1671 36.2728H97.5366V39.1643ZM95.2632 35.0918H98.1588C99.7436 35.0918 100.781 35.2303 101.519 35.9633C101.97 36.4651 102.205 37.1192 102.175 37.7878C102.197 38.1357 102.144 38.4843 102.018 38.8102C101.892 39.1361 101.696 39.4318 101.444 39.6774C100.806 40.1824 100.208 40.386 98.5405 40.386H95.2217L95.2632 35.0918Z" fill="#05446B"/>
<path d="M106.63 35.0674H104.356V40.3616H106.63V35.0674Z" fill="#05446B"/>
<path d="M110.355 36.3543H108.588V35.0674H114.396V36.3543H112.629V40.3616H110.355V36.3543Z" fill="#05446B"/>
<path d="M120.635 35.0674H122.834V37.967C122.834 38.9851 123.191 39.3028 123.88 39.3028C124.568 39.3028 124.925 38.9851 124.925 37.967V35.0674H127.074V38.1625C127.11 38.4417 127.082 38.7253 126.994 38.9929C126.905 39.2604 126.756 39.5054 126.56 39.71C125.754 40.2219 124.814 40.4943 123.855 40.4943C122.895 40.4943 121.956 40.2219 121.15 39.71C120.953 39.5054 120.805 39.2604 120.716 38.9929C120.627 38.7253 120.599 38.4417 120.635 38.1625V35.0674Z" fill="#05446B"/>
<path d="M129.414 35.0674H132.741L134.558 38.6186H134.574V35.0674H136.557V40.3616H133.33L131.405 36.5905H131.388V40.3616H129.414V35.0674Z" fill="#05446B"/>
<path d="M141.228 35.0674H138.955V40.3616H141.228V35.0674Z" fill="#05446B"/>
<path d="M147.011 36.1346C146.265 36.1346 145.717 36.6315 145.717 37.7148C145.717 38.7981 146.265 39.3438 147.011 39.3438C147.758 39.3438 148.306 38.8469 148.306 37.7148C148.306 36.5826 147.758 36.1346 147.011 36.1346ZM149.915 39.5881C149.105 40.2505 148.063 40.5776 147.011 40.5004C144.373 40.5004 143.402 39.303 143.402 37.7148C143.379 37.293 143.462 36.8721 143.643 36.4888C143.823 36.1055 144.097 35.7714 144.439 35.5156C145.207 35.047 146.112 34.8408 147.011 34.9292C149.65 34.9292 150.621 36.1346 150.621 37.7148C150.64 38.0578 150.588 38.4012 150.467 38.7236C150.345 39.0459 150.158 39.3402 149.915 39.5881Z" fill="#05446B"/>
<path d="M152.761 35.0674H156.08L157.897 38.6186H157.922V35.0674H159.897V40.3616H156.677L154.753 36.5905H154.736V40.3616H152.761V35.0674Z" fill="#05446B"/>
<path d="M9.82861 31.0273H160.262" stroke="#F99D31" stroke-width="1.32" stroke-miterlimit="10"/>
</g>
<defs>
<clipPath id="clip0_13005_311">
<rect width="160" height="40" fill="white" transform="translate(0.792969 0.5)"/>
</clipPath>
</defs>
</svg>
