<svg width="205" height="35" viewBox="0 0 205 35" fill="none" xmlns="http://www.w3.org/2000/svg">
<path d="M69.2632 26.5527C69.4465 26.6894 69.7732 26.8894 70.2432 27.1527C70.7132 27.4161 71.3232 27.6661 72.0799 27.9094C72.8365 28.1494 73.7332 28.3594 74.7732 28.5461C75.8132 28.7294 77.0098 28.8194 78.3598 28.8194C80.9465 28.8194 82.9698 28.2827 84.4365 27.2061C85.8998 26.1294 86.6332 24.6328 86.6332 22.7094C86.6332 21.7928 86.4665 21.0161 86.1365 20.3761C85.8032 19.7361 85.3598 19.2094 84.7965 18.7961C84.2365 18.3828 83.5965 18.0694 82.8732 17.8528C82.1532 17.6361 81.4032 17.4694 80.6232 17.3561L77.4998 16.9094C76.7665 16.7961 76.2165 16.6594 75.8532 16.4961C75.4865 16.3361 75.3032 16.0628 75.3032 15.6728C75.3032 15.2828 75.5032 14.9694 75.9032 14.7294C76.3032 14.4894 77.0198 14.3694 78.0498 14.3694C78.9665 14.3694 79.7832 14.4394 80.5032 14.5761C81.2232 14.7128 81.8432 14.8694 82.3565 15.0394C82.8698 15.2094 83.2832 15.3894 83.5932 15.5728C83.9032 15.7561 84.0898 15.8828 84.1598 15.9494C84.2065 15.9261 84.3132 15.8594 84.4865 15.7428C84.6565 15.6294 84.8398 15.4694 85.0365 15.2628C85.2298 15.0561 85.4032 14.8128 85.5498 14.5261C85.6998 14.2394 85.7732 13.9128 85.7732 13.5461C85.7732 13.0661 85.6398 12.6594 85.3798 12.3261C85.1165 11.9961 84.7665 11.7128 84.3332 11.4861C83.5765 11.0961 82.6798 10.8128 81.6398 10.6295C80.5965 10.4461 79.3565 10.3561 77.9165 10.3561C76.4765 10.3561 75.2732 10.5095 74.2432 10.8195C73.2132 11.1295 72.3665 11.5528 71.7032 12.0894C71.0399 12.6261 70.5532 13.2561 70.2432 13.9761C69.9332 14.6961 69.7799 15.4828 69.7799 16.3261C69.7799 17.3328 69.9632 18.1694 70.3299 18.8328C70.6965 19.4961 71.1932 20.0394 71.8232 20.4628C72.4532 20.8861 73.1799 21.2061 74.0032 21.4228C74.8265 21.6394 75.6865 21.8061 76.5765 21.9194L78.3632 22.1261C79.2098 22.2394 79.8332 22.3828 80.2332 22.5561C80.6332 22.7294 80.8332 23.0428 80.8332 23.4994C80.8332 23.9561 80.5932 24.2361 80.1132 24.4094C79.6332 24.5794 78.9232 24.6661 77.9832 24.6661C77.1598 24.6661 76.3765 24.6028 75.6332 24.4761C74.8899 24.3494 74.2265 24.2028 73.6432 24.0294C73.0599 23.8594 72.5565 23.6761 72.1332 23.4794C71.7099 23.2861 71.4065 23.1194 71.2232 22.9828L69.2665 26.5527H69.2632ZM50.0399 28.3394H55.5666V19.0028C55.5666 16.6228 56.6432 15.4328 58.7932 15.4328C59.8232 15.4328 60.6132 15.7261 61.1632 16.3094C61.7132 16.8928 61.9865 17.7928 61.9865 19.0028V28.3394H67.5132V17.7328C67.5132 16.5428 67.2832 15.4828 66.8265 14.5561C66.3699 13.6294 65.7465 12.8561 64.9565 12.2394C64.1665 11.6228 63.2399 11.1528 62.1765 10.8328C61.1132 10.5128 59.9832 10.3528 58.7966 10.3528C57.6099 10.3528 56.4499 10.5128 55.3966 10.8328C54.3432 11.1528 53.4166 11.6228 52.6166 12.2394C51.8166 12.8561 51.1866 13.6294 50.7299 14.5561C50.2732 15.4828 50.0432 16.5428 50.0432 17.7328V28.3394H50.0399ZM46.8266 28.3394V5.33613C46.6899 5.28947 46.3632 5.18613 45.8466 5.02613C45.3333 4.86613 44.7433 4.78613 44.0799 4.78613C43.1866 4.78613 42.4666 4.97613 41.9166 5.3528C41.3666 5.72946 41.0933 6.38946 41.0933 7.32613V28.3361H46.8266V28.3394Z" fill="#DC1419"/>
<path d="M94.0965 11.3462C93.9598 11.2995 93.6398 11.2028 93.1365 11.0528C92.6332 10.9028 92.0732 10.8295 91.4532 10.8295C90.5832 10.8295 89.8865 11.0128 89.3598 11.3795C88.8332 11.7462 88.5698 12.3762 88.5698 13.2662V21.1961C88.5698 22.4795 88.7932 23.5928 89.2398 24.5428C89.6865 25.4928 90.2965 26.2828 91.0765 26.9128C91.8532 27.5428 92.7798 28.0161 93.8565 28.3361C94.9331 28.6561 96.0865 28.8161 97.3231 28.8161C98.5598 28.8161 99.7131 28.6561 100.79 28.3361C101.866 28.0161 102.793 27.5428 103.57 26.9128C104.346 26.2828 104.96 25.4928 105.406 24.5428C105.853 23.5928 106.076 22.4761 106.076 21.1961V11.3428C105.94 11.2962 105.62 11.1995 105.116 11.0495C104.613 10.8995 104.053 10.8262 103.433 10.8262C102.563 10.8262 101.866 11.0095 101.34 11.3762C100.813 11.7428 100.55 12.3728 100.55 13.2628V20.1628C100.55 22.5428 99.4731 23.7328 97.3231 23.7328C95.1731 23.7328 94.0965 22.5428 94.0965 20.1628V11.3395V11.3462Z" fill="#DC1419"/>
<path d="M108.103 28.3396H113.63V18.5563C113.63 17.3896 113.933 16.5529 114.54 16.0496C115.146 15.5463 115.883 15.2929 116.753 15.2929C117.416 15.2929 118.023 15.3729 118.573 15.5329C119.123 15.6929 119.59 15.8663 119.98 16.0463C120.05 15.9763 120.15 15.8629 120.29 15.7029C120.426 15.5429 120.57 15.3496 120.72 15.1196C120.87 14.8896 120.993 14.6263 121.096 14.3296C121.2 14.0329 121.25 13.7129 121.25 13.3696C121.25 13.0263 121.193 12.7296 121.08 12.4763C120.966 12.2263 120.806 11.9829 120.6 11.7563C120.256 11.4129 119.7 11.0929 118.936 10.7963C118.17 10.4996 117.1 10.3496 115.726 10.3496C114.606 10.3496 113.576 10.5029 112.636 10.8129C111.696 11.1229 110.896 11.5729 110.233 12.1696C109.57 12.7663 109.05 13.4963 108.67 14.3663C108.293 15.2363 108.103 16.2329 108.103 17.3529V28.3396Z" fill="#DC1419"/>
<path d="M127.123 16.9602C127.283 16.5135 127.516 16.1202 127.826 15.7768C128.136 15.4335 128.52 15.1535 128.976 14.9368C129.433 14.7202 129.973 14.6102 130.59 14.6102C131.46 14.6102 132.113 14.7868 132.546 15.1435C132.98 15.5002 133.2 15.9168 133.2 16.3968C133.2 16.6268 133.153 16.8535 133.063 17.0835C132.97 17.3135 132.72 17.5202 132.306 17.7002C131.893 17.8835 131.263 18.0335 130.42 18.1468C129.573 18.2602 128.383 18.3168 126.85 18.3168C126.873 17.8602 126.963 17.4068 127.123 16.9602ZM128.323 21.8868C130.36 21.8868 132.036 21.7602 133.353 21.5102C134.67 21.2602 135.71 20.8968 136.476 20.4302C137.243 19.9602 137.776 19.3902 138.073 18.7135C138.37 18.0402 138.52 17.2768 138.52 16.4302C138.52 15.6535 138.343 14.8968 137.986 14.1635C137.63 13.4302 137.116 12.7802 136.443 12.2068C135.766 11.6335 134.936 11.1835 133.953 10.8502C132.97 10.5202 131.86 10.3535 130.623 10.3535C129.296 10.3535 128.06 10.5768 126.916 11.0235C125.773 11.4702 124.776 12.0935 123.93 12.8935C123.083 13.6935 122.42 14.6668 121.94 15.8102C121.46 16.9535 121.22 18.2135 121.22 19.5868C121.22 21.0502 121.46 22.3568 121.94 23.5002C122.42 24.6435 123.076 25.6101 123.913 26.4001C124.75 27.1901 125.726 27.7901 126.85 28.2035C127.97 28.6168 129.173 28.8201 130.453 28.8201C131.483 28.8201 132.426 28.7468 133.286 28.5968C134.143 28.4468 134.893 28.2701 135.536 28.0635C136.176 27.8568 136.71 27.6501 137.133 27.4468C137.556 27.2401 137.86 27.0801 138.043 26.9668L136.12 23.1235C136.073 23.1702 135.926 23.2502 135.673 23.3635C135.42 23.4768 135.1 23.5935 134.713 23.7068C134.323 23.8202 133.866 23.9302 133.34 24.0335C132.813 24.1368 132.253 24.1868 131.656 24.1868C130.88 24.1868 130.213 24.1168 129.666 23.9802C129.116 23.8435 128.666 23.6602 128.31 23.4302C127.953 23.2002 127.68 22.9568 127.486 22.6935C127.293 22.4302 127.173 22.1602 127.126 21.8868H128.326H128.323Z" fill="#DC1419"/>
<path d="M193.397 16.9601C193.557 16.5134 193.79 16.1201 194.1 15.7767C194.41 15.4334 194.793 15.1534 195.25 14.9367C195.707 14.7201 196.247 14.6101 196.863 14.6101C197.733 14.6101 198.387 14.7867 198.82 15.1434C199.253 15.5001 199.473 15.9167 199.473 16.3967C199.473 16.6267 199.427 16.8534 199.337 17.0834C199.243 17.3134 198.993 17.5201 198.58 17.7001C198.167 17.8834 197.537 18.0334 196.693 18.1467C195.847 18.2601 194.657 18.3167 193.123 18.3167C193.147 17.8601 193.237 17.4067 193.397 16.9601ZM194.597 21.8867C196.633 21.8867 198.31 21.76 199.627 21.51C200.943 21.26 201.983 20.8967 202.75 20.4301C203.517 19.9601 204.05 19.3901 204.347 18.7134C204.643 18.0401 204.793 17.2767 204.793 16.4301C204.793 15.6534 204.617 14.8967 204.26 14.1634C203.903 13.4301 203.39 12.7801 202.717 12.2067C202.04 11.6334 201.21 11.1834 200.227 10.8501C199.243 10.5201 198.133 10.3534 196.897 10.3534C195.57 10.3534 194.333 10.5767 193.19 11.0234C192.047 11.4701 191.05 12.0934 190.203 12.8934C189.357 13.6934 188.693 14.6667 188.213 15.8101C187.733 16.9534 187.493 18.2134 187.493 19.5867C187.493 21.0501 187.733 22.3567 188.213 23.5C188.693 24.6434 189.35 25.61 190.187 26.4C191.023 27.19 192 27.79 193.123 28.2034C194.243 28.6167 195.447 28.82 196.727 28.82C197.757 28.82 198.7 28.7467 199.56 28.5967C200.417 28.4467 201.167 28.27 201.81 28.0634C202.45 27.8567 202.983 27.65 203.407 27.4467C203.83 27.24 204.133 27.08 204.317 26.9667L202.393 23.1234C202.347 23.17 202.2 23.25 201.947 23.3634C201.693 23.4767 201.373 23.5934 200.987 23.7067C200.597 23.82 200.14 23.93 199.613 24.0334C199.087 24.1367 198.527 24.1867 197.93 24.1867C197.153 24.1867 196.487 24.1167 195.94 23.98C195.39 23.8434 194.94 23.66 194.583 23.43C194.227 23.2 193.953 22.9567 193.76 22.6934C193.567 22.43 193.447 22.16 193.4 21.8867H194.6H194.597ZM167.99 28.34H173.517V19.0034C173.517 16.6234 174.593 15.4334 176.743 15.4334C177.773 15.4334 178.563 15.7267 179.113 16.3101C179.663 16.8934 179.937 17.7934 179.937 19.0034V28.34H185.463V17.7334C185.463 16.5434 185.233 15.4834 184.777 14.5567C184.32 13.6301 183.697 12.8567 182.907 12.2401C182.117 11.6234 181.19 11.1534 180.127 10.8334C179.063 10.5134 177.933 10.3534 176.747 10.3534C175.56 10.3534 174.4 10.5134 173.347 10.8334C172.293 11.1534 171.367 11.6234 170.567 12.2401C169.767 12.8567 169.137 13.6301 168.68 14.5567C168.223 15.4834 167.993 16.5434 167.993 17.7334V28.34H167.99ZM150.567 23.07C149.743 22.7167 149.033 22.2167 148.437 21.5767C147.84 20.9367 147.377 20.1934 147.047 19.3467C146.713 18.5001 146.55 17.5734 146.55 16.5667C146.55 15.5601 146.717 14.6267 147.047 13.7701C147.377 12.9134 147.84 12.1701 148.437 11.5401C149.03 10.9101 149.74 10.4201 150.567 10.0634C151.39 9.71008 152.293 9.53008 153.28 9.53008C154.267 9.53008 155.167 9.70674 155.993 10.0634C156.817 10.4201 157.527 10.9101 158.123 11.5401C158.717 12.1701 159.18 12.9134 159.513 13.7701C159.843 14.6267 160.01 15.5601 160.01 16.5667C160.01 17.5734 159.843 18.5001 159.513 19.3467C159.18 20.1934 158.717 20.9367 158.123 21.5767C157.527 22.2167 156.82 22.7167 155.993 23.07C155.17 23.4267 154.267 23.6034 153.28 23.6034C152.293 23.6034 151.393 23.4267 150.567 23.07ZM141.52 21.4401C142.173 22.95 143.07 24.26 144.213 25.37C145.357 26.48 146.707 27.3567 148.263 27.9967C149.82 28.6367 151.49 28.9567 153.277 28.9567C155.063 28.9567 156.733 28.6367 158.29 27.9967C159.847 27.3567 161.197 26.48 162.34 25.37C163.483 24.26 164.383 22.95 165.033 21.4401C165.687 19.9301 166.013 18.3034 166.013 16.5667C166.013 14.8301 165.687 13.2034 165.033 11.6934C164.38 10.1834 163.483 8.87341 162.34 7.76342C161.197 6.65342 159.847 5.77675 158.29 5.13676C156.733 4.49676 155.063 4.17676 153.277 4.17676C151.49 4.17676 149.82 4.49676 148.263 5.13676C146.707 5.77675 145.357 6.65342 144.213 7.76342C143.07 8.87341 142.17 10.1834 141.52 11.6934C140.867 13.2034 140.54 14.8301 140.54 16.5667C140.54 18.3034 140.867 19.9301 141.52 21.4401Z" fill="black"/>
<path d="M32.69 5.46665C32.69 5.46665 25.26 0 16.7434 0C8.22674 0 0.793427 5.46665 0.793427 5.46665C0.793427 21.7766 0.473426 29.2299 16.7434 34.3799C33.01 29.2299 32.69 21.7766 32.69 5.46999V5.46665Z" fill="black"/>
<path d="M16.74 28.9565C23.5846 28.9565 29.1333 23.4079 29.1333 16.5632C29.1333 9.71859 23.5846 4.16992 16.74 4.16992C9.89535 4.16992 4.34668 9.71859 4.34668 16.5632C4.34668 23.4079 9.89535 28.9565 16.74 28.9565Z" fill="white"/>
<path d="M23.2748 23.1001C26.8832 19.4916 26.8832 13.6412 23.2748 10.0328C19.6663 6.42432 13.8159 6.42432 10.2075 10.0328C6.59904 13.6412 6.59904 19.4916 10.2075 23.1001C13.8159 26.7085 19.6663 26.7085 23.2748 23.1001Z" fill="#DC1419"/>
<path d="M19.763 23.3796H13.7197V20.6596H15.0797V12.2829H13.7197V10.3296L18.403 9.75293V20.6596H19.763V23.3796Z" fill="white"/>
<path d="M202.513 4.82715C202.903 4.82715 203.279 4.92381 203.639 5.12048C203.999 5.31715 204.279 5.59715 204.486 5.96048C204.693 6.32714 204.793 6.70714 204.793 7.10714C204.793 7.50714 204.693 7.88381 204.489 8.24381C204.289 8.60381 204.006 8.88381 203.646 9.08714C203.286 9.28714 202.906 9.39047 202.509 9.39047C202.113 9.39047 201.733 9.29047 201.373 9.08714C201.013 8.88714 200.733 8.60381 200.529 8.24381C200.329 7.88381 200.226 7.50381 200.226 7.10714C200.226 6.71048 200.329 6.32714 200.533 5.96048C200.739 5.59381 201.019 5.31381 201.379 5.12048C201.739 4.92381 202.113 4.82715 202.506 4.82715H202.513ZM202.513 5.27381C202.199 5.27381 201.899 5.35381 201.609 5.51048C201.319 5.66715 201.096 5.89381 200.929 6.18715C200.763 6.48048 200.679 6.78714 200.679 7.11048C200.679 7.43381 200.759 7.73381 200.923 8.02381C201.086 8.31381 201.309 8.54047 201.599 8.70381C201.889 8.86714 202.193 8.94714 202.509 8.94714C202.826 8.94714 203.133 8.86714 203.423 8.70381C203.713 8.54047 203.936 8.31381 204.099 8.02381C204.263 7.73381 204.343 7.43048 204.343 7.11048C204.343 6.79048 204.259 6.48048 204.093 6.18715C203.926 5.89381 203.699 5.66715 203.413 5.51048C203.123 5.35381 202.823 5.27381 202.509 5.27381H202.513Z" fill="black"/>
<path d="M202.443 7.3508H202.153V8.22414H201.656V5.99414H202.406C202.953 5.99414 203.263 6.21747 203.263 6.64747C203.263 6.94414 203.133 7.14414 202.906 7.25747L203.373 8.09414V8.22414H202.916L202.443 7.3508ZM202.153 7.01081H202.393C202.653 7.01081 202.763 6.89747 202.763 6.67747C202.763 6.45747 202.656 6.35081 202.393 6.35081H202.153V7.01414V7.01081Z" fill="black"/>
</svg>
