<svg width="53" height="52" viewBox="0 0 53 52" fill="none" xmlns="http://www.w3.org/2000/svg">
<path d="M48.5 45.7237V47.9995H4.5V45.7237L4.61948 44.965L5.21879 41.1719L6.05707 35.8616L6.65638 32.0685L6.77586 31.3099L21.9483 28.2754H31.0517L46.2241 31.3099L46.3436 32.0685L46.9429 35.8616L47.7812 41.1719L48.3805 44.965L48.5 45.7237Z" fill="#D70073"/>
<path d="M46.9427 35.8624H6.05688L6.6562 32.0693H46.3434L46.9427 35.8624Z" fill="#F5B4D7"/>
<path d="M13.6033 39.6553H39.3964V48.0001H13.6033V39.6553Z" fill="#F5B4D7"/>
<path d="M13.6033 43.4482H39.3964V47.2413H13.6033V43.4482Z" fill="#D70073"/>
<path d="M48.3807 44.965H39.3967V41.1719H47.7814L48.3807 44.965Z" fill="#F5B4D7"/>
<path d="M13.6035 41.1719V44.965H4.61951L5.21882 41.1719H13.6035Z" fill="#F5B4D7"/>
<path d="M37.8794 39.6553H39.3966V43.4484H37.8794V39.6553Z" fill="#C1D7E6"/>
<path d="M34.8449 29.034L33.6179 30.2611C32.6832 31.1959 31.5736 31.9375 30.3523 32.4434C29.131 32.9493 27.822 33.2097 26.5001 33.2097C25.1782 33.2097 23.8692 32.9493 22.6479 32.4434C21.4266 31.9375 20.317 31.1959 19.3823 30.2611L18.1553 29.034L21.9484 28.2754H31.0518L34.8449 29.034Z" fill="#BB0064"/>
<path d="M17.3964 8.55176L13.6033 16.138L15.8791 18.4138L17.3964 24.4828H21.9481V28.2759C22.5458 28.8736 23.2555 29.3478 24.0364 29.6713C24.8174 29.9948 25.6545 30.1613 26.4998 30.1613C27.3452 30.1613 28.1822 29.9948 28.9632 29.6713C29.7442 29.3478 30.4538 28.8736 31.0515 28.2759V8.55176H17.3964Z" fill="#FFE5F3"/>
<path d="M21.9484 16.138L24.3544 13.732C24.5536 13.5327 24.7902 13.3747 25.0505 13.2668C25.3108 13.159 25.5898 13.1035 25.8716 13.1035C26.1534 13.1035 26.4324 13.159 26.6928 13.2668C26.9531 13.3747 27.1896 13.5327 27.3889 13.732C27.5881 13.9312 27.7462 14.1678 27.854 14.4281C27.9618 14.6884 28.0173 14.9674 28.0173 15.2492V15.7753C28.0173 17.0011 27.6545 18.1995 26.9745 19.2195C26.8286 19.4384 26.6308 19.6179 26.3989 19.742C26.1669 19.8661 25.9079 19.9311 25.6448 19.9311H25.4472C25.1418 19.9311 24.8406 19.86 24.5675 19.7234L23.4656 19.1725L21.9484 16.138Z" fill="#BB0064"/>
<path d="M33.3274 4V15.1954C33.3274 16.2157 33.1265 17.2261 32.736 18.1689C32.3455 19.1116 31.7731 19.9682 31.0515 20.6897C29.8114 19.915 28.6569 19.011 27.6074 17.9928C27.0055 17.4113 26.4399 16.7935 25.9138 16.1427C25.3149 15.4036 24.768 14.6238 24.2771 13.809C23.5799 12.6557 22.9971 11.4371 22.537 10.1704L21.9481 8.55172H15.8791C15.2756 8.55157 14.6968 8.31174 14.27 7.88497C13.8433 7.45819 13.6034 6.87941 13.6033 6.27586V4H33.3274Z" fill="#D281AC"/>
<path d="M33.3275 10.8276V13.1035L28.0115 15.0968L27.2585 15.3793H17.3965L15.1206 13.1035L17.3965 8.55176H21.9482L33.3275 10.8276Z" fill="#D70073"/>
<path d="M28.0173 15.2491V15.7745C28.0172 16.5326 27.8784 17.2843 27.6077 17.9925C27.0058 17.411 26.4402 16.7932 25.9141 16.1424C25.3152 15.4033 24.7683 14.6235 24.2773 13.8087L24.3542 13.7319C24.6543 13.4318 25.0366 13.2275 25.4528 13.1447C25.8691 13.062 26.3005 13.1045 26.6926 13.2668C27.0846 13.4292 27.4198 13.7042 27.6556 14.0571C27.8914 14.4099 28.0173 14.8247 28.0173 15.2491V15.2491Z" fill="#BB0064"/>
<path d="M19.6725 13.1032H18.9139C18.7127 13.1032 18.5197 13.0233 18.3775 12.881C18.2352 12.7387 18.1553 12.5458 18.1553 12.3446C18.1553 12.1434 18.2352 11.9504 18.3775 11.8081C18.5197 11.6659 18.7127 11.5859 18.9139 11.5859H19.6725C19.8737 11.5859 20.0667 11.6659 20.2089 11.8081C20.3512 11.9504 20.4311 12.1434 20.4311 12.3446C20.4311 12.5458 20.3512 12.7387 20.2089 12.881C20.0667 13.0233 19.8737 13.1032 19.6725 13.1032Z" fill="white"/>
<path d="M28.0117 15.0966L27.2588 15.3792H22.707L24.3542 13.732C24.6451 13.4411 25.0135 13.24 25.4154 13.1525C25.8174 13.0651 26.236 13.0951 26.6215 13.2389C27.0069 13.3827 27.3429 13.6342 27.5893 13.9636C27.8358 14.293 27.9824 14.6862 28.0117 15.0966Z" fill="#BB0064"/>
<path d="M21.1897 16.138L23.5957 13.732C23.795 13.5327 24.0315 13.3747 24.2918 13.2668C24.5522 13.159 24.8312 13.1035 25.113 13.1035C25.3947 13.1035 25.6738 13.159 25.9341 13.2668C26.1944 13.3747 26.431 13.5327 26.6302 13.732C26.8294 13.9312 26.9875 14.1678 27.0953 14.4281C27.2032 14.6884 27.2587 14.9674 27.2587 15.2492V15.7753C27.2587 17.0011 26.8958 18.1995 26.2158 19.2195C26.0699 19.4384 25.8722 19.6179 25.6402 19.742C25.4083 19.8661 25.1492 19.9311 24.8861 19.9311H24.6886C24.3832 19.9311 24.082 19.86 23.8088 19.7234L22.7069 19.1725L21.1897 16.138Z" fill="#FFCFE9"/>
<path d="M48.4999 24.4824V32.6224C48.4998 34.7356 47.9113 36.807 46.8004 38.6047C45.6895 40.4023 44.1 41.8551 42.2099 42.8003L39.3964 44.2066L36.5829 42.8003C34.6929 41.8551 33.1034 40.4023 31.9924 38.6047C30.8815 36.807 30.293 34.7356 30.293 32.6224V24.4824C31.5708 25.5471 33.1814 26.1302 34.8447 26.1302C36.508 26.1302 38.1186 25.5471 39.3964 24.4824C40.6742 25.5471 42.2849 26.1302 43.9481 26.1302C45.6114 26.1302 47.222 25.5471 48.4999 24.4824Z" fill="#BB0064"/>
<path d="M45.4656 25.9665V32.6224C45.4707 34.1732 45.0413 35.6943 44.2261 37.0135C43.4109 38.3327 42.2424 39.3972 40.8532 40.0863L39.3966 40.8136L37.9401 40.0863C36.5509 39.3972 35.3824 38.3327 34.5672 37.0135C33.752 35.6943 33.3226 34.1732 33.3277 32.6224V25.9665C34.3855 26.1979 35.4822 26.1845 36.534 25.9273C37.5859 25.6701 38.565 25.1759 39.3966 24.4824C40.2284 25.1758 41.2075 25.6699 42.2593 25.9271C43.3111 26.1843 44.4078 26.1978 45.4656 25.9665Z" fill="#FFD3EB"/>
</svg>
