<svg width="53" height="52" viewBox="0 0 53 52" fill="none" xmlns="http://www.w3.org/2000/svg">
<path d="M29.6386 24.6568C34.7462 24.6568 38.8867 20.4804 38.8867 15.3284C38.8867 10.1765 34.7462 6 29.6386 6C24.5311 6 20.3906 10.1765 20.3906 15.3284C20.3906 20.4804 24.5311 24.6568 29.6386 24.6568Z" fill="#0069DC"/>
<path d="M30.3784 19.8061V21.2987H29.0467V19.8061C28.0627 19.6514 27.1545 19.1802 26.4573 18.4629L27.4931 17.1942C28.119 17.7822 28.9321 18.1261 29.7866 18.1643C30.4524 18.1643 30.8963 17.8658 30.8963 17.3434C30.8963 16.7464 30.4524 16.5225 29.4166 16.224C27.937 15.7763 26.6792 15.2539 26.6792 13.6121C26.6792 12.2688 27.567 11.2986 29.0467 11.0747V9.50757H30.3784V11.1494C31.1962 11.2955 31.9616 11.6558 32.598 12.1942L31.5622 13.4628C30.8223 12.9404 30.1565 12.7165 29.5646 12.7165C28.8988 12.7165 28.5288 13.0151 28.5288 13.4628C28.5288 13.9106 28.9727 14.2091 29.9345 14.5076C31.6362 15.03 32.8199 15.4778 32.8199 17.1942C32.7459 18.6121 31.8581 19.5823 30.3784 19.8061Z" fill="white"/>
<path d="M41.4022 23.2388L35.5575 29.1344L25.4217 28.0896L31.0445 26.1493C31.4649 25.9948 31.8124 25.6865 32.018 25.2856C32.2236 24.8847 32.2722 24.4205 32.1542 23.9851C32.0239 23.5578 31.7373 23.1967 31.3525 22.9749C30.9678 22.7531 30.5137 22.6874 30.0827 22.791L20.8347 25.2538C20.5429 25.1919 20.2447 25.1668 19.9468 25.1791C18.9375 25.1729 17.9619 25.5452 17.2094 26.2239H17.1355L7.96143 35.4777L16.0257 43.6121L22.8322 34.3583H36.8892L45.5453 23.2388C44.9879 22.7001 44.2458 22.3994 43.4738 22.3994C42.7018 22.3994 41.9597 22.7001 41.4022 23.2388Z" fill="#B4C8EB"/>
<path d="M17.7274 45.7764L21.9445 41.5227C22.0146 41.4552 22.0703 41.3742 22.1084 41.2844C22.1465 41.1946 22.1662 41.098 22.1662 41.0003C22.1662 40.9026 22.1465 40.806 22.1084 40.7162C22.0703 40.6264 22.0146 40.5453 21.9445 40.4779L12.4745 31.0002C12.4077 30.9295 12.3273 30.8733 12.2383 30.8349C12.1493 30.7964 12.0535 30.7766 11.9567 30.7766C11.8598 30.7766 11.764 30.7964 11.675 30.8349C11.586 30.8733 11.5056 30.9295 11.4388 31.0002L7.22168 35.254C7.15162 35.3214 7.09585 35.4025 7.05775 35.4922C7.01965 35.582 7 35.6787 7 35.7764C7 35.874 7.01965 35.9707 7.05775 36.0605C7.09585 36.1503 7.15162 36.2313 7.22168 36.2988L16.6916 45.7764C16.7585 45.8471 16.8388 45.9033 16.9279 45.9418C17.0169 45.9802 17.1127 46 17.2095 46C17.3064 46 17.4022 45.9802 17.4912 45.9418C17.5802 45.9033 17.6606 45.8471 17.7274 45.7764Z" fill="#0046B4"/>
</svg>
