<svg width="53" height="52" viewBox="0 0 53 52" fill="none" xmlns="http://www.w3.org/2000/svg">
<rect x="0.5" width="52" height="52" fill="white"/>
<mask id="mask0_153_682" style="mask-type:alpha" maskUnits="userSpaceOnUse" x="5" y="8" width="42" height="42">
<path d="M26 49.4618C37.3218 49.4618 46.5 40.372 46.5 29.1591C46.5 17.9463 37.3218 8.85645 26 8.85645C14.6782 8.85645 5.5 17.9463 5.5 29.1591C5.5 40.372 14.6782 49.4618 26 49.4618Z" fill="#FFF1E1"/>
<path d="M26 49.4618C37.3218 49.4618 46.5 40.372 46.5 29.1591C46.5 17.9463 37.3218 8.85645 26 8.85645C14.6782 8.85645 5.5 17.9463 5.5 29.1591C5.5 40.372 14.6782 49.4618 26 49.4618Z" fill="#FFF1E1"/>
</mask>
<g mask="url(#mask0_153_682)">
<path d="M26 49.4618C37.3218 49.4618 46.5 40.372 46.5 29.1591C46.5 17.9463 37.3218 8.85645 26 8.85645C14.6782 8.85645 5.5 17.9463 5.5 29.1591C5.5 40.372 14.6782 49.4618 26 49.4618Z" fill="#F7F7F7"/>
<path d="M40.5207 33.8731C31.2705 29.1064 20.3349 29.1064 11.0841 33.8731C9.07407 34.9091 7.80762 37.0036 7.80762 39.2918V52.7498C7.80762 53.5748 8.46669 54.2443 9.27991 54.2443H43.7973V39.2918C43.7973 37.0036 42.5313 34.9091 40.5207 33.8731Z" fill="#FFDCB4"/>
<path d="M40.5209 33.8734C35.1454 31.1036 29.2011 29.9464 23.3486 30.3957V31.0393C23.3486 32.913 24.6349 34.5307 26.4382 34.932C29.102 35.524 31.7094 36.4599 34.1954 37.7411C36.2035 38.7604 37.4719 40.8441 37.4719 43.1234V54.2447H43.7974V39.2921C43.7974 37.0039 42.5315 34.9094 40.5209 33.8734Z" fill="#FFDCB4"/>
<path d="M38.1165 32.7571C36.6084 32.1308 35.0656 31.6241 33.501 31.2366L26.1352 41.7531C25.8863 42.1087 25.365 42.1033 25.1229 41.7432L18.0663 31.2464C16.5148 31.6319 14.9845 32.1357 13.489 32.7571V54.2443H38.1165V32.7571Z" fill="#FF8C00"/>
<path d="M30.4143 35.6441L33.501 31.2368L31.2711 29.4661C30.8188 29.1277 30.1955 29.1532 29.7712 29.5274L25.8027 33.0306L29.8988 35.5568C30.0592 35.6558 30.2433 35.6818 30.4143 35.6441Z" fill="white"/>
<path d="M18.0663 31.2467L20.9539 35.542C21.1756 35.6907 21.4689 35.7049 21.7086 35.5567L25.8047 33.0306L21.8362 29.5274C21.4119 29.1532 20.7886 29.1277 20.3359 29.4661L18.0663 31.2467Z" fill="white"/>
</g>
<path d="M25.8038 33.0298L29.6742 29.6134V23.563H21.931V29.6114L25.8038 33.0298Z" fill="#FED6A6"/>
<path d="M17.6103 12.9785H16.2027C15.0082 12.9785 14.0409 13.962 14.0409 15.1745V16.2129C14.0409 17.426 15.0082 18.4089 16.2027 18.4089H17.6103V12.9785Z" fill="#FED6A6"/>
<path d="M33.995 12.9785H35.403C36.5975 12.9785 37.5648 13.962 37.5648 15.1745V16.2129C37.5648 17.426 36.5975 18.4089 35.403 18.4089H33.995V12.9785Z" fill="#FED6A6"/>
<path d="M25.8029 3.26758C20.7642 3.26954 16.6826 7.42218 16.6923 12.5377L16.7058 19.8433C16.7058 25.5695 23.0579 27.8293 25.8029 27.8813C28.5475 27.8293 34.8995 25.5695 34.8995 19.8433L34.9131 12.5377C34.9227 7.42218 30.8417 3.26954 25.8029 3.26758Z" fill="#FFE3C2"/>
<path d="M34.5904 4.80594C31.1167 1.9247 27.0719 3.35502 27.0719 3.35502C33.3684 5.0924 34.9132 12.9719 34.9132 12.9719C34.9132 12.9719 36.4773 13.0994 37.0141 11.6524C37.6234 10.0097 36.7508 6.59826 34.5904 4.80594Z" fill="#B9B9B9"/>
<path d="M17.0153 4.80594C20.489 1.9247 24.5338 3.35502 24.5338 3.35502C18.2373 5.0924 16.6925 12.9719 16.6925 12.9719C16.6925 12.9719 15.1284 13.0994 14.5916 11.6524C13.9823 10.0097 14.8549 6.59826 17.0153 4.80594Z" fill="#B9B9B9"/>
<path d="M29.3926 10.1519H22.2133C21.6852 10.1519 21.2576 9.71728 21.2576 9.18165C21.2576 8.64553 21.6852 8.21143 22.2133 8.21143H29.3926C29.9203 8.21143 30.3484 8.64553 30.3484 9.18165C30.3484 9.71728 29.9203 10.1519 29.3926 10.1519Z" fill="#FED6A6"/>
<path d="M27.8086 12.9302H23.7971C23.2689 12.9302 22.8413 12.4956 22.8413 11.96C22.8413 11.4243 23.2689 10.9897 23.7971 10.9897H27.8086C28.3362 10.9897 28.7638 11.4243 28.7638 11.96C28.7638 12.4956 28.3362 12.9302 27.8086 12.9302Z" fill="#FED6A6"/>
<path d="M29.0945 20.5717C29.176 20.5656 29.2583 20.5745 29.3343 20.5979C29.4103 20.6212 29.4779 20.6582 29.5312 20.7057C29.5845 20.7532 29.622 20.8099 29.6406 20.8708C29.6591 20.9318 29.6582 20.9953 29.6377 21.0559C29.3661 22.5085 27.6458 23.6152 25.6538 23.6152C23.6618 23.6152 21.9415 22.5085 21.6699 21.0559C21.6495 20.9953 21.6485 20.9318 21.667 20.8708C21.6856 20.8099 21.7231 20.7532 21.7764 20.7057C21.8297 20.6582 21.8973 20.6212 21.9733 20.5979C22.0493 20.5745 22.1316 20.5656 22.2131 20.5717H29.0945Z" fill="#FFBD71"/>
</svg>
