<svg width="53" height="52" viewBox="0 0 53 52" fill="none" xmlns="http://www.w3.org/2000/svg">
<path d="M9.16675 11.2666V45.0666C9.16675 45.5263 9.34937 45.9672 9.67443 46.2923C9.99949 46.6173 10.4404 46.7999 10.9001 46.7999H38.6334C39.0931 46.7999 39.534 46.6173 39.8591 46.2923C40.1841 45.9672 40.3667 45.5263 40.3667 45.0666V11.2666H9.16675Z" fill="#F5B4D7"/>
<path d="M38.6334 7.7998H10.9001C10.4404 7.7998 9.99949 7.98242 9.67443 8.30749C9.34937 8.63255 9.16675 9.07343 9.16675 9.53314V12.9998H40.3667V9.53314C40.3667 9.07343 40.1841 8.63255 39.8591 8.30749C39.534 7.98242 39.0931 7.7998 38.6334 7.7998Z" fill="#F00082"/>
<path d="M33.4334 9.53353H16.1001V6.93353C16.1001 6.47382 16.2827 6.03294 16.6078 5.70788C16.9328 5.38281 17.3737 5.2002 17.8334 5.2002H31.7001C32.1598 5.2002 32.6007 5.38281 32.9257 5.70788C33.2508 6.03294 33.4334 6.47382 33.4334 6.93353V9.53353Z" fill="#D70073"/>
<path d="M32.5668 35.5332H23.9001V37.2665H32.5668V35.5332Z" fill="white"/>
<path d="M20.4335 35.5332H16.9668V37.2665H20.4335V35.5332Z" fill="white"/>
<path d="M32.5668 21.667H23.9001V23.4003H32.5668V21.667Z" fill="white"/>
<path d="M32.5668 28.6006H23.9001V30.3339H32.5668V28.6006Z" fill="white"/>
<path d="M18.8733 24.7953L16.5247 22.4466L17.7467 21.2246L18.8733 22.3513L20.6933 20.5312L21.9153 21.7533L18.8733 24.7953Z" fill="#D70073"/>
<path d="M18.8733 31.7288L16.5247 29.3802L17.7467 28.1582L18.8733 29.2848L20.6933 27.4648L21.9153 28.6868L18.8733 31.7288Z" fill="#D70073"/>
<path d="M32.6534 39.6066L28.6667 40.5599C28.5942 40.5857 28.5158 40.5903 28.4408 40.5733C28.3657 40.5563 28.297 40.5184 28.2426 40.464C28.1882 40.4096 28.1503 40.3409 28.1333 40.2659C28.1163 40.1908 28.121 40.1125 28.1467 40.0399L29.1 36.0533C29.1 35.8799 29.1867 35.7933 29.36 35.6199L39.5867 25.3933C39.8214 25.1468 40.1038 24.9506 40.4166 24.8165C40.7295 24.6824 41.0663 24.6133 41.4067 24.6133C41.7471 24.6133 42.0839 24.6824 42.3967 24.8165C42.7096 24.9506 42.9919 25.1468 43.2267 25.3933C43.4732 25.628 43.6694 25.9104 43.8035 26.2232C43.9375 26.5361 44.0067 26.8729 44.0067 27.2133C44.0067 27.5537 43.9375 27.8905 43.8035 28.2033C43.6694 28.5162 43.4732 28.7985 43.2267 29.0333L33.0867 39.3466C32.9545 39.4522 32.8087 39.5397 32.6534 39.6066Z" fill="#D70073"/>
</svg>
