<svg width="53" height="52" viewBox="0 0 53 52" fill="none" xmlns="http://www.w3.org/2000/svg">
<g clip-path="url(#clip0_160_594)">
<path d="M34.069 7.85083L42.0684 15.8235L35.3002 17.6236C35.3002 17.6236 32.7963 13.336 32.8621 13.1854C32.9279 13.0348 34.069 7.85083 34.069 7.85083Z" fill="#358502"/>
<path d="M40.9006 15.3035H36.1C35.6758 15.3035 35.269 15.1356 34.969 14.8368C34.6691 14.5379 34.5006 14.1326 34.5006 13.71V8.92682C34.5006 8.50418 34.3321 8.09885 34.0321 7.8C33.7322 7.50115 33.3254 7.33325 32.9012 7.33325H15.3006C14.8764 7.33325 14.4696 7.50115 14.1696 7.8C13.8697 8.09885 13.7012 8.50418 13.7012 8.92682V42.4064C13.7012 42.829 13.8697 43.2343 14.1696 43.5332C14.4696 43.832 14.8764 43.9999 15.3006 43.9999H40.9006C41.3247 43.9999 41.7316 43.832 42.0315 43.5332C42.3314 43.2343 42.5 42.829 42.5 42.4064V16.8995C42.5 16.4767 42.3315 16.0711 42.0317 15.7718C41.7318 15.4726 41.325 15.3042 40.9006 15.3035Z" fill="#C8EBB4"/>
<path d="M35 34H21V36H35V34Z" fill="white"/>
<path d="M35 30H21V32H35V30Z" fill="white"/>
<path d="M35 26H21V28H35V26Z" fill="white"/>
<path d="M35 22H21V24H35V22Z" fill="white"/>
<path d="M35 18H21V20H35V18Z" fill="white"/>
</g>
<defs>
<clipPath id="clip0_160_594">
<rect width="32" height="36.6667" fill="white" transform="translate(10.5 7.33325)"/>
</clipPath>
</defs>
</svg>
