<svg width="44" height="44" viewBox="0 0 44 44" fill="none" xmlns="http://www.w3.org/2000/svg">
<path d="M10.0807 35.4431C9.24966 35.4431 8.57794 34.7695 8.57794 33.9408V10.061C8.57794 9.23035 9.24966 8.56335 10.0785 8.56335H25.9378C26.5434 8.56335 27.0329 9.05728 27.0329 9.6651V12.7787C27.0329 13.3887 26.5434 13.8824 25.9378 13.8824H17.925C16.5656 13.8824 15.459 14.9933 15.459 16.3634V20.1414C15.459 21.5115 16.5634 22.6225 17.925 22.6225H25.9059C26.5092 22.6225 27.0376 23.4167 27.0376 24.0267V27.1242C27.0376 27.732 26.5481 28.2259 25.9423 28.2259L17.9273 28.2348C16.5679 28.2348 15.4613 29.448 15.4613 30.9456L15.4545 34.3322C15.4545 34.7125 15.6025 35.1631 15.8825 35.4453L10.0807 35.4431Z" fill="#0078B9"/>
<path d="M10.0011 7H34.0142C35.6696 7 37.0153 8.34288 37.0153 9.99967V34.0001C37.0153 35.6571 35.6718 37 34.0142 37H10.0011C8.34343 37.0022 7 35.6593 7 34.0026V9.99967C7 8.34288 8.34343 7 10.0011 7Z" fill="black"/>
<path fill-rule="evenodd" clip-rule="evenodd" d="M33.9665 35.4385H18.1186C17.5129 35.4385 17.0234 34.9424 17.0234 34.3349V30.8935C17.0234 30.2834 17.5129 29.7917 18.1186 29.7917H26.0995C27.4588 29.7917 28.5655 28.6789 28.5655 27.3088V23.5624C28.5655 22.1923 27.461 21.0794 26.0995 21.0794L18.0958 21.0769C17.4902 21.0769 17.0006 20.5833 17.0006 19.9732V16.5341C17.0006 15.9243 17.4925 15.4326 18.0958 15.4326L26.1382 15.4279C27.4999 15.4279 28.6019 14.2173 28.6019 12.7196V9.69247C28.6019 9.31245 28.438 8.84352 28.1669 8.5635L33.9551 8.56128C34.784 8.56128 35.4533 9.23494 35.4533 10.0636L35.4488 33.9432C35.4488 34.7718 34.7726 35.4433 33.9437 35.4433L33.9665 35.4385Z" fill="#0779BF"/>
<path d="M10.0807 35.4431C9.24966 35.4431 8.57794 34.7695 8.57794 33.9408V10.061C8.57794 9.23035 9.24966 8.56335 10.0785 8.56335H25.9378C26.5434 8.56335 27.0329 9.05728 27.0329 9.6651V12.7787C27.0329 13.3887 26.5434 13.8824 25.9378 13.8824H17.925C16.5656 13.8824 15.459 14.9933 15.459 16.3634V20.1414C15.459 21.5115 16.5634 22.6225 17.925 22.6225H25.9059C26.5092 22.6225 27.0376 23.4167 27.0376 24.0267V27.1242C27.0376 27.732 26.5481 28.2259 25.9423 28.2259L17.9273 28.2348C16.5679 28.2348 15.4613 29.448 15.4613 30.9456L15.4545 34.3322C15.4545 34.7125 15.6025 35.1631 15.8825 35.4453L10.0807 35.4431Z" fill="white"/>
</svg>
