<svg width="44" height="44" viewBox="0 0 44 44" fill="none" xmlns="http://www.w3.org/2000/svg">
<rect x="0.5" y="0.5" width="43" height="43" rx="6.5" stroke="#F1F2F2"/>
<g clip-path="url(#clip0_13003_810)">
<path d="M32.5123 8.86426H11.4263V35.5756H32.5123V8.86426Z" fill="white"/>
<path d="M7.43018 6.68457V38.3148H36.5695V6.68457H7.43018ZM36.3851 38.128H7.6146V6.87136H36.3851V38.128Z" fill="#003A65"/>
<path d="M35.4628 7.68066H8.41357V37.3184H35.4628V7.68066ZM27.9628 21.192C27.9628 22.0014 27.6554 22.5618 27.348 22.7486C27.1021 22.8731 27.6554 21.5656 27.5324 21.0052C27.5324 20.9429 27.5324 20.9429 27.5324 20.8807L27.7169 20.9429C27.8398 20.9429 27.9013 20.9429 27.9628 20.8807C27.9013 20.9429 27.9628 21.0675 27.9628 21.192ZM26.4873 17.9542H26.4259L26.3644 17.892C26.3644 17.892 26.3644 17.8297 26.4259 17.8297L26.4873 17.7675C26.4873 17.7675 26.5488 17.7675 26.5488 17.8297L26.6103 17.892C26.6103 17.892 26.6103 17.892 26.6103 17.9542C26.6103 17.9542 26.6103 17.9542 26.6103 18.0165C26.5488 17.9542 26.5488 17.9542 26.4873 17.9542C26.5488 17.9542 26.5488 17.9542 26.4873 17.9542ZM28.0857 18.4524C28.2087 18.4524 28.2701 18.6392 28.2087 18.8259V19.2618C28.2087 19.2618 28.2087 19.2618 28.2087 19.3241C28.1472 20.009 27.2251 20.009 27.2251 20.009L27.2865 20.1958H26.4873C26.4873 19.8222 26.18 19.3863 26.18 19.3863C26.2414 18.9505 26.18 18.7014 26.2414 18.5769L26.3029 18.5146C26.3644 18.5146 26.4259 18.4524 26.4873 18.4524H28.0857ZM27.348 18.141C27.4095 18.141 27.5939 18.2033 27.5939 18.2656H27.2865H27.2251H27.0406C27.1021 18.2033 27.1021 18.2033 27.1021 18.141C27.1636 18.0788 27.1636 18.0165 27.2251 18.0165C27.2865 18.0165 27.4095 17.9542 27.4095 18.0788L27.348 18.141ZM27.2865 17.5184C27.1021 17.4561 26.9177 17.3939 26.7332 17.3316C26.5488 17.3316 26.2414 17.5184 26.1185 17.5184C25.8726 17.5807 26.057 17.2693 26.18 17.1448C26.3644 16.8958 26.3644 16.958 26.6103 16.958C26.9791 16.8958 27.1021 17.1448 27.348 17.2693C27.471 17.3939 27.348 17.5184 27.2865 17.5184ZM26.057 18.0788C26.057 18.0165 26.1185 17.9542 26.18 18.0165C26.18 18.0788 26.2414 18.0788 26.2414 18.141C26.2414 18.141 26.2414 18.2033 26.3029 18.2033C26.2414 18.2033 26.18 18.2656 26.1185 18.2656V18.2033C26.057 18.141 26.057 18.141 26.057 18.0788ZM15.4218 25.1146C14.4382 25.9241 14.0693 25.4882 13.639 25.1769C13.2701 24.8656 13.3316 24.6788 13.0857 24.492C12.8398 24.3052 12.6554 24.492 12.4095 23.7448C12.1636 22.9976 12.471 22.6241 12.5324 22.0637C12.5939 21.5033 12.4095 21.8146 12.348 20.6316C12.2865 19.7599 12.5939 18.8882 13.0857 18.2033C13.4546 17.7675 13.7619 17.7675 14.0693 17.4561C14.3152 17.1448 14.1923 16.8335 14.1923 16.3354C14.1923 15.775 14.4996 15.7127 14.807 15.2769C15.1144 14.841 15.1759 14.2807 15.1759 13.9071C15.1759 13.5335 15.4832 13.0976 15.7906 12.8486C16.0365 12.5995 16.5283 12.3505 16.8357 11.9769C16.9587 11.7901 17.0816 11.6656 17.2046 11.4788C16.7742 11.6033 16.3439 11.7278 15.9136 11.9146C16.1595 11.6656 16.4054 11.4165 16.7128 11.1675C17.266 10.7939 17.8193 10.4826 18.4341 10.2958C18.6185 10.2335 18.8029 10.1712 18.9873 10.1712H19.0488C19.0488 10.1712 19.0488 10.1712 19.0488 10.109V10.0467C19.0488 10.0467 19.0488 10.0467 18.9873 9.98444C18.9873 9.98444 18.9873 9.98444 18.9259 9.92217V9.85991V9.79765C18.9259 9.79765 18.9259 9.79765 18.9873 9.79765C20.7087 9.3618 22.7988 9.48632 24.3357 10.109C25.1964 10.4826 25.9955 11.1052 26.3644 11.7901C26.7947 12.475 26.8562 12.475 27.1636 13.4712C27.4095 14.2807 27.348 15.3392 27.4095 15.8995C27.4095 15.9618 27.4095 16.0241 27.4095 16.0863C26.9792 15.9618 26.6718 16.0241 26.5488 16.0241C26.3029 16.1486 26.3029 16.3976 26.18 16.2731C26.057 16.2109 25.9955 15.4637 25.7496 15.8995C25.6882 16.0241 25.5652 16.709 25.5037 16.8958C25.4423 17.0826 25.3808 17.2071 25.3808 17.3939C25.3808 17.5807 25.4423 17.7675 25.5037 17.892V17.9542C25.1349 17.8297 24.6431 17.892 24.3972 18.0788C24.3357 18.0788 24.3357 18.141 24.3357 18.2033C24.3357 18.2656 24.2742 18.2656 24.2742 18.3278C24.2742 18.3901 24.2742 18.3901 24.2742 18.4524C24.2742 18.5146 24.2742 18.5146 24.2742 18.5769C24.2742 18.6392 24.2742 18.6392 24.2742 18.7014C24.2128 18.7637 24.0898 18.7637 24.0898 18.7637H24.0283V18.8882C24.0283 18.8882 24.0283 18.8882 23.9669 18.8259C23.9054 18.8259 23.8439 18.7637 23.7824 18.7637H23.721C23.721 18.5146 23.721 18.2656 23.598 18.141C23.5365 18.0788 23.5365 18.0788 23.4751 18.0788C23.5365 17.9542 23.5365 17.8297 23.598 17.7052C23.7824 17.3939 24.1513 17.1448 24.3357 16.8958C24.5816 16.5844 24.5816 16.2731 24.4587 16.3354C23.9054 16.5222 24.2128 15.8373 24.0898 15.8373C23.6595 15.8373 23.2906 15.775 22.8603 15.6505C22.3685 15.5259 19.9095 16.1486 19.9095 16.3354C19.9095 16.5222 20.8316 16.3976 20.8316 16.3976C21.139 16.5844 20.5857 16.8958 20.4628 17.1448C20.3398 17.3939 20.1554 17.5807 19.971 17.7675C19.9095 17.7675 19.848 17.892 19.971 18.0165C20.2783 18.2033 20.5857 18.2656 20.8931 18.2033C20.8316 18.2656 20.7701 18.3278 20.7087 18.3901C20.6472 18.4524 20.6472 18.5769 20.6472 18.6392V18.7637H20.3398H20.2783C20.2783 18.7637 20.2169 18.7637 20.2169 18.8259C19.6021 18.5769 18.4955 18.2033 18.0037 18.0788C17.9423 18.0788 17.8808 18.0788 17.8193 18.0788C18.0037 17.6429 18.1882 17.2071 18.4341 16.8335C18.68 16.3354 18.7414 16.2731 18.6185 15.5259C18.4955 14.7788 18.4955 14.0939 18.4955 13.3467C18.557 13.0976 18.2496 12.9731 18.1267 13.2222C18.1267 13.5335 17.9423 14.0939 17.6964 14.3429C17.4505 14.592 17.2046 14.6542 16.8357 15.3392C17.1431 14.9033 17.389 15.0278 17.8808 14.7165C17.8193 15.0278 17.5734 15.1524 17.2046 15.4637C16.8357 15.775 16.5283 16.4599 16.6513 16.958C16.8357 16.4599 17.389 15.775 17.6964 15.775C18.0652 15.7127 17.7578 16.5844 17.4505 17.0826C17.1431 17.5807 17.0201 18.2033 16.6513 18.8882C16.2824 19.5731 15.975 19.075 15.6062 19.1373C15.1759 19.1995 14.807 20.6316 15.1144 21.3165C15.4218 21.9392 15.9751 22.8731 15.9751 23.4958C16.1595 24.0561 15.8521 24.6788 15.4218 25.1146ZM22.2455 20.1958H21.5078C21.4464 20.1958 21.4464 20.1958 21.3849 20.1958C21.3234 20.1958 21.3234 20.1958 21.2619 20.1335C21.2005 20.0712 21.139 20.009 21.0775 19.9467C21.016 19.8844 21.016 19.8222 20.9546 19.6976C20.9546 19.6354 20.8931 19.5109 20.8931 19.3863V19.2618C20.8931 19.0127 20.9546 18.7637 20.9546 18.7014C21.016 18.3901 21.016 18.2656 21.5693 18.2656H21.7537H22.1226H22.9832H23.4136C23.4136 18.2656 23.4136 18.2656 23.4751 18.2656C23.4751 18.2656 23.4751 18.2656 23.5365 18.2656C23.598 18.4524 23.598 18.6392 23.598 18.8259V18.8882C23.598 19.0127 23.598 19.1373 23.5365 19.2618C23.5365 19.8222 22.7988 20.1958 22.2455 20.1958ZM21.7537 17.7052V17.6429L21.8152 17.5807H21.8767C21.8767 17.5807 21.9382 17.5807 21.9382 17.6429L21.9996 17.7052V17.7675C21.9996 17.7675 22.0611 17.8297 21.9996 17.8297H21.9382H21.8767C21.8767 17.8297 21.8152 17.8297 21.8152 17.7675C21.8152 17.7675 21.8152 17.7675 21.7537 17.7052ZM21.9996 18.141C22.307 18.141 22.43 17.892 22.43 17.7675C22.43 17.6429 22.7373 17.7052 22.7373 17.7052L22.6144 18.141H21.9996ZM22.6759 17.2071C22.3685 17.2071 21.6308 17.0826 21.139 17.6429C21.0775 17.7052 20.8316 17.3316 21.016 17.1448C21.139 16.958 21.3234 16.8335 21.5078 16.7712C21.6923 16.709 21.9382 16.6467 22.1226 16.709C22.307 16.7712 22.2455 16.8958 22.6144 17.0826C22.7373 17.0203 22.7373 17.1448 22.6759 17.2071ZM16.3439 21.9392C16.221 21.6278 16.221 21.3165 16.221 21.0052L16.098 20.4448C16.098 20.0712 16.5283 20.3826 16.9587 20.1958C17.389 20.009 17.266 19.5731 17.266 19.075C17.266 18.7014 17.4505 18.6392 17.6349 18.3901C17.7578 18.3901 17.8193 18.3901 17.9423 18.4524C18.68 18.6392 19.4177 18.8882 20.1554 19.1995C20.1554 19.2618 20.2169 19.2618 20.2169 19.3241C20.2783 19.3241 20.2783 19.3863 20.3398 19.3863H20.6472V19.4486C20.6472 19.5109 20.6472 19.5109 20.6472 19.5731C20.6472 19.6976 20.7087 19.8222 20.7701 19.9467C20.8316 20.0712 20.8931 20.1958 20.9546 20.258C21.016 20.3203 21.139 20.3826 21.2619 20.4448C21.2619 20.7561 21.2619 21.0675 21.3234 21.1297C21.3849 21.192 21.4464 21.192 21.5078 21.192C21.9996 20.9429 22.4914 20.8184 23.0447 20.8184C23.0447 20.7561 23.1062 20.6939 23.1062 20.6316C23.1677 20.5693 23.1677 20.5071 23.2291 20.5071C23.3521 20.5071 23.4751 20.4448 23.5365 20.3203C23.7824 20.1958 23.9669 20.1335 23.9669 20.009L24.2128 19.6354C24.2128 19.3863 24.2128 19.3241 24.1513 19.2618C24.2742 19.2618 24.3972 19.1995 24.4587 19.075C24.4587 19.0127 24.5201 19.0127 24.5201 18.9505C24.5201 18.8882 24.5201 18.8259 24.4587 18.7637C24.4587 18.7637 24.4587 18.7637 24.4587 18.7014V18.6392C24.4587 18.6392 24.4587 18.5769 24.5201 18.5769C24.6431 18.5146 24.8275 18.4524 25.0119 18.4524C25.1964 18.4524 25.3808 18.4524 25.5037 18.5769C25.5652 18.8882 25.5037 19.1373 25.5652 19.3241C25.5652 19.5731 25.9341 20.0712 25.9955 20.3203C26.057 20.5693 25.7496 21.3165 25.3193 21.3788C24.889 21.441 24.7046 20.8807 24.3972 20.8807C24.2128 20.8807 23.9669 21.0675 23.6595 21.0675C23.4136 21.1297 23.1062 21.0052 23.1062 21.0675C23.0447 21.192 23.4136 21.5656 23.598 21.6901C23.6595 21.7524 23.721 21.7524 23.7824 21.7524C23.8439 21.7524 23.9669 21.7524 24.0283 21.7524C24.0898 21.6901 24.0898 21.2542 24.1513 21.3788C24.3357 21.5656 24.5201 21.8146 24.6431 22.1259C24.766 22.4373 24.766 22.6863 24.766 22.9976C24.889 23.1844 25.0119 23.0599 25.0119 22.8109C25.0119 22.5618 25.0734 22.375 25.0734 22.1259C25.2578 22.1882 25.5652 22.4995 25.5652 23.0599C25.8726 23.309 25.7496 23.4958 25.5652 23.4335C25.3808 23.3712 25.1349 23.3712 24.9505 23.4335C24.7046 23.4958 24.5201 23.4335 24.3357 23.3712C24.2128 23.309 24.0898 23.309 23.9669 23.309C23.8439 23.309 23.721 23.309 23.598 23.3712C23.3521 23.4335 22.9218 23.4958 22.8603 23.309C22.7988 23.1222 22.9218 23.0599 22.9832 22.9354C23.1062 22.8109 22.8603 22.5618 22.5529 22.7486C22.1841 22.9354 21.5078 23.3712 21.3234 23.4335C21.0775 23.4958 21.139 23.6826 21.4464 23.6826C21.7537 23.6203 22.0611 23.4335 22.307 23.4958C22.6144 23.4958 22.6759 23.558 23.0447 23.6826C23.4136 23.7448 23.9669 23.6203 24.2742 23.7448C24.5201 23.8693 24.8275 23.9316 25.0734 23.9316C25.4423 23.9316 25.6267 23.8693 25.6882 23.9939C25.7496 24.1184 25.7496 24.3675 25.0734 24.5542C24.3972 24.741 24.3357 24.6788 24.2128 24.9278C24.0898 25.1769 24.2128 25.3014 24.2742 25.3014C24.3357 25.3014 24.8275 25.3014 25.0734 25.9241C25.3193 26.5467 25.0734 27.1071 24.4587 27.3561C23.9054 27.6052 21.9382 26.9203 20.9546 26.0486C20.6472 25.8618 20.2783 25.675 20.4013 25.9863C20.5857 26.2354 21.5078 27.1071 21.6923 27.7297C21.8767 28.3524 21.3849 28.2278 20.8931 27.9165C20.4013 27.6052 19.6636 26.3599 19.2947 26.4222C18.9259 26.4844 20.0939 27.792 20.1554 28.1656C20.2169 28.5392 20.0324 28.2278 19.9095 28.2278C19.7865 28.2278 18.3726 26.9203 17.9423 26.1109C17.1431 24.6788 17.1431 23.6203 17.266 23.4335C17.389 23.2467 17.4505 23.9939 17.8193 24.492C18.1882 25.0524 18.3726 24.9278 18.1882 24.4297C18.0037 23.9316 18.1267 23.3712 18.1267 22.9976C18.1267 22.6863 18.0037 22.2505 17.8193 22.4995C17.5734 23.1844 17.2046 23.1844 17.0201 22.9976C16.7742 22.4995 16.5283 22.2505 16.3439 21.9392ZM24.5816 35.2637C24.4587 35.3259 24.2742 35.2637 24.1513 35.2014C24.0283 35.1392 23.9054 35.0146 23.8439 34.8901C23.8439 34.8278 23.7824 34.7656 23.7824 34.7033C23.7824 34.641 23.7824 34.5788 23.8439 34.5165C23.9054 34.4542 23.9054 34.392 23.9669 34.3297C24.0283 34.2675 24.0898 34.2675 24.1513 34.2675C24.2742 34.2052 24.4587 34.2675 24.5816 34.3297C24.7046 34.392 24.8275 34.5165 24.889 34.641C24.889 34.7033 24.9505 34.7656 24.9505 34.8278C24.9505 34.8901 24.9505 34.9524 24.889 35.0146C24.8275 35.0769 24.8275 35.1392 24.766 35.2014C24.7046 35.2014 24.6431 35.2637 24.5816 35.2637ZM24.889 33.458C24.2742 33.3958 21.3849 32.8354 19.3562 30.4071C17.3275 27.9788 16.9587 26.9825 16.8972 26.2976C16.8357 25.7995 16.8972 25.3014 17.0816 24.8033C17.5119 26.1109 19.2332 29.0995 23.1062 30.3448C24.3357 30.7184 25.2578 30.2825 25.6267 30.0335C25.9955 29.7844 26.2414 28.8505 26.2414 28.8505C26.2414 28.8505 26.4873 29.4109 26.4873 29.7222C26.4259 30.0335 26.057 30.2825 26.1185 30.6561C26.18 31.0297 26.6718 31.2788 25.9955 31.6524C25.3808 31.9637 24.766 32.3995 23.4751 31.9637C22.1841 31.5278 20.1554 29.8467 20.1554 29.8467C20.2783 30.4693 21.4464 31.341 22.2455 31.8392C23.0447 32.3373 23.7824 32.7109 24.2742 32.7109C24.5816 33.0844 25.5652 33.5203 24.889 33.458ZM29.4996 34.0184C29.1923 34.0807 28.8234 33.6448 28.639 34.0807C28.4546 34.5165 28.8234 34.5788 28.7619 34.8278C28.7005 35.0769 27.0406 34.5165 26.1185 33.8316C25.6882 33.5203 25.1964 32.6486 25.1964 32.6486C26.3029 32.2127 26.8562 31.5901 27.2251 31.4656C27.348 31.4033 27.5324 31.4033 27.6554 31.4656C27.7783 31.5278 27.9013 31.6524 27.9628 31.7769C28.7005 31.6524 29.0693 31.5278 29.1308 31.9637C29.1308 32.275 29.0693 32.5241 28.9464 32.8354C29.3152 32.8976 29.6226 33.0222 29.6841 33.209C29.807 33.3335 29.807 33.9561 29.4996 34.0184ZM29.8685 24.3052C29.6841 24.741 29.5611 25.4259 29.3152 25.4882C29.3152 25.0524 29.4382 24.6165 29.6226 24.2429C29.7455 23.9316 29.807 23.2467 29.807 22.4995C29.807 21.7524 29.7455 21.441 29.5611 20.7561C29.4382 21.3165 29.4382 22.0014 29.2537 22.4373C29.0693 22.8731 29.1923 22.0014 29.2537 21.1297C29.3152 20.1958 29.0693 19.5731 29.0078 18.9505C28.9464 18.0788 28.8849 17.2693 28.8849 16.3976C29.0693 17.0203 29.1308 17.5807 29.1923 18.2033C29.1923 18.7637 29.4996 19.6976 29.6841 20.009C29.8685 20.3203 30.1759 21.7524 30.1759 22.3127C30.1759 22.9976 30.0529 23.6826 29.8685 24.3052Z" fill="#003A65"/>
<path d="M25.012 31.777C25.5038 31.7147 26.0571 31.1544 25.6268 31.2166C24.4587 31.3412 22.9218 31.0921 22.2456 30.6562C22.9833 31.5279 24.5202 31.8393 25.012 31.777Z" fill="#003A65"/>
<path d="M14.4996 18.3282C14.0693 18.6395 13.639 19.0131 13.516 19.5112C13.3931 20.0093 13.3931 20.5074 13.516 21.0678C13.639 21.5036 13.7005 21.6282 13.639 21.8772C13.5775 22.1263 13.639 22.3753 13.7619 22.1263C13.9464 21.7527 14.0078 21.3791 13.8849 20.9433C13.8234 20.4452 13.516 19.8225 13.8849 19.3244C14.1308 18.9508 14.4382 18.6395 14.7455 18.3904C15.1144 18.0791 15.0529 17.4565 14.9915 17.2074C14.9915 16.7716 15.1759 17.8301 14.4996 18.3282Z" fill="#003A65"/>
<path d="M28.4547 33.2714C28.6392 33.2091 28.9465 32.711 28.8851 32.2129C28.7621 32.2752 27.2867 33.0846 26.6105 33.1469C26.1801 33.5827 28.2703 33.3336 28.4547 33.2714Z" fill="#003A65"/>
<path d="M23.4136 18.5771C23.1062 18.5771 22.7988 18.5771 22.5529 18.5771L22.4915 18.6394C22.43 18.7017 22.43 18.7639 22.3685 18.8262C22.2456 18.9507 22.1226 19.0753 21.9997 19.1375C21.9382 19.1375 21.8767 19.1998 21.8152 19.2621C21.6923 19.3243 21.6923 19.3866 22.0611 19.4488C22.7374 19.3866 23.1677 19.0753 23.3521 18.8885C23.4136 18.7639 23.4751 18.7017 23.4136 18.5771C23.4751 18.5771 23.4751 18.5771 23.4136 18.5771Z" fill="#003A65"/>
<path d="M26.918 19.6977H27.1024H27.7786C28.0245 19.6977 28.1475 19.3864 28.209 18.7637C28.0245 18.6392 27.9016 18.826 27.8401 18.9505C27.7786 19.075 27.5942 19.3864 27.4712 19.3864C27.3483 19.3864 27.2868 19.3864 27.1639 19.4486C27.0409 19.5109 26.918 19.5732 26.918 19.6977Z" fill="#003A65"/>
</g>
<defs>
<clipPath id="clip0_13003_810">
<rect width="30" height="33" fill="white" transform="translate(7 6)"/>
</clipPath>
</defs>
</svg>
