<svg width="44" height="44" viewBox="0 0 44 44" fill="none" xmlns="http://www.w3.org/2000/svg">
<g id="logo-nycm 1" clip-path="url(#clip0_5087_419)">
<g id="Capa 1">
<path id="Vector" d="M37 0.5H7C3.41015 0.5 0.5 3.41015 0.5 7V37C0.5 40.5899 3.41015 43.5 7 43.5H37C40.5899 43.5 43.5 40.5899 43.5 37V7C43.5 3.41015 40.5899 0.5 37 0.5Z" stroke="#F1F2F2"/>
<path id="Vector_2" d="M34 4H9C6.79086 4 5 5.79086 5 8V35C5 37.2091 6.79086 39 9 39H34C36.2091 39 38 37.2091 38 35V8C38 5.79086 36.2091 4 34 4Z" fill="#D05B27"/>
<g id="Capa 1-2">
<g id="logo-newyork">
<g id="New York Central Mutual">
<g id="Grupo 871">
<g id="Grupo 870">
<path id="Trazado 1731" d="M23.6298 26.2196C23.6298 27.7096 22.4298 28.9196 20.9398 28.9196C19.4498 28.9196 18.3098 27.7896 18.2398 26.3496H18.2198V15.7596C18.2198 15.7596 18.4298 14.0496 16.3898 14.0596H7.31982C7.31982 14.0596 14.5598 15.1296 14.5598 18.3896C14.5598 19.3596 14.5698 24.6496 14.5698 26.1996C14.5698 26.3596 14.5698 26.5096 14.5798 26.6596V26.8096C14.5798 29.5096 16.7698 31.6996 19.4698 31.6996C24.9598 31.6996 24.3598 26.8096 24.3598 26.8096C24.3598 26.8096 23.6398 24.9596 23.6398 26.2196H23.6298Z" fill="white"/>
<path id="Trazado 1732" d="M30.4998 25.9895V20.5795C30.4998 20.5795 30.1098 19.3395 29.2098 19.3295C28.8298 19.3295 28.3398 19.3295 27.7598 19.3195V10.7695H18.2598C18.2598 10.7695 19.1098 12.8295 22.1998 12.8295C23.8698 12.8295 23.5798 16.9695 23.5998 16.9695V19.3095H22.0798V17.7195C22.0798 17.7195 21.7798 17.1195 20.6198 17.1195C20.0398 17.0495 19.4598 17.2795 19.0698 17.7195V23.9695H22.4298C28.5498 23.9695 25.8198 32.2495 22.8598 32.2495H35.6798L30.5098 25.9995L30.4998 25.9895Z" fill="white"/>
</g>
</g>
</g>
</g>
</g>
</g>
</g>
<defs>
<clipPath id="clip0_5087_419">
<rect width="44" height="44" fill="white"/>
</clipPath>
</defs>
</svg>
