<svg width="37" height="36" viewBox="0 0 37 36" fill="none" xmlns="http://www.w3.org/2000/svg">
<g>
<g>
<path d="M28.7 10.8005C28.955 10.8005 29.1875 10.6355 29.27 10.388L30.47 6.78795C30.53 6.60795 30.5 6.40545 30.3875 6.24795C30.275 6.09045 30.095 6.00045 29.9 6.00045H14.9V3.30045C14.9 3.09795 14.8025 2.91045 14.63 2.79795L12.83 1.59795C12.6275 1.46295 12.365 1.46295 12.1625 1.59795L10.3625 2.79795C10.1975 2.91045 10.0925 3.09795 10.0925 3.30045V6.00045H7.10004C6.90504 6.00045 6.72504 6.09045 6.61254 6.24795C6.50004 6.40545 6.47004 6.60795 6.53004 6.78795L7.73004 10.388C7.81254 10.6355 8.03754 10.8005 8.30004 10.8005H10.1V33.3005H9.50004C9.17004 33.3005 8.90004 33.5705 8.90004 33.9005C8.90004 34.2305 9.17004 34.5005 9.50004 34.5005H15.5C15.83 34.5005 16.1 34.2305 16.1 33.9005C16.1 33.5705 15.83 33.3005 15.5 33.3005H14.9V10.8005H20.3V12.6005H19.1C18.11 12.6005 17.3 13.4105 17.3 14.4005V18.6005C17.3 19.5905 18.11 20.4005 19.1 20.4005H27.5C28.49 20.4005 29.3 19.5905 29.3 18.6005V14.4005C29.3 13.4105 28.49 12.6005 27.5 12.6005H26.3V10.8005H28.7ZM11.3 3.62295L12.5 2.82045L13.7 3.62295V6.00045H11.3V3.62295ZM7.93254 7.20045H29.0675L28.265 9.60045H8.73504L7.93254 7.20045ZM13.7 33.3005H11.3V10.8005H13.7V33.3005ZM28.1 14.4005V18.6005C28.1 18.9305 27.83 19.2005 27.5 19.2005H19.1C18.77 19.2005 18.5 18.9305 18.5 18.6005V14.4005C18.5 14.0705 18.77 13.8005 19.1 13.8005H27.5C27.83 13.8005 28.1 14.0705 28.1 14.4005ZM25.1 12.6005H21.5V10.8005H25.1V12.6005Z" fill="#424646"/>
<path d="M20.6001 15.6002C20.1051 15.6002 19.7001 16.0052 19.7001 16.5002C19.7001 16.9952 20.1051 17.4002 20.6001 17.4002C21.0951 17.4002 21.5001 16.9952 21.5001 16.5002C21.5001 16.0052 21.0951 15.6002 20.6001 15.6002Z" fill="#424646"/>
<path d="M23.3 15.6002C22.805 15.6002 22.4 16.0052 22.4 16.5002C22.4 16.9952 22.805 17.4002 23.3 17.4002C23.795 17.4002 24.2 16.9952 24.2 16.5002C24.2 16.0052 23.795 15.6002 23.3 15.6002Z" fill="#424646"/>
<path d="M25.1001 16.5002C25.1001 16.9952 25.5051 17.4002 26.0001 17.4002C26.4951 17.4002 26.9001 16.9952 26.9001 16.5002C26.9001 16.0052 26.4951 15.6002 26.0001 15.6002C25.5051 15.6002 25.1001 16.0052 25.1001 16.5002Z" fill="#424646"/>
</g>
</g>
<defs>
<clipPath id="clip0_301_584">
<rect width="36" height="36" fill="white" transform="translate(0.5)"/>
</clipPath>
</defs>
</svg>
