<svg width="43" height="42" viewBox="0 0 43 42" fill="none" xmlns="http://www.w3.org/2000/svg">
<path d="M27.1001 34.9996H8.03856C7.52445 34.9996 7.03139 34.7954 6.66786 34.4318C6.30433 34.0683 6.1001 33.5753 6.1001 33.0611V7.53807C6.1001 7.02396 6.30433 6.5309 6.66786 6.16737C7.03139 5.80384 7.52445 5.59961 8.03856 5.59961H21.9309C22.0157 5.59954 22.0998 5.6162 22.1782 5.64863C22.2567 5.68106 22.328 5.72862 22.388 5.78861L28.8496 12.2501C28.9095 12.3102 28.9571 12.3815 28.9895 12.4599C29.022 12.5384 29.0386 12.6224 29.0386 12.7073V16.9073C29.0386 17.0787 28.9705 17.243 28.8493 17.3642C28.7281 17.4854 28.5638 17.5535 28.3924 17.5535C28.221 17.5535 28.0567 17.4854 27.9355 17.3642C27.8143 17.243 27.7463 17.0787 27.7463 16.9073V12.9746L21.6635 6.89192H8.03856C7.86719 6.89192 7.70284 6.95999 7.58166 7.08117C7.46048 7.20235 7.39241 7.3667 7.39241 7.53807V33.0611C7.39241 33.2325 7.46048 33.3969 7.58166 33.518C7.70284 33.6392 7.86719 33.7073 8.03856 33.7073H27.1001C27.2715 33.7073 27.4358 33.6392 27.557 33.518C27.6782 33.3969 27.7463 33.2325 27.7463 33.0611V29.8304C27.7463 29.659 27.8143 29.4947 27.9355 29.3735C28.0567 29.2523 28.221 29.1842 28.3924 29.1842C28.5638 29.1842 28.7281 29.2523 28.8493 29.3735C28.9705 29.4947 29.0386 29.659 29.0386 29.8304V33.0611C29.0386 33.5753 28.8343 34.0683 28.4708 34.4318C28.1073 34.7954 27.6142 34.9996 27.1001 34.9996Z" fill="#3878C5"/>
<path d="M28.3924 13.3535H23.2231C22.709 13.3535 22.216 13.1492 21.8524 12.7857C21.4889 12.4222 21.2847 11.9291 21.2847 11.415V6.24576C21.2847 6.07439 21.3527 5.91004 21.4739 5.78886C21.5951 5.66769 21.7595 5.59961 21.9308 5.59961C22.1022 5.59961 22.2665 5.66769 22.3877 5.78886C22.5089 5.91004 22.577 6.07439 22.577 6.24576V11.415C22.577 11.5864 22.6451 11.7507 22.7662 11.8719C22.8874 11.9931 23.0518 12.0611 23.2231 12.0611H28.3924C28.5637 12.0611 28.7281 12.1292 28.8493 12.2504C28.9704 12.3716 29.0385 12.5359 29.0385 12.7073C29.0385 12.8787 28.9704 13.043 28.8493 13.1642C28.7281 13.2854 28.5637 13.3535 28.3924 13.3535Z" fill="#3878C5"/>
<path d="M19.9924 18.1995H10.6232C10.4518 18.1995 10.2875 18.1315 10.1663 18.0103C10.0451 17.8891 9.97705 17.7248 9.97705 17.5534C9.97705 17.382 10.0451 17.2177 10.1663 17.0965C10.2875 16.9753 10.4518 16.9072 10.6232 16.9072H19.9924C20.1638 16.9072 20.3282 16.9753 20.4493 17.0965C20.5705 17.2177 20.6386 17.382 20.6386 17.5534C20.6386 17.7248 20.5705 17.8891 20.4493 18.0103C20.3282 18.1315 20.1638 18.1995 19.9924 18.1995Z" fill="#3878C5"/>
<path d="M18.7001 22.0765H10.6232C10.4518 22.0765 10.2875 22.0084 10.1663 21.8872C10.0451 21.7661 9.97705 21.6017 9.97705 21.4303C9.97705 21.259 10.0451 21.0946 10.1663 20.9734C10.2875 20.8523 10.4518 20.7842 10.6232 20.7842H18.7001C18.8715 20.7842 19.0359 20.8523 19.157 20.9734C19.2782 21.0946 19.3463 21.259 19.3463 21.4303C19.3463 21.6017 19.2782 21.7661 19.157 21.8872C19.0359 22.0084 18.8715 22.0765 18.7001 22.0765Z" fill="#3878C5"/>
<path d="M18.7001 25.9534H10.6232C10.4518 25.9534 10.2875 25.8854 10.1663 25.7642C10.0451 25.643 9.97705 25.4787 9.97705 25.3073C9.97705 25.1359 10.0451 24.9716 10.1663 24.8504C10.2875 24.7292 10.4518 24.6611 10.6232 24.6611H18.7001C18.8715 24.6611 19.0359 24.7292 19.157 24.8504C19.2782 24.9716 19.3463 25.1359 19.3463 25.3073C19.3463 25.4787 19.2782 25.643 19.157 25.7642C19.0359 25.8854 18.8715 25.9534 18.7001 25.9534Z" fill="#3878C5"/>
<path d="M15.4694 29.8304H10.6232C10.4518 29.8304 10.2875 29.7623 10.1663 29.6411C10.0451 29.52 9.97705 29.3556 9.97705 29.1842C9.97705 29.0129 10.0451 28.8485 10.1663 28.7273C10.2875 28.6062 10.4518 28.5381 10.6232 28.5381H15.4694C15.6407 28.5381 15.8051 28.6062 15.9263 28.7273C16.0474 28.8485 16.1155 29.0129 16.1155 29.1842C16.1155 29.3556 16.0474 29.52 15.9263 29.6411C15.8051 29.7623 15.6407 29.8304 15.4694 29.8304Z" fill="#3878C5"/>
<path d="M15.1463 12.0609H10.6232C10.4518 12.0609 10.2875 11.9928 10.1663 11.8716C10.0451 11.7504 9.97705 11.5861 9.97705 11.4147C9.97705 11.2433 10.0451 11.079 10.1663 10.9578C10.2875 10.8366 10.4518 10.7686 10.6232 10.7686H15.1463C15.3177 10.7686 15.482 10.8366 15.6032 10.9578C15.7244 11.079 15.7924 11.2433 15.7924 11.4147C15.7924 11.5861 15.7244 11.7504 15.6032 11.8716C15.482 11.9928 15.3177 12.0609 15.1463 12.0609Z" fill="#3878C5"/>
<path d="M28.3924 30.4761C26.9866 30.4761 25.6124 30.0593 24.4435 29.2783C23.2747 28.4973 22.3637 27.3872 21.8257 26.0884C21.2877 24.7897 21.147 23.3606 21.4212 21.9818C21.6955 20.603 22.3724 19.3366 23.3665 18.3425C24.3605 17.3485 25.627 16.6716 27.0057 16.3973C28.3845 16.1231 29.8136 16.2638 31.1124 16.8018C32.4111 17.3398 33.5212 18.2508 34.3022 19.4196C35.0832 20.5885 35.5001 21.9627 35.5001 23.3684C35.4979 25.2529 34.7484 27.0595 33.4159 28.392C32.0834 29.7245 30.2768 30.474 28.3924 30.4761ZM28.3924 17.5531C27.2422 17.5531 26.1178 17.8941 25.1615 18.5331C24.2052 19.1721 23.4598 20.0804 23.0197 21.143C22.5795 22.2056 22.4643 23.3749 22.6887 24.503C22.9131 25.631 23.467 26.6672 24.2803 27.4805C25.0936 28.2938 26.1298 28.8477 27.2578 29.0721C28.3859 29.2965 29.5552 29.1813 30.6178 28.7412C31.6804 28.301 32.5887 27.5556 33.2277 26.5993C33.8667 25.643 34.2078 24.5186 34.2078 23.3684C34.206 21.8266 33.5928 20.3485 32.5026 19.2582C31.4124 18.168 29.9342 17.5548 28.3924 17.5531Z" fill="#3878C5"/>
<path d="M28.3922 27.246C28.2209 27.246 28.0565 27.178 27.9353 27.0568C27.8142 26.9356 27.7461 26.7713 27.7461 26.5999V20.1383C27.7461 19.967 27.8142 19.8026 27.9353 19.6814C28.0565 19.5603 28.2209 19.4922 28.3922 19.4922C28.5636 19.4922 28.728 19.5603 28.8491 19.6814C28.9703 19.8026 29.0384 19.967 29.0384 20.1383V26.5999C29.0384 26.7713 28.9703 26.9356 28.8491 27.0568C28.728 27.178 28.5636 27.246 28.3922 27.246Z" fill="#3878C5"/>
<path d="M31.6233 24.015H25.1618C24.9904 24.015 24.8261 23.9469 24.7049 23.8257C24.5837 23.7045 24.5156 23.5402 24.5156 23.3688C24.5156 23.1974 24.5837 23.0331 24.7049 22.9119C24.8261 22.7907 24.9904 22.7227 25.1618 22.7227H31.6233C31.7947 22.7227 31.959 22.7907 32.0802 22.9119C32.2014 23.0331 32.2695 23.1974 32.2695 23.3688C32.2695 23.5402 32.2014 23.7045 32.0802 23.8257C31.959 23.9469 31.7947 24.015 31.6233 24.015Z" fill="#3878C5"/>
</svg>
