<svg xmlns="http://www.w3.org/2000/svg" id="icon-annuities" width="52" height="52" viewBox="0 0 52 52">
    <defs>
        <style>
            .cls-1{fill:none}.cls-2{fill:#d3333f}
        </style>
    </defs>
    <g id="Grupo_904" data-name="Grupo 904" transform="translate(5.135 3.935)">
        <path id="Trazado_1716" d="M30.289 12.675a12.61 12.61 0 1 0-12.61 12.61 12.623 12.623 0 0 0 12.61-12.61zm-12.61 10.792a10.792 10.792 0 1 1 10.792-10.792 10.8 10.8 0 0 1-10.792 10.792z" class="cls-2" data-name="Trazado 1716" transform="translate(4.138)"/>
        <path id="Trazado_1717" d="M14.919 9.63V6.315a2.333 2.333 0 0 1 1.054.764.909.909 0 1 0 1.442-1.107 4.152 4.152 0 0 0-2.5-1.54v-.56a.909.909 0 1 0-1.818 0v.535a3.812 3.812 0 0 0-3.092 3.371c0 1.942 1.791 2.767 3.092 3.2v3.311a5.339 5.339 0 0 1-2.027-1A.909.909 0 1 0 9.938 14.7a7.157 7.157 0 0 0 3.163 1.44v.6a.909.909 0 0 0 1.818 0v-.524a3.82 3.82 0 0 0 3.092-3.383c.001-1.954-1.903-2.818-3.092-3.203zm-3.1-1.751A1.915 1.915 0 0 1 13.1 6.3v2.726c-1.082-.453-1.273-.845-1.279-1.147zm3.1 6.447v-2.749c1.251.536 1.274 1.038 1.28 1.154a1.94 1.94 0 0 1-1.28 1.595z" class="cls-2" data-name="Trazado 1717" transform="translate(7.842 2.371)"/>
        <path id="Trazado_1718" d="M31.247 8.585a3.1 3.1 0 0 0-5.361 2.076l-.315 7.61a2.915 2.915 0 0 0-1.513.9l-6.945 7.5c-1.756 1.9-2.774 5.191-3.032 9.783a.908.908 0 0 0 .856.96h.051a.909.909 0 0 0 .907-.858c.229-4.1 1.113-7.092 2.553-8.65l6.969-7.529a1.177 1.177 0 0 1 .951-.4c.027 0 .053.016.082.016h.011a1.278 1.278 0 0 1 1.149 1.234 1.3 1.3 0 0 1-.349.936l-5.081 5.49a.91.91 0 0 0 1.336 1.234l5.08-5.489a3.116 3.116 0 0 0-.162-4.407 3.063 3.063 0 0 0-1.045-.618l.316-7.7a1.284 1.284 0 0 1 1.282-1.244h.042a1.279 1.279 0 0 1 1.242 1.313c-.164 4.032-.184 6.634-.2 8.356-.027 3.582-.027 3.582-1.311 6.152a27.049 27.049 0 0 1-6.519 7.274c-.784.7-.911 2.051-.856 4.011a.908.908 0 0 0 .909.885h.024a.914.914 0 0 0 .885-.934c-.056-2.043.156-2.5.2-2.563a28.81 28.81 0 0 0 6.954-7.8c1.476-2.945 1.5-3.078 1.533-7 .013-1.709.033-4.294.2-8.3a3.08 3.08 0 0 0-.843-2.238z" class="cls-2" data-name="Trazado 1718" transform="translate(11.509 6.165)"/>
        <path id="Trazado_1719" d="M8.064 19.2a2.967 2.967 0 0 0-1.538-.933l-.315-7.656a3.077 3.077 0 0 0-.976-2.162 3.039 3.039 0 0 0-2.22-.84 3.1 3.1 0 0 0-3 3.205c.165 4 .184 6.589.2 8.3.029 3.927.056 4.06 1.578 7.085a28.679 28.679 0 0 0 6.859 7.681c.093.1.3.562.249 2.605a.912.912 0 0 0 .885.934h.025a.908.908 0 0 0 .907-.885c.053-1.96-.073-3.314-.9-4.047A27.042 27.042 0 0 1 3.366 25.3c-1.314-2.625-1.314-2.625-1.34-6.2-.013-1.724-.031-4.325-.2-8.35a1.283 1.283 0 0 1 1.245-1.328A1.288 1.288 0 0 1 4.4 10.733l.315 7.636A3.1 3.1 0 0 0 3.5 23.394l5.081 5.489a.9.9 0 0 0 .667.291.907.907 0 0 0 .667-1.525l-5.076-5.493a1.289 1.289 0 0 1 .8-2.169H5.697c.018 0 .033-.011.049-.013a1.211 1.211 0 0 1 .96.427l6.945 7.5c1.442 1.558 2.325 4.549 2.554 8.648a.908.908 0 0 0 .905.86h.051a.91.91 0 0 0 .858-.958c-.256-4.592-1.276-7.885-3.032-9.785z" class="cls-2" data-name="Trazado 1719" transform="translate(0 6.167)"/>
    </g>
</svg>
