<svg width="29" height="26" viewBox="0 0 29 26" fill="none" xmlns="http://www.w3.org/2000/svg">
<g clip-path="url(#clip0_11299_478)">
<path d="M23.8183 20.9411C23.7668 20.7449 23.3732 20.4345 22.6375 20.01C22.439 19.8788 22.1564 19.6992 21.7896 19.471C21.4229 19.2428 21.0905 19.0329 20.7923 18.8414C20.4934 18.6499 20.2137 18.4652 19.953 18.2874C19.912 18.2526 19.7827 18.1502 19.5649 17.9801C19.3896 17.8391 19.2038 17.711 19.0092 17.5968C18.8697 17.5159 18.7132 17.467 18.5516 17.4538C18.229 17.4837 17.9279 17.6251 17.7026 17.8526C17.3532 18.1345 17.0289 18.4449 16.7335 18.7805C16.4432 19.1108 16.1304 19.4216 15.7972 19.7106C15.5951 19.9342 15.3162 20.0776 15.0131 20.1139C14.8872 20.0992 14.7647 20.0637 14.6511 20.0088C14.5082 19.9458 14.4002 19.8873 14.3259 19.8509C14.2516 19.8145 14.1278 19.7247 13.9498 19.5998C13.7718 19.4749 13.6731 19.4066 13.6526 19.3948C12.2998 18.5521 11.0743 17.5289 10.0116 16.3548C8.96832 15.1637 8.10079 13.8359 7.43425 12.41C7.42516 12.3879 7.3697 12.2825 7.26787 12.094C7.16604 11.9055 7.10044 11.7727 7.07109 11.6956C7.02664 11.5854 6.988 11.4731 6.95532 11.359C6.91539 11.2414 6.89643 11.1181 6.89925 10.9942C6.97822 10.7061 7.16261 10.4563 7.41749 10.2921C7.75701 10.0098 8.11573 9.75029 8.49119 9.51537C8.87269 9.27643 9.23263 9.00616 9.56711 8.70748C9.82944 8.52109 10.0149 8.24924 10.09 7.94101C10.099 7.78272 10.0709 7.6245 10.0078 7.47844C9.91934 7.27416 9.81533 7.07663 9.69667 6.88751C9.55348 6.65028 9.467 6.51082 9.43723 6.46914C9.29333 6.19221 9.14509 5.8962 8.99253 5.58113C8.83997 5.26605 8.6736 4.91525 8.49341 4.52873C8.31322 4.14221 8.1705 3.8438 8.06524 3.63351C7.73675 2.86265 7.47667 2.43832 7.28501 2.36051C7.17739 2.31582 7.06202 2.29163 6.94511 2.28925C6.55571 2.27519 6.1659 2.30237 5.78249 2.37031C5.39416 2.42262 5.01149 2.5092 4.63917 2.629C3.83741 3.03568 3.1836 3.674 2.76689 4.45692C2.17264 5.3257 1.81272 6.32703 1.72053 7.36796C1.70003 7.64815 1.69911 7.92938 1.71779 8.20969C1.74224 8.52227 1.78847 8.83287 1.85615 9.13932C1.9295 9.48653 1.99038 9.74456 2.03879 9.9134C2.0872 10.0822 2.17762 10.3851 2.31005 10.8219C2.44248 11.2587 2.52192 11.526 2.54837 11.6238C2.82697 12.6232 3.21446 13.5906 3.70422 14.5093C4.59661 16.1155 5.67605 17.6156 6.92105 18.9798C8.12774 20.3739 9.49511 21.6273 10.996 22.7151C11.8592 23.3168 12.7859 23.8266 13.7602 24.2356C13.8557 24.2741 14.1156 24.3882 14.54 24.578C14.9643 24.7677 15.2587 24.8974 15.4232 24.9671C15.5876 25.0374 15.8407 25.1323 16.1825 25.2517C16.4844 25.3602 16.7935 25.4487 17.1077 25.5164C18.4438 25.7911 19.8357 25.6181 21.0588 25.0253C21.9108 24.7317 22.6492 24.1884 23.1732 23.4696C23.3468 23.1263 23.488 22.7683 23.595 22.3999C23.7176 22.0383 23.7995 21.6647 23.8395 21.2858C23.8555 21.1706 23.8483 21.0535 23.8183 20.9411Z" fill="white"/>
<path d="M22.4306 12.1345C22.2697 10.5942 21.6398 9.13626 20.6222 7.94896C19.6044 6.75913 18.2454 5.89396 16.72 5.46477C16.5619 5.41259 16.3946 5.39217 16.2282 5.40474C16.0618 5.41731 15.8997 5.4626 15.7517 5.53791C15.6037 5.61321 15.4728 5.71696 15.3668 5.84293C15.2609 5.9689 15.1822 6.11449 15.1353 6.27094C15.0884 6.42739 15.0745 6.59148 15.0942 6.75335C15.1139 6.91521 15.1669 7.07151 15.2501 7.21286C15.3332 7.3542 15.4447 7.47767 15.578 7.57584C15.7112 7.67401 15.8634 7.74486 16.0254 7.78413C17.078 8.07849 18.0162 8.67422 18.7188 9.49443C19.4215 10.3146 19.8563 11.3217 19.9673 12.3856C19.997 12.6648 20.1253 12.9251 20.3302 13.1219C20.535 13.3187 20.8036 13.4397 21.0899 13.4642C21.17 13.472 21.2507 13.4714 21.3307 13.4623C21.656 13.4267 21.9538 13.2674 22.1596 13.0189C22.3655 12.7704 22.4628 12.4527 22.4306 12.1345Z" fill="white"/>
<path d="M27.8093 12.542C27.736 9.58555 26.6392 6.74056 24.6977 4.47117C22.7439 2.20348 20.0637 0.646059 17.0911 0.0509363C16.9315 0.0185294 16.767 0.0173531 16.6071 0.0474755C16.4471 0.0775979 16.2948 0.13842 16.1591 0.226421C16.0233 0.314422 15.9068 0.427851 15.8162 0.560142C15.7257 0.692432 15.6629 0.840954 15.6315 0.997108C15.5985 1.15294 15.5975 1.31362 15.6286 1.46984C15.6596 1.62605 15.7221 1.77469 15.8125 1.90712C15.9028 2.03956 16.0191 2.15316 16.1548 2.24133C16.2904 2.3295 16.4426 2.39049 16.6026 2.42076C19.0277 2.88755 21.2162 4.15102 22.8043 6.0011C24.3923 7.85118 25.2841 10.1764 25.3315 12.5902C25.3378 12.8876 25.4562 13.1723 25.664 13.3899C25.8717 13.6074 26.1543 13.7425 26.4577 13.7694C26.5033 13.7743 26.5492 13.7762 26.5951 13.7751C26.9231 13.7676 27.2348 13.6338 27.4622 13.4028C27.6897 13.1719 27.8144 12.8625 27.8093 12.542Z" fill="white"/>
</g>
<defs>
<clipPath id="clip0_11299_478">
<rect width="28" height="26" fill="white" transform="translate(0.5)"/>
</clipPath>
</defs>
</svg>
