<svg width="40" height="40" viewBox="0 0 40 40" fill="none" xmlns="http://www.w3.org/2000/svg">
<path d="M19.8816 21.0564C19.9298 21.1029 19.987 21.1397 20.05 21.1649C20.113 21.19 20.1805 21.203 20.2487 21.203C20.3169 21.203 20.3845 21.19 20.4474 21.1649C20.5104 21.1397 20.5677 21.1029 20.6158 21.0564L27.8723 13.9858C28.5089 13.2512 28.8895 12.3427 28.9604 11.3887C29.0312 10.4347 28.7888 9.48334 28.2672 8.66911C27.9204 8.1277 27.4503 7.66921 26.8923 7.32831C26.3344 6.9874 25.7032 6.773 25.0465 6.70129C24.2227 6.61145 23.3886 6.69758 22.6034 6.95355C21.8182 7.20952 21.1014 7.62902 20.504 8.18215L20.2483 8.416L19.9927 8.18215C19.3956 7.62883 18.6789 7.2092 17.8938 6.95321C17.1087 6.69723 16.2746 6.61121 15.4509 6.70129C14.7944 6.77305 14.1633 6.98748 13.6055 7.32839C13.0476 7.66929 12.5776 8.12775 12.2309 8.66911C11.7073 9.48982 11.4664 10.4487 11.5426 11.409C11.6189 12.3693 12.0083 13.2818 12.6555 14.0165L19.8816 21.0564ZM13.1082 9.19101C13.3752 8.77614 13.7368 8.42508 14.1655 8.16434C14.5942 7.90361 15.0788 7.74001 15.5828 7.68591C15.7578 7.66407 15.934 7.65312 16.1104 7.65312C17.2938 7.66585 18.4278 8.11202 19.2815 8.90083L19.8927 9.46052C19.9889 9.54775 20.1161 9.59634 20.2483 9.59634C20.3805 9.59634 20.5078 9.54775 20.604 9.46052L21.2152 8.90083C21.701 8.4493 22.2844 8.10654 22.9238 7.89703C23.5631 7.68751 24.2427 7.6164 24.9139 7.68877C25.4172 7.74291 25.9012 7.90623 26.3295 8.16644C26.7578 8.42665 27.1191 8.77697 27.3863 9.19101C27.7924 9.82158 27.9836 10.5585 27.9333 11.2987C27.8829 12.039 27.5935 12.7456 27.1055 13.3199L20.2483 20.0005L13.4186 13.3512C12.9201 12.7767 12.6219 12.0659 12.5662 11.3193C12.5105 10.5727 12.7001 9.82821 13.1082 9.19101Z" fill="#424646" stroke="#424646" stroke-width="0.2"/>
<path d="M34.003 20.2965C33.5701 19.9345 33.0052 19.7391 32.4229 19.7498C31.8406 19.7605 31.2845 19.9765 30.8673 20.354C30.6799 20.526 30.4746 20.7077 30.258 20.8943C29.8501 20.5621 29.3225 20.3847 28.7801 20.3976C28.2378 20.4104 27.7205 20.6125 27.3314 20.9636C25.9869 22.12 24.5381 23.1671 23.0011 24.0936C22.6576 23.894 22.261 23.7874 21.8558 23.7857H17.807C17.2584 23.7805 16.7119 23.7219 16.1764 23.6109C14.9813 23.3887 13.7452 23.4507 12.5829 23.7912C11.4205 24.1317 10.3697 24.7396 9.52794 25.5584C9.28387 25.7917 9.00135 25.9874 8.691 26.1382L5.95322 27.4434C5.84431 27.5088 5.76547 27.6094 5.732 27.7258C5.69853 27.8422 5.71283 27.966 5.77212 28.0731C5.83141 28.1802 5.93146 28.2631 6.05282 28.3055C6.17418 28.3479 6.30819 28.3469 6.42881 28.3027L9.16659 26.9912C9.5749 26.7928 9.94662 26.5353 10.2678 26.2283C10.9879 25.5257 11.8872 25.0032 12.8825 24.7093C13.8777 24.4154 14.9368 24.3597 15.9614 24.5472C16.5673 24.672 17.1856 24.7375 17.8062 24.7428H21.858C22.1749 24.7428 22.4787 24.8597 22.7027 25.0678C22.9268 25.2759 23.0526 25.5581 23.0526 25.8524C23.0526 26.1467 22.9268 26.429 22.7027 26.6371C22.4787 26.8452 22.1749 26.9621 21.858 26.9621H17.2097C17.137 26.9553 17.0637 26.9627 16.9943 26.9839C16.9249 27.0051 16.8611 27.0396 16.8069 27.0851C16.7527 27.1306 16.7095 27.1862 16.6798 27.2482C16.6502 27.3102 16.6349 27.3773 16.6349 27.4451C16.6349 27.513 16.6502 27.5801 16.6798 27.6421C16.7095 27.7041 16.7527 27.7596 16.8069 27.8051C16.8611 27.8507 16.9249 27.8851 16.9943 27.9063C17.0637 27.9275 17.137 27.935 17.2097 27.9282H21.8588C22.4068 27.9264 22.934 27.7336 23.3363 27.3879C23.3408 27.3879 23.3468 27.3879 23.3512 27.3817C23.5805 27.2208 28.9955 23.4223 31.5982 21.0344C31.8269 20.8292 32.1311 20.7125 32.449 20.7079C32.7669 20.7034 33.0748 20.8115 33.3102 21.0101C33.4383 21.1171 33.5425 21.2465 33.6168 21.391C33.691 21.5354 33.7338 21.692 33.7428 21.8519C33.7517 22.0117 33.7266 22.1717 33.6689 22.3225C33.6112 22.4733 33.522 22.612 33.4065 22.7308L32.7808 23.3758C30.8113 25.412 27.8353 28.4893 24.3674 30.6996C23.762 31.08 23.0449 31.2774 22.3142 31.2648C20.8703 31.2378 18.0788 31.1531 15.6075 30.8924C14.1576 30.7449 12.6958 31.0447 11.4475 31.7454L8.57379 33.3614C8.50774 33.3904 8.44898 33.4319 8.40129 33.4834C8.3536 33.5348 8.31804 33.5949 8.29692 33.6599C8.27579 33.7248 8.26957 33.7932 8.27864 33.8606C8.28771 33.9279 8.31189 33.9927 8.3496 34.0508C8.38731 34.109 8.43773 34.1591 8.49759 34.198C8.55745 34.2369 8.62543 34.2637 8.69714 34.2767C8.76884 34.2897 8.84269 34.2886 8.91391 34.2735C8.98512 34.2583 9.05213 34.2295 9.11059 34.1888L11.9843 32.5811C13.0371 31.9896 14.2701 31.7362 15.4933 31.8599C18.0056 32.1248 20.8337 32.2108 22.2963 32.2385C23.2447 32.2595 24.176 32.0023 24.9579 31.5034C28.5289 29.2286 31.5541 26.0993 33.5565 24.0291L34.1792 23.3876C34.387 23.1744 34.5473 22.9252 34.6511 22.6542C34.7548 22.3833 34.7999 22.096 34.7838 21.8088C34.7676 21.5216 34.6905 21.2402 34.5569 20.9808C34.4233 20.7214 34.2358 20.4891 34.0052 20.2972L34.003 20.2965ZM28.0638 21.6509C28.2504 21.4848 28.4935 21.3845 28.7513 21.3671C29.009 21.3498 29.2652 21.4165 29.4756 21.5559C27.7054 23.0089 25.4574 24.6616 24.0545 25.6735C24.0253 25.3626 23.9207 25.062 23.7484 24.7941C25.28 23.8616 26.7236 22.8101 28.0638 21.6509Z" fill="#424646" stroke="#424646" stroke-width="0.2"/>
</svg>
