<svg xmlns="http://www.w3.org/2000/svg" width="52" height="52" viewBox="0 0 52 52">
    <defs>
        <style>
            .cls-1{fill:none}.cls-2{fill:#c80010}
        </style>
    </defs>
    <g id="icon-term" transform="translate(0 .107)">
        <g id="Term" transform="translate(-2 1.892)">
            <path id="Trazado_1658" d="M32.325 22.2l.084-.065a13.6 13.6 0 0 0 5.146-10.7V8.693h.1A1.446 1.446 0 0 0 39.1 7.249v-1.8A1.446 1.446 0 0 0 37.658 4H17.444A1.446 1.446 0 0 0 16 5.444v1.8a1.446 1.446 0 0 0 1.444 1.444h.1v2.673a13.48 13.48 0 0 0 4.879 10.491l.4.328a2.6 2.6 0 0 1 .909 2.036 2.549 2.549 0 0 1-.957 2.008l-.085.066A13.6 13.6 0 0 0 17.547 37v2.737h-.1A1.446 1.446 0 0 0 16 41.18v1.8a1.446 1.446 0 0 0 1.444 1.444h20.214a1.446 1.446 0 0 0 1.442-1.44v-1.8a1.446 1.446 0 0 0-1.444-1.444h-.1v-2.755a13.585 13.585 0 0 0-5.216-10.759 2.584 2.584 0 0 1-.013-4.028zM17.444 7.249v-1.8h20.214v1.8H17.444zM37.658 41.18v1.8H17.444v-1.8h20.214zm-16.34-1.444l6.262-7.827 6.211 7.827zM31.44 21.058a4.027 4.027 0 0 0 .022 6.316 12.132 12.132 0 0 1 4.649 9.612v2.751h-.477l-6.924-8.725a1.517 1.517 0 0 0-2.319 0l-6.924 8.724h-.477V37a12.147 12.147 0 0 1 4.585-9.563l.085-.066a4.037 4.037 0 0 0 1.517-3.216 3.967 3.967 0 0 0-1.438-3.086l-.4-.328a12.041 12.041 0 0 1-4.351-9.375V8.693h17.123v2.737a12.148 12.148 0 0 1-4.587 9.564z" class="cls-2" data-name="Trazado 1658"/>
            <path id="Trazado_1659" d="M33.326 19.75h-6.189a1.486 1.486 0 0 0-1.322.817 1.555 1.555 0 0 0 .116 1.623l3.094 4.332a1.473 1.473 0 0 0 2.413 0l3.094-4.331a1.556 1.556 0 0 0 .116-1.624 1.486 1.486 0 0 0-1.322-.817zm.031 1.568L30.2 25.683l-3.094-4.332a.114.114 0 0 1-.007-.123c.018-.034.032-.034.038-.034h6.227a.115.115 0 0 1-.007.124z" class="cls-2" data-name="Trazado 1659" transform="translate(-2.681 -4.38)"/>
            <path id="Trazado_1660" d="M31.722 31.621a.722.722 0 0 0-.722.722v.88a.722.722 0 1 0 1.444 0v-.88a.722.722 0 0 0-.722-.722z" class="cls-2" data-name="Trazado 1660" transform="translate(-4.171 -7.68)"/>
            <path id="Trazado_1661" d="M31.722 35.792a.722.722 0 0 0-.722.722v.88a.722.722 0 0 0 1.444 0v-.88a.722.722 0 0 0-.722-.722z" class="cls-2" data-name="Trazado 1661" transform="translate(-4.171 -8.84)"/>
        </g>
    </g>
</svg>
