<svg width="32" height="36" fill="none" xmlns="http://www.w3.org/2000/svg" viewBox="0 0 32 36"><path fill-rule="evenodd" clip-rule="evenodd" d="M4.77 22.6 0 30.89l5.792-.455c.227 0 .454.114.454.341L8.858 36l4.77-8.29c-3.066-.455-5.792-1.931-7.95-4.089-.34-.34-.567-.681-.908-1.022Zm21.237 1.021c-2.044 2.044-4.657 3.52-7.722 4.089l4.656 7.95 2.498-5.225c.114-.113.341-.227.455-.227l5.905.341-4.656-8.064c-.341.455-.682.796-1.136 1.136ZM6.36 22.94c2.384 2.498 5.791 3.975 9.539 3.975 3.748 0 7.041-1.477 9.54-3.975 2.384-2.385 3.86-5.792 3.86-9.426 0-3.748-1.476-7.154-3.86-9.54C22.94 1.477 19.647 0 15.899 0c-3.748 0-7.154 1.476-9.54 3.975-2.384 2.385-3.974 5.792-3.974 9.54 0 3.633 1.59 7.04 3.975 9.425Z" fill="#F2C037"/><path d="m10.378 20.124.51-1.082h.867l-.974 1.778v1.14h-.806v-1.116L9 19.042h.871l.507 1.082ZM13.834 21.96h-1.758v-2.918h1.758v.633h-.958v.459h.887v.633h-.887v.55h.958v.643ZM16.17 21.96l-.146-.547h-.962l-.15.547h-.88L15 19.03h1.068l.978 2.93h-.875Zm-.312-1.194-.128-.479a19.73 19.73 0 0 1-.109-.413 7.028 7.028 0 0 1-.083-.363 7.58 7.58 0 0 1-.073.335c-.035.156-.114.463-.237.92h.63ZM18.168 20.898v1.062h-.8v-2.918h.97c.805 0 1.207.287 1.207.862 0 .338-.167.6-.502.785l.863 1.271h-.908l-.628-1.062h-.202Zm0-.593h.15c.28 0 .42-.121.42-.365 0-.2-.138-.301-.412-.301h-.158v.666ZM22.112 21.074c0 .18-.046.342-.14.483a.921.921 0 0 1-.402.327 1.525 1.525 0 0 1-.619.116c-.197 0-.362-.013-.496-.04a1.906 1.906 0 0 1-.417-.144v-.702c.152.077.311.137.476.181.165.043.316.064.454.064.119 0 .206-.02.261-.06a.189.189 0 0 0 .083-.157.163.163 0 0 0-.034-.104.36.36 0 0 0-.108-.092 4.31 4.31 0 0 0-.393-.188 1.92 1.92 0 0 1-.435-.251.789.789 0 0 1-.215-.28.927.927 0 0 1-.069-.373c0-.268.1-.478.298-.628.198-.15.471-.226.818-.226.307 0 .62.07.938.21l-.245.608c-.277-.125-.516-.187-.717-.187-.104 0-.18.018-.227.054a.162.162 0 0 0-.07.133c0 .058.029.109.088.154.061.045.225.128.49.248.256.113.433.234.531.365.1.129.15.292.15.489ZM11.792 17.12c-.794 0-1.419-.15-1.876-.449a2.486 2.486 0 0 1-.966-1.246c-.187-.541-.28-1.162-.28-1.862v-.406h2.338v.406c0 .373.023.677.07.91.046.233.13.406.252.518.121.103.289.154.504.154.214 0 .373-.056.476-.168.112-.112.186-.28.224-.504.037-.224.056-.504.056-.84 0-.56-.08-.984-.238-1.274-.15-.299-.467-.453-.952-.462H10.966v-1.61h.378c.494 0 .826-.135.994-.406.168-.27.252-.69.252-1.26 0-.438-.061-.774-.182-1.008-.112-.233-.327-.35-.644-.35-.308 0-.514.13-.616.392-.094.262-.14.598-.14 1.008v.588H8.67v-.686c0-.681.121-1.255.364-1.722a2.524 2.524 0 0 1 1.064-1.078c.466-.242 1.022-.364 1.666-.364.653 0 1.213.117 1.68.35a2.46 2.46 0 0 1 1.078 1.036c.252.448.378 1.008.378 1.68 0 .663-.136 1.218-.406 1.666-.271.448-.598.724-.98.826.261.094.494.243.7.448.214.206.382.486.504.84.121.345.182.789.182 1.33 0 .69-.103 1.302-.308 1.834a2.535 2.535 0 0 1-.98 1.26c-.458.299-1.064.448-1.82.448Zm7.401-.043c-.737 0-1.34-.159-1.806-.476a2.84 2.84 0 0 1-1.008-1.33c-.215-.56-.322-1.2-.322-1.918V9.251c0-.737.084-1.395.252-1.974.177-.578.49-1.031.938-1.358.448-.336 1.092-.504 1.932-.504.728 0 1.302.112 1.722.336.42.224.719.55.896.98.177.43.266.962.266 1.596v.112c.01.028.014.056.014.084H19.88c0-.457-.037-.793-.112-1.008-.065-.224-.257-.336-.574-.336-.215 0-.378.066-.49.196-.103.13-.173.36-.21.686a12.86 12.86 0 0 0-.056 1.372v1.008c.112-.196.294-.345.546-.448.252-.112.537-.172.854-.182.597-.018 1.073.117 1.428.406.364.29.625.686.784 1.19a5.44 5.44 0 0 1 .238 1.666c0 .793-.093 1.493-.28 2.1-.187.598-.504 1.064-.952 1.4-.448.336-1.069.504-1.862.504Zm.028-1.722c.215 0 .369-.07.462-.21.103-.15.168-.364.196-.644.037-.29.056-.644.056-1.064 0-.373-.014-.695-.042-.966-.019-.27-.08-.48-.182-.63-.103-.159-.275-.238-.518-.238a.77.77 0 0 0-.322.07.895.895 0 0 0-.266.182.782.782 0 0 0-.168.196V13.9c0 .252.019.49.056.714.047.224.126.406.238.546.121.13.285.196.49.196Z" fill="#fff"/></svg>