<svg width="30" height="30" fill="none" xmlns="http://www.w3.org/2000/svg" viewBox="0 0 30 30"><path d="M15 .313 2.562 6.063v5.375a17.76 17.76 0 0 0 7.126 14.25l5.312 4 5.313-4a17.76 17.76 0 0 0 7.125-14.25V6.061L15 .313Zm0 20.25a6.855 6.855 0 0 1-6.875-6.875A6.855 6.855 0 0 1 15 6.811a6.855 6.855 0 0 1 6.875 6.875A6.855 6.855 0 0 1 15 20.564Z" fill="#22BECA"/><path d="m13.875 15-1.938-1.938-1.374 1.313L13.187 17c.188.188.438.25.688.25.25 0 .5-.063.688-.25l4.874-4.875-1.312-1.313L13.875 15Z" fill="#22BECA"/></svg>