<svg width="52" height="52" viewBox="0 0 52 52" fill="none" xmlns="http://www.w3.org/2000/svg">
<path d="M43.6708 5.69947L6.74097 15.5879L12.6505 37.6579L49.5804 27.7695L43.6708 5.69947Z" fill="#D7EBEB"/>
<path d="M42.9107 7.00963L48.2623 26.9863L13.4223 36.3246L8.07067 16.348L42.9107 7.00963ZM44.4382 4.35547L5.4165 14.8096L11.884 38.968L50.9165 28.5138L44.449 4.35547H44.4382Z" fill="#32B9BE"/>
<path d="M45.3158 11.3211C45.1966 10.8661 43.7666 5.53613 43.7666 5.53613C43.7666 5.53613 38.4908 6.94447 38.0358 7.07447C37.1366 7.3128 36.3783 7.42113 36.6166 8.34197C36.8658 9.25197 37.7866 9.79363 38.6966 9.5553C38.7508 9.54447 38.7941 9.5228 38.8374 9.50113C38.8158 9.79363 38.8374 10.0861 38.9133 10.3786C39.2816 11.7436 40.6791 12.567 42.0333 12.1986C42.3258 12.1228 42.5858 11.9928 42.8241 11.8303C42.8241 11.8845 42.8349 11.9278 42.8458 11.982C43.0949 12.892 44.0158 13.4336 44.9258 13.1953C45.8249 12.957 45.5433 12.2311 45.3049 11.3211H45.3158Z" fill="#32B9BE"/>
<path d="M8.14658 21.2767C8.02741 20.8217 6.59741 15.4917 6.59741 15.4917C6.59741 15.4917 11.8732 14.0834 12.3282 13.9534C13.2274 13.7151 13.9424 13.4334 14.1916 14.3434C14.4407 15.2534 13.8991 16.1959 12.9999 16.4342C12.9457 16.4451 12.9024 16.4559 12.8482 16.4559C13.0107 16.6942 13.1407 16.9651 13.2274 17.2576C13.5957 18.6226 12.7941 20.0309 11.4399 20.3884C11.1474 20.4642 10.8549 20.4859 10.5624 20.4642C10.5841 20.5184 10.6057 20.5617 10.6166 20.6051C10.8657 21.5151 10.3241 22.4576 9.42491 22.6959C8.52575 22.9342 8.40658 22.1759 8.16825 21.2659L8.14658 21.2767Z" fill="#32B9BE"/>
<path d="M48.1865 22.0572C48.3057 22.5122 49.7357 27.8422 49.7357 27.8422C49.7357 27.8422 44.4598 29.2506 44.0048 29.3806C43.1057 29.6189 42.3907 29.9006 42.1415 28.9906C41.8923 28.0806 42.434 27.1381 43.3332 26.8997C43.3873 26.8889 43.4307 26.8889 43.4848 26.8781C43.3223 26.6397 43.1923 26.3689 43.1057 26.0764C42.7373 24.7114 43.539 23.3031 44.8932 22.9456C45.1857 22.8697 45.4782 22.8481 45.7707 22.8697C45.749 22.8156 45.7273 22.7722 45.7165 22.7289C45.4673 21.8189 46.009 20.8764 46.9082 20.6381C47.8073 20.3997 47.9265 21.1581 48.1648 22.0681L48.1865 22.0572Z" fill="#32B9BE"/>
<path d="M30.8942 31.8368C34.9976 30.738 37.2691 25.9071 35.9676 21.0465C34.6661 16.186 30.2846 13.1364 26.1811 14.2352C22.0777 15.3339 19.8063 20.1649 21.1077 25.0254C22.4092 29.886 26.7908 32.9355 30.8942 31.8368Z" fill="#32B9BE"/>
<path d="M39.3327 14.3577L2.40283 24.2461L8.31235 46.3161L45.2422 36.4277L39.3327 14.3577Z" fill="#D7EBEB"/>
<path d="M38.5774 15.6766L43.9291 35.6533L9.08909 44.9916L3.73742 25.015L38.5774 15.6766ZM40.1049 13.0225L1.08325 23.4766L7.55075 47.635L46.5833 37.1808L40.1158 13.0225H40.1049Z" fill="#00A096"/>
<path d="M35.9125 29.0237C36.9775 29.0237 37.8408 28.1603 37.8408 27.0953C37.8408 26.0303 36.9775 25.167 35.9125 25.167C34.8475 25.167 33.9841 26.0303 33.9841 27.0953C33.9841 28.1603 34.8475 29.0237 35.9125 29.0237Z" fill="#00A096"/>
<path d="M11.754 35.5012C12.819 35.5012 13.6824 34.6379 13.6824 33.5729C13.6824 32.5079 12.819 31.6445 11.754 31.6445C10.689 31.6445 9.82568 32.5079 9.82568 33.5729C9.82568 34.6379 10.689 35.5012 11.754 35.5012Z" fill="#00A096"/>
<path d="M40.9825 19.9881C40.8633 19.5331 39.4333 14.2031 39.4333 14.2031C39.4333 14.2031 34.1575 15.6115 33.7025 15.7415C32.8033 15.9798 32.045 16.0881 32.2833 17.009C32.5325 17.919 33.4533 18.4606 34.3633 18.2223C34.4175 18.2115 34.4608 18.1898 34.5042 18.1681C34.4825 18.4606 34.5042 18.7531 34.58 19.0456C34.9483 20.4106 36.3458 21.2231 37.7 20.8656C37.9925 20.7898 38.2525 20.6598 38.4908 20.4973C38.4908 20.5515 38.5017 20.5948 38.5125 20.649C38.7617 21.559 39.6825 22.1006 40.5925 21.8623C41.4917 21.624 41.21 20.8981 40.9717 19.9881H40.9825Z" fill="#00A096"/>
<path d="M3.81333 29.9437C3.69416 29.4887 2.26416 24.1587 2.26416 24.1587C2.26416 24.1587 7.53999 22.7504 7.99499 22.6204C8.89416 22.3821 9.60916 22.1004 9.84749 23.0104C10.0858 23.9204 9.55499 24.8629 8.65583 25.1012C8.60166 25.1121 8.55833 25.1121 8.50416 25.1229C8.66666 25.3612 8.79666 25.6321 8.87249 25.9246C9.24083 27.2896 8.43916 28.6979 7.08499 29.0554C6.79249 29.1312 6.49999 29.1529 6.20749 29.1312C6.22916 29.1854 6.25083 29.2287 6.26166 29.2721C6.51083 30.1821 5.96916 31.1246 5.06999 31.3629C4.17083 31.6012 4.05166 30.8429 3.81333 29.9329V29.9437Z" fill="#00A096"/>
<path d="M6.68397 40.6803C6.80314 41.1353 8.23314 46.4653 8.23314 46.4653C8.23314 46.4653 13.509 45.057 13.964 44.927C14.8631 44.6887 15.6215 44.5695 15.3831 43.6595C15.1448 42.7495 14.2023 42.2078 13.3031 42.4462C13.249 42.457 13.2056 42.4787 13.1623 42.5003C13.184 42.2078 13.1623 41.9153 13.0865 41.6228C12.7181 40.2578 11.3206 39.4454 9.96647 39.8029C9.67397 39.8787 9.40314 40.0087 9.17564 40.1712C9.17564 40.117 9.16481 40.0737 9.15397 40.0195C8.90481 39.1095 7.97314 38.5678 7.07397 38.8062C6.17481 39.0445 6.45647 39.7595 6.69481 40.6803H6.68397Z" fill="#00A096"/>
<path d="M43.8532 30.7242C43.9724 31.1792 45.4024 36.5092 45.4024 36.5092C45.4024 36.5092 40.1266 37.9176 39.6716 38.0476C38.7724 38.2859 38.0574 38.5676 37.8083 37.6576C37.5591 36.7476 38.1007 35.8051 38.9999 35.5667C39.0541 35.5559 39.0974 35.5559 39.1516 35.5451C38.9891 35.3067 38.8591 35.0359 38.7724 34.7434C38.4041 33.3784 39.2057 31.9701 40.5599 31.6126C40.8524 31.5367 41.1449 31.5151 41.4374 31.5367C41.4158 31.4826 41.3941 31.4392 41.3833 31.3959C41.1341 30.4859 41.6757 29.5434 42.5749 29.3051C43.4741 29.0667 43.5932 29.8251 43.8316 30.7351L43.8532 30.7242Z" fill="#00A096"/>
<path d="M26.5558 40.5067C30.6592 39.4079 32.9307 34.577 31.6292 29.7164C30.3277 24.8559 25.9462 21.8063 21.8428 22.9051C17.7393 24.0038 15.4679 28.8348 16.7694 33.6953C18.0708 38.5559 22.4524 41.6054 26.5558 40.5067Z" fill="#00A096"/>
</svg>
