<svg width="52" height="52" viewBox="0 0 52 52" fill="none" xmlns="http://www.w3.org/2000/svg">
<path d="M37.7434 24.3645C37.2667 26.477 36.8334 27.0837 35.4684 27.0837C33.6701 27.0837 32.3484 25.8378 32.3484 24.3537C32.3484 22.8695 33.8001 21.667 35.5984 21.667C37.7217 21.667 38.2417 22.2087 37.7434 24.3645Z" fill="#F5F0EB"/>
<path d="M14.2567 24.3645C14.7333 26.477 15.1667 27.0837 16.5317 27.0837C18.33 27.0837 19.6517 25.8378 19.6517 24.3537C19.6517 22.8695 18.2 21.667 16.4017 21.667C14.2783 21.667 13.7583 22.2087 14.2567 24.3645Z" fill="#F5F0EB"/>
<path d="M40.105 40.2137C38.5883 38.1445 30.3333 34.667 30.3333 34.667H21.6667C21.6667 34.667 13.4225 38.1445 11.895 40.2137C10.0642 42.7162 9.75 46.5837 9.75 46.5837H42.25C42.25 46.5837 41.9358 42.7162 40.105 40.2137Z" fill="#AA9673"/>
<path d="M21.6667 24.917V34.667C21.6667 37.8737 26.0001 40.0837 26.0001 40.0837C26.0001 40.0837 30.3334 37.9062 30.3334 34.667V24.917H21.6667Z" fill="#F5F0EB"/>
<path d="M15.1667 19.2292C15.1667 30.0517 20.9951 34.6667 26.0001 34.6667V6.5C17.3226 6.5 15.1667 13.0975 15.1667 19.2292Z" fill="#F5F0EB"/>
<path d="M36.8333 19.2292C36.8333 30.0517 31.005 34.6667 26 34.6667V6.5C34.6775 6.5 36.8333 13.0975 36.8333 19.2292Z" fill="#F5F0EB"/>
<path d="M35.7501 18.4167C35.9667 23.0858 35.1217 26 35.1217 26C35.1217 26 37.9167 22.2733 37.9167 18.4167C37.9167 14.0508 35.7826 7.65918 31.4167 7.65918C31.4167 7.65918 35.8692 12.7292 35.7501 18.4167Z" fill="#D7C8A5"/>
<path d="M16.2499 18.4167C16.0333 23.0858 16.8783 26 16.8783 26C16.8783 26 14.0833 22.2733 14.0833 18.4167C14.0833 14.0508 16.2174 7.65918 20.5833 7.65918C20.5833 7.65918 16.1308 12.7292 16.2499 18.4167Z" fill="#D7C8A5"/>
<path d="M33.0417 19.9337C33.0417 19.9337 31.8392 19.5003 30.3334 19.5003C28.8276 19.5003 28.1667 19.5003 28.1667 18.9587C28.1667 18.417 28.9359 18.417 30.3334 18.417C32.2617 18.417 33.0417 19.9337 33.0417 19.9337Z" fill="#D7C8A5"/>
<path d="M18.9583 19.9337C18.9583 19.9337 20.1608 19.5003 21.6666 19.5003C23.1724 19.5003 23.8333 19.5003 23.8333 18.9587C23.8333 18.417 23.0641 18.417 21.6666 18.417C19.7383 18.417 18.9583 19.9337 18.9583 19.9337Z" fill="#D7C8A5"/>
<path d="M34.6667 23.8337C31.8067 35.0462 30.5176 28.167 28.1667 28.167H23.8334C21.4826 28.167 20.1934 35.0462 17.3334 23.8337C16.3801 23.292 15.1667 20.562 15.1667 20.042C15.1667 31.9912 19.5001 37.917 26.0001 37.917C32.5001 37.917 36.8334 31.9912 36.8334 20.042C36.8334 20.562 35.6201 23.292 34.6667 23.8337Z" fill="#D7C8A5"/>
<path d="M23.2917 30.9834C23.2917 30.9834 24.4942 31.4167 26.0001 31.4167C27.5059 31.4167 28.7084 30.9834 28.7084 30.9834C28.7084 30.9834 27.6142 32.5001 26.0001 32.5001C24.3859 32.5001 23.2917 30.9834 23.2917 30.9834Z" fill="#F5F0EB"/>
<path d="M24.3967 27.8525C24.3967 27.8525 25.1117 28.1559 26.0001 28.1559C26.8884 28.1559 27.6034 27.8525 27.6034 27.8525C27.6034 27.8525 27.1376 29.0117 26.0001 29.0117C24.8626 29.0117 24.3967 27.8525 24.3967 27.8525Z" fill="#F5F0EB"/>
</svg>
