<svg width="52" height="52" viewBox="0 0 52 52" fill="none" xmlns="http://www.w3.org/2000/svg">
<path d="M42.25 5.41699H9.75V46.5837H42.25V5.41699Z" fill="#F0823C"/>
<path d="M39 8.66699H13V43.3337H39V8.66699Z" fill="white"/>
<path d="M39 43.3334H30.9292L39 35.165V43.3334Z" fill="#FFEBD2"/>
<path d="M35.1975 26.7373H16.8025V28.6765H35.1975V26.7373Z" fill="#F5AA6E"/>
<path d="M29.0719 16.7084L23.5947 22.1855L24.9659 23.5567L30.4431 18.0796L29.0719 16.7084Z" fill="#F0823C"/>
<path d="M22.9195 18.7636L21.5483 20.1348L24.9725 23.5589L26.3437 22.1877L22.9195 18.7636Z" fill="#F0823C"/>
<path d="M33.2583 30.6045H16.8025V32.5437H33.2583V30.6045Z" fill="#F5AA6E"/>
<path d="M35.1975 34.4824H16.8025V36.4216H35.1975V34.4824Z" fill="#F5AA6E"/>
<path d="M26.0001 2.16699C23.6167 2.16699 21.6667 4.11699 21.6667 6.50033C21.6667 8.88366 23.6167 10.8337 26.0001 10.8337C28.3834 10.8337 30.3334 8.88366 30.3334 6.50033C30.3334 4.11699 28.3834 2.16699 26.0001 2.16699Z" fill="#F5AA6E"/>
<path d="M18.4167 5.41699V9.75033C18.4167 10.942 19.3917 11.917 20.5834 11.917H31.4167C32.6084 11.917 33.5834 10.942 33.5834 9.75033V5.41699H18.4167Z" fill="#F5AA6E"/>
</svg>
