<svg width="52" height="52" viewBox="0 0 52 52" fill="none" xmlns="http://www.w3.org/2000/svg">
<path d="M23.8334 23.834H18.4167V28.1673C18.4167 28.7632 18.9042 29.2507 19.5001 29.2507H22.7501C23.3459 29.2507 23.8334 28.7632 23.8334 28.1673V23.834Z" fill="#2D3E4F"/>
<path d="M46.5834 23.834H41.1667V28.1673C41.1667 28.7632 41.6542 29.2507 42.2501 29.2507H45.5001C46.0959 29.2507 46.5834 28.7632 46.5834 28.1673V23.834Z" fill="#A5B9C3"/>
<path d="M46.4534 16.9762L42.7701 6.84699C42.4559 5.99116 41.6434 5.41699 40.7334 5.41699H24.2667C23.3567 5.41699 22.5442 5.99116 22.2301 6.84699L18.5467 16.9762C18.4601 17.2145 18.4167 17.4637 18.4167 17.7128V24.917C18.4167 26.1087 19.3917 27.0837 20.5834 27.0837H44.4167C45.6084 27.0837 46.5834 26.1087 46.5834 24.917V17.7128C46.5834 17.4637 46.5401 17.2145 46.4534 16.9762Z" fill="#D2DCE1"/>
<path d="M43.0517 13.7157L41.1126 8.29898C40.9609 7.86565 40.5492 7.58398 40.0942 7.58398H24.8951C24.4401 7.58398 24.0284 7.87648 23.8767 8.29898L21.9376 13.7157C21.6884 14.4198 22.2084 15.1673 22.9559 15.1673H42.0226C42.7701 15.1673 43.2901 14.4198 43.0409 13.7157H43.0517Z" fill="#F5F5F5"/>
<path d="M43.3335 23.834H21.6668C21.071 23.834 20.5835 23.3465 20.5835 22.7507V18.4173C20.5835 17.8215 21.071 17.334 21.6668 17.334H43.3335C43.9293 17.334 44.4168 17.8215 44.4168 18.4173V22.7507C44.4168 23.3465 43.9293 23.834 43.3335 23.834Z" fill="#A5B9C3"/>
<path d="M41.1667 22.7503C42.3633 22.7503 43.3333 21.7803 43.3333 20.5837C43.3333 19.387 42.3633 18.417 41.1667 18.417C39.97 18.417 39 19.387 39 20.5837C39 21.7803 39.97 22.7503 41.1667 22.7503Z" fill="white"/>
<path d="M23.8334 22.7503C25.03 22.7503 26.0001 21.7803 26.0001 20.5837C26.0001 19.387 25.03 18.417 23.8334 18.417C22.6368 18.417 21.6667 19.387 21.6667 20.5837C21.6667 21.7803 22.6368 22.7503 23.8334 22.7503Z" fill="#E3F2FD"/>
<path d="M10.8334 32.5H5.41675V36.8333C5.41675 37.4292 5.90425 37.9167 6.50008 37.9167H9.75008C10.3459 37.9167 10.8334 37.4292 10.8334 36.8333V32.5Z" fill="black"/>
<path d="M33.5834 32.5H28.1667V36.8333C28.1667 37.4292 28.6542 37.9167 29.2501 37.9167H32.5001C33.0959 37.9167 33.5834 37.4292 33.5834 36.8333V32.5Z" fill="black"/>
<path d="M33.4534 25.6432L29.7701 15.514C29.4559 14.6582 28.6434 14.084 27.7334 14.084H11.2667C10.3567 14.084 9.54425 14.6582 9.23008 15.514L5.54675 25.6432C5.46008 25.8815 5.41675 26.1307 5.41675 26.3798V33.584C5.41675 34.7757 6.38091 35.7506 7.58341 35.7506H31.4167C32.6084 35.7506 33.5834 34.7757 33.5834 33.584V26.3798C33.5834 26.1307 33.5401 25.8815 33.4534 25.6432Z" fill="#414646"/>
<path d="M30.0517 22.3817L28.1126 16.965C27.9609 16.5317 27.5492 16.25 27.0942 16.25H11.8951C11.4401 16.25 11.0284 16.5425 10.8767 16.965L8.93757 22.3817C8.68841 23.0858 9.20841 23.8333 9.95591 23.8333H29.0334C29.7809 23.8333 30.3009 23.0967 30.0517 22.3817Z" fill="#C8CDCD"/>
<path d="M30.3335 32.5H8.66683C8.071 32.5 7.5835 32.0125 7.5835 31.4167V27.0833C7.5835 26.4875 8.071 26 8.66683 26H30.3335C30.9293 26 31.4168 26.4875 31.4168 27.0833V31.4167C31.4168 32.0125 30.9293 32.5 30.3335 32.5Z" fill="black"/>
<path d="M28.1667 31.4173C29.3633 31.4173 30.3333 30.4473 30.3333 29.2507C30.3333 28.054 29.3633 27.084 28.1667 27.084C26.97 27.084 26 28.054 26 29.2507C26 30.4473 26.97 31.4173 28.1667 31.4173Z" fill="#E3F2FD"/>
<path d="M10.8334 31.4173C12.03 31.4173 13.0001 30.4473 13.0001 29.2507C13.0001 28.054 12.03 27.084 10.8334 27.084C9.6368 27.084 8.66675 28.054 8.66675 29.2507C8.66675 30.4473 9.6368 31.4173 10.8334 31.4173Z" fill="white"/>
<path d="M19.5002 41.167H14.0835V45.5003C14.0835 46.0962 14.571 46.5837 15.1668 46.5837H18.4168C19.0127 46.5837 19.5002 46.0962 19.5002 45.5003V41.167Z" fill="#F5AA23"/>
<path d="M42.2502 41.167H36.8335V45.5003C36.8335 46.0962 37.321 46.5837 37.9168 46.5837H41.1668C41.7627 46.5837 42.2502 46.0962 42.2502 45.5003V41.167Z" fill="#F5AA23"/>
<path d="M42.1202 34.3092L38.4368 24.18C38.1227 23.3242 37.3102 22.75 36.4002 22.75H19.9335C19.0235 22.75 18.211 23.3242 17.8968 24.18L14.2135 34.3092C14.1268 34.5475 14.0835 34.7967 14.0835 35.0458V42.25C14.0835 43.4417 15.0585 44.4167 16.2502 44.4167H40.0835C41.2752 44.4167 42.2502 43.4417 42.2502 42.25V35.0458C42.2502 34.7967 42.2068 34.5475 42.1202 34.3092Z" fill="#FFD25F"/>
<path d="M38.7185 31.0487L36.7793 25.632C36.6277 25.1987 36.216 24.917 35.761 24.917H20.5618C20.1068 24.917 19.6952 25.2095 19.5435 25.632L17.6043 31.0487C17.3552 31.7528 17.8752 32.5003 18.6227 32.5003H37.6893C38.4368 32.5003 38.9568 31.7637 38.7077 31.0487H38.7185Z" fill="#FFF5D7"/>
<path d="M39 41.167H17.3333C16.7375 41.167 16.25 40.6795 16.25 40.0837V35.7503C16.25 35.1545 16.7375 34.667 17.3333 34.667H39C39.5958 34.667 40.0833 35.1545 40.0833 35.7503V40.0837C40.0833 40.6795 39.5958 41.167 39 41.167Z" fill="#F5AA23"/>
<path d="M36.8334 40.0833C38.03 40.0833 39.0001 39.1133 39.0001 37.9167C39.0001 36.72 38.03 35.75 36.8334 35.75C35.6368 35.75 34.6667 36.72 34.6667 37.9167C34.6667 39.1133 35.6368 40.0833 36.8334 40.0833Z" fill="white"/>
<path d="M19.5002 40.0833C20.6968 40.0833 21.6668 39.1133 21.6668 37.9167C21.6668 36.72 20.6968 35.75 19.5002 35.75C18.3035 35.75 17.3335 36.72 17.3335 37.9167C17.3335 39.1133 18.3035 40.0833 19.5002 40.0833Z" fill="white"/>
</svg>
