<svg width="112" height="110" fill="none" xmlns="http://www.w3.org/2000/svg" viewBox="0 0 112 110"><circle cx="56.25" cy="55" r="55" fill="#F8F8F8"/><path d="M88.654 28.596c-14.43-3.387-23.483-6.417-23.565-6.444a1.007 1.007 0 0 0-.667.013c-.082.028-8.29 3.044-23.525 6.431-.462.11-.803.524-.803 1.006v24.705c0 .565.463 1.033 1.021 1.033.558 0 1.021-.468 1.021-1.033V30.442c13.165-2.961 20.979-5.619 22.653-6.211 1.743.565 10.088 3.222 22.626 6.197V57.64c0 3.264-.83 6.5-2.396 9.364a19.308 19.308 0 0 1-6.562 7.01l-12.415 7.078a2.612 2.612 0 0 1-1.607.317 1.028 1.028 0 0 0-1.143.895c-.068.565.327 1.088.885 1.157.19.028.38.041.585.041.79 0 1.593-.206 2.287-.606l12.443-7.092c.014-.014.027-.014.04-.027 3.037-1.915 5.542-4.6 7.284-7.767a21.687 21.687 0 0 0 2.641-10.37V29.602a1.068 1.068 0 0 0-.803-1.006Z" fill="#254F9D"/><path d="M71.542 29.725c-4.084-1.17-6.426-1.969-6.453-1.969a1.048 1.048 0 0 0-.68.014c-.069.014-6.549 2.424-18.583 5.137a1.04 1.04 0 0 0-.803 1.005v9.378c0 .565.462 1.033 1.02 1.033.559 0 1.022-.468 1.022-1.033v-8.552c10.278-2.355 16.254-4.407 17.71-4.916.79.261 2.955.964 6.209 1.886a1.032 1.032 0 0 0 1.266-.716 1.033 1.033 0 0 0-.708-1.267ZM82.46 56.373c0 5.288-2.6 10.122-6.97 12.945l-10.905 6.156c-.49.275-.667.909-.395 1.404.19.345.531.524.899.524.163 0 .34-.041.49-.138l10.932-6.17c.013-.013.027-.013.054-.027 4.97-3.195 7.95-8.69 7.95-14.694v-6.307c0-.565-.462-1.033-1.02-1.033-.559 0-1.022.468-1.022 1.033v6.307h-.013ZM79.887 36.157a.995.995 0 0 0-.735-.33c-.273 0-.545.11-.735.302L64.258 50.451l-2.926-2.96a1.014 1.014 0 0 0-1.444 0l-2.94 2.974c-.395.4-.395 1.06 0 1.46l6.548 6.624a1.014 1.014 0 0 0 1.443 0l17.725-17.93c.381-.4.395-1.02.027-1.433l-2.804-3.03ZM64.204 56.373l-5.105-5.164 1.497-1.515 2.927 2.96a1.014 1.014 0 0 0 1.443 0L79.097 38.36 80.5 39.89 64.203 56.373ZM56.962 61.469h-6.127c1.13-1.405 2.464-3.526 2.86-6.005.217-1.363.367-2.781.435-4.227A4.16 4.16 0 0 0 53 48.152a4.034 4.034 0 0 0-2.981-1.295c-2.002 0-3.703 1.446-4.057 3.443-.613 3.526-1.688 5.977-3.009 6.927-.722.51-1.307.868-1.783 1.143-1.021.592-1.838 1.074-2.11 2.314-.654 2.988-1.947 4.338-3.145 4.93-.381-.744-1.117-1.253-1.96-1.253h-.028l-4.288.082a2.184 2.184 0 0 0-1.593.744 2.306 2.306 0 0 0-.381.592h-4.588c-.558 0-1.02.468-1.02 1.033 0 .564.462 1.033 1.02 1.033h4.384l.19 16.085h-4.574c-.558 0-1.02.468-1.02 1.032 0 .565.462 1.033 1.02 1.033h5.037c.409.565 1.049.937 1.77.937h.027l4.288-.083a2.184 2.184 0 0 0 1.593-.744c.313-.358.504-.798.572-1.267 1.048-.11 3.158-.247 4.792.042 1.17.206 2.396.316 3.648.316h12.157c2.655 0 4.806-2.175 4.806-4.86V66.33c0-1.295-.504-2.52-1.402-3.43a4.763 4.763 0 0 0-3.404-1.431ZM34.267 84.742c-.028.027-.055.055-.096.055l-4.288.083c-.068 0-.177-.11-.177-.29l-.204-17.792c0-.096.027-.179.081-.248.028-.027.055-.055.096-.055l4.288-.083c.068 0 .177.11.177.29l.204 17.792c0 .097-.027.193-.081.248Zm25.457-4.407c0 1.543-1.239 2.796-2.764 2.796H44.805c-1.13 0-2.246-.097-3.294-.276-1.77-.316-3.92-.193-5.132-.082L36.2 67.735c2.396-.882 4.111-3.21 4.86-6.61.068-.317.19-.428 1.13-.965.517-.303 1.157-.674 1.946-1.239 1.253-.895 2.927-3.057 3.84-8.249a2.08 2.08 0 0 1 2.042-1.735c.571 0 1.102.234 1.497.647.395.427.599.978.572 1.556a38.012 38.012 0 0 1-.409 4.008c-.585 3.649-3.839 6.555-3.866 6.582a1.067 1.067 0 0 0-.327 1.02v5.99c0 2.92-1.728 5.536-4.397 6.651l-1.062.455c-.517.22-.762.826-.558 1.35.163.399.545.633.94.633.136 0 .258-.028.394-.083l1.062-.454c3.43-1.446 5.65-4.806 5.65-8.566v-5.205h7.433c.735 0 1.43.289 1.947.812.517.523.803 1.226.803 1.97v14.032h.027Z" fill="#254F9D"/></svg>