<svg width="110" height="110" fill="none" xmlns="http://www.w3.org/2000/svg" viewBox="0 0 110 110"><circle cx="55" cy="55" r="55" fill="#F8F8F8"/><path d="M29.736 79.167a7.269 7.269 0 0 1-5.113-2.112A7.19 7.19 0 0 1 22.5 71.97V69.99c0-.335.135-.655.373-.892.238-.236.56-.37.896-.37h3.149V36.022a5.182 5.182 0 0 1 1.53-3.667 5.24 5.24 0 0 1 3.688-1.522h45.728a5.239 5.239 0 0 1 3.688 1.521 5.182 5.182 0 0 1 1.53 3.668v24.306c0 .335-.134.656-.372.892-.238.237-.56.37-.897.371-.336 0-.659-.134-.897-.37a1.262 1.262 0 0 1-.372-.893V36.023a2.666 2.666 0 0 0-.788-1.882 2.695 2.695 0 0 0-1.892-.782H32.136c-.71.002-1.39.284-1.891.783a2.665 2.665 0 0 0-.787 1.88v32.704H49.44c.336 0 .659.134.897.37.237.237.371.558.372.892.002.566.228 1.108.63 1.507.402.4.947.625 1.515.626h4.253a2.156 2.156 0 0 0 1.516-.626c.402-.4.628-.941.63-1.507 0-.334.134-.655.372-.891.238-.237.56-.37.897-.371H86.23c.336 0 .659.134.897.37.237.237.371.558.372.893v1.981a7.191 7.191 0 0 1-2.124 5.085 7.27 7.27 0 0 1-5.113 2.112H29.736Zm-4.697-7.197a4.665 4.665 0 0 0 1.377 3.302 4.716 4.716 0 0 0 3.32 1.37h50.528a4.716 4.716 0 0 0 3.32-1.37 4.664 4.664 0 0 0 1.378-3.302v-.719H61.615a4.667 4.667 0 0 1-1.681 2.45 4.71 4.71 0 0 1-2.826.947h-4.253a4.708 4.708 0 0 1-2.826-.947 4.665 4.665 0 0 1-1.681-2.45h-23.31l.002.72Zm55.353-6.704a1.258 1.258 0 0 1 .783-1.167 1.278 1.278 0 0 1 1.384.274 1.263 1.263 0 0 1 .371.893c0 .335-.134.656-.372.893a1.274 1.274 0 0 1-1.795 0 1.26 1.26 0 0 1-.371-.893Zm-46.568.681a1.277 1.277 0 0 1-.897-.37 1.263 1.263 0 0 1-.373-.892V37.488c.001-.334.135-.655.373-.892.238-.236.56-.37.897-.37h42.783a1.27 1.27 0 0 1 1.174.778c.064.154.096.318.096.484v27.197c-.001.334-.135.655-.373.891-.238.237-.56.37-.897.371H33.824Zm36.97-17.664v15.14h4.544V38.75H35.093v24.658h4.622v-5.012c0-.334.134-.655.372-.892.238-.236.56-.37.897-.37.337 0 .659.134.897.37.238.237.372.558.373.892v5.012h4.596v-1.222c0-.334.134-.655.372-.891.238-.237.56-.37.897-.371.337 0 .659.134.897.37.238.237.372.558.373.892v1.225h4.595v-8.533c.001-.335.136-.655.373-.892.238-.236.56-.37.897-.371.336 0 .658.134.896.37.238.237.372.558.373.893v8.533h4.595v-5.618c.002-.334.136-.655.373-.892.238-.236.56-.37.897-.37.337 0 .659.134.897.37.238.237.372.557.374.892v5.618h4.595V48.285c0-.335.135-.656.373-.892.238-.237.56-.37.897-.371.337 0 .659.134.897.37s.372.557.374.891h-.001ZM46.95 57.438c0-.335.134-.656.372-.893a1.273 1.273 0 0 1 1.795 0 1.26 1.26 0 0 1-.898 2.155c-.336 0-.659-.133-.897-.37a1.26 1.26 0 0 1-.372-.892Zm-7.25-4.202c0-.335.135-.656.373-.893a1.273 1.273 0 0 1 2.07.41 1.257 1.257 0 0 1-.275 1.376 1.269 1.269 0 0 1-1.384.273 1.27 1.27 0 0 1-.687-.685 1.258 1.258 0 0 1-.096-.484v.003Zm21.545-.505c0-.335.134-.656.372-.893a1.273 1.273 0 0 1 1.795 0 1.26 1.26 0 0 1-.898 2.155 1.278 1.278 0 0 1-.898-.37 1.26 1.26 0 0 1-.37-.895l-.001.003Zm-7.072-3.119a1.256 1.256 0 0 1 .784-1.166 1.274 1.274 0 0 1 1.384.274 1.26 1.26 0 0 1-.898 2.154 1.276 1.276 0 0 1-1.173-.78 1.254 1.254 0 0 1-.096-.484v.002Zm14.067-5.796c0-.335.134-.656.372-.893a1.273 1.273 0 0 1 1.795 0 1.26 1.26 0 0 1-.897 2.156 1.275 1.275 0 0 1-1.173-.782 1.256 1.256 0 0 1-.096-.483v.002Z" fill="#254F9D"/></svg>