<svg width="36" height="36" fill="none" xmlns="http://www.w3.org/2000/svg" viewBox="0 0 36 36"><path d="M18 36c9.941 0 18-8.059 18-18S27.941 0 18 0 0 8.059 0 18s8.059 18 18 18Z" fill="#254F9D"/><path fill-rule="evenodd" clip-rule="evenodd" d="M18 9.124c-2.419 0-2.721.01-3.66.054-.95.043-1.588.184-2.16.41-.583.227-1.08.53-1.566 1.026a4.234 4.234 0 0 0-1.026 1.566c-.226.572-.367 1.21-.41 2.16-.043.939-.054 1.241-.054 3.66 0 2.408.01 2.71.054 3.66.043.94.184 1.588.41 2.15a4.36 4.36 0 0 0 1.026 1.576c.486.486.983.799 1.566 1.015.572.226 1.21.378 2.16.42.939.044 1.241.055 3.66.055 2.408 0 2.71-.011 3.66-.054.94-.043 1.588-.195 2.15-.421a4.33 4.33 0 0 0 1.576-1.015 4.33 4.33 0 0 0 1.015-1.577c.226-.561.378-1.21.42-2.149.044-.95.055-1.252.055-3.66 0-2.419-.011-2.721-.054-3.66-.043-.95-.195-1.588-.421-2.16a4.204 4.204 0 0 0-1.015-1.566 4.36 4.36 0 0 0-1.577-1.026c-.561-.216-1.21-.367-2.149-.41-.95-.043-1.252-.054-3.66-.054Zm0 1.598c2.365 0 2.645.01 3.585.054.864.033 1.339.184 1.641.302.421.162.713.357 1.026.66.313.312.507.604.659 1.025.13.313.27.777.313 1.641.043.94.054 1.22.054 3.596 0 2.365-.011 2.645-.065 3.585-.043.864-.184 1.339-.302 1.641a2.865 2.865 0 0 1-.67 1.026 2.621 2.621 0 0 1-1.015.659c-.313.129-.788.27-1.663.313-.94.043-1.22.054-3.585.054-2.375 0-2.656-.011-3.595-.065-.864-.043-1.35-.184-1.652-.303a2.867 2.867 0 0 1-1.026-.669 2.62 2.62 0 0 1-.659-1.015c-.13-.313-.27-.788-.313-1.663-.032-.928-.043-1.22-.043-3.574 0-2.365.01-2.656.043-3.596.043-.864.184-1.35.313-1.652.151-.42.346-.712.659-1.025a2.583 2.583 0 0 1 1.026-.66c.302-.129.777-.27 1.64-.312.94-.033 1.221-.043 3.597-.043l.032.021Zm0 2.721a4.558 4.558 0 1 0 .002 9.111 4.558 4.558 0 0 0-.002-9.11Zm0 7.516a2.956 2.956 0 0 1-2.959-2.96A2.95 2.95 0 0 1 18 15.042 2.956 2.956 0 0 1 20.959 18 2.963 2.963 0 0 1 18 20.959Zm5.798-7.7c0 .584-.475 1.07-1.069 1.07a1.07 1.07 0 0 1 0-2.138c.594 0 1.07.486 1.07 1.069Z" fill="#fff"/></svg>