<svg width="52" height="52" fill="none" xmlns="http://www.w3.org/2000/svg" viewBox="0 0 52 52"><path d="M37.743 24.364c-.476 2.113-.91 2.72-2.275 2.72-1.798 0-3.12-1.246-3.12-2.73 0-1.485 1.452-2.687 3.25-2.687 2.124 0 2.644.542 2.145 2.697ZM14.257 24.364c.476 2.113.91 2.72 2.275 2.72 1.798 0 3.12-1.246 3.12-2.73 0-1.485-1.452-2.687-3.25-2.687-2.124 0-2.644.542-2.145 2.697Z" fill="#F5F0EB"/><path d="M11.895 40.214c1.517-2.07 9.772-5.547 9.772-5.547h8.666s8.245 3.477 9.772 5.547c1.83 2.502 2.145 6.37 2.145 6.37H9.75s.314-3.868 2.145-6.37Z" fill="#AA9673"/><path d="M21.667 26v9.75c0 3.207 4.333 5.417 4.333 5.417s4.333-2.178 4.333-5.417V26h-8.666Z" fill="#F5F0EB"/><path d="M26 9.75c-6.272 0-10.833 3.965-10.833 9.48 0 10.822 5.828 15.437 10.833 15.437s10.833-4.615 10.833-15.438c0-4.04-4.56-9.479-10.833-9.479Z" fill="#F5F0EB"/><path d="M26 5.417c-4.355 0-6.088 4.333-9.75 4.333-2.297 0-3-2.361-1.083-3.25-2.47.683-3.25 2.145-3.25 3.434 0 2.492 2.166 4.15 2.166 4.15 0 4.582 1.701 9.75 1.701 9.75s.466-5.645.466-8.667c0 0 2.936 1.083 6.5 1.083 7.074 0 8.667-4.333 8.667-4.333s.812 4.15 4.333 5.417c.217 4.669.455 6.5.455 6.5s1.712-4.81 1.712-8.667c0-4.366-2.134-7.583-6.5-7.583 0 0-1.744-2.167-5.417-2.167Z" fill="#D7C8A5"/><path d="m36.508 23.833-6.175 3.25s-2.632-2.166-4.322-2.166v-4.334s2.61-1.083 4.333-1.083c3.25 0 6.923 1.083 6.923 1.083-.098 2.254-.759 3.25-.759 3.25Z" fill="#F44336"/><path d="m36.508 23.833-6.175 3.25s-2.632-2.166-4.322-2.166v-4.334s2.61-1.083 4.333-1.083c3.25 0 6.923 1.083 6.923 1.083-.098 2.254-.759 3.25-.759 3.25Z" fill="#F44336"/><path d="m36.508 23.833-6.175 3.25s-2.632-2.166-4.322-2.166v-4.334s2.61-1.083 4.333-1.083c3.25 0 6.923 1.083 6.923 1.083-.098 2.254-.759 3.25-.759 3.25ZM15.492 23.833l6.175 3.25s2.632-2.166 4.322-2.166v-4.334S23.38 19.5 21.656 19.5c-3.25 0-6.923 1.083-6.923 1.083.098 2.254.759 3.25.759 3.25Z" fill="#AA9673"/><path d="M32.5 23.833s-.975 1.084-2.167 1.084c-1.191 0-2.166-1.084-2.166-1.084s.975-1.083 2.166-1.083c1.192 0 2.167 1.083 2.167 1.083ZM23.833 23.833s-.975 1.084-2.166 1.084c-1.192 0-2.167-1.084-2.167-1.084s.975-1.083 2.167-1.083c1.191 0 2.166 1.083 2.166 1.083Z" fill="#fff"/></svg>