<svg width="52" height="52" fill="none" xmlns="http://www.w3.org/2000/svg" viewBox="0 0 52 52"><path d="M43.67 5.7 6.742 15.587l5.91 22.07 36.93-9.889L43.67 5.7Z" fill="#D7EBEB"/><path d="m42.91 7.01 5.352 19.976-34.84 9.339-5.351-19.977L42.91 7.01Zm1.528-2.655L5.416 14.81l6.468 24.158 39.032-10.454L44.45 4.355h-.01Z" fill="#32B9BE"/><path d="M45.316 11.321c-.12-.455-1.55-5.785-1.55-5.785s-5.275 1.408-5.73 1.538c-.9.239-1.658.347-1.42 1.268.25.91 1.17 1.452 2.08 1.213a.543.543 0 0 0 .141-.054c-.021.293 0 .585.076.878.369 1.365 1.766 2.188 3.12 1.82.293-.076.553-.206.791-.369 0 .054.01.098.022.152.249.91 1.17 1.452 2.08 1.213.899-.238.617-.964.379-1.874h.01ZM8.147 21.277c-.12-.455-1.55-5.785-1.55-5.785s5.276-1.409 5.731-1.539c.9-.238 1.614-.52 1.864.39A1.7 1.7 0 0 1 13 16.434c-.054.011-.098.022-.152.022.163.238.293.51.38.802.368 1.365-.434 2.773-1.788 3.13-.293.076-.585.098-.878.076.022.054.044.098.055.141a1.7 1.7 0 0 1-1.192 2.09c-.9.24-1.018-.52-1.257-1.43l-.021.012ZM48.187 22.057c.119.455 1.549 5.785 1.549 5.785s-5.276 1.409-5.731 1.539c-.9.238-1.614.52-1.864-.39a1.7 1.7 0 0 1 1.192-2.091c.054-.011.098-.011.152-.022a2.874 2.874 0 0 1-.38-.802c-.368-1.365.434-2.773 1.788-3.13.293-.076.585-.098.878-.076-.022-.054-.044-.098-.054-.141a1.7 1.7 0 0 1 1.191-2.09c.9-.24 1.018.52 1.257 1.43l.022-.012ZM30.894 31.837c4.104-1.099 6.375-5.93 5.074-10.79-1.302-4.861-5.683-7.91-9.787-6.812-4.103 1.099-6.375 5.93-5.073 10.79 1.301 4.861 5.683 7.91 9.786 6.812Z" fill="#32B9BE"/><path d="m39.333 14.358-36.93 9.888 5.91 22.07 36.93-9.888-5.91-22.07Z" fill="#D7EBEB"/><path d="m38.577 15.677 5.352 19.976-34.84 9.339-5.352-19.977 34.84-9.338Zm1.528-2.654L1.083 23.477l6.468 24.158 39.032-10.454-6.467-24.158h-.011Z" fill="#00A096"/><path d="M35.913 29.024a1.928 1.928 0 1 0 0-3.857 1.928 1.928 0 0 0 0 3.857ZM11.754 35.501a1.928 1.928 0 1 0 0-3.856 1.928 1.928 0 0 0 0 3.856ZM40.983 19.988c-.12-.455-1.55-5.785-1.55-5.785s-5.276 1.409-5.73 1.539c-.9.238-1.658.346-1.42 1.267.25.91 1.17 1.452 2.08 1.213.054-.01.098-.032.141-.054-.021.293 0 .585.076.878a2.563 2.563 0 0 0 3.12 1.82c.292-.076.552-.206.79-.369 0 .055.012.098.023.152.249.91 1.17 1.452 2.08 1.213.899-.238.617-.964.379-1.874h.01ZM3.813 29.944c-.119-.455-1.549-5.785-1.549-5.785S7.54 22.75 7.995 22.62c.9-.238 1.614-.52 1.852.39.239.91-.292 1.853-1.191 2.091-.054.011-.098.011-.152.022.163.238.293.51.368.802.369 1.365-.433 2.773-1.787 3.13-.293.076-.585.098-.878.076.022.054.044.098.055.141a1.7 1.7 0 0 1-1.192 2.09c-.9.24-1.018-.52-1.257-1.43v.012ZM6.684 40.68c.12.455 1.55 5.785 1.55 5.785s5.275-1.408 5.73-1.538c.9-.238 1.657-.358 1.42-1.267a1.707 1.707 0 0 0-2.08-1.214c-.055.011-.098.033-.142.054a2.68 2.68 0 0 0-.076-.877 2.563 2.563 0 0 0-3.12-1.82 2.411 2.411 0 0 0-.79.368c0-.054-.011-.097-.022-.151a1.712 1.712 0 0 0-2.08-1.214c-.9.239-.618.954-.38 1.874h-.01ZM43.853 30.724c.12.455 1.55 5.785 1.55 5.785s-5.276 1.409-5.731 1.539c-.9.238-1.615.52-1.864-.39A1.7 1.7 0 0 1 39 35.567c.054-.011.097-.011.152-.022a2.877 2.877 0 0 1-.38-.802c-.368-1.365.434-2.773 1.788-3.13.292-.076.585-.098.877-.076-.021-.054-.043-.098-.054-.141a1.7 1.7 0 0 1 1.192-2.09c.9-.24 1.018.52 1.257 1.43l.021-.012ZM26.556 40.507c4.103-1.1 6.375-5.93 5.073-10.79-1.301-4.861-5.683-7.91-9.786-6.812-4.104 1.099-6.375 5.93-5.074 10.79 1.302 4.86 5.683 7.91 9.787 6.812Z" fill="#00A096"/></svg>