<svg width="52" height="52" fill="none" xmlns="http://www.w3.org/2000/svg" viewBox="0 0 52 52"><path d="M40.105 40.214c-1.517-2.07-9.772-5.547-9.772-5.547h-8.666s-8.245 3.477-9.772 5.547c-1.83 2.502-2.145 6.37-2.145 6.37h32.5s-.314-3.868-2.145-6.37Z" fill="#964B96"/><path d="M33.605 41.297c0-2.85-1.614-5.904-2.177-6.153-.672-.304-1.095-.477-1.095-.477H26v11.917l4.333-4.334-1.083-2.166 4.355 1.213ZM18.395 41.297c0-2.85 1.614-5.904 2.178-6.153.671-.304 1.094-.477 1.094-.477H26v11.917l-4.333-4.334 1.083-2.166-4.355 1.213Z" fill="#AA78B4"/><path d="M21.667 24.917v9.75c0 3.207 4.333 9.75 4.333 9.75s4.333-6.51 4.333-9.75v-9.75h-8.666Z" fill="#fff"/><path d="M21.667 24.917v9.75s1.083 2.167 3.25 2.167h2.166c2.167 0 3.25-2.167 3.25-2.167v-9.75h-8.666ZM37.743 24.364c-.476 2.113-.91 2.72-2.275 2.72-1.798 0-3.12-1.246-3.12-2.73 0-1.485 1.452-2.687 3.25-2.687 2.124 0 2.644.542 2.145 2.697ZM14.257 24.364c.476 2.113.91 2.72 2.275 2.72 1.798 0 3.12-1.246 3.12-2.73 0-1.485-1.452-2.687-3.25-2.687-2.124 0-2.644.542-2.145 2.697Z" fill="#E6D7E6"/><path d="M15.167 19.23c0 10.822 5.828 15.437 10.833 15.437V9.75c-6.272 0-10.833 5.438-10.833 9.48ZM36.833 19.23c0 10.822-5.828 15.437-10.833 15.437V9.75c6.273 0 10.833 5.438 10.833 9.48Z" fill="#E6D7E6"/><path d="M26 6.5c-5.98 0-11.917 2.687-11.917 8.667 0 4.582 1.701 9.75 1.701 9.75s.466-3.478.466-6.5c9.934 0 15.167-5.417 15.167-5.417s.812 4.15 4.333 5.417c.217 4.669.455 6.5.455 6.5s1.712-5.894 1.712-9.75c0-4.366-2.135-7.584-6.5-7.584 0 0-1.745-1.083-5.417-1.083Z" fill="#964B96"/><path d="M35.75 8.667c-2.87-1.408-6.457-3.25-9.75-3.25s-6.88 1.842-9.75 3.25c-2.87 1.42-4.333 2.903-4.333 4.333 0 2.167 3.25 4.334 3.25 4.334h21.666s3.25-2.167 3.25-4.334c0-1.43-1.462-2.914-4.333-4.333Z" fill="#964B96"/><path d="M36.183 16.24S31.135 15.167 26 15.167 15.87 16.23 15.817 16.24l-.228-1.062s5.157-1.094 10.4-1.094 10.357 1.083 10.4 1.094l-.227 1.062h.021Z" fill="#AA78B4"/><path d="M36.292 16.25c.299 0 .541-.484.541-1.083 0-.598-.242-1.083-.541-1.083-.3 0-.542.485-.542 1.083 0 .599.242 1.084.542 1.084ZM15.708 16.25c.3 0 .542-.484.542-1.083 0-.598-.242-1.083-.542-1.083-.299 0-.541.485-.541 1.083 0 .599.242 1.084.541 1.084Z" fill="#AA78B4"/><path d="M36.833 17.333S34.093 21.667 26 21.667c-8.092 0-10.833-4.334-10.833-4.334S20.8 16.25 26 16.25s10.833 1.083 10.833 1.083ZM27.083 39h-2.166l-1.084-.52 1.084-1.646h2.166l1.084 1.647-1.084.52Z" fill="#964B96"/><path d="M24.917 42.662A42.954 42.954 0 0 0 26 44.417s.466-.694 1.083-1.745V39h-2.166v3.662Z" fill="#964B96"/><path d="M26 11.917a1.083 1.083 0 1 0 0-2.167 1.083 1.083 0 0 0 0 2.167Z" fill="#AA78B4"/><path d="M26 13a1.083 1.083 0 1 0 0-2.166 1.083 1.083 0 0 0 0 2.167Z" fill="#AA78B4"/><path d="M27.907 11.917H26l1.527-2.286a2.16 2.16 0 0 1 1.799-.964H32.5l-2.297 2.297a3.266 3.266 0 0 1-2.296.953ZM24.093 11.917H26l-1.527-2.286a2.16 2.16 0 0 0-1.799-.964H19.5l2.297 2.297c.606.606 1.44.953 2.296.953Z" fill="#AA78B4"/></svg>