<svg width="52" height="52" fill="none" xmlns="http://www.w3.org/2000/svg" viewBox="0 0 52 52"><path d="M23.833 23.834h-5.416v4.333c0 .596.487 1.084 1.083 1.084h3.25c.596 0 1.083-.488 1.083-1.084v-4.333Z" fill="#2D3E4F"/><path d="M46.583 23.834h-5.416v4.333c0 .596.487 1.084 1.083 1.084h3.25c.596 0 1.083-.488 1.083-1.084v-4.333Z" fill="#A5B9C3"/><path d="M46.453 16.976 42.77 6.847a2.175 2.175 0 0 0-2.037-1.43H24.267c-.91 0-1.723.574-2.037 1.43l-3.683 10.13c-.087.238-.13.487-.13.736v7.204c0 1.192.975 2.167 2.166 2.167h23.834a2.173 2.173 0 0 0 2.166-2.167v-7.204c0-.25-.043-.498-.13-.737Z" fill="#D2DCE1"/><path d="m43.052 13.716-1.94-5.417a1.075 1.075 0 0 0-1.018-.715H24.895a1.09 1.09 0 0 0-1.018.715l-1.94 5.417c-.249.704.271 1.451 1.019 1.451h19.067c.747 0 1.267-.747 1.018-1.451h.01Z" fill="#F5F5F5"/><path d="M43.334 23.834H21.666a1.087 1.087 0 0 1-1.084-1.083v-4.334c0-.596.488-1.083 1.084-1.083h21.666c.596 0 1.084.488 1.084 1.083v4.334c0 .595-.488 1.083-1.084 1.083Z" fill="#A5B9C3"/><path d="M41.167 22.75a2.167 2.167 0 1 0 0-4.333 2.167 2.167 0 0 0 0 4.333Z" fill="#fff"/><path d="M23.833 22.75a2.167 2.167 0 1 0 0-4.333 2.167 2.167 0 0 0 0 4.333Z" fill="#E3F2FD"/><path d="M10.833 32.5H5.417v4.333c0 .596.487 1.084 1.083 1.084h3.25c.596 0 1.083-.488 1.083-1.084V32.5ZM33.583 32.5h-5.416v4.333c0 .596.487 1.084 1.083 1.084h3.25c.596 0 1.083-.488 1.083-1.084V32.5Z" fill="#000"/><path d="M33.453 25.643 29.77 15.514a2.175 2.175 0 0 0-2.037-1.43H11.267c-.91 0-1.723.574-2.037 1.43l-3.683 10.13c-.087.238-.13.487-.13.736v7.204c0 1.192.964 2.167 2.166 2.167h23.834a2.173 2.173 0 0 0 2.166-2.167V26.38c0-.25-.043-.498-.13-.737Z" fill="#414646"/><path d="m30.052 22.382-1.94-5.417a1.075 1.075 0 0 0-1.018-.715H11.895a1.09 1.09 0 0 0-1.018.715l-1.94 5.417c-.249.704.271 1.451 1.019 1.451h19.077c.748 0 1.268-.736 1.019-1.451Z" fill="#C8CDCD"/><path d="M30.334 32.5H8.666a1.087 1.087 0 0 1-1.083-1.083v-4.334c0-.595.487-1.083 1.083-1.083h21.667c.595 0 1.083.488 1.083 1.083v4.334c0 .596-.488 1.083-1.084 1.083Z" fill="#000"/><path d="M28.167 31.417a2.167 2.167 0 1 0 0-4.333 2.167 2.167 0 0 0 0 4.333Z" fill="#E3F2FD"/><path d="M10.833 31.417a2.167 2.167 0 1 0 0-4.333 2.167 2.167 0 0 0 0 4.333Z" fill="#fff"/><path d="M19.5 41.167h-5.416V45.5c0 .596.487 1.084 1.083 1.084h3.25c.596 0 1.083-.488 1.083-1.084v-4.333ZM42.25 41.167h-5.416V45.5c0 .596.487 1.084 1.083 1.084h3.25c.596 0 1.083-.488 1.083-1.084v-4.333Z" fill="#F5AA23"/><path d="m42.12 34.31-3.683-10.13a2.175 2.175 0 0 0-2.037-1.43H19.934c-.91 0-1.723.574-2.037 1.43l-3.683 10.13c-.087.237-.13.487-.13.736v7.204c0 1.192.975 2.167 2.166 2.167h23.834a2.173 2.173 0 0 0 2.166-2.167v-7.204c0-.25-.043-.498-.13-.737Z" fill="#FFD25F"/><path d="m38.718 31.049-1.939-5.417a1.075 1.075 0 0 0-1.018-.715h-15.2a1.09 1.09 0 0 0-1.017.715l-1.94 5.417c-.249.704.271 1.451 1.019 1.451h19.066c.748 0 1.268-.736 1.019-1.451h.01Z" fill="#FFF5D7"/><path d="M39 41.167H17.333a1.087 1.087 0 0 1-1.083-1.083V35.75c0-.596.488-1.083 1.083-1.083H39c.596 0 1.083.487 1.083 1.083v4.334c0 .595-.487 1.083-1.083 1.083Z" fill="#F5AA23"/><path d="M36.833 40.083a2.167 2.167 0 1 0 0-4.333 2.167 2.167 0 0 0 0 4.333ZM19.5 40.083a2.167 2.167 0 1 0 0-4.333 2.167 2.167 0 0 0 0 4.333Z" fill="#fff"/></svg>