<svg width="36" height="36" fill="none" xmlns="http://www.w3.org/2000/svg" viewBox="0 0 36 36"><circle cx="18" cy="18" r="18" fill="#254F9D"/><path fill-rule="evenodd" clip-rule="evenodd" d="M27.517 10.235c1.042.273 1.864 1.07 2.144 2.083.521 1.848.501 5.701.501 5.701s0 3.834-.5 5.682c-.281 1.012-1.103 1.81-2.145 2.082-1.903.487-9.517.487-9.517.487s-7.594 0-9.517-.506c-1.042-.272-1.864-1.07-2.144-2.082C5.838 21.852 5.838 18 5.838 18s0-3.834.5-5.682c.281-1.012 1.123-1.83 2.145-2.102C10.386 9.729 18 9.729 18 9.729s7.614 0 9.517.506Zm-5.61 7.63-6.332 3.541v-7.083l6.332 3.542Z" fill="#fff"/></svg>