<svg width="36" height="36" viewBox="0 0 36 36" fill="none" xmlns="http://www.w3.org/2000/svg">
<circle cx="18" cy="18" r="18" fill="#254F9D"/>
<path fill-rule="evenodd" clip-rule="evenodd" d="M27.5173 10.2354C28.5591 10.5079 29.3806 11.3057 29.6612 12.3176C30.1821 14.1662 30.1621 18.0192 30.1621 18.0192C30.1621 18.0192 30.1621 21.8527 29.6612 23.7014C29.3806 24.7133 28.5591 25.5111 27.5173 25.7835C25.6138 26.27 18 26.27 18 26.27C18 26.27 10.4061 26.27 8.48265 25.7641C7.44076 25.4917 6.61927 24.6938 6.33876 23.6819C5.83784 21.8527 5.83784 17.9998 5.83784 17.9998C5.83784 17.9998 5.83784 14.1662 6.33876 12.3176C6.61927 11.3057 7.4608 10.4884 8.48265 10.216C10.3861 9.72949 18 9.72949 18 9.72949C18 9.72949 25.6138 9.72949 27.5173 10.2354ZM21.907 17.8646L15.5755 21.4063V14.323L21.907 17.8646Z" fill="white"/>
</svg>
