<svg version="1.0" xmlns="http://www.w3.org/2000/svg" width="346.667" height="346.667" viewBox="0 0 260 260"><path d="M118 10.3c-.3.2-3.2.7-6.5 1-12.9 1.3-30.7 5.9-46 11.9-11.2 4.4-30.6 14.2-39.9 20.1l-7.9 5.1.7 36.5c.7 38.4.8 40.3 3.1 57.1 1.7 11.8 1.8 12.3 3.9 20.1 10.8 40.3 36.6 64.3 89.9 83.9 9.9 3.6 14.5 4.8 16.5 4.4 6.9-1.7 30.8-11.2 40.7-16.3 25.9-13.3 42-27.9 52.3-47.1 3.5-6.5 8.7-19.5 9.7-24 .2-.8.8-3.5 1.4-6 .5-2.5 1.2-6.1 1.6-8 .3-1.9.7-4.6 1-6 .5-2.6 1.4-11.3 2.1-18.4.2-2.3.7-20.3 1-40.2l.7-36.1-8.9-5.6c-22.3-14-49-24.7-74.3-29.8-8.9-1.8-39.9-3.8-41.1-2.6z"/></svg>