<svg width="110" height="110" fill="none" xmlns="http://www.w3.org/2000/svg" viewBox="0 0 110 110"><g clip-path="url(#a)"><path d="M55 110c30.38 0 55-24.62 55-55S85.38 0 55 0 0 24.62 0 55s24.62 55 55 55Z" fill="#F8F8F8"/><path d="M28.05 37.3c1.15-1.16 3.9-1.47 8.6-1.2l.55.03h.12c1.16.2 2.05.91 2.63 2.04l.14.29.14.36.11.31c.38 1.16.97 3.49 1.81 7.03l.39 1.68.55 2.39.03.33c-.06 1.22-.39 2.24-1.01 3.05l-.22.26-.66.71c-.48.53-.62.83-.54 1.18l.04.14.3.78c.25.62.64 1.34 1.34 2.39l.24.36.72 1.02.28.38.19.24.29.33c.38.42.93.98 1.63 1.66l1.5 1.45 1.4 1.18.87.72c.71.58 1.25.99 1.61 1.23l.24.15.44.25.75.42c1.3.72 2.18 1.11 2.87 1.34l.34.1.75.2c.43.1.71-.01 1.18-.5l.16-.18.6-.69c.67-.75 1.6-1.23 2.75-1.48l.39-.07h.34l4.52.55 1.65.22c2.07.28 3.6.5 4.61.69l.66.13.32.08.27.08c1.24.4 2.11 1.16 2.52 2.35l.09.28.11.64c.72 4.41.73 7.1-.2 8.44l-.12.15-.35.41c-1.61 1.83-3.38 2.66-5.79 2.28C57.64 82.36 48 78.7 41.29 72.49l-.5-.47-.12-.12C33.38 65.91 28.5 56.49 26 43.76c-.71-2.65.06-4.5 2.03-6.48l.02.02Zm8.92 1.24-.87-.05-.89-.04c-3.14-.11-5.04.14-5.45.55-1.42 1.43-1.86 2.48-1.39 4.24 2.36 11.99 6.82 20.78 13.42 26.46l.51.43.19.19c6.28 6.08 15.58 9.69 28.02 10.8 1.47.23 2.44-.16 3.45-1.22l.22-.24.32-.38c.39-.47.42-2.65-.13-6.2l-.15-.98c-.09-.34-.32-.59-.76-.77l-.2-.07-.2-.06-.28-.07c-.54-.12-1.42-.27-2.65-.45l-1.64-.23-2.34-.31-4.33-.54-.15.03c-.48.1-.85.26-1.13.45l-.16.12-.13.13-.59.68c-1.04 1.17-2.04 1.74-3.45 1.49l-.29-.06-.8-.21-.19-.06c-.9-.27-1.96-.74-3.51-1.59l-.82-.46-.47-.27-.16-.1c-.39-.25-.93-.65-1.64-1.21l-.31-.25-.93-.77-1.46-1.24-1.25-1.2-.92-.91c-.28-.28-.53-.53-.75-.77l-.41-.43-.33-.37-.25-.31-.32-.44c-1.35-1.87-2.06-3.06-2.51-4.09l-.09-.22-.31-.82c-.48-1.35-.15-2.42.77-3.54l.21-.24.67-.71c.3-.33.5-.83.57-1.5v-.15l-.61-2.69c-.87-3.73-1.5-6.28-1.89-7.58l-.1-.34-.13-.38-.08-.19c-.22-.51-.48-.77-.81-.87l-.1-.03-.02.04ZM50.91 26.4c18.41 0 33.33 14.92 33.33 33.33 0 .67-.54 1.2-1.2 1.2-.66 0-1.2-.54-1.2-1.2 0-17.08-13.84-30.92-30.92-30.92-.67 0-1.2-.54-1.2-1.2 0-.66.54-1.2 1.2-1.2l-.01-.01Zm0 16.06c9.54 0 17.27 7.73 17.27 17.27 0 .67-.54 1.2-1.2 1.2-.66 0-1.2-.54-1.2-1.2 0-8.21-6.65-14.86-14.86-14.86-.67 0-1.2-.54-1.2-1.2 0-.66.54-1.2 1.2-1.2l-.01-.01Zm0-8.03c13.97 0 25.3 11.33 25.3 25.3 0 .67-.54 1.2-1.2 1.2-.66 0-1.2-.54-1.2-1.2 0-12.64-10.25-22.89-22.89-22.89-.67 0-1.2-.54-1.2-1.2 0-.66.54-1.2 1.2-1.2l-.01-.01Z" fill="#254F9D"/></g><defs><clipPath id="a"><path fill="#fff" d="M0 0h110v110H0z"/></clipPath></defs></svg>