<?xml version="1.0" encoding="UTF-8"?><!DOCTYPE svg PUBLIC "-//W3C//DTD SVG 1.1//EN" "http://www.w3.org/Graphics/SVG/1.1/DTD/svg11.dtd"><svg xmlns="http://www.w3.org/2000/svg" xmlns:xlink="http://www.w3.org/1999/xlink"><defs><style>.cls-2{fill:#d3333f}</style><style>.cls-2{fill:#d3333f}</style><clipPath id="a"><path transform="translate(.5)" d="M0 0h28v26H0z"/></clipPath><style>.cls-2{fill:#c80010}</style><style>.cls-2{fill:#d3333f}</style><style>.cls-1{fill:none}</style></defs><symbol id="icon-annuities" viewBox="0 0 52 52"><g id="Grupo_904" data-name="Grupo 904" transform="translate(5.135 3.935)"><path id="Trazado_1716" d="M30.289 12.675a12.61 12.61 0 1 0-12.61 12.61 12.623 12.623 0 0 0 12.61-12.61zm-12.61 10.792a10.792 10.792 0 1 1 10.792-10.792 10.8 10.8 0 0 1-10.792 10.792z" class="cls-2" data-name="Trazado 1716" transform="translate(4.138)"/><path id="Trazado_1717" d="M14.919 9.63V6.315a2.333 2.333 0 0 1 1.054.764.909.909 0 1 0 1.442-1.107 4.152 4.152 0 0 0-2.5-1.54v-.56a.909.909 0 1 0-1.818 0v.535a3.812 3.812 0 0 0-3.092 3.371c0 1.942 1.791 2.767 3.092 3.2v3.311a5.339 5.339 0 0 1-2.027-1A.909.909 0 1 0 9.938 14.7a7.157 7.157 0 0 0 3.163 1.44v.6a.909.909 0 0 0 1.818 0v-.524a3.82 3.82 0 0 0 3.092-3.383c.001-1.954-1.903-2.818-3.092-3.203zm-3.1-1.751A1.915 1.915 0 0 1 13.1 6.3v2.726c-1.082-.453-1.273-.845-1.279-1.147zm3.1 6.447v-2.749c1.251.536 1.274 1.038 1.28 1.154a1.94 1.94 0 0 1-1.28 1.595z" class="cls-2" data-name="Trazado 1717" transform="translate(7.842 2.371)"/><path id="Trazado_1718" d="M31.247 8.585a3.1 3.1 0 0 0-5.361 2.076l-.315 7.61a2.915 2.915 0 0 0-1.513.9l-6.945 7.5c-1.756 1.9-2.774 5.191-3.032 9.783a.908.908 0 0 0 .856.96h.051a.909.909 0 0 0 .907-.858c.229-4.1 1.113-7.092 2.553-8.65l6.969-7.529a1.177 1.177 0 0 1 .951-.4c.027 0 .053.016.082.016h.011a1.278 1.278 0 0 1 1.149 1.234 1.3 1.3 0 0 1-.349.936l-5.081 5.49a.91.91 0 0 0 1.336 1.234l5.08-5.489a3.116 3.116 0 0 0-.162-4.407 3.063 3.063 0 0 0-1.045-.618l.316-7.7a1.284 1.284 0 0 1 1.282-1.244h.042a1.279 1.279 0 0 1 1.242 1.313c-.164 4.032-.184 6.634-.2 8.356-.027 3.582-.027 3.582-1.311 6.152a27.049 27.049 0 0 1-6.519 7.274c-.784.7-.911 2.051-.856 4.011a.908.908 0 0 0 .909.885h.024a.914.914 0 0 0 .885-.934c-.056-2.043.156-2.5.2-2.563a28.81 28.81 0 0 0 6.954-7.8c1.476-2.945 1.5-3.078 1.533-7 .013-1.709.033-4.294.2-8.3a3.08 3.08 0 0 0-.843-2.238z" class="cls-2" data-name="Trazado 1718" transform="translate(11.509 6.165)"/><path id="Trazado_1719" d="M8.064 19.2a2.967 2.967 0 0 0-1.538-.933l-.315-7.656a3.077 3.077 0 0 0-.976-2.162 3.039 3.039 0 0 0-2.22-.84 3.1 3.1 0 0 0-3 3.205c.165 4 .184 6.589.2 8.3.029 3.927.056 4.06 1.578 7.085a28.679 28.679 0 0 0 6.859 7.681c.093.1.3.562.249 2.605a.912.912 0 0 0 .885.934h.025a.908.908 0 0 0 .907-.885c.053-1.96-.073-3.314-.9-4.047A27.042 27.042 0 0 1 3.366 25.3c-1.314-2.625-1.314-2.625-1.34-6.2-.013-1.724-.031-4.325-.2-8.35a1.283 1.283 0 0 1 1.245-1.328A1.288 1.288 0 0 1 4.4 10.733l.315 7.636A3.1 3.1 0 0 0 3.5 23.394l5.081 5.489a.9.9 0 0 0 .667.291.907.907 0 0 0 .667-1.525l-5.076-5.493a1.289 1.289 0 0 1 .8-2.169h.058c.018 0 .033-.011.049-.013a1.211 1.211 0 0 1 .96.427l6.945 7.5c1.442 1.558 2.325 4.549 2.554 8.648a.908.908 0 0 0 .905.86h.051a.91.91 0 0 0 .858-.958c-.256-4.592-1.276-7.885-3.032-9.785z" class="cls-2" data-name="Trazado 1719" transform="translate(0 6.167)"/></g></symbol><symbol id="icon-auto" viewBox="0 0 52 53"><path d="M28.199 29.89a.908.908 0 0 1-.275.632.921.921 0 0 1-.643.26h-1.433a.914.914 0 0 1-.643-.264.9.9 0 0 1 0-1.277.913.913 0 0 1 .643-.265h1.433c.244 0 .477.096.65.267.171.17.268.403.268.644v.002Z"/><path d="M51.18 29.753c-.16-1.27-.16-2.555 0-3.825a1.06 1.06 0 0 0-.642-1.116l-4.817-2.23c-7.224-3.509-19.588-2.074-20.069-2.074a36.287 36.287 0 0 0-9.155 3.029 21.482 21.482 0 0 1-5.459 1.594 51.353 51.353 0 0 0-8.509 2.232h-.158a2.546 2.546 0 0 0-1.284 1.593 7 7 0 0 0-.161 4.782 1.353 1.353 0 0 1 0 1.115c-.091.443-.01.904.229 1.289.238.385.616.665 1.055.783a23.19 23.19 0 0 0 3.532.638 5.94 5.94 0 0 0 3.236 3.062 6 6 0 0 0 4.471-.034 6 6 0 0 0 2.729-2.55H36.73a5.52 5.52 0 0 0 3.375 2.502 5.558 5.558 0 0 0 4.171-.588 6.458 6.458 0 0 0 2.087-2.072l.8-.318a7.868 7.868 0 0 0 1.766-.638 4.06 4.06 0 0 0 2.09-2.233l.161-.16v-.319a7.073 7.073 0 0 0 0-4.462Zm-20.39-7.81a37.08 37.08 0 0 1 12.523 1.595 30.886 30.886 0 0 1-12.523 2.549v-4.145.001ZM3.174 29.115l2.408-.794a3.176 3.176 0 0 1-1.285 1.905 3.194 3.194 0 0 1-1.606.32 2.559 2.559 0 0 1 .483-1.431Zm8.023 10.046a3.948 3.948 0 0 1-2.758-1.2 3.89 3.89 0 0 1-1.095-2.785 3.893 3.893 0 0 1 1.209-2.738 3.95 3.95 0 0 1 5.56.116 3.899 3.899 0 0 1 1.098 2.782 4.123 4.123 0 0 1-1.27 2.675 4.18 4.18 0 0 1-2.744 1.15Zm17.661-3.029H16.982a5.492 5.492 0 0 0-.315-2.915 5.534 5.534 0 0 0-1.772-2.346 5.827 5.827 0 0 0-5.3-1.116h-.32l-.482.16a6.638 6.638 0 0 0-1.766 1.116l-.161.16-.161.16a5.688 5.688 0 0 0-1.445 3.824v.313a12.484 12.484 0 0 1-2.408-.319 3.069 3.069 0 0 0-.321-2.39.556.556 0 0 0-.161-.319h.327a4.47 4.47 0 0 0 2.087-.478 5.346 5.346 0 0 0 1.665-1.718c.417-.69.67-1.465.743-2.267a30.561 30.561 0 0 1 3.693-.794c.642-.16 1.445-.16 2.087-.319a81.074 81.074 0 0 0 15.253 1.435h.321l.312 7.813Zm0-9.882a74.65 74.65 0 0 1-11.881-.956h.161a27.748 27.748 0 0 1 8.67-2.87 27.444 27.444 0 0 1 3.051-.159l-.001 3.985Zm12.849 12.587c-.73 0-1.445-.214-2.053-.616a3.672 3.672 0 0 1-1.361-1.645 3.64 3.64 0 0 1 .799-3.996 3.719 3.719 0 0 1 4.025-.795 3.688 3.688 0 0 1 1.658 1.35c.406.603.622 1.312.622 2.037a3.584 3.584 0 0 1-1.064 2.61 3.636 3.636 0 0 1-2.629 1.056h.003Zm7.867-5.1v.163a1.54 1.54 0 0 1-.37.803c-.2.227-.462.39-.754.471-.418.186-.846.346-1.284.479v-.479a4.88 4.88 0 0 0-.963-3.029 3.478 3.478 0 0 0-.642-.794h-.164l-.161-.16a5.352 5.352 0 0 0-6.739-.164l-.161.16a5.266 5.266 0 0 0-1.77 2.258 5.226 5.226 0 0 0-.317 2.843h-5.3v-8.13c5.3-.16 10.757-1.115 14.61-3.506l4.014 1.754a11.105 11.105 0 0 0 .161 3.984 24.501 24.501 0 0 1-.16 3.348v-.001Z"/></symbol><symbol id="icon-check-form" viewBox="0 0 24 17"><path d="m1.747 6.326-.24.23a2 2 0 0 0 0 2.888l7.192 6.893a1 1 0 0 0 1.384 0l12.41-11.893a2 2 0 0 0 0-2.888l-.24-.23a2 2 0 0 0-2.767 0L9.945 10.47a.8.8 0 0 1-1.107 0L4.514 6.327a2 2 0 0 0-2.767 0Z"/></symbol><symbol id="icon-check" viewBox="0 0 18 13"><path d="M6 10.586 16.293.293a1 1 0 0 1 1.414 1.414l-11 11a1 1 0 0 1-1.414 0l-5-5a1 1 0 0 1 1.414-1.414z"/></symbol><symbol id="icon-close" viewBox="0 0 30 31"><path fill-rule="evenodd" clip-rule="evenodd" d="M6.975 7.317a1.406 1.406 0 0 1 1.988 0L15 13.354l6.038-6.037a1.408 1.408 0 0 1 2.332.432 1.406 1.406 0 0 1-.345 1.555l-6.037 6.038 6.037 6.037a1.408 1.408 0 0 1-1.53 2.314 1.409 1.409 0 0 1-.457-.326L15 17.329l-6.037 6.038a1.406 1.406 0 0 1-1.988-1.988l6.037-6.037-6.037-6.038a1.406 1.406 0 0 1 0-1.987Z"/></symbol><symbol id="icon-commercial" viewBox="0 0 43 43"><path d="M37.491 16.744c0-.017 0-.034-.007-.05a.567.567 0 0 0-.074-.196l-.005-.006-.004-.005-4.12-6.438a.567.567 0 0 0-.47-.26h-22.12a.554.554 0 0 0-.471.26L6.1 16.487l-.004.005-.005.006a.566.566 0 0 0-.075.196l-.006.05a.62.62 0 0 0-.01.07v1.245c0 .709.245 1.395.69 1.94a2.966 2.966 0 0 0 1.746 1.043v14.565c0 .152.06.298.165.405a.56.56 0 0 0 .397.169h25.504a.56.56 0 0 0 .397-.169.582.582 0 0 0 .165-.405V21.041A2.966 2.966 0 0 0 36.81 20a3.074 3.074 0 0 0 .69-1.94v-1.246a.62.62 0 0 0-.009-.069Zm-1.593-.504h-6.16l-.08-.2-.42-1.148-1.452-3.952h4.72l3.392 5.3Zm-20.43-1.345 1.45-3.953h4.269v5.303h-6.215l.074-.2.422-1.15Zm11.113-3.959 1.453 3.959.422 1.147.073.2h-6.216v-5.306h4.268Zm-11.862 6.45h6.469v.672c-.001.5-.197.98-.544 1.334a1.837 1.837 0 0 1-1.308.555H16.57c-.49-.001-.96-.2-1.308-.555a1.912 1.912 0 0 1-.543-1.334v-.671Zm7.593 0h6.47v.672c-.002.5-.197.98-.544 1.334a1.837 1.837 0 0 1-1.308.555h-2.766c-.491-.001-.961-.2-1.308-.555a1.912 1.912 0 0 1-.544-1.334v-.671Zm-11.317-6.45h4.72l-1.451 3.959-.422 1.147-.08.2h-6.16l3.393-5.306Zm-3.87 7.122v-.671h6.47v.671c-.001.5-.197.98-.544 1.334a1.837 1.837 0 0 1-1.308.555H8.976c-.183 0-.365-.028-.54-.08-.379-.12-.71-.36-.946-.685a1.923 1.923 0 0 1-.364-1.124Zm5.722 16.976V23.629h6.373v11.405h-6.373Zm7.498 0v-11.98a.582.582 0 0 0-.165-.404.56.56 0 0 0-.397-.169h-7.5a.551.551 0 0 0-.397.168.572.572 0 0 0-.164.406v11.979h-2.16v-13.94h2.182c.472 0 .936-.114 1.356-.333.42-.22.782-.537 1.057-.927.275.39.638.708 1.058.927.42.219.884.333 1.355.332h2.768c.471 0 .936-.113 1.355-.332.42-.22.782-.537 1.058-.927.275.39.637.708 1.057.927.42.219.884.333 1.356.332h2.767c.471 0 .936-.113 1.356-.332.42-.22.782-.537 1.057-.927.276.39.638.708 1.058.927.42.219.884.333 1.355.332h2.183v13.94H20.345Zm16.032-16.976a1.923 1.923 0 0 1-.364 1.123 1.861 1.861 0 0 1-.946.685c-.175.053-.357.08-.54.08h-2.77c-.49-.001-.96-.2-1.308-.554a1.912 1.912 0 0 1-.543-1.334v-.672h6.471v.672Z"/><path d="M31.825 24.262h-9.933a.482.482 0 0 0-.218.05.566.566 0 0 0-.185.146.696.696 0 0 0-.123.221.787.787 0 0 0-.042.26v6.307c0 .09.014.178.042.26.028.083.07.158.123.221a.566.566 0 0 0 .185.147c.069.034.143.05.218.05h9.933a.485.485 0 0 0 .217-.051.569.569 0 0 0 .184-.147.695.695 0 0 0 .123-.22.79.79 0 0 0 .043-.26V24.94a.79.79 0 0 0-.043-.26.695.695 0 0 0-.123-.22.569.569 0 0 0-.184-.147.485.485 0 0 0-.217-.051Zm-.568 6.306H22.46v-4.95h8.796l.001 4.95Z"/></symbol><symbol id="icon-home" viewBox="0 0 52 53"><path d="m47.742 18.568-6.495-2.351V7.858h-7.29v5.637L22.591 9.356a.92.92 0 0 0-.985.244.906.906 0 0 0-.15.997.906.906 0 0 0 .518.467l1.364.496v6.635L4.892 24.801a.939.939 0 0 0-.612.386.924.924 0 0 0 .599 1.44.94.94 0 0 0 .37-.007.932.932 0 0 0 .309 0l1.413-.515v17.458H5.25v1.804h42.589v-1.804h-1.38v-23.61l.649.226a.913.913 0 0 0 .922-.57.895.895 0 0 0-.289-1.04l.001-.001Zm-12-8.89h3.653v5.797l-3.653-1.32V9.678Zm-22.585 33.82v-9.663h5.245v9.663h-5.245Zm7.063 0v-9.663c0-.478-.191-.937-.532-1.276a1.824 1.824 0 0 0-1.286-.528H13.19a1.828 1.828 0 0 0-1.322.58 1.802 1.802 0 0 0-.478 1.352v9.663h-2.6V25.361l14.467-5.186v23.388l-3.037-.065Zm13.672-6.2v6.2h-4.871v-6.136l4.871-.064Zm1.851 6.265v-6.2h4.871v6.2h-4.871Zm8.865 0h-2.095v-6.2a1.794 1.794 0 0 0-.561-1.306 1.82 1.82 0 0 0-1.339-.498H29.021a1.83 1.83 0 0 0-1.286.528 1.803 1.803 0 0 0-.533 1.275v6.2h-2.127v-31.34l19.484 7.086.049 24.255Z"/><path d="M29.85 29.866h10c.485 0 .95-.19 1.293-.531.342-.34.535-.802.535-1.283v-4.864c0-.481-.194-.942-.536-1.282a1.835 1.835 0 0 0-1.292-.53h-10c-.485 0-.95.191-1.293.531-.342.34-.535.802-.535 1.284v4.864c0 .48.194.941.537 1.281.342.34.807.53 1.291.53Zm0-1.814v-1.427h10v1.49l-10-.063Zm10.005-4.864v1.489H29.85v-1.49h10.005ZM.767 43.552h2.938v1.814H.767v-1.814ZM49.47 43.552h1.763v1.814H49.47v-1.814Z"/></symbol><symbol id="icon-life" viewBox="0 0 40 40"><path d="M19.882 21.056a.52.52 0 0 0 .367.147.537.537 0 0 0 .367-.147l7.256-7.07a4.471 4.471 0 0 0 1.088-2.597 4.428 4.428 0 0 0-.693-2.72c-.347-.541-.817-1-1.375-1.34a4.472 4.472 0 0 0-1.845-.628 5.844 5.844 0 0 0-2.444.253 5.68 5.68 0 0 0-2.099 1.228l-.256.234-.255-.234a5.675 5.675 0 0 0-2.1-1.229 5.84 5.84 0 0 0-2.442-.252 4.472 4.472 0 0 0-1.846.627c-.557.341-1.027.8-1.374 1.341a4.436 4.436 0 0 0-.688 2.74c.076.96.465 1.873 1.113 2.607l7.226 7.04ZM13.108 9.191a3.285 3.285 0 0 1 1.057-1.027c.43-.26.914-.424 1.418-.478a4.26 4.26 0 0 1 .527-.033 4.75 4.75 0 0 1 3.172 1.248l.61.56a.53.53 0 0 0 .712 0l.611-.56a4.623 4.623 0 0 1 1.709-1.004c.64-.21 1.319-.28 1.99-.208.503.054.987.217 1.415.477.429.26.79.611 1.057 1.025.406.63.598 1.367.547 2.108-.05.74-.34 1.447-.828 2.02L20.248 20l-6.83-6.649a3.464 3.464 0 0 1-.31-4.16ZM34.003 20.297a2.399 2.399 0 0 0-1.58-.547 2.386 2.386 0 0 0-1.556.604c-.187.172-.392.354-.609.54a2.26 2.26 0 0 0-1.478-.496 2.244 2.244 0 0 0-1.449.566 31.873 31.873 0 0 1-4.33 3.13c-.343-.2-.74-.307-1.145-.308h-4.049a8.43 8.43 0 0 1-1.63-.175 7.762 7.762 0 0 0-3.594.18 7.333 7.333 0 0 0-3.055 1.767 3.293 3.293 0 0 1-.837.58l-2.738 1.305a.49.49 0 0 0-.221.283.455.455 0 0 0 .04.347c.06.107.16.19.28.232a.56.56 0 0 0 .377-.002l2.738-1.312c.408-.198.78-.456 1.1-.763a6.292 6.292 0 0 1 2.616-1.519 6.66 6.66 0 0 1 3.078-.162c.606.125 1.225.19 1.845.196h4.052c.317 0 .62.117.845.325.224.208.35.49.35.784 0 .295-.126.577-.35.785a1.242 1.242 0 0 1-.845.325H17.21a.56.56 0 0 0-.403.123.49.49 0 0 0-.127.163.457.457 0 0 0 .127.557.56.56 0 0 0 .403.123h4.649a2.281 2.281 0 0 0 1.477-.54c.005 0 .01 0 .015-.006.23-.161 5.645-3.96 8.247-6.348.229-.205.533-.322.851-.326a1.31 1.31 0 0 1 .861.302c.128.107.232.236.307.381a1.149 1.149 0 0 1 .052.932c-.058.15-.147.289-.262.408l-.626.645c-1.97 2.036-4.946 5.113-8.414 7.324a3.745 3.745 0 0 1-2.053.565c-1.444-.027-4.235-.112-6.707-.373a7.061 7.061 0 0 0-4.16.853l-2.873 1.616a.519.519 0 0 0-.173.122.452.452 0 0 0-.052.567.501.501 0 0 0 .149.148.545.545 0 0 0 .416.075.542.542 0 0 0 .197-.084l2.873-1.608a5.959 5.959 0 0 1 3.51-.721c2.512.265 5.34.35 6.802.379a4.761 4.761 0 0 0 2.662-.736c3.57-2.274 6.596-5.404 8.599-7.474l.622-.641c.208-.214.368-.463.472-.734a2.042 2.042 0 0 0-.094-1.673 2.204 2.204 0 0 0-.552-.684h-.002Zm-5.94 1.354a1.172 1.172 0 0 1 1.412-.095c-1.77 1.453-4.018 3.106-5.42 4.117a1.964 1.964 0 0 0-.307-.879 32.16 32.16 0 0 0 4.316-3.143Z" stroke-width=".2"/></symbol><symbol id="icon-long-term-care" viewBox="0 0 52 52"><g id="Grupo_901" data-name="Grupo 901" transform="translate(2.838 3.874)"><path id="Trazado_1701" d="m29.988 18.4-7.1 3.2a3.113 3.113 0 0 0-1.557-.951L11.1 17.685a29.047 29.047 0 0 0-10.231-.213 1.015 1.015 0 1 0 .314 2.006 27.19 27.19 0 0 1 9.431.179L20.8 22.611a1.138 1.138 0 0 1 .731.574.9.9 0 0 0 .052.133l.026.052a1.27 1.27 0 0 1-1.563 1.62L9.386 21.9a1.015 1.015 0 1 0-.565 1.951l10.66 3.092.024.006a3.3 3.3 0 0 0 4.072-2.249 3.326 3.326 0 0 0 .129-1.069c0-.055-.007-.111-.011-.168l7.187-3.24a1.262 1.262 0 0 1 1.661.611 1.25 1.25 0 0 1-.6 1.655c-2.1.948-3.811 1.731-5.218 2.375-6.487 2.976-6.487 2.976-10.194 2.976a28.622 28.622 0 0 1-11.846-2.713 6.919 6.919 0 0 0-3.966.061 1.016 1.016 0 1 0 .613 1.938 4.862 4.862 0 0 1 2.647-.1 30.278 30.278 0 0 0 12.544 2.846c4.162 0 4.42-.118 11.053-3.16 1.4-.645 3.107-1.426 5.214-2.375a3.28 3.28 0 0 0 1.6-4.357 3.3 3.3 0 0 0-4.402-1.58z" class="cls-2" data-name="Trazado 1701" transform="translate(0 14.395)"/><path id="Trazado_1702" d="M38.535 10.518a26.983 26.983 0 0 1-9.433-.177L18.913 7.387a1.141 1.141 0 0 1-.731-.574 1.182 1.182 0 0 0-.05-.135l-.028-.05a1.272 1.272 0 0 1-.033-.685 1.181 1.181 0 0 1 .061-.194 1.222 1.222 0 0 1 .1-.19 1.279 1.279 0 0 1 .938-.595 1.312 1.312 0 0 1 .5.042L30.33 8.1a1.017 1.017 0 0 0 1.258-.693 1.027 1.027 0 0 0 .041-.284 1.015 1.015 0 0 0-.733-.975L20.233 3.056a3.228 3.228 0 0 0-1.478-.085 3.338 3.338 0 0 0-.73.212 3.308 3.308 0 0 0-2 3.351L8.827 9.777a1.254 1.254 0 0 1-.957.037 1.25 1.25 0 0 1-.1-2.3C9.876 6.561 11.585 5.778 13 5.13c6.48-2.974 6.48-2.974 10.187-2.974a28.713 28.713 0 0 1 11.847 2.715A6.86 6.86 0 0 0 39 4.812a1.016 1.016 0 0 0-.61-1.938 4.924 4.924 0 0 1-2.649.1A30.24 30.24 0 0 0 23.192.126c-4.16 0-4.418.118-11.044 3.157a775.421 775.421 0 0 1-5.22 2.379 3.285 3.285 0 0 0-1.6 4.357 3.252 3.252 0 0 0 1.845 1.7 3.286 3.286 0 0 0 2.556-.119l7.1-3.2a3.1 3.1 0 0 0 1.557.949l10.233 2.965a29.181 29.181 0 0 0 5.711.565 29.261 29.261 0 0 0 4.518-.353 1.016 1.016 0 0 0-.314-2.008z" class="cls-2" data-name="Trazado 1702" transform="translate(4.247)"/><path id="Trazado_1703" d="M14.3 23.805a1.584 1.584 0 0 0 1 .349 1.536 1.536 0 0 0 .973-.34 53.878 53.878 0 0 0 6.788-6.288 5.7 5.7 0 0 0-.011-7.978l-.05-.04a5.513 5.513 0 0 0-7.712.266 5.521 5.521 0 0 0-6.527-1.093 5.665 5.665 0 0 0-1.226.868A5.691 5.691 0 0 0 7.5 17.5a54.086 54.086 0 0 0 6.8 6.305zM8.95 11.006a3.55 3.55 0 0 1 .748-.523 3.484 3.484 0 0 1 4.69 1.491 1.014 1.014 0 0 0 .9.549 1.017 1.017 0 0 0 .9-.547 3.478 3.478 0 0 1 5.418-.988 3.687 3.687 0 0 1-.035 5.15A52.1 52.1 0 0 1 15.289 22a52.4 52.4 0 0 1-6.306-5.889 3.67 3.67 0 0 1-.033-5.105z" class="cls-2" data-name="Trazado 1703" transform="translate(4.989 6.724)"/></g></symbol><symbol id="icon-other" viewBox="0 0 43 42"><path d="M27.1 35H8.04A1.938 1.938 0 0 1 6.1 33.06V7.538A1.938 1.938 0 0 1 8.04 5.6H21.93a.646.646 0 0 1 .457.189l6.462 6.461a.648.648 0 0 1 .189.457v4.2a.646.646 0 0 1-1.293 0v-3.932l-6.082-6.083H8.038a.646.646 0 0 0-.647.646v25.523a.646.646 0 0 0 .647.646H27.1a.646.646 0 0 0 .646-.646v-3.23a.646.646 0 1 1 1.293 0v3.23A1.938 1.938 0 0 1 27.1 35Z"/><path d="M28.392 13.354h-5.169a1.939 1.939 0 0 1-1.938-1.939v-5.17a.646.646 0 1 1 1.292 0v5.17a.646.646 0 0 0 .646.646h5.17a.646.646 0 0 1 0 1.293ZM19.992 18.2h-9.369a.646.646 0 1 1 0-1.293h9.37a.646.646 0 1 1 0 1.293ZM18.7 22.076h-8.077a.646.646 0 0 1 0-1.292H18.7a.646.646 0 1 1 0 1.293ZM18.7 25.953h-8.077a.646.646 0 1 1 0-1.292H18.7a.646.646 0 1 1 0 1.292ZM15.47 29.83h-4.847a.646.646 0 0 1 0-1.292h4.846a.647.647 0 0 1 0 1.292ZM15.146 12.06h-4.523a.646.646 0 0 1 0-1.291h4.523a.646.646 0 1 1 0 1.292ZM28.392 30.476a7.108 7.108 0 1 1 7.108-7.108 7.116 7.116 0 0 1-7.108 7.108Zm0-12.923a5.815 5.815 0 1 0 0 11.63 5.815 5.815 0 0 0 0-11.63Z"/><path d="M28.392 27.246a.646.646 0 0 1-.646-.646v-6.462a.647.647 0 0 1 1.292 0V26.6a.646.646 0 0 1-.646.646Z"/><path d="M31.623 24.015h-6.461a.646.646 0 0 1 0-1.292h6.461a.646.646 0 1 1 0 1.292Z"/></symbol><symbol id="icon-phone" viewBox="0 0 29 26"><g clip-path="url(#a)"><path d="M23.818 20.941c-.051-.196-.445-.506-1.18-.931a39.09 39.09 0 0 0-.848-.539c-.367-.228-.7-.438-.998-.63a35.05 35.05 0 0 1-.839-.554c-.041-.034-.17-.137-.388-.307a4.607 4.607 0 0 0-.556-.383 1.09 1.09 0 0 0-.457-.143c-.323.03-.624.171-.85.399-.349.281-.673.592-.969.927-.29.33-.603.642-.936.93a1.258 1.258 0 0 1-.784.404 1.135 1.135 0 0 1-.362-.105c-.143-.063-.25-.122-.325-.158-.074-.037-.198-.126-.376-.251a9.914 9.914 0 0 0-.297-.205 17.115 17.115 0 0 1-3.641-3.04 16.76 16.76 0 0 1-2.578-3.945 7.873 7.873 0 0 0-.166-.316 4 4 0 0 1-.197-.398 3.409 3.409 0 0 1-.116-.337 1.059 1.059 0 0 1-.056-.365 1.22 1.22 0 0 1 .518-.702c.34-.282.699-.542 1.074-.777.382-.239.742-.509 1.076-.808.262-.186.448-.458.523-.766a1.02 1.02 0 0 0-.082-.463 4.407 4.407 0 0 0-.311-.59c-.144-.238-.23-.377-.26-.419a35.193 35.193 0 0 1-.444-.888 79.866 79.866 0 0 1-.5-1.052 38.07 38.07 0 0 0-.428-.895c-.328-.771-.588-1.196-.78-1.273a.936.936 0 0 0-.34-.072c-.39-.014-.78.013-1.163.081a6.617 6.617 0 0 0-1.143.259 4.341 4.341 0 0 0-1.872 1.828A6.11 6.11 0 0 0 1.72 7.368c-.021.28-.022.561-.003.842.024.312.07.623.138.93.073.347.134.605.183.773.048.17.139.472.271.909.132.437.212.704.238.802.279 1 .666 1.967 1.156 2.885a23.729 23.729 0 0 0 3.217 4.47 24.07 24.07 0 0 0 4.075 3.736 14.96 14.96 0 0 0 2.764 1.52c.096.04.356.153.78.343.424.19.719.32.883.39.165.07.418.164.76.284a6.204 6.204 0 0 0 4.876-.226 4.379 4.379 0 0 0 2.114-1.556c.174-.344.315-.702.422-1.07.123-.362.204-.735.245-1.114a.871.871 0 0 0-.022-.345ZM22.43 12.134a7.654 7.654 0 0 0-1.808-4.185 7.973 7.973 0 0 0-3.902-2.484 1.266 1.266 0 0 0-.968.073 1.201 1.201 0 0 0-.657 1.215 1.189 1.189 0 0 0 .483.823c.133.098.285.169.447.208 1.053.294 1.991.89 2.694 1.71a5.287 5.287 0 0 1 1.248 2.892c.03.279.158.54.363.736a1.25 1.25 0 0 0 1 .34c.326-.035.624-.195.83-.443.206-.249.303-.566.27-.885ZM27.81 12.542a12.904 12.904 0 0 0-3.112-8.07A13.543 13.543 0 0 0 17.09.05a1.26 1.26 0 0 0-.932.175 1.19 1.19 0 0 0-.528.77 1.174 1.174 0 0 0 .181.911 1.247 1.247 0 0 0 .79.514A10.877 10.877 0 0 1 22.805 6a10.428 10.428 0 0 1 2.527 6.59c.007.297.125.581.333.799a1.25 1.25 0 0 0 .931.385c.328-.007.64-.141.867-.372.228-.231.352-.54.347-.861Z"/></g></symbol><symbol id="icon-renters" viewBox="0 0 37 36"><g><path d="M28.7 10.8a.604.604 0 0 0 .57-.412l1.2-3.6a.605.605 0 0 0-.082-.54A.594.594 0 0 0 29.9 6h-15V3.3a.594.594 0 0 0-.27-.502l-1.8-1.2a.6.6 0 0 0-.668 0l-1.8 1.2a.612.612 0 0 0-.27.502V6H7.1a.594.594 0 0 0-.487.248.605.605 0 0 0-.083.54l1.2 3.6a.597.597 0 0 0 .57.412h1.8v22.5h-.6c-.33 0-.6.27-.6.6 0 .33.27.6.6.6h6c.33 0 .6-.27.6-.6 0-.33-.27-.6-.6-.6h-.6V10.8h5.4v1.8h-1.2c-.99 0-1.8.81-1.8 1.8v4.2c0 .99.81 1.8 1.8 1.8h8.4c.99 0 1.8-.81 1.8-1.8v-4.2c0-.99-.81-1.8-1.8-1.8h-1.2v-1.8h2.4ZM11.3 3.623l1.2-.803 1.2.803V6h-2.4V3.623ZM7.933 7.2h21.134l-.802 2.4H8.735l-.802-2.4ZM13.7 33.3h-2.4V10.8h2.4v22.5Zm14.4-18.9v4.2c0 .33-.27.6-.6.6h-8.4c-.33 0-.6-.27-.6-.6v-4.2c0-.33.27-.6.6-.6h8.4c.33 0 .6.27.6.6Zm-3-1.8h-3.6v-1.8h3.6v1.8Z"/><path d="M20.6 15.6c-.495 0-.9.405-.9.9s.405.9.9.9.9-.405.9-.9-.405-.9-.9-.9ZM23.3 15.6c-.495 0-.9.405-.9.9s.405.9.9.9.9-.405.9-.9-.405-.9-.9-.9ZM25.1 16.5c0 .495.405.9.9.9s.9-.405.9-.9-.405-.9-.9-.9-.9.405-.9.9Z"/></g></symbol><symbol id="icon-term" viewBox="0 0 52 52"><g id="icon-term" transform="translate(0 .107)"><g id="Term" transform="translate(-2 1.892)"><path id="Trazado_1658" d="m32.325 22.2.084-.065a13.6 13.6 0 0 0 5.146-10.7V8.693h.1A1.446 1.446 0 0 0 39.1 7.249v-1.8A1.446 1.446 0 0 0 37.658 4H17.444A1.446 1.446 0 0 0 16 5.444v1.8a1.446 1.446 0 0 0 1.444 1.444h.1v2.673a13.48 13.48 0 0 0 4.879 10.491l.4.328a2.6 2.6 0 0 1 .909 2.036 2.549 2.549 0 0 1-.957 2.008l-.085.066A13.6 13.6 0 0 0 17.547 37v2.737h-.1A1.446 1.446 0 0 0 16 41.18v1.8a1.446 1.446 0 0 0 1.444 1.444h20.214a1.446 1.446 0 0 0 1.442-1.44v-1.8a1.446 1.446 0 0 0-1.444-1.444h-.1v-2.755a13.585 13.585 0 0 0-5.216-10.759 2.584 2.584 0 0 1-.013-4.028zM17.444 7.249v-1.8h20.214v1.8H17.444zM37.658 41.18v1.8H17.444v-1.8h20.214zm-16.34-1.444 6.262-7.827 6.211 7.827zM31.44 21.058a4.027 4.027 0 0 0 .022 6.316 12.132 12.132 0 0 1 4.649 9.612v2.751h-.477l-6.924-8.725a1.517 1.517 0 0 0-2.319 0l-6.924 8.724h-.477V37a12.147 12.147 0 0 1 4.585-9.563l.085-.066a4.037 4.037 0 0 0 1.517-3.216 3.967 3.967 0 0 0-1.438-3.086l-.4-.328a12.041 12.041 0 0 1-4.351-9.375V8.693h17.123v2.737a12.148 12.148 0 0 1-4.587 9.564z" class="cls-2" data-name="Trazado 1658"/><path id="Trazado_1659" d="M33.326 19.75h-6.189a1.486 1.486 0 0 0-1.322.817 1.555 1.555 0 0 0 .116 1.623l3.094 4.332a1.473 1.473 0 0 0 2.413 0l3.094-4.331a1.556 1.556 0 0 0 .116-1.624 1.486 1.486 0 0 0-1.322-.817zm.031 1.568L30.2 25.683l-3.094-4.332a.114.114 0 0 1-.007-.123c.018-.034.032-.034.038-.034h6.227a.115.115 0 0 1-.007.124z" class="cls-2" data-name="Trazado 1659" transform="translate(-2.681 -4.38)"/><path id="Trazado_1660" d="M31.722 31.621a.722.722 0 0 0-.722.722v.88a.722.722 0 1 0 1.444 0v-.88a.722.722 0 0 0-.722-.722z" class="cls-2" data-name="Trazado 1660" transform="translate(-4.171 -7.68)"/><path id="Trazado_1661" d="M31.722 35.792a.722.722 0 0 0-.722.722v.88a.722.722 0 0 0 1.444 0v-.88a.722.722 0 0 0-.722-.722z" class="cls-2" data-name="Trazado 1661" transform="translate(-4.171 -8.84)"/></g></g></symbol><symbol id="icon-universal" viewBox="0 0 52 52"><g id="icon-universal" transform="translate(0 .107)"><g id="Group_Employee_Benefit_Plans" data-name="Group Employee Benefit Plans" transform="translate(2 -.107)"><path id="Trazado_1672" d="M11.827 17.44a5.67 5.67 0 1 0 5.673 5.667 5.671 5.671 0 0 0-5.673-5.667zm0 9.877a4.206 4.206 0 1 1 4.21-4.21 4.209 4.209 0 0 1-4.21 4.21z" class="cls-2" data-name="Trazado 1672" transform="translate(-.579 -2.261)"/><path id="Trazado_1673" d="M8.77 44.877a.732.732 0 0 0-.732.732v4.611a.732.732 0 0 0 1.464 0v-4.611a.732.732 0 0 0-.732-.732z" class="cls-2" data-name="Trazado 1673" transform="translate(-1.082 -9.61)"/><path id="Trazado_1674" d="M48.027 17.44a5.67 5.67 0 1 0 5.673 5.667 5.671 5.671 0 0 0-5.673-5.667zm0 9.877a4.206 4.206 0 1 1 4.21-4.21 4.209 4.209 0 0 1-4.21 4.21z" class="cls-2" data-name="Trazado 1674" transform="translate(-10.275 -2.261)"/><path id="Trazado_1675" d="M45 40.959v5.572a.732.732 0 1 1-1.464 0v-5.572a5.9 5.9 0 0 0-5.784-6 5.7 5.7 0 0 0-4.591 2.372 9.7 9.7 0 0 1 .571 3.273v7.263a.732.732 0 1 1-1.464 0V40.6a7.92 7.92 0 0 0-7.768-8.046 7.919 7.919 0 0 0-7.761 8.046v7.263a.732.732 0 1 1-1.464 0V40.6a9.7 9.7 0 0 1 .571-3.273 5.713 5.713 0 0 0-4.6-2.372 5.907 5.907 0 0 0-5.784 6v5.572a.732.732 0 1 1-1.464 0v-5.568a7.375 7.375 0 0 1 7.248-7.468 7.119 7.119 0 0 1 5.271 2.357 9.077 9.077 0 0 1 15.968 0 7.1 7.1 0 0 1 5.264-2.357A7.37 7.37 0 0 1 45 40.959z" class="cls-2" data-name="Trazado 1675" transform="translate(0 -5.917)"/><path id="Trazado_1676" d="M54.7 44.877a.732.732 0 0 0-.732.732v4.611a.732.732 0 0 0 1.464 0v-4.611a.732.732 0 0 0-.732-.732z" class="cls-2" data-name="Trazado 1676" transform="translate(-13.385 -9.61)"/><path id="Trazado_1677" d="M29.375 9a7.175 7.175 0 1 0 7.175 7.175A7.187 7.187 0 0 0 29.375 9zm0 12.886a5.711 5.711 0 1 1 5.711-5.711 5.718 5.718 0 0 1-5.711 5.711z" class="cls-2" data-name="Trazado 1677" transform="translate(-4.875)"/><path id="Trazado_1678" d="M26.124 45.522v6.011a.732.732 0 0 1-1.464 0v-6.011a.732.732 0 0 1 1.464 0z" class="cls-2" data-name="Trazado 1678" transform="translate(-5.534 -9.587)"/><path id="Trazado_1679" d="M38.814 45.522v6.011a.732.732 0 0 1-1.464 0v-6.011a.732.732 0 0 1 1.464 0z" class="cls-2" data-name="Trazado 1679" transform="translate(-8.933 -9.587)"/></g></g></symbol><symbol id="icon-whole-variable" viewBox="0 0 52 52"><g id="icon-whole-variable" transform="translate(0 .107)"><g id="Whole-Variable" transform="translate(-1 -.803)"><path id="Trazado_1671" d="M46.007 14.391a2.578 2.578 0 0 0-.283-3.3L42.6 7.97a2.581 2.581 0 0 0-3.3-.283 22.875 22.875 0 0 0-24.907 0 2.581 2.581 0 0 0-3.3.283l-3.122 3.118a2.578 2.578 0 0 0-.283 3.3 22.855 22.855 0 0 0 0 24.9 2.578 2.578 0 0 0 .283 3.3l3.119 3.118a2.572 2.572 0 0 0 3.3.283 22.8 22.8 0 0 0 24.907 0 2.572 2.572 0 0 0 3.3-.283l3.119-3.118a2.578 2.578 0 0 0 .283-3.3 22.855 22.855 0 0 0 .008-24.897zM44.85 38.069l-3.75-3.751a2.53 2.53 0 0 0-.227-.185 15.763 15.763 0 0 0 0-14.585 2.53 2.53 0 0 0 .227-.185l3.753-3.751a21.222 21.222 0 0 1-.003 22.457zm-10.522-.633a2.568 2.568 0 0 0-.75 1.872 14.144 14.144 0 0 1-13.459 0 2.568 2.568 0 0 0-.75-1.872l-3.119-3.118a2.57 2.57 0 0 0-1.872-.75 14.131 14.131 0 0 1 0-13.455h.047a2.572 2.572 0 0 0 1.825-.754l3.119-3.118a2.568 2.568 0 0 0 .75-1.872 14.144 14.144 0 0 1 13.459 0 2.568 2.568 0 0 0 .75 1.872l3.119 3.118a2.572 2.572 0 0 0 1.825.754h.047a14.131 14.131 0 0 1 0 13.455 2.57 2.57 0 0 0-1.872.75zM40.78 8.848a.947.947 0 0 1 .67.277l3.119 3.118a.948.948 0 0 1 0 1.34l-4.627 4.625a.951.951 0 0 1-1.34 0l-3.119-3.118a.948.948 0 0 1 0-1.34l4.627-4.625a.947.947 0 0 1 .67-.277zm-2.7 0L34.328 12.6a2.536 2.536 0 0 0-.185.227 15.773 15.773 0 0 0-14.59 0 2.528 2.528 0 0 0-.185-.227l-3.753-3.756a21.243 21.243 0 0 1 22.465 0zm-28.954 3.4 3.119-3.118a.95.95 0 0 1 1.34 0l4.627 4.625a.948.948 0 0 1 0 1.34l-3.119 3.118a.951.951 0 0 1-1.34 0l-4.626-4.63a.948.948 0 0 1 0-1.34zm-.281 3.368 3.755 3.747a2.53 2.53 0 0 0 .227.185 15.763 15.763 0 0 0 0 14.585 2.531 2.531 0 0 0-.227.185l-3.754 3.751a21.222 21.222 0 0 1 0-22.458zm3.4 28.945-3.118-3.123a.948.948 0 0 1 0-1.34l4.627-4.625a.95.95 0 0 1 1.34 0l3.119 3.118a.948.948 0 0 1 0 1.34l-4.627 4.625a.951.951 0 0 1-1.34 0zm3.369.281 3.753-3.751a2.528 2.528 0 0 0 .185-.227 15.731 15.731 0 0 0 14.59 0 2.536 2.536 0 0 0 .185.227l3.753 3.751a21.243 21.243 0 0 1-22.465-.005zm28.954-3.4-3.118 3.114a.951.951 0 0 1-1.34 0l-4.627-4.625a.948.948 0 0 1 0-1.34l3.117-3.118a.95.95 0 0 1 1.34 0l4.629 4.627a.948.948 0 0 1 0 1.338z" data-name="Trazado 1671"/></g></g></symbol></svg>