<svg width="52" height="52" fill="none" xmlns="http://www.w3.org/2000/svg" viewBox="0 0 52 52"><path d="M16.25 22.75h-5.417v-4.334c0-.596.488-1.083 1.084-1.083h.704c.888 0 1.679.542 2.015 1.365l1.625 4.052h-.011ZM28.167 22.75H22.75v-4.334c0-.596.488-1.083 1.083-1.083h.705c.888 0 1.679.542 2.014 1.365l1.625 4.052h-.01Z" fill="#32B9BE"/><path d="M48.75 35.75H5.417a4.332 4.332 0 0 1-4.334-4.334v-6.933c0-1.018.704-1.896 1.701-2.113l8.05-1.787h26l10.724 2.47a4.336 4.336 0 0 1 3.359 4.225v6.305a2.173 2.173 0 0 1-2.167 2.167Z" fill="#00A096"/><path d="M10.833 40.083a5.417 5.417 0 1 0 0-10.833 5.417 5.417 0 0 0 0 10.833Z" fill="#32B9BE"/><path d="M10.833 37.917a3.25 3.25 0 1 0 0-6.5 3.25 3.25 0 0 0 0 6.5Z" fill="#D7EBEB"/><path d="M41.167 40.083a5.417 5.417 0 1 0 0-10.833 5.417 5.417 0 0 0 0 10.833Z" fill="#32B9BE"/><path d="M41.166 37.917a3.25 3.25 0 1 0 0-6.5 3.25 3.25 0 0 0 0 6.5Z" fill="#D7EBEB"/><path d="M41.167 35.75a1.083 1.083 0 1 0 0-2.167 1.083 1.083 0 0 0 0 2.167ZM10.833 35.75a1.083 1.083 0 1 0 0-2.167 1.083 1.083 0 0 0 0 2.167Z" fill="#00A096"/><path d="M3.25 28.167H1.083v-3.25h4.334l-2.167 3.25Z" fill="#32B9BE"/><path d="M49.833 28.167H47.06a2.177 2.177 0 0 1-2.058-1.484l-.596-1.766h3.25c1.191 0 2.166.975 2.166 2.167v1.083h.011Z" fill="#fff"/><path d="M36.833 22.75c-.325 0-.65-.151-.866-.433l-6.5-8.667a1.086 1.086 0 0 1 .216-1.517 1.086 1.086 0 0 1 1.517.217l6.5 8.667c.357.477.26 1.159-.217 1.517a1.044 1.044 0 0 1-.65.216Z" fill="#00A096"/></svg>