<svg width="52" height="52" fill="none" xmlns="http://www.w3.org/2000/svg" viewBox="0 0 52 52"><path d="M37.743 24.364c-.476 2.113-.91 2.72-2.275 2.72-1.798 0-3.12-1.246-3.12-2.73 0-1.485 1.452-2.687 3.25-2.687 2.124 0 2.644.542 2.145 2.697ZM14.257 24.364c.476 2.113.91 2.72 2.275 2.72 1.798 0 3.12-1.246 3.12-2.73 0-1.485-1.452-2.687-3.25-2.687-2.124 0-2.644.542-2.145 2.697Z" fill="#F5F0EB"/><path d="M40.105 40.214c-1.517-2.07-9.772-5.547-9.772-5.547h-8.666s-8.245 3.477-9.772 5.547c-1.83 2.502-2.145 6.37-2.145 6.37h32.5s-.314-3.868-2.145-6.37Z" fill="#AA9673"/><path d="M21.667 24.917v9.75c0 3.207 4.333 5.417 4.333 5.417s4.333-2.178 4.333-5.417v-9.75h-8.666Z" fill="#F5F0EB"/><path d="M15.167 19.23c0 10.822 5.828 15.437 10.833 15.437V6.5c-8.677 0-10.833 6.598-10.833 12.73ZM36.833 19.23c0 10.822-5.828 15.437-10.833 15.437V6.5c8.678 0 10.833 6.598 10.833 12.73Z" fill="#F5F0EB"/><path d="M35.75 18.417c.217 4.669-.628 7.583-.628 7.583s2.795-3.727 2.795-7.583c0-4.366-2.134-10.758-6.5-10.758 0 0 4.452 5.07 4.333 10.758ZM16.25 18.417c-.217 4.669.628 7.583.628 7.583s-2.795-3.727-2.795-7.583c0-4.366 2.134-10.758 6.5-10.758 0 0-4.452 5.07-4.333 10.758ZM33.042 19.934s-1.203-.434-2.709-.434c-1.505 0-2.166 0-2.166-.541 0-.542.769-.542 2.166-.542a3.087 3.087 0 0 1 2.709 1.517ZM18.958 19.934s1.203-.434 2.709-.434c1.505 0 2.166 0 2.166-.541 0-.542-.769-.542-2.166-.542a3.087 3.087 0 0 0-2.709 1.517Z" fill="#D7C8A5"/><path d="M34.667 23.834c-2.86 11.212-4.15 4.333-6.5 4.333h-4.334c-2.35 0-3.64 6.88-6.5-4.333-.953-.542-2.166-3.272-2.166-3.792 0 11.95 4.333 17.875 10.833 17.875s10.833-5.926 10.833-17.875c0 .52-1.213 3.25-2.166 3.792Z" fill="#D7C8A5"/><path d="M23.292 30.983s1.202.434 2.708.434a8.86 8.86 0 0 0 2.708-.434S27.614 32.5 26 32.5s-2.708-1.517-2.708-1.517ZM24.397 27.852s.715.304 1.603.304 1.603-.303 1.603-.303-.465 1.159-1.603 1.159c-1.137 0-1.603-1.16-1.603-1.16Z" fill="#F5F0EB"/></svg>