<svg width="52" height="52" fill="none" xmlns="http://www.w3.org/2000/svg" viewBox="0 0 52 52"><path d="M42.25 5.417H9.75v41.167h32.5V5.417Z" fill="#F0823C"/><path d="M39 8.667H13v34.667h26V8.667Z" fill="#fff"/><path d="M39 43.333h-8.07L39 35.165v8.168Z" fill="#FFEBD2"/><path d="M35.197 26.737H16.802v1.94h18.395v-1.94Z" fill="#F5AA6E"/><path d="m29.072 16.708-5.477 5.478 1.37 1.37 5.478-5.476-1.371-1.372Z" fill="#F0823C"/><path d="m22.92 18.764-1.372 1.37 3.425 3.425 1.37-1.371-3.424-3.424Z" fill="#F0823C"/><path d="M33.258 30.605H16.802v1.939h16.456v-1.94ZM35.197 34.482H16.802v1.94h18.395v-1.94ZM26 2.167A4.346 4.346 0 0 0 21.667 6.5 4.346 4.346 0 0 0 26 10.834 4.346 4.346 0 0 0 30.333 6.5 4.346 4.346 0 0 0 26 2.167Z" fill="#F5AA6E"/><path d="M18.417 5.417V9.75c0 1.192.975 2.167 2.166 2.167h10.834a2.173 2.173 0 0 0 2.166-2.167V5.417H18.417Z" fill="#F5AA6E"/></svg>