<svg width="36" height="36" viewBox="0 0 36 36" fill="none" xmlns="http://www.w3.org/2000/svg">
<path d="M18 36C27.9411 36 36 27.9411 36 18C36 8.05887 27.9411 0 18 0C8.05887 0 0 8.05887 0 18C0 27.9411 8.05887 36 18 36Z" fill="#254F9D"/>
<path fill-rule="evenodd" clip-rule="evenodd" d="M18 9.12402C15.5813 9.12402 15.2789 9.13482 14.3395 9.17801C13.3893 9.2212 12.7522 9.36158 12.1799 9.58833C11.5969 9.81509 11.1002 10.1174 10.6142 10.6141C10.1175 11.1 9.81521 11.5967 9.58845 12.1798C9.3617 12.7521 9.22133 13.3892 9.17813 14.3394C9.13494 15.2788 9.12415 15.5811 9.12415 17.9998C9.12415 20.4078 9.13494 20.7101 9.17813 21.6603C9.22133 22.5997 9.3617 23.2476 9.58845 23.8091C9.81521 24.3922 10.1175 24.8889 10.6142 25.3856C11.1002 25.8715 11.5969 26.1846 12.1799 26.4006C12.7522 26.6273 13.3893 26.7785 14.3395 26.8217C15.2789 26.8649 15.5813 26.8757 18 26.8757C20.4079 26.8757 20.7102 26.8649 21.6604 26.8217C22.5998 26.7785 23.2477 26.6273 23.8092 26.4006C24.3923 26.1846 24.889 25.8715 25.3857 25.3856C25.8716 24.8889 26.1847 24.3922 26.4007 23.8091C26.6274 23.2476 26.7786 22.5997 26.8218 21.6603C26.865 20.7101 26.8758 20.4078 26.8758 17.9998C26.8758 15.5811 26.865 15.2788 26.8218 14.3394C26.7786 13.3892 26.6274 12.7521 26.4007 12.1798C26.1847 11.5967 25.8716 11.1 25.3857 10.6141C24.889 10.1174 24.3923 9.81509 23.8092 9.58833C23.2477 9.37237 22.5998 9.2212 21.6604 9.17801C20.7102 9.13482 20.4079 9.12402 18 9.12402ZM18 10.7221C20.3647 10.7221 20.6454 10.7329 21.5849 10.7761C22.4487 10.8085 22.9238 10.9597 23.2261 11.0784C23.6472 11.2404 23.9388 11.4348 24.2519 11.7371C24.5651 12.0502 24.7594 12.3418 24.9106 12.7629C25.0402 13.076 25.1805 13.5403 25.2237 14.4042C25.2669 15.3436 25.2777 15.6243 25.2777 17.9998C25.2777 20.3646 25.2669 20.6453 25.2129 21.5847C25.1697 22.4486 25.0294 22.9237 24.9106 23.226C24.7378 23.6471 24.5543 23.9387 24.2411 24.2518C23.928 24.5649 23.6364 24.7593 23.2261 24.9105C22.913 25.04 22.4379 25.1804 21.5633 25.2236C20.6238 25.2668 20.3431 25.2776 17.9784 25.2776C15.6028 25.2776 15.3221 25.2668 14.3827 25.2128C13.5189 25.1696 13.033 25.0292 12.7306 24.9105C12.3095 24.7377 12.018 24.5541 11.7048 24.241C11.3917 23.9279 11.1973 23.6363 11.0462 23.226C10.9166 22.9129 10.7762 22.4378 10.733 21.5631C10.7006 20.6345 10.6898 20.343 10.6898 17.989C10.6898 15.6243 10.7006 15.3328 10.733 14.3934C10.7762 13.5295 10.9166 13.0436 11.0462 12.7413C11.1973 12.3202 11.3917 12.0286 11.7048 11.7155C12.018 11.4024 12.3095 11.208 12.7306 11.0568C13.033 10.9273 13.5081 10.7869 14.3719 10.7437C15.3113 10.7113 15.5921 10.7005 17.9676 10.7005L18 10.7221ZM18 13.4432C15.4733 13.4432 13.4433 15.484 13.4433 17.9998C13.4433 20.5157 15.4841 22.5565 18 22.5565C20.5159 22.5565 22.5567 20.5157 22.5567 17.9998C22.5567 15.4732 20.5159 13.4432 18 13.4432ZM18 20.9585C16.3587 20.9585 15.0414 19.6303 15.0414 17.9998C15.0414 16.3586 16.3587 15.0412 18 15.0412C19.6304 15.0412 20.9586 16.3586 20.9586 17.9998C20.9586 19.6303 19.6304 20.9585 18 20.9585ZM23.7984 13.2596C23.7984 13.8427 23.3233 14.3286 22.7294 14.3286C22.1463 14.3286 21.6712 13.8427 21.6712 13.2596C21.6712 12.6765 22.1463 12.1906 22.7294 12.1906C23.3233 12.1906 23.7984 12.6765 23.7984 13.2596Z" fill="white"/>
</svg>
