<svg width="36" height="36" viewBox="0 0 36 36" fill="none" xmlns="http://www.w3.org/2000/svg">
<path d="M18 36C27.9411 36 36 27.9411 36 18C36 8.05888 27.9411 0 18 0C8.05888 0 0 8.05888 0 18C0 27.9411 8.05888 36 18 36Z" fill="#254F9D"/>
<path d="M14.8551 11.3131V14.3319H12.6431V18.0228H14.8551V28.9907H19.3977V18.0228H22.4464C22.4464 18.0228 22.7321 16.2542 22.8695 14.3183H19.4153V11.792C19.4567 11.5557 19.5761 11.34 19.7544 11.1795C19.9327 11.019 20.1596 10.9228 20.3989 10.9063H22.8749V7.06445H19.5092C14.7422 7.06717 14.8551 10.7608 14.8551 11.3131Z" fill="white"/>
</svg>
