<svg width="53" height="52" viewBox="0 0 53 52" fill="none" xmlns="http://www.w3.org/2000/svg">
<path d="M13.0172 29.2755V37.2066C13.0173 37.3107 12.9968 37.4139 12.9569 37.5101C12.9171 37.6063 12.8587 37.6938 12.785 37.7674C12.7113 37.8411 12.6239 37.8995 12.5277 37.9393C12.4314 37.9792 12.3283 37.9997 12.2241 37.9997H8.25862C6.99655 37.9997 5.78618 37.4983 4.89377 36.6059C4.00135 35.7135 3.5 34.5031 3.5 33.241C3.5 31.979 4.00135 30.7686 4.89377 29.8762C5.78618 28.9838 6.99655 28.4824 8.25862 28.4824H12.2241C12.3283 28.4824 12.4314 28.5029 12.5277 28.5427C12.6239 28.5826 12.7114 28.641 12.785 28.7147C12.8587 28.7883 12.9171 28.8757 12.9569 28.972C12.9968 29.0682 13.0173 29.1714 13.0172 29.2755Z" fill="#0046B4"/>
<path d="M28.4826 29.2755V37.2066C28.4826 37.3107 28.4621 37.4139 28.4223 37.5101C28.3824 37.6063 28.324 37.6938 28.2503 37.7674C28.1767 37.8411 28.0892 37.8995 27.993 37.9393C27.8968 37.9792 27.7936 37.9997 27.6895 37.9997H23.7239C22.4619 37.9997 21.2515 37.4983 20.3591 36.6059C19.4667 35.7135 18.9653 34.5031 18.9653 33.241C18.9653 31.979 19.4667 30.7686 20.3591 29.8762C21.2515 28.9838 22.4619 28.4824 23.7239 28.4824H27.6895C27.7936 28.4824 27.8968 28.5029 27.993 28.5427C28.0892 28.5826 28.1767 28.641 28.2503 28.7147C28.324 28.7883 28.3824 28.8757 28.4223 28.972C28.4621 29.0682 28.4826 29.1714 28.4826 29.2755Z" fill="#0046B4"/>
<path d="M43.9484 29.2755V37.2066C43.9484 37.3107 43.9279 37.4139 43.8881 37.5101C43.8482 37.6063 43.7898 37.6938 43.7162 37.7674C43.6425 37.8411 43.5551 37.8995 43.4588 37.9393C43.3626 37.9792 43.2594 37.9997 43.1553 37.9997H39.1898C37.9277 37.9997 36.7173 37.4983 35.8249 36.6059C34.9325 35.7135 34.4312 34.5031 34.4312 33.241C34.4312 31.979 34.9325 30.7686 35.8249 29.8762C36.7173 28.9838 37.9277 28.4824 39.1898 28.4824H43.1553C43.2594 28.4824 43.3626 28.5029 43.4588 28.5427C43.5551 28.5826 43.6425 28.641 43.7162 28.7147C43.7898 28.7883 43.8482 28.8757 43.8881 28.972C43.9279 29.0682 43.9484 29.1714 43.9484 29.2755Z" fill="#0046B4"/>
<path d="M12.2241 37.2064C14.4142 37.2064 16.1896 35.431 16.1896 33.2409C16.1896 31.0508 14.4142 29.2754 12.2241 29.2754C10.034 29.2754 8.25854 31.0508 8.25854 33.2409C8.25854 35.431 10.034 37.2064 12.2241 37.2064Z" fill="#D4E4F0"/>
<path d="M12.224 37.9997C11.2828 37.9997 10.3628 37.7206 9.5802 37.1977C8.79765 36.6748 8.18773 35.9316 7.82756 35.0621C7.46739 34.1926 7.37316 33.2358 7.55677 32.3127C7.74038 31.3896 8.1936 30.5417 8.8591 29.8762C9.52461 29.2107 10.3725 28.7575 11.2956 28.5739C12.2187 28.3902 13.1755 28.4845 14.045 28.8447C14.9145 29.2048 15.6577 29.8147 16.1806 30.5973C16.7035 31.3798 16.9826 32.2999 16.9826 33.241C16.9812 34.5027 16.4793 35.7122 15.5872 36.6043C14.6951 37.4964 13.4856 37.9982 12.224 37.9997ZM12.224 30.0686C11.5965 30.0686 10.9832 30.2547 10.4615 30.6033C9.93975 30.9519 9.53314 31.4473 9.29302 32.027C9.05291 32.6067 8.99009 33.2446 9.1125 33.8599C9.2349 34.4753 9.53705 35.0406 9.98072 35.4843C10.4244 35.9279 10.9897 36.2301 11.605 36.3525C12.2204 36.4749 12.8583 36.4121 13.438 36.172C14.0177 35.9319 14.5131 35.5252 14.8617 35.0035C15.2103 34.4818 15.3964 33.8685 15.3964 33.241C15.3954 32.4 15.0609 31.5936 14.4661 30.9989C13.8714 30.4041 13.065 30.0696 12.224 30.0686Z" fill="#0046B4"/>
<path d="M38.3622 15.1755L36.8107 22.931H25.7073L29.5519 18.1258C30.328 17.1553 31.3116 16.3709 32.4304 15.83C33.5492 15.2891 34.7749 15.0055 36.0176 15H36.2566C36.9621 14.9996 37.6665 15.0583 38.3622 15.1755Z" fill="#97B7F0"/>
<path d="M46.3169 19.748C44.0492 21.7968 41.1019 22.9311 38.0458 22.9313H36.8105L38.362 15.1758C40.9999 15.6138 43.4347 16.8659 45.3255 18.7566L46.3169 19.748Z" fill="#97B7F0"/>
<path d="M49.5 24.5513V34.0348H3.5V29.2762C3.49961 28.7845 3.5565 28.2944 3.66953 27.8159C3.84762 27.0553 4.16637 26.3348 4.60935 25.6914C5.19155 24.84 5.97274 24.1436 6.88511 23.6627C7.79747 23.1817 8.81344 22.9307 9.84482 22.9314H38.0456C41.1017 22.9311 44.049 21.7968 46.3167 19.748L46.8054 20.2368C47.0153 20.4466 47.2455 20.6352 47.4924 20.7999C48.1101 21.2116 48.6165 21.7694 48.9667 22.4238C49.3169 23.0782 49.5001 23.809 49.5 24.5513Z" fill="#0069DC"/>
<path d="M36.0171 15C34.7744 15.0055 33.5487 15.2891 32.4299 15.83C31.3111 16.3709 30.3275 17.1553 29.5514 18.1258L25.7068 22.931H9.84473L11.7363 21.0395C13.6511 19.1246 15.9243 17.6057 18.4262 16.5694C20.928 15.5332 23.6095 14.9999 26.3175 15H36.0171Z" fill="#B4C8EB"/>
<path d="M22.4057 25.4949L21.4387 25.6883C20.0715 25.9618 18.7829 26.5379 17.6675 27.3745L16.1895 28.483L16.9703 28.7433C18.0178 29.0925 19.1383 29.1622 20.221 28.9457L20.5657 28.8767C21.1546 28.759 21.698 28.4764 22.1327 28.0619C22.5674 27.6474 22.8755 27.1181 23.0212 26.5354L23.0994 26.2225C23.1237 26.1252 23.1231 26.0233 23.0974 25.9263C23.0718 25.8293 23.0221 25.7403 22.9528 25.6677C22.8836 25.5951 22.7971 25.5412 22.7015 25.511C22.6058 25.4808 22.5041 25.4753 22.4057 25.4949Z" fill="#D4E4F0"/>
<path d="M9.84473 28.4831L9.06354 28.7439C8.01596 29.0927 6.89554 29.1624 5.81281 28.9461L5.46878 28.8767C4.76637 28.7366 4.13214 28.3627 3.66943 27.8159C3.84752 27.0554 4.16628 26.3348 4.60926 25.6914C5.97138 25.9659 7.25504 26.541 8.3666 27.3748L9.84473 28.4831Z" fill="#D4E4F0"/>
<path d="M25.7073 22.9313L28.219 19.792L31.259 20.552V22.9313H25.7073Z" fill="#0046B4"/>
<path d="M6.67261 34.0347L10.6381 30.8623H15.3967L19.3623 34.0347H6.67261Z" fill="#B4C8EB"/>
<path d="M31.2584 33.2409C31.2585 34.0217 31.028 34.7852 30.5959 35.4355C30.1638 36.0859 29.5493 36.5942 28.8295 36.8967C28.1097 37.1993 27.3166 37.2826 26.5496 37.1363C25.7827 36.9899 25.076 36.6204 24.5182 36.0741C23.9603 35.5277 23.5762 34.8289 23.414 34.0651C23.2517 33.3013 23.3185 32.5067 23.6061 31.7807C23.8936 31.0548 24.389 30.4299 25.0303 29.9844C25.6715 29.5389 26.43 29.2926 27.2106 29.2764C27.2374 29.2754 27.2651 29.2754 27.2929 29.2754C27.3207 29.2754 27.3484 29.2754 27.3752 29.2764C28.4124 29.2979 29.3999 29.725 30.1259 30.4662C30.8518 31.2073 31.2584 32.2035 31.2584 33.2409Z" fill="#D4E4F0"/>
<path d="M47.1205 33.2409C47.1205 34.0217 46.89 34.7852 46.4579 35.4355C46.0259 36.0859 45.4114 36.5942 44.6916 36.8967C43.9718 37.1993 43.1787 37.2826 42.4117 37.1363C41.6447 36.9899 40.938 36.6204 40.3802 36.0741C39.8224 35.5277 39.4383 34.8289 39.276 34.0651C39.1138 33.3013 39.1806 32.5067 39.4681 31.7807C39.7557 31.0548 40.2511 30.4299 40.8923 29.9844C41.5336 29.5389 42.292 29.2926 43.0727 29.2764C43.0994 29.2754 43.1272 29.2754 43.155 29.2754C43.1828 29.2754 43.2105 29.2754 43.2373 29.2764C44.2745 29.2979 45.262 29.725 45.9879 30.4662C46.7139 31.2073 47.1205 32.2035 47.1205 33.2409Z" fill="#D4E4F0"/>
<path d="M49.5002 24.5514V28.4832L45.5347 25.3108C46.5504 24.2953 47.928 23.7247 49.3644 23.7246H49.4238C49.4747 23.9973 49.5003 24.2741 49.5002 24.5514Z" fill="#B4C8EB"/>
<path d="M27.2931 34.0344C27.7311 34.0344 28.0862 33.6794 28.0862 33.2413C28.0862 32.8033 27.7311 32.4482 27.2931 32.4482C26.8551 32.4482 26.5 32.8033 26.5 33.2413C26.5 33.6794 26.8551 34.0344 27.2931 34.0344Z" fill="#B4C8EB"/>
<path d="M43.1552 34.0344C43.5932 34.0344 43.9483 33.6794 43.9483 33.2413C43.9483 32.8033 43.5932 32.4482 43.1552 32.4482C42.7171 32.4482 42.3621 32.8033 42.3621 33.2413C42.3621 33.6794 42.7171 34.0344 43.1552 34.0344Z" fill="#B4C8EB"/>
<path d="M41.2405 26.897H40.7759V25.3108H41.2405C41.492 25.3115 41.7412 25.2623 41.9736 25.166C42.206 25.0698 42.417 24.9284 42.5943 24.75L43.716 25.8716C43.3917 26.1977 43.0059 26.4563 42.581 26.6323C42.156 26.8083 41.7004 26.8983 41.2405 26.897Z" fill="#D4E4F0"/>
<path d="M32.0515 25.3105H35.2239V26.8968H32.0515V25.3105Z" fill="#D4E4F0"/>
<path d="M27.2933 37.9997C26.3521 37.9997 25.4321 37.7206 24.6495 37.1977C23.867 36.6748 23.2571 35.9316 22.8969 35.0621C22.5367 34.1926 22.4425 33.2358 22.6261 32.3127C22.8097 31.3896 23.2629 30.5417 23.9284 29.8762C24.5939 29.2107 25.4418 28.7575 26.3649 28.5739C27.288 28.3902 28.2448 28.4845 29.1143 28.8447C29.9839 29.2048 30.727 29.8147 31.2499 30.5973C31.7728 31.3798 32.0519 32.2999 32.0519 33.241C32.0505 34.5027 31.5487 35.7122 30.6566 36.6043C29.7645 37.4964 28.5549 37.9982 27.2933 37.9997ZM27.2933 30.0686C26.6658 30.0686 26.0525 30.2547 25.5308 30.6033C25.0091 30.9519 24.6025 31.4473 24.3624 32.027C24.1222 32.6067 24.0594 33.2446 24.1818 33.8599C24.3042 34.4753 24.6064 35.0406 25.0501 35.4843C25.4937 35.9279 26.059 36.2301 26.6744 36.3525C27.2898 36.4749 27.9276 36.4121 28.5073 36.172C29.087 35.9319 29.5825 35.5252 29.931 35.0035C30.2796 34.4818 30.4657 33.8685 30.4657 33.241C30.4647 32.4 30.1302 31.5936 29.5355 30.9989C28.9407 30.4041 28.1344 30.0696 27.2933 30.0686Z" fill="#0046B4"/>
<path d="M43.1553 37.9997C42.2142 37.9997 41.2942 37.7206 40.5116 37.1977C39.7291 36.6748 39.1191 35.9316 38.759 35.0621C38.3988 34.1926 38.3046 33.2358 38.4882 32.3127C38.6718 31.3896 39.125 30.5417 39.7905 29.8762C40.456 29.2107 41.3039 28.7575 42.227 28.5739C43.1501 28.3902 44.1069 28.4845 44.9764 28.8447C45.8459 29.2048 46.5891 29.8147 47.112 30.5973C47.6349 31.3798 47.914 32.2999 47.914 33.241C47.9125 34.5027 47.4107 35.7122 46.5186 36.6043C45.6265 37.4964 44.417 37.9982 43.1553 37.9997ZM43.1553 30.0686C42.5279 30.0686 41.9145 30.2547 41.3928 30.6033C40.8711 30.9519 40.4645 31.4473 40.2244 32.027C39.9843 32.6067 39.9215 33.2446 40.0439 33.8599C40.1663 34.4753 40.4684 35.0406 40.9121 35.4843C41.3558 35.9279 41.9211 36.2301 42.5364 36.3525C43.1518 36.4749 43.7897 36.4121 44.3694 36.172C44.9491 35.9319 45.4445 35.5252 45.7931 35.0035C46.1417 34.4818 46.3278 33.8685 46.3278 33.241C46.3268 32.4 45.9923 31.5936 45.3975 30.9989C44.8028 30.4041 43.9964 30.0696 43.1553 30.0686Z" fill="#0046B4"/>
</svg>
