<svg width="53" height="52" viewBox="0 0 53 52" fill="none" xmlns="http://www.w3.org/2000/svg">
<path d="M18.2615 16.5547V17.4507C18.2618 17.999 18.3203 18.5456 18.4359 19.0815L18.9624 21.4859C19.2374 22.7459 19.422 24.0906 19.908 25.2891C20.4824 26.6965 21.463 27.9008 22.7247 28.7486C23.9864 29.5964 25.472 30.0491 26.9921 30.0491C28.5121 30.0491 29.9977 29.5964 31.2594 28.7486C32.5211 27.9008 33.5017 26.6965 34.0761 25.2891C34.5622 24.0899 34.7467 22.7452 35.0213 21.4859L35.5482 19.0815C35.6638 18.5456 35.7223 17.999 35.7227 17.4507V16.5547H18.2615Z" fill="#DBF5CC"/>
<path d="M29.425 24.6274C29.4884 24.6227 29.5524 24.6296 29.6115 24.6474C29.6705 24.6653 29.723 24.6936 29.7645 24.73C29.8059 24.7664 29.8351 24.8098 29.8495 24.8564C29.8639 24.9031 29.8632 24.9517 29.8473 24.9981C29.6362 26.1103 28.2991 26.9576 26.7509 26.9576C25.2028 26.9576 23.8657 26.1103 23.6546 24.9981C23.6387 24.9517 23.638 24.9031 23.6524 24.8564C23.6668 24.8098 23.6959 24.7664 23.7374 24.73C23.7788 24.6936 23.8313 24.6653 23.8904 24.6474C23.9495 24.6296 24.0134 24.6227 24.0768 24.6274H29.425Z" fill="#46B400"/>
<path d="M18.31 19.1758C18.1928 18.6398 18.1338 18.0927 18.1338 17.5439V17.0879C18.0268 17.0725 17.9188 17.0644 17.8107 17.0635C17.4535 17.0626 17.1008 17.1423 16.7786 17.2965C16.4565 17.4508 16.1733 17.6757 15.95 17.9545C15.7268 18.2333 15.5693 18.5588 15.4892 18.9069C15.4091 19.2549 15.4085 19.6166 15.4875 19.9649C15.5665 20.3132 15.7229 20.6393 15.9453 20.9188C16.1676 21.1983 16.4501 21.4241 16.7718 21.5794C17.0934 21.7347 17.4459 21.8155 17.8031 21.8157C18.1603 21.816 18.5129 21.7357 18.8348 21.5809L18.31 19.1758Z" fill="#E8FADE"/>
<path d="M35.8322 17.0635C35.753 17.0651 35.6741 17.0711 35.5956 17.0816V17.545C35.5953 18.0932 35.5368 18.6399 35.4212 19.1758L34.8943 21.5802L34.887 21.6151C35.1846 21.7471 35.5065 21.8158 35.8322 21.8168C36.4573 21.8092 37.0543 21.5555 37.4937 21.1108C37.9331 20.666 38.1795 20.066 38.1795 19.4408C38.1795 18.8156 37.9331 18.2156 37.4937 17.7709C37.0543 17.3261 36.4573 17.0724 35.8322 17.0649V17.0635Z" fill="#E8FADE"/>
<path d="M35.7378 33.9579C35.4311 33.9339 35.1237 33.9098 34.8188 33.8759C34.3543 33.8324 33.8945 33.7481 33.4447 33.624L26.8206 38.5437L31.3945 40.639L35.7378 33.9579Z" fill="#358502"/>
<path d="M46.2297 42.0606V47.4408H7.5V42.0606C7.50092 40.3466 8.0648 38.6803 9.10495 37.3181C10.1451 35.9558 11.6039 34.9729 13.2571 34.5205C14.761 34.1087 16.3415 34.0634 17.9012 33.9482L22.2487 40.6405L26.2089 38.8226L26.8195 38.5435L27.4301 38.8226L31.3938 40.6405L35.7378 33.9587C36.1844 33.9936 36.6276 34.025 37.0672 34.0634C38.2137 34.1142 39.3533 34.2672 40.4726 34.5205C42.1258 34.9729 43.5846 35.9558 44.6248 37.3181C45.6649 38.6803 46.2288 40.3466 46.2297 42.0606Z" fill="#46B400"/>
<path d="M26.821 38.5441L20.2296 33.6484C19.879 33.7708 19.5109 33.8352 19.1396 33.8393C18.7296 33.8864 18.3165 33.9195 17.9023 33.9492L22.2471 40.6393L26.821 38.5441Z" fill="#358502"/>
<path d="M27.4302 38.5432V47.4406H26.209V38.5432C26.209 38.3813 26.2733 38.226 26.3878 38.1115C26.5023 37.9969 26.6576 37.9326 26.8196 37.9326C26.9815 37.9326 27.1368 37.9969 27.2514 38.1115C27.3659 38.226 27.4302 38.3813 27.4302 38.5432Z" fill="#358502"/>
<path d="M40.5601 42.3362V47.4408H39.3389V42.3362C39.3389 42.1742 39.4032 42.0189 39.5177 41.9044C39.6322 41.7899 39.7875 41.7256 39.9495 41.7256C40.1114 41.7256 40.2667 41.7899 40.3812 41.9044C40.4957 42.0189 40.5601 42.1742 40.5601 42.3362Z" fill="#358502"/>
<path d="M13.7805 44.0273H17.3873C17.5854 44.0274 17.7753 44.1062 17.9154 44.2462C18.0555 44.3863 18.1342 44.5763 18.1343 44.7744C18.1343 44.8725 18.1535 44.9696 18.1911 45.0603C18.2286 45.151 18.2836 45.2333 18.353 45.3027C18.4224 45.3721 18.5047 45.4271 18.5954 45.4646C18.6861 45.5022 18.7832 45.5214 18.8813 45.5214H21.6147C21.8128 45.5215 22.0028 45.6002 22.1429 45.7403C22.2829 45.8804 22.3617 46.0703 22.3618 46.2684V46.6938C22.3617 46.8919 22.2829 47.0818 22.1429 47.2219C22.0028 47.362 21.8128 47.4407 21.6147 47.4408H13.7805V44.0273Z" fill="#C8EBB4"/>
<path d="M44.864 37.6562H40.2328C39.9552 37.6562 39.6889 37.7665 39.4926 37.9628C39.2963 38.1591 39.186 38.4254 39.186 38.703V38.7466C39.186 39.0242 39.2963 39.2905 39.4926 39.4868C39.6889 39.6831 39.9552 39.7934 40.2328 39.7934H41.0834C41.3611 39.7934 41.6273 39.9036 41.8236 40.0999C42.0199 40.2963 42.1302 40.5625 42.1302 40.8401C42.1302 41.1177 42.2405 41.384 42.4368 41.5803C42.6331 41.7766 42.8993 41.8869 43.1769 41.8869H46.2226C46.1908 40.3745 45.7187 38.9043 44.864 37.6562Z" fill="#C8EBB4"/>
<path d="M31.2877 32.8218L32.1648 32.6428C32.1261 32.5825 32.0874 32.5218 32.0514 32.4544C31.9129 32.2019 31.822 31.9261 31.7831 31.6407L31.4007 28.6484C30.0879 29.6199 28.4979 30.1442 26.8648 30.1442C25.2317 30.1442 23.6417 29.6199 22.3289 28.6484L21.9451 31.6407C21.8916 31.9996 21.7568 32.3414 21.5508 32.64L22.4402 32.8218C25.3592 33.418 28.3686 33.418 31.2877 32.8218Z" fill="#E8FADE"/>
<path d="M32.1651 32.6424L31.2879 32.8214C28.3695 33.4174 25.3607 33.4174 22.4422 32.8214L21.5528 32.6396C21.2318 33.1094 20.7678 33.463 20.2297 33.648L26.8211 38.5437L33.4453 33.6239C32.9142 33.4618 32.4596 33.1133 32.1651 32.6424Z" fill="#C8EBB4"/>
<path d="M7.74438 40.1127H15.1508C15.349 40.1127 15.539 40.034 15.6791 39.8939C15.8192 39.7538 15.8979 39.5638 15.8979 39.3656V38.9403C15.8979 38.8422 15.8786 38.745 15.8411 38.6544C15.8036 38.5637 15.7485 38.4814 15.6792 38.412C15.6098 38.3426 15.5274 38.2876 15.4368 38.2501C15.3461 38.2125 15.249 38.1932 15.1508 38.1933H12.4174C12.2193 38.1932 12.0294 38.1145 11.8893 37.9744C11.7492 37.8343 11.6705 37.6443 11.6704 37.4463C11.6704 37.3481 11.6511 37.251 11.6136 37.1603C11.5761 37.0697 11.5211 36.9873 11.4517 36.9179C11.3823 36.8485 11.2999 36.7935 11.2093 36.756C11.1186 36.7185 11.0215 36.6992 10.9234 36.6992H9.63726C8.72744 37.6584 8.07612 38.8329 7.74438 40.1127Z" fill="#C8EBB4"/>
<path d="M31.1624 47.4406V45.7397C31.1624 45.4563 31.2751 45.1845 31.4755 44.9842C31.6759 44.7838 31.9477 44.6713 32.2311 44.6713H32.2733C32.5567 44.6712 32.8284 44.5586 33.0288 44.3581C33.2291 44.1577 33.3417 43.8859 33.3417 43.6026C33.3418 43.3192 33.4544 43.0474 33.6548 42.8471C33.8553 42.6467 34.127 42.5342 34.4104 42.5342H34.454C34.7374 42.5342 35.0091 42.6467 35.2095 42.8471C35.4099 43.0475 35.5224 43.3192 35.5224 43.6026V47.4406H31.1624Z" fill="#C8EBB4"/>
<path d="M36.5472 12.7686V15.9507C36.5467 16.1356 36.473 16.3128 36.3422 16.4435C36.2115 16.5743 36.0343 16.648 35.8494 16.6485H17.8802C17.6953 16.648 17.5181 16.5743 17.3874 16.4435C17.2566 16.3128 17.1829 16.1356 17.1824 15.9507V12.7686H36.5472Z" fill="#358502"/>
<path d="M30.8205 4H25.3892C21.8237 3.99989 18.3941 5.36879 15.8087 7.82413L14.2012 9.35029C14.0062 9.53536 13.8509 9.7582 13.7448 10.0052C13.6387 10.2522 13.584 10.5183 13.584 10.7871C13.5841 11.3124 13.7928 11.8161 14.1643 12.1875C14.5357 12.5589 15.0395 12.7676 15.5648 12.7676H36.5434C36.9421 12.7674 37.3348 12.6696 37.687 12.4827C38.0392 12.2958 38.3403 12.0256 38.564 11.6955C38.7878 11.3654 38.9273 10.9856 38.9704 10.5892C39.0135 10.1928 38.9589 9.7919 38.8114 9.42147C38.1748 7.82198 37.0729 6.45028 35.6484 5.48376C34.2238 4.51725 32.542 4.00038 30.8205 4Z" fill="#46B400"/>
<path d="M28.773 9.05882L26.8648 10.4559L24.9565 9.05882V6.3125H28.773V9.05882Z" fill="#E0FAD2"/>
<path d="M19.7017 12.7686H20.9229V16.6485H19.7017V12.7686Z" fill="#C8EBB4"/>
<path d="M22.9778 12.7686H24.199V16.6485H22.9778V12.7686Z" fill="#C8EBB4"/>
<path d="M26.2539 12.7686H27.4751V16.6485H26.2539V12.7686Z" fill="#C8EBB4"/>
<path d="M29.5308 12.7686H30.752V16.6485H29.5308V12.7686Z" fill="#C8EBB4"/>
<path d="M32.8069 12.7686H34.0281V16.6485H32.8069V12.7686Z" fill="#C8EBB4"/>
<path d="M14.3909 42.3362V47.4408H13.1697V42.3362C13.1697 42.1742 13.234 42.0189 13.3485 41.9044C13.463 41.7899 13.6183 41.7256 13.7803 41.7256C13.9422 41.7256 14.0975 41.7899 14.212 41.9044C14.3266 42.0189 14.3909 42.1742 14.3909 42.3362Z" fill="#358502"/>
</svg>
