<svg width="53" height="52" viewBox="0 0 53 52" fill="none" xmlns="http://www.w3.org/2000/svg">
<g clip-path="url(#clip0_153_632)">
<path d="M10.0614 30.0686V36.3697C10.0614 36.4525 10.0451 36.5344 10.0135 36.6109C9.98179 36.6874 9.93538 36.7568 9.87686 36.8153C9.81835 36.8739 9.74887 36.9203 9.67242 36.9519C9.59596 36.9836 9.51401 36.9999 9.43126 36.9998H6.28068C5.27798 36.9998 4.31635 36.6015 3.60734 35.8925C2.89832 35.1835 2.5 34.2219 2.5 33.2192C2.5 32.2165 2.89832 31.2548 3.60734 30.5458C4.31635 29.8368 5.27798 29.4385 6.28068 29.4385H9.43126C9.51401 29.4385 9.59596 29.4547 9.67242 29.4864C9.74888 29.5181 9.81835 29.5645 9.87686 29.623C9.93538 29.6815 9.98179 29.751 10.0135 29.8274C10.0451 29.9039 10.0614 29.9858 10.0614 30.0686Z" fill="#087E9F"/>
<path d="M22.3486 30.0686V36.3697C22.3486 36.4525 22.3323 36.5344 22.3007 36.6109C22.269 36.6874 22.2226 36.7568 22.1641 36.8153C22.1056 36.8739 22.0361 36.9203 21.9596 36.9519C21.8832 36.9836 21.8012 36.9999 21.7185 36.9998H18.5679C17.5652 36.9998 16.6036 36.6015 15.8946 35.8925C15.1856 35.1835 14.7872 34.2219 14.7872 33.2192C14.7872 32.2165 15.1856 31.2548 15.8946 30.5458C16.6036 29.8368 17.5652 29.4385 18.5679 29.4385H21.7185C21.8012 29.4385 21.8832 29.4547 21.9596 29.4864C22.0361 29.5181 22.1056 29.5645 22.1641 29.623C22.2226 29.6815 22.269 29.751 22.3007 29.8274C22.3323 29.9039 22.3486 29.9858 22.3486 30.0686Z" fill="#087E9F"/>
<path d="M9.43121 36.3695C11.1712 36.3695 12.5818 34.9589 12.5818 33.2189C12.5818 31.4789 11.1712 30.0684 9.43121 30.0684C7.6912 30.0684 6.28064 31.4789 6.28064 33.2189C6.28064 34.9589 7.6912 36.3695 9.43121 36.3695Z" fill="#B4E6F5"/>
<path d="M9.43132 36.9998C8.68357 36.9998 7.95262 36.7781 7.33089 36.3627C6.70915 35.9473 6.22458 35.3568 5.93842 34.666C5.65227 33.9751 5.5774 33.215 5.72328 32.4816C5.86916 31.7482 6.22924 31.0746 6.75797 30.5458C7.28671 30.0171 7.96037 29.657 8.69375 29.5111C9.42713 29.3652 10.1873 29.4401 10.8781 29.7263C11.569 30.0124 12.1594 30.497 12.5748 31.1187C12.9903 31.7405 13.212 32.4714 13.212 33.2192C13.2109 34.2215 12.8122 35.1825 12.1034 35.8913C11.3947 36.6 10.4337 36.9987 9.43132 36.9998ZM9.43132 30.6987C8.93282 30.6987 8.44552 30.8465 8.03103 31.1235C7.61654 31.4004 7.29349 31.7941 7.10272 32.2546C6.91196 32.7152 6.86204 33.222 6.95929 33.7109C7.05655 34.1998 7.2966 34.6489 7.64909 35.0014C8.00158 35.3539 8.45068 35.5939 8.9396 35.6912C9.42853 35.7884 9.93531 35.7385 10.3959 35.5478C10.8564 35.357 11.2501 35.0339 11.527 34.6195C11.804 34.205 11.9518 33.7177 11.9518 33.2192C11.951 32.5509 11.6852 31.9103 11.2127 31.4378C10.7402 30.9653 10.0996 30.6995 9.43132 30.6987Z" fill="#0090B8"/>
<path d="M30.1973 18.866L28.9647 25.0277H20.1431L23.1976 21.21C23.8142 20.4389 24.5957 19.8157 25.4845 19.386C26.3734 18.9562 27.3472 18.7309 28.3346 18.7266H28.5244C29.0849 18.7262 29.6446 18.7729 30.1973 18.866Z" fill="#82D4ED"/>
<path d="M36.5176 22.4988C34.7159 24.1265 32.3743 25.0277 29.9462 25.0279H28.9648L30.1975 18.8662C32.2932 19.2142 34.2277 20.209 35.7299 21.7112L36.5176 22.4988Z" fill="#82D4ED"/>
<path d="M39.0466 26.3142L36.9058 33.8488H2.5V30.0681C2.49969 29.6774 2.54489 29.2881 2.63469 28.9079C2.77618 28.3036 3.02943 27.7311 3.38137 27.22C3.84393 26.5436 4.46458 25.9903 5.18944 25.6082C5.91431 25.226 6.72149 25.0266 7.54092 25.0272H29.9462C32.3742 25.027 34.7158 24.1257 36.5175 22.498L36.9058 22.8864C37.0726 23.0531 37.2554 23.2029 37.4516 23.3337C37.9424 23.6608 38.3447 24.104 38.6229 24.6239C38.9012 25.1439 39.0467 25.7245 39.0466 26.3142Z" fill="#00AFE1"/>
<path d="M28.3347 18.7266C27.3474 18.7309 26.3736 18.9562 25.4847 19.386C24.5958 19.8157 23.8143 20.4389 23.1977 21.21L20.1432 25.0277H7.54089L9.04372 23.5249C10.565 22.0035 12.3711 20.7968 14.3588 19.9735C16.3465 19.1502 18.4769 18.7265 20.6284 18.7266H28.3347Z" fill="#B4E6F5"/>
<path d="M17.5205 27.0648L16.7523 27.2185C15.6661 27.4357 14.6423 27.8935 13.7561 28.5581L12.5818 29.4388L13.2021 29.6456C14.0344 29.923 14.9246 29.9785 15.7848 29.8064L16.0586 29.7517C16.5266 29.6581 16.9583 29.4336 17.3037 29.1043C17.649 28.775 17.8938 28.3544 18.0095 27.8914L18.0717 27.6429C18.091 27.5655 18.0905 27.4846 18.0701 27.4075C18.0498 27.3305 18.0102 27.2598 17.9552 27.2021C17.9002 27.1444 17.8315 27.1016 17.7555 27.0776C17.6795 27.0536 17.5987 27.0492 17.5205 27.0648Z" fill="#D4E4F0"/>
<path d="M7.54099 29.4387L6.92034 29.6459C6.08805 29.923 5.19788 29.9784 4.33766 29.8065L4.06433 29.7514C3.50628 29.6401 3.00238 29.343 2.63477 28.9086C2.77626 28.3044 3.0295 27.7319 3.38145 27.2207C4.46364 27.4388 5.4835 27.8957 6.36663 28.5581L7.54099 29.4387Z" fill="#D4E4F0"/>
<path d="M20.1431 25.0273L22.1386 22.5332L24.5539 23.137V25.0273H20.1431Z" fill="#00AFE1"/>
<path d="M5.02063 33.8496L8.1712 31.3291H11.9519L15.1025 33.8496H5.02063Z" fill="#B4E6F5"/>
<path d="M24.5542 33.2189C24.5542 33.8393 24.3711 34.4458 24.0278 34.9625C23.6845 35.4792 23.1963 35.8831 22.6245 36.1235C22.0526 36.3639 21.4225 36.4301 20.8131 36.3138C20.2038 36.1975 19.6423 35.9039 19.1991 35.4699C18.7559 35.0358 18.4507 34.4806 18.3218 33.8738C18.1929 33.267 18.246 32.6356 18.4745 32.0588C18.7029 31.4821 19.0965 30.9856 19.606 30.6317C20.1154 30.2777 20.718 30.082 21.3382 30.0691C21.3595 30.0684 21.3815 30.0684 21.4036 30.0684C21.4257 30.0684 21.4477 30.0684 21.469 30.0691C22.2931 30.0862 23.0776 30.4256 23.6544 31.0144C24.2312 31.6033 24.5542 32.3947 24.5542 33.2189Z" fill="#B4E6F5"/>
<path d="M37.1564 33.2189C37.1564 33.8393 36.9733 34.4458 36.63 34.9625C36.2867 35.4792 35.7985 35.8831 35.2266 36.1235C34.6547 36.3639 34.0246 36.4301 33.4153 36.3138C32.8059 36.1975 32.2445 35.9039 31.8013 35.4699C31.3581 35.0358 31.0529 34.4806 30.924 33.8738C30.7951 33.267 30.8482 32.6356 31.0766 32.0588C31.3051 31.4821 31.6987 30.9856 32.2081 30.6317C32.7176 30.2777 33.3202 30.082 33.9404 30.0691C33.9617 30.0684 33.9837 30.0684 34.0058 30.0684C34.0279 30.0684 34.0499 30.0684 34.0712 30.0691C34.8952 30.0862 35.6798 30.4256 36.2566 31.0144C36.8333 31.6033 37.1564 32.3947 37.1564 33.2189Z" fill="#D4E4F0"/>
<path d="M39.0467 26.3151V29.4389L35.8961 26.9184C36.7031 26.1116 37.7976 25.6583 38.9388 25.6582H38.986C39.0265 25.8748 39.0468 26.0947 39.0467 26.3151Z" fill="#D6323F"/>
<path d="M21.4034 33.8491C21.7514 33.8491 22.0335 33.567 22.0335 33.219C22.0335 32.871 21.7514 32.5889 21.4034 32.5889C21.0554 32.5889 20.7733 32.871 20.7733 33.219C20.7733 33.567 21.0554 33.8491 21.4034 33.8491Z" fill="#00AFE1"/>
<path d="M34.0056 33.8491C34.3536 33.8491 34.6357 33.567 34.6357 33.219C34.6357 32.871 34.3536 32.5889 34.0056 32.5889C33.6576 32.5889 33.3755 32.871 33.3755 33.219C33.3755 33.567 33.6576 33.8491 34.0056 33.8491Z" fill="#68737F"/>
<path d="M32.4844 28.1784H32.1152V26.9182H32.4844C32.6842 26.9188 32.8822 26.8797 33.0668 26.8032C33.2514 26.7267 33.4191 26.6144 33.56 26.4727L34.4512 27.3638C34.1935 27.6229 33.887 27.8283 33.5494 27.9681C33.2118 28.108 32.8498 28.1794 32.4844 28.1784Z" fill="#D4E4F0"/>
<path d="M25.1842 26.918H27.7047V28.1782H25.1842V26.918Z" fill="#D4E4F0"/>
<path d="M21.4035 36.9998C20.6557 36.9998 19.9248 36.7781 19.3031 36.3627C18.6813 35.9473 18.1967 35.3568 17.9106 34.666C17.6244 33.9751 17.5496 33.215 17.6954 32.4816C17.8413 31.7482 18.2014 31.0746 18.7301 30.5458C19.2589 30.0171 19.9325 29.657 20.6659 29.5111C21.3993 29.3652 22.1595 29.4401 22.8503 29.7263C23.5411 30.0124 24.1316 30.497 24.547 31.1187C24.9624 31.7405 25.1842 32.4714 25.1842 33.2192C25.183 34.2215 24.7844 35.1825 24.0756 35.8913C23.3668 36.6 22.4058 36.9987 21.4035 36.9998ZM21.4035 30.6987C20.905 30.6987 20.4177 30.8465 20.0032 31.1235C19.5887 31.4004 19.2657 31.7941 19.0749 32.2546C18.8841 32.7152 18.8342 33.222 18.9315 33.7109C19.0287 34.1998 19.2688 34.6489 19.6213 35.0014C19.9737 35.3539 20.4229 35.5939 20.9118 35.6912C21.4007 35.7884 21.9075 35.7385 22.368 35.5478C22.8286 35.357 23.2222 35.0339 23.4992 34.6195C23.7761 34.205 23.9239 33.7177 23.9239 33.2192C23.9232 32.5509 23.6574 31.9103 23.1849 31.4378C22.7124 30.9653 22.0717 30.6995 21.4035 30.6987Z" fill="#0090B8"/>
<path d="M33.6034 28.6551V36.2413C33.6035 36.3409 33.5839 36.4396 33.5457 36.5316C33.5076 36.6237 33.4517 36.7073 33.3813 36.7778C33.3109 36.8482 33.2272 36.9041 33.1352 36.9422C33.0431 36.9803 32.9444 36.9999 32.8448 36.9999H29.0517C27.8445 36.9999 26.6868 36.5204 25.8332 35.6668C24.9796 34.8131 24.5 33.6554 24.5 32.4482C24.5 31.241 24.9796 30.0833 25.8332 29.2297C26.6868 28.376 27.8445 27.8965 29.0517 27.8965H32.8448C32.9444 27.8965 33.0431 27.9161 33.1352 27.9542C33.2272 27.9923 33.3109 28.0482 33.3813 28.1186C33.4518 28.1891 33.5076 28.2727 33.5457 28.3648C33.5839 28.4568 33.6035 28.5555 33.6034 28.6551Z" fill="#0046B4"/>
<path d="M48.3963 28.6551V36.2413C48.3963 36.3409 48.3767 36.4396 48.3386 36.5316C48.3005 36.6237 48.2446 36.7073 48.1741 36.7778C48.1037 36.8482 48.0201 36.9041 47.928 36.9422C47.836 36.9803 47.7373 36.9999 47.6377 36.9999H43.8446C42.6374 36.9999 41.4796 36.5204 40.626 35.6668C39.7724 34.8131 39.2928 33.6554 39.2928 32.4482C39.2928 31.241 39.7724 30.0833 40.626 29.2297C41.4796 28.376 42.6374 27.8965 43.8446 27.8965H47.6377C47.7373 27.8965 47.836 27.9161 47.928 27.9542C48.0201 27.9923 48.1037 28.0482 48.1741 28.1186C48.2446 28.1891 48.3005 28.2727 48.3386 28.3648C48.3767 28.4568 48.3963 28.5555 48.3963 28.6551Z" fill="#0046B4"/>
<path d="M32.8449 36.2415C34.9397 36.2415 36.638 34.5432 36.638 32.4484C36.638 30.3535 34.9397 28.6553 32.8449 28.6553C30.75 28.6553 29.0518 30.3535 29.0518 32.4484C29.0518 34.5432 30.75 36.2415 32.8449 36.2415Z" fill="#D4E4F0"/>
<path d="M32.8446 36.9999C31.9443 36.9999 31.0643 36.733 30.3158 36.2328C29.5672 35.7327 28.9838 35.0218 28.6393 34.1901C28.2948 33.3584 28.2047 32.4432 28.3803 31.5602C28.5559 30.6773 28.9894 29.8662 29.626 29.2297C30.2626 28.5931 31.0736 28.1596 31.9566 27.9839C32.8395 27.8083 33.7547 27.8985 34.5864 28.243C35.4182 28.5875 36.129 29.1709 36.6292 29.9194C37.1293 30.6679 37.3963 31.548 37.3963 32.4482C37.3949 33.655 36.9149 34.8119 36.0616 35.6653C35.2083 36.5186 34.0513 36.9986 32.8446 36.9999ZM32.8446 29.4137C32.2444 29.4137 31.6577 29.5917 31.1587 29.9251C30.6597 30.2586 30.2707 30.7325 30.0411 31.287C29.8114 31.8414 29.7513 32.4516 29.8684 33.0402C29.9855 33.6288 30.2745 34.1695 30.6989 34.5939C31.1232 35.0183 31.6639 35.3073 32.2526 35.4244C32.8412 35.5415 33.4513 35.4814 34.0058 35.2517C34.5603 35.022 35.0342 34.6331 35.3676 34.1341C35.7011 33.6351 35.879 33.0484 35.879 32.4482C35.8781 31.6437 35.5581 30.8724 34.9893 30.3035C34.4204 29.7346 33.6491 29.4146 32.8446 29.4137Z" fill="#0046B4"/>
<path d="M57.8463 15.1678L56.3623 22.5862H45.7416L49.419 17.9899C50.1614 17.0616 51.1022 16.3113 52.1724 15.7939C53.2426 15.2765 54.415 15.0053 55.6036 15H55.8322C56.5071 14.9996 57.1808 15.0557 57.8463 15.1678Z" fill="#97B7F0"/>
<path d="M68.4999 24.1354V33.2066H24.5V28.6549C24.4996 28.1846 24.554 27.7158 24.6622 27.2581C24.8325 26.5306 25.1374 25.8413 25.5611 25.2259C26.118 24.4116 26.8652 23.7455 27.7379 23.2854C28.6106 22.8254 29.5824 22.5852 30.569 22.5859H57.5436C60.4668 22.5857 63.2859 21.5007 65.4551 19.541L65.9225 20.0085C66.1233 20.2092 66.3435 20.3896 66.5797 20.5471C67.1705 20.9409 67.6549 21.4744 67.9899 22.1004C68.3248 22.7264 68.5001 23.4254 68.4999 24.1354Z" fill="#0069DC"/>
<path d="M55.6033 15C54.4146 15.0053 53.2422 15.2765 52.1721 15.7939C51.1019 16.3113 50.1611 17.0616 49.4187 17.9899L45.7412 22.5862H30.5688L32.3782 20.7769C34.2097 18.9453 36.3841 17.4924 38.7772 16.5012C41.1703 15.51 43.7352 14.9999 46.3254 15H55.6033Z" fill="#B4C8EB"/>
<path d="M42.5835 25.0384L41.6586 25.2234C40.3508 25.4849 39.1183 26.036 38.0513 26.8362L36.6376 27.8965L37.3844 28.1455C38.3864 28.4795 39.4582 28.5462 40.4938 28.3391L40.8235 28.2732C41.3869 28.1605 41.9067 27.8902 42.3224 27.4937C42.7382 27.0973 43.0329 26.5909 43.1723 26.0336L43.2471 25.7343C43.2704 25.6412 43.2697 25.5437 43.2452 25.451C43.2207 25.3582 43.1731 25.2731 43.1069 25.2037C43.0407 25.1342 42.958 25.0827 42.8665 25.0538C42.775 25.0249 42.6776 25.0196 42.5835 25.0384Z" fill="#D4E4F0"/>
<path d="M30.5688 27.8969L29.8216 28.1463C28.8195 28.48 27.7478 28.5467 26.7122 28.3397L26.3831 28.2734C25.7112 28.1393 25.1046 27.7817 24.662 27.2587C24.8323 26.5312 25.1372 25.842 25.561 25.2266C26.8638 25.4891 28.0917 26.0392 29.1549 26.8367L30.5688 27.8969Z" fill="#D4E4F0"/>
<path d="M45.7416 22.5858L48.1441 19.583L51.0519 20.31V22.5858H45.7416Z" fill="#0046B4"/>
<path d="M27.5347 33.2064L31.3278 30.1719H35.8795L39.6726 33.2064H27.5347Z" fill="#B4C8EB"/>
<path d="M51.0515 32.4484C51.0516 33.1952 50.8311 33.9255 50.4178 34.5476C50.0045 35.1696 49.4167 35.6559 48.7282 35.9453C48.0397 36.2347 47.2811 36.3144 46.5475 36.1744C45.8139 36.0344 45.1379 35.681 44.6043 35.1584C44.0708 34.6358 43.7033 33.9673 43.5481 33.2367C43.3929 32.5062 43.4569 31.7461 43.7319 31.0517C44.0069 30.3573 44.4808 29.7596 45.0942 29.3335C45.7075 28.9073 46.433 28.6717 47.1797 28.6562C47.2053 28.6553 47.2319 28.6553 47.2584 28.6553C47.285 28.6553 47.3115 28.6553 47.3371 28.6562C48.3293 28.6768 49.2738 29.0854 49.9682 29.7943C50.6626 30.5032 51.0515 31.456 51.0515 32.4484Z" fill="#D4E4F0"/>
<path d="M47.2586 33.2067C47.6776 33.2067 48.0172 32.867 48.0172 32.4481C48.0172 32.0291 47.6776 31.6895 47.2586 31.6895C46.8396 31.6895 46.5 32.0291 46.5 32.4481C46.5 32.867 46.8396 33.2067 47.2586 33.2067Z" fill="#B4C8EB"/>
<path d="M51.8102 24.8623H54.8447V26.3795H51.8102V24.8623Z" fill="#D4E4F0"/>
<path d="M47.2586 36.9999C46.3584 36.9999 45.4784 36.733 44.7298 36.2328C43.9813 35.7327 43.3979 35.0218 43.0534 34.1901C42.7089 33.3584 42.6187 32.4432 42.7944 31.5602C42.97 30.6773 43.4035 29.8662 44.0401 29.2297C44.6766 28.5931 45.4877 28.1596 46.3706 27.9839C47.2536 27.8083 48.1688 27.8985 49.0005 28.243C49.8322 28.5875 50.5431 29.1709 51.0432 29.9194C51.5434 30.6679 51.8103 31.548 51.8103 32.4482C51.809 33.655 51.329 34.8119 50.4757 35.6653C49.6224 36.5186 48.4654 36.9986 47.2586 36.9999ZM47.2586 29.4137C46.6585 29.4137 46.0718 29.5917 45.5728 29.9251C45.0737 30.2586 44.6848 30.7325 44.4551 31.287C44.2255 31.8414 44.1654 32.4516 44.2825 33.0402C44.3995 33.6288 44.6885 34.1695 45.1129 34.5939C45.5373 35.0183 46.078 35.3073 46.6666 35.4244C47.2553 35.5415 47.8654 35.4814 48.4199 35.2517C48.9744 35.022 49.4483 34.6331 49.7817 34.1341C50.1151 33.6351 50.2931 33.0484 50.2931 32.4482C50.2922 31.6437 49.9722 30.8724 49.4033 30.3035C48.8344 29.7346 48.0631 29.4146 47.2586 29.4137Z" fill="#0046B4"/>
</g>
<defs>
<clipPath id="clip0_153_632">
<rect width="52" height="52" fill="white" transform="translate(0.5)"/>
</clipPath>
</defs>
</svg>
