<svg width="53" height="52" viewBox="0 0 53 52" fill="none" xmlns="http://www.w3.org/2000/svg">
<path d="M41.9299 38.8563L41.9299 38.8563C32.3138 42.5195 21.6865 42.5195 12.0704 38.8563L12.0704 38.8563C11.4565 38.6224 10.9281 38.2075 10.5553 37.6666C10.1825 37.1256 9.98291 36.4842 9.98291 35.8272V18.9141H44.0174V35.8272C44.0174 36.4842 43.8178 37.1256 43.445 37.6666C43.0722 38.2075 42.5438 38.6224 41.9299 38.8563Z" fill="#00C8F5"/>
<path d="M3.5 18.1034L27 10L50.5 18.1034L27 26.2069L3.5 18.1034Z" fill="#5CB3FF"/>
<path d="M38.3449 26.6122H36.7242V23.5333L26.6711 19.8776L27.2251 18.3545L37.8115 22.2041C37.9678 22.2609 38.1029 22.3645 38.1983 22.5008C38.2937 22.637 38.3449 22.7993 38.3449 22.9657V26.6122Z" fill="#287FCB"/>
<path d="M27.0001 20.5339C28.3427 20.5339 29.4312 19.4455 29.4312 18.1029C29.4312 16.7603 28.3427 15.6719 27.0001 15.6719C25.6575 15.6719 24.5691 16.7603 24.5691 18.1029C24.5691 19.4455 25.6575 20.5339 27.0001 20.5339Z" fill="#5CDBFF"/>
<path d="M37.5346 25.3965C38.1793 25.3965 38.7976 25.6526 39.2536 26.1085C39.7095 26.5644 39.9656 27.1828 39.9656 27.8275V28.6379H35.1035V27.8275C35.1035 27.1828 35.3596 26.5644 35.8156 26.1085C36.2715 25.6526 36.8898 25.3965 37.5346 25.3965Z" fill="#287FCB"/>
<path d="M35.1035 28.6377H39.9656V31.8791H35.1035V28.6377Z" fill="#287FCB"/>
<path d="M35.1035 31.8789H36.7242V37.5513H35.1035V31.8789Z" fill="#5CB3FF"/>
<path d="M36.7241 31.8789H38.3448V37.5513H36.7241V31.8789Z" fill="#287FCB"/>
<path d="M38.345 31.8789H39.9657V37.5513H38.345V31.8789Z" fill="#5CB3FF"/>
</svg>
