<svg width="112" height="110" viewBox="0 0 112 110" fill="none" xmlns="http://www.w3.org/2000/svg">
<circle cx="56.25" cy="55" r="55" fill="#F8F8F8"/>
<path d="M88.654 28.5965C74.2236 25.2088 65.1705 22.1791 65.0888 22.1516C64.871 22.0827 64.6396 22.0827 64.4218 22.1654C64.3401 22.1929 56.1311 25.2088 40.8974 28.5965C40.4346 28.7067 40.0942 29.1198 40.0942 29.6018V54.3073C40.0942 54.8719 40.5571 55.3402 41.1153 55.3402C41.6734 55.3402 42.1363 54.8719 42.1363 54.3073V30.4419C55.3006 27.481 63.1149 24.8232 64.7893 24.231C66.5319 24.7957 74.877 27.4535 87.4152 30.4281V57.6399C87.4152 60.9037 86.5847 64.1399 85.0192 67.0044C83.4536 69.855 81.1937 72.2787 78.4574 74.0139L66.0418 81.0923C65.5517 81.3677 64.9935 81.4779 64.4354 81.409C63.8772 81.3402 63.3599 81.7395 63.2918 82.3041C63.2238 82.8688 63.6186 83.3921 64.1767 83.4609C64.3673 83.4885 64.5579 83.5022 64.7621 83.5022C65.5517 83.5022 66.3549 83.2957 67.0492 82.8963L79.492 75.8041C79.5056 75.7904 79.5193 75.7904 79.5329 75.7766C82.5687 73.8624 85.0736 71.177 86.8162 68.0097C88.5451 64.8423 89.4572 61.2618 89.4572 57.6399V29.6018C89.4436 29.1336 89.1169 28.7067 88.654 28.5965Z" fill="#254F9D"/>
<path d="M71.5418 29.7254C67.4577 28.5548 65.1162 27.7561 65.0889 27.7561C64.8711 27.6872 64.6261 27.6872 64.4082 27.7699C64.3402 27.7836 57.8601 30.1936 45.8257 32.9065C45.3628 33.0167 45.0225 33.4298 45.0225 33.9118V43.29C45.0225 43.8546 45.4853 44.3228 46.0435 44.3228C46.6016 44.3228 47.0645 43.8546 47.0645 43.29V34.7381C57.3428 32.3832 63.3192 30.3313 64.7758 29.8218C65.5654 30.0834 67.73 30.7858 70.9836 31.7084C71.5282 31.8599 72.0863 31.5432 72.2497 30.9923C72.3994 30.4552 72.0863 29.8769 71.5418 29.7254Z" fill="#254F9D"/>
<path d="M82.4598 56.3732C82.4598 61.6614 79.8596 66.4951 75.4896 69.3182L64.5851 75.4739C64.095 75.7493 63.9181 76.3828 64.1903 76.8785C64.3809 77.2228 64.7213 77.4018 65.0888 77.4018C65.2522 77.4018 65.4292 77.3605 65.5789 77.2641L76.5107 71.0946C76.5243 71.0809 76.5379 71.0809 76.5651 71.0671C81.5341 67.8722 84.5155 62.3775 84.5155 56.3732V50.066C84.5155 49.5014 84.0526 49.0332 83.4944 49.0332C82.9363 49.0332 82.4734 49.5014 82.4734 50.066V56.3732H82.4598Z" fill="#254F9D"/>
<path d="M79.8869 36.1567C79.6963 35.9501 79.4376 35.8262 79.1518 35.8262C78.8795 35.8262 78.6072 35.9363 78.4166 36.1291L64.2585 50.4512L61.3315 47.4904C61.1409 47.2976 60.8823 47.1874 60.61 47.1874C60.3377 47.1874 60.0791 47.2976 59.8885 47.4904L56.948 50.4649C56.5532 50.8643 56.5532 51.5253 56.948 51.9247L63.4961 58.5486C63.6867 58.7414 63.9454 58.8516 64.2176 58.8516C64.4899 58.8516 64.7486 58.7414 64.9391 58.5486L82.6641 40.6185C83.0453 40.2192 83.0589 39.5995 82.6913 39.1863L79.8869 36.1567ZM64.204 56.3728L59.0989 51.2086L60.5964 49.6938L63.5233 52.6546C63.7139 52.8474 63.9726 52.9575 64.2448 52.9575C64.5171 52.9575 64.7758 52.8474 64.9664 52.6546L79.0973 38.3601L80.4995 39.8887L64.204 56.3728Z" fill="#254F9D"/>
<path d="M56.9615 61.4687H50.8353C51.9653 60.064 53.2994 57.9432 53.6942 55.4644C53.912 54.1011 54.0618 52.6826 54.1298 51.2367C54.1843 50.0799 53.7895 48.992 52.9999 48.1519C52.2103 47.3119 51.1621 46.8574 50.0185 46.8574C48.0173 46.8574 46.3156 48.3034 45.9617 50.3002C45.349 53.8256 44.2736 56.2769 42.9531 57.2271C42.2315 57.7367 41.6461 58.0947 41.1697 58.3701C40.1486 58.9623 39.3318 59.4443 39.0596 60.6837C38.4061 63.672 37.1128 65.0216 35.9148 65.6138C35.5336 64.8701 34.7985 64.3606 33.9545 64.3606C33.9408 64.3606 33.9408 64.3606 33.9272 64.3606L29.6389 64.4432C29.0399 64.457 28.4546 64.7187 28.0461 65.1869C27.8828 65.3659 27.7603 65.5725 27.665 65.779H23.0772C22.519 65.779 22.0562 66.2473 22.0562 66.8119C22.0562 67.3765 22.519 67.8447 23.0772 67.8447H27.4608L27.6513 83.9295H23.0772C22.519 83.9295 22.0562 84.3977 22.0562 84.9623C22.0562 85.5269 22.519 85.9951 23.0772 85.9951H28.1142C28.5226 86.5598 29.1625 86.9316 29.884 86.9316C29.8976 86.9316 29.9112 86.9316 29.9112 86.9316L34.1995 86.8489C34.7985 86.8352 35.3839 86.5735 35.7923 86.1053C36.1054 85.7473 36.296 85.3066 36.3641 84.8384C37.4123 84.7282 39.5224 84.5905 41.1561 84.8797C42.3268 85.0862 43.5521 85.1964 44.8045 85.1964H56.9615C59.6161 85.1964 61.7671 83.0206 61.7671 80.3352V66.3299C61.7671 65.0354 61.2634 63.8098 60.3649 62.9009C59.4528 61.9782 58.2411 61.4687 56.9615 61.4687ZM34.2676 84.742C34.2403 84.7695 34.2131 84.797 34.1723 84.797L29.884 84.8797C29.8159 84.8797 29.707 84.7695 29.707 84.5905L29.5028 66.7981C29.5028 66.7017 29.53 66.6191 29.5845 66.5502C29.6117 66.5227 29.6389 66.4951 29.6798 66.4951L33.9681 66.4125C34.0361 66.4125 34.145 66.5227 34.145 66.7017L34.3492 84.4941C34.3492 84.5905 34.322 84.6869 34.2676 84.742ZM59.725 80.3352C59.725 81.8776 58.4862 83.1307 56.9615 83.1307H44.8045C43.6746 83.1307 42.5583 83.0343 41.51 82.8553C39.7402 82.5386 37.5893 82.6625 36.3777 82.7727L36.2007 67.7345C38.5967 66.8532 40.312 64.5259 41.0608 61.1244C41.1288 60.8076 41.2513 60.6975 42.1907 60.1604C42.708 59.8574 43.3478 59.4856 44.1374 58.921C45.3899 58.0259 47.0644 55.8638 47.9765 50.672C48.1535 49.6667 49.0111 48.9369 50.0185 48.9369C50.5903 48.9369 51.1212 49.171 51.516 49.5841C51.9108 50.011 52.115 50.5619 52.0878 51.1403C52.0197 52.5036 51.8836 53.8532 51.6794 55.1477C51.094 58.797 47.8403 61.7028 47.8131 61.7303C47.5272 61.992 47.4047 62.3775 47.4864 62.7494V68.7398C47.4864 71.6593 45.7575 74.2759 43.0892 75.3913L42.0273 75.8458C41.51 76.0661 41.265 76.672 41.4692 77.1953C41.6325 77.5947 42.0137 77.8288 42.4085 77.8288C42.5446 77.8288 42.6672 77.8013 42.8033 77.7462L43.8652 77.2917C47.2958 75.8458 49.5148 72.4856 49.5148 68.7261V63.5206H56.9478C57.683 63.5206 58.3773 63.8098 58.8946 64.3331C59.4119 64.8564 59.6978 65.5587 59.6978 66.3023V80.3352H59.725Z" fill="#254F9D"/>
</svg>
