<svg width="110" height="110" viewBox="0 0 110 110" fill="none" xmlns="http://www.w3.org/2000/svg">
<circle cx="55" cy="55" r="55" fill="#F8F8F8"/>
<path d="M29.7358 79.1673C27.8177 79.1639 25.9791 78.4045 24.6229 77.0555C23.2666 75.7065 22.5033 73.8779 22.5 71.9703V69.9888C22.5009 69.6543 22.6349 69.3336 22.8728 69.097C23.1106 68.8605 23.433 68.7272 23.7695 68.7263H26.918V36.0231C26.9199 34.6475 27.4702 33.3287 28.4483 32.3559C29.4264 31.3832 30.7524 30.8359 32.1356 30.834H77.8644C79.2476 30.8357 80.5737 31.3829 81.5518 32.3555C82.53 33.3281 83.0805 34.6468 83.0826 36.0225V60.3294C83.0817 60.664 82.9477 60.9846 82.7098 61.2212C82.4719 61.4578 82.1495 61.5911 81.8131 61.592C81.4767 61.5911 81.1543 61.4578 80.9164 61.2212C80.6786 60.9846 80.5445 60.664 80.5437 60.3294V36.0225C80.5411 35.3167 80.258 34.6405 79.756 34.1415C79.2541 33.6426 78.5741 33.3613 77.8644 33.3591H32.1356C31.4261 33.3615 30.7463 33.6428 30.2446 34.1418C29.7429 34.6408 29.46 35.3168 29.4576 36.0225V68.7257H49.4399C49.7763 68.7265 50.0987 68.8598 50.3366 69.0964C50.5745 69.333 50.7085 69.6536 50.7093 69.9882C50.7105 70.5536 50.9369 71.0956 51.3389 71.4954C51.741 71.8952 52.2858 72.1203 52.8543 72.1215H57.1073C57.6758 72.1203 58.2207 71.8952 58.6227 71.4954C59.0247 71.0956 59.2511 70.5536 59.2523 69.9882C59.2533 69.6537 59.3874 69.3331 59.6253 69.0966C59.8631 68.86 60.1854 68.7267 60.5217 68.7257H86.2305C86.5671 68.7265 86.8896 68.8599 87.1275 69.0966C87.3654 69.3334 87.4993 69.6542 87.5 69.9888V71.9703C87.4964 73.8779 86.7328 75.7064 85.3765 77.0554C84.0202 78.4043 82.1817 79.1637 80.2635 79.1673H29.7358ZM25.0395 71.9703C25.0409 73.2087 25.5361 74.396 26.4165 75.2719C27.2969 76.1477 28.4906 76.6405 29.7358 76.6422H80.2642C81.5096 76.6409 82.7037 76.1482 83.5844 75.2723C84.465 74.3965 84.9604 73.2089 84.9617 71.9703V71.2514H61.6151C61.3372 72.2279 60.7469 73.0877 59.9336 73.7006C59.1203 74.3135 58.1283 74.646 57.1079 74.6479H52.855C51.8345 74.6464 50.8424 74.3139 50.029 73.701C49.2157 73.0881 48.6255 72.228 48.3479 71.2514H25.0389L25.0395 71.9703ZM80.3916 65.2665C80.3915 65.1006 80.4243 64.9363 80.488 64.783C80.5518 64.6297 80.6453 64.4904 80.7631 64.3731C80.881 64.2557 81.021 64.1626 81.175 64.099C81.3291 64.0355 81.4943 64.0027 81.6611 64.0026C81.8279 64.0027 81.993 64.0355 82.1471 64.099C82.3011 64.1626 82.4411 64.2557 82.5589 64.3731C82.6768 64.4904 82.7703 64.6297 82.8341 64.783C82.8978 64.9363 82.9306 65.1006 82.9305 65.2665C82.9303 65.6012 82.7965 65.9223 82.5585 66.159C82.3205 66.3957 81.9977 66.5288 81.6611 66.529C81.3244 66.529 81.0015 66.396 80.7634 66.1592C80.5254 65.9224 80.3916 65.6013 80.3916 65.2665ZM33.8237 65.9472C33.4873 65.9462 33.165 65.8128 32.9271 65.5762C32.6893 65.3397 32.5552 65.0192 32.5542 64.6846V37.488C32.5552 37.1535 32.6893 36.8329 32.9271 36.5964C33.165 36.3598 33.4873 36.2265 33.8237 36.2255H76.6073C76.7742 36.2248 76.9396 36.257 77.0939 36.3202C77.2482 36.3834 77.3885 36.4764 77.5065 36.5937C77.6245 36.7111 77.7179 36.8506 77.7815 37.0041C77.8451 37.1575 77.8774 37.322 77.8768 37.488V64.6846C77.8759 65.0192 77.7419 65.3399 77.504 65.5764C77.2661 65.813 76.9437 65.9463 76.6073 65.9472H33.8237ZM70.7937 48.2833V63.4221H75.3378V38.7506H35.0931V63.4092H39.7146V58.3972C39.7155 58.0626 39.8495 57.7419 40.0874 57.5053C40.3253 57.2688 40.6476 57.1355 40.9841 57.1346C41.3205 57.1355 41.6429 57.2688 41.8807 57.5053C42.1186 57.7419 42.2527 58.0626 42.2535 58.3972V63.4092H46.8496V62.1874C46.8505 61.8528 46.9845 61.5321 47.2224 61.2956C47.4603 61.059 47.7827 60.9257 48.1191 60.9248C48.4555 60.9257 48.7779 61.059 49.0158 61.2956C49.2537 61.5321 49.3877 61.8528 49.3886 62.1874V63.4118H53.9841V54.8785C53.9854 54.544 54.1196 54.2237 54.3574 53.9872C54.5951 53.7507 54.9173 53.6173 55.2535 53.6159C55.5899 53.6169 55.9121 53.7503 56.15 53.9868C56.3878 54.2234 56.5219 54.5439 56.523 54.8785V63.4118H61.1185V57.794C61.1195 57.4595 61.2535 57.1389 61.4914 56.9024C61.7292 56.6658 62.0516 56.5325 62.3879 56.5315C62.7245 56.5323 63.0469 56.6656 63.285 56.9021C63.5231 57.1387 63.6574 57.4593 63.6586 57.794V63.4118H68.2535V48.2846C68.2549 47.9499 68.3892 47.6294 68.6273 47.3929C68.8653 47.1564 69.1877 47.023 69.5242 47.022C69.8605 47.0229 70.1829 47.1559 70.421 47.3922C70.659 47.6285 70.7934 47.9488 70.795 48.2833H70.7937ZM46.9511 57.4378C46.9512 57.103 47.085 56.782 47.3231 56.5452C47.5611 56.3085 47.8839 56.1754 48.2205 56.1753C48.5571 56.1754 48.8799 56.3085 49.1179 56.5452C49.356 56.782 49.4898 57.103 49.49 57.4378C49.4898 57.7726 49.356 58.0936 49.1179 58.3304C48.8799 58.5671 48.5571 58.7002 48.2205 58.7003C47.8839 58.7002 47.5611 58.5671 47.3231 58.3304C47.085 58.0936 46.9512 57.7726 46.9511 57.4378ZM39.7016 53.2358C39.7018 52.901 39.8356 52.58 40.0736 52.3432C40.3116 52.1065 40.6344 51.9734 40.971 51.9733C41.1378 51.9732 41.3029 52.0058 41.457 52.0692C41.611 52.1326 41.751 52.2256 41.8689 52.3429C41.9868 52.4601 42.0803 52.5993 42.1441 52.7526C42.2078 52.9058 42.2406 53.07 42.2405 53.2358C42.2406 53.4016 42.2078 53.5658 42.1441 53.7191C42.0803 53.8723 41.9868 54.0115 41.8689 54.1287C41.751 54.246 41.611 54.339 41.457 54.4024C41.3029 54.4658 41.1378 54.4984 40.971 54.4983C40.8041 54.4983 40.6389 54.4655 40.4847 54.4018C40.3306 54.3382 40.1906 54.245 40.0727 54.1275C39.9548 54.01 39.8613 53.8705 39.7976 53.7171C39.734 53.5636 39.7013 53.3992 39.7016 53.2332V53.2358ZM61.2459 52.7309C61.246 52.3961 61.3798 52.0751 61.6179 51.8384C61.8559 51.6016 62.1787 51.4686 62.5153 51.4684C62.8519 51.4686 63.1747 51.6016 63.4127 51.8384C63.6508 52.0751 63.7846 52.3961 63.7848 52.7309C63.7848 53.0658 63.651 53.3869 63.4129 53.6237C63.1749 53.8605 62.852 53.9935 62.5153 53.9935C62.3485 53.9933 62.1833 53.9604 62.0292 53.8968C61.8751 53.8331 61.7352 53.7398 61.6174 53.6223C61.4995 53.5049 61.4061 53.3654 61.3425 53.212C61.2789 53.0586 61.2462 52.8943 61.2465 52.7283L61.2459 52.7309ZM54.1745 49.6124C54.1744 49.4466 54.2072 49.2824 54.271 49.1291C54.3347 48.9759 54.4282 48.8367 54.5461 48.7194C54.664 48.6022 54.804 48.5092 54.9581 48.4458C55.1121 48.3824 55.2772 48.3498 55.4439 48.3499C55.7806 48.3499 56.1035 48.4829 56.3416 48.7196C56.5796 48.9564 56.7134 49.2775 56.7134 49.6124C56.713 49.9471 56.5792 50.2679 56.3412 50.5045C56.1032 50.7411 55.7805 50.8741 55.4439 50.8743C55.2771 50.8742 55.112 50.8414 54.9579 50.7778C54.8038 50.7142 54.6639 50.621 54.5461 50.5036C54.4282 50.3862 54.3348 50.2468 54.2712 50.0934C54.2075 49.9401 54.1749 49.7757 54.1752 49.6098L54.1745 49.6124ZM68.2411 43.8162C68.2411 43.4814 68.3749 43.1602 68.6129 42.9235C68.851 42.6867 69.1739 42.5537 69.5106 42.5537C69.8472 42.5539 70.17 42.6869 70.4081 42.9237C70.6461 43.1604 70.7799 43.4814 70.78 43.8162C70.7799 44.151 70.6461 44.472 70.4081 44.7088C70.17 44.9455 69.8472 45.0786 69.5106 45.0788C69.3437 45.0788 69.1785 45.046 69.0243 44.9824C68.8702 44.9188 68.7301 44.8255 68.6123 44.708C68.4944 44.5905 68.401 44.451 68.3375 44.2975C68.2739 44.1441 68.2414 43.9796 68.2418 43.8136L68.2411 43.8162Z" fill="#254F9D"/>
</svg>
