<svg width="44" height="44" fill="none" xmlns="http://www.w3.org/2000/svg" viewBox="0 0 44 44"><path fill-rule="evenodd" clip-rule="evenodd" d="M5.658 18.27a.097.097 0 0 1-.057.017.105.105 0 0 1-.101-.104c0-.018.003-.033.009-.046l.006-.007C8.369 11.577 14.876 7 22.442 7c7.567 0 14.075 4.58 16.93 11.14l.002.005a.106.106 0 0 1-.025.118.103.103 0 0 1-.118.015l-.012-.005c-1.315-.778-3.143-1.258-5.17-1.258-2.338 0-4.417.642-5.737 1.64l-.007.003a.108.108 0 0 1-.063.023.12.12 0 0 1-.064-.021l-.006-.006c-1.32-.996-3.4-1.64-5.74-1.64-2.339 0-4.417.643-5.738 1.64l-.006.005a.11.11 0 0 1-.064.023.113.113 0 0 1-.058-.02l-.011-.007c-1.318-.996-3.4-1.64-5.741-1.64-2.016 0-3.834.475-5.147 1.246l-.009.009Z" fill="#E31B23"/><path fill-rule="evenodd" clip-rule="evenodd" d="M23.395 18.412v-.018a.088.088 0 0 0-.08-.087h-.004a7.716 7.716 0 0 0-1.678-.017l-.008.001a.086.086 0 0 0-.076.089l-.003.004.003 15.19c0 .416-.165.814-.457 1.108-.293.294-.689.46-1.102.46-.322 0-.636-.101-.899-.288a1.57 1.57 0 0 1-.57-.757l-.002-.003a.931.931 0 0 0-.876-.635.917.917 0 0 0-.735.367.93.93 0 0 0-.153.812l.003.008a3.43 3.43 0 0 0 1.238 1.702c.58.423 1.278.65 1.994.652a3.398 3.398 0 0 0 2.406-1.005 3.442 3.442 0 0 0 .998-2.421V18.412h.001Z" fill="#E31B23"/></svg>