<svg width="44" height="44" fill="none" xmlns="http://www.w3.org/2000/svg" viewBox="0 0 44 44"><path d="M33.145 15.37c-1.366-.21-2.725-.535-4.096-.612-6.542-.375-13.086-.683-19.631-1.015-.303-.016-.606.003-.908-.019-1.674-.113-1.85-.498-1.057-1.959 1.12-2.07 2.492-3.119 5.092-2.66 7.937 1.402 15.935 2.454 23.878 3.82 3.148.541 3.245 1.138 1.187 3.642-5.803 7.062-12.148 13.564-19.277 19.246-.905.723-1.883 1.393-2.918 1.898-1.356.66-2.098.181-1.995-1.354.154-2.242.49-4.475.79-6.708.454-3.4.947-6.795 1.417-10.191.22-1.609 3.09-3.833 4.673-3.485.273.058.609.84.56 1.246-.435 3.608-.953 7.207-1.437 10.809-.058.433-.076.873.084 1.44 5.201-3.923 9.366-8.854 13.807-13.498-.057-.2-.115-.4-.17-.6Z" fill="#36255E"/></svg>