<svg width="45" height="44" fill="none" xmlns="http://www.w3.org/2000/svg" viewBox="0 0 45 44"><rect x="1" y=".5" width="43" height="43" rx="6.5" stroke="#F1F2F2"/><path d="M7.5 21.219v3.617c1.93-.043 3.85-.06 5.75-.036 3.639-1.537 7.051-2.929 10.855-3.492l.065-.089H7.501Z" fill="#EFF4F9"/><path d="M20.837 23.657c.509-.317.658-.423 1.298-.615.102-.03.53-.3.605-.342.112-.062.24-.365.36-.485.304-.312.534-.504.896-.785a.835.835 0 0 0 .108-.122c-3.803.563-7.215 1.954-10.855 3.492.983.013 1.959.038 2.928.072 1.996-.715 4.117-.88 4.66-1.215M7.5 27.142c2.027-.758 3.917-1.568 5.75-2.341a163.2 163.2 0 0 0-5.75.036v2.306Z" fill="#DEEAF3"/><path d="M12.258 29.644c-.071-2.711 1.858-4.035 3.918-4.773-.969-.033-1.943-.058-2.928-.07-1.832.773-3.721 1.582-5.748 2.342v5.038c1.822.264 3.55.355 5.178.292a7.832 7.832 0 0 1-.429-1.614 3.064 3.064 0 0 1-.023-.902c.016-.13.031-.253.031-.313" fill="#CEE1EE"/><path d="M15.037 35.55c-.175-.171-.38-.304-.558-.464-.704-.636-1.146-1.207-1.621-2.193a6.455 6.455 0 0 1-.18-.421A28.392 28.392 0 0 1 7.5 32.18v7.153c2.618-.2 5.503-.56 8.29-1.02.02-.18.03-.336.037-.362 0-.01.04-.919.011-.95-.267-.45-.451-1.11-.8-1.453m16.308-5.334a12.1 12.1 0 0 1-.416 1.74c0 .001-.268.702-.375.927-.163.348-.256.832-.404 1.283a2.92 2.92 0 0 1-.13.318c.695-.26 1.364-.51 1.53-.55V29.88c-.095.13-.196.28-.204.335m-5.116 4.066c-.146-.245-.257-.714-.459-.74-.194.148-.647.3-1.092.413 0 0-.168.13-.794.22l-.497.068c-.24.033-.515.104-.77.106a6.91 6.91 0 0 0-.341.013c-.053.246-.008.451-.275.523-.36.094-1.081-.196-1.805.148a1.3 1.3 0 0 0-.28.397c-.26.588-.299.651-.52.94a21.93 21.93 0 0 1-.703.746 1.86 1.86 0 0 0-.47.765c3.517-.67 6.674-1.481 8.663-2.295-.179-.412-.35-.78-.365-.797-.132-.17-.147-.261-.292-.507m1.53-1.854c.04.436.045.69.187 1.016.042.097.197 1.218.32 1.668.116-.033.273-.085.503-.168.023-.527.047-2.078.065-2.253.003-.027.01-.113.01-.14a1.95 1.95 0 0 0-.023-.23c-.33.071-.7.1-1.063.107" fill="#BBD6E9"/><path d="M34.658 8.774c-.632.786-1.961 1.187-2.68 1.69-.187.13-.337.301-.602.472-.08.049-.345.213-.523.294-.019.008-.107.083-.129.047-.042-.057.247-.385.277-.421.732-.942 1.4-1.861 1.544-3.284.027-.323.045-.588.027-.818.062 0 .14.003.217.007.897.04 2.09.128 2.212 1.02.056.421-.16.767-.344.994m.01 1.062c-.258.642-1.144 1.173-1.88 1.425-.205.068-.646.324-.781.229-.053-.04.229-.276.294-.328.638-.513 1.473-.901 2.11-1.385.155-.123.291-.229.321-.26-.006.065-.006.18-.065.319m-5.83 22.855c-.018.174-.043 1.725-.067 2.253-.229.082-.385.132-.502.168-.122-.45-.279-1.572-.32-1.668-.142-.326-.148-.581-.188-1.017a5.642 5.642 0 0 0 1.063-.105c.014.106.026.202.024.228l-.011.14m-10.609 5.19c.08-.248.215-.51.47-.765.067-.067.636-.656.702-.745.223-.29.26-.352.52-.941a1.3 1.3 0 0 1 .28-.398c.725-.343 1.446-.053 1.805-.147.267-.072.223-.277.275-.523.108-.007.22-.011.34-.013.257-.002.532-.072.772-.106l.497-.069c.626-.09.794-.218.794-.218.445-.115.897-.267 1.093-.414.201.026.311.495.457.74.146.246.161.337.294.508.013.016.186.385.364.797-1.99.814-5.147 1.624-8.663 2.295m7.1-25.353c-.045-.038-.23-.068-.184-.216.017-.046.12-.08.15-.082.308-.058.814.088.646.38 0 0-.266.182-.28.183 0 0-.123-.05-.148-.065-.074-.048-.137-.164-.184-.2m-7.712-3.055a1.196 1.196 0 0 1-.18-.18c-.198-.18-.355-.507-.44-.83-.164-.63-.336-.503.051-.89.094-.102.247-.202.422-.296.108-.054.26-.13.361-.157.03-.01.044-.015.096-.025.006.066.014.165.016.28.064 1.036.233 1.838.664 2.603a9.223 9.223 0 0 1-.989-.505m-.492-2.683c.186-.231.613-.481.781-.586a.612.612 0 0 0 .057-.04c-.023.197-.036.378-.05.462-.094.035-.257.09-.424.152-.1.036-.231.116-.38.158-.114.028-.032-.086.017-.147m17.925-2.885c.163.389.793 1.739.717 2.122-.03.15-.095.537-.15.631-.018.037-.126.225-.239.213-.235-.019-.253-.726-.327-.945-.102-.286-.289-.503-.52-.763-.072-.08-.244-.207-.326-.276-.519-.459-1.167-1.402-1.915-1.577-.004 0-.01-.003-.015.007-.002.008.005.029.018.043.029.027.204.16.563.531.205.212.484.484.65.721.198.282.69.723.86.973.116.174.28.456.309.717.019.17.019.222-.08.244-.064.019-.488-.143-1.137-.192-.059 0-.604-.05-.663-.05-.822-.092-.771-.056-1.47-.277-.466-.147-1.036-.35-1.545-.454-.061-.012-.735-.244-.775-.194-.032.034.194.173.241.194.2.089.773.301.993.405.28.138.53.246.78.344.386.152.752.29 1.216.397-.043.559-.152 1.493-.374 1.894a9.166 9.166 0 0 1-1.707 2.192c-.137.13-.27.32-.457.49-.16.147-.369.387-.521.423-.096.02-.227-.008-.339.014-.153.034-.274.119-.408.1-.13-.024-.175-.14-.29-.197a2.403 2.403 0 0 0-.59-.147c-.142-.017-.2 0-.176-.13 0-.006.01-.013.015-.096.032-.425.038-.822.034-1.123-.019-1.23-.79-2.206-1.25-3.036-.112-.204-.35-.666-.535-.88-.206-.23-.083.168-.05.297.04.146.168.314.21.438.032.07.059.173.083.243.244.725.864 1.704.956 2.58.006.056.018.126.015.165-.056.573-.14 1.295-.681 1.412a.477.477 0 0 1-.114.018c-.852-.005-1.589-1.174-1.967-1.786a8.186 8.186 0 0 1-.91-1.985c-.114-.367-.163-1.442-.198-1.831-.007-.064-.013-.466-.015-.52-.002-.022-.01-.052-.025-.052-.045 0-.113.364-.136.46-.077.309-.1.985-.1 1.261 0 .768.228 1.537.54 2.21.186.407.596 1.22.825 1.61.069.114.24.336.229.422-.025.197-.401.193-.52.228-.59.087-1.376.011-2.068-.18-.666-.185-1.286-.403-1.836-.747-.06-.046-.125-.084-.164-.143-.733-.578-1.175-1.901-1.332-2.911a4.462 4.462 0 0 1-.036-.427c.068-.017.125-.033.184-.047.776-.196 1.819-.873 2.401-1.236.2-.12.395-.249.574-.398.022-.02.028-.029.023-.036-.004-.004-.02-.002-.041.006-.841.264-1.963.958-2.747 1.16a5.184 5.184 0 0 1-.42.098c0-.076.006-.228.006-.26.002-.093-.003-.176-.003-.254.089-.062.18-.155.304-.25.672-.53 1.12-2.048 1.58-2.797.005-.006.021-.03.015-.036-.006-.006-.018.003-.036.012-.81.38-1.193 2.05-1.916 2.527-.589.39-1.329.688-1.726 1.238-.046.063-.145.305-.226.327-.033.007-.15.113-.212.078-.216-.13-.409-.544-.556-.776-.213-.34-.156-1.33-.111-1.696.068-.567.534-1.299.807-1.765.007-.01.01-.015.007-.019-.004-.005-.012.001-.022.005-.11.043-.374.284-.42.332-.38.435-.87 1.16-.908 1.762-.04.568.115 1.83.485 2.203.066.08.132.149.214.21.452.405.663 1.01.894 1.595.073.194.151.344.278.52.413.62 1.197.954 1.9 1.304.666.33 1.448.671 2.196.908.472.15 1.095.303 1.66.407.213.042.402.082.51.172.075.064.123.332.167.465.054.17.118.336.164.465.125.346.2.68.33.932.183.336.615.481 1.013.63.052.008.297.082.582.066.184-.007.207.213.197.316-.008.148.013.247.01.394-.008.38.025.381-.024.708-.01.075-.098.304-.158.491-.012.029-.03.059-.035.085-.038.184-.06.523-.12.71-.055.193-.293.787-.353 1.69-.025.366-.159.713-.325 1.063-.077.165-.063.255-.124.44-.062.194-.1.343-.163.445-.026.04-.134.198-.2.252a7.83 7.83 0 0 0-.898.785c-.12.12-.247.423-.36.485-.075.041-.503.312-.605.343-.64.192-.788.298-1.298.614-1.1.683-8.72.648-8.578 5.987 0 .06-.015.185-.031.313-.03.262-.038.549.023.902.12.758.33 1.454.61 2.035.474.986.916 1.557 1.62 2.192.177.16.382.294.558.464.349.343.533 1.004.8 1.453.029.03-.011.94-.011.95-.006.025-.017.181-.037.362-2.787.461-5.67.82-8.29 1.02v2.036h24.052v-7.438c-.167.04-.838.289-1.532.55l.043-.096c.047-.118.08-.204.087-.224.15-.45.242-.934.405-1.282.108-.225.374-.926.374-.927.236-.753.335-1.244.418-1.74.014-.108.375-.557.375-.557.108-.14.193-.329.313-.5 0 0 .582-1.212.567-2.259-.006-.193.054-1.06.047-1.814.006-.042.012-.08.012-.13 0-.144-.014-.275-.03-.408 0-.012 0-.025-.003-.036-.003-.028-.002-.06-.006-.089-.03-.194.013-.574.004-.747-.013-.227-.093-.202-.11-.436-.012-.16-.063-.282-.104-.43-.029-.11-.09-.209-.142-.305a1.289 1.289 0 0 1-.016-.13c.028-.81-.511-1.777-.525-1.81-.256-.59-.227-.612-.185-1.336-.03-.886-.175-1.366-.265-1.59-.036-.021-.31-.61-.4-.802a.367.367 0 0 1-.024-.245c.06-.253.5-.326.676-.447.114-.075.241-.27.294-.41a.133.133 0 0 0 .007-.045v-.27c0-.02-.014-.037-.017-.056-.008-.041.005-.103.001-.149 0-.013 0-.027.005-.04.154-.476.314-.899-.14-1.136-.188-.1-.44-.144-.428-.331.006-.143.19-.196.297-.268.288-.187.484-.361.647-.63.069-.116.069-.426.152-.507.058-.057.217-.106.324-.163.346-.177.684-.293.992-.472.833-.475 1.733-1.388 2.373-2.047.316-.324.824-.908 1.057-1.33.186-.34.352-1.173.374-1.624.007-.107.032-.466.031-.483 0-.019-.001-.038-.01-.038-.008-.001-.017.007-.02.017-.221.54-.434 1.524-.78 1.981-.258.335-1.032 1.2-1.413 1.446l-.053.031c.012-.03.03-.07.038-.097a.592.592 0 0 0 .032-.132c.089-.545.342-.931.342-1.854 0-.09.167-.25.21-.324.293-.498.326-1.176.244-1.686-.054-.336-.546-1.205-.729-1.412-.015-.02-.3-.365-.34-.323-.019.015.012.085.027.114" fill="#822B2F"/><path d="M25.883 17.085c.119-.085.043-.71.043-.727 0-.015-.084.086-.12.143-.039.058-.003.312-.003.32a.6.6 0 0 0 .004.047c.004.008-.004.02-.015.023-.01.002-.048.053-.13.117 0 0-.096.31.22.076m5.693-1.419c-.145-.134-.088.05-.193.098-.152.085-.285.041-.52 0-.372-.327-.89.217-1.364-.04-.042-.064.027-.113.064-.16.42-.035.137.094.58.002 0 0 .193-.023.176-.075-.015-.05-.332.084-.689-.088-.378-.042-.13.321-.404.41-.105.033-.019.206.07.16.087-.043.18-.17.535-.081.188.199.28-.247.418.165.029.086.082-.008.082-.008-.011-.09.027-.12.066-.167.046.05.08.14.169.142l.064-.205c.094.118.267.179.438.178.2-.098.528-.052.509-.331m-2.05-2.138c.091.092.271.087.366.024.102-.07.15.008.258-.01.11-.017-.212-.246-.234-.15-.015.083-.073.024-.15.058-.106.016-.154-.109-.227-.154-.003-.06.031-.1.073-.14l.042-.036c.087-.08.099-.14.026-.242-.08.1-.148.078-.258.078-.133.005-.19.057-.193.195.04.071.157.105.124.19-.057.122-.23.078-.303.033-.223.054-.458.086-.58.313.083.031.127.024.189-.037l.053-.05c.019-.018.037-.028.06-.028.275-.097.554.185.756-.044m-2.471.258c-.09-.014-.13-.048-.207-.045-.088.004.153.224.18.234a2.1 2.1 0 0 0 .325.057c.19-.024.229-.194.304-.29-.118.084-.398.075-.603.044m.237-.465c-.146-.204-.403.013-.562.096.097.326.35-.111.562-.096m2.676.98c-.03.175-.084.325.023.489.058.038.327.265.732.188.422.054.175-.567.748-.428.165.04.051-.11.184-.2 0 0 .057-.056-.004-.073-.063-.017-.11-.03-.202.101-.346.007-.73-.326-.981.044.134.078.315-.162.46.02a.32.32 0 0 1-.289.354.753.753 0 0 1-.4-.077c-.244-.083-.103-.251-.12-.387.113-.21.359-.137.52-.26-.243-.053-.571-.024-.672.23m-3.078 1.692c.016-.008.036-.012.056-.018a.37.37 0 0 0-.105-.092l-.407-.184c-.002-.003-.004-.004-.004-.008a.38.38 0 0 1-.076-.05.39.39 0 0 0-.024-.076c-.011-.02-.026-.037-.04-.057l-.006-.028c-.005 0-.01 0-.012-.003l-.016-.023-.004-.074c.098.03.277.118.352.185l.055-.002c-.055-.128-.22-.19-.305-.296-.059-.076-.088-.17-.153-.243l-.005-.036a.56.56 0 0 1 .227.117l.054-.005a2.142 2.142 0 0 0-.246-.33c.011-.024.028-.044.032-.068.01-.09-.063-.284-.117-.366a1.72 1.72 0 0 0-.253.242l.005.01a.676.676 0 0 1-.013.379c.016.638.526.976.916 1.133.075.018.15.039.225.046.028 0 .057.008.085.014-.021-.028-.042-.052-.062-.082-.053-.024-.088-.06-.157-.084" fill="#fff"/><path d="m28.012 12.926-.163-.12c-.153-.109-.282-.145-.494-.193-.464-.061-.733.106-1.002.424l.052.03c.11-.174.222-.194.404-.275.105-.013.398-.085.481.052-.18.04-.479.083-.555.287a.61.61 0 0 1 .464-.09c.087.043.183.114.28.18.022.018.048.028.073.045-.016.006-.04.016-.046.025-.097.217.23.22.223.052a.38.38 0 0 0 .328-.033c.15-.129.019-.302-.045-.383m-2.522.264c-.017-.016-.014-.076-.03-.102-.109-.134-.248-.174-.382-.262-.105-.068-.2-.18-.318-.267-.315-.248-.67-.566-1.077-.664-.081-.017-.276-.026-.3 0-.067.084.115.488.133.564.017.063 0 .13.017.201.071.3.3.764.398 1.046.067.19.063.325.148.412.123.126.54.234.799.268.064.006.253.03.282.015.04-.017.165-.295.116-.364-.078-.112-.432.026-.6.017-.25-.01-.17-.12-.246-.348-.088-.258-.31-.44-.416-.715-.027-.075-.029-.184-.064-.298-.012-.03-.13-.196-.053-.247.043-.033.233.187.268.26.016.037.072.412.133.403.064-.012.05-.42.147-.367.04.022-.032.371.047.432.05.036.14-.017.17-.101.04-.027-.006-.14.048-.148.11.014.052.499.236.43.078-.027-.002-.229.064-.246.065-.02.146.284.15.315.002.02-.006.13 0 .132.126.087.108-.263.15-.285.014-.005.284.23.281.22.01.082-.192.156-.197.18-.045.136.145.27.182.265.087-.01.127-.244.18-.265.039-.02.08-.119.036-.166-.048-.215-.188-.205-.303-.315m-7.536 18.135c-.106-.047-.098.086-.196.117l-.062.013c-.117.031-.112.044-.048.207.22.116.325.004.395-.227 0 0 .018-.069-.09-.11m-.756.401c-.112.052-.118.136-.109.24l.005.075c.068.062.117.076.187.037l.037-.027.037-.024c.055-.045-.003-.007.105-.068.11-.062.057-.111-.064-.168-.057-.029-.131-.04-.198-.065m1.692-.235-.041.052-.044.049a1.19 1.19 0 0 1-.091.108l.132.116c.188-.096.284-.233.294-.424l-.018.002a.349.349 0 0 0-.232.098m2.412-.76c-.211.034-.391-.05-.522.154l.077.066c.188.105.353-.002.516-.064.024-.077 0-.101-.07-.156m-.744.605c-.04.073-.023.118.015.195l.04-.033c.104-.081.34.029.354-.23-.113-.034-.195-.095-.326-.054a.456.456 0 0 0-.083.123m-.04.422c-.123-.01-.262.067-.202.164.09.15.25.072.387.064l.021-.054c-.044-.026-.06-.03-.104-.055a.258.258 0 0 1-.101-.118m-.676-.838a.365.365 0 0 1-.223.2l-.068.036c-.086.042-.118.057-.115.12 0 .014.002.026.006.046l.048.03.041.029a.137.137 0 0 1 .114-.058h.072c.007 0 .013 0 .02.002l.059-.008c.068-.132.25-.154.236-.261a.25.25 0 0 0-.016-.063c-.02-.05-.123-.07-.175-.074m-4.559.759c.137.004.218-.261.367-.317.16-.044.303-.123.445-.192a.218.218 0 0 1 .203-.12c.12 0 .25.058.385.056a.42.42 0 0 0 .151-.03h.014c.117-.001.217-.013.297-.035l.049-.017-.022.049a.419.419 0 0 1-.194.212.228.228 0 0 1-.147.046c-.095 0-.205-.032-.285-.032-.095.131-.346.134-.332.306.002.021.007.046.013.068.022.044.062.061.117.061a.21.21 0 0 0 .066-.01c.155-.343.742.005.951-.433.133-.385.646-.664.793-.716.007-.005.007-.012.007-.02 0-.032-.072-.093-.08-.167a.102.102 0 0 1 .04-.088l.072-.055.012.005c.123.066.22.148.337.184a.733.733 0 0 0 .128.014c.173-.005.241-.093.24-.156-.004-.05-.047-.1-.159-.1l-.045.004c-.065-.022-.153-.025-.224-.047-.027-.011-.049-.005-.06-.043-.003-.02.007-.026.024-.043.087-.036.175-.06.267-.099.493-.193.232-.323.402-.472a.25.25 0 0 1 .167-.052c.076 0 .16.013.242.013.096-.003.187-.022.263-.118.033-.041.069-.084.063-.132a.13.13 0 0 0-.026-.076c-.014-.01-.026-.025-.04-.04l-.006-.01v-.01c.035-.222.108-.295.1-.457-.002-.053-.083-.073-.109-.157-.167.087-.179.138-.305.244.01.141.036.17.077.304l.009.03-.03-.002h-.024c-.038.004-.042.004-.083.043l.036.141-.039-.01a.379.379 0 0 0-.137-.022c-.178 0-.289.126-.39.25-.121.158-.22.314-.463.316h-.032c-.034.085-.077.122-.162.166l-.07.035c-.086.035-.18.082-.208.186l-.003.014h-.016c-.287.03-.187.255-.276.447l-.007.012-.012.002c-.034.001-.067.008-.091.011l-.125.092c-.206.043-.478.135-.725.139a.798.798 0 0 1-.25-.038c-.011.018-.036.062-.083.065a.059.059 0 0 1-.032-.009l-.054-.022a.254.254 0 0 0-.086-.027.178.178 0 0 0-.082.027c-.19.008-.17.14-.274.26-.063.068-.107.102-.155.103-.073-.003-.114-.07-.179-.135-.073-.063-.13-.091-.2-.091a.468.468 0 0 0-.106.015c-.11.183-.282.18-.384.305 0 .001-.038.079-.032.124.003.028.003.033.033.034a.322.322 0 0 0 .084-.02.708.708 0 0 1 .289-.13h.009l.009.006c.024.015.037.039.037.061-.002.08-.082.17-.082.244.052.043.095.058.13.058m1.4-4.156c-.181.005-.315.08-.31.207a.26.26 0 0 0 .028.099l.055-.028.005-.003a.353.353 0 0 0 .123-.017c.14-.184.532-.315.596-.41-.007-.037-.01-.082-.024-.108l-.001-.003c-.019-.054-.037-.068-.09-.071-.026.066-.207.337-.306.347a.158.158 0 0 1-.047-.012h-.03v-.001Zm-.201-.429c-.071.052-.112.098-.193.145l.002.005c.024.045.12.068.16.066h.001c.1-.01.238-.203.248-.255a.247.247 0 0 0-.084-.016c-.044 0-.08.015-.134.055" fill="#fff"/><path d="M14.617 30.571c0 .008.002.017 0 .02.043.04.073.068.117.066a.223.223 0 0 0 .089-.026c.012-.008.028-.018.044-.018.022 0 .038.01.059.021a.373.373 0 0 0 .226.072c.08 0 .154-.026.22-.037.073-.026.22-.031.407-.056l.106-.027a.408.408 0 0 0 .281-.133.407.407 0 0 1 .216-.058c.15-.001.292.055.435.07.18-.045.449-.203.436-.408a.337.337 0 0 0-.022-.089l-.006-.014.011-.01c.043-.046.08-.113.122-.164l.041-.052a.194.194 0 0 1 .144-.075c.02 0 .043.004.064.008.012.004.024.008.038.008.174.001.446-.338.612-.37.152-.03.165-.103.211-.192l.038-.041c.036-.078.104-.092.191-.096.027-.14.082-.168.218-.225.151-.073.212-.1.257-.253-.029-.104-.08-.322-.175-.31-.02 0-.038.007-.055.01-.032.078-.029.159-.044.235-.043.14-.095.22-.253.232-.276.248-.52.383-.755.652l-.01.01-.013-.004a.614.614 0 0 0-.082-.007c-.293 0-.527.347-.788.42l-.009.004-.008-.005c-.024-.017-.024-.038-.027-.064.003-.008 0-.015-.002-.023v-.02c0-.018-.001-.039-.005-.065.02-.06.06-.104.118-.12l.051-.03c.11-.044.14-.088.145-.198-.01-.017-.008-.02-.033-.02-.066-.003-.27.089-.811.424l-.012.008-.01-.008c-.04-.03-.044-.072-.067-.122a.135.135 0 0 0-.055-.055c-.067.022-.127.032-.164.07l-.01.01-.013-.005a.478.478 0 0 0-.182-.048c-.236-.008-.194.37-.494.386a.33.33 0 0 1-.109-.016c-.066-.03-.092-.078-.094-.124-.003-.071.034-.14.032-.179-.003-.023-.01-.04-.12-.04h-.051c-.04.003-.038.01-.083.032l-.09.046a.298.298 0 0 0-.138.17c-.112.108-.348.063-.334.25l.005.044c.02.04.052.049.106.049h.043c.044-.023.11-.078.18-.08.043 0 .09.024.105.067l.076.024.105-.011a.237.237 0 0 1 .18-.088c.124 0 .247.076.353.076.069-.003.131-.029.193-.128l.013-.02.019.015a.153.153 0 0 0 .091.033c.07.002.128-.087.178-.154a.17.17 0 0 1 .087-.072c.274.045.586-.03.838.186l.008.007.001.01v.006c0 .175-.282.197-.385.25l-.017.008-.012-.017c-.043-.067-.086-.083-.133-.083-.03 0-.062.01-.09.02l-.061.029c-.027.005-.051.01-.07.01-.039 0-.07-.013-.106-.042-.204.034-.19.129-.336.255a.394.394 0 0 1-.093.011c-.19.002-.273-.122-.46-.118-.039 0-.082.006-.121.01-.07.087-.148.117-.25.16l-.014.005c-.128.04-.251.046-.24.123m-.222.988c-.004-.076-.054-.199-.078-.28l-.268.175c-.032.125-.125.184.018.298l.053-.048c.026 0 .052.021.07.032.119-.016.208-.062.205-.178m-.273-.611.055.036c.08.06.145.071.232.008 0-.084-.036-.13-.104-.183l-.05-.039c-.095-.057-.12-.086-.094-.186-.15-.03-.182.028-.282.1a.28.28 0 0 1-.079.037c-.035.169-.087.252-.028.425l.187-.174c.053-.082.088-.073.163-.024m-.15-.777c.095.002.143.072.19.078.035-.05.072-.08.072-.074-.002-.026-.03-.018-.045-.063a.438.438 0 0 1-.035-.142c-.002-.029.187-.221-.042-.13-.027.01-.168.047-.168.047-.24.066-.252.14-.403.318l-.003.003c-.013.013-.017.023-.017.023 0 .005.01.023.054.04h.052c.024 0 .043 0 .06-.01l.026-.009s.247-.082.258-.08m.116-.907-.007.01-.015.002a.55.55 0 0 0-.305.146l-.09.085c.021.059.029.083.048.128l.002.003c.016.063.021.1.123.042.07-.04.061-.069.061-.069s.118-.085.222-.085c.037 0 .118-.033.118-.033.047-.051.057-.018.074-.097l.018-.08c.002-.028.055-.127.008-.127l-.129.008c-.054-.001-.1.016-.129.067m.249-.615-.03-.052c-.053-.08-.098-.112-.164-.113-.021 0-.281.293-.417.423h-.004a.543.543 0 0 0-.127.135.203.203 0 0 1-.054.035l-.065.027c-.08.047-.085.07-.092.136l.231-.045c.242-.22.622-.219.722-.546m2.713-.955c-.135.088-.209.332-.418.404l.138.103c.273-.06.594-.06.707-.324l.138-.183.017-.003c.004 0 .019-.003.036-.003 0 0 .004-.003.007-.003.035 0 .032.012.044.03l.038.01c.055-.026.043-.045.043-.074 0-.02-.005-.045-.013-.083v-.039a.37.37 0 0 0-.222-.08c-.138 0-.361.256-.385.428l-.002.017-.02.007a.111.111 0 0 1-.042.006c-.048.002.003-.063-.028-.078l-.005-.005-.003-.129h-.031Zm-.813-.883.011-.009c.135-.079.354-.125.36-.217a.207.207 0 0 0-.147-.053c-.121 0-.243.095-.239.218 0 .016.004.03.008.046l.007.015Zm-2.441 1.382a.212.212 0 0 1-.01.06c-.037.096-.081.196-.082.24.053-.019.216-.132.233-.184l.027-.059a.201.201 0 0 1 .14-.128h.013c.017.002.03.002.043.002a.409.409 0 0 0 .213-.071l.07-.049c.085-.062.165-.11.27-.111h.04l.005.006c.048.038.09.054.126.053.034 0 .07-.015.108-.049l.059-.063c.05-.057.092-.1.157-.1.04 0 .079.015.13.048a.598.598 0 0 0 .299-.222l.058-.105.016-.001c.008-.005.016-.005.027-.005.057-.002.07.058.072.089l.001.054c.006.052.011.094.06.12.02.008.035.01.05.01.033 0 .059-.015.086-.052.041-.046.047-.054.091-.089-.02-.02-.042-.041-.047-.08-.001-.032.017-.068.051-.102.042-.036.05-.062.05-.1a.122.122 0 0 0-.008-.04.687.687 0 0 0-.245-.05c-.072.002-.133.02-.167.076l-.007.008-.01.003c-.235.067-.4.351-.684.372l-.005.001-.01-.003a.612.612 0 0 0-.308-.089c-.143 0-.255.072-.363.159l-.129.108a.791.791 0 0 1-.138.099.463.463 0 0 1-.248.06c-.027 0-.053-.005-.075-.002h-.01c-.053.001-.074.014-.074.017v.003c-.017.019.107.047.124.163m.193-.562.098-.05c.203-.227.482-.286.725-.405l.014-.006.012.007c.047.023.085.03.118.025.097-.005.169-.076.274-.09a.192.192 0 0 1 .141.05.26.26 0 0 0 .107.009c.121-.012.198-.095.287-.204l.039-.054c.02-.026.05-.043.044-.087l-.001-.006c-.032 0-.111.056-.17.065a.065.065 0 0 1-.053-.017v-.001a.07.07 0 0 1-.022-.046c-.005-.063.049-.1.128-.137.154-.06.339-.164.316-.212 0-.009-.018-.02-.072-.012-.06.008-.136.06-.21.066-.035.004-.054.065-.087.057l-.052.02-.008-.002a.209.209 0 0 0-.076-.007c-.145.004-.113.156-.186.286l-.01.02-.02-.006-.043-.015h-.001c-.03.004-.066.005-.079.008-.5.366-.972-.099-1.35.626-.006.006-.007.012-.006.02 0 .029.075.083.143.096m2.087.316a.12.12 0 0 0-.053-.01.091.091 0 0 0-.062.017l-.008.007-.008.002.001.001-.017.01c-.013.008-.023.015-.048.019l-.011-.003a.095.095 0 0 1-.05-.04l-.205.2h-.01c-.111.013-.248.09-.383.095a.248.248 0 0 1-.17-.06.577.577 0 0 0-.119-.014c-.184 0-.279.153-.478.224.014.073.029.09.077.09.021.004.048-.004.084-.013l.087-.032.012.018a.142.142 0 0 1 .03.069c0 .05-.03.087-.068.132l-.05.047c-.047.053-.073.099-.071.153-.001.006.002.016.002.025a.09.09 0 0 0 .051.02c.033 0 .078-.043.123-.09l.063-.06a.092.092 0 0 1 .067-.04c.197-.035.303-.13.493-.195-.005-.021-.007-.043-.009-.063 0-.046.004-.084.03-.113.025-.028.066-.036.115-.038.026 0 .054.002.09.007l.125.017a.592.592 0 0 0 .124.01.254.254 0 0 0 .181-.061l.02-.014.02.017a.225.225 0 0 0 .145.05c.037 0 .075-.01.113-.026a.564.564 0 0 1 .284-.043c-.05-.08-.103-.113-.232-.117-.028.02-.051.031-.076.031-.068-.004-.081-.064-.106-.107-.021-.052-.047-.097-.1-.12m4.349 2.153c-.03.017-.063.05-.095.073-.056.038-.072.029-.136.019.015.108.041.17.166.182.072.013.121.006.197.03a.338.338 0 0 1 .095-.104c.02-.035.053-.07.047-.124-.084-.126-.165-.153-.274-.075m.452-1.268v-.003c-.029-.118-.056-.128-.164-.13l-.126.021c-.024 0-.199.109-.226.114l-.063.099a.423.423 0 0 0-.069.202c.003.028.01.055.028.086l.01.011-.01.02c-.058.07-.144.033-.19.1a.226.226 0 0 0-.005.039c.002.039.02.061.066.1l.078.062-.019.021c-.068.075-.164.074-.235.084-.052.02-.055.033-.055.047-.002.035.06.104.098.141a.33.33 0 0 1 .17-.06c.034 0 .07.006.102.024.173-.038.242-.09.236-.16-.001-.034-.017-.077-.058-.133-.046-.07-.098-.131-.102-.21-.005-.048.017-.099.068-.15.003-.035.027-.078.082-.078l.08-.058c.06-.017.304-.13.304-.188" fill="#fff"/><path d="m16.35 28.817-.022.015-.17-.197c-.032-.003-.063-.04-.093-.038-.176.002-.326.075-.4.208l-.01.022-.017-.012c-.023-.006-.04-.01-.055-.01-.064-.001-.119.052-.192.084l-.012.003-.01-.008a.191.191 0 0 0-.108-.036c-.066 0-.123.057-.183.123-.038.043-.069.061-.103.061a.301.301 0 0 1-.082-.014c.055.16.161.167.39.204.144-.024.354-.075.43-.188l.006-.007.01-.001c.008-.002.015-.002.023-.002.127 0 .252.095.364.092a.199.199 0 0 0 .139-.061l.01-.01h.009c.018.004.034.007.052.007a.478.478 0 0 0 .189-.058l.071-.045a.28.28 0 0 1 .126-.05c.05 0 .096.027.146.072a.417.417 0 0 0 .144.021.903.903 0 0 0 .351-.098l.058-.04c.061-.075.114-.152.158-.237l.005-.01.01-.002c.015-.002.027-.005.042-.005.089 0 .255-.044.347-.047.02 0 .04-.002.058-.006.205-.065.446-.303.49-.429 0 0-.133.012-.215.01-.08.002-.764.171-1.178.547a.393.393 0 0 1-.227.07c-.104.004-.203-.023-.3-.02a.363.363 0 0 0-.25.093m4.604.475-.08-.016c-.09-.02-.069-.016-.164.052-.014.037-.019.067-.014.09 0 .047.027.08.12.123l.012.005.004.01c0 .004.01.024.01.05.005.045-.012.112-.085.16.03.11.072.134.126.134.048.002.076-.026.143-.068.032-.027-.004-.043.03-.061.009-.054.03-.094.029-.128-.007-.155.046-.32-.13-.351m-2.413-1.454c.194-.1.53.017.509-.334-.249-.17-.518-.01-.624.19-.04.076 0 .139.063.168l.052-.024Zm-.418-.29c.205-.061.28-.35.216-.421-.166-.005-.177.014-.288.12l-.041.034c-.055.035-.048-.008-.098.061l-.028.087.028.055c.04.076.107.114.211.065m-.894-.552c.003.097.073.088.208.13.048.014.07.039.087.066a.779.779 0 0 1 .287-.297l-.006-.004a.258.258 0 0 0-.147-.044c-.134.004-.294.079-.428.101v.048m.19-.5v-.017c0-.022-.01-.038-.04-.06l-.045-.031c-.005-.004-.016-.01-.033-.024-.006-.001-.014-.001-.02-.005-.013 0-.02.005-.04.02l-.025.011-.01.006-.012-.006c-.017-.006-.035-.007-.05-.008-.109-.005-.309.337-.352.453.03.003.056.003.083.003.16-.002.434-.232.545-.341m.683.217.114.021c.093-.046.103-.128.1-.219l-.002-.055c.011-.057-.071-.122-.134-.095-.1.03-.167.14-.197.227l-.024.078-.014.052c.062-.013.088-.02.157-.009m3.273 3.27c-.012.075-.06.104-.11.124.06.04.119.074.162.08.053.005.075-.004.097-.105a.283.283 0 0 0 .003-.04c.007-.06.002-.122.01-.179a.234.234 0 0 1 .11-.173l-.087-.107c-.142.016-.186.051-.197.122a.31.31 0 0 0 .005.113l.003.075a.15.15 0 0 1 .007.071l-.003.013v.006m-.462.338-.03.033-.033.052c-.04.074-.044.121-.12.136.023.037.034.04.091.043h.018l.033-.004c.136-.058.295-.104.283-.218a.166.166 0 0 0-.013-.064.237.237 0 0 0-.102-.031c-.05 0-.086-.01-.127.053m-2.168-3.338c.073-.05.137-.096.133-.194-.082-.109-.188-.103-.285-.03a.567.567 0 0 0-.195.234l.137.072c.073-.026.138-.041.21-.082m.454.35c.015.144.057.253.237.28.044-.126.025-.1.15-.148l.082-.01a.49.49 0 0 0 .12-.044c.06-.046.09-.16.09-.23-.254-.107-.505-.063-.678.152m.136 1.012.083-.067c.091-.096.33-.02.36-.276-.193-.203-.469-.037-.522.144.117.092.014.142.079.2m1.18 2.279c-.157-.209-.393-.06-.475.083.008.098.039.162.158.167.076-.107.255-.03.317-.25m-.49-.452-.002-.003c0-.01-.01-.044-.022-.089-.079-.1-.23-.032-.359-.078-.063.04-.443.23-.425.493.004.045-.034.045-.005.09l.009.015-.01.01c-.075.111-.197.14-.312.18h-.01l-.008-.004a.413.413 0 0 0-.172-.048c-.124 0-.197.101-.266.195l-.031.048-.027.044c-.048.05-.077.076-.114.076-.067-.005-.032-.057-.102-.107-.029.011-.133.054-.127.115v.01l.062.037c.021.048.073.185.174.18.008.002.02 0 .041-.003a.258.258 0 0 0 .086.013c.149.005.162-.184.261-.298l.01-.008.01.004h.06c.31-.003.397-.207.727-.269l.083-.074c-.03-.1-.014-.144-.07-.206l-.005-.01.001-.01c.02-.12.157-.125.224-.156h.003a.19.19 0 0 0 .083-.066c0-.05.028-.085.07-.085h.02l.055-.001c.035.001.058.005.075.005h.013m.831-4.967s.002 0 .003-.002a.527.527 0 0 1 .133-.11l.01-.003c.023-.005.045-.015.075-.023.175-.048.258-.087.316-.27-.027-.046-.022-.046-.028-.043l-.01.001c-.007 0-.01-.004-.011-.001-.012-.002-.029-.002-.047-.002-.175.104-.435.252-.468.433 0 .006.006.008.006.008l.02.013m.844.999v-.001c.057-.1.056-.122.076-.232l-.003-.076a.183.183 0 0 0-.09-.041c-.012 0-.017.001-.023.008-.11.11-.2.268-.188.467.005.123.003.095.034.19l.062-.062c.01-.157.064-.119.132-.253m-1.27 2.262c.03-.036.008-.061.07-.1.057-.033.077-.072.142-.093a.903.903 0 0 0-.063-.05l-.04-.037c-.037-.024-.066-.046-.108-.046-.114.029-.178.093-.247.185-.043.05-.039.06-.049.08-.012.02-.027.032-.063.05.085.067.157.113.213.112.043 0 .087-.022.146-.101m-.525-.617.042.057.056.073c.093.092.09.036.209.042 0 0-.037-.075.01-.157.039-.064.062-.118.106-.174l-.034-.042c-.073-.11-.133-.15-.246-.096-.056.111-.203.132-.143.297m-.784-1.08c-.039.06-.005.103.05.126l.05-.021c.17-.073.467.009.454-.254-.22-.128-.461-.002-.554.148m.267-.646c.087-.052.157-.101.154-.208-.095-.114-.212-.11-.321-.032a.656.656 0 0 0-.224.256l.155.074c.083-.03.155-.047.237-.09m.74.504c.027-.078.014-.061.095-.09l.05-.007c.018-.005.062-.015.074-.026.04-.028.06-.094.06-.14-.16-.063-.319-.035-.428.093.008.088.033.153.148.17m1.468.582c.047-.035.07-.121.07-.176-.195-.081-.387-.047-.52.116.01.11.043.194.18.215.034-.098.02-.077.115-.113l.064-.01a.282.282 0 0 0 .09-.033m-1.318-.367c-.049.085-.175.106-.125.232l.035.046c.014.015.028.034.05.052.077.074.077.03.177.035 0 0-.031-.061.009-.12.034-.054.053-.094.091-.139l-.027-.033c-.063-.085-.114-.119-.21-.073m.622.713-.02-.163c.005-.088-.086-.086-.134-.068-.002.071-.015.082-.094.092l-.042.01c-.016.005-.032.005-.05.011-.042.024-.058.053-.066.1.115.105.284.061.406.018m-.116.522.04-.003c.05-.057.365.028.28-.166-.084-.106-.218-.03-.339-.02-.048.043-.036.147.018.19m2.047-3.497c-.027.04-.045.076-.09.082-.282.16-.398.202-.398.202.001.02-.04.13-.046.153l-.09.082a.313.313 0 0 0-.034.132c.002.025-.044-.002-.034.032v.01c-.006.082-.098.094-.132.128l-.106.063c-.07.06-.125.119-.125.119l.068.055s.276-.11.481-.172c.071-.007.1-.105.188-.157l.008-.005h.01c.034.017.024.029.031.037.005.01.009.023.013.039l.017.062.004.01-.004.007c.01.08.306.19.386.198a.747.747 0 0 0 .152.014c.202-.002.337-.104.42-.302a.365.365 0 0 0-.124-.022c-.04 0-.08.01-.127.033-.059.027-.101.06-.167.06a.23.23 0 0 1-.126-.038l-.026-.014.012-.026c.125-.25.183-.256.466-.328.15-.017.153-.138.156-.27a.37.37 0 0 0-.124-.023c-.212-.001-.325.226-.53.342a.063.063 0 0 1-.031.008c-.06-.005-.183-.034-.2-.13 0-.01 0-.02.003-.027.022-.066.128-.14.233-.23.108-.086.207-.189.202-.219v-.005c0-.01-.009-.022-.03-.032-.018-.007-.04-.012-.042-.014-.025-.002-.046-.005-.064-.005-.063 0-.106.04-.156.094l-.047.058h.003Z" fill="#fff"/><path d="m21.364 24.393.007-.006h.087c.01 0 0 0 .022-.005.03.005-.014.063.038.098.006.005.012.008.024.005.06.006.186-.121.293-.201a.129.129 0 0 1 .071-.026c.063 0 .095.05.114.062l.019.012-.008.023c-.054.17-.06.28-.265.347l-.07.073a.414.414 0 0 1-.047.173s-.069.057-.18.18c-.112.116-.223.264-.214.301l.001.008.009.001c.065.004.236-.1.385-.184l.003-.005h.006c.318-.049.24-.41.423-.601l.017-.02.326-.289a.117.117 0 0 1 .035-.066c.05-.044.1-.072.132-.145.004-.007.005-.016.004-.028-.001-.077.008-.234-.08-.379l-.005-.009.003-.012c.013-.046.057-.058.096-.058l.096-.055a.148.148 0 0 0 .132-.078c.044-.054.07-.063.065-.104-.003-.061-.047-.113-.21-.121h-.087a.283.283 0 0 1-.048.042.35.35 0 0 1-.123.136l-.005.004h-.01c-.008 0-.017-.002-.023 0-.063 0-.042.098-.068.107-.067.045-.067.025-.069.068a.185.185 0 0 1-.034.121l.071.166c-.013.035-.037.086-.096.102-.041 0-.215-.134-.232-.077-.081.252-.35.241-.57.268-.225.038-.354.032-.34.396v.003h.004c.196-.003.176-.1.303-.228m.72 5.798c-.067-.05-.17.04-.17.04-.196.113-.396.007-.355.325.189.091.273-.09.417-.154l.044.035c.058.041.102.03.163.008l-.01-.099s-.022-.109-.09-.155m-.79 1.025-.05.003c.04.096.073.137.192.143.083.01.1.003.148.058l.03-.02c.081-.062.095-.184.089-.27-.183-.068-.255.08-.409.087m-5.5.777c.05-.093.07-.11.187-.062.191-.103.086-.215.132-.334l-.082-.036c-.134.315-.568.099-.758.424a.735.735 0 0 0 .059.549l.14.042c.136-.17-.032-.369.075-.464.152.046.212-.052.246-.119m-1.352.034-.039.036c-.028.037-.061.063-.1.097.072.052.118.077.184.02.03-.022.064-.055.109-.053.072-.035.131-.035.096-.142-.113-.078-.18-.032-.25.042m1.842.216.053-.008.054.019c.067.048.045.078.034.11l.162-.009c.064-.035.076-.085.07-.143-.002-.025-.004-.045-.004-.063l-.01-.038.003-.031a1.006 1.006 0 0 1-.124-.043l-.089-.031a.69.69 0 0 0-.25-.051l-.038.218c.028.056.073.075.139.07m-.306.092c-.254.159-.176.352-.236.592.154.08.219.058.245-.096l.01-.074c.005-.018.015-.035.022-.052.027-.062.06-.07.112-.088-.02-.11-.035-.22-.153-.282m11.676-13.027c.01.009.015.014.024.02l.022.003h.024c.03-.01.013-.01.019-.015.001-.003.001-.01.01-.028 0-.02.003-.042.007-.067.006-.045.102-.162.102-.197 0-.005.007-.005-.007-.016a.288.288 0 0 0-.069-.052.379.379 0 0 0-.144.046c-.038.033-.04.168-.041.17v.005s-.006.012-.01.026v.003c.004.026.041.06.043.069.008.012.014.027.02.032m-1.996-.807c-.043.002-.064.023-.096.05-.036.034-.04.177-.041.18l-.008.03v.005c.002.028.042.064.043.073.006.015.016.027.02.033.01.011.016.02.025.025.014.004.015.004.024.004h.021c.03-.01.016-.014.019-.015.003-.006.003-.014.009-.032l.008-.072c.008-.047.102-.174.102-.21 0-.004-.048-.005-.059-.019-.005-.002-.058-.052-.067-.052m3.624 1.104c.01.052.007.184.016.22.002.004 0 .004.01.015.006.007.1.045.108.045.028-.012.037-.034.052-.064.017-.044-.015-.188-.015-.188v-.003l-.002-.033v-.003c-.008-.027-.091-.06-.097-.067a.156.156 0 0 0-.02-.031.09.09 0 0 0-.023-.016l-.014-.002-.004.002h-.008l-.005.003c-.02.013-.01.01-.01.016v.034c.005.02.01.045.011.071m-2.046-.747c.01.015.022.029.032.038.014.01.02.005.026.01h.033c.021-.008.017-.01.021-.012.003-.008 0-.008 0-.008.005-.013.001-.102.016-.213.027-.155.126-.376.127-.442-.001-.005 0-.01-.007-.018a.04.04 0 0 0-.037-.013c-.03 0-.049.012-.072.028a.258.258 0 0 0-.066.06.636.636 0 0 0-.09.162c-.014.032-.024.057-.037.08a.078.078 0 0 1-.01.025c-.003.002-.003.004-.003.008l-.001.002h-.002a.548.548 0 0 1-.01.065v.008c0 .047.053.129.059.15.006.028.019.057.022.071m-.976.104a.557.557 0 0 0 .048-.058c.003-.007.01-.086.018-.178.005-.089-.023-.352-.023-.373 0-.019-.018-.055-.05-.032-.031.021-.084.137-.09.145l-.017.08-.024.142c-.006.023-.05.146-.088.223-.037.076-.24.232-.218.258.02.028.1.042.145.02a2.47 2.47 0 0 0 .25-.171.3.3 0 0 0 .049-.056m-.36-1.112c.032-.032.06-.11.082-.131.007-.012.02-.07.024-.074.002-.002.005-.002.005-.006.01.004.022.004.037.004h.022c.03-.004.072-.042.102-.05.05-.017.052-.063.052-.098a2.43 2.43 0 0 1 .001-.137c0-.015-.026-.004-.01-.041.041-.085-.161-.003-.161-.003-.026.084-.049.13-.164.268-.06.072-.159.138-.2.186a.832.832 0 0 1-.053.063c-.011.017-.018.023-.019.042a.057.057 0 0 0 0 .024c.001.04.01.101.016.151.006.035.02.082.035.121.005.02.01.037.016.052.006.008.008.015.01.016 0 .003.004.007.006.009.002.002.008.01.028.01l.01-.002.008-.006c.019-.018.019-.035.019-.06v-.011l-.002-.003c-.002-.034.007-.06.02-.15a.5.5 0 0 1 .117-.174m.664 1.671a.427.427 0 0 1 .06-.112c.002-.012.027-.003.046.015.018.02.041.01.043-.022a1.61 1.61 0 0 1 .058-.19c.016-.04.07-.163.04-.22a.448.448 0 0 1-.05-.178c.004-.029.04-.11.04-.112 0-.003.006-.007.009-.01 0 0 .034-.028.07-.063.039-.03.026-.188.014-.245a1.42 1.42 0 0 1 .022-.303c.009-.045.086-.168.074-.199-.01-.03-.05-.035-.096-.006-.046.027-.183.178-.197.243-.012.065-.061.129-.052.134.006.002.032.125.04.13.009.008.009.021 0 .03-.008.008-.044-.042-.082.012a.622.622 0 0 0-.057.266c.003.042.043.199.052.243.012.044.071.242.056.303-.018.062-.242.154-.246.158h-.01c-.004 0-.01-.004-.015-.004a.345.345 0 0 0-.035.006.345.345 0 0 0-.068.095c-.01.027-.04.108-.047.137-.01.029-.066.123-.085.147 0 0-.162.498 0 .395.046-.031.153-.163.157-.166l.008-.002h.005l.031-.008c.017-.005.042-.072.052-.101.02-.028.056-.142.067-.182.014-.034.085-.16.095-.191m.706 1.747c.052-.025.038-.085.08-.147.04-.061.244-.015.245-.011 0 0 .07-.074.099-.133.036-.059.11-.27.155-.354.047-.085.053-.138.042-.148-.023-.036-.063-.023-.078.002-.017.026-.115.224-.146.255a2.696 2.696 0 0 1-.143.155c-.023.018-.034.01-.03-.017a.95.95 0 0 1 .049-.18c.03-.069.13-.25.163-.298a.641.641 0 0 0 .043-.239 8.291 8.291 0 0 1-.01-.328c.005-.024 0-.101.018-.11a.216.216 0 0 0 .038-.044l.02-.017s.005-.001.005-.005l-.01-.023c-.008-.01-.038-.036-.061-.02a.785.785 0 0 0-.103.171c-.016.047-.059.18-.073.235-.016.052-.06.215-.071.256a.64.64 0 0 1-.055.128c0 .004-.003.004-.005.004-.005.004-.037.038-.074.072-.038.04-.143.135-.18.168-.04.036-.184.05-.199.05a.364.364 0 0 1-.068-.012c-.02-.002.012-.083.1-.168a.6.6 0 0 0 .15-.244c-.004-.016 0-.086.003-.125.005-.035.055-.15.061-.17a1.337 1.337 0 0 0 0-.105.187.187 0 0 0-.029-.067c0-.005-.005-.01-.003-.019l.02-.063c.013-.03.1-.086.117-.112.015-.03-.01-.134-.01-.137a.096.096 0 0 0-.01-.024v-.015c.002-.005.013-.051.03-.105a1.45 1.45 0 0 0 .026-.192c0-.006-.066-.034-.108.035-.035.067-.149.263-.142.268.015.003.046.023.055.027.008.007 0 .031-.016.054-.019.024-.05.08-.076.125a.805.805 0 0 0-.04.191v.035a.019.019 0 0 1-.019.02c-.01 0 0 .047-.043.064-.043.016-.025.153-.04.202-.013.054-.08.151-.08.168 0 .017.005.053.006.06a.025.025 0 0 1-.007.023l-.154.156s-.126.144-.085.183c.038.033.199.047.223.055.021.008-.06.076-.184.15-.123.076-.208.161-.196.163.012.003.082.059.11.054.03-.005.128-.053.149-.06.02-.002.086-.073.12-.1.039-.024.176-.153.217-.191a.501.501 0 0 1 .19-.076c.009 0 .037.007.052.01.014.004.02.018.014.028a5.474 5.474 0 0 1-.242.313c-.126.158-.262.37-.262.374 0 .003-.05.083-.041.088.03.029.066 0 .1-.001.038-.003.152-.125.203-.12.053 0 .142-.135.19-.162m2.253-1.09c-.01-.055-.128-.038-.131-.008l-.021.084c-.004.01.002.152 0 .186-.007.042.004.2-.01.258-.011.058-.076.244-.088.283-.01.016-.015.038-.05.042-.035-.003-.04-.027-.047-.047l-.03-.153a1.612 1.612 0 0 1 .005-.328c.008-.08.018-.295.018-.324v-.005c0-.017-.021-.11-.038-.16a1.607 1.607 0 0 0-.109-.221s-.025-.21-.033-.229c-.013-.017-.09-.04-.095.014.007.076.02.254.029.316.01.072.041.285.045.334.005.045.01.143.012.16v.002h-.002l.002.003a.433.433 0 0 0-.005.038l-.002.014h-.002c-.003.001-.003.003-.003.006a.846.846 0 0 0-.034.122c-.02.072-.104.15-.128.226-.043.1-.241.207-.277.224l-.055.063c-.03-.005.017-.083.017-.09 0-.007.021-.065.026-.076.01-.01.007.038.042-.114.03-.144-.063-.243-.063-.338a.264.264 0 0 0-.007-.087c-.024-.066-.027-.322-.044-.381-.01-.04-.017-.14-.028-.148-.005-.008-.014-.012-.017-.026l-.01-.04v-.055a.77.77 0 0 1 .005-.105c.002-.027.002-.083.002-.136l-.001-.08a.134.134 0 0 0-.025-.058c-.008-.009-.01-.016-.012-.029l-.02-.146a.602.602 0 0 0-.023-.099c-.035-.03-.08 0-.084.02-.007.083-.095.254-.118.32h.013c.011.005.022.01.032.01.02.004.026.021.03.029 0 .01.004.02.004.03 0 .014-.003.022-.004.037a2.337 2.337 0 0 1-.018.1v.038c0 .043.001.1.006.135.007.043.053.197.056.203l.003.014c-.002.02-.014.289-.014.398 0 .05.003.1.01.13.017.099.006.251.012.262.005.008.005.016.005.023 0 .003 0 .01-.005.016-.007.008-.007.008-.008.013a.048.048 0 0 1-.013.013l-.044.05c-.036.038-.018.096-.071.155-.096.1-.319.52-.319.685 0 .002-.027.142-.027.095.008.111.071.236.071.33 0-.005.095.084.097-.024 0-.08-.014-.17.03-.306.088-.265.244-.547.542-.578.017-.01.019-.012.035-.017h.009c.025.002.028.02.028.026a.042.042 0 0 1 .005.022c0 .075-.071.27-.128.501-.049.209-.082.314-.102.4.008-.006.049.065.053.061.128.034.151-.123.168-.14l.004-.007c.005-.007.006-.015.01-.028.008-.018.015-.05.025-.085.017-.071.034-.164.04-.255.011-.19.08-.542.104-.622.023-.073.116-.142.17-.18.02-.011.029-.018.044-.021.002-.002.01-.003.014-.003.028 0 .047.022.047.046v.006c0 .025.08.384.133.795v.01s-.032.256-.032.547c0 .032 0 .06.004.093.015.265-.052.567.037.585.01-.008.044.009.046-.021a.535.535 0 0 0 .09-.278v-.021a.149.149 0 0 1-.005-.033c.002-.106.064-.24.064-.294.002-.074.032-.16.032-.188.002-.033.002-.07.002-.093v-.014c0-.016.044-.275.035-.361-.008-.087-.054-.22-.054-.297h-.04a.774.774 0 0 1 .05-.218v-.006c0-.028.054-.12.054-.159.002-.051.065-.328.087-.498.019-.123-.017-.137-.011-.185 0 0 .035-.083.033-.083l-.027-.075h-.003Zm1.178.898c.005-.01-.029-.17-.008-.275.017-.105.004-.358-.03-.406-.035-.042.052-.087.051-.092-.01-.004-.013-.015-.01-.026.003-.006-.026-.106-.018-.16.003-.053-.004-.073-.005-.099-.003-.022.004-.023-.003-.055-.008-.036.003-.043.01-.064.016-.029.02-.052.022-.052.006 0 .021-.035.043-.071.005-.012-.027-.21-.037-.313-.008-.102-.067-.101-.067-.108 0-.006-.057.01-.065.214-.003.079-.021.183-.021.187 0 .003-.004.008-.005.013-.005.002-.029.008-.03.04-.008.06 0 .168.002.18.003.05.003.137 0 .155-.002.017-.006-.037-.006-.033-.002.005-.008.008-.01.013-.003.002-.01.049-.023.109a5.445 5.445 0 0 1-.1.343c-.022.065 0 .284.043.49.049.203.052.26.014.275-.057.029-.214-.131-.241-.209-.025-.074-.13-.24-.15-.31l-.038-.133-.002-.006-.003-.035c0-.011.005-.115.01-.162.007-.048.035-.263.047-.334.008-.075.026-.18.032-.239a1.355 1.355 0 0 0-.02-.284c-.012-.042-.036-.039-.04-.033-.14-.006-.088.212-.1.24-.02.026.047.16.035.176-.01.02-.012.068-.016.075a.043.043 0 0 0-.005.017c0 .004-.003.011-.006.013-.003 0-.129.095-.145.148-.016.055-.04.149-.04.167 0 .02.01.244.02.331.01.086.067.272.061.319-.009.046-.025.114-.031.152-.004.004-.004.01-.004.01s-.046.228-.05.488c-.001.111.103.129.12.241.033.224.128.61.162.676.037.067.052.108.066.108.013-.001.051.04.069.078.048.096.072.093.117.124.04.026.04-.045.04-.055.005-.01-.175-.534-.245-.928-.067-.394-.032-.619-.032-.634 0-.013.007-.057.022-.052.015.005.14.03.166.105.022.077.119.43.166.615.045.186.03.278.047.293.017.018.137.125.174.147l.075.038c.002 0 .02-.138-.08-.429-.106-.285-.127-.554-.104-.56.09-.027.339.208.472.499.13.29.183.405.203.382.052-.059-.023-.191-.05-.357-.026-.17-.21-.49-.319-.606-.11-.116-.126-.32-.128-.325-.003-.005-.003-.014 0-.018m.43-.321s.038-.008.032-.024c-.022-.075.05-.047.058-.047.007 0 .023.007.026.012.002.006.14.218.234.34.077.098.11.108.121.101.013-.007-.078-.139-.066-.232.016-.086-.063-.18-.09-.19-.026-.012-.16-.146-.178-.212-.017-.069-.096-.382-.131-.466-.038-.087.014-.138.007-.143-.007-.006-.01-.02-.001-.025.007-.008-.014-.052-.01-.058a.82.82 0 0 0 .014-.188c0-.062-.022-.08-.03-.071-.008.014-.117.308-.168.43-.05.124.027.526.097.633.067.102.083.14.085.14M24.13 31.028c.052.002.095-.008.123-.04.015-.054.03-.054.027-.09-.003-.04-.017-.074-.065-.103-.033.097-.094.154-.17.154-.063 0-.133-.035-.209-.09a.216.216 0 0 1-.072.029c-.069.035-.121.066-.116.137v.005l.002.014-.008.007a.102.102 0 0 0-.031.071c-.001.063.107.14.181.17l.013-.13c.029-.074.1-.092.166-.092.055-.002.108-.038.16-.043m-.113.473c-.027.063-.017.06.013.125l.03-.03c.076-.068.261.123.271-.103-.089-.031-.148-.083-.246-.052-.025.035-.054.02-.067.06m-.686-7.178c.04-.1.023-.083.13-.12l.074-.01c.022-.005.083-.021.1-.034.054-.038.08-.128.082-.185-.222-.086-.435-.05-.59.124.012.115.048.204.203.225m3.141-6.44a.256.256 0 0 0 .064-.066c.028-.041.014-.115-.005-.153-.2.034-.353.146-.407.322.05.073.114.114.24.066-.009-.083-.013-.062.055-.131l.053-.038Zm-2.414 7.099c-.107.028-.166.086-.228.17-.041.048-.037.052-.049.074-.01.017-.022.029-.054.045.077.06.142.105.196.103.039 0 .08-.023.135-.094.024-.031.004-.054.062-.091.05-.032.071-.065.133-.087-.023-.015-.038-.03-.06-.045l-.038-.034c-.034-.023-.06-.043-.098-.04m-.194 1.431c-.039.049-.035.056-.046.077-.01.018-.025.029-.055.045.076.06.142.109.193.104.042 0 .08-.023.135-.094.027-.031.007-.054.065-.092.054-.033.073-.066.133-.087l-.06-.045-.036-.036c-.036-.02-.062-.041-.1-.04-.104.024-.163.088-.229.168m-.122-1.81.05.015c.02.004.04.01.063.016.102.016.095-.012.213-.047 0 0-.046-.026-.008-.08.03-.047.048-.078.085-.12l-.038-.011c-.088-.03-.15-.03-.254.035-.047.072-.189.131-.11.191m-1.274 3.133-.007-.078c-.001-.035-.001-.073.008-.116l.003-.016.015-.007c.013-.002.029-.014.049-.024l.055-.034a.163.163 0 0 1 .128-.052c.135-.05.334-.137.32-.247a.223.223 0 0 0-.05-.112l-.012-.011.005-.013c.06-.238.343-.422.525-.565a.295.295 0 0 1-.035-.126c-.005-.088.042-.156.106-.236l.06-.037c.04-.052.067-.103.064-.156a.157.157 0 0 0-.028-.08c-.037-.037-.073-.054-.091-.054-.021.002-.037.009-.056.057l-.02.03c-.015.043-.04.025-.072.032a.358.358 0 0 1-.227.096c-.158-.004-.273-.113-.39-.106-.014.003-.034.003-.051.008l-.014.002-.012-.007c-.039-.031-.064-.039-.079-.039-.042-.01-.065.109-.151.166-.3.149-.456.653-.444.798 0 .006.002.01.003.012.095-.003.516-.343.518-.383.005-.007.005-.01.005-.018.005-.021-.044-.038-.057-.096 0-.034.029-.05.057-.058l.059-.02c.062-.025.116-.053.14-.105l.01-.017.025.004c.107.031.308.137.394.201l.023.015-.01.024a.389.389 0 0 1-.12.137c-.184.13-.402.211-.39.402a.397.397 0 0 0 .031.122l.005.01-.002.01c-.034.15-.125.204-.237.204-.04 0-.081-.005-.128-.008l-.137-.023a.7.7 0 0 0-.12-.007.343.343 0 0 0-.27.121c.034.033.052.066.053.102.001.021-.001.04-.008.062l.235-.13.015.01c.096.065.111.146.114.222V27.75a.346.346 0 0 0 .055.172c.14-.067.14-.113.138-.188m1.825.685c-.026.277-.303.174-.424.345a.38.38 0 0 0-.088.25c0 .025.006.049.011.07l.014-.01c.116-.08.201-.212.32-.305l.006-.007h.004l.04-.001h.007c.01 0 .014 0 .027-.004h.004c.032 0 .008.066.02.086.085-.028.146-.089.143-.175a.063.063 0 0 0-.005-.02l.012-.016.001-.011a.382.382 0 0 0 .146-.137l.035-.056c.044-.074-.001-.054.066-.054.026 0 .049-.045.082-.038.05-.048.102-.05.092-.082 0-.008-.1-.021-.112-.043-.268.017-.173.089-.4.21m-.818.695a.36.36 0 0 0-.07.01c-.158.095-.226.165-.394.167-.04 0-.08 0-.127-.006-.236.222-.246.38-.246.549l.194.032-.014-.112c-.012-.198.273-.261.273-.261.259-.108.384-.122.543-.317a.211.211 0 0 0-.16-.062m.719.136c-.086-.002-.023.07-.1.13l-.01.009-.016-.002c-.028-.006-.05.04-.073.04-.163-.009-.477.216-.482.225-.115.172-.153.32-.35.468.042.031.073.048.104.05.03 0 .068-.01.12-.053.044-.04.076-.099.167-.104.063-.244.23-.318.497-.374v-.002l.112-.203c.246-.059.234-.055.333-.218a.747.747 0 0 1-.16.03l-.143.004Zm-.215 1.158a.34.34 0 0 1 .09-.186.536.536 0 0 1 .079-.067l.056-.044-.037-.127-.009.002c-.141.027-.178.095-.228.165l-.03.054a.479.479 0 0 1-.17.15.215.215 0 0 1-.134.029c-.09.006-.182-.023-.254-.037-.036.025-.04.048-.04.083 0 .013.003.029.007.044l.01.075a.303.303 0 0 1-.002.063c.017.006.029.009.037.009.016-.002.029-.009.047-.026l.036-.05.013.002.037-.002c.015.002.032.002.045.002a.081.081 0 0 1 .075.038c.136-.038.306-.065.37-.176m-.544-1.91c.02-.088.11-.137.2-.139.038 0 .075.011.109.029l.027-.029.02-.147.01-.006c.154-.127.155-.038.354-.063a.305.305 0 0 1-.017-.096c-.011-.305.197-.388.205-.677-.046-.045-.082-.071-.127-.071-.007.005-.016.005-.022.005-.04.083-.085.165-.08.25v.013l.006.022-.02.007c-.25.104-.051.1-.185.306l-.012.017-.018-.007a.28.28 0 0 0-.08-.01c-.101 0-.155.068-.208.138l-.05.067c-.077.096-.21.139-.22.188-.03.203-.116.191-.279.346a.21.21 0 0 1-.139.064.15.15 0 0 1-.112-.047.059.059 0 0 1-.009-.025c.002-.033.024-.051.027-.055.047-.07.102-.146.096-.215a.152.152 0 0 0-.01-.054l-.008-.017.01-.012c.142-.16.247-.331.313-.527.063-.133.2-.23.348-.244l.015-.001.01.014c.02.021.044.032.066.042l.038.02c.024.009.039.023.05.036.05-.024.055-.033.055-.084v-.042a.247.247 0 0 1-.097-.181c-.006-.138.093-.269.15-.381a.391.391 0 0 0-.152-.059c-.05 0-.08.038-.098.157l-.012.099c-.01.072-.025.185-.12.224l-.008.001h-.005l-.03-.002c-.268-.003-.323.306-.547.44l.008.187-.006.007c-.05.064-.128.102-.19.15-.023.012-.044.037-.07.064a.193.193 0 0 1 .058.115c0 .043-.017.082-.054.13-.09.104-.213.13-.206.218a.085.085 0 0 1 .004.025l.075.049c.141.021.316.184.483.199.194-.111.383-.226.454-.438m7.75-7.461c-.029-.007.017.192-.01.187.066.123.128.275.316.254-.027-.14-.173-.233-.251-.373l-.055-.068ZM17.119 32.542l.044-.01c.057-.033.102-.063.094-.135-.097-.068-.155-.152-.251-.193-.06-.026-.097-.015-.154.01.07.165.04.235-.074.367l-.067.076c-.106.112-.132.178-.108.337a1.01 1.01 0 0 0 .515-.347c-.03-.05-.064-.08.001-.105m.7 1.123c-.045 0-.09.028-.132.057l-.023.011-.008.009-.003.009-.007.062-.005.026h.024l.003-.004c.04 0 .098.042.16.045h.003c.042 0 .08-.027.108-.09l.004-.01-.004-.01c-.034-.074-.076-.105-.12-.105m-.556-.107c-.146-.034-.294-.038-.439-.043l.095.324.149-.006c.002-.078-.01-.112.096-.118.114 0 .174.015.256-.073l-.058-.068-.1-.017Zm-.844-.587c-.155.02-.16.1-.15.235.007.048.017.098.015.145.002.05.02.05.004.084 0 0 .012.052.04.072.028.025.153-.074.153-.074.076-.076.06-.168-.004-.29l-.058-.172Zm1.227-.144c-.436-.131-.274.368-.387.493l.04.04a.524.524 0 0 0 .289-.304c.14-.134.317-.09.459-.281-.167-.147-.287-.09-.4.052m14.07-20.15c-.175.147-.393.437-.63.482-.131.022-.493-.014-.518-.085-.021-.066.42-.38.517-.43.109-.059.204-.064.35-.116.076-.03.265-.14.313-.134.085.012.128.066.1.167-.016.057-.07.063-.133.117" fill="#fff"/></svg>