<svg width="44" height="44" fill="none" xmlns="http://www.w3.org/2000/svg" viewBox="0 0 44 44"><path d="M10.08 35.443a1.502 1.502 0 0 1-1.502-1.502V10.06c0-.83.672-1.498 1.5-1.498h15.86c.605 0 1.095.494 1.095 1.102v3.114c0 .61-.49 1.103-1.095 1.103h-8.013a2.475 2.475 0 0 0-2.466 2.481v3.778a2.474 2.474 0 0 0 2.466 2.482h7.98c.604 0 1.133.794 1.133 1.404v3.097c0 .608-.49 1.102-1.096 1.102l-8.015.009c-1.36 0-2.466 1.213-2.466 2.71l-.007 3.387c0 .38.148.831.428 1.113l-5.801-.002Z" fill="#0078B9"/><path d="M10.001 7h24.013a3.002 3.002 0 0 1 3.001 3v24a3 3 0 0 1-3 3H10A2.997 2.997 0 0 1 7 34.003V10a3 3 0 0 1 3.001-3Z" fill="#000"/><path fill-rule="evenodd" clip-rule="evenodd" d="M33.967 35.438H18.119a1.1 1.1 0 0 1-1.096-1.103v-3.442c0-.61.49-1.101 1.096-1.101h7.98a2.477 2.477 0 0 0 2.466-2.483v-3.747A2.476 2.476 0 0 0 26.1 21.08l-8.003-.002A1.099 1.099 0 0 1 17 19.973v-3.439c0-.61.491-1.101 1.095-1.101l8.042-.005c1.362 0 2.464-1.21 2.464-2.708V9.692c0-.38-.164-.848-.435-1.129l5.788-.002a1.5 1.5 0 0 1 1.498 1.503l-.004 23.88c0 .828-.676 1.5-1.505 1.5l.023-.006Z" fill="#0779BF"/><path d="M10.08 35.443a1.502 1.502 0 0 1-1.502-1.502V10.06c0-.83.672-1.498 1.5-1.498h15.86c.605 0 1.095.494 1.095 1.102v3.114c0 .61-.49 1.103-1.095 1.103h-8.013a2.475 2.475 0 0 0-2.466 2.481v3.778a2.474 2.474 0 0 0 2.466 2.482h7.98c.604 0 1.133.794 1.133 1.404v3.097c0 .608-.49 1.102-1.096 1.102l-8.015.009c-1.36 0-2.466 1.213-2.466 2.71l-.007 3.387c0 .38.148.831.428 1.113l-5.801-.002Z" fill="#fff"/></svg>