<svg width="32" height="36" viewBox="0 0 32 36" fill="none" xmlns="http://www.w3.org/2000/svg">
<path fill-rule="evenodd" clip-rule="evenodd" d="M4.76974 22.5991L0 30.8895L5.79183 30.4352C6.01883 30.4352 6.2461 30.5487 6.2461 30.776L8.85825 36L13.628 27.7096C10.5618 27.2553 7.83616 25.779 5.67832 23.6211C5.33755 23.2804 5.11052 22.9398 4.76974 22.5991ZM26.0068 23.6211C23.9627 25.6652 21.3505 27.1416 18.2847 27.7096L22.9409 35.6593L25.4393 30.4352C25.5528 30.3217 25.7801 30.2082 25.8936 30.2082L31.7989 30.549L27.1426 22.4855C26.8018 22.9398 26.461 23.2806 26.0068 23.6211ZM6.35954 22.9399C8.74444 25.4382 12.1514 26.9146 15.899 26.9146C19.6467 26.9146 22.9403 25.4382 25.4385 22.9399C27.8234 20.555 29.2997 17.148 29.2997 13.5142C29.2997 9.76647 27.8233 6.35973 25.4385 3.9747C22.9401 1.47634 19.6467 0 15.899 0C12.1514 0 8.74457 1.47634 6.35954 3.9747C3.97464 6.3596 2.38484 9.76653 2.38484 13.5142C2.38484 17.1484 3.97464 20.5555 6.35954 22.9399Z" fill="#F2C037"/>
<path d="M10.3777 20.1238L10.8883 19.0419H11.7554L10.7809 20.8204V21.9601H9.97452V20.8443L9 19.0419H9.87119L10.3777 20.1238Z" fill="white"/>
<path d="M13.8341 21.9601H12.0755V19.0419H13.8341V19.6747H12.8758V20.1337H13.7632V20.7665H12.8758V21.3174H13.8341V21.9601Z" fill="white"/>
<path d="M16.1701 21.9601L16.0242 21.4132H15.0619L14.9119 21.9601H14.0326L14.9991 19.0299H16.0668L17.0454 21.9601H16.1701ZM15.8581 20.7665L15.7305 20.2874C15.7007 20.181 15.6643 20.0432 15.6211 19.8743C15.5792 19.7053 15.5515 19.5842 15.538 19.511C15.5258 19.5788 15.5015 19.6906 15.4651 19.8463C15.4299 20.002 15.3509 20.3087 15.228 20.7665H15.8581Z" fill="white"/>
<path d="M18.1678 20.8982V21.9601H17.3675V19.0419H18.338C19.143 19.0419 19.5455 19.3293 19.5455 19.9042C19.5455 20.2422 19.378 20.5037 19.043 20.6886L19.9061 21.9601H18.9984L18.3704 20.8982H18.1678ZM18.1678 20.3054H18.3177C18.5973 20.3054 18.7371 20.1836 18.7371 19.9401C18.7371 19.7392 18.6 19.6387 18.3258 19.6387H18.1678V20.3054Z" fill="white"/>
<path d="M22.1124 21.0739C22.1124 21.2548 22.0658 21.4158 21.9726 21.5569C21.8794 21.6966 21.7451 21.8057 21.5695 21.8842C21.3939 21.9614 21.1879 22 20.9515 22C20.7543 22 20.5889 21.9867 20.4552 21.9601C20.3214 21.9321 20.1823 21.8842 20.0378 21.8164V21.1138C20.1904 21.191 20.3491 21.2515 20.5139 21.2954C20.6787 21.338 20.83 21.3593 20.9677 21.3593C21.0866 21.3593 21.1737 21.3393 21.2291 21.2994C21.2845 21.2582 21.3122 21.2056 21.3122 21.1417C21.3122 21.1018 21.3007 21.0672 21.2777 21.0379C21.2561 21.0073 21.2203 20.9767 21.1703 20.9461C21.1217 20.9155 20.9907 20.853 20.7773 20.7585C20.5841 20.672 20.4389 20.5882 20.3417 20.507C20.2458 20.4258 20.1742 20.3327 20.1269 20.2275C20.081 20.1224 20.0581 19.998 20.0581 19.8543C20.0581 19.5855 20.1573 19.3759 20.3559 19.2255C20.5544 19.0752 20.8273 19 21.1744 19C21.481 19 21.7937 19.0699 22.1124 19.2096L21.8673 19.8184C21.5904 19.6933 21.3513 19.6307 21.1501 19.6307C21.0461 19.6307 20.9704 19.6487 20.9232 19.6846C20.8759 19.7206 20.8523 19.7651 20.8523 19.8184C20.8523 19.8756 20.882 19.9268 20.9414 19.9721C21.0022 20.0173 21.1656 20.0998 21.4317 20.2196C21.687 20.3327 21.8639 20.4544 21.9625 20.5848C22.0625 20.7139 22.1124 20.8769 22.1124 21.0739Z" fill="white"/>
<path d="M11.7917 17.1192C10.9984 17.1192 10.373 16.9698 9.9157 16.6712C9.4677 16.3725 9.1457 15.9572 8.9497 15.4252C8.76303 14.8838 8.6697 14.2632 8.6697 13.5632V13.1572H11.0077C11.0077 13.1665 11.0077 13.2178 11.0077 13.3112C11.0077 13.4045 11.0077 13.4885 11.0077 13.5632C11.0077 13.9365 11.031 14.2398 11.0777 14.4732C11.1244 14.7065 11.2084 14.8792 11.3297 14.9912C11.451 15.0938 11.619 15.1452 11.8337 15.1452C12.0484 15.1452 12.207 15.0892 12.3097 14.9772C12.4217 14.8652 12.4964 14.6972 12.5337 14.4732C12.571 14.2492 12.5897 13.9692 12.5897 13.6332C12.5897 13.0732 12.5104 12.6485 12.3517 12.3592C12.2024 12.0605 11.885 11.9065 11.3997 11.8972C11.3904 11.8972 11.339 11.8972 11.2457 11.8972C11.1524 11.8972 11.059 11.8972 10.9657 11.8972V10.2872C11.031 10.2872 11.0964 10.2872 11.1617 10.2872C11.227 10.2872 11.2877 10.2872 11.3437 10.2872C11.8384 10.2872 12.1697 10.1518 12.3377 9.88118C12.5057 9.61051 12.5897 9.19051 12.5897 8.62118C12.5897 8.18251 12.529 7.84651 12.4077 7.61318C12.2957 7.37985 12.081 7.26318 11.7637 7.26318C11.4557 7.26318 11.2504 7.39385 11.1477 7.65518C11.0544 7.91651 11.0077 8.25251 11.0077 8.66318C11.0077 8.75651 11.0077 8.85451 11.0077 8.95718C11.0077 9.05051 11.0077 9.14851 11.0077 9.25118H8.6697V8.56518C8.6697 7.88385 8.79103 7.30985 9.0337 6.84318C9.2857 6.36718 9.64036 6.00785 10.0977 5.76518C10.5644 5.52251 11.1197 5.40118 11.7637 5.40118C12.417 5.40118 12.977 5.51785 13.4437 5.75118C13.9104 5.98451 14.2697 6.32985 14.5217 6.78718C14.7737 7.23518 14.8997 7.79518 14.8997 8.46718C14.8997 9.12985 14.7644 9.68518 14.4937 10.1332C14.223 10.5812 13.8964 10.8565 13.5137 10.9592C13.775 11.0525 14.0084 11.2018 14.2137 11.4072C14.4284 11.6125 14.5964 11.8925 14.7177 12.2472C14.839 12.5925 14.8997 13.0358 14.8997 13.5772C14.8997 14.2678 14.797 14.8792 14.5917 15.4112C14.3957 15.9432 14.069 16.3632 13.6117 16.6712C13.1544 16.9698 12.5477 17.1192 11.7917 17.1192ZM19.1931 17.0772C18.4558 17.0772 17.8538 16.9185 17.3871 16.6012C16.9298 16.2745 16.5938 15.8312 16.3791 15.2712C16.1644 14.7112 16.0571 14.0718 16.0571 13.3532V9.25118C16.0571 8.51385 16.1411 7.85585 16.3091 7.27718C16.4864 6.69851 16.7991 6.24585 17.2471 5.91918C17.6951 5.58318 18.3391 5.41518 19.1791 5.41518C19.9071 5.41518 20.4811 5.52718 20.9011 5.75118C21.3211 5.97518 21.6198 6.30185 21.7971 6.73118C21.9744 7.16051 22.0631 7.69251 22.0631 8.32718C22.0631 8.36451 22.0631 8.40185 22.0631 8.43918C22.0724 8.46718 22.0771 8.49518 22.0771 8.52318H19.8791C19.8791 8.06585 19.8418 7.72985 19.7671 7.51518C19.7018 7.29118 19.5104 7.17918 19.1931 7.17918C18.9784 7.17918 18.8151 7.24451 18.7031 7.37518C18.6004 7.50585 18.5304 7.73451 18.4931 8.06118C18.4558 8.38785 18.4371 8.84518 18.4371 9.43318V10.4412C18.5491 10.2452 18.7311 10.0958 18.9831 9.99318C19.2351 9.88118 19.5198 9.82051 19.8371 9.81118C20.4344 9.79251 20.9104 9.92785 21.2651 10.2172C21.6291 10.5065 21.8904 10.9032 22.0491 11.4072C22.2078 11.9018 22.2871 12.4572 22.2871 13.0732C22.2871 13.8665 22.1938 14.5665 22.0071 15.1732C21.8204 15.7705 21.5031 16.2372 21.0551 16.5732C20.6071 16.9092 19.9864 17.0772 19.1931 17.0772ZM19.2211 15.3552C19.4358 15.3552 19.5898 15.2852 19.6831 15.1452C19.7858 14.9958 19.8511 14.7812 19.8791 14.5012C19.9164 14.2118 19.9351 13.8572 19.9351 13.4372C19.9351 13.0638 19.9211 12.7418 19.8931 12.4712C19.8744 12.2005 19.8138 11.9905 19.7111 11.8412C19.6084 11.6825 19.4358 11.6032 19.1931 11.6032C19.0811 11.6032 18.9738 11.6265 18.8711 11.6732C18.7684 11.7198 18.6798 11.7805 18.6051 11.8552C18.5304 11.9205 18.4744 11.9858 18.4371 12.0512V13.8992C18.4371 14.1512 18.4558 14.3892 18.4931 14.6132C18.5398 14.8372 18.6191 15.0192 18.7311 15.1592C18.8524 15.2898 19.0158 15.3552 19.2211 15.3552Z" fill="white"/>
</svg>
