<svg width="44" height="44" viewBox="0 0 44 44" fill="none" xmlns="http://www.w3.org/2000/svg">
<rect x="0.5" y="0.5" width="43" height="43" rx="6.5" stroke="#F1F2F2"/>
<rect x="5" y="4" width="33" height="35" rx="4" fill="#FFD000"/>
<path d="M33.9801 19.0456C33.8989 18.9384 33.6984 19.0267 33.6984 19.0267L30.4926 20.2152C30.2528 19.6232 29.9647 19.0519 29.6313 18.5071L30.6694 15.6744C30.6694 15.6744 30.7991 15.3931 30.6786 15.3231C30.5593 15.2523 30.3643 15.4406 30.3643 15.4406L28.4787 16.9872C27.7434 16.1996 26.8802 15.5644 25.8884 15.1144C25.5135 14.9485 25.1272 14.8095 24.7325 14.6986L24.1473 12.4575C24.1473 12.4575 24.0969 12.2329 23.9464 12.2329C23.7963 12.2329 23.7555 12.4453 23.7555 12.4453L23.3805 14.4251C22.9594 14.3712 22.5353 14.344 22.1108 14.3436C20.7043 14.3436 19.4549 14.6104 18.3612 15.1011C17.8981 15.3085 17.4559 15.5598 17.0407 15.8516C16.9722 15.8998 16.9073 15.952 16.8402 16.0021C16.4511 15.0003 16.145 14.1827 16.0875 13.937C16.3036 13.7409 16.7576 13.0264 16.8684 12.5442C17.0222 11.8697 16.9751 11.5506 16.8128 11.0403C16.6953 10.6671 16.4592 10.3179 16.4748 10.0822C16.4867 9.9062 16.5804 9.78019 16.6597 9.69902C16.6168 9.45145 16.4555 9.3436 16.2639 9.31877C16.0875 9.29505 15.95 9.34694 15.7929 9.35398C15.7536 9.28134 15.6747 9.29505 15.734 9.0397C15.8236 8.65278 16.5656 8.47118 17.1734 8.23584C17.9424 7.93749 18.372 7.38342 18.3979 6.49432C18.4165 5.8476 18.0562 5.36913 17.6044 5.15344C17.5136 5.41435 17.139 5.76532 16.8784 5.90838C16.6219 6.04995 16.2662 6.10406 16.0089 6.04402C16.0653 5.56852 15.8459 5.16344 15.4986 5C15.3874 5.20273 14.9697 5.48217 14.3419 5.4629C13.7141 5.44288 13.6737 5.29427 12.7916 5.29723C11.536 5.29946 10.4961 6.05699 10.3682 7.16884C10.2859 7.89117 10.5635 8.49712 10.7729 8.81103C10.6165 8.92851 10.2496 9.28171 10.184 9.38771C10.0932 9.28171 9.84415 9.14088 9.54395 9.33693C9.6088 9.49482 9.62104 9.68679 9.56989 9.87099C9.518 10.053 9.05992 10.9432 9.00767 11.6614C8.91872 12.8774 9.62104 13.7005 10.2103 13.9359C10.0802 14.1323 10.0532 14.341 10.1451 14.5118C10.2055 14.6249 10.3274 14.7342 10.5769 14.7342C10.4331 14.891 10.3786 15.1278 10.472 15.3613C10.5769 15.6226 10.8767 16.0024 11.1387 16.0024C11.1257 16.2244 11.2302 16.7466 11.2829 16.9564C11.1917 17.1265 11.0994 17.2551 11.1131 17.5687C11.1261 17.8955 11.3355 18.1594 11.5964 18.2117C11.662 18.3692 11.7113 18.5415 11.8021 18.646C11.8936 18.7509 11.9752 18.878 12.172 19.0085C12.3677 19.1393 12.59 19.2446 12.8521 19.2446C13.1133 19.2446 13.3435 19.2572 13.4613 19.2183C13.4669 19.2931 13.4914 19.9851 13.5218 20.7533C12.8643 22.5834 12.5363 24.7052 12.5363 26.9812V26.9823C12.5367 31.0616 13.7 34.6959 15.9211 37.0382C15.9211 37.0382 16.049 37.1957 16.4055 37.4262C16.4055 37.4262 17.1008 36.238 18.1581 34.8867C18.4378 34.5341 18.7428 34.2023 19.0706 33.8939C19.5583 33.4686 20.064 33.0645 20.5864 32.6827C21.9532 31.7517 23.535 31.0424 24.9967 30.7407C23.3204 31.6046 22.3702 32.0678 20.794 33.4191C19.7966 34.2749 18.2067 35.7844 17.1201 37.8531C17.3461 38.0325 17.6508 38.2167 18.0099 38.253C18.2397 37.9832 19.4212 35.8166 21.2354 34.0747C24.9052 30.6384 29.228 29.8438 31.4914 29.8871C31.6185 28.9554 31.6841 27.984 31.6841 26.9812C31.6841 25.3382 31.5129 23.7779 31.1712 22.3481L33.8733 19.3409C33.8733 19.3398 34.0601 19.1534 33.9801 19.0456Z" fill="#181543"/>
<path d="M13.884 17.6881C13.7276 17.5966 13.2958 17.3864 12.956 17.4005C12.6035 17.4146 12.3059 17.4858 12.028 17.6618C11.9105 17.5829 11.8738 17.4261 11.9494 17.243C12.0242 17.0607 12.1328 17.0343 12.1328 17.0343L12.0331 15.321C12.0331 15.321 12.5146 14.9785 12.6447 14.9396C12.7751 14.9007 12.8344 14.7984 12.8344 14.668C13.0475 14.8129 13.3622 15.1338 13.5308 15.3744C13.6883 15.5967 13.7799 15.8443 13.7928 16.1193C13.8058 16.3936 13.8084 16.7208 13.7532 17.0607C13.8606 17.1526 13.9622 17.2304 13.9755 17.3738C13.9885 17.5187 13.9366 17.5703 13.884 17.6881ZM29.4961 23.0224C29.4772 22.6884 29.0896 21.7867 28.8546 21.5903L32.9217 19.7865L29.4961 23.0224ZM18.3392 16.2838L21.7814 19.4066C21.449 19.5934 20.9505 20.0964 20.8137 20.5074L18.3392 16.2838ZM20.3534 22.4694C20.236 22.6529 20.1937 22.7629 20.1544 22.9846C20.1148 23.2077 20.144 23.3311 20.1711 23.5142L19.1145 22.7855C19.1274 22.538 19.0626 22.1344 19.0459 21.9235C19.0441 21.9005 19.0366 21.8635 19.0307 21.832L20.3534 22.4694Z" fill="white"/>
<path d="M14.5372 22.7734C14.472 22.6559 14.1714 16.3017 14.1584 16.0804L14.4983 15.8325V15.7665C14.2503 15.7532 13.962 15.662 13.8716 15.5171L13.7796 13.5703C13.4391 13.5439 13.0888 13.4361 12.9584 13.306C12.7957 13.1426 12.6685 12.9421 12.852 12.5889C13.0214 12.7075 13.5176 12.8509 13.9494 12.8509C14.0406 12.8509 14.2329 13.0566 14.3422 13.0996C14.4671 13.1492 14.6765 13.2649 14.7755 13.3082C14.8644 13.3471 14.9197 13.5562 14.946 13.6347C14.9719 13.7133 18.1195 21.885 18.1725 21.9762C18.2252 22.0677 18.4086 23.4397 18.4205 23.5446C18.4346 23.6491 18.9049 24.7465 18.996 24.8518C18.578 24.8392 17.8927 25.0786 17.3305 25.6289C16.7813 26.1652 16.2954 27.3441 16.1849 27.8878C16.1457 27.5999 14.6032 22.8908 14.5372 22.7734ZM18.5376 30.5907C18.4008 31.8467 18.0951 32.9363 17.6355 33.7146C17.3401 34.2157 16.51 35.2316 16.2194 35.6148C16.5341 34.9881 16.7768 33.4737 16.7564 32.2967C16.7435 31.5325 16.5114 29.8465 16.7138 28.7288C16.9314 27.5295 17.2723 26.8553 18.0751 26.1163C18.4842 25.7394 19.3226 25.258 20.5189 25.583L21.4869 27.4034C20.9688 27.3045 20.2843 27.3934 19.8277 27.7444C18.9694 28.4037 18.6803 29.2928 18.5376 30.5907Z" fill="white"/>
<path d="M18.632 33.0664C18.8673 32.5365 19.1768 31.0262 19.2635 30.5207C19.3754 29.8725 19.4792 28.9259 20.2516 28.2892C20.6311 27.976 21.2545 27.9353 21.5024 28.0076L22.5976 30.2375C22.6954 30.4736 23.0171 30.557 23.2324 30.544C22.2066 30.8772 19.62 32.1051 18.632 33.0664ZM27.947 25.9469C27.771 26.2219 27.834 26.4858 27.9315 26.67C28.0426 26.8775 28.6219 27.9479 28.6219 27.9479C28.8046 28.4334 28.9473 28.6776 29.1215 28.9904C29.4354 28.9904 29.7753 28.9823 30.134 28.9904C29.7512 28.1332 28.8769 26.4762 28.8769 26.4762L28.8139 25.1394C28.5593 25.2932 28.1231 25.6727 27.947 25.9469ZM23.2799 18.8485C23.7113 18.7707 24.6882 18.86 25.0014 19.0172L24.0096 13.402L23.2799 18.8485ZM14.9455 13.6347C14.9192 13.5565 14.8651 13.3471 14.775 13.3082C14.6768 13.2641 14.4667 13.1481 14.3418 13.0985C14.2335 13.0558 14.0404 12.8509 13.9493 12.8509C13.5179 12.8509 13.0209 12.7075 12.8515 12.5889C12.6681 12.9421 12.7952 13.1426 12.9579 13.306C13.0887 13.4361 13.4386 13.5425 13.7792 13.5703L13.8711 15.5171C13.9619 15.662 14.2498 15.7524 14.4978 15.765V15.8303L14.1579 16.0797C14.1709 16.3009 14.4715 22.6551 14.5374 22.7726C14.6023 22.8901 16.1452 27.5991 16.1841 27.8864C16.2942 27.3438 16.7804 26.1641 17.3296 25.6278C17.8919 25.0786 18.5771 24.8388 18.9952 24.8514C18.904 24.7461 18.4337 23.6488 18.4196 23.5442C18.4078 23.4394 18.2243 22.0673 18.1724 21.9758C18.1198 21.8846 14.9714 13.7133 14.9455 13.6347Z" fill="white"/>
<path d="M12.9348 12.0767C13.8239 12.0785 14.2453 12.448 14.4536 12.6441C14.4795 12.3435 14.4321 12.0785 14.1526 11.8521C13.9203 11.6634 13.5118 11.4967 12.8848 11.4967C12.4663 11.4967 12.0457 11.6193 11.784 11.841C11.5443 12.0448 11.505 12.2749 11.5569 12.6152C11.6351 12.3669 12.2025 12.0737 12.9348 12.0767ZM11.3423 7.41211C11.3226 7.75123 11.4127 8.10516 11.5702 8.31456C11.6595 8.43353 11.8711 8.66294 12.0275 8.65404C12.2503 8.63996 12.4593 8.21449 12.9815 8.23525C13.3214 8.24859 13.5437 8.72854 13.8317 8.74484C14.0541 8.75893 14.1715 8.53656 14.3965 8.51247C14.5889 8.49208 14.6556 8.58881 14.7734 8.70593C14.852 8.52359 14.965 8.39943 15.2567 8.18373C15.6095 7.92171 16.8125 7.6734 17.3229 7.21606C17.5782 6.98702 17.636 6.56378 17.5553 6.27877C17.3618 6.55043 16.8255 6.83729 16.3033 6.86323C16.0413 6.8762 15.4135 6.76057 15.1911 6.64309C15.3027 6.45185 15.3393 6.2343 15.2474 6.0249C15.0773 6.1561 14.342 6.22726 14.0537 6.22726C13.7661 6.22726 13.2053 6.11014 12.7702 6.13423C11.8155 6.18464 11.3738 6.86286 11.3423 7.41211Z" fill="white"/>
<path d="M12.9903 10.3796C15.0565 10.4192 15.989 11.3732 16.0157 12.1578C16.1206 11.9217 16.1065 11.7001 16.0935 11.4384C16.0835 11.2301 15.7677 10.6416 15.7536 10.4452C15.7407 10.2491 15.7929 10.1187 15.8322 9.93557C15.7018 9.96151 15.2444 10.1446 15.048 9.98782C14.8379 9.81957 14.9831 9.40003 14.7081 9.29514C14.4331 9.18952 14.0025 9.51714 13.7275 9.47823C13.4532 9.43857 13.2179 9.06055 12.931 9.06055C12.642 9.06055 12.4985 9.41263 12.1457 9.49157C11.8737 9.55235 11.5438 9.38817 11.3826 9.4004C11.2047 9.413 11.0972 9.55161 11.0187 9.72135C10.9405 9.8922 10.8771 9.96188 10.6684 10.0141C10.5017 10.0564 10.263 9.91037 10.1451 9.93631C10.2363 10.0279 10.2823 10.3996 10.1996 10.616C10.0951 10.8906 9.87088 11.1786 9.84419 11.5211C9.82196 11.8235 9.92277 11.9628 10.0017 12.1848C9.94908 11.0726 11.1862 10.3451 12.9903 10.3796ZM11.688 14.3407C11.5446 14.367 11.2436 14.6027 11.0972 14.8481C11.1399 15.0063 11.3092 15.3747 11.476 15.4755C11.5138 15.3054 11.701 15.0219 11.7936 14.9559C11.9233 14.8629 12.0538 14.7991 12.1583 14.7476C12.2628 14.6946 12.3017 14.6424 12.3017 14.5234C12.3017 14.407 12.2865 14.3514 12.2343 14.234C12.3381 14.2214 12.5315 14.2373 12.5982 14.145C12.6631 14.0542 12.6946 13.9356 12.6946 13.8185C12.6946 13.7003 12.6416 13.674 12.5249 13.6614C12.3152 13.6451 12.1048 13.6424 11.8948 13.6532L12.2373 13.4779C12.3151 13.4397 12.3418 13.3612 12.3551 13.2956C12.3677 13.2303 12.3647 13.0828 12.3288 12.9038C11.9359 12.9164 11.2433 13.2692 11.0602 13.426L11.2047 13.78L10.9427 13.7692C10.9038 13.9482 10.9297 14.2243 11.0083 14.3807C11.2436 14.3407 11.5179 14.3281 11.688 14.3407ZM28.5988 22.5316C28.5506 22.2778 27.9135 21.5184 26.8272 20.6956C25.9808 20.0519 24.7381 19.4174 23.7156 19.4229C21.99 19.4329 21.2773 20.6178 21.1472 21.2363C21.0686 21.6103 21.0875 22.015 21.1661 22.2374C20.8918 22.4727 20.7873 22.6621 20.7343 22.9301C20.6973 23.1231 20.7343 23.4004 20.9115 23.5709C20.8918 23.3155 21.0653 23.0201 21.2058 22.8255C21.3633 22.6095 21.6242 22.5253 21.8606 22.3827L21.8995 22.8541C21.6761 22.9827 21.4003 23.2569 21.3818 23.4004L21.4003 24.1794L21.9937 23.8258L22.1082 24.0619L21.8925 25.4343L22.2257 25.375L22.8331 25.6263L22.245 26.1199V26.3171C22.245 26.3171 22.3343 26.1955 22.5415 26.2048C22.749 26.2141 23.2842 26.4539 23.2842 26.4539L23.2649 26.5725H22.2257C22.186 26.7092 22.308 26.8148 22.3869 26.8734C22.5233 26.8349 22.6652 26.7641 22.7434 26.7641C22.8209 26.7641 23.0025 26.8104 23.1593 26.83L22.9714 27.0821C22.9714 27.0821 22.8743 27.1562 22.6964 27.1206C22.5985 27.1013 22.5011 27.2381 22.5011 27.3504C22.5011 27.469 22.577 27.7632 22.577 27.7632C22.6734 28.205 23.1244 28.115 23.1819 28.1109C23.4687 28.086 24.4023 27.7484 24.4023 27.7484L23.5051 29.007L23.8972 30.3527C24.4894 30.1092 26.2583 29.4803 28.1792 29.1656C27.9695 28.8176 27.9354 28.6787 27.6778 28.1598L26.6975 25.905L26.8347 25.5718C27.0504 25.6504 27.3832 25.4929 27.5989 25.3168C27.8149 25.14 28.0695 24.8261 28.1674 24.6297C28.0303 24.5519 27.9135 24.5704 27.7953 24.6501C27.6778 24.729 27.5863 24.8799 27.4232 24.8065C27.2457 24.729 27.3324 24.5356 27.352 24.3584C27.3717 24.1824 27.1482 24.1798 26.9918 24.3158C26.8347 24.4529 26.5007 24.3947 26.285 24.1798C26.0693 23.9633 25.0312 23.1002 24.658 22.8863C24.1218 22.578 23.4031 22.499 22.8735 22.5947C22.5644 22.6491 22.3439 22.7866 22.2261 22.7277L21.838 22.1277L21.8999 22.0891C22.037 22.1481 22.1664 22.2574 22.3435 22.1988C22.5196 22.1399 23.087 22.0102 23.5984 22.0031C24.3838 21.9898 25.3374 22.2767 25.7562 22.4549C25.7754 22.9642 26.8017 23.6112 27.2657 23.6694C27.6574 23.7187 27.8946 23.6112 28.1288 23.4734L27.1285 22.5947L27.6582 21.9242C27.6582 21.9242 28.5017 22.7277 28.6195 22.8863C28.657 22.7929 28.6192 22.6402 28.5988 22.5316ZM22.5796 23.5516C22.5796 23.5516 23.0103 23.304 23.4157 23.2173C24.0139 23.0894 24.6769 23.4489 25.1472 23.8181L25.0576 23.96L24.3834 24.1194C24.2522 24.003 24.0039 23.9507 23.7356 23.963C23.4969 23.9748 23.3045 24.0619 23.3045 24.0619L23.4372 24.2769L23.1274 24.3554C22.9903 24.1794 22.7746 23.963 22.5793 23.9044V23.5516H22.5796ZM21.5586 22.0028C21.3822 21.4109 21.8536 20.8257 22.0682 20.6108L22.4014 21.375C22.1479 21.5125 21.755 21.8115 21.5586 22.0028ZM24.6573 21.3357C24.3434 21.1196 23.3045 21.1585 22.8728 21.2571L22.5589 20.3539C22.795 20.1779 23.2456 20.0604 23.657 20.0604C24.0691 20.0604 24.5198 20.1597 24.833 20.3157L24.6573 21.3357ZM26.6972 22.2607C26.2654 21.9831 25.4215 21.5714 25.168 21.4921L25.5394 20.5318C25.854 20.6893 27.0107 21.3939 27.1871 21.5714L26.6972 22.2607ZM26.5634 19.7076C26.9514 19.8454 27.7719 20.5351 27.9684 20.6923L30.0464 16.262L26.5634 19.7076Z" fill="white"/>
</svg>
