<svg width="45" height="44" viewBox="0 0 45 44" fill="none" xmlns="http://www.w3.org/2000/svg">
<rect x="1" y="0.5" width="43" height="43" rx="6.5" stroke="#F1F2F2"/>
<path d="M7.50049 21.2188V24.8361C9.42915 24.7926 11.3507 24.7765 13.2491 24.8001C16.8887 23.2634 20.3011 21.8714 24.1049 21.3082C24.13 21.2751 24.1523 21.2443 24.1702 21.2192H7.50096L7.50049 21.2188Z" fill="#EFF4F9"/>
<path d="M20.8368 23.657C21.3456 23.3399 21.4947 23.2344 22.1346 23.0418C22.2373 23.0115 22.6646 22.7412 22.7404 22.6996C22.8516 22.638 22.9794 22.3351 23.1001 22.2154C23.4039 21.903 23.6339 21.7109 23.9965 21.4297C24.0273 21.4042 24.0675 21.3559 24.1044 21.3076C20.301 21.8708 16.8891 23.2623 13.2485 24.8005C14.232 24.8128 15.208 24.8384 16.1768 24.8715C18.1731 24.1568 20.2944 23.9926 20.8363 23.657" fill="#DEEAF3"/>
<path d="M7.50049 27.1424C9.52712 26.3837 11.417 25.5744 13.2491 24.8006C11.3512 24.7769 9.42962 24.7925 7.50049 24.8365V27.1429V27.1424Z" fill="#DEEAF3"/>
<path d="M12.2575 29.6439C12.1865 26.9329 14.1161 25.6087 16.1764 24.8713C15.2071 24.8382 14.2326 24.8126 13.2481 24.8003C11.4165 25.5736 9.52663 26.3834 7.5 27.1431V32.1813C9.32217 32.4454 11.0497 32.5362 12.6778 32.4728C12.4885 31.9877 12.3418 31.442 12.2495 30.8589C12.1879 30.5049 12.1965 30.2185 12.2258 29.9573C12.2424 29.8276 12.2575 29.7041 12.2575 29.6439" fill="#CEE1EE"/>
<path d="M15.0371 35.5494C14.862 35.379 14.6566 35.2456 14.4787 35.0856C13.7754 34.4495 13.3333 33.8787 12.8576 32.8928C12.7947 32.7594 12.7346 32.6183 12.6778 32.4716C11.0497 32.5355 9.32359 32.4442 7.5 32.1805V39.3343C10.1182 39.1346 13.0034 38.7749 15.7906 38.3139C15.8096 38.1331 15.8209 37.9779 15.8266 37.9523C15.8266 37.9429 15.8664 37.0332 15.8384 37.0024C15.571 36.5528 15.3869 35.8926 15.0376 35.5494M31.3463 30.2154C31.2625 30.7115 31.1645 31.2027 30.9298 31.9553C30.9298 31.9562 30.6624 32.6572 30.5549 32.882C30.3916 33.2298 30.2993 33.714 30.1507 34.1646C30.1441 34.1835 30.1115 34.2696 30.0636 34.387C30.0608 34.3946 30.0324 34.4571 30.0201 34.4826C30.7158 34.2233 31.3846 33.9734 31.5517 33.9336V29.8799C31.4561 30.0096 31.3548 30.1591 31.3467 30.215M26.2314 34.2805C26.0847 34.0358 25.9744 33.5668 25.7723 33.5408C25.5783 33.6885 25.1249 33.8404 24.68 33.9544C24.68 33.9544 24.5124 34.0836 23.8858 34.1736L23.3888 34.2422C23.1489 34.2753 22.8744 34.3463 22.6183 34.3482C22.4972 34.3492 22.3845 34.3544 22.2775 34.3605C22.2245 34.6066 22.2695 34.812 22.003 34.8835C21.6433 34.9782 20.922 34.6885 20.1979 35.0316C20.072 35.1533 19.9755 35.2981 19.9177 35.4292C19.6574 36.0175 19.6195 36.0805 19.3971 36.3696C19.3308 36.4586 18.7615 37.0483 18.6947 37.1146C18.4392 37.3702 18.3047 37.6329 18.2252 37.8804C21.7418 37.2097 24.8986 36.399 26.8879 35.5849C26.7094 35.1732 26.5376 34.8049 26.5234 34.7884C26.3909 34.618 26.3758 34.5266 26.2309 34.2805M27.7601 32.4267C27.8008 32.863 27.8056 33.1167 27.948 33.4433C27.9897 33.5398 28.1449 34.6615 28.268 35.1107C28.3844 35.0776 28.5406 35.0255 28.7706 34.9431C28.7943 34.4159 28.8179 32.8645 28.8359 32.6903C28.8388 32.6628 28.8454 32.5767 28.8463 32.5492C28.8487 32.5218 28.8369 32.4262 28.8227 32.3202C28.4937 32.3912 28.1236 32.4196 27.7597 32.4267" fill="#BBD6E9"/>
<path d="M34.6579 8.77399C34.0261 9.55965 32.6966 9.961 31.9772 10.4646C31.7907 10.5933 31.6411 10.7651 31.3761 10.936C31.2956 10.9847 31.0306 11.149 30.8531 11.2304C30.8342 11.2384 30.7462 11.3132 30.7244 11.2768C30.6818 11.22 30.9705 10.892 31.0008 10.8555C31.733 9.91367 32.4017 8.99454 32.5451 7.57231C32.5721 7.24858 32.5896 6.98401 32.5721 6.75351C32.6336 6.75351 32.7113 6.75683 32.7889 6.76109C33.6862 6.80179 34.8799 6.88888 35.001 7.78103C35.0569 8.20226 34.8401 8.54776 34.6574 8.77494M34.6669 9.83653C34.4094 10.4788 33.5229 11.0103 32.7879 11.2621C32.5816 11.3302 32.1409 11.5858 32.006 11.4907C31.953 11.4504 32.2346 11.2152 32.2995 11.1632C32.9384 10.6496 33.7728 10.262 34.4104 9.77831C34.5647 9.65526 34.701 9.54924 34.7313 9.518C34.7246 9.58284 34.7246 9.69785 34.6664 9.83653M28.8355 32.6917C28.818 32.8659 28.7929 34.4173 28.7692 34.9446C28.5401 35.0269 28.3844 35.0771 28.2675 35.1126C28.1445 34.663 27.9883 33.5413 27.9471 33.4452C27.8051 33.1186 27.799 32.864 27.7587 32.4276C28.1232 32.421 28.4923 32.3936 28.8217 32.3226C28.8359 32.429 28.8478 32.5247 28.8464 32.5512L28.835 32.6917M18.2262 37.8814C18.3067 37.6334 18.4406 37.3702 18.6957 37.1156C18.7629 37.0493 19.3323 36.4596 19.3981 36.3706C19.6205 36.0819 19.6584 36.0185 19.9187 35.4297C19.9755 35.2996 20.073 35.1543 20.1989 35.0321C20.923 34.689 21.6438 34.9787 22.0035 34.8845C22.2705 34.8135 22.226 34.6081 22.278 34.3615C22.3855 34.3549 22.4981 34.3506 22.6188 34.3492C22.8753 34.3473 23.1498 34.2772 23.3903 34.2432L23.8872 34.1745C24.5134 34.0846 24.6809 33.9559 24.6809 33.9559C25.1258 33.8413 25.5783 33.6894 25.7742 33.5418C25.9754 33.5678 26.0852 34.0368 26.2314 34.2815C26.3767 34.5276 26.3924 34.619 26.5249 34.7903C26.5381 34.8064 26.7113 35.1751 26.8893 35.5868C24.8991 36.4009 21.7423 37.2112 18.2262 37.8823M25.3256 12.5291C25.2811 12.4912 25.0955 12.4609 25.1424 12.3128C25.159 12.2669 25.2621 12.2323 25.2919 12.2309C25.5996 12.1727 26.106 12.3194 25.938 12.6114C25.938 12.6114 25.672 12.7927 25.6578 12.7936C25.6578 12.7936 25.5347 12.7449 25.5097 12.7293C25.4363 12.6805 25.3734 12.5646 25.326 12.5296M17.6142 9.47446C17.548 9.41956 17.4864 9.36087 17.4344 9.29461C17.2356 9.11476 17.0794 8.78724 16.9933 8.46399C16.83 7.83451 16.6582 7.96135 17.0453 7.5742C17.139 7.47197 17.2924 7.37163 17.4666 7.27839C17.5754 7.22397 17.7269 7.14777 17.8282 7.12126C17.8584 7.1118 17.8722 7.10612 17.9242 7.09618C17.9299 7.16244 17.9375 7.26088 17.9399 7.37542C18.0037 8.41192 18.1732 9.21368 18.6044 9.97852C18.2186 9.80576 17.9678 9.68034 17.6152 9.47446M17.1234 6.7909C17.309 6.55994 17.7363 6.30957 17.9044 6.20497C17.9252 6.19267 17.947 6.17657 17.9612 6.16569C17.9375 6.36163 17.9252 6.54337 17.9115 6.62667C17.8168 6.66217 17.6545 6.71754 17.4874 6.77907C17.3861 6.81504 17.2555 6.89503 17.1064 6.93668C16.9928 6.96508 17.0747 6.85149 17.1239 6.78996M35.0488 3.90478C35.2116 4.29382 35.8421 5.64365 35.7659 6.02749C35.736 6.17705 35.6712 6.56372 35.6168 6.65838C35.5978 6.69483 35.4904 6.88272 35.3773 6.87136C35.1425 6.85243 35.1241 6.14486 35.0498 5.92573C34.9475 5.64034 34.7611 5.42262 34.5292 5.16279C34.4582 5.08327 34.2864 4.95596 34.204 4.88733C33.6853 4.42824 33.0369 3.4845 32.2886 3.31033C32.2848 3.30938 32.2791 3.30701 32.2744 3.31743C32.2716 3.325 32.2791 3.34582 32.2924 3.36002C32.3208 3.38747 32.4959 3.52094 32.8547 3.89105C33.0601 4.10261 33.3388 4.37523 33.5054 4.61235C33.7028 4.89396 34.1945 5.33459 34.3649 5.58543C34.4814 5.75866 34.6456 6.04074 34.674 6.30152C34.6929 6.47191 34.6929 6.52397 34.5935 6.54574C34.5301 6.56467 34.106 6.40281 33.4567 6.35358C33.398 6.35358 32.8528 6.30436 32.7941 6.30436C31.9724 6.21207 32.0226 6.24757 31.3245 6.02701C30.8578 5.88029 30.288 5.67678 29.7792 5.57265C29.7177 5.5613 29.0442 5.32891 29.004 5.37861C28.9723 5.41268 29.198 5.5523 29.2453 5.57265C29.4441 5.66163 30.0178 5.87414 30.2383 5.97826C30.5176 6.11647 30.7684 6.22438 31.0173 6.32187C31.4035 6.47427 31.7699 6.61247 32.2337 6.71944C32.1911 7.27792 32.0822 8.21172 31.8598 8.6126C31.4163 9.41719 30.802 10.1967 30.1531 10.8054C30.0159 10.935 29.8833 11.1258 29.6964 11.2943C29.5369 11.4424 29.3272 11.6824 29.1748 11.7183C29.0792 11.7382 28.9476 11.7098 28.8364 11.7325C28.6831 11.7657 28.5619 11.8509 28.4284 11.8319C28.2973 11.8083 28.2533 11.6928 28.1374 11.6346C27.985 11.5659 27.7379 11.5129 27.5486 11.4878C27.4057 11.4713 27.3484 11.4878 27.3721 11.3577C27.3721 11.352 27.3815 11.3449 27.3872 11.2621C27.4189 10.8371 27.4251 10.44 27.4213 10.139C27.4024 8.90983 26.6309 7.93343 26.1704 7.1028C26.0592 6.89929 25.8211 6.43688 25.6356 6.22343C25.4301 5.99388 25.5532 6.39145 25.5854 6.51971C25.6251 6.66643 25.7539 6.8335 25.7965 6.9575C25.8282 7.02755 25.8547 7.13073 25.8793 7.20077C26.1226 7.92633 26.7431 8.90462 26.8354 9.78163C26.841 9.83653 26.8529 9.90705 26.8505 9.94633C26.7937 10.519 26.7095 11.2413 26.169 11.3582C26.1358 11.3676 26.0885 11.3761 26.0554 11.3761C25.2034 11.3705 24.4661 10.2024 24.0884 9.58994C23.7078 8.96993 23.4258 8.4034 23.1778 7.60544C23.0642 7.23816 23.0154 6.16285 22.9804 5.7738C22.9733 5.70991 22.9671 5.30809 22.9648 5.25413C22.9634 5.23189 22.9553 5.20207 22.9402 5.20207C22.8947 5.20207 22.8275 5.5665 22.8043 5.66116C22.7267 5.97069 22.7049 6.64655 22.7049 6.92295C22.7049 7.6911 22.9321 8.4602 23.2445 9.13322C23.4305 9.54025 23.8399 10.3529 24.069 10.7424C24.1376 10.8569 24.3094 11.0794 24.298 11.1651C24.273 11.3619 23.8967 11.3582 23.7784 11.3932C23.1882 11.4803 22.402 11.4045 21.7101 11.2124C21.0442 11.0278 20.4237 10.8101 19.8737 10.4655C19.8146 10.4196 19.7492 10.3818 19.7104 10.3235C18.9768 9.74471 18.5348 8.42186 18.3777 7.41186C18.354 7.24006 18.3407 7.01714 18.3417 6.98495C18.4098 6.96792 18.4671 6.95182 18.5263 6.93762C19.3025 6.74216 20.3446 6.06535 20.9273 5.70234C21.127 5.58212 21.3215 5.45339 21.5009 5.30383C21.5227 5.28489 21.5293 5.27543 21.5236 5.26833C21.5203 5.2636 21.5047 5.26596 21.4829 5.27401C20.6419 5.53763 19.5202 6.23195 18.7359 6.43357C18.6791 6.44919 18.4605 6.5074 18.3156 6.53154C18.3156 6.45581 18.3218 6.30436 18.3218 6.27123C18.3237 6.17941 18.319 6.09611 18.319 6.01802C18.4079 5.95649 18.4988 5.86325 18.6228 5.76718C19.2949 5.23709 19.7431 3.7202 20.2036 2.97145C20.2083 2.9653 20.224 2.94021 20.2178 2.93548C20.2116 2.92933 20.1998 2.93785 20.1818 2.94684C19.3725 3.32784 18.9891 4.99761 18.266 5.47421C17.6772 5.8642 16.9374 6.1619 16.5399 6.71186C16.4944 6.77529 16.395 7.01714 16.3136 7.03938C16.2814 7.04601 16.1636 7.15155 16.1016 7.11747C15.8862 6.98732 15.6931 6.57319 15.5455 6.34128C15.3325 6.00051 15.3902 5.01133 15.4347 4.64548C15.5029 4.07848 15.9695 3.3463 16.2422 2.88011C16.2488 2.87064 16.2516 2.86496 16.2488 2.86117C16.245 2.85644 16.237 2.86212 16.2265 2.86591C16.1177 2.90945 15.8526 3.14988 15.8077 3.19816C15.4272 3.63264 14.9368 4.35772 14.899 4.96022C14.8583 5.52817 15.0144 6.79043 15.3836 7.16338C15.4499 7.2429 15.5161 7.312 15.5985 7.37258C16.0505 7.77819 16.2611 8.38211 16.4921 8.96757C16.5654 9.16162 16.6435 9.31165 16.7699 9.48724C17.1831 10.1073 17.9673 10.4423 18.6701 10.7921C19.3356 11.1215 20.1184 11.4632 20.8662 11.6999C21.3381 11.8504 21.9609 12.0028 22.526 12.1069C22.739 12.1486 22.9283 12.1888 23.0353 12.2787C23.111 12.3431 23.1593 12.6114 23.2028 12.744C23.2573 12.9134 23.3212 13.08 23.3671 13.2087C23.4916 13.5552 23.5673 13.8888 23.697 14.1411C23.8796 14.4771 24.3122 14.6224 24.7098 14.7706C24.7619 14.7786 25.0066 14.8529 25.2919 14.8368C25.4765 14.8302 25.4993 15.0498 25.4893 15.1525C25.4813 15.3007 25.5016 15.4001 25.4988 15.5473C25.4912 15.9273 25.5243 15.9282 25.4751 16.2548C25.4656 16.3296 25.3771 16.5587 25.3175 16.7461C25.3047 16.7745 25.2872 16.8048 25.2815 16.8313C25.2437 17.0145 25.2214 17.3543 25.1613 17.5403C25.1069 17.7343 24.8693 18.3278 24.8092 19.2318C24.7841 19.5972 24.6502 19.9436 24.4845 20.2939C24.4069 20.4586 24.4206 20.5485 24.36 20.734C24.2976 20.9281 24.2607 21.0772 24.1968 21.1789C24.1707 21.2187 24.0628 21.3768 23.9961 21.4307C23.634 21.7123 23.4045 21.904 23.0992 22.2164C22.979 22.3366 22.8521 22.639 22.7395 22.7006C22.6638 22.7422 22.2364 23.0129 22.1337 23.0437C21.4947 23.2359 21.3457 23.3419 20.8359 23.658C19.7365 24.341 12.1165 24.3064 12.258 29.6452C12.258 29.7057 12.2429 29.8297 12.2268 29.9575C12.1974 30.2202 12.1889 30.5065 12.2504 30.8596C12.3702 31.6178 12.5808 32.314 12.8591 32.8948C13.3338 33.8806 13.7763 34.4519 14.4792 35.0875C14.6571 35.247 14.8616 35.381 15.0376 35.5513C15.3869 35.8945 15.571 36.5547 15.8384 37.0043C15.8668 37.0346 15.8266 37.9438 15.8266 37.9542C15.8209 37.9793 15.8096 38.135 15.7902 38.3163C13.0025 38.7773 10.1192 39.1365 7.50049 39.3367V41.3719H31.5522V33.9341C31.3846 33.9734 30.7144 34.2228 30.0201 34.4831L30.0627 34.3885C30.11 34.2702 30.1432 34.1835 30.1503 34.1641C30.2994 33.7145 30.3917 33.2303 30.5554 32.8825C30.6629 32.6572 30.9293 31.9562 30.9293 31.9548C31.165 31.2023 31.2635 30.711 31.3468 30.2155C31.361 30.1066 31.7225 29.6584 31.7225 29.6584C31.8305 29.5178 31.9152 29.329 32.0349 29.1577C32.0349 29.1577 32.6171 27.946 32.6019 26.8991C32.5962 26.7065 32.6563 25.839 32.6492 25.0855C32.6549 25.0429 32.6611 25.0041 32.6611 24.9548C32.6611 24.8114 32.6469 24.6803 32.6303 24.5469C32.6303 24.535 32.6303 24.5223 32.628 24.5109C32.6246 24.4825 32.6256 24.4508 32.6223 24.4224C32.5925 24.2283 32.6351 23.8478 32.6256 23.6746C32.6128 23.4484 32.5333 23.4734 32.5167 23.2392C32.5044 23.0797 32.4533 22.9571 32.4117 22.8085C32.3833 22.6996 32.3217 22.6002 32.2697 22.5037C32.2602 22.4407 32.2541 22.3925 32.2541 22.374C32.2824 21.5632 31.7429 20.5973 31.7287 20.5637C31.4731 19.9739 31.5015 19.9517 31.5441 19.2276C31.5148 18.3425 31.369 17.8621 31.2791 17.6382C31.2426 17.6169 30.9681 17.0277 30.8787 16.836C30.8408 16.7565 30.8361 16.6704 30.855 16.5913C30.9151 16.3381 31.3543 16.2648 31.5309 16.1436C31.6445 16.0693 31.7722 15.8738 31.8253 15.7342C31.83 15.72 31.8323 15.7072 31.8323 15.6892V15.4195C31.8323 15.3982 31.8181 15.3816 31.8153 15.3627C31.8068 15.322 31.82 15.2604 31.8163 15.2141C31.8163 15.2008 31.8163 15.1875 31.821 15.1748C31.9748 14.6977 32.1353 14.2755 31.6804 14.0379C31.4935 13.9371 31.2417 13.894 31.253 13.7066C31.2592 13.5637 31.4424 13.5107 31.5503 13.4392C31.838 13.2518 32.0344 13.0776 32.1973 12.8097C32.2659 12.6928 32.2659 12.3828 32.3487 12.3024C32.4065 12.2446 32.5664 12.1959 32.6734 12.1391C33.0189 11.9621 33.3573 11.8456 33.6654 11.6672C34.4984 11.192 35.3976 10.2786 36.0385 9.62023C36.3542 9.29603 36.862 8.71152 37.0953 8.29029C37.2813 7.94952 37.4475 7.11653 37.4692 6.66596C37.4759 6.55852 37.5009 6.20024 37.5 6.1832C37.5 6.16427 37.4986 6.14534 37.4905 6.14534C37.4825 6.14392 37.4726 6.15196 37.4697 6.1619C37.2487 6.70287 37.0362 7.6859 36.6897 8.14309C36.4318 8.47818 35.658 9.34289 35.2765 9.58852L35.2244 9.62023C35.2363 9.59089 35.2538 9.55019 35.2623 9.52321C35.2793 9.47967 35.2878 9.43187 35.2935 9.39069C35.3825 8.8464 35.6362 8.45973 35.6362 7.53728C35.6362 7.44736 35.8028 7.28644 35.8459 7.21308C36.1393 6.71518 36.1724 6.03695 36.0901 5.52722C36.0356 5.19118 35.5444 4.32175 35.3612 4.11539C35.3456 4.09504 35.0611 3.74954 35.0204 3.79214C35.0024 3.80728 35.0332 3.87733 35.0479 3.90573" fill="#822B2F"/>
<path d="M25.8833 17.085C26.0016 16.9998 25.9259 16.3751 25.9259 16.3575C25.9259 16.3433 25.8416 16.4442 25.8052 16.501C25.7673 16.5592 25.8028 16.8133 25.8028 16.8209C25.8028 16.8304 25.8052 16.8569 25.8066 16.8682C25.8113 16.8763 25.8028 16.8872 25.7924 16.8905C25.7829 16.8928 25.7436 16.944 25.6627 17.0078C25.6618 17.0078 25.5662 17.3183 25.8828 17.0845M31.5746 15.6651C31.4298 15.5312 31.487 15.7143 31.382 15.7626C31.2305 15.8478 31.0966 15.8043 30.8613 15.7626C30.4898 15.436 29.9715 15.9803 29.4983 15.7238C29.4557 15.6594 29.5248 15.6102 29.5617 15.5629C29.9829 15.5279 29.6989 15.6566 30.1415 15.5648C30.1415 15.5648 30.3346 15.5421 30.318 15.49C30.3028 15.4408 29.9857 15.5738 29.6294 15.4015C29.2507 15.3598 29.4992 15.7233 29.2252 15.8118C29.1196 15.845 29.2062 16.0177 29.2943 15.9728C29.3818 15.9287 29.4751 15.8024 29.83 15.8909C30.0184 16.0897 30.1093 15.6438 30.2484 16.0565C30.2768 16.1417 30.3303 16.0485 30.3303 16.0485C30.3189 15.9586 30.3568 15.9278 30.3956 15.8814C30.4415 15.9316 30.4751 16.0201 30.565 16.0234L30.6294 15.818C30.7231 15.9363 30.8959 15.9969 31.0667 15.996C31.2665 15.8975 31.5949 15.9439 31.5755 15.6646M29.5266 13.5268C29.6175 13.6186 29.7974 13.6144 29.8925 13.5505C29.9938 13.4818 30.0421 13.5585 30.1504 13.5419C30.2593 13.524 29.9375 13.2949 29.9157 13.3914C29.9015 13.4738 29.8428 13.4151 29.7657 13.4492C29.6596 13.4653 29.6123 13.3403 29.5385 13.2949C29.5361 13.2357 29.5702 13.1955 29.6118 13.1557L29.6535 13.1188C29.7411 13.0384 29.7529 12.9783 29.68 12.8774C29.5995 12.9778 29.5323 12.9551 29.4221 12.9551C29.2895 12.9598 29.2318 13.0119 29.229 13.1501C29.2687 13.2211 29.3861 13.2551 29.353 13.3394C29.2962 13.4624 29.1229 13.4175 29.05 13.3734C28.8267 13.4265 28.5924 13.4586 28.4707 13.6858C28.5531 13.7175 28.5971 13.7095 28.6586 13.6494L28.7121 13.5997C28.731 13.5808 28.7486 13.5713 28.7722 13.5713C29.0467 13.4743 29.326 13.7559 29.5276 13.5273M27.0565 13.7847C26.9666 13.7705 26.9273 13.7374 26.8497 13.7402C26.7622 13.744 27.0026 13.9636 27.0305 13.9741C27.0935 13.9968 27.3221 14.0309 27.3547 14.0309C27.5459 14.0072 27.5838 13.8368 27.659 13.7402C27.5407 13.8254 27.2605 13.816 27.0561 13.7847M27.2927 13.32C27.1469 13.1165 26.8904 13.3332 26.7314 13.4156C26.8284 13.7421 27.0807 13.3048 27.2927 13.32M29.9687 14.2997C29.9394 14.4748 29.8849 14.6248 29.9924 14.7886C30.0501 14.8274 30.3189 15.0536 30.7241 14.9765C31.1463 15.0309 30.8992 14.41 31.4719 14.5486C31.6375 14.5898 31.523 14.4384 31.6565 14.3498C31.6565 14.3498 31.7133 14.2931 31.6517 14.276C31.5893 14.259 31.5429 14.2453 31.4496 14.3773C31.1041 14.3839 30.7208 14.0507 30.469 14.4213C30.6029 14.4994 30.7842 14.259 30.9281 14.4417C30.9527 14.6333 30.7908 14.7891 30.6403 14.7947C30.4557 14.7981 30.4155 14.7891 30.2394 14.7176C29.9962 14.6348 30.1372 14.4668 30.1202 14.3314C30.2328 14.1212 30.4789 14.1941 30.6398 14.0711C30.3966 14.0176 30.069 14.0465 29.9678 14.3006M26.8904 15.9931C26.9056 15.9855 26.9264 15.9808 26.9463 15.9751C26.9212 15.942 26.8762 15.9018 26.8407 15.8833L26.4337 15.6987C26.4323 15.6964 26.4304 15.6954 26.4304 15.6907C26.4034 15.6784 26.3783 15.6613 26.3537 15.6419C26.349 15.6168 26.3409 15.5918 26.33 15.5653C26.3187 15.5444 26.3035 15.5283 26.2903 15.5075L26.2841 15.4801C26.2794 15.4791 26.2747 15.4791 26.2723 15.4772C26.2662 15.4697 26.2628 15.4607 26.2562 15.4536L26.2524 15.3797C26.3499 15.4091 26.5288 15.4981 26.6036 15.5653L26.6585 15.5629C26.6041 15.4351 26.4394 15.3726 26.3542 15.2666C26.295 15.1909 26.2662 15.0962 26.2008 15.0238L26.1961 14.9878C26.2822 15.0044 26.3627 15.0569 26.4233 15.1047L26.4772 15.1C26.4422 15.0375 26.3192 14.8596 26.2311 14.7697C26.242 14.746 26.2595 14.7256 26.2633 14.7024C26.2728 14.6111 26.2004 14.4185 26.1459 14.3361C26.0787 14.3816 25.9685 14.4923 25.8932 14.5784L25.8979 14.5879C25.9296 14.7062 25.9254 14.8435 25.8847 14.9665C25.9012 15.6055 26.411 15.9425 26.8014 16.1001C26.8758 16.1181 26.9515 16.1389 27.0258 16.146C27.0542 16.146 27.0826 16.1536 27.111 16.1602C27.0897 16.1318 27.0693 16.1081 27.0495 16.0778C26.9955 16.0542 26.9609 16.0187 26.8918 15.9941" fill="white"/>
<path d="M28.0123 12.9262L27.849 12.806C27.6957 12.6972 27.5669 12.6607 27.3554 12.6134C26.8906 12.5519 26.6218 12.7194 26.3534 13.037L26.4055 13.0678C26.5143 12.8926 26.627 12.8728 26.8087 12.7923C26.9138 12.7791 27.2072 12.7071 27.2901 12.8444C27.1102 12.8836 26.8111 12.9267 26.7354 13.1312C26.8442 13.0469 27.061 13.002 27.1992 13.0413C27.2863 13.0839 27.3819 13.1548 27.4784 13.2211C27.5007 13.2391 27.5272 13.2495 27.5518 13.2656C27.5362 13.2722 27.512 13.2817 27.5059 13.2912C27.4089 13.5079 27.7359 13.5108 27.7293 13.3432C27.831 13.374 27.9366 13.3811 28.0568 13.3101C28.2068 13.1813 28.0757 13.0081 28.0123 12.9267M25.4897 13.1913C25.4731 13.1747 25.4764 13.1146 25.4599 13.0895C25.351 12.9551 25.2118 12.9154 25.0784 12.8269C24.9728 12.7592 24.8772 12.647 24.7603 12.5599C24.4451 12.3124 24.0906 11.9939 23.6831 11.8964C23.6017 11.8789 23.4067 11.8703 23.3835 11.8964C23.3163 11.9801 23.4981 12.3839 23.516 12.4605C23.5331 12.5235 23.516 12.5897 23.5331 12.6612C23.6041 12.9617 23.8332 13.4246 23.9306 13.7072C23.9979 13.8979 23.9945 14.0319 24.0788 14.1189C24.2018 14.2448 24.6198 14.3527 24.8777 14.3873C24.9421 14.393 25.1309 14.4176 25.1598 14.4024C25.2 14.3849 25.3245 14.1066 25.2762 14.038C25.1976 13.9263 24.8436 14.064 24.6761 14.0546C24.4267 14.0451 24.5066 13.9344 24.43 13.7072C24.3415 13.4492 24.1195 13.2661 24.0135 12.9925C23.9874 12.9168 23.9851 12.8079 23.9496 12.6943C23.9382 12.6645 23.8199 12.4984 23.8966 12.4468C23.9401 12.4137 24.1299 12.6342 24.1649 12.7071C24.181 12.7436 24.2369 13.1189 24.2975 13.1104C24.3623 13.0976 24.3481 12.6891 24.4451 12.7431C24.4853 12.7653 24.4134 13.1141 24.4924 13.1752C24.5412 13.2107 24.6316 13.1582 24.6628 13.0739C24.7021 13.0474 24.6562 12.9348 24.7102 12.9262C24.8209 12.9404 24.7622 13.4246 24.9459 13.3569C25.0244 13.3285 24.944 13.1274 25.0098 13.1099C25.0746 13.0895 25.1565 13.3939 25.1593 13.4246C25.1622 13.4454 25.1536 13.5543 25.1593 13.5571C25.2862 13.6438 25.2682 13.2945 25.3108 13.2722C25.3235 13.2675 25.5938 13.5013 25.591 13.4918C25.6004 13.5737 25.3988 13.648 25.3936 13.6717C25.3486 13.808 25.5389 13.9429 25.5758 13.9367C25.6629 13.9273 25.7027 13.6934 25.7557 13.6717C25.7949 13.6527 25.8361 13.5534 25.7921 13.506C25.7438 13.2907 25.6037 13.3006 25.4892 13.1908M17.9535 31.3259C17.847 31.2795 17.8555 31.412 17.7571 31.4433L17.6946 31.456C17.5777 31.4873 17.5829 31.4996 17.6472 31.6633C17.8673 31.7793 17.9719 31.6667 18.0424 31.4362C18.0424 31.4362 18.06 31.3675 17.9525 31.3259M17.1962 31.7272C17.0845 31.7793 17.0779 31.8635 17.0873 31.9677L17.0921 32.0424C17.1602 32.104 17.2095 32.1182 17.2786 32.0794L17.3164 32.0519L17.3533 32.0282C17.4082 31.9833 17.35 32.0211 17.4584 31.9596C17.5673 31.8981 17.5152 31.8489 17.394 31.7916C17.3372 31.7632 17.2629 31.7518 17.1962 31.7268M18.8882 31.4925L18.8466 31.5436L18.803 31.5928C18.7794 31.6241 18.7481 31.6629 18.7117 31.7007L18.8442 31.8167C19.0321 31.7206 19.1282 31.5838 19.1376 31.3926L19.1201 31.3945C19.0127 31.3983 18.9474 31.4418 18.8882 31.493M21.2996 30.7324C21.089 30.7665 20.9087 30.6827 20.7781 30.8871L20.8552 30.9534C21.0426 31.0575 21.2083 30.9506 21.3711 30.889C21.3948 30.8119 21.3711 30.7878 21.3001 30.7329M20.5566 31.3377C20.5178 31.4111 20.5338 31.456 20.5722 31.5332L20.6115 31.5001C20.7156 31.4187 20.9522 31.5285 20.9664 31.2696C20.8528 31.2364 20.7714 31.1749 20.6399 31.2156C20.6067 31.2544 20.576 31.2913 20.5566 31.3387M20.5178 31.7613C20.3938 31.7518 20.2551 31.8285 20.3152 31.9246C20.4051 32.0751 20.5646 31.9975 20.7023 31.9894L20.7232 31.935C20.6791 31.9085 20.6626 31.9052 20.619 31.8801C20.5656 31.8399 20.5433 31.8186 20.5178 31.7618M19.8419 30.9236C19.7879 31.0315 19.7302 31.0807 19.6194 31.1243L19.5513 31.1602C19.4652 31.2019 19.433 31.217 19.4363 31.28C19.4363 31.2942 19.4377 31.3065 19.442 31.3264L19.4902 31.3566L19.5314 31.385C19.5551 31.3548 19.5858 31.3292 19.645 31.3273H19.7169C19.7236 31.3273 19.7297 31.3273 19.7373 31.3292L19.796 31.3212C19.8641 31.1886 20.0468 31.1673 20.0317 31.0599C20.0293 31.0433 20.0255 31.0192 20.0161 30.9974C19.9962 30.9477 19.893 30.9264 19.8409 30.9231M15.2822 31.6818C15.4195 31.6856 15.4999 31.4205 15.6485 31.3647C15.8085 31.3207 15.9524 31.2416 16.0944 31.173C16.1464 31.0817 16.2189 31.0523 16.2965 31.0523C16.4167 31.0523 16.5473 31.1115 16.6817 31.1091C16.7291 31.1091 16.7764 31.0997 16.8332 31.0784C16.8379 31.0784 16.8427 31.0784 16.8474 31.0793C16.9643 31.0779 17.0642 31.066 17.1437 31.0438L17.1929 31.0268L17.1706 31.0755C17.1309 31.1621 17.0727 31.2412 16.9766 31.2885C16.9359 31.3216 16.8834 31.3335 16.8299 31.3335C16.7352 31.3344 16.6249 31.3022 16.5445 31.3022C16.4498 31.4333 16.199 31.4357 16.2132 31.6084C16.2155 31.6293 16.2198 31.6539 16.2264 31.6756C16.2477 31.7197 16.288 31.7372 16.3429 31.7372C16.3618 31.7372 16.3855 31.7348 16.4091 31.7268C16.5639 31.3841 17.1508 31.7324 17.3604 31.2937C17.493 30.9089 18.006 30.6301 18.1532 30.5781C18.1598 30.5734 18.1598 30.5663 18.1598 30.5582C18.1608 30.526 18.0879 30.465 18.0803 30.3911C18.0779 30.3604 18.0898 30.3287 18.1205 30.3031L18.1915 30.2477L18.2043 30.2534C18.3274 30.3187 18.4234 30.4011 18.5413 30.4366C18.5886 30.4451 18.6303 30.4508 18.6691 30.4508C18.8423 30.446 18.9105 30.358 18.909 30.2946C18.9053 30.2444 18.8617 30.1952 18.7505 30.1952C18.741 30.1952 18.7282 30.1966 18.7051 30.199C18.6402 30.1767 18.5522 30.1739 18.4807 30.1517C18.4537 30.1408 18.4324 30.1469 18.4206 30.1091C18.4182 30.0882 18.4282 30.0835 18.4452 30.0665C18.5323 30.03 18.6203 30.0064 18.7117 29.9671C19.2053 29.774 18.9436 29.6443 19.114 29.4952C19.1594 29.4564 19.219 29.4431 19.2806 29.4431C19.3572 29.4431 19.4415 29.4564 19.5229 29.4564C19.6185 29.4526 19.7098 29.4337 19.7856 29.3381C19.8187 29.2969 19.8547 29.2543 19.8495 29.2065C19.8495 29.1838 19.8424 29.1563 19.823 29.1298C19.8088 29.1204 19.7969 29.1052 19.7832 29.0901L19.7775 29.0796V29.0702C19.8116 28.8477 19.8854 28.7748 19.8769 28.6125C19.8746 28.5595 19.7941 28.5401 19.7681 28.4563C19.601 28.5425 19.5892 28.5936 19.4628 28.7001C19.4723 28.8411 19.4988 28.8705 19.5404 29.0039L19.5489 29.0342L19.5186 29.0323H19.495C19.4571 29.0356 19.4533 29.0356 19.4117 29.0749L19.4481 29.216L19.4093 29.2065C19.3587 29.1876 19.3128 29.1842 19.2721 29.1842C19.0936 29.1842 18.9833 29.3097 18.8821 29.4341C18.7609 29.5917 18.662 29.7484 18.4192 29.7503H18.387C18.3529 29.8355 18.3103 29.8724 18.2251 29.916L18.1551 29.9505C18.0689 29.9865 17.9752 30.0333 17.9468 30.1365L17.9435 30.1507H17.9284C17.6406 30.1815 17.741 30.4063 17.652 30.598L17.6454 30.6098L17.6326 30.6117C17.5994 30.6131 17.5663 30.6202 17.5417 30.623L17.4168 30.7149C17.2113 30.7575 16.9387 30.8498 16.6917 30.854C16.6017 30.8521 16.5199 30.8431 16.4427 30.8162C16.4309 30.8341 16.4058 30.8777 16.3589 30.8805C16.3462 30.8805 16.3343 30.8772 16.3268 30.872L16.2733 30.8498C16.2439 30.8341 16.2155 30.8275 16.1867 30.8233C16.1621 30.8233 16.1379 30.8327 16.1053 30.8498C15.915 30.8583 15.9349 30.9894 15.8308 31.1091C15.7683 31.1782 15.7238 31.2118 15.6755 31.2132C15.6026 31.2099 15.5619 31.1437 15.4971 31.0784C15.4242 31.0149 15.3679 30.987 15.2964 30.987C15.2614 30.987 15.2226 30.9946 15.1913 31.0022C15.0801 31.1848 14.9088 31.182 14.8066 31.307C14.8066 31.3084 14.7687 31.3855 14.7748 31.4314C14.7782 31.4589 14.7782 31.4636 14.808 31.4646C14.8245 31.4646 14.8525 31.4584 14.8922 31.4456C14.9528 31.404 15.0517 31.3368 15.1809 31.3159L15.1895 31.3141L15.1989 31.3207C15.2226 31.3363 15.2358 31.36 15.2358 31.3822C15.2339 31.4627 15.154 31.5526 15.154 31.626C15.206 31.6685 15.2486 31.6837 15.2832 31.6837M16.6836 27.5277C16.5028 27.5334 16.3694 27.6082 16.3746 27.7346C16.3765 27.7639 16.384 27.7975 16.402 27.8339L16.4574 27.8056L16.4621 27.8027C16.5142 27.8027 16.544 27.7994 16.5852 27.7861C16.7253 27.6016 17.1172 27.4714 17.1806 27.3753C17.1744 27.3394 17.1702 27.2939 17.1569 27.2684L17.156 27.2646C17.137 27.2111 17.1195 27.1969 17.066 27.1936C17.0395 27.2598 16.8587 27.5306 16.7598 27.5405C16.7433 27.5381 16.7286 27.5358 16.7134 27.5287H16.6827L16.6836 27.5277ZM16.483 27.0994C16.412 27.1515 16.3713 27.1974 16.2898 27.2442L16.2922 27.249C16.3159 27.2944 16.4115 27.3166 16.4517 27.3152H16.4531C16.5525 27.3058 16.6912 27.1117 16.7011 27.0596C16.668 27.0478 16.641 27.0436 16.6169 27.0436C16.5734 27.0436 16.5364 27.0592 16.483 27.0989" fill="white"/>
<path d="M14.6168 30.5711C14.6168 30.5791 14.6192 30.5881 14.6168 30.5914C14.6604 30.6312 14.6902 30.6587 14.7337 30.6568C14.7574 30.6568 14.7858 30.6482 14.8227 30.6312C14.8355 30.6227 14.8511 30.6132 14.8672 30.6132C14.8894 30.6132 14.9051 30.6227 14.9259 30.6345C15.0073 30.6913 15.0811 30.7055 15.1516 30.7055C15.2312 30.7055 15.3055 30.68 15.3722 30.6686C15.4446 30.6435 15.5913 30.6378 15.7792 30.6127L15.8852 30.5858C15.9941 30.5763 16.0935 30.5365 16.1664 30.4532C16.2374 30.4107 16.3093 30.3955 16.3817 30.3955C16.5318 30.3936 16.6742 30.4499 16.8171 30.4641C16.9961 30.4201 17.2658 30.2616 17.2526 30.0571C17.2497 30.0273 17.2422 29.9975 17.2308 29.9681L17.2251 29.9539L17.236 29.9445C17.2786 29.8981 17.3165 29.8309 17.3576 29.7802L17.3993 29.7282C17.4395 29.6827 17.4864 29.6543 17.5432 29.6534C17.5621 29.6534 17.5858 29.6572 17.6071 29.6614C17.6194 29.6652 17.6307 29.669 17.6449 29.669C17.8191 29.6704 18.0908 29.3311 18.2574 29.2984C18.4088 29.2681 18.4221 29.1962 18.468 29.1072L18.5058 29.0656C18.5418 28.9879 18.61 28.9742 18.6971 28.97C18.7245 28.8299 18.7785 28.8024 18.9148 28.7447C19.0662 28.6718 19.1268 28.6443 19.1718 28.4924C19.1434 28.3883 19.0913 28.1696 18.9967 28.1819C18.9777 28.1819 18.9588 28.189 18.9417 28.1923C18.91 28.27 18.9134 28.3509 18.8977 28.4271C18.8551 28.5662 18.8031 28.6472 18.6455 28.659C18.3691 28.907 18.1248 29.0424 17.8896 29.3107L17.8792 29.3202L17.8674 29.3169C17.839 29.3131 17.8125 29.3103 17.785 29.3103C17.4925 29.3103 17.2583 29.6572 16.9975 29.7305L16.988 29.7338L16.98 29.7291C16.9563 29.7125 16.9563 29.6912 16.953 29.6652C16.9563 29.6572 16.953 29.6501 16.9506 29.6425V29.6212C16.9506 29.6037 16.9497 29.5833 16.9459 29.5568C16.9667 29.4967 17.0065 29.4527 17.0642 29.4361L17.1153 29.4063C17.2242 29.3628 17.2545 29.3192 17.2601 29.209C17.2507 29.1915 17.2521 29.1886 17.227 29.1886C17.1608 29.1858 16.9572 29.2776 16.4158 29.6127L16.404 29.6207L16.3936 29.6127C16.3543 29.5829 16.3495 29.5407 16.3273 29.491C16.3084 29.4603 16.2961 29.4499 16.2719 29.4357C16.2047 29.4584 16.1455 29.4679 16.1082 29.5067L16.0977 29.5152L16.0854 29.5105C16.0083 29.4773 15.9496 29.4631 15.9032 29.4631C15.6666 29.4546 15.7092 29.8332 15.4091 29.8489C15.3779 29.8489 15.3414 29.847 15.3003 29.8332C15.234 29.8034 15.208 29.7547 15.2056 29.7088C15.2032 29.6378 15.2401 29.5687 15.2378 29.5303C15.2354 29.5067 15.2283 29.4906 15.1171 29.4906H15.0669C15.0262 29.4929 15.0291 29.5 14.9836 29.5223L14.8946 29.5682C14.8378 29.6061 14.7872 29.6439 14.756 29.7372C14.6443 29.846 14.4076 29.8011 14.4218 29.9871L14.4275 30.0315C14.4464 30.0722 14.4786 30.0808 14.533 30.0808H14.5756C14.6197 30.0581 14.6859 30.0031 14.7569 30.0003C14.7995 30.0003 14.8468 30.0254 14.861 30.068L14.9368 30.0917L15.0418 30.0808C15.0953 30.0192 15.1602 29.9927 15.2217 29.9927C15.3462 29.9927 15.4687 30.0685 15.5752 30.0685C15.6439 30.0661 15.7063 30.0401 15.7683 29.9407L15.7806 29.9217L15.7996 29.9359C15.8365 29.9624 15.8668 29.9691 15.8914 29.9691C15.9605 29.971 16.0192 29.8825 16.0689 29.8153C16.0897 29.7821 16.1134 29.7608 16.1564 29.7428C16.43 29.7883 16.7424 29.7125 16.9942 29.9288L17.0022 29.9364L17.0031 29.9459L17.0022 29.952C17.0022 30.1271 16.7215 30.1489 16.6179 30.2029L16.6013 30.2104L16.589 30.1934C16.5464 30.1257 16.5029 30.1096 16.4565 30.1096C16.4262 30.1096 16.3936 30.1191 16.3666 30.1305L16.305 30.1589C16.2776 30.1636 16.2539 30.1683 16.2341 30.1683C16.1962 30.1697 16.1659 30.156 16.129 30.1267C15.9255 30.1612 15.9397 30.2559 15.7929 30.3823C15.7598 30.3903 15.7286 30.3931 15.6997 30.3931C15.5104 30.3946 15.4266 30.271 15.2406 30.2748C15.2013 30.2748 15.1578 30.281 15.119 30.2857C15.0499 30.3723 14.9708 30.4017 14.8691 30.4457L14.8549 30.4495C14.7271 30.4892 14.604 30.4958 14.6159 30.5725M14.393 31.5607C14.3892 31.485 14.339 31.362 14.3149 31.2806L14.0475 31.4557C14.0153 31.5806 13.9225 31.6403 14.0654 31.7538L14.1175 31.7065C14.144 31.7056 14.1696 31.7273 14.1885 31.7378C14.3068 31.7217 14.3958 31.6762 14.393 31.5603M14.1199 30.9488L14.1748 30.9852C14.2543 31.0444 14.3201 31.0562 14.4067 30.9928C14.4067 30.9086 14.3712 30.8631 14.3026 30.8101L14.2529 30.7713C14.1582 30.7136 14.1336 30.6847 14.1591 30.5848C14.0096 30.555 13.9774 30.6132 13.8771 30.6842C13.8487 30.7041 13.8222 30.7145 13.7985 30.7221C13.763 30.8906 13.7109 30.9739 13.7701 31.1466L13.9566 30.9734C14.0105 30.891 14.0446 30.9 14.1199 30.9488M13.9698 30.1716C14.0645 30.1735 14.1132 30.2441 14.1591 30.2502C14.1951 30.2 14.2325 30.1697 14.2325 30.1764C14.2301 30.1499 14.2027 30.1584 14.1871 30.1125C14.1658 30.0524 14.1516 30.0121 14.1516 29.9705C14.1497 29.9421 14.339 29.7495 14.1099 29.8403C14.0829 29.8517 13.9419 29.8877 13.9419 29.8877C13.7024 29.9539 13.6901 30.0278 13.5387 30.2057L13.5363 30.2086C13.523 30.2218 13.5193 30.2322 13.5193 30.2322C13.5193 30.237 13.5287 30.2545 13.5732 30.2725L13.6253 30.2715C13.6489 30.2715 13.6679 30.2715 13.6854 30.262L13.7109 30.2535C13.7119 30.2535 13.958 30.1712 13.9694 30.1731M14.0848 29.2662L14.0777 29.2757L14.0626 29.2776C13.9429 29.288 13.8472 29.35 13.7583 29.4243L13.6683 29.5095C13.6892 29.5677 13.6967 29.5923 13.7157 29.6373L13.7176 29.6397C13.7337 29.7026 13.7393 29.7405 13.8406 29.6823C13.9116 29.6425 13.9022 29.6132 13.9022 29.6132C13.9022 29.6132 14.0195 29.528 14.1237 29.528C14.1615 29.528 14.242 29.4948 14.242 29.4948C14.2893 29.4437 14.2988 29.4773 14.3163 29.3983L14.3338 29.3188C14.3362 29.2904 14.3892 29.191 14.3418 29.191L14.2131 29.1986C14.1587 29.1976 14.1128 29.2151 14.0844 29.2662M14.3328 28.6514L14.3035 28.5994C14.25 28.5199 14.2055 28.4872 14.1388 28.4858C14.118 28.4858 13.8577 28.7792 13.7223 28.9094H13.7176C13.6721 28.9401 13.6324 28.9865 13.5907 29.0438C13.5751 29.058 13.5642 29.0656 13.5372 29.0793L13.4719 29.1058C13.3915 29.1531 13.3867 29.1754 13.3796 29.2416L13.6115 29.1967C13.8529 28.9766 14.233 28.978 14.3328 28.6514M17.0457 27.6963C16.9109 27.7844 16.8375 28.0276 16.6278 28.1005L16.766 28.2032C17.0391 28.1436 17.3595 28.1426 17.4731 27.879L17.6113 27.6959L17.6279 27.6935C17.6317 27.6935 17.6468 27.6902 17.6639 27.6902C17.6639 27.6902 17.6677 27.6873 17.671 27.6873C17.7065 27.6873 17.7031 27.6987 17.715 27.7172L17.7528 27.7276C17.8082 27.7011 17.7964 27.6821 17.7964 27.6533C17.7964 27.6329 17.7907 27.6083 17.7831 27.57V27.5312C17.6979 27.4725 17.6236 27.4483 17.5607 27.4516C17.4234 27.4516 17.2 27.7072 17.1764 27.8795L17.1735 27.8961L17.1546 27.9027C17.1404 27.9084 17.1262 27.9093 17.112 27.9093C17.0637 27.9112 17.1153 27.8464 17.0836 27.8307L17.0789 27.826L17.076 27.6973H17.0448L17.0457 27.6963ZM16.2331 26.8127L16.2445 26.8042C16.3794 26.7251 16.598 26.6792 16.6042 26.5874C16.5644 26.5505 16.5142 26.5335 16.4574 26.5339C16.3358 26.5349 16.2137 26.6286 16.218 26.7516C16.218 26.7677 16.2217 26.7819 16.226 26.7976L16.2331 26.8132V26.8127ZM13.7919 28.1952C13.7928 28.2141 13.7881 28.233 13.7824 28.2558C13.7445 28.3514 13.701 28.4508 13.6996 28.4952C13.7526 28.4763 13.9163 28.3627 13.9334 28.3107L13.9604 28.252C13.984 28.1923 14.028 28.1431 14.1009 28.1242H14.1132C14.1298 28.1256 14.1435 28.1256 14.1558 28.1256C14.2382 28.1237 14.3082 28.0934 14.3688 28.0546L14.4384 28.0063C14.5236 27.9439 14.604 27.8956 14.7082 27.8946C14.7162 27.8946 14.7261 27.8937 14.7413 27.8946H14.7489L14.7536 27.9008C14.8019 27.9387 14.8445 27.9552 14.8804 27.9543C14.9145 27.9543 14.9491 27.9391 14.9879 27.9051L15.047 27.8421C15.0967 27.7853 15.1393 27.7418 15.2042 27.7418C15.2444 27.7418 15.2827 27.7574 15.3334 27.79C15.4763 27.738 15.5483 27.6755 15.633 27.5676L15.6912 27.4635L15.7068 27.4616C15.7149 27.4568 15.7229 27.4568 15.7338 27.4568C15.7915 27.4554 15.8048 27.5146 15.8062 27.5458C15.8062 27.5633 15.8062 27.5827 15.8071 27.5998C15.8128 27.6518 15.8185 27.6944 15.8673 27.7209C15.8862 27.728 15.9023 27.7304 15.9165 27.7304C15.9496 27.7304 15.9756 27.7153 16.0031 27.6783C16.0443 27.632 16.0504 27.6244 16.0944 27.5894C16.0746 27.569 16.0518 27.5477 16.0471 27.5089C16.0457 27.4767 16.0641 27.4412 16.0982 27.4067C16.1399 27.3707 16.1484 27.3451 16.1474 27.3073C16.1474 27.2969 16.146 27.2827 16.1403 27.2666C16.0779 27.2429 15.9823 27.2145 15.8952 27.2169C15.8228 27.2193 15.7617 27.2377 15.7281 27.2926L15.721 27.3007L15.7115 27.3035C15.4763 27.3707 15.3111 27.6552 15.0267 27.6755L15.022 27.6774L15.0115 27.6741C14.8913 27.6064 14.7919 27.5851 14.7039 27.5851C14.561 27.5851 14.4493 27.657 14.3409 27.7437L14.2122 27.8525C14.1686 27.889 14.1232 27.9249 14.074 27.9505C13.9973 28.0025 13.905 28.0073 13.8255 28.0106C13.7994 28.0106 13.7734 28.0059 13.7507 28.0087H13.7403C13.6882 28.0101 13.6674 28.0229 13.6669 28.0257V28.0291C13.6504 28.048 13.7744 28.0764 13.7909 28.1919M13.984 27.6301L14.0815 27.5799C14.285 27.3527 14.5643 27.294 14.8071 27.1752L14.8213 27.1691L14.8331 27.1757C14.8804 27.1994 14.9183 27.206 14.9514 27.2008C15.048 27.1961 15.1199 27.1251 15.225 27.1109C15.2704 27.1061 15.3187 27.1227 15.366 27.1615C15.4039 27.1724 15.4389 27.1743 15.4725 27.17C15.5942 27.1577 15.6713 27.0754 15.7598 26.9665L15.7986 26.9116C15.8195 26.8856 15.8483 26.869 15.8431 26.825C15.8417 26.8226 15.8417 26.8203 15.8417 26.8193C15.8105 26.8193 15.7309 26.8747 15.6713 26.8837C15.6557 26.8851 15.6363 26.8827 15.6192 26.8667V26.8657C15.6074 26.8548 15.597 26.8373 15.5965 26.8198C15.5918 26.7568 15.6458 26.7204 15.7253 26.6825C15.8786 26.6234 16.0637 26.5188 16.0414 26.4715C16.0405 26.462 16.0234 26.4516 15.9685 26.4591C15.9094 26.4672 15.8332 26.5193 15.7593 26.5254C15.7238 26.5292 15.7054 26.5903 15.6718 26.5822L15.6197 26.6011L15.6121 26.6002C15.5814 26.5917 15.5554 26.5907 15.5364 26.5926C15.3911 26.5973 15.4228 26.7488 15.3504 26.879L15.3391 26.8993L15.3201 26.8927L15.2775 26.8785H15.2756C15.2453 26.8823 15.2103 26.8832 15.1971 26.8856C14.6978 27.2519 14.2254 26.7871 13.8463 27.5117C13.8406 27.5184 13.8397 27.5245 13.8406 27.5321C13.8416 27.5605 13.9164 27.6149 13.984 27.6282M16.0708 27.9439C16.0518 27.9368 16.0329 27.9325 16.0178 27.9344C15.9941 27.932 15.9752 27.9391 15.9562 27.9514L15.9477 27.9576L15.9397 27.96L15.9411 27.9614C15.9364 27.9637 15.9302 27.9661 15.9236 27.9708C15.9113 27.9789 15.9009 27.9865 15.8762 27.9898L15.8649 27.9869C15.8412 27.9784 15.8232 27.9633 15.8142 27.9476L15.6098 28.1474H15.6003C15.4886 28.1597 15.3523 28.2373 15.217 28.242C15.1602 28.2444 15.0986 28.2259 15.0466 28.1819C15.0016 28.1725 14.9637 28.1677 14.9282 28.1677C14.7437 28.1677 14.649 28.3206 14.4502 28.3916C14.4644 28.4654 14.4786 28.4829 14.5274 28.4829C14.5482 28.4863 14.5747 28.4782 14.6111 28.4687L14.6982 28.4366L14.7105 28.4555C14.728 28.4782 14.738 28.5028 14.7403 28.5236C14.7403 28.5748 14.7091 28.6107 14.6717 28.6562L14.6225 28.7035C14.5752 28.7556 14.5487 28.8015 14.5506 28.8559C14.5496 28.8616 14.5534 28.8725 14.5534 28.881C14.5756 28.8966 14.5922 28.9009 14.604 28.9009C14.6372 28.9009 14.6821 28.8583 14.7271 28.8119L14.7905 28.7503C14.8071 28.7248 14.8355 28.7125 14.8568 28.7106C15.0541 28.6756 15.1597 28.5804 15.3499 28.5156C15.3452 28.4948 15.3433 28.473 15.3414 28.4531C15.3405 28.4072 15.3452 28.3693 15.3712 28.3405C15.3963 28.3121 15.4375 28.304 15.4863 28.3017C15.5118 28.3017 15.5402 28.304 15.5752 28.3088L15.7007 28.3258C15.7433 28.3329 15.7849 28.3381 15.8247 28.3362C15.8933 28.3362 15.9572 28.3211 16.0064 28.2747L16.0253 28.2605L16.0452 28.278C16.0973 28.3149 16.1427 28.3301 16.1905 28.3277C16.2284 28.3277 16.2662 28.3182 16.3041 28.3017C16.3978 28.2685 16.4404 28.2562 16.5029 28.2553C16.5247 28.2553 16.554 28.2562 16.5881 28.2591C16.5384 28.1796 16.4849 28.1464 16.3562 28.1417C16.3278 28.1616 16.305 28.1734 16.2804 28.1734C16.2123 28.1687 16.1986 28.109 16.1744 28.066C16.1526 28.0139 16.1271 27.9694 16.0731 27.9458M20.4227 30.0992C20.3933 30.1163 20.3597 30.1484 20.328 30.1721C20.2722 30.21 20.2556 30.2005 20.1922 30.191C20.2073 30.299 20.2334 30.3614 20.3578 30.3728C20.4302 30.386 20.479 30.3794 20.5552 30.4036C20.5774 30.361 20.6073 30.334 20.6499 30.2985C20.6697 30.2639 20.7029 30.2294 20.6972 30.1754C20.6129 30.0495 20.5315 30.0221 20.4227 30.0997M20.8747 28.8322V28.8289C20.8463 28.7106 20.8193 28.7011 20.7109 28.6997L20.585 28.7201C20.5613 28.7201 20.3862 28.8289 20.3593 28.8336L20.2963 28.933C20.2594 28.9965 20.2263 29.0693 20.2272 29.1351C20.23 29.1635 20.2367 29.1896 20.2547 29.2213L20.2641 29.2322L20.2556 29.252C20.1974 29.3216 20.1112 29.2852 20.0644 29.3528C20.0616 29.3685 20.0597 29.3803 20.0597 29.3907C20.0616 29.43 20.08 29.4522 20.1259 29.4901L20.204 29.5526L20.1851 29.5743C20.1169 29.6487 20.0209 29.6477 19.9503 29.6581C19.8983 29.6771 19.8954 29.6912 19.8954 29.7054C19.8926 29.74 19.9546 29.8086 19.9934 29.846C20.0407 29.8148 20.0999 29.7878 20.1638 29.7864C20.1969 29.7864 20.2334 29.7921 20.2651 29.81C20.4378 29.7722 20.5074 29.7201 20.5008 29.6491C20.4998 29.616 20.4837 29.5734 20.443 29.5166C20.3971 29.4475 20.3446 29.386 20.3408 29.3074C20.3361 29.2591 20.3583 29.208 20.4089 29.1569C20.4118 29.1219 20.4364 29.0788 20.4913 29.0788L20.5718 29.0206C20.6314 29.0036 20.8747 28.8914 20.8747 28.8332" fill="white"/>
<path d="M16.3494 28.8167L16.3276 28.8323L16.1572 28.6354C16.1265 28.6317 16.0948 28.5952 16.0654 28.5966C15.8889 28.5995 15.7388 28.6724 15.6659 28.8049L15.6551 28.8266L15.6376 28.8148C15.6153 28.8091 15.5978 28.8044 15.5827 28.8053C15.5192 28.8039 15.4643 28.8574 15.391 28.8891L15.3791 28.892L15.3697 28.8844C15.3247 28.856 15.2902 28.8475 15.2608 28.8484C15.1955 28.8484 15.1378 28.9052 15.0776 28.9715C15.0398 29.0141 15.009 29.0321 14.9749 29.0321C14.9475 29.0321 14.9248 29.0264 14.8931 29.0179C14.9484 29.1788 15.054 29.1854 15.2821 29.2223C15.4265 29.1977 15.6371 29.1466 15.7138 29.0339L15.7185 29.0268L15.7294 29.0259C15.7369 29.024 15.7436 29.024 15.7516 29.024C15.8794 29.024 16.0044 29.1187 16.116 29.1163C16.162 29.1149 16.2088 29.0997 16.2547 29.0548L16.2642 29.0453H16.2737C16.2916 29.0486 16.3077 29.0524 16.3257 29.0524C16.392 29.0486 16.4549 29.025 16.515 28.9942L16.586 28.9488C16.63 28.9213 16.6703 28.9024 16.7119 28.8995C16.7621 28.8995 16.808 28.926 16.8577 28.9715C16.9022 28.9857 16.9495 28.9942 17.0016 28.9923C17.1246 28.9904 17.2572 28.9402 17.3532 28.8943L17.411 28.8536C17.4725 28.7793 17.5255 28.7022 17.5691 28.617L17.5738 28.6075L17.5847 28.6047C17.5989 28.6028 17.6112 28.5999 17.6258 28.5999C17.7148 28.5999 17.8814 28.5564 17.9732 28.5526C17.9922 28.5526 18.013 28.5512 18.031 28.5469C18.2364 28.4821 18.4773 28.244 18.5208 28.1181C18.5208 28.1181 18.3883 28.1295 18.306 28.1276C18.2255 28.13 17.5425 28.2994 17.1284 28.6747C17.0527 28.7268 16.9746 28.7457 16.9012 28.7457C16.7971 28.7486 16.6977 28.722 16.6012 28.7258C16.516 28.7258 16.4355 28.7457 16.3503 28.8177M20.9554 29.2928L20.875 29.2767C20.7851 29.2578 20.8064 29.2607 20.7112 29.3288C20.697 29.3657 20.6923 29.396 20.697 29.4187C20.697 29.4661 20.7235 29.4992 20.8172 29.5418L20.8286 29.5465L20.8333 29.5574C20.8333 29.5612 20.8428 29.5811 20.8428 29.6066C20.8475 29.6516 20.831 29.7193 20.7576 29.7675C20.7879 29.8764 20.8295 29.9015 20.8835 29.9015C20.9318 29.9034 20.9602 29.875 21.0269 29.8333C21.0586 29.8064 21.0231 29.7898 21.0563 29.7718C21.0657 29.7183 21.087 29.6781 21.0856 29.644C21.079 29.4893 21.1315 29.3241 20.9554 29.2928M18.5431 27.8394C18.7371 27.739 19.0722 27.8555 19.0519 27.5047C18.8034 27.3344 18.5341 27.4953 18.4281 27.6955C18.3878 27.7712 18.4271 27.8337 18.491 27.8626L18.5431 27.8389V27.8394ZM18.1252 27.5492C18.3301 27.4877 18.4058 27.1999 18.341 27.128C18.1753 27.1233 18.164 27.1422 18.0532 27.2473L18.0116 27.2818C17.9571 27.3173 17.9642 27.2743 17.9141 27.3434L17.8857 27.43L17.9141 27.4849C17.9534 27.5615 18.0206 27.5985 18.1252 27.5497M17.2311 26.9979C17.234 27.0954 17.304 27.0859 17.4394 27.1285V27.1275C17.4867 27.1417 17.5089 27.1668 17.5265 27.1938C17.6107 27.0584 17.6699 26.9865 17.8128 26.897L17.8071 26.8933C17.7645 26.8649 17.7162 26.8492 17.6604 26.8492C17.526 26.853 17.3655 26.9278 17.2321 26.95C17.2311 26.9671 17.2311 26.9841 17.2311 26.9983M17.4228 26.4985V26.481C17.4214 26.4588 17.4114 26.4432 17.3812 26.4214L17.3371 26.3897C17.3324 26.3864 17.3206 26.3802 17.304 26.366C17.2983 26.3646 17.2898 26.3646 17.2841 26.3613C17.2709 26.3613 17.2638 26.366 17.2444 26.3802L17.2193 26.392L17.2098 26.3977L17.197 26.392C17.1795 26.3864 17.162 26.3854 17.1469 26.384C17.038 26.3793 16.8383 26.7215 16.7947 26.8374C16.8246 26.8398 16.8515 26.8402 16.878 26.8402C17.0375 26.8384 17.3116 26.6083 17.4233 26.4985M18.1062 26.7162C18.1403 26.7219 18.181 26.729 18.2198 26.7371C18.3126 26.6907 18.3225 26.6093 18.3192 26.5184L18.3178 26.463C18.3292 26.4062 18.2468 26.3409 18.1843 26.3684C18.084 26.3977 18.0173 26.508 17.9874 26.5946L17.9628 26.6727L17.9486 26.7248C18.0111 26.712 18.0371 26.7058 18.1058 26.7162M21.3786 29.9853C21.3672 30.061 21.3185 30.0903 21.2697 30.1102C21.3284 30.15 21.388 30.1836 21.4306 30.1907C21.4841 30.1954 21.5064 30.1859 21.5277 30.0847C21.5295 30.0752 21.5305 30.061 21.531 30.0458C21.5376 29.9853 21.5333 29.9228 21.5404 29.866C21.5499 29.8012 21.5792 29.7382 21.6512 29.6928L21.5636 29.5863C21.4216 29.6024 21.3776 29.6374 21.3667 29.7084C21.362 29.7368 21.362 29.7746 21.3715 29.8206L21.3748 29.8963C21.3824 29.9209 21.3866 29.9446 21.3824 29.9673L21.3795 29.9796V29.9862M20.9166 30.3241L20.8863 30.3573L20.8542 30.4093C20.8139 30.4832 20.8101 30.53 20.7339 30.5452C20.7567 30.5821 20.768 30.5844 20.8253 30.5878H20.8428L20.8759 30.5844C21.0118 30.5258 21.1708 30.4803 21.159 30.3658C21.159 30.3469 21.1552 30.3241 21.1457 30.3019C21.1031 30.2792 21.069 30.2716 21.0435 30.2707C20.9947 30.2716 20.9583 30.2612 20.9171 30.3241M18.749 26.986C18.8223 26.9363 18.8862 26.8899 18.8815 26.792C18.8001 26.6831 18.6945 26.6888 18.5975 26.7622C18.5123 26.8171 18.4484 26.9008 18.402 26.996L18.5393 27.0684C18.6122 27.0419 18.6766 27.0267 18.7485 26.986M19.2033 27.3363C19.2175 27.4801 19.2601 27.589 19.44 27.6155C19.484 27.4896 19.4655 27.5161 19.5891 27.4678L19.6719 27.4584C19.7003 27.4517 19.7703 27.43 19.7912 27.4143C19.8513 27.3684 19.8825 27.2548 19.8825 27.1843C19.6279 27.0774 19.3775 27.1214 19.2038 27.3358M19.3396 28.3477L19.4234 28.2814C19.5143 28.1853 19.7528 28.2606 19.7831 28.0045C19.5905 27.802 19.3145 27.9681 19.2611 28.1494C19.3775 28.2407 19.2753 28.2914 19.3396 28.3482M20.52 30.6275C20.3629 30.4193 20.1272 30.5679 20.0448 30.7108C20.0534 30.8093 20.0836 30.8732 20.2034 30.8784C20.2791 30.7714 20.4575 30.8476 20.5205 30.6275M20.0292 30.176L20.0283 30.1732C20.0283 30.1623 20.0179 30.1291 20.0056 30.0842C19.927 29.9848 19.7751 30.052 19.6473 30.0061C19.5843 30.0463 19.2043 30.2366 19.2223 30.4993C19.226 30.5442 19.1882 30.5442 19.2175 30.5882L19.226 30.6043L19.2166 30.6138C19.1408 30.725 19.0192 30.7539 18.9042 30.7946H18.8947L18.8862 30.7899C18.8166 30.7567 18.7603 30.7416 18.7135 30.7416C18.5904 30.7425 18.5166 30.8433 18.4484 30.9366L18.4167 30.9849L18.3897 31.0293C18.3424 31.0795 18.3126 31.1051 18.2761 31.1051C18.2085 31.1003 18.2444 31.0483 18.1739 30.9981C18.1455 31.009 18.0414 31.0525 18.0471 31.1126C18.0471 31.1202 18.0471 31.124 18.0461 31.1221L18.1091 31.16C18.1304 31.2082 18.182 31.3446 18.2828 31.3408C18.2908 31.3422 18.3031 31.3408 18.3244 31.337C18.3585 31.3483 18.386 31.3502 18.4096 31.3502C18.5587 31.355 18.5715 31.1656 18.6713 31.0521L18.6808 31.0445L18.6903 31.0478H18.7504C19.0609 31.045 19.1479 30.841 19.4778 30.7794L19.5607 30.7047C19.5313 30.6053 19.5465 30.5608 19.4906 30.4988L19.4859 30.4893L19.4873 30.4798C19.5072 30.3582 19.6435 30.3544 19.7112 30.3227H19.7135C19.7533 30.3085 19.7784 30.2801 19.7968 30.2574C19.7968 30.2068 19.8252 30.1722 19.8678 30.1722H19.8877L19.9421 30.1708C19.9772 30.1722 19.9999 30.1755 20.0169 30.1755H20.0297M20.8613 25.2088C20.8613 25.2088 20.8632 25.2088 20.8641 25.2069C20.8996 25.1676 20.9412 25.1279 20.9966 25.0966L21.0061 25.0943C21.0298 25.0886 21.052 25.0791 21.0818 25.0706C21.2569 25.0233 21.3398 24.9845 21.398 24.8008C21.3705 24.7549 21.3757 24.7549 21.3696 24.7582L21.3601 24.7592C21.353 24.7592 21.3506 24.7554 21.3487 24.7578C21.3369 24.7559 21.3204 24.7559 21.3024 24.7559C21.1272 24.86 20.8669 25.0077 20.8338 25.1885C20.8338 25.1951 20.8404 25.1965 20.8404 25.197C20.8508 25.2036 20.8594 25.2112 20.8608 25.2098M21.7042 26.2089V26.2079C21.761 26.1071 21.7596 26.0858 21.7799 25.976L21.7771 25.9003C21.7392 25.8719 21.7051 25.8586 21.6872 25.8586C21.6748 25.8586 21.6701 25.8605 21.6644 25.8672C21.5537 25.9779 21.4642 26.1355 21.4761 26.3338C21.4808 26.4569 21.4789 26.4285 21.5101 26.5231L21.5717 26.4616C21.5811 26.3054 21.6356 26.3433 21.7042 26.2089M20.4348 28.4712C20.4632 28.4348 20.4415 28.4097 20.5039 28.3718C20.5607 28.3377 20.5806 28.2985 20.6459 28.2781C20.6256 28.2606 20.6057 28.245 20.5834 28.2289L20.5432 28.191C20.5063 28.1674 20.4769 28.1451 20.4353 28.1451C20.3208 28.1735 20.2569 28.2379 20.1878 28.3297C20.1452 28.3794 20.149 28.3893 20.139 28.4092C20.1267 28.4291 20.112 28.4423 20.0761 28.4598C20.1613 28.5271 20.2332 28.5734 20.2891 28.572C20.3316 28.572 20.3757 28.5498 20.4348 28.4707M19.9099 27.854L19.9516 27.9108C19.9696 27.9345 19.9871 27.9582 20.0084 27.9837C20.1007 28.0765 20.0983 28.0197 20.2166 28.0263C20.2166 28.0263 20.1797 27.9506 20.227 27.8692C20.2659 27.8048 20.2886 27.7509 20.3326 27.6955L20.2995 27.6529C20.2256 27.5426 20.1655 27.5038 20.0534 27.5568C19.9975 27.668 19.8498 27.6893 19.9104 27.8536M19.1262 26.774C19.0874 26.8336 19.1214 26.8767 19.1759 26.9004L19.2256 26.8786C19.3969 26.8062 19.6927 26.888 19.6799 26.6249C19.4608 26.4971 19.2189 26.623 19.1262 26.7735M19.3926 26.127C19.4797 26.0749 19.5502 26.0257 19.5465 25.9187C19.4518 25.8052 19.3349 25.8099 19.2256 25.8875C19.129 25.9476 19.0575 26.039 19.0017 26.1431L19.1569 26.2169C19.2402 26.1866 19.3117 26.1696 19.3936 26.127M20.1338 26.6311C20.1608 26.5534 20.148 26.5695 20.2285 26.5402L20.2796 26.5336C20.2971 26.5288 20.3411 26.5194 20.3529 26.5075C20.3927 26.4801 20.4121 26.4138 20.4126 26.3688C20.2531 26.305 20.0941 26.3329 19.9852 26.4607C19.9928 26.5492 20.0183 26.614 20.1333 26.6311M21.6005 27.2132C21.6479 27.1777 21.6701 27.0916 21.6701 27.0371C21.4761 26.9557 21.2844 26.9898 21.1514 27.1526C21.1609 27.2629 21.194 27.3467 21.3312 27.3684C21.3653 27.27 21.3502 27.2913 21.4458 27.2548L21.5101 27.2454C21.5305 27.2406 21.5859 27.2265 21.6001 27.2123M20.2824 26.845C20.2332 26.9302 20.1073 26.9505 20.1575 27.0769L20.192 27.1228C20.2062 27.1384 20.2204 27.1574 20.2417 27.1749C20.3193 27.2492 20.3193 27.2052 20.4192 27.2104C20.4192 27.2104 20.388 27.1488 20.4277 27.0906C20.4623 27.0362 20.4812 26.996 20.5191 26.9515L20.4916 26.9183C20.4287 26.8331 20.378 26.7991 20.282 26.8445M20.9039 27.5578L20.8835 27.3949C20.8892 27.3069 20.7983 27.3088 20.7496 27.3273C20.7481 27.3983 20.7354 27.4091 20.6563 27.4186L20.6137 27.4281C20.5981 27.4338 20.5825 27.4338 20.564 27.4404C20.5224 27.464 20.5058 27.4934 20.4978 27.5398C20.6133 27.6448 20.7817 27.6013 20.9039 27.5578M20.7879 28.0803L20.8286 28.077C20.8778 28.0202 21.193 28.1054 21.1078 27.9113C21.0245 27.8048 20.8901 27.8815 20.7694 27.891C20.7207 27.9335 20.733 28.0377 20.7874 28.0803M22.8335 24.5841C22.807 24.6243 22.7894 24.6598 22.7435 24.6655C22.4624 24.8264 22.346 24.8676 22.346 24.8676C22.3474 24.8875 22.3057 24.9982 22.2996 25.0209L22.2106 25.1028C22.1879 25.1596 22.1742 25.196 22.1765 25.2353C22.1775 25.2599 22.1316 25.2334 22.1425 25.267V25.2774C22.1358 25.3588 22.0445 25.3712 22.0099 25.4052L21.9039 25.4682C21.8339 25.5278 21.7794 25.5865 21.7794 25.5865L21.8467 25.6423C21.8467 25.6423 22.1231 25.5311 22.328 25.4701C22.399 25.463 22.4274 25.3645 22.5159 25.3129L22.5239 25.3082H22.5334C22.5684 25.3248 22.558 25.3366 22.5651 25.3446C22.5698 25.3555 22.5736 25.3683 22.5784 25.3835L22.5945 25.4459L22.5992 25.4568L22.5954 25.4634C22.6049 25.5439 22.9011 25.6528 22.9811 25.6613C23.037 25.6726 23.0862 25.6755 23.1335 25.6755C23.3351 25.6726 23.4696 25.5714 23.5538 25.3726C23.5065 25.3584 23.4663 25.3489 23.4289 25.3513C23.3886 25.3513 23.3484 25.3607 23.3025 25.3844C23.2433 25.4109 23.2007 25.4445 23.1349 25.4445C23.0971 25.4464 23.0569 25.4332 23.0095 25.4057L22.9825 25.3925L22.9949 25.3655C23.1203 25.1165 23.1785 25.1099 23.461 25.0375C23.6111 25.0209 23.6139 24.9002 23.6172 24.7687C23.5713 24.7521 23.5287 24.745 23.4928 24.745C23.2812 24.744 23.1681 24.9707 22.9627 25.0872C22.9523 25.0929 22.9418 25.0948 22.9319 25.0948C22.8713 25.09 22.7487 25.0607 22.7312 24.9646C22.7312 24.9542 22.7312 24.9447 22.7345 24.9381C22.7568 24.8718 22.8633 24.7989 22.9679 24.7071C23.0758 24.6219 23.1752 24.5192 23.1704 24.4894C23.1704 24.4866 23.1714 24.4866 23.1704 24.4837C23.1704 24.4743 23.161 24.462 23.1406 24.4525C23.1217 24.4449 23.1009 24.4402 23.098 24.4383C23.0729 24.4355 23.0521 24.4326 23.0341 24.4326C22.9712 24.4326 22.9276 24.4724 22.878 24.5273L22.8306 24.5855L22.8335 24.5841Z" fill="white"/>
<path d="M21.3638 24.3926L21.3709 24.3869H21.458C21.4684 24.3869 21.458 24.3869 21.4802 24.3822C21.5105 24.3869 21.466 24.4451 21.5181 24.4797C21.5242 24.4854 21.5304 24.4882 21.5417 24.4854C21.6019 24.4915 21.7277 24.3637 21.8352 24.2837C21.8579 24.2681 21.8825 24.2582 21.9062 24.2582C21.9686 24.2582 22.0008 24.3074 22.0198 24.3197L22.0387 24.332L22.0311 24.3547C21.9767 24.5251 21.971 24.6349 21.7661 24.7021L21.6965 24.775C21.6956 24.8138 21.6847 24.8791 21.6492 24.9478C21.6492 24.9478 21.5805 25.0046 21.4684 25.1276C21.3572 25.2445 21.2459 25.3917 21.2554 25.4291L21.2563 25.4371C21.2563 25.4371 21.2563 25.4381 21.2649 25.4381C21.3297 25.4419 21.5015 25.3378 21.6497 25.2535L21.6534 25.2488H21.6591C21.9772 25.2 21.8991 24.8394 22.0822 24.6477L22.0993 24.6288L22.4249 24.3391C22.4296 24.3154 22.4405 24.2894 22.4599 24.2729C22.5106 24.2293 22.5607 24.2009 22.5924 24.1275C22.5958 24.1214 22.5972 24.1119 22.5958 24.1001C22.5948 24.023 22.6043 23.8658 22.5167 23.7215L22.5106 23.712L22.5139 23.7002C22.5271 23.6543 22.5707 23.6415 22.6104 23.6415L22.7065 23.5875C22.7709 23.5837 22.8078 23.5591 22.8381 23.5094C22.8816 23.455 22.9072 23.446 22.9029 23.4053C22.9001 23.3438 22.8556 23.2917 22.6928 23.2837H22.6057C22.5943 23.2979 22.5754 23.3135 22.5584 23.3263C22.53 23.3736 22.4959 23.4276 22.4353 23.4621L22.4296 23.4659H22.4202C22.4116 23.4659 22.4027 23.464 22.3975 23.4659C22.3345 23.4659 22.3549 23.5639 22.3293 23.5733C22.2621 23.6183 22.2621 23.5979 22.2602 23.641C22.263 23.712 22.2318 23.756 22.2261 23.7622L22.2971 23.9278C22.2843 23.9628 22.2602 24.0144 22.201 24.0296C22.1599 24.0305 21.9857 23.8956 21.9691 23.9529C21.8877 24.2047 21.6189 24.1943 21.3983 24.2213C21.1745 24.2591 21.0453 24.253 21.0595 24.6174C21.058 24.6198 21.0595 24.6198 21.0595 24.6198H21.0628C21.2592 24.6174 21.2388 24.5204 21.3657 24.3916M22.0856 30.1904C22.0193 30.1407 21.9152 30.2292 21.9152 30.2292C21.7202 30.3428 21.5204 30.2368 21.5611 30.5548C21.7495 30.6462 21.8338 30.4659 21.9776 30.401L22.0217 30.4365C22.0799 30.4772 22.1239 30.4659 22.1845 30.4436L22.175 30.3452C22.1741 30.3452 22.1532 30.2363 22.0851 30.1904M21.2952 31.2151L21.2455 31.2179C21.2857 31.3145 21.3184 31.3552 21.4367 31.3608C21.5204 31.3717 21.5361 31.3642 21.5853 31.4186L21.6146 31.3982C21.696 31.3367 21.7102 31.2146 21.7036 31.1299C21.5209 31.0613 21.4494 31.2089 21.2952 31.216M15.7946 31.9927C15.8447 31.8995 15.8641 31.8838 15.9815 31.9312C16.1732 31.828 16.0677 31.7158 16.114 31.5975L16.0322 31.561C15.8978 31.8763 15.4642 31.6595 15.274 31.9846C15.2157 32.1503 15.2493 32.3936 15.3326 32.5337L15.4737 32.5763C15.6086 32.4059 15.4406 32.2071 15.548 32.1124C15.7004 32.1583 15.76 32.0604 15.7941 31.9932M14.4419 32.0268L14.4031 32.0627C14.3747 32.0997 14.3416 32.1262 14.3037 32.1598C14.3747 32.2118 14.4206 32.2369 14.4869 32.1806C14.5167 32.1583 14.5508 32.1252 14.5957 32.1266C14.6681 32.0921 14.7273 32.0916 14.6923 31.9846C14.5787 31.9075 14.5124 31.9534 14.4414 32.0272M16.2844 32.2426L16.3374 32.235L16.3914 32.2539C16.4577 32.3022 16.4359 32.3316 16.4245 32.3637L16.5869 32.3552C16.6508 32.3202 16.6635 32.27 16.6579 32.2118C16.6555 32.1867 16.6531 32.1673 16.6531 32.1493L16.6437 32.1115L16.6465 32.0798C16.6058 32.0689 16.5623 32.0542 16.5216 32.0372L16.433 32.0059C16.3417 31.9742 16.2825 31.9558 16.1836 31.9548L16.1448 32.1725C16.1732 32.2293 16.2182 32.2483 16.2835 32.2435M15.9782 32.3354C15.7236 32.4939 15.8021 32.687 15.7416 32.927C15.8963 33.0065 15.9607 32.9847 15.9867 32.8309L15.9971 32.7566C16.0019 32.7386 16.0123 32.722 16.0194 32.7045C16.0459 32.643 16.0786 32.6345 16.1311 32.617C16.1112 32.5067 16.0956 32.3974 15.9777 32.3349M27.6543 19.3076C27.6638 19.317 27.6685 19.3218 27.678 19.3279C27.694 19.3312 27.694 19.3312 27.7002 19.3312C27.7002 19.3312 27.7035 19.3303 27.7059 19.3312H27.7163L27.7172 19.3303H27.7239C27.7532 19.3208 27.7371 19.3208 27.7428 19.3161C27.7442 19.3128 27.7442 19.3066 27.7523 19.2877C27.7532 19.2687 27.756 19.246 27.7603 19.2214C27.7665 19.176 27.8621 19.0591 27.8621 19.0241C27.8621 19.0193 27.8687 19.0193 27.8545 19.0084C27.8483 19.0023 27.7986 18.9564 27.7863 18.9564C27.7437 18.9611 27.6727 18.98 27.642 19.0023C27.6041 19.0354 27.6022 19.1703 27.6008 19.1717V19.1765C27.6008 19.1765 27.5951 19.1892 27.5913 19.203V19.2063C27.5947 19.2318 27.6325 19.2669 27.6339 19.2749C27.6425 19.2872 27.6481 19.3024 27.6543 19.3071M25.6579 18.5001C25.6154 18.502 25.5936 18.5228 25.5623 18.5498C25.5264 18.5844 25.5216 18.7273 25.5207 18.7297C25.5207 18.7297 25.516 18.7458 25.5131 18.7609V18.7647C25.5155 18.7931 25.5548 18.8291 25.5557 18.8381C25.5623 18.8532 25.5723 18.8655 25.5756 18.8712C25.5851 18.8821 25.5922 18.8901 25.6012 18.8963C25.6154 18.8996 25.6163 18.8996 25.6248 18.8996H25.6461C25.6769 18.8901 25.6617 18.8863 25.665 18.8854C25.6679 18.8792 25.6679 18.8712 25.6736 18.8532C25.6774 18.8333 25.6783 18.8087 25.6816 18.7808C25.6901 18.7335 25.7843 18.6071 25.7843 18.5711C25.7843 18.5673 25.7356 18.5664 25.7252 18.5522C25.7204 18.5498 25.6674 18.5001 25.6579 18.5001M29.2819 19.6038C29.2914 19.6559 29.289 19.7884 29.2976 19.8234C29.3004 19.8282 29.2976 19.8282 29.3089 19.8395C29.3136 19.8457 29.4083 19.884 29.4163 19.884C29.4438 19.8722 29.4533 19.85 29.4675 19.8201C29.485 19.7756 29.4533 19.6322 29.4533 19.6322V19.6294C29.4533 19.6294 29.4533 19.6133 29.4514 19.5963V19.5925C29.4433 19.5655 29.3596 19.5338 29.3543 19.5262C29.3477 19.5144 29.3383 19.4988 29.3335 19.495C29.3241 19.4869 29.3184 19.4822 29.3108 19.4789C29.3004 19.4765 29.299 19.4765 29.2966 19.4765C29.2938 19.4789 29.2938 19.4789 29.2928 19.4789H29.2848L29.28 19.4817C29.2602 19.495 29.2706 19.4926 29.2692 19.4983C29.2692 19.5044 29.2701 19.5125 29.2701 19.5324C29.2748 19.5523 29.2796 19.5773 29.281 19.6034M27.235 18.8565C27.2444 18.8707 27.2567 18.8849 27.2667 18.8944C27.2809 18.9038 27.287 18.8991 27.2927 18.9038H27.3263C27.3471 18.8958 27.3429 18.8944 27.3471 18.8915C27.3504 18.8835 27.3471 18.8844 27.3471 18.8835C27.3519 18.8707 27.3481 18.7817 27.3632 18.6705C27.3897 18.5162 27.4886 18.2952 27.4896 18.2285C27.4886 18.2237 27.4896 18.2199 27.4825 18.2105C27.4754 18.202 27.4612 18.1949 27.4465 18.1977C27.4157 18.1977 27.3973 18.2105 27.3741 18.2261C27.3519 18.2389 27.3306 18.2592 27.3078 18.2867C27.2771 18.3198 27.2444 18.3861 27.2179 18.4485C27.2037 18.4798 27.1942 18.5053 27.181 18.5281C27.1782 18.5394 27.1753 18.547 27.1715 18.5527C27.1677 18.5555 27.1677 18.5574 27.1677 18.5612C27.1677 18.5612 27.1677 18.5631 27.1668 18.5631H27.1649C27.1649 18.5669 27.1625 18.5915 27.1554 18.6284C27.1545 18.6317 27.1545 18.6331 27.1545 18.6355C27.1545 18.6828 27.208 18.7647 27.2137 18.786C27.2198 18.8144 27.2326 18.8428 27.2364 18.857M26.26 18.9611C26.2694 18.9516 26.3073 18.9076 26.3083 18.9029C26.3106 18.8963 26.3187 18.8168 26.3262 18.7245C26.331 18.636 26.3026 18.3733 26.3026 18.352C26.3026 18.3331 26.2846 18.2966 26.2538 18.3203C26.2216 18.3411 26.1686 18.4566 26.1639 18.4651C26.1615 18.476 26.1506 18.5195 26.1459 18.5456C26.1412 18.5754 26.1251 18.661 26.1222 18.6875C26.1161 18.7098 26.0716 18.8328 26.0337 18.91C25.9973 18.9857 25.7943 19.1419 25.816 19.1675C25.8359 19.1959 25.9154 19.2101 25.9613 19.1888C26.0096 19.1675 26.1885 19.0354 26.2108 19.017C26.2306 18.998 26.2533 18.9744 26.26 18.9611M25.9003 17.8489C25.932 17.8172 25.9599 17.7386 25.9822 17.7178C25.9888 17.7064 26.0011 17.6482 26.0058 17.6439C26.0082 17.6425 26.0105 17.6416 26.0105 17.6378C26.021 17.6416 26.0328 17.6416 26.0484 17.6416H26.0697C26.0991 17.6378 26.1421 17.5999 26.1719 17.5914C26.2216 17.5753 26.224 17.5289 26.224 17.4944C26.2226 17.4707 26.224 17.4068 26.2254 17.3571C26.2254 17.3415 26.1994 17.3533 26.2145 17.316C26.2562 17.2308 26.0536 17.3126 26.0536 17.3126C26.0276 17.3969 26.0053 17.4428 25.8899 17.5815C25.8298 17.6525 25.7313 17.7187 25.6901 17.767C25.6698 17.7935 25.6513 17.8143 25.6371 17.8295C25.6258 17.847 25.6191 17.8531 25.6182 17.8721C25.6163 17.8782 25.6168 17.8872 25.6182 17.8957C25.6191 17.9369 25.6277 17.997 25.6338 18.0472C25.6395 18.0817 25.6542 18.1286 25.6688 18.1683C25.6736 18.1873 25.6797 18.2048 25.6849 18.2204C25.6906 18.2275 25.6925 18.2346 25.6958 18.2356C25.6958 18.2393 25.6991 18.2431 25.7015 18.245C25.7029 18.2474 25.7086 18.2559 25.7289 18.2545C25.7318 18.2545 25.7351 18.2531 25.7384 18.2531L25.7469 18.2474C25.7659 18.2294 25.7659 18.2124 25.7659 18.1868V18.1759C25.7659 18.175 25.7644 18.1745 25.7644 18.1731C25.7625 18.1385 25.7711 18.1134 25.7834 18.0235C25.7872 17.989 25.8435 17.9118 25.9007 17.8494M26.5652 19.5201C26.57 19.4917 26.6164 19.4174 26.6254 19.4079C26.6272 19.3956 26.6519 19.4046 26.6713 19.423C26.6888 19.4429 26.7124 19.4339 26.7139 19.4013C26.7176 19.3719 26.7565 19.2498 26.7716 19.211C26.7877 19.1703 26.8426 19.0477 26.8118 18.9914C26.782 18.9384 26.7598 18.8433 26.7626 18.8134C26.7664 18.7841 26.8014 18.7032 26.8014 18.7013C26.8024 18.6984 26.8085 18.6937 26.8109 18.6918C26.8109 18.6918 26.8454 18.6634 26.8819 18.6279C26.9197 18.5972 26.907 18.4405 26.8951 18.3827C26.8824 18.326 26.9093 18.1234 26.9174 18.0798C26.9259 18.0354 27.0026 17.9118 26.9912 17.8811C26.9817 17.8508 26.9415 17.8465 26.8951 17.8754C26.8492 17.9019 26.7115 18.0533 26.6982 18.1182C26.6855 18.183 26.6367 18.2469 26.6462 18.2521C26.6523 18.2535 26.6784 18.3771 26.6855 18.3827C26.6949 18.3898 26.6949 18.4031 26.6855 18.4111C26.6784 18.4197 26.6419 18.37 26.6041 18.4239C26.569 18.4736 26.5397 18.6483 26.5473 18.6899C26.5496 18.7316 26.5899 18.8887 26.5993 18.9327C26.6107 18.9772 26.6703 19.1755 26.6547 19.2356C26.6367 19.2981 26.4133 19.3904 26.4086 19.3942H26.3982C26.3953 19.3942 26.3887 19.3904 26.384 19.3904C26.3792 19.3904 26.3594 19.3942 26.3485 19.3965C26.3352 19.4041 26.2917 19.4652 26.2813 19.4912C26.2718 19.5177 26.241 19.5986 26.2339 19.6284C26.2231 19.6568 26.1677 19.7515 26.1487 19.7752C26.1487 19.7752 25.9869 20.2735 26.1487 20.1699C26.1947 20.1387 26.3016 20.0066 26.3064 20.0042C26.3078 20.0042 26.3111 20.0023 26.3144 20.0023H26.3191C26.3191 20.0023 26.3343 19.9976 26.3504 19.9938C26.3669 19.9891 26.392 19.9219 26.4024 19.893C26.4214 19.8646 26.4583 19.751 26.4687 19.7113C26.4829 19.6772 26.5539 19.5504 26.5643 19.5196M27.2704 21.267C27.3216 21.2424 27.3083 21.1818 27.3509 21.1203C27.3907 21.0587 27.5937 21.1051 27.5947 21.1089C27.5956 21.1089 27.6642 21.0346 27.694 20.9764C27.7295 20.9172 27.8038 20.7066 27.8488 20.6224C27.8961 20.5372 27.9018 20.4842 27.8914 20.4742C27.8677 20.4378 27.8285 20.4506 27.8128 20.4756C27.7963 20.5021 27.6983 20.6995 27.6671 20.7312C27.6425 20.7634 27.5431 20.8685 27.5241 20.8865C27.5014 20.9044 27.4896 20.8959 27.4943 20.8694C27.4953 20.841 27.518 20.7606 27.5426 20.6896C27.5724 20.62 27.6732 20.4387 27.7059 20.3914C27.7343 20.3488 27.7542 20.185 27.7494 20.1524C27.7475 20.1183 27.7352 19.8447 27.7381 19.8239C27.7437 19.8003 27.7381 19.7226 27.757 19.7132C27.7698 19.7061 27.7949 19.6696 27.7949 19.6696C27.7949 19.6696 27.8138 19.6531 27.8157 19.6531C27.8157 19.6531 27.8204 19.6516 27.8204 19.6483C27.8204 19.6483 27.8157 19.6403 27.81 19.6247C27.8015 19.6143 27.7721 19.5892 27.7485 19.6057C27.7276 19.6223 27.6652 19.7302 27.6462 19.7761C27.6301 19.8234 27.5871 19.956 27.5729 20.0113C27.5573 20.0634 27.5128 20.2262 27.5019 20.2669C27.4915 20.3105 27.4508 20.3909 27.447 20.3947C27.447 20.3994 27.4441 20.3994 27.4423 20.3994C27.4366 20.4032 27.4053 20.4373 27.3679 20.4714C27.3301 20.5116 27.2245 20.6058 27.1881 20.6385C27.1479 20.6754 27.0035 20.6896 26.9893 20.6896C26.9751 20.6896 26.9387 20.6825 26.9207 20.6773C26.9018 20.6749 26.9335 20.594 27.0201 20.5088C27.1308 20.3952 27.1715 20.2754 27.1715 20.2646C27.1668 20.2489 27.1715 20.1794 27.1739 20.1396C27.1786 20.1046 27.2288 19.9896 27.2354 19.9706C27.2368 19.946 27.2368 19.8854 27.2354 19.8646C27.234 19.8438 27.2089 19.7998 27.2061 19.7984C27.2061 19.7927 27.2013 19.7875 27.2032 19.7794C27.2032 19.7785 27.2127 19.7501 27.2222 19.7165C27.2364 19.6857 27.3225 19.6299 27.3396 19.6043C27.3552 19.5735 27.3301 19.4704 27.3301 19.4671C27.3301 19.4623 27.323 19.4481 27.3206 19.4434C27.3187 19.4401 27.3187 19.4292 27.3206 19.4278C27.322 19.423 27.3334 19.3767 27.3509 19.3227C27.3651 19.2735 27.3765 19.1367 27.3765 19.1305C27.3765 19.1249 27.3102 19.0974 27.2676 19.1656C27.2335 19.2333 27.119 19.4292 27.1256 19.4344C27.1408 19.4372 27.1715 19.4571 27.1815 19.4609C27.1895 19.4675 27.1815 19.4921 27.1649 19.5153C27.146 19.539 27.1147 19.5944 27.0892 19.6398C27.0655 19.6824 27.0489 19.8258 27.0489 19.831V19.8656C27.0499 19.8783 27.0395 19.8859 27.03 19.8859C27.0191 19.8859 27.03 19.9332 26.9874 19.9503C26.9439 19.9659 26.9623 20.1027 26.9472 20.1519C26.9339 20.2059 26.8667 20.3034 26.8667 20.3199C26.8667 20.337 26.8715 20.3734 26.8734 20.3791C26.8753 20.3886 26.8719 20.398 26.8663 20.4028L26.7124 20.5589C26.7124 20.5589 26.5861 20.7033 26.6272 20.7416C26.6651 20.7748 26.826 20.789 26.8497 20.797C26.871 20.8051 26.7891 20.8727 26.6665 20.947C26.5425 21.0228 26.4583 21.108 26.4696 21.1103C26.4824 21.1127 26.5525 21.1685 26.5809 21.1638C26.6093 21.1591 26.7077 21.1108 26.7285 21.1046C26.7489 21.1018 26.8147 21.0313 26.8497 21.0038C26.8876 20.9802 27.0248 20.8514 27.066 20.8126C27.1095 20.7714 27.2506 20.7336 27.2553 20.7369C27.2648 20.7369 27.2932 20.744 27.3083 20.7464C27.3216 20.7511 27.3282 20.7653 27.3216 20.7748C27.3145 20.789 27.208 20.9309 27.0802 21.0881C26.9538 21.2462 26.818 21.4572 26.818 21.462C26.818 21.4648 26.7688 21.5453 26.7768 21.5505C26.8076 21.5789 26.8431 21.5505 26.8762 21.5486C26.915 21.5458 27.0286 21.4236 27.0797 21.4293C27.1332 21.4293 27.2217 21.2944 27.27 21.2675M29.5233 20.1779C29.5138 20.1221 29.3955 20.1391 29.3917 20.1685C29.3884 20.1808 29.3709 20.2489 29.3709 20.2527C29.3671 20.2622 29.3733 20.4051 29.3709 20.4392C29.3643 20.4808 29.3747 20.6399 29.3614 20.6971C29.3496 20.7554 29.2848 20.9409 29.2725 20.9797C29.263 20.9963 29.2583 21.0185 29.2232 21.0223C29.1877 21.0185 29.183 20.9948 29.1759 20.975C29.1679 20.938 29.1556 20.8708 29.1452 20.8216C29.1414 20.7994 29.1404 20.7554 29.1404 20.708C29.1404 20.6351 29.1414 20.5457 29.1499 20.4941C29.1594 20.4136 29.1688 20.1992 29.1688 20.1699V20.1652C29.1688 20.1477 29.148 20.0554 29.131 20.0042C29.1191 19.9673 29.0372 19.7988 29.0221 19.7837C29.0221 19.7837 28.997 19.5745 28.989 19.5551C28.9757 19.5385 28.899 19.5144 28.8943 19.5693C28.9009 19.645 28.9132 19.823 28.9227 19.8845C28.9331 19.9569 28.9644 20.1699 28.9677 20.2191C28.9733 20.2641 28.9771 20.3621 28.9795 20.3786V20.381H28.9776L28.98 20.3838C28.9781 20.3947 28.9752 20.417 28.9752 20.4217C28.9752 20.4264 28.9733 20.4293 28.9733 20.4359H28.971C28.9681 20.4373 28.9681 20.4387 28.9681 20.4425C28.9681 20.451 28.9653 20.46 28.9601 20.4709C28.9516 20.4946 28.9426 20.5268 28.9341 20.5641C28.9137 20.6361 28.8299 20.7137 28.8063 20.7904C28.7627 20.8898 28.5649 20.9972 28.5294 21.0138L28.474 21.0767C28.4442 21.072 28.4911 20.9939 28.4911 20.9877C28.4911 20.9802 28.5124 20.9215 28.5166 20.9111C28.5261 20.9002 28.5242 20.9489 28.5592 20.7975C28.5895 20.6527 28.4963 20.5542 28.4963 20.4591C28.4963 20.4165 28.4953 20.3852 28.4887 20.372C28.465 20.3057 28.4617 20.0502 28.4452 19.991C28.4357 19.9503 28.4281 19.8514 28.4168 19.8429C28.412 19.8348 28.4026 19.831 28.3997 19.8173L28.3903 19.7761L28.3893 19.7222C28.3893 19.69 28.3907 19.6479 28.3955 19.6166C28.3969 19.5901 28.3969 19.5343 28.3969 19.4813C28.3969 19.4472 28.3969 19.4112 28.3959 19.4008C28.3959 19.3857 28.3779 19.3487 28.3708 19.3426C28.3628 19.3341 28.3604 19.3274 28.3585 19.3142C28.3585 19.3142 28.3491 19.2451 28.3396 19.1675C28.3368 19.1424 28.3268 19.1036 28.3159 19.069C28.2805 19.0392 28.2355 19.069 28.2322 19.0894C28.2246 19.1722 28.1375 19.3431 28.1139 19.4088H28.1271C28.138 19.4136 28.1489 19.4183 28.1588 19.4183C28.1796 19.423 28.1848 19.4401 28.1886 19.4477C28.1896 19.4585 28.1934 19.468 28.1934 19.4779C28.1934 19.4921 28.1896 19.4997 28.1886 19.5149C28.1839 19.5461 28.1759 19.592 28.1711 19.6152V19.6531C28.1711 19.6957 28.1721 19.7525 28.1773 19.7875C28.1844 19.8315 28.2303 19.9853 28.2331 19.991L28.236 20.0052C28.2341 20.0241 28.2218 20.2939 28.2218 20.4028C28.2218 20.4534 28.2251 20.5031 28.2312 20.5324C28.2492 20.6318 28.2379 20.7842 28.2435 20.7946C28.2492 20.8027 28.2492 20.8107 28.2492 20.8183C28.2492 20.8207 28.2492 20.8287 28.2445 20.8344C28.2374 20.8415 28.2374 20.8415 28.236 20.8467C28.2341 20.8505 28.2284 20.8562 28.2232 20.86L28.1787 20.9101C28.1432 20.948 28.1607 21.0062 28.1077 21.0649C28.0121 21.1643 27.7892 21.5855 27.7892 21.7502C27.7892 21.7516 27.7622 21.8922 27.7622 21.8449C27.7698 21.9561 27.8332 22.0806 27.8332 22.1743C27.8332 22.1705 27.9278 22.2595 27.9302 22.1506C27.9302 22.0711 27.916 21.9812 27.9596 21.8449C28.0485 21.5798 28.2042 21.2977 28.5019 21.2665C28.5185 21.257 28.5209 21.2552 28.537 21.2504H28.5455C28.5706 21.2523 28.5739 21.2693 28.5739 21.2764C28.5786 21.285 28.5786 21.293 28.5786 21.2977C28.5786 21.3725 28.5076 21.5675 28.4508 21.7994C28.4021 22.0077 28.369 22.1132 28.3491 22.1989C28.3571 22.1932 28.3978 22.2637 28.4021 22.2604C28.5299 22.2935 28.5535 22.1374 28.5701 22.1194C28.5701 22.1194 28.5734 22.1161 28.5739 22.1132C28.5786 22.1057 28.5805 22.0976 28.5848 22.0848C28.5923 22.0668 28.599 22.0347 28.6094 21.9996C28.626 21.9286 28.6435 21.8363 28.6487 21.745C28.6605 21.5543 28.7282 21.2026 28.7528 21.1231C28.7755 21.0497 28.8692 20.9811 28.9232 20.9423C28.9435 20.9319 28.9516 20.9253 28.9667 20.9215C28.9686 20.9196 28.9762 20.9191 28.9809 20.9191C29.0093 20.9191 29.0282 20.9414 29.0282 20.9645V20.9707C29.0282 20.9958 29.1087 21.355 29.1608 21.7658V21.7753C29.1608 21.7753 29.1286 22.0323 29.1286 22.3234C29.1286 22.3546 29.1286 22.3839 29.1333 22.4157C29.1475 22.6807 29.0813 22.9827 29.1702 23.0011C29.1797 22.9931 29.2138 23.0096 29.2157 22.9798C29.2441 22.9585 29.3103 22.7933 29.3056 22.702V22.6807C29.3028 22.6684 29.3009 22.658 29.3009 22.6476C29.3028 22.5416 29.3652 22.4071 29.3652 22.3541C29.3671 22.2798 29.3974 22.1932 29.3974 22.1658C29.3993 22.1326 29.3993 22.0957 29.3993 22.073V22.0588C29.3993 22.0427 29.4429 21.7843 29.4343 21.6977C29.4258 21.6111 29.3804 21.4781 29.3799 21.4005H29.3401C29.3425 21.3129 29.3799 21.2078 29.3894 21.1827V21.1771C29.3894 21.1487 29.4438 21.0578 29.4438 21.018C29.4457 20.9669 29.5086 20.69 29.5309 20.5201C29.5498 20.3971 29.5143 20.3829 29.52 20.3346C29.52 20.3346 29.5545 20.2518 29.5531 20.2518L29.5257 20.177L29.5233 20.1779ZM30.7009 21.0748C30.7056 21.0654 30.6725 20.9059 30.6928 20.8003C30.7099 20.6952 30.6966 20.4416 30.663 20.3942C30.6275 20.3516 30.7151 20.3072 30.7141 20.3024C30.7046 20.2977 30.7013 20.2873 30.7046 20.2764C30.7075 20.2698 30.6781 20.1704 30.6857 20.1169C30.689 20.0634 30.6824 20.0426 30.681 20.0175C30.6781 19.9953 30.6848 19.9938 30.6781 19.9616C30.6701 19.9257 30.681 19.919 30.6886 19.8978C30.7037 19.8694 30.7075 19.8457 30.7103 19.8457C30.716 19.8457 30.7311 19.8107 30.7529 19.7747C30.7577 19.7633 30.7264 19.5641 30.716 19.4623C30.708 19.3601 30.6488 19.361 30.6488 19.3535C30.6488 19.3478 30.592 19.3648 30.584 19.5683C30.5806 19.6469 30.5627 19.7515 30.5627 19.7553C30.5627 19.7581 30.5593 19.7633 30.5579 19.7681C30.5532 19.7704 30.5295 19.7761 30.5281 19.8074C30.5201 19.8689 30.5281 19.9758 30.5295 19.9872C30.5328 20.0383 30.5328 20.1245 30.5295 20.1434C30.5281 20.1595 30.5238 20.1065 30.5238 20.1103C30.522 20.115 30.5163 20.1183 30.5144 20.123C30.5111 20.1245 30.504 20.1718 30.4907 20.2319C30.4779 20.2906 30.414 20.5102 30.3913 20.575C30.3686 20.6403 30.3913 20.859 30.4339 21.0649C30.4827 21.2684 30.486 21.3242 30.4481 21.3403C30.3913 21.3687 30.2337 21.2088 30.2067 21.1311C30.1817 21.0573 30.0766 20.8917 30.0572 20.8202C30.0359 20.7492 30.0193 20.6877 30.0193 20.6877L30.0165 20.6815C30.0165 20.6806 30.0136 20.6569 30.0136 20.647C30.0136 20.6356 30.0193 20.5324 30.0245 20.4846C30.0312 20.4373 30.0591 20.2224 30.0709 20.1505C30.0794 20.0762 30.0974 19.9716 30.1026 19.9124C30.1059 19.8542 30.0979 19.671 30.0823 19.6284C30.0714 19.5859 30.0468 19.5892 30.0435 19.5953C29.9029 19.5892 29.9545 19.8074 29.9426 19.8348C29.9228 19.8608 29.99 19.9943 29.9781 20.0109C29.9677 20.0317 29.9663 20.079 29.9625 20.0857C29.9587 20.0923 29.9568 20.0998 29.9568 20.1027C29.9568 20.1074 29.954 20.1145 29.9512 20.1159C29.9483 20.1169 29.822 20.2106 29.8059 20.2636C29.7902 20.319 29.7666 20.4127 29.7666 20.4312C29.7666 20.4501 29.7751 20.6749 29.7855 20.7625C29.7969 20.8476 29.8532 21.0341 29.847 21.0805C29.8385 21.1269 29.822 21.1955 29.8158 21.2329C29.812 21.2367 29.812 21.2424 29.812 21.2424C29.812 21.2424 29.7661 21.4714 29.7618 21.7308C29.7609 21.842 29.8646 21.86 29.8821 21.9722C29.9152 22.1956 30.0099 22.5827 30.0439 22.6476C30.0808 22.7153 30.096 22.7564 30.1102 22.7564C30.1234 22.755 30.1613 22.7952 30.1788 22.834C30.2271 22.9297 30.2508 22.9268 30.2957 22.958C30.336 22.9836 30.3359 22.9126 30.3359 22.9027C30.3407 22.8932 30.1608 22.3693 30.0913 21.975C30.0241 21.5812 30.0595 21.3564 30.0595 21.3408C30.0586 21.3276 30.0662 21.284 30.0808 21.2888C30.096 21.2935 30.2209 21.3181 30.2474 21.3938C30.2687 21.471 30.3658 21.8231 30.4131 22.0091C30.4581 22.1951 30.4429 22.2869 30.4604 22.3025C30.4765 22.3196 30.5967 22.4275 30.6337 22.4493C30.6715 22.4682 30.707 22.4871 30.7094 22.4871C30.7113 22.4871 30.7297 22.3485 30.6289 22.0583C30.5234 21.7725 30.5025 21.5036 30.5248 21.4975C30.6147 21.4714 30.8637 21.7057 30.9967 21.9968C31.1278 22.2864 31.1798 22.4024 31.2002 22.3792C31.2522 22.3205 31.1765 22.188 31.1495 22.0219C31.1235 21.8529 30.9394 21.532 30.8315 21.4161C30.7217 21.3001 30.7051 21.0952 30.7028 21.0909C30.6999 21.0862 30.6999 21.0767 30.7028 21.0734M31.133 20.752C31.133 20.752 31.1708 20.744 31.1652 20.7284C31.1429 20.6527 31.2149 20.681 31.2234 20.681C31.23 20.681 31.2456 20.6877 31.2494 20.6934C31.2513 20.6995 31.3881 20.9111 31.4832 21.0322C31.5604 21.1307 31.5921 21.1411 31.6044 21.1345C31.6167 21.1274 31.5258 20.9953 31.5381 20.9025C31.5537 20.8164 31.4747 20.7227 31.4482 20.7118C31.4222 20.7 31.2873 20.566 31.2702 20.5003C31.2527 20.4312 31.1742 20.1178 31.1387 20.0336C31.1008 19.9465 31.1529 19.8963 31.1462 19.8907C31.1387 19.8845 31.1368 19.8708 31.1448 19.8656C31.1519 19.8585 31.1306 19.8135 31.1353 19.8078C31.1401 19.8021 31.1543 19.6815 31.1495 19.6199C31.1495 19.5584 31.1268 19.5409 31.1188 19.5489C31.1112 19.5631 31.0023 19.8566 30.9508 19.9796C30.9001 20.1027 30.9777 20.505 31.0483 20.6119C31.1145 20.7142 31.1306 20.752 31.1334 20.752M24.1302 31.0281C24.1822 31.0295 24.2248 31.0201 24.2532 30.9888C24.2684 30.9344 24.2826 30.9344 24.2802 30.898C24.2774 30.8577 24.2627 30.8237 24.2149 30.7948C24.1818 30.8918 24.1212 30.9486 24.0445 30.9486C23.9816 30.9486 23.912 30.9145 23.8363 30.8596C23.8145 30.8719 23.7922 30.8833 23.7643 30.888C23.6952 30.9235 23.6427 30.9543 23.6484 31.0253V31.03L23.6498 31.0442L23.6422 31.0513C23.6171 31.0788 23.611 31.1024 23.611 31.1223C23.61 31.1853 23.7184 31.2629 23.7922 31.2927L23.8055 31.1621C23.8339 31.0882 23.9058 31.0698 23.9711 31.0698C24.026 31.0684 24.0791 31.0319 24.1302 31.0272M24.0185 31.5005C23.991 31.5634 24.0014 31.5606 24.0308 31.6249L24.0611 31.5947C24.1368 31.5274 24.3223 31.7177 24.3323 31.4919C24.2433 31.4607 24.1837 31.4086 24.0862 31.4399C24.0611 31.4749 24.0317 31.4602 24.0185 31.5005M23.3331 24.3216C23.3724 24.2222 23.3559 24.2392 23.4628 24.2014L23.5367 24.1929C23.5589 24.1867 23.62 24.1706 23.6375 24.1578C23.691 24.12 23.7179 24.0301 23.7194 23.9733C23.4969 23.8871 23.2839 23.9236 23.1287 24.0973C23.141 24.2123 23.177 24.3008 23.3322 24.3221M26.473 17.8825C26.4886 17.8707 26.5297 17.8352 26.5368 17.8162C26.5652 17.7746 26.551 17.7012 26.5321 17.6633C26.3314 17.6965 26.179 17.8091 26.1251 17.9852C26.1743 18.0576 26.2387 18.0988 26.3641 18.0514C26.3561 17.9681 26.3523 17.989 26.4199 17.9199L26.473 17.882V17.8825ZM24.0592 24.9809C23.9522 25.0093 23.8935 25.0675 23.8306 25.1513C23.7899 25.1986 23.7937 25.2033 23.7823 25.2246C23.7728 25.2421 23.7596 25.254 23.7279 25.2705C23.8055 25.3307 23.8699 25.3747 23.9238 25.3732C23.9626 25.3732 24.0033 25.3505 24.0587 25.2786C24.0833 25.2478 24.0634 25.2246 24.1212 25.1877C24.1713 25.1555 24.1922 25.1234 24.2537 25.1011C24.231 25.086 24.2158 25.0703 24.1936 25.0557L24.1557 25.0216C24.1216 24.9994 24.0951 24.979 24.0582 24.9814M23.8642 26.4135C23.8254 26.4618 23.8287 26.4694 23.8178 26.4902C23.8083 26.5077 23.7932 26.5186 23.7634 26.5347C23.8391 26.5948 23.9054 26.6436 23.9565 26.6388C23.9981 26.6388 24.0369 26.6161 24.0909 26.5451C24.1183 26.5139 24.098 26.4907 24.1562 26.4533C24.2097 26.4202 24.2286 26.387 24.2887 26.3657C24.2688 26.3501 24.2494 26.3373 24.2286 26.3208L24.1926 26.2853C24.1567 26.2645 24.1311 26.2436 24.0933 26.2451C23.9891 26.2687 23.93 26.3331 23.8642 26.4135M23.7421 24.6023L23.7913 24.6184C23.8121 24.6221 23.832 24.6288 23.8547 24.6344C23.9574 24.6501 23.9503 24.6217 24.0677 24.5871C24.0677 24.5871 24.0218 24.5606 24.0601 24.5067C24.0909 24.4603 24.1075 24.4295 24.1453 24.3874L24.1074 24.376C24.0189 24.3467 23.9574 24.3467 23.8533 24.4115C23.806 24.4825 23.664 24.5422 23.7425 24.6023M22.4689 27.7354C22.4675 27.7118 22.4642 27.6834 22.4618 27.6573C22.4609 27.6219 22.4609 27.5845 22.4699 27.5409L22.4727 27.5253L22.4883 27.5182C22.5011 27.5158 22.5167 27.504 22.5366 27.4936L22.5915 27.4605C22.6199 27.4273 22.6639 27.4084 22.7202 27.4084C22.8551 27.3582 23.0539 27.2711 23.0407 27.1613C23.0388 27.1329 23.0246 27.0965 22.9895 27.0492L22.9782 27.0378L22.9829 27.0246C23.043 26.7865 23.3265 26.6033 23.5083 26.4599C23.4855 26.4145 23.4742 26.3738 23.4732 26.3336C23.4685 26.246 23.5149 26.1783 23.5788 26.0983L23.6389 26.0614C23.6796 26.0094 23.7061 25.9582 23.7033 25.9052C23.7018 25.8797 23.6928 25.8513 23.6749 25.8257C23.6384 25.7879 23.6024 25.7713 23.5835 25.7713C23.5627 25.7727 23.5471 25.7798 23.5277 25.8281L23.5087 25.8579C23.4926 25.9005 23.4676 25.883 23.4359 25.8896C23.353 25.9582 23.2773 25.9857 23.2087 25.9857C23.0511 25.9824 22.9365 25.873 22.8192 25.8797C22.805 25.883 22.7851 25.883 22.768 25.8882L22.7538 25.8901L22.742 25.883C22.7032 25.8517 22.6776 25.8442 22.6634 25.8442C22.6208 25.8333 22.5981 25.953 22.512 26.0098C22.2129 26.1589 22.0562 26.663 22.068 26.8078C22.068 26.8135 22.0699 26.8173 22.0709 26.8196C22.1655 26.8168 22.5868 26.4774 22.5891 26.4372C22.5939 26.4301 22.5939 26.4277 22.5939 26.4192C22.5986 26.3979 22.5499 26.3814 22.5371 26.3227C22.5371 26.2895 22.5655 26.273 22.5939 26.2645L22.653 26.2441C22.7146 26.2204 22.7685 26.192 22.7926 26.14L22.8021 26.1229L22.8281 26.1267C22.9351 26.158 23.1358 26.264 23.2224 26.3284L23.2451 26.3435L23.2342 26.3672C23.2096 26.4192 23.1694 26.4618 23.115 26.5044C22.9313 26.6336 22.7127 26.715 22.7259 26.9058C22.7283 26.9408 22.7373 26.9815 22.7562 27.0279L22.7609 27.0373L22.7586 27.0482C22.7254 27.1978 22.6341 27.2517 22.5219 27.2517C22.4822 27.2517 22.4405 27.247 22.3941 27.2437L22.2569 27.2214C22.2119 27.2158 22.1717 27.212 22.1371 27.2139C22.0307 27.2158 21.954 27.2432 21.8664 27.335C21.901 27.3682 21.9194 27.4013 21.9204 27.4373C21.9213 27.4581 21.919 27.477 21.9119 27.4988L22.1466 27.3686L22.1622 27.3781C22.2578 27.4444 22.2734 27.5248 22.2758 27.6006V27.61C22.2758 27.6706 22.2749 27.7151 22.2758 27.7501C22.2787 27.806 22.2881 27.8457 22.3307 27.9224C22.4708 27.8547 22.4708 27.8088 22.4694 27.7345M24.2939 28.4193C24.2684 28.6962 23.991 28.593 23.8703 28.7639C23.8135 28.833 23.7785 28.9248 23.7823 29.0147C23.7823 29.0394 23.788 29.063 23.7932 29.0843L23.8074 29.0749C23.9233 28.9944 24.0081 28.8619 24.1278 28.7686L24.1325 28.7615H24.1373L24.1761 28.7606H24.1836C24.1931 28.7606 24.1978 28.7606 24.2106 28.7573H24.2154C24.2475 28.7573 24.2234 28.8235 24.2343 28.8434C24.3195 28.815 24.381 28.7544 24.3777 28.6683C24.3777 28.6626 24.3753 28.6541 24.373 28.6484L24.3848 28.6319L24.3862 28.621C24.4477 28.5916 24.4913 28.5424 24.532 28.4837L24.5665 28.4279C24.6115 28.354 24.5656 28.3739 24.6328 28.3739C24.6588 28.3739 24.682 28.3289 24.7152 28.336C24.7644 28.2878 24.8169 28.2859 24.8074 28.2542C24.8074 28.2456 24.7066 28.2329 24.6953 28.2106C24.4269 28.2277 24.5216 28.2996 24.2944 28.4203M23.477 29.116C23.451 29.1174 23.425 29.1208 23.4079 29.1255C23.2494 29.2211 23.1807 29.2911 23.0127 29.293C22.973 29.293 22.9323 29.2921 22.8859 29.2869C22.6502 29.5093 22.6398 29.6679 22.6398 29.8359L22.8338 29.8681L22.8196 29.7564C22.8083 29.5576 23.0932 29.4947 23.0932 29.4947C23.3516 29.3872 23.4766 29.3726 23.6356 29.1776C23.6024 29.1397 23.5438 29.116 23.4766 29.116M24.1945 29.2519C24.1093 29.2504 24.1718 29.3214 24.0951 29.3815L24.0847 29.391L24.0686 29.3891C24.0412 29.3834 24.0194 29.4298 23.9958 29.4298C23.8329 29.4204 23.5187 29.6452 23.5144 29.6537C23.3994 29.826 23.3606 29.9736 23.1642 30.1222C23.2058 30.153 23.2366 30.1696 23.2683 30.1715C23.2986 30.1729 23.336 30.1611 23.3876 30.1194C23.4321 30.0796 23.4642 30.02 23.5551 30.0153C23.6181 29.7715 23.7851 29.6972 24.0521 29.6414V29.6385L24.1642 29.436C24.4104 29.3773 24.398 29.3815 24.497 29.2183C24.4468 29.2325 24.4061 29.2419 24.337 29.2476L24.1941 29.2523L24.1945 29.2519ZM23.9797 30.41C23.9891 30.34 24.0213 30.2761 24.0696 30.224C24.0942 30.1989 24.1226 30.1743 24.1486 30.1568L24.2054 30.1128L24.1676 29.9859L24.159 29.9883C24.018 30.0148 23.9811 30.083 23.9309 30.153L23.9006 30.207C23.8505 30.2732 23.805 30.3182 23.7302 30.3575C23.6905 30.3826 23.6427 30.3897 23.5968 30.3859C23.5068 30.3915 23.415 30.3631 23.3431 30.3494C23.3071 30.374 23.3033 30.3968 23.3033 30.4323C23.3033 30.4446 23.3062 30.4606 23.3104 30.4763L23.3199 30.551C23.3213 30.5771 23.3213 30.5918 23.3185 30.6135C23.335 30.6197 23.3469 30.623 23.3554 30.623C23.371 30.6206 23.3838 30.6145 23.4018 30.5974L23.4382 30.5473L23.4505 30.5492L23.4884 30.5473C23.5035 30.5492 23.5196 30.5492 23.5329 30.5492C23.5726 30.5473 23.5944 30.5681 23.6077 30.587C23.7435 30.5492 23.9143 30.5222 23.9787 30.411M23.4344 28.5017C23.4534 28.4132 23.5433 28.3644 23.6332 28.3621C23.6725 28.3621 23.7089 28.3734 23.743 28.3905L23.7695 28.3621L23.7908 28.2154L23.8003 28.2092C23.9541 28.0824 23.955 28.1713 24.1538 28.1463C24.1434 28.115 24.1373 28.0828 24.1373 28.0497C24.1259 27.7449 24.3337 27.6616 24.3422 27.3729C24.2963 27.3284 24.2603 27.3019 24.2154 27.3019C24.2083 27.3066 24.1993 27.3066 24.1926 27.3066C24.1538 27.3899 24.1084 27.4723 24.1131 27.5561V27.5703L24.1188 27.592L24.0985 27.5991C23.8486 27.7033 24.0478 27.6985 23.9139 27.9054L23.9025 27.9224L23.8836 27.9148C23.8538 27.9063 23.8268 27.9054 23.8041 27.9054C23.7028 27.9054 23.6493 27.973 23.5958 28.0426L23.5466 28.1098C23.469 28.2064 23.336 28.249 23.3265 28.2982C23.2967 28.5008 23.2096 28.4894 23.0473 28.6437C22.9981 28.6896 22.9503 28.7076 22.9081 28.7081C22.8466 28.7081 22.8087 28.6749 22.7964 28.6607C22.7917 28.6541 22.7889 28.6465 22.787 28.6361C22.7889 28.603 22.8106 28.585 22.8139 28.5807C22.8613 28.5116 22.9162 28.435 22.9105 28.3659C22.9105 28.3502 22.9067 28.3289 22.8996 28.3119L22.8916 28.2953L22.9025 28.283C23.0444 28.1235 23.1486 27.9517 23.2148 27.7558C23.2782 27.6233 23.4155 27.5253 23.5632 27.5125L23.5783 27.5106L23.5878 27.5248C23.6077 27.5461 23.6323 27.557 23.654 27.5674L23.6919 27.5864C23.7165 27.5958 23.7307 27.61 23.7425 27.6233C23.7918 27.5987 23.7974 27.5901 23.7974 27.5395V27.4969C23.7312 27.442 23.7037 27.3786 23.7004 27.3156C23.6943 27.1784 23.7932 27.0473 23.8505 26.9346C23.7795 26.8968 23.7312 26.8764 23.6981 26.8764C23.6484 26.8764 23.6185 26.9143 23.6001 27.0326L23.5882 27.132C23.5788 27.2039 23.5632 27.3166 23.4676 27.3563L23.46 27.3573H23.4553C23.4448 27.3563 23.4363 27.3554 23.4259 27.3554C23.1571 27.3516 23.1017 27.6611 22.8778 27.7946L22.8859 27.9816L22.8797 27.9887C22.8305 28.0535 22.7519 28.0914 22.6895 28.1392C22.6668 28.1515 22.6459 28.1756 22.6199 28.2026C22.6521 28.2376 22.6743 28.2745 22.6776 28.3181C22.6776 28.3607 22.6606 28.4004 22.6237 28.4487C22.5338 28.5519 22.4107 28.5774 22.4183 28.6664C22.4202 28.673 22.4216 28.6806 22.4216 28.691L22.4973 28.7398C22.6384 28.7611 22.8125 28.9243 22.9801 28.9385C23.1741 28.8278 23.3634 28.7133 23.4344 28.5008M31.1836 21.0398C31.1552 21.0327 31.2011 21.2324 31.1741 21.2268C31.2395 21.3498 31.3019 21.5022 31.4898 21.4814C31.4629 21.3403 31.3171 21.2481 31.239 21.1084L31.1836 21.0403V21.0398ZM17.1193 32.5417L17.1633 32.5322C17.2201 32.4991 17.2651 32.4693 17.2566 32.3974C17.16 32.3292 17.1023 32.245 17.0057 32.2043C16.9461 32.1777 16.9092 32.1886 16.8524 32.2137C16.9224 32.3794 16.8912 32.4494 16.7776 32.581L16.7113 32.6567C16.6053 32.7694 16.5788 32.8347 16.6025 32.9937C16.8401 32.9147 16.9603 32.8299 17.1184 32.6468C17.0886 32.5961 17.054 32.5663 17.1193 32.5417M17.8198 33.6653C17.7739 33.6644 17.7299 33.6927 17.6873 33.7221L17.6636 33.733L17.6556 33.7415L17.6532 33.751L17.6456 33.8125L17.6409 33.8395L17.6645 33.8385L17.6683 33.8347C17.7071 33.8347 17.7663 33.8773 17.8274 33.8797H17.8311C17.8728 33.8797 17.9116 33.8527 17.9386 33.7898L17.9433 33.7803L17.9386 33.7708C17.9055 33.6961 17.8629 33.6653 17.8188 33.6653M17.2627 33.5579C17.1169 33.5238 16.9693 33.52 16.8245 33.5153L16.9191 33.8385L17.0677 33.8328C17.0701 33.7547 17.0583 33.7211 17.1643 33.7145C17.2779 33.7159 17.338 33.7301 17.4199 33.6416L17.3621 33.574L17.2627 33.5574V33.5579ZM16.4193 32.9705C16.2641 32.9909 16.2584 33.0718 16.2693 33.2057C16.2764 33.2545 16.2859 33.3037 16.2835 33.351C16.2859 33.4012 16.3043 33.4003 16.2882 33.4348C16.2882 33.4348 16.2996 33.4869 16.3275 33.5072C16.3559 33.5318 16.4808 33.4329 16.4808 33.4329C16.5575 33.3572 16.541 33.2649 16.4771 33.1433L16.4193 32.971V32.9705ZM17.6461 32.8266C17.2097 32.696 17.3716 33.1948 17.2589 33.3203L17.2982 33.3605C17.4449 33.2942 17.5505 33.1769 17.5879 33.0562C17.7284 32.9222 17.905 32.9653 18.047 32.7746C17.8799 32.6278 17.7597 32.6846 17.6461 32.8266M31.7161 12.6772C31.5419 12.824 31.3242 13.1141 31.0866 13.159C30.9555 13.1808 30.5944 13.1448 30.5693 13.0739C30.548 13.0076 30.9886 12.6938 31.0861 12.6446C31.195 12.5854 31.2896 12.5797 31.4364 12.5281C31.5121 12.4988 31.7014 12.3885 31.7487 12.3937C31.8339 12.4065 31.8765 12.46 31.8481 12.5608C31.833 12.6185 31.779 12.6238 31.7156 12.6777" fill="white"/>
</svg>
