<svg width="44" height="44" viewBox="0 0 44 44" fill="none" xmlns="http://www.w3.org/2000/svg">
<rect x="0.5" y="0.5" width="43" height="43" rx="6.5" stroke="#F1F2F2"/>
<path d="M21.8759 36.7517C30.0916 36.7517 36.7517 30.0916 36.7517 21.8759C36.7517 13.6602 30.0916 7 21.8759 7C13.6602 7 7 13.6602 7 21.8759C7 30.0916 13.6602 36.7517 21.8759 36.7517Z" fill="white"/>
<path d="M23.1792 26.2471V22.7195C23.1792 22.7195 23.1869 22.0781 23.024 21.8221C22.8559 21.5635 22.3645 21.5635 22.3645 21.5635H7.0102C7.00761 21.6669 7.00244 21.7704 7.00244 21.8764C7.00244 24.4057 7.63606 26.785 8.74813 28.8721H22.1499C23.055 28.7299 23.1792 28.5902 23.1792 26.2471Z" fill="#025AAA"/>
<path d="M23.0396 20.0862C23.2103 19.8224 23.1689 19.3465 23.1792 19.0983L23.1715 17.1508C23.1818 15.1698 23.1999 14.7095 23.0525 14.3707C22.9387 14.1069 22.5585 14.0552 22.2689 14.0319H9.24473L9.24215 14.0293C8.07835 15.8991 7.31542 18.0457 7.08008 20.35L22.3697 20.3552C22.3671 20.3552 22.8792 20.3293 23.0396 20.0862Z" fill="#025AAA"/>
<path d="M33.206 20.3369C32.9319 20.3886 32.6577 20.492 32.6577 20.6239C32.6577 20.7015 32.7948 20.7817 33.0405 20.8308C34.6206 21.1541 36.025 21.9636 36.6767 23.3627C36.7258 22.8739 36.7517 22.3774 36.7517 21.8757C36.7517 20.2386 36.4827 18.6636 35.9939 17.1895C35.9318 19.2972 34.0413 20.1326 33.206 20.3369Z" fill="#025AAA"/>
<path d="M28.3335 30.082C27.3482 30.082 26.2516 30.082 25.4577 30.082C24.1206 30.082 16.3697 30.082 9.46973 30.082C12.1335 34.0984 16.693 36.7492 21.8758 36.7492C27.4904 36.7492 32.3783 33.638 34.9102 29.0449C34.5792 29.2415 34.2249 29.4018 33.8628 29.5234C32.1378 30.0949 30.0042 30.082 28.3335 30.082Z" fill="#025AAA"/>
<path d="M34.1082 13.781C34.2556 13.8664 34.3953 13.9569 34.5272 14.0552C31.9048 9.82155 27.2212 7 21.8755 7C17.0729 7 12.8057 9.27845 10.085 12.8112C13.7755 12.8112 25.7082 12.8112 28.4315 12.8112C31.0591 12.8112 32.9031 13.1034 34.1082 13.781Z" fill="#025AAA"/>
<path d="M28.8558 21.5215C27.3506 21.5215 27.3506 21.5473 27.3506 22.587V25.6568C27.3506 27.687 27.6247 28.962 29.7583 28.962C31.7833 28.962 32.8514 27.4775 32.8514 25.3723C32.8514 23.1094 31.4833 21.5215 28.8558 21.5215Z" fill="#025AAA"/>
<path d="M28.8014 20.3779C31.1549 20.3779 32.029 18.9478 32.029 17.3857C32.029 15.1228 30.5523 14.0029 28.6644 14.0029C27.379 14.0029 27.3506 14.2098 27.3506 15.3555V19.6486C27.3506 20.3236 27.379 20.3779 28.8014 20.3779Z" fill="#025AAA"/>
<path d="M33.0402 20.831C32.7945 20.7793 32.6575 20.7017 32.6575 20.6241C32.6575 20.4948 32.9316 20.3888 33.2057 20.337C34.0411 20.1327 35.9316 19.2974 35.9937 17.1896C35.6264 16.0801 35.1325 15.0301 34.5273 14.0526C34.3954 13.9543 34.2557 13.8638 34.1083 13.7784C32.9032 13.1008 31.0592 12.8086 28.4316 12.8086C25.7083 12.8086 13.7756 12.8086 10.0851 12.8086C9.78506 13.1991 9.50316 13.6051 9.23937 14.0241L9.24195 14.0267H22.2635C22.5532 14.05 22.9333 14.0991 23.0471 14.3655C23.1945 14.7043 23.1764 15.1646 23.1661 17.1457L23.1738 19.0931C23.1661 19.3414 23.2075 19.8172 23.0342 20.081C22.8764 20.3267 22.3644 20.35 22.3644 20.35L7.07471 20.3448C7.03333 20.7457 7.01264 21.1491 7.00488 21.5577H22.3592C22.3592 21.5577 22.8506 21.5577 23.0187 21.8164C23.1842 22.0724 23.1738 22.7138 23.1738 22.7138V26.2414C23.1738 28.5845 23.0497 28.7267 22.1445 28.8638H8.74799C8.9704 29.2801 9.21092 29.6836 9.47212 30.0767C16.3721 30.0767 24.123 30.0767 25.4601 30.0767C26.254 30.0767 27.3506 30.0767 28.3359 30.0767C30.0066 30.0767 32.1402 30.0896 33.8652 29.5181C34.2299 29.3965 34.5816 29.2362 34.9126 29.0396C35.8592 27.3224 36.4773 25.4008 36.679 23.3577C36.0247 21.9638 34.6204 21.1543 33.0402 20.831ZM27.3506 15.356C27.3506 14.2103 27.379 14.0034 28.6644 14.0034C30.5523 14.0034 32.029 15.1233 32.029 17.3862C32.029 18.9483 31.1523 20.3784 28.8014 20.3784C27.379 20.3784 27.3506 20.3267 27.3506 19.6491V15.356ZM29.7583 28.9646C27.6247 28.9646 27.3506 27.6896 27.3506 25.6595V22.5896C27.3506 21.55 27.3506 21.5241 28.8557 21.5241C31.4833 21.5241 32.8514 23.112 32.8514 25.375C32.8514 27.4801 31.7833 28.9646 29.7583 28.9646Z" fill="white"/>
</svg>
