<svg width="44" height="44" viewBox="0 0 44 44" fill="none" xmlns="http://www.w3.org/2000/svg">
<g id="logo-utica 1" clip-path="url(#clip0_5087_444)">
<g id="Capa 1">
<path id="Vector" d="M37 0.5H7C3.41015 0.5 0.5 3.41015 0.5 7V37C0.5 40.5899 3.41015 43.5 7 43.5H37C40.5899 43.5 43.5 40.5899 43.5 37V7C43.5 3.41015 40.5899 0.5 37 0.5Z" stroke="#F1F2F2"/>
<path id="Vector_2" d="M34 4H9C6.79086 4 5 5.79086 5 8V35C5 37.2091 6.79086 39 9 39H34C36.2091 39 38 37.2091 38 35V8C38 5.79086 36.2091 4 34 4Z" fill="#0079AA"/>
<path id="Vector_3" d="M21.5001 20.1398C23.1127 20.1398 24.4201 18.8325 24.4201 17.2198C24.4201 15.6071 23.1127 14.2998 21.5001 14.2998C19.8874 14.2998 18.5801 15.6071 18.5801 17.2198C18.5801 18.8325 19.8874 20.1398 21.5001 20.1398Z" fill="white"/>
<path id="Vector_4" d="M18.58 21.14V25.78C18.58 27.39 19.89 28.7 21.5 28.7C23.11 28.7 24.42 27.39 24.42 25.78V21.14H18.57H18.58ZM17.56 20.93V17.22C17.56 15.05 19.33 13.28 21.5 13.28C23.67 13.28 25.44 15.05 25.44 17.22V20.93H31.21V17.22C31.21 11.85 26.86 7.5 21.49 7.5C16.12 7.5 11.77 11.85 11.77 17.22V20.93H17.54H17.56Z" fill="white"/>
<path id="Vector_5" d="M25.44 22.25V25.78C25.44 27.95 23.67 29.72 21.5 29.72C19.33 29.72 17.56 27.95 17.56 25.78V22.25H11.79V25.78C11.79 31.15 16.14 35.5 21.51 35.5C26.88 35.5 31.23 31.15 31.23 25.78V22.25H25.46H25.44Z" fill="white"/>
</g>
</g>
<defs>
<clipPath id="clip0_5087_444">
<rect width="44" height="44" fill="white"/>
</clipPath>
</defs>
</svg>
