<svg width="44" height="44" viewBox="0 0 44 44" fill="none" xmlns="http://www.w3.org/2000/svg">
<path fill-rule="evenodd" clip-rule="evenodd" d="M5.65843 18.2695C5.64161 18.2812 5.62155 18.2873 5.6011 18.2869C5.57411 18.2861 5.54849 18.2748 5.52963 18.2553C5.51077 18.2359 5.50015 18.2099 5.5 18.1827C5.5 18.1653 5.50308 18.1504 5.50863 18.1374L5.5148 18.1299C8.36903 11.5767 14.8764 7 22.4417 7C30.0094 7 36.5168 11.5798 39.3717 18.1393L39.3742 18.1448C39.3827 18.1647 39.3848 18.1867 39.3804 18.2078C39.3759 18.2289 39.3651 18.2481 39.3493 18.2628C39.3335 18.2774 39.3136 18.2868 39.2924 18.2895C39.2711 18.2923 39.2495 18.2883 39.2305 18.2782L39.2188 18.2726C37.9039 17.4953 36.0761 17.0145 34.0491 17.0145C31.7109 17.0145 29.6322 17.6572 28.3117 18.6542L28.3055 18.6585C28.2883 18.6716 28.2654 18.6815 28.242 18.6815C28.2186 18.6815 28.1958 18.6716 28.1779 18.6598L28.1724 18.6542C26.8513 17.6578 24.7726 17.0145 22.4312 17.0145C20.093 17.0145 18.0149 17.6572 16.6938 18.6542L16.6882 18.6585C16.671 18.6716 16.6475 18.6815 16.6241 18.6815C16.6007 18.6815 16.5841 18.6728 16.5662 18.6629L16.5545 18.6554C15.2371 17.6591 13.1553 17.0145 10.8139 17.0145C8.79809 17.0145 6.97951 17.4903 5.66706 18.2609L5.65843 18.2695Z" fill="#E31B23"/>
<path fill-rule="evenodd" clip-rule="evenodd" d="M23.3951 18.4116V18.3942C23.395 18.3722 23.3866 18.351 23.3716 18.3349C23.3566 18.3188 23.3362 18.3089 23.3143 18.3074H23.3112C22.7542 18.2406 22.1915 18.2348 21.6332 18.29L21.6246 18.2913C21.6034 18.294 21.5839 18.3046 21.57 18.321C21.5561 18.3374 21.5488 18.3584 21.5494 18.38L21.5463 18.3843L21.5494 33.5735C21.5486 33.9895 21.3839 34.3881 21.0916 34.6821C20.7992 34.9761 20.403 35.1414 19.9897 35.1419C19.6679 35.1415 19.354 35.0408 19.0912 34.8538C18.8284 34.6667 18.6296 34.4024 18.5219 34.0972L18.5195 34.094C18.4579 33.9091 18.3401 33.7483 18.1828 33.6343C18.0256 33.5203 17.8367 33.4589 17.6429 33.4588C17.5004 33.4588 17.36 33.492 17.2324 33.5558C17.1049 33.6196 16.9938 33.7122 16.9078 33.8265C16.8218 33.9407 16.7633 34.0734 16.7368 34.2143C16.7103 34.3551 16.7166 34.5002 16.7551 34.6381L16.7576 34.6456C16.9824 35.3299 17.4156 35.9256 17.9957 36.3482C18.5759 36.7709 19.2736 36.9989 19.9897 37C20.8924 36.9988 21.7577 36.6375 22.396 35.9951C23.0342 35.3528 23.3933 34.4819 23.3945 33.5735V18.4116H23.3951Z" fill="#E31B23"/>
</svg>
