<svg width="44" height="44" viewBox="0 0 44 44" fill="none" xmlns="http://www.w3.org/2000/svg">
<path d="M33.1447 15.37C31.7794 15.1609 30.4202 14.8348 29.0489 14.7579C22.5073 14.3827 15.9626 14.0751 9.41787 13.7429C9.11515 13.7275 8.81244 13.7459 8.50972 13.7244C6.83571 13.6106 6.66014 13.2261 7.45325 11.765C8.5733 9.69493 9.94459 8.64603 12.5449 9.10435C20.4821 10.507 28.4798 11.5589 36.4231 12.9247C39.5713 13.466 39.6682 14.0628 37.6097 16.5666C31.8067 23.629 25.4618 30.1315 18.3328 35.8128C17.4277 36.5356 16.4499 37.2062 15.4147 37.7106C14.0585 38.3719 13.3168 37.8921 13.4198 36.3572C13.5741 34.1148 13.9102 31.8817 14.2098 29.6486C14.6639 26.2497 15.1573 22.8538 15.6266 19.458C15.8475 17.8493 18.7173 15.6253 20.3005 15.9729C20.5729 16.0314 20.9089 16.8127 20.8605 17.2187C20.4246 20.8268 19.9069 24.4256 19.4226 28.0276C19.3651 28.4613 19.3469 28.9011 19.5074 29.4671C24.708 25.5453 28.8734 20.6145 33.3142 15.9699C33.2567 15.7699 33.1992 15.57 33.1447 15.37Z" fill="#36255E"/>
</svg>
