<svg width="52" height="52" viewBox="0 0 52 52" fill="none" xmlns="http://www.w3.org/2000/svg">
<path d="M37.7434 24.3645C37.2667 26.477 36.8334 27.0837 35.4684 27.0837C33.6701 27.0837 32.3484 25.8378 32.3484 24.3537C32.3484 22.8695 33.8001 21.667 35.5984 21.667C37.7217 21.667 38.2417 22.2087 37.7434 24.3645Z" fill="#F5F0EB"/>
<path d="M14.2567 24.3645C14.7333 26.477 15.1667 27.0837 16.5317 27.0837C18.33 27.0837 19.6517 25.8378 19.6517 24.3537C19.6517 22.8695 18.2 21.667 16.4017 21.667C14.2783 21.667 13.7583 22.2087 14.2567 24.3645Z" fill="#F5F0EB"/>
<path d="M11.895 40.2137C13.4117 38.1445 21.6667 34.667 21.6667 34.667H30.3333C30.3333 34.667 38.5775 38.1445 40.105 40.2137C41.9358 42.7162 42.25 46.5837 42.25 46.5837H9.75C9.75 46.5837 10.0642 42.7162 11.895 40.2137Z" fill="#AA9673"/>
<path d="M21.6667 26V35.75C21.6667 38.9567 26.0001 41.1667 26.0001 41.1667C26.0001 41.1667 30.3334 38.9892 30.3334 35.75V26H21.6667Z" fill="#F5F0EB"/>
<path d="M26.0001 9.75C19.7276 9.75 15.1667 13.715 15.1667 19.2292C15.1667 30.0517 20.9951 34.6667 26.0001 34.6667C31.0051 34.6667 36.8334 30.0517 36.8334 19.2292C36.8334 15.1883 32.2726 9.75 26.0001 9.75Z" fill="#F5F0EB"/>
<path d="M26.0001 5.41699C21.6451 5.41699 19.9117 9.75033 16.2501 9.75033C13.9534 9.75033 13.2492 7.38866 15.1667 6.50033C12.6967 7.18283 11.9167 8.64533 11.9167 9.93449C11.9167 12.4262 14.0834 14.0837 14.0834 14.0837C14.0834 18.6662 15.7842 23.8337 15.7842 23.8337C15.7842 23.8337 16.2501 18.1895 16.2501 15.167C16.2501 15.167 19.1859 16.2503 22.7501 16.2503C29.8242 16.2503 31.4167 11.917 31.4167 11.917C31.4167 11.917 32.2292 16.0662 35.7501 17.3337C35.9667 22.0028 36.2051 23.8337 36.2051 23.8337C36.2051 23.8337 37.9167 19.0237 37.9167 15.167C37.9167 10.8012 35.7826 7.58366 31.4167 7.58366C31.4167 7.58366 29.6726 5.41699 26.0001 5.41699Z" fill="#D7C8A5"/>
<path d="M36.5082 23.8333L30.3332 27.0833C30.3332 27.0833 27.7007 24.9167 26.0107 24.9167V20.5833C26.0107 20.5833 28.6216 19.5 30.3441 19.5C33.5941 19.5 37.2666 20.5833 37.2666 20.5833C37.1691 22.8367 36.5082 23.8333 36.5082 23.8333Z" fill="#F44336"/>
<path d="M36.5082 23.8333L30.3332 27.0833C30.3332 27.0833 27.7007 24.9167 26.0107 24.9167V20.5833C26.0107 20.5833 28.6216 19.5 30.3441 19.5C33.5941 19.5 37.2666 20.5833 37.2666 20.5833C37.1691 22.8367 36.5082 23.8333 36.5082 23.8333Z" fill="#F44336"/>
<path d="M36.5082 23.8333L30.3332 27.0833C30.3332 27.0833 27.7007 24.9167 26.0107 24.9167V20.5833C26.0107 20.5833 28.6216 19.5 30.3441 19.5C33.5941 19.5 37.2666 20.5833 37.2666 20.5833C37.1691 22.8367 36.5082 23.8333 36.5082 23.8333Z" fill="#AA9673"/>
<path d="M15.4917 23.8333L21.6667 27.0833C21.6667 27.0833 24.2992 24.9167 25.9892 24.9167V20.5833C25.9892 20.5833 23.3784 19.5 21.6559 19.5C18.4059 19.5 14.7334 20.5833 14.7334 20.5833C14.8309 22.8367 15.4917 23.8333 15.4917 23.8333Z" fill="#AA9673"/>
<path d="M32.5001 23.8333C32.5001 23.8333 31.5251 24.9167 30.3334 24.9167C29.1417 24.9167 28.1667 23.8333 28.1667 23.8333C28.1667 23.8333 29.1417 22.75 30.3334 22.75C31.5251 22.75 32.5001 23.8333 32.5001 23.8333Z" fill="white"/>
<path d="M23.8333 23.8333C23.8333 23.8333 22.8583 24.9167 21.6667 24.9167C20.475 24.9167 19.5 23.8333 19.5 23.8333C19.5 23.8333 20.475 22.75 21.6667 22.75C22.8583 22.75 23.8333 23.8333 23.8333 23.8333Z" fill="white"/>
</svg>
