<svg width="52" height="52" viewBox="0 0 52 52" fill="none" xmlns="http://www.w3.org/2000/svg">
<path d="M16.2499 22.7497H10.8333V18.4163C10.8333 17.8205 11.3208 17.333 11.9166 17.333H12.6208C13.5091 17.333 14.2999 17.8747 14.6358 18.698L16.2608 22.7497H16.2499Z" fill="#32B9BE"/>
<path d="M28.1667 22.7497H22.75V18.4163C22.75 17.8205 23.2375 17.333 23.8333 17.333H24.5375C25.4258 17.333 26.2167 17.8747 26.5525 18.698L28.1775 22.7497H28.1667Z" fill="#32B9BE"/>
<path d="M48.7499 35.7497H5.41658C3.02242 35.7497 1.08325 33.8105 1.08325 31.4163V24.483C1.08325 23.4647 1.78742 22.5872 2.78409 22.3705L10.8333 20.583H36.8332L47.5583 23.053C49.5191 23.508 50.9166 25.2522 50.9166 27.278V33.583C50.9166 34.7747 49.9416 35.7497 48.7499 35.7497Z" fill="#00A096"/>
<path d="M10.8332 40.0833C13.8247 40.0833 16.2498 37.6582 16.2498 34.6667C16.2498 31.6751 13.8247 29.25 10.8332 29.25C7.84163 29.25 5.4165 31.6751 5.4165 34.6667C5.4165 37.6582 7.84163 40.0833 10.8332 40.0833Z" fill="#32B9BE"/>
<path d="M10.8333 37.917C12.6282 37.917 14.0833 36.4619 14.0833 34.667C14.0833 32.8721 12.6282 31.417 10.8333 31.417C9.03833 31.417 7.58325 32.8721 7.58325 34.667C7.58325 36.4619 9.03833 37.917 10.8333 37.917Z" fill="#D7EBEB"/>
<path d="M41.1667 40.0833C44.1582 40.0833 46.5833 37.6582 46.5833 34.6667C46.5833 31.6751 44.1582 29.25 41.1667 29.25C38.1751 29.25 35.75 31.6751 35.75 34.6667C35.75 37.6582 38.1751 40.0833 41.1667 40.0833Z" fill="#32B9BE"/>
<path d="M41.1665 37.917C42.9614 37.917 44.4165 36.4619 44.4165 34.667C44.4165 32.8721 42.9614 31.417 41.1665 31.417C39.3716 31.417 37.9165 32.8721 37.9165 34.667C37.9165 36.4619 39.3716 37.917 41.1665 37.917Z" fill="#D7EBEB"/>
<path d="M41.1666 35.7497C41.7649 35.7497 42.2499 35.2646 42.2499 34.6663C42.2499 34.068 41.7649 33.583 41.1666 33.583C40.5683 33.583 40.0833 34.068 40.0833 34.6663C40.0833 35.2646 40.5683 35.7497 41.1666 35.7497Z" fill="#00A096"/>
<path d="M10.8333 35.7497C11.4316 35.7497 11.9167 35.2646 11.9167 34.6663C11.9167 34.068 11.4316 33.583 10.8333 33.583C10.235 33.583 9.75 34.068 9.75 34.6663C9.75 35.2646 10.235 35.7497 10.8333 35.7497Z" fill="#00A096"/>
<path d="M3.24992 28.167H1.08325V24.917H5.41659L3.24992 28.167Z" fill="#32B9BE"/>
<path d="M49.8333 28.167H47.0599C46.1283 28.167 45.3049 27.5712 45.0016 26.6828L44.4058 24.917H47.6558C48.8474 24.917 49.8224 25.892 49.8224 27.0837V28.167H49.8333Z" fill="white"/>
<path d="M36.8332 22.7501C36.5082 22.7501 36.1832 22.5985 35.9665 22.3168L29.4665 13.6501C29.109 13.1735 29.2065 12.491 29.6832 12.1335C30.1598 11.776 30.8423 11.8735 31.1998 12.3501L37.6998 21.0168C38.0573 21.4935 37.9598 22.176 37.4831 22.5335C37.2881 22.6851 37.0607 22.7501 36.8332 22.7501Z" fill="#00A096"/>
</svg>
