<svg width="52" height="52" viewBox="0 0 52 52" fill="none" xmlns="http://www.w3.org/2000/svg">
<path d="M40.105 40.2137C38.5883 38.1445 30.3333 34.667 30.3333 34.667H21.6667C21.6667 34.667 13.4225 38.1445 11.895 40.2137C10.0642 42.7162 9.75 46.5837 9.75 46.5837H42.25C42.25 46.5837 41.9358 42.7162 40.105 40.2137Z" fill="#964B96"/>
<path d="M33.605 41.297C33.605 38.4478 31.9908 35.3928 31.4275 35.1437C30.7558 34.8403 30.3333 34.667 30.3333 34.667H26V46.5837L30.3333 42.2503L29.25 40.0837L33.605 41.297Z" fill="#AA78B4"/>
<path d="M18.395 41.297C18.395 38.4478 20.0092 35.3928 20.5725 35.1437C21.2442 34.8403 21.6667 34.667 21.6667 34.667H26V46.5837L21.6667 42.2503L22.75 40.0837L18.395 41.297Z" fill="#AA78B4"/>
<path d="M21.6667 24.917V34.667C21.6667 37.8737 26.0001 44.417 26.0001 44.417C26.0001 44.417 30.3334 37.9062 30.3334 34.667V24.917H21.6667Z" fill="white"/>
<path d="M21.6667 24.917V34.667C21.6667 34.667 22.7501 36.8337 24.9167 36.8337H27.0834C29.2501 36.8337 30.3334 34.667 30.3334 34.667V24.917H21.6667Z" fill="#E6D7E6"/>
<path d="M37.7434 24.3645C37.2667 26.477 36.8334 27.0837 35.4684 27.0837C33.6701 27.0837 32.3484 25.8378 32.3484 24.3537C32.3484 22.8695 33.8001 21.667 35.5984 21.667C37.7217 21.667 38.2417 22.2087 37.7434 24.3645Z" fill="#E6D7E6"/>
<path d="M14.2567 24.3645C14.7333 26.477 15.1667 27.0837 16.5317 27.0837C18.33 27.0837 19.6517 25.8378 19.6517 24.3537C19.6517 22.8695 18.2 21.667 16.4017 21.667C14.2783 21.667 13.7583 22.2087 14.2567 24.3645Z" fill="#E6D7E6"/>
<path d="M15.1667 19.2292C15.1667 30.0517 20.9951 34.6667 26.0001 34.6667V9.75C19.7276 9.75 15.1667 15.1883 15.1667 19.2292Z" fill="#E6D7E6"/>
<path d="M36.8333 19.2292C36.8333 30.0517 31.005 34.6667 26 34.6667V9.75C32.2725 9.75 36.8333 15.1883 36.8333 19.2292Z" fill="#E6D7E6"/>
<path d="M25.9999 6.5C20.0199 6.5 14.0833 9.18667 14.0833 15.1667C14.0833 19.7492 15.7841 24.9167 15.7841 24.9167C15.7841 24.9167 16.2499 21.4392 16.2499 18.4167C26.1841 18.4167 31.4166 13 31.4166 13C31.4166 13 32.2291 17.1492 35.7499 18.4167C35.9666 23.0858 36.2049 24.9167 36.2049 24.9167C36.2049 24.9167 37.9166 19.0233 37.9166 15.1667C37.9166 10.8008 35.7824 7.58333 31.4166 7.58333C31.4166 7.58333 29.6724 6.5 25.9999 6.5Z" fill="#964B96"/>
<path d="M35.7501 8.66699C32.8792 7.25866 29.2934 5.41699 26.0001 5.41699C22.7067 5.41699 19.1209 7.25866 16.2501 8.66699C13.3792 10.0862 11.9167 11.5703 11.9167 13.0003C11.9167 15.167 15.1667 17.3337 15.1667 17.3337H36.8334C36.8334 17.3337 40.0834 15.167 40.0834 13.0003C40.0834 11.5703 38.6209 10.0862 35.7501 8.66699Z" fill="#964B96"/>
<path d="M36.1833 16.2398C36.1833 16.2398 31.1349 15.1673 25.9999 15.1673C20.8649 15.1673 15.8708 16.229 15.8166 16.2398L15.5891 15.1782C15.5891 15.1782 20.7458 14.084 25.9891 14.084C31.2324 14.084 36.3458 15.1673 36.3891 15.1782L36.1616 16.2398H36.1833Z" fill="#AA78B4"/>
<path d="M36.2917 16.2507C36.5908 16.2507 36.8333 15.7656 36.8333 15.1673C36.8333 14.569 36.5908 14.084 36.2917 14.084C35.9925 14.084 35.75 14.569 35.75 15.1673C35.75 15.7656 35.9925 16.2507 36.2917 16.2507Z" fill="#AA78B4"/>
<path d="M15.7084 16.2507C16.0076 16.2507 16.2501 15.7656 16.2501 15.1673C16.2501 14.569 16.0076 14.084 15.7084 14.084C15.4093 14.084 15.1667 14.569 15.1667 15.1673C15.1667 15.7656 15.4093 16.2507 15.7084 16.2507Z" fill="#AA78B4"/>
<path d="M36.8334 17.3333C36.8334 17.3333 34.0926 21.6667 26.0001 21.6667C17.9076 21.6667 15.1667 17.3333 15.1667 17.3333C15.1667 17.3333 20.8001 16.25 26.0001 16.25C31.2001 16.25 36.8334 17.3333 36.8334 17.3333Z" fill="#964B96"/>
<path d="M27.0833 39.0007H24.9166L23.8333 38.4807L24.9166 36.834H27.0833L28.1666 38.4807L27.0833 39.0007Z" fill="#964B96"/>
<path d="M24.9167 42.6617C25.5342 43.7125 26.0001 44.4167 26.0001 44.4167C26.0001 44.4167 26.4659 43.7233 27.0834 42.6725V39H24.9167V42.6617Z" fill="#964B96"/>
<path d="M26.0001 11.9167C26.5984 11.9167 27.0834 11.4316 27.0834 10.8333C27.0834 10.235 26.5984 9.75 26.0001 9.75C25.4018 9.75 24.9167 10.235 24.9167 10.8333C24.9167 11.4316 25.4018 11.9167 26.0001 11.9167Z" fill="#AA78B4"/>
<path d="M26.0001 13.0007C26.5984 13.0007 27.0834 12.5156 27.0834 11.9173C27.0834 11.319 26.5984 10.834 26.0001 10.834C25.4018 10.834 24.9167 11.319 24.9167 11.9173C24.9167 12.5156 25.4018 13.0007 26.0001 13.0007Z" fill="#AA78B4"/>
<path d="M27.9067 11.917H26L27.5275 9.63116C27.9283 9.02449 28.6108 8.66699 29.3258 8.66699H32.5L30.2033 10.9637C29.5967 11.5703 28.7625 11.917 27.9067 11.917Z" fill="#AA78B4"/>
<path d="M24.0933 11.917H26L24.4725 9.63116C24.0717 9.02449 23.3892 8.66699 22.6742 8.66699H19.5L21.7967 10.9637C22.4033 11.5703 23.2375 11.917 24.0933 11.917Z" fill="#AA78B4"/>
</svg>
