<svg width="52" height="52" viewBox="0 0 52 52" fill="none" xmlns="http://www.w3.org/2000/svg">
<g clip-path="url(#clip0_849_5891)">
<path d="M25.5234 38.8271L0.671689 27.4413C-0.227477 27.0296 -0.227477 25.7621 0.671689 25.3504L24.5592 14.3979C25.4692 13.9754 26.52 13.9754 27.4409 14.3979L51.3284 25.3504C52.2275 25.7621 52.2275 27.0296 51.3284 27.4413L26.4767 38.8271C26.1734 38.9679 25.8267 38.9679 25.5234 38.8271Z" fill="#00A0E1"/>
<path d="M40.0834 28.1673C40.0834 25.7732 33.7784 23.834 26.0001 23.834C18.2217 23.834 11.9167 25.7732 11.9167 28.1673V36.834H40.0834V28.1673Z" fill="#41BEF0"/>
<path d="M26.0001 41.1667C33.7781 41.1667 40.0834 39.2266 40.0834 36.8333C40.0834 34.4401 33.7781 32.5 26.0001 32.5C18.2221 32.5 11.9167 34.4401 11.9167 36.8333C11.9167 39.2266 18.2221 41.1667 26.0001 41.1667Z" fill="#41BEF0"/>
<path d="M25.9999 39.542C32.5813 39.542 37.9166 38.0869 37.9166 36.292C37.9166 34.4971 32.5813 33.042 25.9999 33.042C19.4185 33.042 14.0833 34.4971 14.0833 36.292C14.0833 38.0869 19.4185 39.542 25.9999 39.542Z" fill="#00A0E1"/>
<path d="M47.6666 43.3333C47.0708 43.3333 46.5833 42.8458 46.5833 42.25V23.8333C46.5833 23.2375 47.0708 22.75 47.6666 22.75C48.2624 22.75 48.7499 23.2375 48.7499 23.8333V42.25C48.7499 42.8458 48.2624 43.3333 47.6666 43.3333Z" fill="#00A0E1"/>
<path d="M47.6667 41.1673C48.8633 41.1673 49.8333 40.1973 49.8333 39.0007C49.8333 37.804 48.8633 36.834 47.6667 36.834C46.47 36.834 45.5 37.804 45.5 39.0007C45.5 40.1973 46.47 41.1673 47.6667 41.1673Z" fill="#41BEF0"/>
</g>
<defs>
<clipPath id="clip0_849_5891">
<rect width="52" height="52" fill="white"/>
</clipPath>
</defs>
</svg>
