<svg width="44" height="44" fill="none" xmlns="http://www.w3.org/2000/svg" viewBox="0 0 44 44"><rect x=".5" y=".5" width="43" height="43" rx="6.5" stroke="#F1F2F2"/><g clip-path="url(#a)"><path d="M32.512 8.864H11.426v26.712h21.086V8.864Z" fill="#fff"/><path d="M7.43 6.685v31.63h29.14V6.685H7.43Zm28.955 31.443H7.615V6.871h28.77v31.257Z" fill="#003A65"/><path d="M35.463 7.68H8.413v29.638h27.05V7.681Zm-7.5 13.512c0 .81-.308 1.37-.615 1.557-.246.124.307-1.183.184-1.744v-.124l.185.062c.123 0 .184 0 .246-.062-.062.062 0 .186 0 .311Zm-1.476-3.238h-.061l-.062-.062s0-.062.062-.062l.061-.063s.062 0 .062.063l.061.062v.125c-.061-.063-.061-.063-.123-.063.062 0 .062 0 0 0Zm1.599.498c.123 0 .184.187.123.374v.498c-.062.685-.984.685-.984.685l.061.187h-.799c0-.374-.307-.81-.307-.81.061-.435 0-.685.061-.81l.062-.061c.061 0 .123-.063.184-.063h1.599Zm-.738-.311c.062 0 .246.062.246.125H27.04c.061-.063.061-.063.061-.125.062-.062.062-.124.123-.124s.184-.063.184.062l-.061.062Zm-.061-.623-.554-.186c-.184 0-.492.186-.614.186-.246.063-.062-.249.061-.373.184-.25.184-.187.43-.187.37-.062.492.187.738.311.123.125 0 .25-.061.25Zm-1.23.56c0-.061.062-.124.123-.061 0 .062.061.062.061.124 0 0 0 .062.062.062-.062 0-.123.063-.184.063v-.063c-.062-.062-.062-.062-.062-.124Zm-10.635 7.037c-.984.81-1.353.373-1.783.062-.369-.311-.307-.498-.553-.685-.246-.187-.43 0-.677-.747-.245-.747.062-1.12.123-1.681.062-.56-.123-.25-.184-1.432-.062-.872.246-1.744.738-2.429.369-.436.676-.436.983-.747.246-.311.123-.622.123-1.12 0-.561.308-.623.615-1.06.307-.435.369-.995.369-1.369 0-.373.307-.81.615-1.058.245-.25.737-.498 1.045-.872.123-.187.246-.311.369-.498-.43.124-.861.249-1.291.436.246-.25.491-.498.799-.747.553-.374 1.106-.685 1.721-.872.184-.063.369-.125.553-.125h.062v-.124l-.062-.063-.061-.062v-.124h.061c1.722-.436 3.812-.312 5.349.311.86.374 1.66.996 2.028 1.681.43.685.492.685.8 1.681.245.81.184 1.868.245 2.428v.187c-.43-.124-.737-.062-.86-.062-.246.125-.246.374-.369.25-.123-.063-.184-.81-.43-.375-.062.125-.185.81-.246.997-.062.187-.123.311-.123.498s.061.373.123.498v.062c-.37-.124-.86-.062-1.107.125-.061 0-.061.062-.061.124 0 .063-.062.063-.062.125v.373c-.061.063-.184.063-.184.063h-.062v.124l-.061-.062c-.062 0-.123-.062-.185-.062h-.061c0-.25 0-.498-.123-.623-.061-.062-.061-.062-.123-.062.061-.125.061-.25.123-.374.184-.311.553-.56.738-.81.246-.31.246-.622.123-.56-.554.187-.246-.498-.37-.498-.43 0-.798-.062-1.229-.187-.491-.124-2.95.499-2.95.685 0 .187.922.063.922.063.307.186-.246.498-.37.747-.122.249-.307.436-.491.622-.061 0-.123.125 0 .25.307.186.615.249.922.186l-.184.187c-.062.062-.062.187-.062.25v.124h-.369s-.061 0-.061.062c-.615-.25-1.721-.623-2.213-.747h-.185c.185-.436.37-.872.615-1.245.246-.499.307-.56.184-1.308-.122-.747-.122-1.432-.122-2.18.061-.248-.246-.373-.37-.124 0 .312-.184.872-.43 1.12-.245.25-.491.312-.86.997.307-.436.553-.311 1.045-.623-.062.312-.308.436-.676.748-.37.311-.677.996-.554 1.494.185-.498.738-1.183 1.045-1.183.37-.062.062.81-.245 1.308-.308.498-.43 1.12-.8 1.805-.369.685-.676.187-1.045.25-.43.061-.799 1.494-.492 2.178.308.623.861 1.557.861 2.18.185.56-.123 1.183-.553 1.619Zm6.823-4.92h-.86c-.062 0-.062 0-.123-.061l-.184-.187c-.062-.063-.062-.125-.123-.25 0-.062-.062-.186-.062-.31v-.125c0-.25.062-.498.062-.56.061-.312.061-.436.614-.436h1.967c.062.186.062.373.062.56v.062c0 .125 0 .25-.061.374 0 .56-.738.934-1.291.934Zm-.491-2.49v-.062l.061-.062h.062s.061 0 .061.062l.062.062v.063s.061.062 0 .062h-.123s-.062 0-.062-.063l-.061-.062Zm.246.436c.307 0 .43-.249.43-.373 0-.125.307-.063.307-.063l-.123.436H22Zm.676-.934c-.307 0-1.045-.124-1.537.436-.061.062-.307-.311-.123-.498a.958.958 0 0 1 .492-.374c.184-.062.43-.124.615-.062.184.062.122.187.491.374.123-.063.123.062.062.124Zm-6.332 4.732c-.123-.311-.123-.622-.123-.934l-.123-.56c0-.374.43-.062.86-.25.431-.186.308-.622.308-1.12 0-.374.185-.436.369-.685.123 0 .184 0 .307.062.738.187 1.476.436 2.213.747 0 .063.062.063.062.125.061 0 .061.062.123.062h.307v.187c0 .125.062.25.123.374.062.124.123.249.185.311.061.062.184.125.307.187 0 .311 0 .622.061.685.062.062.123.062.185.062.492-.25.983-.374 1.537-.374 0-.062.061-.124.061-.186.062-.063.062-.125.123-.125a.337.337 0 0 0 .308-.187c.245-.124.43-.186.43-.311l.246-.374c0-.249 0-.31-.062-.373a.338.338 0 0 0 .308-.187c0-.062.061-.062.061-.124 0-.063 0-.125-.061-.187v-.125s0-.062.061-.062c.123-.062.308-.125.492-.125s.369 0 .492.125c.061.311 0 .56.061.747 0 .25.37.747.43.996.062.25-.245.997-.676 1.059-.43.062-.614-.498-.922-.498-.184 0-.43.186-.737.186-.246.063-.554-.062-.554 0-.061.125.308.499.492.623.062.062.123.062.184.062h.246c.062-.062.062-.498.123-.373.185.187.37.436.492.747.123.311.123.56.123.872.123.186.246.062.246-.187 0-.25.061-.436.061-.685.185.062.492.373.492.934.308.249.185.436 0 .373a1.034 1.034 0 0 0-.614 0c-.246.063-.43 0-.615-.062-.123-.062-.246-.062-.37-.062-.122 0-.245 0-.368.062-.246.063-.676.125-.738-.062-.061-.187.062-.25.123-.374.123-.124-.123-.373-.43-.186-.369.186-1.045.622-1.23.684-.245.063-.184.25.123.25.308-.063.615-.25.861-.187.307 0 .369.062.738.187.369.062.922-.063 1.23.062.245.124.553.187.798.187.37 0 .554-.063.615.062.062.124.062.373-.615.56-.676.187-.737.125-.86.374s0 .373.061.373c.062 0 .553 0 .8.623.245.623 0 1.183-.615 1.432-.554.25-2.52-.436-3.504-1.307-.308-.187-.677-.374-.554-.063.185.25 1.107 1.121 1.291 1.744.185.622-.307.498-.799.186-.492-.31-1.23-1.556-1.598-1.494-.37.062.799 1.37.86 1.744.062.373-.123.062-.245.062-.123 0-1.537-1.308-1.968-2.117-.799-1.432-.799-2.49-.676-2.678.123-.186.185.56.553 1.059.37.56.554.436.37-.062-.185-.498-.062-1.059-.062-1.432 0-.312-.123-.748-.308-.498-.246.684-.614.684-.799.498-.246-.498-.492-.748-.676-1.059Zm8.238 13.325c-.123.062-.308 0-.43-.063a.745.745 0 0 1-.308-.31c0-.063-.062-.125-.062-.188 0-.062 0-.124.062-.187.061-.062.061-.124.123-.186.061-.063.123-.063.184-.063.123-.062.308 0 .43.063a.746.746 0 0 1 .308.311c0 .062.062.125.062.187s0 .124-.062.187c-.061.062-.061.124-.123.186-.061 0-.123.063-.184.063Zm.307-1.806c-.615-.062-3.504-.623-5.533-3.05-2.029-2.43-2.397-3.425-2.459-4.11-.061-.498 0-.997.185-1.495.43 1.308 2.151 4.296 6.024 5.542 1.23.373 2.152-.063 2.52-.311.37-.25.615-1.183.615-1.183s.246.56.246.871c-.061.311-.43.56-.368.934.061.374.553.623-.123.996-.615.312-1.23.748-2.52.312-1.292-.436-3.32-2.117-3.32-2.117.122.622 1.29 1.494 2.09 1.992.799.498 1.536.872 2.028.872.308.373 1.291.81.615.747Zm4.61.56c-.307.063-.676-.373-.86.063-.184.435.184.498.123.747s-1.721-.312-2.643-.996c-.43-.312-.923-1.183-.923-1.183 1.107-.436 1.66-1.059 2.03-1.183a.519.519 0 0 1 .43 0 .746.746 0 0 1 .307.31c.738-.124 1.106-.248 1.168.188 0 .311-.062.56-.185.871.37.063.677.187.738.374.123.124.123.747-.184.81Zm.37-9.713c-.185.436-.308 1.12-.554 1.183 0-.436.123-.872.308-1.245.122-.311.184-.996.184-1.743 0-.748-.061-1.059-.246-1.744-.123.56-.123 1.245-.307 1.681-.185.436-.062-.436 0-1.307.061-.934-.185-1.557-.246-2.18-.062-.871-.123-1.68-.123-2.552.184.622.246 1.183.307 1.805 0 .56.308 1.495.492 1.806.184.311.492 1.743.492 2.304a7.1 7.1 0 0 1-.307 1.992Z" fill="#003A65"/><path d="M25.012 31.777c.492-.062 1.045-.623.615-.56-1.168.124-2.705-.125-3.381-.56.737.87 2.274 1.182 2.766 1.12ZM14.5 18.328c-.43.312-.861.685-.984 1.183s-.123.996 0 1.557c.123.436.184.56.123.81-.061.248 0 .497.123.248.184-.373.246-.747.123-1.183-.062-.498-.369-1.12 0-1.619.246-.373.553-.684.86-.934.37-.31.308-.934.247-1.183 0-.435.184.623-.492 1.121ZM28.455 33.271c.184-.062.492-.56.43-1.058-.123.062-1.598.872-2.275.934-.43.436 1.66.187 1.845.124ZM23.414 18.577h-.861l-.062.062c-.061.063-.061.125-.122.187-.123.125-.246.25-.37.311-.06 0-.122.063-.184.125-.123.062-.123.125.246.187.676-.062 1.107-.374 1.291-.56.062-.125.123-.187.062-.312.061 0 .061 0 0 0ZM26.918 19.698h.861c.245 0 .369-.312.43-.934-.184-.125-.307.062-.369.187-.061.124-.246.435-.369.435s-.184 0-.307.063c-.123.062-.246.124-.246.249Z" fill="#003A65"/></g><defs><clipPath id="a"><path fill="#fff" transform="translate(7 6)" d="M0 0h30v33H0z"/></clipPath></defs></svg>