<svg width="44" height="44" fill="none" xmlns="http://www.w3.org/2000/svg" viewBox="0 0 44 44"><g clip-path="url(#a)"><path d="M37 .5H7A6.5 6.5 0 0 0 .5 7v30A6.5 6.5 0 0 0 7 43.5h30a6.5 6.5 0 0 0 6.5-6.5V7A6.5 6.5 0 0 0 37 .5Z" stroke="#F1F2F2"/><path d="M34 4H9a4 4 0 0 0-4 4v27a4 4 0 0 0 4 4h25a4 4 0 0 0 4-4V8a4 4 0 0 0-4-4Z" fill="#D05B27"/><g fill="#fff"><path d="M23.63 26.22c0 1.49-1.2 2.7-2.69 2.7a2.67 2.67 0 0 1-2.7-2.57h-.02V15.76s.21-1.71-1.83-1.7H7.32s7.24 1.07 7.24 4.33c0 .97.01 6.26.01 7.81 0 .16 0 .31.01.46v.15c0 2.7 2.19 4.89 4.89 4.89 5.49 0 4.89-4.89 4.89-4.89s-.72-1.85-.72-.59h-.01Z"/><path d="M30.5 25.99v-5.41s-.39-1.24-1.29-1.25c-.38 0-.87 0-1.45-.01v-8.55h-9.5s.85 2.06 3.94 2.06c1.67 0 1.38 4.14 1.4 4.14v2.34h-1.52v-1.59s-.3-.6-1.46-.6c-.58-.07-1.16.16-1.55.6v6.25h3.36c6.12 0 3.39 8.28.43 8.28h12.82L30.51 26l-.01-.01Z"/></g></g><defs><clipPath id="a"><path fill="#fff" d="M0 0h44v44H0z"/></clipPath></defs></svg>