<svg width="44" height="44" fill="none" xmlns="http://www.w3.org/2000/svg" viewBox="0 0 44 44"><g clip-path="url(#a)"><path d="M37 .5H7A6.5 6.5 0 0 0 .5 7v30A6.5 6.5 0 0 0 7 43.5h30a6.5 6.5 0 0 0 6.5-6.5V7A6.5 6.5 0 0 0 37 .5Z" stroke="#F1F2F2"/><path d="M34 4H9a4 4 0 0 0-4 4v27a4 4 0 0 0 4 4h25a4 4 0 0 0 4-4V8a4 4 0 0 0-4-4Z" fill="#0079AA"/><path d="M21.5 20.14a2.92 2.92 0 1 0 0-5.84 2.92 2.92 0 0 0 0 5.84Z" fill="#fff"/><path d="M18.58 21.14v4.64c0 1.61 1.31 2.92 2.92 2.92 1.61 0 2.92-1.31 2.92-2.92v-4.64h-5.85.01Zm-1.02-.21v-3.71c0-2.17 1.77-3.94 3.94-3.94s3.94 1.77 3.94 3.94v3.71h5.77v-3.71c0-5.37-4.35-9.72-9.72-9.72-5.37 0-9.72 4.35-9.72 9.72v3.71H17.56Z" fill="#fff"/><path d="M25.44 22.25v3.53c0 2.17-1.77 3.94-3.94 3.94s-3.94-1.77-3.94-3.94v-3.53h-5.77v3.53c0 5.37 4.35 9.72 9.72 9.72 5.37 0 9.72-4.35 9.72-9.72v-3.53H25.44Z" fill="#fff"/></g><defs><clipPath id="a"><path fill="#fff" d="M0 0h44v44H0z"/></clipPath></defs></svg>