<svg width="44" height="44" fill="none" xmlns="http://www.w3.org/2000/svg" viewBox="0 0 44 44"><rect x=".5" y=".5" width="43" height="43" rx="6.5" stroke="#F1F2F2"/><rect x="5" y="4" width="33" height="35" rx="4" fill="#FFD000"/><path d="M33.98 19.046c-.081-.108-.282-.02-.282-.02l-3.205 1.19a11.656 11.656 0 0 0-.862-1.709l1.038-2.833s.13-.28.01-.35c-.12-.072-.315.117-.315.117l-1.885 1.546a8.114 8.114 0 0 0-2.59-1.873 8.616 8.616 0 0 0-1.156-.415l-.586-2.242s-.05-.224-.2-.224c-.15 0-.191.212-.191.212l-.375 1.98a10.076 10.076 0 0 0-1.27-.081c-1.407 0-2.656.266-3.75.757a7.942 7.942 0 0 0-1.32.75c-.069.049-.134.101-.2.151-.39-1.002-.696-1.82-.754-2.065.217-.196.67-.91.781-1.393.154-.674.107-.993-.055-1.504-.118-.373-.354-.722-.338-.958a.606.606 0 0 1 .185-.383.43.43 0 0 0-.396-.38c-.177-.024-.314.028-.471.035-.04-.073-.118-.059-.059-.314.09-.387.832-.569 1.44-.804.768-.299 1.198-.853 1.224-1.742a1.409 1.409 0 0 0-.794-1.34c-.09.26-.465.611-.726.754a1.332 1.332 0 0 1-.87.136c.057-.475-.162-.88-.51-1.044-.11.203-.528.482-1.156.463-.628-.02-.668-.169-1.55-.166-1.256.002-2.296.76-2.424 1.872a2.525 2.525 0 0 0 .405 1.642c-.156.118-.523.47-.589.577-.09-.106-.34-.247-.64-.051.065.158.077.35.026.534-.052.182-.51 1.072-.562 1.79-.09 1.216.613 2.04 1.202 2.275-.13.196-.157.405-.065.576.06.113.182.222.432.222a.592.592 0 0 0-.105.627c.105.262.405.641.667.641-.013.222.091.745.144.954-.091.17-.184.3-.17.613.013.326.223.59.483.643.066.157.115.33.206.434.092.105.173.232.37.363.196.13.418.236.68.236.261 0 .492.012.61-.027.005.075.03.767.06 1.535-.658 1.83-.986 3.952-.986 6.228v.001c0 4.08 1.164 7.714 3.385 10.056 0 0 .128.158.485.388 0 0 .695-1.188 1.752-2.54a9.29 9.29 0 0 1 .913-.992c.487-.425.993-.83 1.515-1.211 1.367-.931 2.949-1.64 4.41-1.942-1.676.864-2.626 1.327-4.202 2.678-.997.856-2.587 2.365-3.674 4.434.226.18.53.364.89.4.23-.27 1.411-2.436 3.225-4.178 3.67-3.437 7.993-4.231 10.256-4.188.128-.932.193-1.903.193-2.906 0-1.643-.171-3.203-.513-4.633l2.702-3.007c0-.001.187-.188.107-.295Z" fill="#181543"/><path d="M13.884 17.688c-.156-.091-.588-.302-.928-.287-.352.014-.65.085-.928.26-.117-.078-.154-.235-.079-.418.075-.182.184-.209.184-.209l-.1-1.713s.482-.342.612-.381c.13-.04.19-.142.19-.272.212.145.527.466.696.706.157.223.249.47.262.745.013.275.015.602-.04.942.108.092.21.17.223.313.012.145-.04.196-.092.314Zm15.612 5.334c-.019-.334-.406-1.235-.641-1.432l4.067-1.803-3.426 3.235ZM18.34 16.284l3.442 3.123c-.332.186-.83.69-.967 1.1l-2.475-4.223Zm2.014 6.185a1.19 1.19 0 0 0-.199.516c-.04.223-.01.346.017.53l-1.056-.73c.012-.247-.052-.65-.07-.861 0-.023-.008-.06-.014-.092l1.322.637Z" fill="#fff"/><path d="M14.537 22.773c-.065-.117-.366-6.471-.379-6.693l.34-.247v-.066c-.248-.014-.536-.105-.626-.25l-.092-1.947c-.34-.026-.691-.134-.822-.264-.162-.163-.29-.364-.106-.717.17.118.666.262 1.097.262.092 0 .284.206.393.249.125.05.335.165.433.208.09.04.145.248.171.327.026.078 3.173 8.25 3.226 8.341.053.092.237 1.464.248 1.569.015.104.485 1.201.576 1.307-.418-.013-1.103.227-1.665.777-.55.536-1.036 1.715-1.146 2.259-.04-.288-1.582-4.997-1.648-5.115Zm4 7.818c-.136 1.256-.442 2.345-.901 3.124-.296.5-1.126 1.517-1.417 1.9.315-.627.558-2.141.537-3.318-.012-.764-.245-2.45-.042-3.568.217-1.2.558-1.874 1.361-2.613.41-.377 1.248-.858 2.444-.533l.968 1.82c-.518-.098-1.203-.01-1.66.341-.858.66-1.147 1.549-1.29 2.847Z" fill="#fff"/><path d="M18.632 33.066c.235-.53.545-2.04.631-2.545.112-.649.216-1.595.989-2.232.38-.313 1.003-.354 1.25-.281l1.096 2.23c.097.236.42.319.634.306-1.025.333-3.612 1.561-4.6 2.522Zm9.315-7.12c-.176.276-.113.54-.015.724.11.207.69 1.278.69 1.278.183.485.325.73.5 1.042.313 0 .653-.008 1.012 0-.383-.857-1.257-2.514-1.257-2.514l-.063-1.337c-.255.154-.69.534-.867.808Zm-4.667-7.098c.431-.077 1.408.012 1.721.17l-.991-5.616-.73 5.447Zm-8.335-5.213c-.026-.079-.08-.288-.17-.327-.098-.044-.308-.16-.433-.21-.109-.042-.302-.247-.393-.247-.431 0-.928-.144-1.098-.262-.183.353-.056.554.107.717.13.13.48.237.821.264l.092 1.947c.09.145.379.235.627.248v.065l-.34.25c.013.22.314 6.575.38 6.693.064.117 1.607 4.826 1.646 5.113.11-.542.596-1.722 1.146-2.258.562-.55 1.247-.79 1.665-.777-.091-.105-.561-1.202-.575-1.307-.012-.105-.196-1.477-.248-1.568-.052-.091-3.2-8.263-3.227-8.341Z" fill="#fff"/><path d="M12.935 12.077c.889.002 1.31.371 1.519.567.025-.3-.022-.566-.301-.792-.233-.189-.641-.355-1.268-.355-.419 0-.84.122-1.101.344-.24.204-.279.434-.227.774.078-.248.646-.541 1.378-.538Zm-1.593-4.665c-.02.34.07.693.228.903.09.119.301.348.457.339.223-.014.432-.44.955-.419.34.014.562.494.85.51.222.014.34-.208.564-.233.193-.02.26.077.377.194.079-.182.192-.307.484-.522.353-.262 1.556-.51 2.066-.968.255-.229.313-.652.232-.937-.193.271-.73.558-1.252.584-.262.013-.89-.102-1.112-.22.112-.191.148-.409.056-.618-.17.131-.905.202-1.193.202-.288 0-.849-.117-1.284-.093-.954.05-1.396.729-1.428 1.278Z" fill="#fff"/><path d="M12.99 10.38c2.066.04 2.999.993 3.026 1.778.105-.236.09-.458.078-.72-.01-.208-.326-.796-.34-.993-.013-.196.039-.326.078-.51-.13.027-.588.21-.784.053-.21-.168-.065-.588-.34-.693-.275-.105-.706.222-.98.183-.275-.04-.51-.417-.797-.417-.289 0-.432.352-.785.43-.272.061-.602-.103-.763-.09-.178.012-.286.15-.364.32-.079.171-.142.24-.35.293-.167.042-.406-.104-.524-.078.091.092.137.464.055.68-.105.275-.33.563-.356.905-.022.302.079.442.158.664-.053-1.112 1.184-1.84 2.988-1.805Zm-1.302 3.96c-.143.027-.444.263-.59.508.042.158.211.527.378.627.038-.17.225-.453.318-.52.13-.092.26-.156.364-.207.105-.053.144-.106.144-.225a.59.59 0 0 0-.068-.289c.104-.013.297.003.364-.089a.567.567 0 0 0 .097-.326c0-.119-.053-.145-.17-.158a4.89 4.89 0 0 0-.63-.008l.342-.175c.078-.038.105-.117.118-.182.013-.066.01-.213-.026-.392-.393.012-1.086.365-1.269.522l.145.354-.262-.01a1.08 1.08 0 0 0 .065.61c.236-.04.51-.052.68-.04Zm16.91 8.192c-.047-.254-.684-1.014-1.77-1.836-.847-.644-2.09-1.279-3.112-1.273-1.726.01-2.439 1.195-2.569 1.813-.078.374-.06.779.02 1.001-.275.236-.38.425-.433.693-.037.193 0 .47.177.64-.02-.255.154-.55.295-.744.157-.216.418-.3.655-.443l.038.471c-.223.129-.499.403-.517.546l.018.78.594-.354.114.236-.216 1.372.334-.059.607.251-.588.494v.197s.09-.122.296-.112c.208.01.743.249.743.249l-.02.119h-1.038c-.04.136.082.242.16.3.137-.038.28-.109.357-.109.078 0 .26.046.416.066l-.188.252s-.097.074-.275.039c-.098-.02-.195.117-.195.23 0 .118.076.412.076.412.096.442.547.352.605.348.287-.025 1.22-.363 1.22-.363l-.897 1.259.392 1.346a21.937 21.937 0 0 1 4.282-1.187c-.21-.348-.244-.487-.501-1.006l-.98-2.255.137-.333c.215.078.548-.08.764-.255.216-.177.47-.49.568-.687-.137-.078-.254-.06-.372.02-.117.079-.209.23-.372.157-.177-.078-.09-.271-.071-.449.02-.176-.204-.178-.36-.042-.157.137-.491.079-.707-.136-.216-.217-1.254-1.08-1.627-1.294-.536-.308-1.255-.387-1.785-.291-.309.054-.53.192-.647.133l-.388-.6.062-.039c.137.06.266.168.444.11a5.058 5.058 0 0 1 1.254-.196c.786-.013 1.74.274 2.158.452.02.51 1.046 1.156 1.51 1.214.391.05.629-.058.863-.196l-1-.878.53-.67s.843.803.96.961c.038-.093 0-.246-.02-.354Zm-6.018 1.02s.43-.248.836-.335c.598-.128 1.26.232 1.731.601l-.09.142-.674.16c-.13-.117-.38-.17-.647-.157-.24.012-.431.099-.431.099l.132.215-.31.078c-.137-.176-.352-.392-.548-.45v-.353Zm-1.021-1.55c-.177-.591.295-1.176.51-1.391l.332.764a4.78 4.78 0 0 0-.842.628Zm3.098-.666c-.314-.216-1.352-.177-1.784-.079l-.314-.903c.236-.176.687-.294 1.098-.294.412 0 .863.1 1.176.256l-.176 1.02Zm2.04.925c-.432-.278-1.275-.69-1.529-.769l.371-.96c.315.157 1.472.862 1.648 1.04l-.49.689Zm-.134-2.553c.388.137 1.209.827 1.405.984l2.078-4.43-3.483 3.446Z" fill="#fff"/></svg>