<svg width="44" height="44" fill="none" xmlns="http://www.w3.org/2000/svg" viewBox="0 0 44 44"><rect x=".5" y=".5" width="43" height="43" rx="6.5" stroke="#F1F2F2"/><path d="M21.876 36.752c8.216 0 14.876-6.66 14.876-14.876S30.092 7 21.876 7 7 13.66 7 21.876s6.66 14.876 14.876 14.876Z" fill="#fff"/><path d="M23.18 26.247V22.72s.007-.642-.156-.898c-.168-.258-.66-.258-.66-.258H7.01c-.002.103-.008.206-.008.312 0 2.53.634 4.909 1.746 6.996H22.15c.905-.142 1.03-.282 1.03-2.625ZM23.04 20.086c.17-.264.129-.74.14-.988l-.008-1.947c.01-1.981.028-2.441-.12-2.78-.113-.264-.494-.316-.783-.34H9.245l-.003-.002A14.785 14.785 0 0 0 7.08 20.35l15.29.005c-.003 0 .51-.026.67-.269ZM33.206 20.337c-.274.052-.548.155-.548.287 0 .078.137.158.383.207 1.58.323 2.984 1.133 3.636 2.532a14.88 14.88 0 0 0-.683-6.174c-.062 2.108-1.953 2.944-2.788 3.148ZM28.334 30.082H9.47c2.663 4.016 7.223 6.667 12.406 6.667 5.614 0 10.502-3.111 13.034-7.704a5.463 5.463 0 0 1-1.047.478c-1.725.572-3.859.559-5.53.559ZM34.108 13.781c.148.085.287.176.42.274C31.904 9.822 27.22 7 21.875 7c-4.803 0-9.07 2.278-11.791 5.811h18.346c2.628 0 4.472.292 5.677.97ZM28.856 21.521c-1.505 0-1.505.026-1.505 1.066v3.07c0 2.03.274 3.305 2.407 3.305 2.025 0 3.093-1.485 3.093-3.59 0-2.263-1.368-3.85-3.995-3.85ZM28.801 20.378c2.354 0 3.228-1.43 3.228-2.992 0-2.263-1.477-3.383-3.365-3.383-1.285 0-1.313.207-1.313 1.352v4.294c0 .675.028.729 1.45.729Z" fill="#025AAA"/><path d="M33.04 20.831c-.245-.052-.383-.13-.383-.207 0-.13.275-.235.549-.287.835-.204 2.726-1.04 2.788-3.147a14.777 14.777 0 0 0-1.467-3.137 4.338 4.338 0 0 0-.419-.275c-1.205-.677-3.049-.97-5.676-.97H10.085c-.3.391-.582.797-.846 1.216l.003.003h13.021c.29.023.67.072.784.339.148.338.13.799.12 2.78l.007 1.947c-.008.248.034.724-.14.988-.158.246-.67.269-.67.269l-15.29-.005c-.04.4-.061.804-.07 1.213H22.36s.492 0 .66.258c.165.256.155.898.155.898v3.527c0 2.343-.124 2.486-1.03 2.623H8.748c.222.416.463.82.724 1.213h18.864c1.67 0 3.804.013 5.53-.559a5.391 5.391 0 0 0 1.047-.478 14.754 14.754 0 0 0 1.766-5.682c-.654-1.394-2.059-2.204-3.639-2.527Zm-5.69-5.475c0-1.146.029-1.353 1.314-1.353 1.888 0 3.365 1.12 3.365 3.383 0 1.562-.877 2.992-3.228 2.992-1.422 0-1.45-.051-1.45-.729v-4.293Zm2.408 13.609c-2.133 0-2.407-1.275-2.407-3.305v-3.07c0-1.04 0-1.066 1.505-1.066 2.627 0 3.995 1.588 3.995 3.851 0 2.105-1.068 3.59-3.093 3.59Z" fill="#fff"/></svg>