<svg width="262" height="44" fill="none" xmlns="http://www.w3.org/2000/svg" viewBox="0 0 262 44"><path d="M87.63 33.983c.234.175.652.431 1.254.768.601.337 1.382.657 2.35.968.969.308 2.116.576 3.447.815 1.331.235 2.863.35 4.59.35 3.311 0 5.9-.687 7.778-2.065 1.872-1.378 2.811-3.293 2.811-5.755 0-1.173-.213-2.167-.636-2.986a5.756 5.756 0 0 0-1.715-2.022 7.921 7.921 0 0 0-2.461-1.207 19.956 19.956 0 0 0-2.88-.636l-3.997-.571c-.939-.145-1.643-.32-2.108-.53-.469-.204-.703-.554-.703-1.053 0-.5.255-.9.767-1.207.512-.308 1.43-.461 2.748-.461 1.173 0 2.218.09 3.14.264.921.175 1.715.376 2.372.593.657.218 1.185.448 1.582.683.397.235.636.397.725.482.06-.03.197-.115.419-.265a4.284 4.284 0 0 0 1.36-1.557c.192-.367.286-.785.286-1.254 0-.614-.17-1.135-.503-1.561a4.145 4.145 0 0 0-1.34-1.075c-.968-.5-2.116-.862-3.447-1.097-1.335-.234-2.922-.35-4.765-.35-1.843 0-3.383.197-4.701.594-1.318.396-2.402.938-3.25 1.625-.85.687-1.472 1.493-1.87 2.414-.396.922-.592 1.929-.592 3.008 0 1.288.234 2.36.704 3.208a5.938 5.938 0 0 0 1.91 2.086c.807.542 1.737.951 2.79 1.229 1.055.277 2.155.49 3.294.636l2.287.264c1.083.145 1.881.328 2.393.55.512.222.768.623.768 1.208 0 .584-.307.942-.922 1.164-.614.218-1.522.329-2.725.329-1.054 0-2.057-.081-3.008-.243-.951-.163-1.8-.35-2.547-.572a13.765 13.765 0 0 1-1.932-.704c-.542-.248-.93-.46-1.165-.636l-2.504 4.57h-.005ZM63.026 36.27H70.1V24.32c0-3.045 1.378-4.568 4.13-4.568 1.318 0 2.33.375 3.033 1.122.704.746 1.054 1.898 1.054 3.447V36.27h7.073V22.695c0-1.523-.294-2.88-.879-4.065a8.435 8.435 0 0 0-2.393-2.965c-1.011-.79-2.197-1.39-3.558-1.8a14.953 14.953 0 0 0-4.326-.615c-1.519 0-3.003.205-4.351.615-1.348.41-2.534 1.01-3.558 1.8a8.352 8.352 0 0 0-2.415 2.965c-.584 1.186-.878 2.542-.878 4.065V36.27h-.005Zm-4.112 0V6.83c-.175-.06-.593-.192-1.255-.397-.656-.205-1.411-.307-2.26-.307-1.144 0-2.065.243-2.77.725-.703.482-1.053 1.327-1.053 2.526v26.889h7.338v.004ZM119.411 14.521c-.174-.06-.584-.183-1.228-.375s-1.361-.286-2.154-.286c-1.114 0-2.006.235-2.68.704-.674.47-1.011 1.276-1.011 2.415v10.149c0 1.642.286 3.067.858 4.283.572 1.216 1.352 2.227 2.35 3.033.994.806 2.18 1.412 3.558 1.822 1.378.409 2.854.614 4.437.614 1.583 0 3.059-.205 4.437-.614 1.378-.41 2.564-1.016 3.558-1.822a8.494 8.494 0 0 0 2.35-3.033c.572-1.216.858-2.645.858-4.283v-12.61c-.175-.06-.585-.184-1.229-.376-.644-.192-1.361-.286-2.154-.286-1.114 0-2.005.235-2.679.704-.674.47-1.011 1.275-1.011 2.414v8.831c0 3.046-1.378 4.57-4.13 4.57s-4.13-1.524-4.13-4.57V14.513v.008ZM137.337 36.27h7.074V23.75c0-1.494.388-2.565 1.164-3.209.777-.644 1.719-.968 2.833-.968.849 0 1.625.102 2.329.307.704.205 1.301.426 1.8.657.09-.09.218-.235.397-.44a7.24 7.24 0 0 0 .55-.746c.192-.295.35-.632.482-1.011.133-.38.197-.79.197-1.229 0-.44-.073-.819-.218-1.143a3.556 3.556 0 0 0-.614-.922c-.44-.439-1.152-.849-2.129-1.228-.981-.38-2.351-.572-4.108-.572-1.434 0-2.752.196-3.955.593-1.203.397-2.227.973-3.076 1.736-.849.764-1.514 1.698-2 2.812-.482 1.113-.726 2.389-.726 3.822v14.06ZM161.679 21.706a4.493 4.493 0 0 1 .901-1.515c.396-.44.887-.797 1.471-1.075.585-.277 1.276-.418 2.065-.418 1.114 0 1.95.226 2.504.683.555.456.836.99.836 1.604 0 .294-.059.584-.174.879-.12.294-.44.558-.969.789-.529.235-1.335.427-2.414.572-1.084.144-2.607.217-4.569.217a6.037 6.037 0 0 1 .349-1.736Zm1.536 6.305c2.607 0 4.753-.162 6.438-.482 1.685-.32 3.016-.785 3.997-1.382.981-.602 1.664-1.331 2.043-2.197.38-.862.572-1.839.572-2.922 0-.994-.226-1.963-.683-2.901-.456-.939-1.113-1.77-1.975-2.505-.866-.733-1.928-1.31-3.186-1.736-1.259-.422-2.68-.635-4.262-.635-1.698 0-3.281.285-4.744.857-1.463.572-2.739 1.37-3.822 2.393-1.084 1.024-1.933 2.27-2.547 3.733-.615 1.463-.922 3.076-.922 4.833 0 1.873.307 3.546.922 5.009.614 1.463 1.454 2.7 2.525 3.711a10.87 10.87 0 0 0 3.759 2.308c1.433.53 2.973.79 4.611.79 1.318 0 2.526-.094 3.626-.286 1.097-.192 2.057-.418 2.88-.683a16.512 16.512 0 0 0 2.043-.79c.542-.264.93-.468 1.165-.613l-2.462-4.92c-.059.06-.247.163-.571.308a9.806 9.806 0 0 1-1.229.44c-.499.144-1.083.285-1.757.417-.674.133-1.391.197-2.155.197-.994 0-1.847-.09-2.547-.265-.703-.175-1.279-.41-1.736-.704-.456-.294-.806-.606-1.054-.943a2.435 2.435 0 0 1-.46-1.032h1.535-.004Z" fill="#DC1419"/><path d="M246.497 21.706a4.491 4.491 0 0 1 .9-1.515c.397-.44.888-.798 1.472-1.075.584-.277 1.276-.418 2.065-.418 1.113 0 1.949.226 2.504.683.554.456.836.99.836 1.604 0 .294-.06.584-.175.878-.119.295-.439.56-.968.79-.529.234-1.336.426-2.415.571-1.083.145-2.606.218-4.569.218a6.04 6.04 0 0 1 .35-1.736Zm1.536 6.305c2.606 0 4.752-.162 6.437-.482 1.685-.32 3.016-.785 3.998-1.383.981-.601 1.663-1.33 2.043-2.197.38-.861.572-1.838.572-2.922 0-.994-.226-1.962-.683-2.9-.456-.94-1.113-1.771-1.975-2.505-.866-.734-1.928-1.31-3.187-1.736-1.258-.422-2.679-.636-4.262-.636-1.697 0-3.28.286-4.743.858-1.464.571-2.739 1.37-3.823 2.393-1.083 1.024-1.932 2.27-2.547 3.733-.614 1.463-.921 3.075-.921 4.833 0 1.873.307 3.545.921 5.009.615 1.463 1.455 2.7 2.526 3.71a10.875 10.875 0 0 0 3.758 2.309c1.434.529 2.974.79 4.612.79 1.318 0 2.525-.095 3.626-.287 1.096-.192 2.056-.418 2.88-.682a16.575 16.575 0 0 0 2.043-.79c.542-.264.93-.469 1.165-.614l-2.462-4.919c-.06.06-.247.163-.572.308a9.785 9.785 0 0 1-1.228.439c-.499.145-1.084.286-1.758.418-.674.132-1.391.196-2.154.196-.994 0-1.847-.09-2.547-.264-.704-.175-1.28-.41-1.736-.704-.457-.294-.807-.606-1.054-.943a2.45 2.45 0 0 1-.461-1.032h1.536-.004Zm-34.052 8.259h7.073V24.32c0-3.045 1.378-4.568 4.13-4.568 1.318 0 2.329.375 3.033 1.122.704.746 1.054 1.898 1.054 3.447V36.27h7.073V22.695c0-1.523-.295-2.88-.879-4.065a8.43 8.43 0 0 0-2.393-2.965c-1.011-.79-2.197-1.391-3.558-1.8a14.957 14.957 0 0 0-4.326-.615c-1.519 0-3.003.205-4.351.614-1.348.41-2.534 1.012-3.558 1.8a8.358 8.358 0 0 0-2.415 2.966c-.584 1.186-.878 2.542-.878 4.065V36.27h-.005Zm-22.298-6.745a7.99 7.99 0 0 1-2.726-1.911 8.844 8.844 0 0 1-1.779-2.854c-.427-1.084-.636-2.27-.636-3.558 0-1.288.213-2.483.636-3.58a8.578 8.578 0 0 1 1.779-2.853 8.094 8.094 0 0 1 2.726-1.89c1.053-.452 2.209-.682 3.472-.682s2.415.226 3.473.682a8.194 8.194 0 0 1 2.726 1.89 8.742 8.742 0 0 1 1.779 2.854c.422 1.096.635 2.29.635 3.58 0 1.288-.213 2.473-.635 3.557a9.019 9.019 0 0 1-1.779 2.854 7.962 7.962 0 0 1-2.726 1.911c-1.054.457-2.21.683-3.473.683s-2.414-.226-3.472-.683Zm-11.578-2.086c.836 1.933 1.983 3.61 3.447 5.03 1.463 1.42 3.191 2.542 5.183 3.361 1.992.82 4.129 1.229 6.416 1.229 2.287 0 4.424-.41 6.416-1.229 1.992-.819 3.72-1.94 5.183-3.361a15.438 15.438 0 0 0 3.447-5.03c.836-1.933 1.254-4.014 1.254-6.237s-.418-4.304-1.254-6.237c-.836-1.932-1.983-3.609-3.447-5.03-1.463-1.42-3.191-2.542-5.183-3.361-1.992-.82-4.129-1.229-6.416-1.229-2.287 0-4.424.41-6.416 1.229-1.992.819-3.72 1.94-5.183 3.361a15.423 15.423 0 0 0-3.447 5.03c-.837 1.933-1.255 4.015-1.255 6.237 0 2.223.418 4.304 1.255 6.237ZM40.822 6.996S31.313 0 20.414 0C9.514 0 0 6.996 0 6.996 0 27.87-.41 37.41 20.414 44c20.818-6.591 20.408-16.13 20.408-37v-.004Z" fill="#000"/><path d="M20.41 37.06c8.76 0 15.86-7.102 15.86-15.862S29.17 5.337 20.41 5.337 4.548 12.438 4.548 21.198c0 8.76 7.102 15.861 15.862 15.861Z" fill="#fff"/><path d="M28.773 29.564c4.618-4.619 4.618-12.106 0-16.724s-12.106-4.618-16.724 0-4.618 12.105 0 16.724c4.618 4.618 12.106 4.618 16.724 0Z" fill="#DC1419"/><path d="M24.279 29.922h-7.735v-3.481h1.74V15.72h-1.74v-2.5l5.994-.739v13.959h1.74v3.481Z" fill="#fff"/><path d="M258.165 6.177c.499 0 .981.124 1.441.376.461.251.82.61 1.084 1.075a2.93 2.93 0 0 1 .004 2.922c-.256.46-.618.819-1.079 1.08a2.914 2.914 0 0 1-2.909 0 2.762 2.762 0 0 1-1.08-1.08 2.96 2.96 0 0 1-.388-1.455c0-.507.132-.998.393-1.467.264-.47.622-.828 1.083-1.075a2.96 2.96 0 0 1 1.442-.376h.009Zm0 .572c-.401 0-.785.102-1.157.303-.371.2-.657.49-.87.866-.213.375-.32.768-.32 1.181 0 .414.103.798.312 1.17.209.37.495.66.866.87a2.336 2.336 0 0 0 2.333 0c.371-.21.657-.5.866-.87a2.343 2.343 0 0 0-.008-2.351 2.212 2.212 0 0 0-.871-.866 2.399 2.399 0 0 0-1.156-.303h.005Z" fill="#000"/><path d="M258.075 9.407h-.371v1.117h-.636V7.67h.96c.7 0 1.097.286 1.097.837 0 .38-.167.635-.457.78l.597 1.071v.166h-.584l-.606-1.117Zm-.371-.435h.307c.333 0 .474-.145.474-.427 0-.282-.137-.418-.474-.418h-.307v.849-.004Z" fill="#000"/></svg>