<svg width="161" height="41" fill="none" xmlns="http://www.w3.org/2000/svg" viewBox="0 0 161 41"><g clip-path="url(#a)"><path d="M13.579 5.998h-1.436a10.317 10.317 0 0 1-1.576-.074c.34.815.423.986.771 1.972l2.822 8.039a46.79 46.79 0 0 1 1.501 5.074h.116c.378-1.725.883-3.421 1.51-5.074l2.855-8.105c.348-.985.423-1.132.771-1.97a9.06 9.06 0 0 1-1.468.073h-1.427v-4.52h11.55v4.585h-1.785l-8.488 20.696h-8.189L2.643 5.957l-1.85.04V1.413h12.786v4.586ZM30.994 22.108h1.66a2.11 2.11 0 0 1 .83.114 2.967 2.967 0 0 1-.084-.871V6.691c0-.277.042-.551.125-.815-.291.063-.59.088-.888.073h-1.66V1.412h12.18v4.545h-1.659a3.564 3.564 0 0 1-.88-.073c.108.277.15.575.125.871v14.596c.023.296-.02.593-.124.872.288-.096.592-.135.896-.114h1.66v4.593h-12.18v-4.594ZM44.51 17.898h6.455c0 1.865.15 2.81.83 3.494a4.675 4.675 0 0 0 1.615.937 4.737 4.737 0 0 0 1.861.236c2.166 0 3.518-.986 3.518-2.582a1.407 1.407 0 0 0-.315-1.018c-.523-.546-2.298-1.36-4.58-2.086-3.087-.945-6.065-2.24-7.185-3.144a6.273 6.273 0 0 1-1.721-2.29 6.163 6.163 0 0 1-.511-2.8c0-4.806 3.51-7.803 9.226-7.803a7.895 7.895 0 0 1 3.55.59A7.758 7.758 0 0 1 60.15 3.53h.083A3.799 3.799 0 0 1 60 2.349v-.937h5.807v8.145h-6.106c-.116-1.515-.382-2.386-.963-3.03a4.306 4.306 0 0 0-1.538-.902 4.365 4.365 0 0 0-1.78-.206c-2.315 0-3.435.815-3.435 2.354-.014.25.031.5.132.73.1.231.254.435.448.598.688.459 1.44.818 2.232 1.067l1.743.562 1.742.61 1.734.563a11.589 11.589 0 0 1 5.095 3.038 7.185 7.185 0 0 1 1.277 4.398c0 5.042-3.435 7.958-9.384 7.958-3.012 0-5.443-.945-6.637-2.655h-.15c.193.383.313.796.357 1.221v.815H44.51v-8.78ZM67.833 22.108h1.66c.281-.018.563.021.83.114a3.29 3.29 0 0 1-.076-.871V6.691c.002-.276.04-.55.117-.815-.292.063-.59.088-.888.073h-1.66V1.412h12.189v4.545h-1.66a3.505 3.505 0 0 1-.887-.073c.1.279.14.576.116.871v14.596c.021.295-.018.592-.116.872.285-.096.587-.135.887-.114h1.66v4.593H67.833v-4.594ZM89.571 7.896a13.51 13.51 0 0 0-1.236 5.945 13.7 13.7 0 0 0 1.468 6.639 5.145 5.145 0 0 0 1.889 1.68c.762.397 1.613.6 2.476.592.958.034 1.906-.2 2.734-.677a4.991 4.991 0 0 0 1.937-2.01 14.095 14.095 0 0 0 1.236-5.922c0-5.832-2.082-8.96-5.907-8.96a5.05 5.05 0 0 0-2.703.697 4.923 4.923 0 0 0-1.894 2.016Zm14.794-3.682c2.356 2.28 3.634 5.702 3.634 9.774 0 8.267-5.294 13.423-13.79 13.423-8.496 0-13.856-5.148-13.856-13.333 0-4.024 1.344-7.665 3.593-9.864A14.873 14.873 0 0 1 94.176.5a14.49 14.49 0 0 1 10.155 3.714M108.654 22.108h1.66c.298-.013.596.011.887.074a2.1 2.1 0 0 1-.116-.872V6.755a2.103 2.103 0 0 1 .058-.871c-.29.074-.588.112-.887.114h-1.66V1.412h12.238l5.601 11.525a56.69 56.69 0 0 1 2.746 6.443l.149-.04a52.736 52.736 0 0 1-.348-6.973V6.755a1.963 1.963 0 0 1 .124-.871 3.746 3.746 0 0 1-.896.114h-2.008V1.412h11.284v4.586h-1.659a3.384 3.384 0 0 1-.83-.114c.065.286.09.579.075.871v19.947h-9.185l-6.496-13.235a53.241 53.241 0 0 1-2.697-6.41h-.158c.272 2.316.388 4.648.349 6.98v7.314c.024.295-.016.592-.116.872a3.51 3.51 0 0 1 .888-.074h2.049v4.594h-11.052v-4.634ZM138.864 17.898h6.447c-.042 1.865.149 2.81.829 3.494a4.661 4.661 0 0 0 1.611.938 4.713 4.713 0 0 0 1.858.235c2.165 0 3.517-.986 3.517-2.582a1.399 1.399 0 0 0-.307-1.018c-.506-.57-2.281-1.401-4.563-2.086-3.086-.945-6.057-2.24-7.177-3.144a6.247 6.247 0 0 1-1.734-2.302 6.146 6.146 0 0 1-.506-2.82c0-4.774 3.51-7.771 9.226-7.771a7.915 7.915 0 0 1 3.554.59 7.768 7.768 0 0 1 2.901 2.098h.075a3.79 3.79 0 0 1-.232-1.181v-.937h5.808v8.145h-6.065c-.117-1.515-.382-2.386-.963-3.03a4.301 4.301 0 0 0-1.539-.902 4.364 4.364 0 0 0-1.78-.206c-2.315 0-3.435.815-3.435 2.354a1.61 1.61 0 0 0 .581 1.328 8.977 8.977 0 0 0 2.24 1.067l1.734.562 1.743.61 1.734.563c1.941.559 3.7 1.606 5.102 3.038a7.233 7.233 0 0 1 1.27 4.398c0 5.042-3.435 7.958-9.384 7.958-3.012 0-5.443-.945-6.638-2.655h-.157c.174.383.278.794.307 1.213v.815h-6.057v-8.773ZM10.276 35.067h4.962v1.116h-2.697v1.1h2.564v1.116h-2.564v1.963h-2.265v-5.295ZM17.387 35.067h5.17v1.116h-2.98v.978h2.788v1.115h-2.787v.97h3.003v1.116h-5.194v-5.295ZM27.136 39.164h.623c1.028 0 1.659-.456 1.659-1.45 0-.993-.622-1.441-1.66-1.441h-.622v2.891Zm-2.273-4.072h2.887c1.593 0 2.622.138 3.319.871.454.5.692 1.155.664 1.825.021.348-.033.697-.16 1.023a2.44 2.44 0 0 1-.579.866c-.63.505-1.228.709-2.895.709h-3.244l.008-5.294ZM33.99 35.067h5.177v1.116h-2.979v.978h2.788v1.115h-2.788v.97h3.003v1.116H33.99v-5.295ZM43.738 37.413h.871c.482 0 .83-.146.83-.643s-.34-.628-.896-.628h-.83l.025 1.271Zm-2.29-2.346h3.842c1.477 0 2.381.285 2.381 1.458.001.314-.117.617-.332.85-.215.231-.511.376-.83.405v.073c.523 0 .955.195 1.046.733l.29 1.776h-2.248l-.183-1.181c-.108-.652-.199-.742-.979-.742h-.689v1.923h-2.298v-5.295ZM54.184 38.325l-.83-1.849-.879 1.85h1.71Zm-2.157-3.258h2.83l2.754 5.295h-2.49l-.397-.88h-2.796l-.424.88h-2.223l2.746-5.295ZM59.37 35.067h2.274v4h2.48v1.295H59.37v-5.295ZM74.637 37.03c-.058-.651-.34-.944-.954-.944-.88 0-1.179.749-1.179 1.629s.299 1.628 1.178 1.628a.93.93 0 0 0 .775-.241.894.894 0 0 0 .27-.752h2.316a1.69 1.69 0 0 1-.481 1.327c-.808.6-1.811.89-2.821.815-2.705 0-3.601-1.091-3.601-2.786 0-1.254.572-2.785 3.6-2.785a4.157 4.157 0 0 1 2.764.692c.331.31.447.635.447 1.41l-2.314.007ZM81.481 37.413h.83c.49 0 .83-.146.83-.643s-.349-.628-.896-.628h-.83l.066 1.271Zm-2.273-2.346h3.841c1.47 0 2.382.285 2.382 1.458.001.314-.117.617-.332.85-.216.231-.511.376-.83.405v.073c.523 0 .954.195 1.046.733l.29 1.776h-2.273l-.183-1.181c-.108-.652-.207-.742-.979-.742h-.689v1.923h-2.273v-5.295ZM87.788 35.067h5.177v1.116h-2.979v.978h2.788v1.115h-2.788v.97h3.004v1.116h-5.202v-5.295ZM97.537 39.164h.63c1.029 0 1.66-.456 1.66-1.45 0-.993-.623-1.441-1.66-1.441h-.63v2.891Zm-2.274-4.072h2.896c1.585 0 2.622.138 3.36.871.451.502.686 1.156.656 1.825a2.412 2.412 0 0 1-.731 1.89c-.638.504-1.236.708-2.904.708h-3.318l.041-5.294ZM106.63 35.067h-2.274v5.295h2.274v-5.295ZM110.355 36.354h-1.767v-1.287h5.808v1.287h-1.767v4.008h-2.274v-4.008ZM120.635 35.067h2.199v2.9c0 1.018.357 1.336 1.046 1.336.688 0 1.045-.318 1.045-1.336v-2.9h2.149v3.096a1.886 1.886 0 0 1-.514 1.547 5.05 5.05 0 0 1-5.41 0 1.898 1.898 0 0 1-.515-1.547v-3.096ZM129.414 35.067h3.327l1.817 3.552h.016v-3.552h1.983v5.295h-3.227l-1.925-3.772h-.017v3.772h-1.974v-5.295ZM141.228 35.067h-2.273v5.295h2.273v-5.295ZM147.011 36.135c-.746 0-1.294.497-1.294 1.58 0 1.083.548 1.629 1.294 1.629.747 0 1.295-.497 1.295-1.63 0-1.131-.548-1.58-1.295-1.58Zm2.904 3.453c-.81.663-1.852.99-2.904.912-2.638 0-3.609-1.197-3.609-2.785-.023-.422.06-.843.241-1.226.18-.383.454-.718.796-.973a4.161 4.161 0 0 1 2.572-.587c2.639 0 3.61 1.206 3.61 2.786a2.48 2.48 0 0 1-.706 1.873ZM152.761 35.067h3.319l1.817 3.552h.025v-3.552h1.975v5.295h-3.22l-1.924-3.772h-.017v3.772h-1.975v-5.295Z" fill="#05446B"/><path d="M9.829 31.027h150.433" stroke="#F99D31" stroke-width="1.32" stroke-miterlimit="10"/></g><defs><clipPath id="a"><path fill="#fff" transform="translate(.793 .5)" d="M0 0h160v40H0z"/></clipPath></defs></svg>