<svg width="53" height="52" fill="none" xmlns="http://www.w3.org/2000/svg" viewBox="0 0 53 52"><path d="M48.5 45.724V48h-44v-2.276l.12-.759.599-3.793.838-5.31.6-3.794.119-.758 15.172-3.035h9.104l15.172 3.035.12.759.599 3.793.838 5.31.6 3.793.119.759Z" fill="#D70073"/><path d="M46.943 35.862H6.057l.6-3.793h39.686l.6 3.793ZM13.603 39.655h25.793V48H13.603v-8.345Z" fill="#F5B4D7"/><path d="M13.603 43.448h25.793v3.793H13.603v-3.793Z" fill="#D70073"/><path d="M48.38 44.965h-8.983v-3.793h8.384l.6 3.793ZM13.604 41.172v3.793H4.62l.599-3.793h8.384Z" fill="#F5B4D7"/><path d="M37.88 39.655h1.517v3.793h-1.518v-3.793Z" fill="#C1D7E6"/><path d="m34.845 29.034-1.227 1.227a10.065 10.065 0 0 1-14.236 0l-1.227-1.227 3.793-.759h9.104l3.793.759Z" fill="#BB0064"/><path d="m17.396 8.552-3.793 7.586 2.276 2.276 1.517 6.069h4.552v3.793a6.438 6.438 0 0 0 9.104 0V8.552H17.395Z" fill="#FFE5F3"/><path d="m21.948 16.138 2.406-2.406a2.146 2.146 0 0 1 3.663 1.517v.526a6.21 6.21 0 0 1-1.043 3.444 1.598 1.598 0 0 1-1.33.712h-.197c-.305 0-.606-.071-.88-.208l-1.101-.55-1.518-3.035Z" fill="#BB0064"/><path d="M33.327 4v11.195a7.77 7.77 0 0 1-2.275 5.495 20.685 20.685 0 0 1-3.445-2.697 20.56 20.56 0 0 1-3.33-4.184 20.68 20.68 0 0 1-1.74-3.639l-.589-1.618H15.88a2.277 2.277 0 0 1-2.276-2.276V4h19.724Z" fill="#D281AC"/><path d="M33.328 10.828v2.276l-5.317 1.993-.752.282h-9.863l-2.275-2.275 2.275-4.552h4.552l11.38 2.276Z" fill="#D70073"/><path d="M28.017 15.25v.524c0 .759-.139 1.51-.41 2.219a20.573 20.573 0 0 1-3.33-4.184l.077-.077a2.146 2.146 0 0 1 3.663 1.517Z" fill="#BB0064"/><path d="M19.672 13.103h-.758a.758.758 0 1 1 0-1.517h.758a.759.759 0 0 1 0 1.517Z" fill="#fff"/><path d="m28.012 15.097-.753.282h-4.552l1.647-1.647a2.147 2.147 0 0 1 3.658 1.365Z" fill="#BB0064"/><path d="m21.19 16.138 2.406-2.406a2.147 2.147 0 0 1 3.663 1.517v.526a6.21 6.21 0 0 1-1.043 3.444 1.597 1.597 0 0 1-1.33.712h-.197c-.306 0-.607-.071-.88-.208l-1.102-.55-1.517-3.035Z" fill="#FFCFE9"/><path d="M48.5 24.482v8.14A11.381 11.381 0 0 1 42.21 42.8l-2.814 1.407-2.813-1.407a11.38 11.38 0 0 1-6.29-10.178v-8.14a7.11 7.11 0 0 0 9.103 0 7.11 7.11 0 0 0 9.104 0Z" fill="#BB0064"/><path d="M45.466 25.966v6.656a8.301 8.301 0 0 1-4.613 7.464l-1.456.728-1.457-.728a8.301 8.301 0 0 1-4.612-7.464v-6.655a7.106 7.106 0 0 0 6.069-1.485 7.107 7.107 0 0 0 6.069 1.485Z" fill="#FFD3EB"/></svg>