<svg width="53" height="52" fill="none" xmlns="http://www.w3.org/2000/svg" viewBox="0 0 53 52"><path d="M13.017 29.276v7.93a.79.79 0 0 1-.793.794H8.26a4.759 4.759 0 0 1 0-9.518h3.965a.795.795 0 0 1 .793.794ZM28.483 29.276v7.93a.794.794 0 0 1-.794.794h-3.965a4.759 4.759 0 0 1 0-9.518h3.965a.794.794 0 0 1 .794.794ZM43.948 29.276v7.93a.794.794 0 0 1-.793.794H39.19a4.759 4.759 0 0 1 0-9.518h3.965a.794.794 0 0 1 .793.794Z" fill="#0046B4"/><path d="M12.224 37.206a3.965 3.965 0 1 0 0-7.93 3.965 3.965 0 0 0 0 7.93Z" fill="#D4E4F0"/><path d="M12.224 38a4.759 4.759 0 1 1 0-9.518 4.759 4.759 0 0 1 0 9.518Zm0-7.931a3.172 3.172 0 1 0 0 6.344 3.172 3.172 0 0 0 0-6.344Z" fill="#0046B4"/><path d="m38.362 15.175-1.551 7.756H25.707l3.845-4.805A8.326 8.326 0 0 1 36.018 15h.239c.705 0 1.41.058 2.105.175Z" fill="#97B7F0"/><path d="M46.317 19.748a12.339 12.339 0 0 1-8.271 3.183H36.81l1.552-7.755a12.817 12.817 0 0 1 6.963 3.58l.992.992Z" fill="#97B7F0"/><path d="M49.5 24.551v9.484h-46v-4.759a6.33 6.33 0 0 1 1.11-3.585 6.336 6.336 0 0 1 5.235-2.76h28.2a12.34 12.34 0 0 0 8.272-3.183l.488.489c.21.21.44.398.687.563A4.507 4.507 0 0 1 49.5 24.55Z" fill="#0069DC"/><path d="M36.017 15a8.326 8.326 0 0 0-6.466 3.126l-3.844 4.805H9.845l1.891-1.892A20.619 20.619 0 0 1 26.317 15h9.7Z" fill="#B4C8EB"/><path d="m22.406 25.495-.967.193a9.338 9.338 0 0 0-3.771 1.687l-1.479 1.108.781.26a6.345 6.345 0 0 0 3.251.203l.345-.07a3.172 3.172 0 0 0 2.455-2.34l.078-.314a.594.594 0 0 0-.693-.727ZM9.845 28.483l-.781.26a6.351 6.351 0 0 1-3.251.203l-.344-.07a3.17 3.17 0 0 1-1.8-1.06c.179-.76.497-1.481.94-2.125a9.335 9.335 0 0 1 3.758 1.684l1.478 1.108Z" fill="#D4E4F0"/><path d="m25.707 22.931 2.512-3.139 3.04.76v2.38h-5.552Z" fill="#0046B4"/><path d="m6.673 34.035 3.965-3.173h4.759l3.965 3.173H6.672Z" fill="#B4C8EB"/><path d="M31.258 33.24a3.965 3.965 0 1 1-4.047-3.964h.164a3.965 3.965 0 0 1 3.883 3.965ZM47.12 33.24a3.966 3.966 0 1 1-4.047-3.964h.164a3.965 3.965 0 0 1 3.883 3.965Z" fill="#D4E4F0"/><path d="M49.5 24.551v3.932l-3.965-3.172a5.417 5.417 0 0 1 3.83-1.586h.059c.05.272.076.55.076.826ZM27.293 34.034a.793.793 0 1 0 0-1.586.793.793 0 0 0 0 1.586ZM43.155 34.034a.793.793 0 1 0 0-1.586.793.793 0 0 0 0 1.586Z" fill="#B4C8EB"/><path d="M41.24 26.897h-.464v-1.586h.464a1.901 1.901 0 0 0 1.354-.561l1.122 1.122a3.478 3.478 0 0 1-2.476 1.025ZM32.051 25.31h3.173v1.587h-3.172V25.31Z" fill="#D4E4F0"/><path d="M27.293 38a4.759 4.759 0 1 1 0-9.518 4.759 4.759 0 0 1 0 9.518Zm0-7.931a3.172 3.172 0 1 0 0 6.344 3.172 3.172 0 0 0 0-6.344ZM43.155 38a4.759 4.759 0 1 1 0-9.518 4.759 4.759 0 0 1 0 9.518Zm0-7.931a3.172 3.172 0 1 0 0 6.345 3.172 3.172 0 0 0 0-6.345Z" fill="#0046B4"/></svg>