<svg width="53" height="52" fill="none" xmlns="http://www.w3.org/2000/svg" viewBox="0 0 53 52"><path d="M9.167 11.267v33.8A1.734 1.734 0 0 0 10.9 46.8h27.733a1.734 1.734 0 0 0 1.734-1.733v-33.8h-31.2Z" fill="#F5B4D7"/><path d="M38.633 7.8H10.9a1.733 1.733 0 0 0-1.733 1.733V13h31.2V9.533A1.734 1.734 0 0 0 38.633 7.8Z" fill="#F00082"/><path d="M33.433 9.534H16.1v-2.6A1.733 1.733 0 0 1 17.833 5.2H31.7a1.733 1.733 0 0 1 1.733 1.734v2.6Z" fill="#D70073"/><path d="M32.567 35.533H23.9v1.733h8.667v-1.733ZM20.433 35.533h-3.466v1.733h3.466v-1.733ZM32.567 21.667H23.9V23.4h8.667v-1.733ZM32.567 28.6H23.9v1.734h8.667V28.6Z" fill="#fff"/><path d="m18.873 24.795-2.348-2.348 1.222-1.222 1.126 1.126 1.82-1.82 1.222 1.222-3.042 3.042ZM18.873 31.729l-2.348-2.349 1.222-1.222 1.126 1.127 1.82-1.82 1.222 1.222-3.042 3.042ZM32.653 39.607l-3.986.953a.406.406 0 0 1-.52-.52l.953-3.987c0-.173.087-.26.26-.433l10.227-10.227a2.513 2.513 0 0 1 3.64 0 2.513 2.513 0 0 1 0 3.64l-10.14 10.314a1.897 1.897 0 0 1-.434.26Z" fill="#D70073"/></svg>