<svg width="53" height="52" fill="none" xmlns="http://www.w3.org/2000/svg" viewBox="0 0 53 52"><path d="M41.93 38.856a41.939 41.939 0 0 1-29.86 0 3.242 3.242 0 0 1-2.087-3.029V18.914h34.034v16.913a3.242 3.242 0 0 1-2.087 3.03Z" fill="#00C8F5"/><path d="M3.5 18.103 27 10l23.5 8.103L27 26.207 3.5 18.103Z" fill="#5CB3FF"/><path d="M38.345 26.612h-1.62v-3.079L26.67 19.878l.554-1.523 10.587 3.85a.81.81 0 0 1 .533.76v3.647Z" fill="#287FCB"/><path d="M27 20.534a2.431 2.431 0 1 0 0-4.862 2.431 2.431 0 0 0 0 4.862Z" fill="#5CDBFF"/><path d="M37.535 25.396a2.431 2.431 0 0 1 2.43 2.431v.81h-4.862v-.81a2.43 2.43 0 0 1 2.432-2.43ZM35.103 28.638h4.863v3.241h-4.863v-3.241Z" fill="#287FCB"/><path d="M35.103 31.879h1.621v5.672h-1.62V31.88Z" fill="#5CB3FF"/><path d="M36.724 31.879h1.62v5.672h-1.62V31.88Z" fill="#287FCB"/><path d="M38.345 31.879h1.62v5.672h-1.62V31.88Z" fill="#5CB3FF"/></svg>